G04 #@! TF.GenerationSoftware,KiCad,Pcbnew,5.99.0-unknown-c3175b4~86~ubuntu16.04.1*
G04 #@! TF.CreationDate,2019-12-02T17:49:07+01:00*
G04 #@! TF.ProjectId,OpenPLC,4f70656e-504c-4432-9e6b-696361645f70,0.01*
G04 #@! TF.SameCoordinates,Original*
G04 #@! TF.FileFunction,Paste,Bot*
G04 #@! TF.FilePolarity,Positive*
%FSLAX46Y46*%
G04 Gerber Fmt 4.6, Leading zero omitted, Abs format (unit mm)*
G04 Created by KiCad (PCBNEW 5.99.0-unknown-c3175b4~86~ubuntu16.04.1) date 2019-12-02 17:49:07*
%MOMM*%
%LPD*%
G04 APERTURE LIST*
%ADD10C,0.150000*%
G04 APERTURE END LIST*
D10*
X182443380Y-117914214D02*
X181443380Y-117914214D01*
X181443380Y-118152309D01*
X181491000Y-118295166D01*
X181586238Y-118390404D01*
X181681476Y-118438023D01*
X181871952Y-118485642D01*
X182014809Y-118485642D01*
X182205285Y-118438023D01*
X182300523Y-118390404D01*
X182395761Y-118295166D01*
X182443380Y-118152309D01*
X182443380Y-117914214D01*
X181443380Y-118818976D02*
X181443380Y-119438023D01*
X181824333Y-119104690D01*
X181824333Y-119247547D01*
X181871952Y-119342785D01*
X181919571Y-119390404D01*
X182014809Y-119438023D01*
X182252904Y-119438023D01*
X182348142Y-119390404D01*
X182395761Y-119342785D01*
X182443380Y-119247547D01*
X182443380Y-118961833D01*
X182395761Y-118866595D01*
X182348142Y-118818976D01*
X182443380Y-120390404D02*
X182443380Y-119818976D01*
X182443380Y-120104690D02*
X181443380Y-120104690D01*
X181586238Y-120009452D01*
X181681476Y-119914214D01*
X181729095Y-119818976D01*
X180411380Y-117911714D02*
X179411380Y-117911714D01*
X179411380Y-118149809D01*
X179459000Y-118292666D01*
X179554238Y-118387904D01*
X179649476Y-118435523D01*
X179839952Y-118483142D01*
X179982809Y-118483142D01*
X180173285Y-118435523D01*
X180268523Y-118387904D01*
X180363761Y-118292666D01*
X180411380Y-118149809D01*
X180411380Y-117911714D01*
X179411380Y-118816476D02*
X179411380Y-119435523D01*
X179792333Y-119102190D01*
X179792333Y-119245047D01*
X179839952Y-119340285D01*
X179887571Y-119387904D01*
X179982809Y-119435523D01*
X180220904Y-119435523D01*
X180316142Y-119387904D01*
X180363761Y-119340285D01*
X180411380Y-119245047D01*
X180411380Y-118959333D01*
X180363761Y-118864095D01*
X180316142Y-118816476D01*
X179411380Y-120054571D02*
X179411380Y-120149809D01*
X179459000Y-120245047D01*
X179506619Y-120292666D01*
X179601857Y-120340285D01*
X179792333Y-120387904D01*
X180030428Y-120387904D01*
X180220904Y-120340285D01*
X180316142Y-120292666D01*
X180363761Y-120245047D01*
X180411380Y-120149809D01*
X180411380Y-120054571D01*
X180363761Y-119959333D01*
X180316142Y-119911714D01*
X180220904Y-119864095D01*
X180030428Y-119816476D01*
X179792333Y-119816476D01*
X179601857Y-119864095D01*
X179506619Y-119911714D01*
X179459000Y-119959333D01*
X179411380Y-120054571D01*
X178379380Y-117977714D02*
X177379380Y-117977714D01*
X177379380Y-118215809D01*
X177427000Y-118358666D01*
X177522238Y-118453904D01*
X177617476Y-118501523D01*
X177807952Y-118549142D01*
X177950809Y-118549142D01*
X178141285Y-118501523D01*
X178236523Y-118453904D01*
X178331761Y-118358666D01*
X178379380Y-118215809D01*
X178379380Y-117977714D01*
X177474619Y-118930095D02*
X177427000Y-118977714D01*
X177379380Y-119072952D01*
X177379380Y-119311047D01*
X177427000Y-119406285D01*
X177474619Y-119453904D01*
X177569857Y-119501523D01*
X177665095Y-119501523D01*
X177807952Y-119453904D01*
X178379380Y-118882476D01*
X178379380Y-119501523D01*
X178379380Y-119977714D02*
X178379380Y-120168190D01*
X178331761Y-120263428D01*
X178284142Y-120311047D01*
X178141285Y-120406285D01*
X177950809Y-120453904D01*
X177569857Y-120453904D01*
X177474619Y-120406285D01*
X177427000Y-120358666D01*
X177379380Y-120263428D01*
X177379380Y-120072952D01*
X177427000Y-119977714D01*
X177474619Y-119930095D01*
X177569857Y-119882476D01*
X177807952Y-119882476D01*
X177903190Y-119930095D01*
X177950809Y-119977714D01*
X177998428Y-120072952D01*
X177998428Y-120263428D01*
X177950809Y-120358666D01*
X177903190Y-120406285D01*
X177807952Y-120453904D01*
X188539380Y-117916714D02*
X187539380Y-117916714D01*
X187539380Y-118154809D01*
X187587000Y-118297666D01*
X187682238Y-118392904D01*
X187777476Y-118440523D01*
X187967952Y-118488142D01*
X188110809Y-118488142D01*
X188301285Y-118440523D01*
X188396523Y-118392904D01*
X188491761Y-118297666D01*
X188539380Y-118154809D01*
X188539380Y-117916714D01*
X187634619Y-118869095D02*
X187587000Y-118916714D01*
X187539380Y-119011952D01*
X187539380Y-119250047D01*
X187587000Y-119345285D01*
X187634619Y-119392904D01*
X187729857Y-119440523D01*
X187825095Y-119440523D01*
X187967952Y-119392904D01*
X188539380Y-118821476D01*
X188539380Y-119440523D01*
X187539380Y-119773857D02*
X187539380Y-120440523D01*
X188539380Y-120011952D01*
X190571380Y-117975214D02*
X189571380Y-117975214D01*
X189571380Y-118213309D01*
X189619000Y-118356166D01*
X189714238Y-118451404D01*
X189809476Y-118499023D01*
X189999952Y-118546642D01*
X190142809Y-118546642D01*
X190333285Y-118499023D01*
X190428523Y-118451404D01*
X190523761Y-118356166D01*
X190571380Y-118213309D01*
X190571380Y-117975214D01*
X189666619Y-118927595D02*
X189619000Y-118975214D01*
X189571380Y-119070452D01*
X189571380Y-119308547D01*
X189619000Y-119403785D01*
X189666619Y-119451404D01*
X189761857Y-119499023D01*
X189857095Y-119499023D01*
X189999952Y-119451404D01*
X190571380Y-118879976D01*
X190571380Y-119499023D01*
X189571380Y-120356166D02*
X189571380Y-120165690D01*
X189619000Y-120070452D01*
X189666619Y-120022833D01*
X189809476Y-119927595D01*
X189999952Y-119879976D01*
X190380904Y-119879976D01*
X190476142Y-119927595D01*
X190523761Y-119975214D01*
X190571380Y-120070452D01*
X190571380Y-120260928D01*
X190523761Y-120356166D01*
X190476142Y-120403785D01*
X190380904Y-120451404D01*
X190142809Y-120451404D01*
X190047571Y-120403785D01*
X189999952Y-120356166D01*
X189952333Y-120260928D01*
X189952333Y-120070452D01*
X189999952Y-119975214D01*
X190047571Y-119927595D01*
X190142809Y-119879976D01*
X184475380Y-117914214D02*
X183475380Y-117914214D01*
X183475380Y-118152309D01*
X183523000Y-118295166D01*
X183618238Y-118390404D01*
X183713476Y-118438023D01*
X183903952Y-118485642D01*
X184046809Y-118485642D01*
X184237285Y-118438023D01*
X184332523Y-118390404D01*
X184427761Y-118295166D01*
X184475380Y-118152309D01*
X184475380Y-117914214D01*
X183570619Y-118866595D02*
X183523000Y-118914214D01*
X183475380Y-119009452D01*
X183475380Y-119247547D01*
X183523000Y-119342785D01*
X183570619Y-119390404D01*
X183665857Y-119438023D01*
X183761095Y-119438023D01*
X183903952Y-119390404D01*
X184475380Y-118818976D01*
X184475380Y-119438023D01*
X183475380Y-120342785D02*
X183475380Y-119866595D01*
X183951571Y-119818976D01*
X183903952Y-119866595D01*
X183856333Y-119961833D01*
X183856333Y-120199928D01*
X183903952Y-120295166D01*
X183951571Y-120342785D01*
X184046809Y-120390404D01*
X184284904Y-120390404D01*
X184380142Y-120342785D01*
X184427761Y-120295166D01*
X184475380Y-120199928D01*
X184475380Y-119961833D01*
X184427761Y-119866595D01*
X184380142Y-119818976D01*
X186507380Y-117977714D02*
X185507380Y-117977714D01*
X185507380Y-118215809D01*
X185555000Y-118358666D01*
X185650238Y-118453904D01*
X185745476Y-118501523D01*
X185935952Y-118549142D01*
X186078809Y-118549142D01*
X186269285Y-118501523D01*
X186364523Y-118453904D01*
X186459761Y-118358666D01*
X186507380Y-118215809D01*
X186507380Y-117977714D01*
X185602619Y-118930095D02*
X185555000Y-118977714D01*
X185507380Y-119072952D01*
X185507380Y-119311047D01*
X185555000Y-119406285D01*
X185602619Y-119453904D01*
X185697857Y-119501523D01*
X185793095Y-119501523D01*
X185935952Y-119453904D01*
X186507380Y-118882476D01*
X186507380Y-119501523D01*
X185840714Y-120358666D02*
X186507380Y-120358666D01*
X185459761Y-120120571D02*
X186174047Y-119882476D01*
X186174047Y-120501523D01*
X176347380Y-117975214D02*
X175347380Y-117975214D01*
X175347380Y-118213309D01*
X175395000Y-118356166D01*
X175490238Y-118451404D01*
X175585476Y-118499023D01*
X175775952Y-118546642D01*
X175918809Y-118546642D01*
X176109285Y-118499023D01*
X176204523Y-118451404D01*
X176299761Y-118356166D01*
X176347380Y-118213309D01*
X176347380Y-117975214D01*
X175442619Y-118927595D02*
X175395000Y-118975214D01*
X175347380Y-119070452D01*
X175347380Y-119308547D01*
X175395000Y-119403785D01*
X175442619Y-119451404D01*
X175537857Y-119499023D01*
X175633095Y-119499023D01*
X175775952Y-119451404D01*
X176347380Y-118879976D01*
X176347380Y-119499023D01*
X176347380Y-120451404D02*
X176347380Y-119879976D01*
X176347380Y-120165690D02*
X175347380Y-120165690D01*
X175490238Y-120070452D01*
X175585476Y-119975214D01*
X175633095Y-119879976D01*
X176347380Y-121914642D02*
X175871190Y-121581309D01*
X176347380Y-121343214D02*
X175347380Y-121343214D01*
X175347380Y-121724166D01*
X175395000Y-121819404D01*
X175442619Y-121867023D01*
X175537857Y-121914642D01*
X175680714Y-121914642D01*
X175775952Y-121867023D01*
X175823571Y-121819404D01*
X175871190Y-121724166D01*
X175871190Y-121343214D01*
X175347380Y-122771785D02*
X175347380Y-122581309D01*
X175395000Y-122486071D01*
X175442619Y-122438452D01*
X175585476Y-122343214D01*
X175775952Y-122295595D01*
X176156904Y-122295595D01*
X176252142Y-122343214D01*
X176299761Y-122390833D01*
X176347380Y-122486071D01*
X176347380Y-122676547D01*
X176299761Y-122771785D01*
X176252142Y-122819404D01*
X176156904Y-122867023D01*
X175918809Y-122867023D01*
X175823571Y-122819404D01*
X175775952Y-122771785D01*
X175728333Y-122676547D01*
X175728333Y-122486071D01*
X175775952Y-122390833D01*
X175823571Y-122343214D01*
X175918809Y-122295595D01*
X175680714Y-123724166D02*
X176347380Y-123724166D01*
X175299761Y-123486071D02*
X176014047Y-123247976D01*
X176014047Y-123867023D01*
X182443380Y-121914642D02*
X181967190Y-121581309D01*
X182443380Y-121343214D02*
X181443380Y-121343214D01*
X181443380Y-121724166D01*
X181491000Y-121819404D01*
X181538619Y-121867023D01*
X181633857Y-121914642D01*
X181776714Y-121914642D01*
X181871952Y-121867023D01*
X181919571Y-121819404D01*
X181967190Y-121724166D01*
X181967190Y-121343214D01*
X181443380Y-122819404D02*
X181443380Y-122343214D01*
X181919571Y-122295595D01*
X181871952Y-122343214D01*
X181824333Y-122438452D01*
X181824333Y-122676547D01*
X181871952Y-122771785D01*
X181919571Y-122819404D01*
X182014809Y-122867023D01*
X182252904Y-122867023D01*
X182348142Y-122819404D01*
X182395761Y-122771785D01*
X182443380Y-122676547D01*
X182443380Y-122438452D01*
X182395761Y-122343214D01*
X182348142Y-122295595D01*
X181443380Y-123200357D02*
X181443380Y-123867023D01*
X182443380Y-123438452D01*
X180411380Y-121851142D02*
X179935190Y-121517809D01*
X180411380Y-121279714D02*
X179411380Y-121279714D01*
X179411380Y-121660666D01*
X179459000Y-121755904D01*
X179506619Y-121803523D01*
X179601857Y-121851142D01*
X179744714Y-121851142D01*
X179839952Y-121803523D01*
X179887571Y-121755904D01*
X179935190Y-121660666D01*
X179935190Y-121279714D01*
X179411380Y-122755904D02*
X179411380Y-122279714D01*
X179887571Y-122232095D01*
X179839952Y-122279714D01*
X179792333Y-122374952D01*
X179792333Y-122613047D01*
X179839952Y-122708285D01*
X179887571Y-122755904D01*
X179982809Y-122803523D01*
X180220904Y-122803523D01*
X180316142Y-122755904D01*
X180363761Y-122708285D01*
X180411380Y-122613047D01*
X180411380Y-122374952D01*
X180363761Y-122279714D01*
X180316142Y-122232095D01*
X179411380Y-123660666D02*
X179411380Y-123470190D01*
X179459000Y-123374952D01*
X179506619Y-123327333D01*
X179649476Y-123232095D01*
X179839952Y-123184476D01*
X180220904Y-123184476D01*
X180316142Y-123232095D01*
X180363761Y-123279714D01*
X180411380Y-123374952D01*
X180411380Y-123565428D01*
X180363761Y-123660666D01*
X180316142Y-123708285D01*
X180220904Y-123755904D01*
X179982809Y-123755904D01*
X179887571Y-123708285D01*
X179839952Y-123660666D01*
X179792333Y-123565428D01*
X179792333Y-123374952D01*
X179839952Y-123279714D01*
X179887571Y-123232095D01*
X179982809Y-123184476D01*
X178379380Y-121914642D02*
X177903190Y-121581309D01*
X178379380Y-121343214D02*
X177379380Y-121343214D01*
X177379380Y-121724166D01*
X177427000Y-121819404D01*
X177474619Y-121867023D01*
X177569857Y-121914642D01*
X177712714Y-121914642D01*
X177807952Y-121867023D01*
X177855571Y-121819404D01*
X177903190Y-121724166D01*
X177903190Y-121343214D01*
X177379380Y-122819404D02*
X177379380Y-122343214D01*
X177855571Y-122295595D01*
X177807952Y-122343214D01*
X177760333Y-122438452D01*
X177760333Y-122676547D01*
X177807952Y-122771785D01*
X177855571Y-122819404D01*
X177950809Y-122867023D01*
X178188904Y-122867023D01*
X178284142Y-122819404D01*
X178331761Y-122771785D01*
X178379380Y-122676547D01*
X178379380Y-122438452D01*
X178331761Y-122343214D01*
X178284142Y-122295595D01*
X177379380Y-123771785D02*
X177379380Y-123295595D01*
X177855571Y-123247976D01*
X177807952Y-123295595D01*
X177760333Y-123390833D01*
X177760333Y-123628928D01*
X177807952Y-123724166D01*
X177855571Y-123771785D01*
X177950809Y-123819404D01*
X178188904Y-123819404D01*
X178284142Y-123771785D01*
X178331761Y-123724166D01*
X178379380Y-123628928D01*
X178379380Y-123390833D01*
X178331761Y-123295595D01*
X178284142Y-123247976D01*
X188539380Y-121851142D02*
X188063190Y-121517809D01*
X188539380Y-121279714D02*
X187539380Y-121279714D01*
X187539380Y-121660666D01*
X187587000Y-121755904D01*
X187634619Y-121803523D01*
X187729857Y-121851142D01*
X187872714Y-121851142D01*
X187967952Y-121803523D01*
X188015571Y-121755904D01*
X188063190Y-121660666D01*
X188063190Y-121279714D01*
X187634619Y-122232095D02*
X187587000Y-122279714D01*
X187539380Y-122374952D01*
X187539380Y-122613047D01*
X187587000Y-122708285D01*
X187634619Y-122755904D01*
X187729857Y-122803523D01*
X187825095Y-122803523D01*
X187967952Y-122755904D01*
X188539380Y-122184476D01*
X188539380Y-122803523D01*
X188539380Y-123279714D02*
X188539380Y-123470190D01*
X188491761Y-123565428D01*
X188444142Y-123613047D01*
X188301285Y-123708285D01*
X188110809Y-123755904D01*
X187729857Y-123755904D01*
X187634619Y-123708285D01*
X187587000Y-123660666D01*
X187539380Y-123565428D01*
X187539380Y-123374952D01*
X187587000Y-123279714D01*
X187634619Y-123232095D01*
X187729857Y-123184476D01*
X187967952Y-123184476D01*
X188063190Y-123232095D01*
X188110809Y-123279714D01*
X188158428Y-123374952D01*
X188158428Y-123565428D01*
X188110809Y-123660666D01*
X188063190Y-123708285D01*
X187967952Y-123755904D01*
X190571380Y-121851142D02*
X190095190Y-121517809D01*
X190571380Y-121279714D02*
X189571380Y-121279714D01*
X189571380Y-121660666D01*
X189619000Y-121755904D01*
X189666619Y-121803523D01*
X189761857Y-121851142D01*
X189904714Y-121851142D01*
X189999952Y-121803523D01*
X190047571Y-121755904D01*
X190095190Y-121660666D01*
X190095190Y-121279714D01*
X189666619Y-122232095D02*
X189619000Y-122279714D01*
X189571380Y-122374952D01*
X189571380Y-122613047D01*
X189619000Y-122708285D01*
X189666619Y-122755904D01*
X189761857Y-122803523D01*
X189857095Y-122803523D01*
X189999952Y-122755904D01*
X190571380Y-122184476D01*
X190571380Y-122803523D01*
X189999952Y-123374952D02*
X189952333Y-123279714D01*
X189904714Y-123232095D01*
X189809476Y-123184476D01*
X189761857Y-123184476D01*
X189666619Y-123232095D01*
X189619000Y-123279714D01*
X189571380Y-123374952D01*
X189571380Y-123565428D01*
X189619000Y-123660666D01*
X189666619Y-123708285D01*
X189761857Y-123755904D01*
X189809476Y-123755904D01*
X189904714Y-123708285D01*
X189952333Y-123660666D01*
X189999952Y-123565428D01*
X189999952Y-123374952D01*
X190047571Y-123279714D01*
X190095190Y-123232095D01*
X190190428Y-123184476D01*
X190380904Y-123184476D01*
X190476142Y-123232095D01*
X190523761Y-123279714D01*
X190571380Y-123374952D01*
X190571380Y-123565428D01*
X190523761Y-123660666D01*
X190476142Y-123708285D01*
X190380904Y-123755904D01*
X190190428Y-123755904D01*
X190095190Y-123708285D01*
X190047571Y-123660666D01*
X189999952Y-123565428D01*
X184475380Y-123197857D02*
X183999190Y-123531190D01*
X184475380Y-123769285D02*
X183475380Y-123769285D01*
X183475380Y-123388333D01*
X183523000Y-123293095D01*
X183570619Y-123245476D01*
X183665857Y-123197857D01*
X183808714Y-123197857D01*
X183903952Y-123245476D01*
X183951571Y-123293095D01*
X183999190Y-123388333D01*
X183999190Y-123769285D01*
X183570619Y-122816904D02*
X183523000Y-122769285D01*
X183475380Y-122674047D01*
X183475380Y-122435952D01*
X183523000Y-122340714D01*
X183570619Y-122293095D01*
X183665857Y-122245476D01*
X183761095Y-122245476D01*
X183903952Y-122293095D01*
X184475380Y-122864523D01*
X184475380Y-122245476D01*
X183475380Y-121912142D02*
X183475380Y-121245476D01*
X184475380Y-121674047D01*
X186507380Y-121851142D02*
X186031190Y-121517809D01*
X186507380Y-121279714D02*
X185507380Y-121279714D01*
X185507380Y-121660666D01*
X185555000Y-121755904D01*
X185602619Y-121803523D01*
X185697857Y-121851142D01*
X185840714Y-121851142D01*
X185935952Y-121803523D01*
X185983571Y-121755904D01*
X186031190Y-121660666D01*
X186031190Y-121279714D01*
X185602619Y-122232095D02*
X185555000Y-122279714D01*
X185507380Y-122374952D01*
X185507380Y-122613047D01*
X185555000Y-122708285D01*
X185602619Y-122755904D01*
X185697857Y-122803523D01*
X185793095Y-122803523D01*
X185935952Y-122755904D01*
X186507380Y-122184476D01*
X186507380Y-122803523D01*
X185507380Y-123660666D02*
X185507380Y-123470190D01*
X185555000Y-123374952D01*
X185602619Y-123327333D01*
X185745476Y-123232095D01*
X185935952Y-123184476D01*
X186316904Y-123184476D01*
X186412142Y-123232095D01*
X186459761Y-123279714D01*
X186507380Y-123374952D01*
X186507380Y-123565428D01*
X186459761Y-123660666D01*
X186412142Y-123708285D01*
X186316904Y-123755904D01*
X186078809Y-123755904D01*
X185983571Y-123708285D01*
X185935952Y-123660666D01*
X185888333Y-123565428D01*
X185888333Y-123374952D01*
X185935952Y-123279714D01*
X185983571Y-123232095D01*
X186078809Y-123184476D01*
X174251880Y-79491642D02*
X173775690Y-79158309D01*
X174251880Y-78920214D02*
X173251880Y-78920214D01*
X173251880Y-79301166D01*
X173299500Y-79396404D01*
X173347119Y-79444023D01*
X173442357Y-79491642D01*
X173585214Y-79491642D01*
X173680452Y-79444023D01*
X173728071Y-79396404D01*
X173775690Y-79301166D01*
X173775690Y-78920214D01*
X174251880Y-80444023D02*
X174251880Y-79872595D01*
X174251880Y-80158309D02*
X173251880Y-80158309D01*
X173394738Y-80063071D01*
X173489976Y-79967833D01*
X173537595Y-79872595D01*
X173251880Y-81301166D02*
X173251880Y-81110690D01*
X173299500Y-81015452D01*
X173347119Y-80967833D01*
X173489976Y-80872595D01*
X173680452Y-80824976D01*
X174061404Y-80824976D01*
X174156642Y-80872595D01*
X174204261Y-80920214D01*
X174251880Y-81015452D01*
X174251880Y-81205928D01*
X174204261Y-81301166D01*
X174156642Y-81348785D01*
X174061404Y-81396404D01*
X173823309Y-81396404D01*
X173728071Y-81348785D01*
X173680452Y-81301166D01*
X173632833Y-81205928D01*
X173632833Y-81015452D01*
X173680452Y-80920214D01*
X173728071Y-80872595D01*
X173823309Y-80824976D01*
X178252380Y-79428142D02*
X177776190Y-79094809D01*
X178252380Y-78856714D02*
X177252380Y-78856714D01*
X177252380Y-79237666D01*
X177300000Y-79332904D01*
X177347619Y-79380523D01*
X177442857Y-79428142D01*
X177585714Y-79428142D01*
X177680952Y-79380523D01*
X177728571Y-79332904D01*
X177776190Y-79237666D01*
X177776190Y-78856714D01*
X178252380Y-80380523D02*
X178252380Y-79809095D01*
X178252380Y-80094809D02*
X177252380Y-80094809D01*
X177395238Y-79999571D01*
X177490476Y-79904333D01*
X177538095Y-79809095D01*
X177252380Y-81285285D02*
X177252380Y-80809095D01*
X177728571Y-80761476D01*
X177680952Y-80809095D01*
X177633333Y-80904333D01*
X177633333Y-81142428D01*
X177680952Y-81237666D01*
X177728571Y-81285285D01*
X177823809Y-81332904D01*
X178061904Y-81332904D01*
X178157142Y-81285285D01*
X178204761Y-81237666D01*
X178252380Y-81142428D01*
X178252380Y-80904333D01*
X178204761Y-80809095D01*
X178157142Y-80761476D01*
X182379880Y-79494142D02*
X181903690Y-79160809D01*
X182379880Y-78922714D02*
X181379880Y-78922714D01*
X181379880Y-79303666D01*
X181427500Y-79398904D01*
X181475119Y-79446523D01*
X181570357Y-79494142D01*
X181713214Y-79494142D01*
X181808452Y-79446523D01*
X181856071Y-79398904D01*
X181903690Y-79303666D01*
X181903690Y-78922714D01*
X182379880Y-80446523D02*
X182379880Y-79875095D01*
X182379880Y-80160809D02*
X181379880Y-80160809D01*
X181522738Y-80065571D01*
X181617976Y-79970333D01*
X181665595Y-79875095D01*
X181713214Y-81303666D02*
X182379880Y-81303666D01*
X181332261Y-81065571D02*
X182046547Y-80827476D01*
X182046547Y-81446523D01*
X186443880Y-79560142D02*
X185967690Y-79226809D01*
X186443880Y-78988714D02*
X185443880Y-78988714D01*
X185443880Y-79369666D01*
X185491500Y-79464904D01*
X185539119Y-79512523D01*
X185634357Y-79560142D01*
X185777214Y-79560142D01*
X185872452Y-79512523D01*
X185920071Y-79464904D01*
X185967690Y-79369666D01*
X185967690Y-78988714D01*
X186443880Y-80512523D02*
X186443880Y-79941095D01*
X186443880Y-80226809D02*
X185443880Y-80226809D01*
X185586738Y-80131571D01*
X185681976Y-80036333D01*
X185729595Y-79941095D01*
X185443880Y-80845857D02*
X185443880Y-81464904D01*
X185824833Y-81131571D01*
X185824833Y-81274428D01*
X185872452Y-81369666D01*
X185920071Y-81417285D01*
X186015309Y-81464904D01*
X186253404Y-81464904D01*
X186348642Y-81417285D01*
X186396261Y-81369666D01*
X186443880Y-81274428D01*
X186443880Y-80988714D01*
X186396261Y-80893476D01*
X186348642Y-80845857D01*
X190571380Y-79428142D02*
X190095190Y-79094809D01*
X190571380Y-78856714D02*
X189571380Y-78856714D01*
X189571380Y-79237666D01*
X189619000Y-79332904D01*
X189666619Y-79380523D01*
X189761857Y-79428142D01*
X189904714Y-79428142D01*
X189999952Y-79380523D01*
X190047571Y-79332904D01*
X190095190Y-79237666D01*
X190095190Y-78856714D01*
X190571380Y-80380523D02*
X190571380Y-79809095D01*
X190571380Y-80094809D02*
X189571380Y-80094809D01*
X189714238Y-79999571D01*
X189809476Y-79904333D01*
X189857095Y-79809095D01*
X189666619Y-80761476D02*
X189619000Y-80809095D01*
X189571380Y-80904333D01*
X189571380Y-81142428D01*
X189619000Y-81237666D01*
X189666619Y-81285285D01*
X189761857Y-81332904D01*
X189857095Y-81332904D01*
X189999952Y-81285285D01*
X190571380Y-80713857D01*
X190571380Y-81332904D01*
X194635380Y-79367142D02*
X194159190Y-79033809D01*
X194635380Y-78795714D02*
X193635380Y-78795714D01*
X193635380Y-79176666D01*
X193683000Y-79271904D01*
X193730619Y-79319523D01*
X193825857Y-79367142D01*
X193968714Y-79367142D01*
X194063952Y-79319523D01*
X194111571Y-79271904D01*
X194159190Y-79176666D01*
X194159190Y-78795714D01*
X194635380Y-80319523D02*
X194635380Y-79748095D01*
X194635380Y-80033809D02*
X193635380Y-80033809D01*
X193778238Y-79938571D01*
X193873476Y-79843333D01*
X193921095Y-79748095D01*
X194635380Y-81271904D02*
X194635380Y-80700476D01*
X194635380Y-80986190D02*
X193635380Y-80986190D01*
X193778238Y-80890952D01*
X193873476Y-80795714D01*
X193921095Y-80700476D01*
X166377880Y-79489142D02*
X165901690Y-79155809D01*
X166377880Y-78917714D02*
X165377880Y-78917714D01*
X165377880Y-79298666D01*
X165425500Y-79393904D01*
X165473119Y-79441523D01*
X165568357Y-79489142D01*
X165711214Y-79489142D01*
X165806452Y-79441523D01*
X165854071Y-79393904D01*
X165901690Y-79298666D01*
X165901690Y-78917714D01*
X166377880Y-80441523D02*
X166377880Y-79870095D01*
X166377880Y-80155809D02*
X165377880Y-80155809D01*
X165520738Y-80060571D01*
X165615976Y-79965333D01*
X165663595Y-79870095D01*
X165377880Y-81060571D02*
X165377880Y-81155809D01*
X165425500Y-81251047D01*
X165473119Y-81298666D01*
X165568357Y-81346285D01*
X165758833Y-81393904D01*
X165996928Y-81393904D01*
X166187404Y-81346285D01*
X166282642Y-81298666D01*
X166330261Y-81251047D01*
X166377880Y-81155809D01*
X166377880Y-81060571D01*
X166330261Y-80965333D01*
X166282642Y-80917714D01*
X166187404Y-80870095D01*
X165996928Y-80822476D01*
X165758833Y-80822476D01*
X165568357Y-80870095D01*
X165473119Y-80917714D01*
X165425500Y-80965333D01*
X165377880Y-81060571D01*
X170378380Y-79904333D02*
X169902190Y-79571000D01*
X170378380Y-79332904D02*
X169378380Y-79332904D01*
X169378380Y-79713857D01*
X169426000Y-79809095D01*
X169473619Y-79856714D01*
X169568857Y-79904333D01*
X169711714Y-79904333D01*
X169806952Y-79856714D01*
X169854571Y-79809095D01*
X169902190Y-79713857D01*
X169902190Y-79332904D01*
X170378380Y-80380523D02*
X170378380Y-80571000D01*
X170330761Y-80666238D01*
X170283142Y-80713857D01*
X170140285Y-80809095D01*
X169949809Y-80856714D01*
X169568857Y-80856714D01*
X169473619Y-80809095D01*
X169426000Y-80761476D01*
X169378380Y-80666238D01*
X169378380Y-80475761D01*
X169426000Y-80380523D01*
X169473619Y-80332904D01*
X169568857Y-80285285D01*
X169806952Y-80285285D01*
X169902190Y-80332904D01*
X169949809Y-80380523D01*
X169997428Y-80475761D01*
X169997428Y-80666238D01*
X169949809Y-80761476D01*
X169902190Y-80809095D01*
X169806952Y-80856714D01*
X168409880Y-80028833D02*
X167933690Y-79695500D01*
X168409880Y-79457404D02*
X167409880Y-79457404D01*
X167409880Y-79838357D01*
X167457500Y-79933595D01*
X167505119Y-79981214D01*
X167600357Y-80028833D01*
X167743214Y-80028833D01*
X167838452Y-79981214D01*
X167886071Y-79933595D01*
X167933690Y-79838357D01*
X167933690Y-79457404D01*
X167838452Y-80600261D02*
X167790833Y-80505023D01*
X167743214Y-80457404D01*
X167647976Y-80409785D01*
X167600357Y-80409785D01*
X167505119Y-80457404D01*
X167457500Y-80505023D01*
X167409880Y-80600261D01*
X167409880Y-80790738D01*
X167457500Y-80885976D01*
X167505119Y-80933595D01*
X167600357Y-80981214D01*
X167647976Y-80981214D01*
X167743214Y-80933595D01*
X167790833Y-80885976D01*
X167838452Y-80790738D01*
X167838452Y-80600261D01*
X167886071Y-80505023D01*
X167933690Y-80457404D01*
X168028928Y-80409785D01*
X168219404Y-80409785D01*
X168314642Y-80457404D01*
X168362261Y-80505023D01*
X168409880Y-80600261D01*
X168409880Y-80790738D01*
X168362261Y-80885976D01*
X168314642Y-80933595D01*
X168219404Y-80981214D01*
X168028928Y-80981214D01*
X167933690Y-80933595D01*
X167886071Y-80885976D01*
X167838452Y-80790738D01*
X172283380Y-79904333D02*
X171807190Y-79571000D01*
X172283380Y-79332904D02*
X171283380Y-79332904D01*
X171283380Y-79713857D01*
X171331000Y-79809095D01*
X171378619Y-79856714D01*
X171473857Y-79904333D01*
X171616714Y-79904333D01*
X171711952Y-79856714D01*
X171759571Y-79809095D01*
X171807190Y-79713857D01*
X171807190Y-79332904D01*
X171283380Y-80237666D02*
X171283380Y-80904333D01*
X172283380Y-80475761D01*
X176156880Y-80028833D02*
X175680690Y-79695500D01*
X176156880Y-79457404D02*
X175156880Y-79457404D01*
X175156880Y-79838357D01*
X175204500Y-79933595D01*
X175252119Y-79981214D01*
X175347357Y-80028833D01*
X175490214Y-80028833D01*
X175585452Y-79981214D01*
X175633071Y-79933595D01*
X175680690Y-79838357D01*
X175680690Y-79457404D01*
X175156880Y-80885976D02*
X175156880Y-80695500D01*
X175204500Y-80600261D01*
X175252119Y-80552642D01*
X175394976Y-80457404D01*
X175585452Y-80409785D01*
X175966404Y-80409785D01*
X176061642Y-80457404D01*
X176109261Y-80505023D01*
X176156880Y-80600261D01*
X176156880Y-80790738D01*
X176109261Y-80885976D01*
X176061642Y-80933595D01*
X175966404Y-80981214D01*
X175728309Y-80981214D01*
X175633071Y-80933595D01*
X175585452Y-80885976D01*
X175537833Y-80790738D01*
X175537833Y-80600261D01*
X175585452Y-80505023D01*
X175633071Y-80457404D01*
X175728309Y-80409785D01*
X180347880Y-79840833D02*
X179871690Y-79507500D01*
X180347880Y-79269404D02*
X179347880Y-79269404D01*
X179347880Y-79650357D01*
X179395500Y-79745595D01*
X179443119Y-79793214D01*
X179538357Y-79840833D01*
X179681214Y-79840833D01*
X179776452Y-79793214D01*
X179824071Y-79745595D01*
X179871690Y-79650357D01*
X179871690Y-79269404D01*
X179347880Y-80745595D02*
X179347880Y-80269404D01*
X179824071Y-80221785D01*
X179776452Y-80269404D01*
X179728833Y-80364642D01*
X179728833Y-80602738D01*
X179776452Y-80697976D01*
X179824071Y-80745595D01*
X179919309Y-80793214D01*
X180157404Y-80793214D01*
X180252642Y-80745595D01*
X180300261Y-80697976D01*
X180347880Y-80602738D01*
X180347880Y-80364642D01*
X180300261Y-80269404D01*
X180252642Y-80221785D01*
X184348380Y-79906833D02*
X183872190Y-79573500D01*
X184348380Y-79335404D02*
X183348380Y-79335404D01*
X183348380Y-79716357D01*
X183396000Y-79811595D01*
X183443619Y-79859214D01*
X183538857Y-79906833D01*
X183681714Y-79906833D01*
X183776952Y-79859214D01*
X183824571Y-79811595D01*
X183872190Y-79716357D01*
X183872190Y-79335404D01*
X183681714Y-80763976D02*
X184348380Y-80763976D01*
X183300761Y-80525880D02*
X184015047Y-80287785D01*
X184015047Y-80906833D01*
X188475880Y-79909333D02*
X187999690Y-79576000D01*
X188475880Y-79337904D02*
X187475880Y-79337904D01*
X187475880Y-79718857D01*
X187523500Y-79814095D01*
X187571119Y-79861714D01*
X187666357Y-79909333D01*
X187809214Y-79909333D01*
X187904452Y-79861714D01*
X187952071Y-79814095D01*
X187999690Y-79718857D01*
X187999690Y-79337904D01*
X187475880Y-80242666D02*
X187475880Y-80861714D01*
X187856833Y-80528380D01*
X187856833Y-80671238D01*
X187904452Y-80766476D01*
X187952071Y-80814095D01*
X188047309Y-80861714D01*
X188285404Y-80861714D01*
X188380642Y-80814095D01*
X188428261Y-80766476D01*
X188475880Y-80671238D01*
X188475880Y-80385523D01*
X188428261Y-80290285D01*
X188380642Y-80242666D01*
X192539880Y-79784833D02*
X192063690Y-79451500D01*
X192539880Y-79213404D02*
X191539880Y-79213404D01*
X191539880Y-79594357D01*
X191587500Y-79689595D01*
X191635119Y-79737214D01*
X191730357Y-79784833D01*
X191873214Y-79784833D01*
X191968452Y-79737214D01*
X192016071Y-79689595D01*
X192063690Y-79594357D01*
X192063690Y-79213404D01*
X191635119Y-80165785D02*
X191587500Y-80213404D01*
X191539880Y-80308642D01*
X191539880Y-80546738D01*
X191587500Y-80641976D01*
X191635119Y-80689595D01*
X191730357Y-80737214D01*
X191825595Y-80737214D01*
X191968452Y-80689595D01*
X192539880Y-80118166D01*
X192539880Y-80737214D01*
X196667380Y-79843333D02*
X196191190Y-79510000D01*
X196667380Y-79271904D02*
X195667380Y-79271904D01*
X195667380Y-79652857D01*
X195715000Y-79748095D01*
X195762619Y-79795714D01*
X195857857Y-79843333D01*
X196000714Y-79843333D01*
X196095952Y-79795714D01*
X196143571Y-79748095D01*
X196191190Y-79652857D01*
X196191190Y-79271904D01*
X196667380Y-80795714D02*
X196667380Y-80224285D01*
X196667380Y-80510000D02*
X195667380Y-80510000D01*
X195810238Y-80414761D01*
X195905476Y-80319523D01*
X195953095Y-80224285D01*
M02*
