M48
; DRILL file {KiCad 5.99.0-unknown-c3175b4~86~ubuntu16.04.1} date lun 02 dic 2019 17:49:03 CET
; FORMAT={-:-/ absolute / metric / decimal}
; #@! TF.CreationDate,2019-12-02T17:49:03+01:00
; #@! TF.GenerationSoftware,Kicad,Pcbnew,5.99.0-unknown-c3175b4~86~ubuntu16.04.1
FMAT,2
METRIC
T1C0.400
T2C0.600
T3C0.760
T4C0.800
T5C0.810
T6C0.900
T7C1.000
T8C1.020
T9C1.100
T10C1.300
T11C1.500
T12C1.630
T13C2.540
T14C2.750
T15C3.250
%
G90
G05
T1
X98.552Y-95.567
X99.06Y-75.248
X103.505Y-73.724
X105.664Y-93.091
X109.07Y-80.04
X109.855Y-85.344
X109.855Y-87.63
X109.855Y-89.154
X111.442Y-91.948
X112.014Y-82.296
X114.87Y-84.71
X117.348Y-82.55
X117.665Y-95.567
X118.872Y-96.266
X120.904Y-83.312
X121.666Y-95.504
X121.666Y-124.714
X122.308Y-106.8
X122.682Y-96.266
X124.49Y-106.8
X124.54Y-129.032
X124.56Y-132.588
X125.476Y-107.442
X126.174Y-85.28
X127.508Y-124.079
X127.508Y-129.54
X127.73Y-104.68
X128.524Y-118.618
X129.286Y-91.948
X131.826Y-100.33
X131.826Y-103.378
X132.334Y-118.618
X132.334Y-121.158
X132.334Y-123.698
X132.779Y-85.661
X136.144Y-130.556
X139.319Y-83.121
X139.382Y-80.645
X139.446Y-85.598
X139.446Y-88.138
X139.573Y-103.441
X139.891Y-74.93
X139.954Y-108.648
X139.954Y-112.776
X140.462Y-120.904
X141.224Y-128.778
X142.748Y-114.808
X143.002Y-121.92
X143.002Y-127.508
X143.764Y-125.476
X144.018Y-72.898
X144.018Y-76.962
X144.018Y-78.994
X144.018Y-81.788
X144.018Y-83.566
X144.018Y-93.218
X144.018Y-104.648
X144.018Y-108.712
X144.018Y-112.014
X144.018Y-114.046
X144.272Y-119.888
X146.28Y-97.22
X146.3Y-93.76
X147.32Y-92.964
X147.32Y-97.282
X147.574Y-90.424
X148.082Y-74.676
X148.844Y-82.804
X149.098Y-72.644
X149.098Y-74.676
X149.86Y-85.598
X149.86Y-92.202
X150.368Y-71.882
X151.13Y-74.676
X151.638Y-112.522
X151.638Y-117.094
X151.78Y-124.602
X152.06Y-84.58
X152.07Y-81.66
X152.146Y-101.092
X152.4Y-105.918
X152.4Y-108.204
X152.4Y-115.57
X152.654Y-74.676
X152.654Y-76.2
X153.162Y-100.584
X153.924Y-115.57
X154.178Y-99.822
X155.194Y-99.06
X155.43Y-85.46
X155.448Y-77.978
X155.448Y-80.302
X155.448Y-104.394
X155.448Y-106.934
X155.448Y-109.474
X155.448Y-112.014
X155.448Y-121.158
X156.21Y-98.298
X156.21Y-115.57
X156.21Y-124.46
X157.226Y-97.536
X157.734Y-82.804
X158.496Y-96.774
X158.75Y-119.888
X159.766Y-96.012
X160.528Y-86.36
X162.814Y-87.376
X163.28Y-104.65
X163.31Y-101.74
X163.83Y-87.884
X164.338Y-105.664
X164.338Y-109.22
X164.846Y-88.392
X165.735Y-77.279
X165.862Y-99.568
X167.576Y-82.55
X170.434Y-99.568
X170.751Y-75.946
X171.45Y-99.568
X171.767Y-82.55
X173.99Y-119.888
X174.815Y-75.946
X175.451Y-82.55
X175.514Y-99.568
X176.276Y-109.982
X176.53Y-99.568
X177.609Y-82.486
X178.879Y-75.946
X179.324Y-109.474
X179.959Y-112.981
X180.086Y-104.14
X180.594Y-109.474
X181.61Y-99.568
X181.864Y-82.55
X181.864Y-109.474
X181.88Y-114.13
X182.0Y-115.31
X182.499Y-101.028
X182.562Y-91.885
X182.626Y-90.17
X182.88Y-75.946
X183.134Y-109.474
X184.404Y-99.822
X184.404Y-108.712
X184.404Y-115.316
X185.674Y-106.68
X185.674Y-108.712
X185.674Y-113.01
X185.801Y-82.614
X185.928Y-94.551
X185.928Y-97.028
X186.109Y-114.131
X187.071Y-75.946
X189.23Y-111.506
X189.865Y-82.55
X189.992Y-101.854
X190.119Y-112.395
X191.135Y-75.882
X191.77Y-117.856
X193.04Y-117.856
X193.865Y-82.614
X195.072Y-75.882
X195.072Y-101.854
X197.104Y-99.822
X199.39Y-87.056
X199.644Y-85.09
X200.152Y-101.854
X200.66Y-87.884
X201.48Y-83.81
X202.692Y-94.488
X202.692Y-97.028
X203.962Y-105.918
X203.962Y-110.49
X204.978Y-101.854
X205.6Y-83.81
X205.613Y-79.566
X206.756Y-110.49
X206.756Y-113.792
X208.73Y-82.97
X208.76Y-93.2
X208.788Y-97.27
X208.84Y-94.53
X209.55Y-109.474
X210.06Y-79.55
X210.841Y-97.261
X211.074Y-95.758
X212.09Y-85.598
X212.29Y-74.26
X213.104Y-97.28
T2
X110.17Y-114.76
X110.19Y-109.98
X128.524Y-107.442
T3
X173.177Y-105.105
X173.177Y-107.645
X167.335Y-105.105
X167.335Y-107.645
X218.389Y-105.105
X218.389Y-107.645
X212.547Y-105.105
X212.547Y-107.645
X195.021Y-105.105
X195.021Y-107.645
X206.705Y-105.105
X206.705Y-107.645
X161.493Y-105.105
X161.493Y-107.645
X200.863Y-105.105
X200.863Y-107.645
T4
X120.53Y-106.8
X161.78Y-135.01
X102.82Y-100.64
X106.32Y-100.64
X93.472Y-125.222
X93.472Y-135.382
X104.394Y-119.126
X104.394Y-122.626
X116.786Y-80.772
X121.666Y-80.772
X107.95Y-125.412
X107.95Y-135.572
X140.97Y-132.842
X142.97Y-132.842
T5
X215.644Y-76.964
X215.644Y-79.504
X215.644Y-82.044
X215.644Y-84.584
X215.644Y-87.124
X215.644Y-89.664
X215.644Y-92.204
X218.184Y-76.964
X218.184Y-79.504
X218.184Y-82.044
X218.184Y-84.584
X218.184Y-87.124
X218.184Y-89.664
X218.184Y-92.204
T6
X104.457Y-81.026
X104.457Y-83.566
X104.457Y-86.106
X104.457Y-88.646
X106.997Y-82.286
X106.997Y-84.826
X106.997Y-87.366
X106.997Y-89.906
T7
X204.47Y-89.662
X204.47Y-74.168
X163.14Y-127.364
X166.64Y-132.364
X170.14Y-127.364
X173.64Y-132.364
X177.262Y-127.364
X180.762Y-132.364
X184.262Y-127.364
X187.762Y-132.364
X191.588Y-127.364
X195.088Y-132.364
X198.588Y-127.364
X202.088Y-132.364
X205.71Y-127.364
X209.21Y-132.364
X212.71Y-127.364
X216.21Y-132.364
X135.74Y-74.186
X135.74Y-76.726
X135.74Y-79.266
X135.74Y-81.806
X135.74Y-84.346
X135.74Y-86.886
X135.74Y-89.426
X135.74Y-91.966
X135.74Y-94.506
X135.74Y-97.046
X135.74Y-99.586
X135.74Y-102.126
X135.74Y-104.666
X135.74Y-107.206
X135.74Y-109.746
X135.74Y-112.286
X135.74Y-114.826
X135.74Y-117.366
X135.74Y-119.906
X135.74Y-122.446
X138.28Y-74.186
X138.28Y-76.726
X138.28Y-79.266
X138.28Y-81.806
X138.28Y-84.346
X138.28Y-86.886
X138.28Y-89.426
X138.28Y-91.966
X138.28Y-94.506
X138.28Y-97.046
X138.28Y-99.586
X138.28Y-102.126
X138.28Y-104.666
X138.28Y-107.206
X138.28Y-109.746
X138.28Y-112.286
X138.28Y-114.826
X138.28Y-117.366
X138.28Y-119.906
X138.28Y-122.446
X204.47Y-93.218
T8
X151.13Y-132.842
X153.67Y-132.842
X156.21Y-132.842
X93.197Y-78.841
X93.197Y-81.381
X93.197Y-89.551
X93.197Y-92.091
T9
X163.385Y-70.612
X168.385Y-70.612
X173.385Y-70.612
X178.385Y-70.612
X183.385Y-70.612
X188.385Y-70.612
X193.385Y-70.612
X198.385Y-70.612
T10
X173.126Y-117.856
X173.126Y-122.936
X167.284Y-117.856
X167.284Y-122.936
X98.124Y-132.588
X103.124Y-132.588
X218.338Y-117.856
X218.338Y-122.936
X212.496Y-117.856
X212.496Y-122.936
X194.97Y-117.856
X194.97Y-122.936
X206.654Y-117.856
X206.654Y-122.936
X161.442Y-117.856
X161.442Y-122.936
X200.812Y-117.856
X200.812Y-122.936
T11
X122.682Y-101.43
X122.682Y-121.92
T12
X101.147Y-77.721
X101.147Y-93.211
T13
X217.424Y-71.124
X217.424Y-98.044
T14
X113.99Y-69.286
X113.99Y-127.286
T15
X98.097Y-79.751
X98.097Y-91.181
T0
M30
