%FSLAX45Y45*%
G04 Gerber Fmt 4.5, Leading zero omitted, Abs format (unit mm)*
G04 Created by KiCad (PCBNEW 5.99.0-unknown-c3175b4~86~ubuntu16.04.1) date 2019-12-02 17:49:02*
%MOMM*%
%LPD*%
G04 APERTURE LIST*
%ADD10C,0.050000*%
%ADD11C,0.200000*%
%ADD12C,0.300000*%
G04 APERTURE END LIST*
D10*
X10957500Y-13815200D02*
X9093200Y-13817600D01*
X22047200Y-6553200D02*
X22047200Y-13817600D01*
X9099550Y-6553200D02*
X22047200Y-6553200D01*
X9093200Y-13817600D02*
X9099550Y-6553200D01*
X10957500Y-13815200D02*
X22047200Y-13817600D01*
D11*
X9835200Y-9536750D02*
X9875200Y-9576750D01*
X9875200Y-9536750D02*
X9835200Y-9576750D01*
X9886000Y-7504750D02*
X9926000Y-7544750D01*
X9926000Y-7504750D02*
X9886000Y-7544750D01*
X10330500Y-7352350D02*
X10370500Y-7392350D01*
X10370500Y-7352350D02*
X10330500Y-7392350D01*
X10546400Y-9289100D02*
X10586400Y-9329100D01*
X10586400Y-9289100D02*
X10546400Y-9329100D01*
X10887000Y-7984000D02*
X10927000Y-8024000D01*
X10927000Y-7984000D02*
X10887000Y-8024000D01*
X10965500Y-8514400D02*
X11005500Y-8554400D01*
X11005500Y-8514400D02*
X10965500Y-8554400D01*
X10965500Y-8743000D02*
X11005500Y-8783000D01*
X11005500Y-8743000D02*
X10965500Y-8783000D01*
X10965500Y-8895400D02*
X11005500Y-8935400D01*
X11005500Y-8895400D02*
X10965500Y-8935400D01*
X11124250Y-9174800D02*
X11164250Y-9214800D01*
X11164250Y-9174800D02*
X11124250Y-9214800D01*
X11181400Y-8209600D02*
X11221400Y-8249600D01*
X11221400Y-8209600D02*
X11181400Y-8249600D01*
X11467000Y-8451000D02*
X11507000Y-8491000D01*
X11507000Y-8451000D02*
X11467000Y-8491000D01*
X11714800Y-8235000D02*
X11754800Y-8275000D01*
X11754800Y-8235000D02*
X11714800Y-8275000D01*
X11746474Y-9536674D02*
X11786474Y-9576674D01*
X11786474Y-9536674D02*
X11746474Y-9576674D01*
X11867200Y-9606600D02*
X11907200Y-9646600D01*
X11907200Y-9606600D02*
X11867200Y-9646600D01*
X12070400Y-8311200D02*
X12110400Y-8351200D01*
X12110400Y-8311200D02*
X12070400Y-8351200D01*
X12146600Y-9530400D02*
X12186600Y-9570400D01*
X12186600Y-9530400D02*
X12146600Y-9570400D01*
X12146600Y-12451400D02*
X12186600Y-12491400D01*
X12186600Y-12451400D02*
X12146600Y-12491400D01*
X12210800Y-10660000D02*
X12250800Y-10700000D01*
X12250800Y-10660000D02*
X12210800Y-10700000D01*
X12248200Y-9606600D02*
X12288200Y-9646600D01*
X12288200Y-9606600D02*
X12248200Y-9646600D01*
X12429000Y-10660000D02*
X12469000Y-10700000D01*
X12469000Y-10660000D02*
X12429000Y-10700000D01*
X12434000Y-12883200D02*
X12474000Y-12923200D01*
X12474000Y-12883200D02*
X12434000Y-12923200D01*
X12436000Y-13238800D02*
X12476000Y-13278800D01*
X12476000Y-13238800D02*
X12436000Y-13278800D01*
X12527600Y-10724200D02*
X12567600Y-10764200D01*
X12567600Y-10724200D02*
X12527600Y-10764200D01*
X12597450Y-8508050D02*
X12637450Y-8548050D01*
X12637450Y-8508050D02*
X12597450Y-8548050D01*
X12730800Y-12387900D02*
X12770800Y-12427900D01*
X12770800Y-12387900D02*
X12730800Y-12427900D01*
X12730800Y-12934000D02*
X12770800Y-12974000D01*
X12770800Y-12934000D02*
X12730800Y-12974000D01*
X12753000Y-10448000D02*
X12793000Y-10488000D01*
X12793000Y-10448000D02*
X12753000Y-10488000D01*
X12832400Y-11841800D02*
X12872400Y-11881800D01*
X12872400Y-11841800D02*
X12832400Y-11881800D01*
X12908600Y-9174800D02*
X12948600Y-9214800D01*
X12948600Y-9174800D02*
X12908600Y-9214800D01*
X13162600Y-10013000D02*
X13202600Y-10053000D01*
X13202600Y-10013000D02*
X13162600Y-10053000D01*
X13162600Y-10317800D02*
X13202600Y-10357800D01*
X13202600Y-10317800D02*
X13162600Y-10357800D01*
X13213400Y-11841800D02*
X13253400Y-11881800D01*
X13253400Y-11841800D02*
X13213400Y-11881800D01*
X13213400Y-12095800D02*
X13253400Y-12135800D01*
X13253400Y-12095800D02*
X13213400Y-12135800D01*
X13213400Y-12349800D02*
X13253400Y-12389800D01*
X13253400Y-12349800D02*
X13213400Y-12389800D01*
X13257850Y-8546150D02*
X13297850Y-8586150D01*
X13297850Y-8546150D02*
X13257850Y-8586150D01*
X13594400Y-13035600D02*
X13634400Y-13075600D01*
X13634400Y-13035600D02*
X13594400Y-13075600D01*
X13911900Y-8292150D02*
X13951900Y-8332150D01*
X13951900Y-8292150D02*
X13911900Y-8332150D01*
X13918250Y-8044500D02*
X13958250Y-8084500D01*
X13958250Y-8044500D02*
X13918250Y-8084500D01*
X13924600Y-8539800D02*
X13964600Y-8579800D01*
X13964600Y-8539800D02*
X13924600Y-8579800D01*
X13924600Y-8793800D02*
X13964600Y-8833800D01*
X13964600Y-8793800D02*
X13924600Y-8833800D01*
X13937300Y-10324150D02*
X13977300Y-10364150D01*
X13977300Y-10324150D02*
X13937300Y-10364150D01*
X13969050Y-7473000D02*
X14009050Y-7513000D01*
X14009050Y-7473000D02*
X13969050Y-7513000D01*
X13975400Y-10844850D02*
X14015400Y-10884850D01*
X14015400Y-10844850D02*
X13975400Y-10884850D01*
X13975400Y-11257600D02*
X14015400Y-11297600D01*
X14015400Y-11257600D02*
X13975400Y-11297600D01*
X14026200Y-12070400D02*
X14066200Y-12110400D01*
X14066200Y-12070400D02*
X14026200Y-12110400D01*
X14102400Y-12857800D02*
X14142400Y-12897800D01*
X14142400Y-12857800D02*
X14102400Y-12897800D01*
X14254800Y-11460800D02*
X14294800Y-11500800D01*
X14294800Y-11460800D02*
X14254800Y-11500800D01*
X14280200Y-12172000D02*
X14320200Y-12212000D01*
X14320200Y-12172000D02*
X14280200Y-12212000D01*
X14280200Y-12730800D02*
X14320200Y-12770800D01*
X14320200Y-12730800D02*
X14280200Y-12770800D01*
X14356400Y-12527600D02*
X14396400Y-12567600D01*
X14396400Y-12527600D02*
X14356400Y-12567600D01*
X14381800Y-7269800D02*
X14421800Y-7309800D01*
X14421800Y-7269800D02*
X14381800Y-7309800D01*
X14381800Y-7676200D02*
X14421800Y-7716200D01*
X14421800Y-7676200D02*
X14381800Y-7716200D01*
X14381800Y-7879400D02*
X14421800Y-7919400D01*
X14421800Y-7879400D02*
X14381800Y-7919400D01*
X14381800Y-8158800D02*
X14421800Y-8198800D01*
X14421800Y-8158800D02*
X14381800Y-8198800D01*
X14381800Y-8336600D02*
X14421800Y-8376600D01*
X14421800Y-8336600D02*
X14381800Y-8376600D01*
X14381800Y-9301800D02*
X14421800Y-9341800D01*
X14421800Y-9301800D02*
X14381800Y-9341800D01*
X14381800Y-10444800D02*
X14421800Y-10484800D01*
X14421800Y-10444800D02*
X14381800Y-10484800D01*
X14381800Y-10851200D02*
X14421800Y-10891200D01*
X14421800Y-10851200D02*
X14381800Y-10891200D01*
X14381800Y-11181400D02*
X14421800Y-11221400D01*
X14421800Y-11181400D02*
X14381800Y-11221400D01*
X14381800Y-11384600D02*
X14421800Y-11424600D01*
X14421800Y-11384600D02*
X14381800Y-11424600D01*
X14407200Y-11968800D02*
X14447200Y-12008800D01*
X14447200Y-11968800D02*
X14407200Y-12008800D01*
X14608000Y-9702000D02*
X14648000Y-9742000D01*
X14648000Y-9702000D02*
X14608000Y-9742000D01*
X14610000Y-9356000D02*
X14650000Y-9396000D01*
X14650000Y-9356000D02*
X14610000Y-9396000D01*
X14712000Y-9276400D02*
X14752000Y-9316400D01*
X14752000Y-9276400D02*
X14712000Y-9316400D01*
X14712000Y-9708200D02*
X14752000Y-9748200D01*
X14752000Y-9708200D02*
X14712000Y-9748200D01*
X14737400Y-9022400D02*
X14777400Y-9062400D01*
X14777400Y-9022400D02*
X14737400Y-9062400D01*
X14788200Y-7447600D02*
X14828200Y-7487600D01*
X14828200Y-7447600D02*
X14788200Y-7487600D01*
X14864400Y-8260400D02*
X14904400Y-8300400D01*
X14904400Y-8260400D02*
X14864400Y-8300400D01*
X14889800Y-7244400D02*
X14929800Y-7284400D01*
X14929800Y-7244400D02*
X14889800Y-7284400D01*
X14889800Y-7447600D02*
X14929800Y-7487600D01*
X14929800Y-7447600D02*
X14889800Y-7487600D01*
X14966000Y-8539800D02*
X15006000Y-8579800D01*
X15006000Y-8539800D02*
X14966000Y-8579800D01*
X14966000Y-9200200D02*
X15006000Y-9240200D01*
X15006000Y-9200200D02*
X14966000Y-9240200D01*
X15016800Y-7168200D02*
X15056800Y-7208200D01*
X15056800Y-7168200D02*
X15016800Y-7208200D01*
X15093000Y-7447600D02*
X15133000Y-7487600D01*
X15133000Y-7447600D02*
X15093000Y-7487600D01*
X15143800Y-11232200D02*
X15183800Y-11272200D01*
X15183800Y-11232200D02*
X15143800Y-11272200D01*
X15143800Y-11689400D02*
X15183800Y-11729400D01*
X15183800Y-11689400D02*
X15143800Y-11729400D01*
X15158000Y-12440200D02*
X15198000Y-12480200D01*
X15198000Y-12440200D02*
X15158000Y-12480200D01*
X15186000Y-8438000D02*
X15226000Y-8478000D01*
X15226000Y-8438000D02*
X15186000Y-8478000D01*
X15187000Y-8146000D02*
X15227000Y-8186000D01*
X15227000Y-8146000D02*
X15187000Y-8186000D01*
X15194600Y-10089200D02*
X15234600Y-10129200D01*
X15234600Y-10089200D02*
X15194600Y-10129200D01*
X15220000Y-10571800D02*
X15260000Y-10611800D01*
X15260000Y-10571800D02*
X15220000Y-10611800D01*
X15220000Y-10800400D02*
X15260000Y-10840400D01*
X15260000Y-10800400D02*
X15220000Y-10840400D01*
X15220000Y-11537000D02*
X15260000Y-11577000D01*
X15260000Y-11537000D02*
X15220000Y-11577000D01*
X15245400Y-7447600D02*
X15285400Y-7487600D01*
X15285400Y-7447600D02*
X15245400Y-7487600D01*
X15245400Y-7600000D02*
X15285400Y-7640000D01*
X15285400Y-7600000D02*
X15245400Y-7640000D01*
X15296200Y-10038400D02*
X15336200Y-10078400D01*
X15336200Y-10038400D02*
X15296200Y-10078400D01*
X15372400Y-11537000D02*
X15412400Y-11577000D01*
X15412400Y-11537000D02*
X15372400Y-11577000D01*
X15397800Y-9962200D02*
X15437800Y-10002200D01*
X15437800Y-9962200D02*
X15397800Y-10002200D01*
X15499400Y-9886000D02*
X15539400Y-9926000D01*
X15539400Y-9886000D02*
X15499400Y-9926000D01*
X15523000Y-8526000D02*
X15563000Y-8566000D01*
X15563000Y-8526000D02*
X15523000Y-8566000D01*
X15524800Y-7777800D02*
X15564800Y-7817800D01*
X15564800Y-7777800D02*
X15524800Y-7817800D01*
X15524800Y-8010200D02*
X15564800Y-8050200D01*
X15564800Y-8010200D02*
X15524800Y-8050200D01*
X15524800Y-10419400D02*
X15564800Y-10459400D01*
X15564800Y-10419400D02*
X15524800Y-10459400D01*
X15524800Y-10673400D02*
X15564800Y-10713400D01*
X15564800Y-10673400D02*
X15524800Y-10713400D01*
X15524800Y-10927400D02*
X15564800Y-10967400D01*
X15564800Y-10927400D02*
X15524800Y-10967400D01*
X15524800Y-11181400D02*
X15564800Y-11221400D01*
X15564800Y-11181400D02*
X15524800Y-11221400D01*
X15524800Y-12095800D02*
X15564800Y-12135800D01*
X15564800Y-12095800D02*
X15524800Y-12135800D01*
X15601000Y-9809800D02*
X15641000Y-9849800D01*
X15641000Y-9809800D02*
X15601000Y-9849800D01*
X15601000Y-11537000D02*
X15641000Y-11577000D01*
X15641000Y-11537000D02*
X15601000Y-11577000D01*
X15601000Y-12426000D02*
X15641000Y-12466000D01*
X15641000Y-12426000D02*
X15601000Y-12466000D01*
X15702600Y-9733600D02*
X15742600Y-9773600D01*
X15742600Y-9733600D02*
X15702600Y-9773600D01*
X15753400Y-8260400D02*
X15793400Y-8300400D01*
X15793400Y-8260400D02*
X15753400Y-8300400D01*
X15829600Y-9657400D02*
X15869600Y-9697400D01*
X15869600Y-9657400D02*
X15829600Y-9697400D01*
X15855000Y-11968800D02*
X15895000Y-12008800D01*
X15895000Y-11968800D02*
X15855000Y-12008800D01*
X15956600Y-9581200D02*
X15996600Y-9621200D01*
X15996600Y-9581200D02*
X15956600Y-9621200D01*
X16032800Y-8616000D02*
X16072800Y-8656000D01*
X16072800Y-8616000D02*
X16032800Y-8656000D01*
X16261400Y-8717600D02*
X16301400Y-8757600D01*
X16301400Y-8717600D02*
X16261400Y-8757600D01*
X16308000Y-10445000D02*
X16348000Y-10485000D01*
X16348000Y-10445000D02*
X16308000Y-10485000D01*
X16311000Y-10154000D02*
X16351000Y-10194000D01*
X16351000Y-10154000D02*
X16311000Y-10194000D01*
X16363000Y-8768400D02*
X16403000Y-8808400D01*
X16403000Y-8768400D02*
X16363000Y-8808400D01*
X16413800Y-10546400D02*
X16453800Y-10586400D01*
X16453800Y-10546400D02*
X16413800Y-10586400D01*
X16413800Y-10902000D02*
X16453800Y-10942000D01*
X16453800Y-10902000D02*
X16413800Y-10942000D01*
X16464600Y-8819200D02*
X16504600Y-8859200D01*
X16504600Y-8819200D02*
X16464600Y-8859200D01*
X16553500Y-7707950D02*
X16593500Y-7747950D01*
X16593500Y-7707950D02*
X16553500Y-7747950D01*
X16566200Y-9936800D02*
X16606200Y-9976800D01*
X16606200Y-9936800D02*
X16566200Y-9976800D01*
X16737650Y-8235000D02*
X16777650Y-8275000D01*
X16777650Y-8235000D02*
X16737650Y-8275000D01*
X17023400Y-9936800D02*
X17063400Y-9976800D01*
X17063400Y-9936800D02*
X17023400Y-9976800D01*
X17055150Y-7574600D02*
X17095150Y-7614600D01*
X17095150Y-7574600D02*
X17055150Y-7614600D01*
X17125000Y-9936800D02*
X17165000Y-9976800D01*
X17165000Y-9936800D02*
X17125000Y-9976800D01*
X17156750Y-8235000D02*
X17196750Y-8275000D01*
X17196750Y-8235000D02*
X17156750Y-8275000D01*
X17379000Y-11968800D02*
X17419000Y-12008800D01*
X17419000Y-11968800D02*
X17379000Y-12008800D01*
X17461550Y-7574600D02*
X17501550Y-7614600D01*
X17501550Y-7574600D02*
X17461550Y-7614600D01*
X17525050Y-8235000D02*
X17565050Y-8275000D01*
X17565050Y-8235000D02*
X17525050Y-8275000D01*
X17531400Y-9936800D02*
X17571400Y-9976800D01*
X17571400Y-9936800D02*
X17531400Y-9976800D01*
X17607600Y-10978200D02*
X17647600Y-11018200D01*
X17647600Y-10978200D02*
X17607600Y-11018200D01*
X17633000Y-9936800D02*
X17673000Y-9976800D01*
X17673000Y-9936800D02*
X17633000Y-9976800D01*
X17740950Y-8228650D02*
X17780950Y-8268650D01*
X17780950Y-8228650D02*
X17740950Y-8268650D01*
X17867950Y-7574600D02*
X17907950Y-7614600D01*
X17907950Y-7574600D02*
X17867950Y-7614600D01*
X17912400Y-10927400D02*
X17952400Y-10967400D01*
X17952400Y-10927400D02*
X17912400Y-10967400D01*
X17975900Y-11278100D02*
X18015900Y-11318100D01*
X18015900Y-11278100D02*
X17975900Y-11318100D01*
X17988600Y-10394000D02*
X18028600Y-10434000D01*
X18028600Y-10394000D02*
X17988600Y-10434000D01*
X18039400Y-10927400D02*
X18079400Y-10967400D01*
X18079400Y-10927400D02*
X18039400Y-10967400D01*
X18141000Y-9936800D02*
X18181000Y-9976800D01*
X18181000Y-9936800D02*
X18141000Y-9976800D01*
X18166400Y-8235000D02*
X18206400Y-8275000D01*
X18206400Y-8235000D02*
X18166400Y-8275000D01*
X18166400Y-10927400D02*
X18206400Y-10967400D01*
X18206400Y-10927400D02*
X18166400Y-10967400D01*
X18168000Y-11393000D02*
X18208000Y-11433000D01*
X18208000Y-11393000D02*
X18168000Y-11433000D01*
X18180000Y-11511000D02*
X18220000Y-11551000D01*
X18220000Y-11511000D02*
X18180000Y-11551000D01*
X18229900Y-10082850D02*
X18269900Y-10122850D01*
X18269900Y-10082850D02*
X18229900Y-10122850D01*
X18236250Y-9168450D02*
X18276250Y-9208450D01*
X18276250Y-9168450D02*
X18236250Y-9208450D01*
X18242600Y-8997000D02*
X18282600Y-9037000D01*
X18282600Y-8997000D02*
X18242600Y-9037000D01*
X18268000Y-7574600D02*
X18308000Y-7614600D01*
X18308000Y-7574600D02*
X18268000Y-7614600D01*
X18293400Y-10927400D02*
X18333400Y-10967400D01*
X18333400Y-10927400D02*
X18293400Y-10967400D01*
X18420400Y-9962200D02*
X18460400Y-10002200D01*
X18460400Y-9962200D02*
X18420400Y-10002200D01*
X18420400Y-10851200D02*
X18460400Y-10891200D01*
X18460400Y-10851200D02*
X18420400Y-10891200D01*
X18420400Y-11511600D02*
X18460400Y-11551600D01*
X18460400Y-11511600D02*
X18420400Y-11551600D01*
X18547400Y-10648000D02*
X18587400Y-10688000D01*
X18587400Y-10648000D02*
X18547400Y-10688000D01*
X18547400Y-10851200D02*
X18587400Y-10891200D01*
X18587400Y-10851200D02*
X18547400Y-10891200D01*
X18547400Y-11281000D02*
X18587400Y-11321000D01*
X18587400Y-11281000D02*
X18547400Y-11321000D01*
X18560100Y-8241350D02*
X18600100Y-8281350D01*
X18600100Y-8241350D02*
X18560100Y-8281350D01*
X18572800Y-9435150D02*
X18612800Y-9475150D01*
X18612800Y-9435150D02*
X18572800Y-9475150D01*
X18572800Y-9682800D02*
X18612800Y-9722800D01*
X18612800Y-9682800D02*
X18572800Y-9722800D01*
X18590880Y-11393120D02*
X18630880Y-11433120D01*
X18630880Y-11393120D02*
X18590880Y-11433120D01*
X18687100Y-7574600D02*
X18727100Y-7614600D01*
X18727100Y-7574600D02*
X18687100Y-7614600D01*
X18903000Y-11130600D02*
X18943000Y-11170600D01*
X18943000Y-11130600D02*
X18903000Y-11170600D01*
X18966500Y-8235000D02*
X19006500Y-8275000D01*
X19006500Y-8235000D02*
X18966500Y-8275000D01*
X18979200Y-10165400D02*
X19019200Y-10205400D01*
X19019200Y-10165400D02*
X18979200Y-10205400D01*
X18991900Y-11219500D02*
X19031900Y-11259500D01*
X19031900Y-11219500D02*
X18991900Y-11259500D01*
X19093500Y-7568250D02*
X19133500Y-7608250D01*
X19133500Y-7568250D02*
X19093500Y-7608250D01*
X19157000Y-11765600D02*
X19197000Y-11805600D01*
X19197000Y-11765600D02*
X19157000Y-11805600D01*
X19284000Y-11765600D02*
X19324000Y-11805600D01*
X19324000Y-11765600D02*
X19284000Y-11805600D01*
X19366550Y-8241350D02*
X19406550Y-8281350D01*
X19406550Y-8241350D02*
X19366550Y-8281350D01*
X19487200Y-7568250D02*
X19527200Y-7608250D01*
X19527200Y-7568250D02*
X19487200Y-7608250D01*
X19487200Y-10165400D02*
X19527200Y-10205400D01*
X19527200Y-10165400D02*
X19487200Y-10205400D01*
X19690400Y-9962200D02*
X19730400Y-10002200D01*
X19730400Y-9962200D02*
X19690400Y-10002200D01*
X19919000Y-8685600D02*
X19959000Y-8725600D01*
X19959000Y-8685600D02*
X19919000Y-8725600D01*
X19944400Y-8489000D02*
X19984400Y-8529000D01*
X19984400Y-8489000D02*
X19944400Y-8529000D01*
X19995200Y-10165400D02*
X20035200Y-10205400D01*
X20035200Y-10165400D02*
X19995200Y-10205400D01*
X20046000Y-8768400D02*
X20086000Y-8808400D01*
X20086000Y-8768400D02*
X20046000Y-8808400D01*
X20128000Y-8361000D02*
X20168000Y-8401000D01*
X20168000Y-8361000D02*
X20128000Y-8401000D01*
X20249200Y-9428800D02*
X20289200Y-9468800D01*
X20289200Y-9428800D02*
X20249200Y-9468800D01*
X20249200Y-9682800D02*
X20289200Y-9722800D01*
X20289200Y-9682800D02*
X20249200Y-9722800D01*
X20376200Y-10571800D02*
X20416200Y-10611800D01*
X20416200Y-10571800D02*
X20376200Y-10611800D01*
X20376200Y-11029000D02*
X20416200Y-11069000D01*
X20416200Y-11029000D02*
X20376200Y-11069000D01*
X20477800Y-10165400D02*
X20517800Y-10205400D01*
X20517800Y-10165400D02*
X20477800Y-10205400D01*
X20540000Y-8361000D02*
X20580000Y-8401000D01*
X20580000Y-8361000D02*
X20540000Y-8401000D01*
X20541300Y-7936550D02*
X20581300Y-7976550D01*
X20581300Y-7936550D02*
X20541300Y-7976550D01*
X20655600Y-11029000D02*
X20695600Y-11069000D01*
X20695600Y-11029000D02*
X20655600Y-11069000D01*
X20655600Y-11359200D02*
X20695600Y-11399200D01*
X20695600Y-11359200D02*
X20655600Y-11399200D01*
X20853000Y-8277000D02*
X20893000Y-8317000D01*
X20893000Y-8277000D02*
X20853000Y-8317000D01*
X20856000Y-9300000D02*
X20896000Y-9340000D01*
X20896000Y-9300000D02*
X20856000Y-9340000D01*
X20858800Y-9707000D02*
X20898800Y-9747000D01*
X20898800Y-9707000D02*
X20858800Y-9747000D01*
X20864000Y-9433000D02*
X20904000Y-9473000D01*
X20904000Y-9433000D02*
X20864000Y-9473000D01*
X20935000Y-10927400D02*
X20975000Y-10967400D01*
X20975000Y-10927400D02*
X20935000Y-10967400D01*
X20986000Y-7935000D02*
X21026000Y-7975000D01*
X21026000Y-7935000D02*
X20986000Y-7975000D01*
X21064116Y-9706084D02*
X21104116Y-9746084D01*
X21104116Y-9706084D02*
X21064116Y-9746084D01*
X21087400Y-9555800D02*
X21127400Y-9595800D01*
X21127400Y-9555800D02*
X21087400Y-9595800D01*
X21189000Y-8539800D02*
X21229000Y-8579800D01*
X21229000Y-8539800D02*
X21189000Y-8579800D01*
X21209000Y-7406000D02*
X21249000Y-7446000D01*
X21249000Y-7406000D02*
X21209000Y-7446000D01*
X21290385Y-9707985D02*
X21330385Y-9747985D01*
X21330385Y-9707985D02*
X21290385Y-9747985D01*
X11047000Y-11476000D02*
G75*
G03X11047000Y-11476000I-30000J0D01*
G01*
X11049000Y-10998000D02*
G75*
G03X11049000Y-10998000I-30000J0D01*
G01*
X12882400Y-10744200D02*
G75*
G03X12882400Y-10744200I-30000J0D01*
G01*
X17317720Y-10472520D02*
X17317720Y-10548520D01*
X17279720Y-10510520D02*
X17355720Y-10510520D01*
X17317720Y-10726520D02*
X17317720Y-10802520D01*
X17279720Y-10764520D02*
X17355720Y-10764520D01*
X16733520Y-10472520D02*
X16733520Y-10548520D01*
X16695520Y-10510520D02*
X16771520Y-10510520D01*
X16733520Y-10726520D02*
X16733520Y-10802520D01*
X16695520Y-10764520D02*
X16771520Y-10764520D01*
X21838920Y-10472520D02*
X21838920Y-10548520D01*
X21800920Y-10510520D02*
X21876920Y-10510520D01*
X21838920Y-10726520D02*
X21838920Y-10802520D01*
X21800920Y-10764520D02*
X21876920Y-10764520D01*
X21254720Y-10472520D02*
X21254720Y-10548520D01*
X21216720Y-10510520D02*
X21292720Y-10510520D01*
X21254720Y-10726520D02*
X21254720Y-10802520D01*
X21216720Y-10764520D02*
X21292720Y-10764520D01*
X19502120Y-10472520D02*
X19502120Y-10548520D01*
X19464120Y-10510520D02*
X19540120Y-10510520D01*
X19502120Y-10726520D02*
X19502120Y-10802520D01*
X19464120Y-10764520D02*
X19540120Y-10764520D01*
X20670520Y-10472520D02*
X20670520Y-10548520D01*
X20632520Y-10510520D02*
X20708520Y-10510520D01*
X20670520Y-10726520D02*
X20670520Y-10802520D01*
X20632520Y-10764520D02*
X20708520Y-10764520D01*
X16149320Y-10472520D02*
X16149320Y-10548520D01*
X16111320Y-10510520D02*
X16187320Y-10510520D01*
X16149320Y-10726520D02*
X16149320Y-10802520D01*
X16111320Y-10764520D02*
X16187320Y-10764520D01*
X20086320Y-10472520D02*
X20086320Y-10548520D01*
X20048320Y-10510520D02*
X20124320Y-10510520D01*
X20086320Y-10726520D02*
X20086320Y-10802520D01*
X20048320Y-10764520D02*
X20124320Y-10764520D01*
X12081284Y-10708285D02*
X12081284Y-10651716D01*
X12024715Y-10651716D01*
X12024715Y-10708285D01*
X12081284Y-10708285D01*
X16206284Y-13529284D02*
X16206284Y-13472715D01*
X16149715Y-13472715D01*
X16149715Y-13529284D01*
X16206284Y-13529284D01*
X10310285Y-10092285D02*
X10310285Y-10035716D01*
X10253716Y-10035716D01*
X10253716Y-10092285D01*
X10310285Y-10092285D01*
X10660285Y-10092285D02*
X10660285Y-10035716D01*
X10603716Y-10035716D01*
X10603716Y-10092285D01*
X10660285Y-10092285D01*
X9375485Y-12550484D02*
X9375485Y-12493915D01*
X9318916Y-12493915D01*
X9318916Y-12550484D01*
X9375485Y-12550484D01*
X9375485Y-13566484D02*
X9375485Y-13509915D01*
X9318916Y-13509915D01*
X9318916Y-13566484D01*
X9375485Y-13566484D01*
X10467685Y-11940884D02*
X10467685Y-11884315D01*
X10411116Y-11884315D01*
X10411116Y-11940884D01*
X10467685Y-11940884D01*
X10467685Y-12290884D02*
X10467685Y-12234315D01*
X10411116Y-12234315D01*
X10411116Y-12290884D01*
X10467685Y-12290884D01*
X11706884Y-8105484D02*
X11706884Y-8048915D01*
X11650315Y-8048915D01*
X11650315Y-8105484D01*
X11706884Y-8105484D01*
X12194884Y-8105484D02*
X12194884Y-8048915D01*
X12138315Y-8048915D01*
X12138315Y-8105484D01*
X12194884Y-8105484D01*
X10823285Y-12569534D02*
X10823285Y-12512965D01*
X10766716Y-12512965D01*
X10766716Y-12569534D01*
X10823285Y-12569534D01*
X10823285Y-13585534D02*
X10823285Y-13528965D01*
X10766716Y-13528965D01*
X10766716Y-13585534D01*
X10823285Y-13585534D01*
X14125284Y-13312484D02*
X14125284Y-13255915D01*
X14068715Y-13255915D01*
X14068715Y-13312484D01*
X14125284Y-13312484D01*
X14325284Y-13312484D02*
X14325284Y-13255915D01*
X14268715Y-13255915D01*
X14268715Y-13312484D01*
X14325284Y-13312484D01*
X21564400Y-7736900D02*
X21604900Y-7696400D01*
X21564400Y-7655900D01*
X21523900Y-7696400D01*
X21564400Y-7736900D01*
X21564400Y-7990900D02*
X21604900Y-7950400D01*
X21564400Y-7909900D01*
X21523900Y-7950400D01*
X21564400Y-7990900D01*
X21564400Y-8244900D02*
X21604900Y-8204400D01*
X21564400Y-8163900D01*
X21523900Y-8204400D01*
X21564400Y-8244900D01*
X21564400Y-8498900D02*
X21604900Y-8458400D01*
X21564400Y-8417900D01*
X21523900Y-8458400D01*
X21564400Y-8498900D01*
X21564400Y-8752900D02*
X21604900Y-8712400D01*
X21564400Y-8671900D01*
X21523900Y-8712400D01*
X21564400Y-8752900D01*
X21564400Y-9006900D02*
X21604900Y-8966400D01*
X21564400Y-8925900D01*
X21523900Y-8966400D01*
X21564400Y-9006900D01*
X21564400Y-9260900D02*
X21604900Y-9220400D01*
X21564400Y-9179900D01*
X21523900Y-9220400D01*
X21564400Y-9260900D01*
X21818400Y-7736900D02*
X21858900Y-7696400D01*
X21818400Y-7655900D01*
X21777900Y-7696400D01*
X21818400Y-7736900D01*
X21818400Y-7990900D02*
X21858900Y-7950400D01*
X21818400Y-7909900D01*
X21777900Y-7950400D01*
X21818400Y-7990900D01*
X21818400Y-8244900D02*
X21858900Y-8204400D01*
X21818400Y-8163900D01*
X21777900Y-8204400D01*
X21818400Y-8244900D01*
X21818400Y-8498900D02*
X21858900Y-8458400D01*
X21818400Y-8417900D01*
X21777900Y-8458400D01*
X21818400Y-8498900D01*
X21818400Y-8752900D02*
X21858900Y-8712400D01*
X21818400Y-8671900D01*
X21777900Y-8712400D01*
X21818400Y-8752900D01*
X21818400Y-9006900D02*
X21858900Y-8966400D01*
X21818400Y-8925900D01*
X21777900Y-8966400D01*
X21818400Y-9006900D01*
X21818400Y-9260900D02*
X21858900Y-9220400D01*
X21818400Y-9179900D01*
X21777900Y-9220400D01*
X21818400Y-9260900D01*
X10400750Y-8057600D02*
X10490750Y-8147600D01*
X10490750Y-8057600D02*
X10400750Y-8147600D01*
X10490750Y-8102600D02*
G75*
G03X10490750Y-8102600I-45000J0D01*
G01*
X10400750Y-8311600D02*
X10490750Y-8401600D01*
X10490750Y-8311600D02*
X10400750Y-8401600D01*
X10490750Y-8356600D02*
G75*
G03X10490750Y-8356600I-45000J0D01*
G01*
X10400750Y-8565600D02*
X10490750Y-8655600D01*
X10490750Y-8565600D02*
X10400750Y-8655600D01*
X10490750Y-8610600D02*
G75*
G03X10490750Y-8610600I-45000J0D01*
G01*
X10400750Y-8819600D02*
X10490750Y-8909600D01*
X10490750Y-8819600D02*
X10400750Y-8909600D01*
X10490750Y-8864600D02*
G75*
G03X10490750Y-8864600I-45000J0D01*
G01*
X10654750Y-8183600D02*
X10744750Y-8273600D01*
X10744750Y-8183600D02*
X10654750Y-8273600D01*
X10744750Y-8228600D02*
G75*
G03X10744750Y-8228600I-45000J0D01*
G01*
X10654750Y-8437600D02*
X10744750Y-8527600D01*
X10744750Y-8437600D02*
X10654750Y-8527600D01*
X10744750Y-8482600D02*
G75*
G03X10744750Y-8482600I-45000J0D01*
G01*
X10654750Y-8691600D02*
X10744750Y-8781600D01*
X10744750Y-8691600D02*
X10654750Y-8781600D01*
X10744750Y-8736600D02*
G75*
G03X10744750Y-8736600I-45000J0D01*
G01*
X10654750Y-8945600D02*
X10744750Y-9035600D01*
X10744750Y-8945600D02*
X10654750Y-9035600D01*
X10744750Y-8990600D02*
G75*
G03X10744750Y-8990600I-45000J0D01*
G01*
X20397000Y-8916200D02*
X20497000Y-9016200D01*
X20497000Y-8916200D02*
X20397000Y-9016200D01*
X20447000Y-8916200D02*
X20447000Y-9016200D01*
X20397000Y-8966200D02*
X20497000Y-8966200D01*
X20397000Y-7366800D02*
X20497000Y-7466800D01*
X20497000Y-7366800D02*
X20397000Y-7466800D01*
X20447000Y-7366800D02*
X20447000Y-7466800D01*
X20397000Y-7416800D02*
X20497000Y-7416800D01*
X16264000Y-12686400D02*
X16364000Y-12786400D01*
X16364000Y-12686400D02*
X16264000Y-12786400D01*
X16314000Y-12686400D02*
X16314000Y-12786400D01*
X16264000Y-12736400D02*
X16364000Y-12736400D01*
X16614000Y-13186400D02*
X16714000Y-13286400D01*
X16714000Y-13186400D02*
X16614000Y-13286400D01*
X16664000Y-13186400D02*
X16664000Y-13286400D01*
X16614000Y-13236400D02*
X16714000Y-13236400D01*
X16964000Y-12686400D02*
X17064000Y-12786400D01*
X17064000Y-12686400D02*
X16964000Y-12786400D01*
X17014000Y-12686400D02*
X17014000Y-12786400D01*
X16964000Y-12736400D02*
X17064000Y-12736400D01*
X17314000Y-13186400D02*
X17414000Y-13286400D01*
X17414000Y-13186400D02*
X17314000Y-13286400D01*
X17364000Y-13186400D02*
X17364000Y-13286400D01*
X17314000Y-13236400D02*
X17414000Y-13236400D01*
X17676240Y-12686400D02*
X17776240Y-12786400D01*
X17776240Y-12686400D02*
X17676240Y-12786400D01*
X17726240Y-12686400D02*
X17726240Y-12786400D01*
X17676240Y-12736400D02*
X17776240Y-12736400D01*
X18026240Y-13186400D02*
X18126240Y-13286400D01*
X18126240Y-13186400D02*
X18026240Y-13286400D01*
X18076240Y-13186400D02*
X18076240Y-13286400D01*
X18026240Y-13236400D02*
X18126240Y-13236400D01*
X18376240Y-12686400D02*
X18476240Y-12786400D01*
X18476240Y-12686400D02*
X18376240Y-12786400D01*
X18426240Y-12686400D02*
X18426240Y-12786400D01*
X18376240Y-12736400D02*
X18476240Y-12736400D01*
X18726240Y-13186400D02*
X18826240Y-13286400D01*
X18826240Y-13186400D02*
X18726240Y-13286400D01*
X18776240Y-13186400D02*
X18776240Y-13286400D01*
X18726240Y-13236400D02*
X18826240Y-13236400D01*
X19108800Y-12686400D02*
X19208800Y-12786400D01*
X19208800Y-12686400D02*
X19108800Y-12786400D01*
X19158800Y-12686400D02*
X19158800Y-12786400D01*
X19108800Y-12736400D02*
X19208800Y-12736400D01*
X19458800Y-13186400D02*
X19558800Y-13286400D01*
X19558800Y-13186400D02*
X19458800Y-13286400D01*
X19508800Y-13186400D02*
X19508800Y-13286400D01*
X19458800Y-13236400D02*
X19558800Y-13236400D01*
X19808800Y-12686400D02*
X19908800Y-12786400D01*
X19908800Y-12686400D02*
X19808800Y-12786400D01*
X19858800Y-12686400D02*
X19858800Y-12786400D01*
X19808800Y-12736400D02*
X19908800Y-12736400D01*
X20158800Y-13186400D02*
X20258800Y-13286400D01*
X20258800Y-13186400D02*
X20158800Y-13286400D01*
X20208800Y-13186400D02*
X20208800Y-13286400D01*
X20158800Y-13236400D02*
X20258800Y-13236400D01*
X20521040Y-12686400D02*
X20621040Y-12786400D01*
X20621040Y-12686400D02*
X20521040Y-12786400D01*
X20571040Y-12686400D02*
X20571040Y-12786400D01*
X20521040Y-12736400D02*
X20621040Y-12736400D01*
X20871040Y-13186400D02*
X20971040Y-13286400D01*
X20971040Y-13186400D02*
X20871040Y-13286400D01*
X20921040Y-13186400D02*
X20921040Y-13286400D01*
X20871040Y-13236400D02*
X20971040Y-13236400D01*
X21221040Y-12686400D02*
X21321040Y-12786400D01*
X21321040Y-12686400D02*
X21221040Y-12786400D01*
X21271040Y-12686400D02*
X21271040Y-12786400D01*
X21221040Y-12736400D02*
X21321040Y-12736400D01*
X21571040Y-13186400D02*
X21671040Y-13286400D01*
X21671040Y-13186400D02*
X21571040Y-13286400D01*
X21621040Y-13186400D02*
X21621040Y-13286400D01*
X21571040Y-13236400D02*
X21671040Y-13236400D01*
X13524000Y-7368600D02*
X13624000Y-7468600D01*
X13624000Y-7368600D02*
X13524000Y-7468600D01*
X13574000Y-7368600D02*
X13574000Y-7468600D01*
X13524000Y-7418600D02*
X13624000Y-7418600D01*
X13524000Y-7622600D02*
X13624000Y-7722600D01*
X13624000Y-7622600D02*
X13524000Y-7722600D01*
X13574000Y-7622600D02*
X13574000Y-7722600D01*
X13524000Y-7672600D02*
X13624000Y-7672600D01*
X13524000Y-7876600D02*
X13624000Y-7976600D01*
X13624000Y-7876600D02*
X13524000Y-7976600D01*
X13574000Y-7876600D02*
X13574000Y-7976600D01*
X13524000Y-7926600D02*
X13624000Y-7926600D01*
X13524000Y-8130600D02*
X13624000Y-8230600D01*
X13624000Y-8130600D02*
X13524000Y-8230600D01*
X13574000Y-8130600D02*
X13574000Y-8230600D01*
X13524000Y-8180600D02*
X13624000Y-8180600D01*
X13524000Y-8384600D02*
X13624000Y-8484600D01*
X13624000Y-8384600D02*
X13524000Y-8484600D01*
X13574000Y-8384600D02*
X13574000Y-8484600D01*
X13524000Y-8434600D02*
X13624000Y-8434600D01*
X13524000Y-8638600D02*
X13624000Y-8738600D01*
X13624000Y-8638600D02*
X13524000Y-8738600D01*
X13574000Y-8638600D02*
X13574000Y-8738600D01*
X13524000Y-8688600D02*
X13624000Y-8688600D01*
X13524000Y-8892600D02*
X13624000Y-8992600D01*
X13624000Y-8892600D02*
X13524000Y-8992600D01*
X13574000Y-8892600D02*
X13574000Y-8992600D01*
X13524000Y-8942600D02*
X13624000Y-8942600D01*
X13524000Y-9146600D02*
X13624000Y-9246600D01*
X13624000Y-9146600D02*
X13524000Y-9246600D01*
X13574000Y-9146600D02*
X13574000Y-9246600D01*
X13524000Y-9196600D02*
X13624000Y-9196600D01*
X13524000Y-9400600D02*
X13624000Y-9500600D01*
X13624000Y-9400600D02*
X13524000Y-9500600D01*
X13574000Y-9400600D02*
X13574000Y-9500600D01*
X13524000Y-9450600D02*
X13624000Y-9450600D01*
X13524000Y-9654600D02*
X13624000Y-9754600D01*
X13624000Y-9654600D02*
X13524000Y-9754600D01*
X13574000Y-9654600D02*
X13574000Y-9754600D01*
X13524000Y-9704600D02*
X13624000Y-9704600D01*
X13524000Y-9908600D02*
X13624000Y-10008600D01*
X13624000Y-9908600D02*
X13524000Y-10008600D01*
X13574000Y-9908600D02*
X13574000Y-10008600D01*
X13524000Y-9958600D02*
X13624000Y-9958600D01*
X13524000Y-10162600D02*
X13624000Y-10262600D01*
X13624000Y-10162600D02*
X13524000Y-10262600D01*
X13574000Y-10162600D02*
X13574000Y-10262600D01*
X13524000Y-10212600D02*
X13624000Y-10212600D01*
X13524000Y-10416600D02*
X13624000Y-10516600D01*
X13624000Y-10416600D02*
X13524000Y-10516600D01*
X13574000Y-10416600D02*
X13574000Y-10516600D01*
X13524000Y-10466600D02*
X13624000Y-10466600D01*
X13524000Y-10670600D02*
X13624000Y-10770600D01*
X13624000Y-10670600D02*
X13524000Y-10770600D01*
X13574000Y-10670600D02*
X13574000Y-10770600D01*
X13524000Y-10720600D02*
X13624000Y-10720600D01*
X13524000Y-10924600D02*
X13624000Y-11024600D01*
X13624000Y-10924600D02*
X13524000Y-11024600D01*
X13574000Y-10924600D02*
X13574000Y-11024600D01*
X13524000Y-10974600D02*
X13624000Y-10974600D01*
X13524000Y-11178600D02*
X13624000Y-11278600D01*
X13624000Y-11178600D02*
X13524000Y-11278600D01*
X13574000Y-11178600D02*
X13574000Y-11278600D01*
X13524000Y-11228600D02*
X13624000Y-11228600D01*
X13524000Y-11432600D02*
X13624000Y-11532600D01*
X13624000Y-11432600D02*
X13524000Y-11532600D01*
X13574000Y-11432600D02*
X13574000Y-11532600D01*
X13524000Y-11482600D02*
X13624000Y-11482600D01*
X13524000Y-11686600D02*
X13624000Y-11786600D01*
X13624000Y-11686600D02*
X13524000Y-11786600D01*
X13574000Y-11686600D02*
X13574000Y-11786600D01*
X13524000Y-11736600D02*
X13624000Y-11736600D01*
X13524000Y-11940600D02*
X13624000Y-12040600D01*
X13624000Y-11940600D02*
X13524000Y-12040600D01*
X13574000Y-11940600D02*
X13574000Y-12040600D01*
X13524000Y-11990600D02*
X13624000Y-11990600D01*
X13524000Y-12194600D02*
X13624000Y-12294600D01*
X13624000Y-12194600D02*
X13524000Y-12294600D01*
X13574000Y-12194600D02*
X13574000Y-12294600D01*
X13524000Y-12244600D02*
X13624000Y-12244600D01*
X13778000Y-7368600D02*
X13878000Y-7468600D01*
X13878000Y-7368600D02*
X13778000Y-7468600D01*
X13828000Y-7368600D02*
X13828000Y-7468600D01*
X13778000Y-7418600D02*
X13878000Y-7418600D01*
X13778000Y-7622600D02*
X13878000Y-7722600D01*
X13878000Y-7622600D02*
X13778000Y-7722600D01*
X13828000Y-7622600D02*
X13828000Y-7722600D01*
X13778000Y-7672600D02*
X13878000Y-7672600D01*
X13778000Y-7876600D02*
X13878000Y-7976600D01*
X13878000Y-7876600D02*
X13778000Y-7976600D01*
X13828000Y-7876600D02*
X13828000Y-7976600D01*
X13778000Y-7926600D02*
X13878000Y-7926600D01*
X13778000Y-8130600D02*
X13878000Y-8230600D01*
X13878000Y-8130600D02*
X13778000Y-8230600D01*
X13828000Y-8130600D02*
X13828000Y-8230600D01*
X13778000Y-8180600D02*
X13878000Y-8180600D01*
X13778000Y-8384600D02*
X13878000Y-8484600D01*
X13878000Y-8384600D02*
X13778000Y-8484600D01*
X13828000Y-8384600D02*
X13828000Y-8484600D01*
X13778000Y-8434600D02*
X13878000Y-8434600D01*
X13778000Y-8638600D02*
X13878000Y-8738600D01*
X13878000Y-8638600D02*
X13778000Y-8738600D01*
X13828000Y-8638600D02*
X13828000Y-8738600D01*
X13778000Y-8688600D02*
X13878000Y-8688600D01*
X13778000Y-8892600D02*
X13878000Y-8992600D01*
X13878000Y-8892600D02*
X13778000Y-8992600D01*
X13828000Y-8892600D02*
X13828000Y-8992600D01*
X13778000Y-8942600D02*
X13878000Y-8942600D01*
X13778000Y-9146600D02*
X13878000Y-9246600D01*
X13878000Y-9146600D02*
X13778000Y-9246600D01*
X13828000Y-9146600D02*
X13828000Y-9246600D01*
X13778000Y-9196600D02*
X13878000Y-9196600D01*
X13778000Y-9400600D02*
X13878000Y-9500600D01*
X13878000Y-9400600D02*
X13778000Y-9500600D01*
X13828000Y-9400600D02*
X13828000Y-9500600D01*
X13778000Y-9450600D02*
X13878000Y-9450600D01*
X13778000Y-9654600D02*
X13878000Y-9754600D01*
X13878000Y-9654600D02*
X13778000Y-9754600D01*
X13828000Y-9654600D02*
X13828000Y-9754600D01*
X13778000Y-9704600D02*
X13878000Y-9704600D01*
X13778000Y-9908600D02*
X13878000Y-10008600D01*
X13878000Y-9908600D02*
X13778000Y-10008600D01*
X13828000Y-9908600D02*
X13828000Y-10008600D01*
X13778000Y-9958600D02*
X13878000Y-9958600D01*
X13778000Y-10162600D02*
X13878000Y-10262600D01*
X13878000Y-10162600D02*
X13778000Y-10262600D01*
X13828000Y-10162600D02*
X13828000Y-10262600D01*
X13778000Y-10212600D02*
X13878000Y-10212600D01*
X13778000Y-10416600D02*
X13878000Y-10516600D01*
X13878000Y-10416600D02*
X13778000Y-10516600D01*
X13828000Y-10416600D02*
X13828000Y-10516600D01*
X13778000Y-10466600D02*
X13878000Y-10466600D01*
X13778000Y-10670600D02*
X13878000Y-10770600D01*
X13878000Y-10670600D02*
X13778000Y-10770600D01*
X13828000Y-10670600D02*
X13828000Y-10770600D01*
X13778000Y-10720600D02*
X13878000Y-10720600D01*
X13778000Y-10924600D02*
X13878000Y-11024600D01*
X13878000Y-10924600D02*
X13778000Y-11024600D01*
X13828000Y-10924600D02*
X13828000Y-11024600D01*
X13778000Y-10974600D02*
X13878000Y-10974600D01*
X13778000Y-11178600D02*
X13878000Y-11278600D01*
X13878000Y-11178600D02*
X13778000Y-11278600D01*
X13828000Y-11178600D02*
X13828000Y-11278600D01*
X13778000Y-11228600D02*
X13878000Y-11228600D01*
X13778000Y-11432600D02*
X13878000Y-11532600D01*
X13878000Y-11432600D02*
X13778000Y-11532600D01*
X13828000Y-11432600D02*
X13828000Y-11532600D01*
X13778000Y-11482600D02*
X13878000Y-11482600D01*
X13778000Y-11686600D02*
X13878000Y-11786600D01*
X13878000Y-11686600D02*
X13778000Y-11786600D01*
X13828000Y-11686600D02*
X13828000Y-11786600D01*
X13778000Y-11736600D02*
X13878000Y-11736600D01*
X13778000Y-11940600D02*
X13878000Y-12040600D01*
X13878000Y-11940600D02*
X13778000Y-12040600D01*
X13828000Y-11940600D02*
X13828000Y-12040600D01*
X13778000Y-11990600D02*
X13878000Y-11990600D01*
X13778000Y-12194600D02*
X13878000Y-12294600D01*
X13878000Y-12194600D02*
X13778000Y-12294600D01*
X13828000Y-12194600D02*
X13828000Y-12294600D01*
X13778000Y-12244600D02*
X13878000Y-12244600D01*
X20397000Y-9271800D02*
X20497000Y-9371800D01*
X20497000Y-9271800D02*
X20397000Y-9371800D01*
X20447000Y-9271800D02*
X20447000Y-9371800D01*
X20397000Y-9321800D02*
X20497000Y-9321800D01*
X15062000Y-13233200D02*
X15164000Y-13335200D01*
X15164000Y-13233200D02*
X15062000Y-13335200D01*
X15149063Y-13320263D02*
X15149063Y-13248137D01*
X15076937Y-13248137D01*
X15076937Y-13320263D01*
X15149063Y-13320263D01*
X15316000Y-13233200D02*
X15418000Y-13335200D01*
X15418000Y-13233200D02*
X15316000Y-13335200D01*
X15403063Y-13320263D02*
X15403063Y-13248137D01*
X15330937Y-13248137D01*
X15330937Y-13320263D01*
X15403063Y-13320263D01*
X15570000Y-13233200D02*
X15672000Y-13335200D01*
X15672000Y-13233200D02*
X15570000Y-13335200D01*
X15657063Y-13320263D02*
X15657063Y-13248137D01*
X15584937Y-13248137D01*
X15584937Y-13320263D01*
X15657063Y-13320263D01*
X9268750Y-7833100D02*
X9370750Y-7935100D01*
X9370750Y-7833100D02*
X9268750Y-7935100D01*
X9355813Y-7920163D02*
X9355813Y-7848037D01*
X9283687Y-7848037D01*
X9283687Y-7920163D01*
X9355813Y-7920163D01*
X9268750Y-8087100D02*
X9370750Y-8189100D01*
X9370750Y-8087100D02*
X9268750Y-8189100D01*
X9355813Y-8174163D02*
X9355813Y-8102037D01*
X9283687Y-8102037D01*
X9283687Y-8174163D01*
X9355813Y-8174163D01*
X9268750Y-8904100D02*
X9370750Y-9006100D01*
X9370750Y-8904100D02*
X9268750Y-9006100D01*
X9355813Y-8991163D02*
X9355813Y-8919037D01*
X9283687Y-8919037D01*
X9283687Y-8991163D01*
X9355813Y-8991163D01*
X9268750Y-9158100D02*
X9370750Y-9260100D01*
X9370750Y-9158100D02*
X9268750Y-9260100D01*
X9355813Y-9245163D02*
X9355813Y-9173037D01*
X9283687Y-9173037D01*
X9283687Y-9245163D01*
X9355813Y-9245163D01*
X16283550Y-7006200D02*
X16393550Y-7116200D01*
X16393550Y-7006200D02*
X16283550Y-7116200D01*
X16338550Y-7116200D02*
X16393550Y-7061200D01*
X16338550Y-7006200D01*
X16283550Y-7061200D01*
X16338550Y-7116200D01*
X16783550Y-7006200D02*
X16893550Y-7116200D01*
X16893550Y-7006200D02*
X16783550Y-7116200D01*
X16838550Y-7116200D02*
X16893550Y-7061200D01*
X16838550Y-7006200D01*
X16783550Y-7061200D01*
X16838550Y-7116200D01*
X17283550Y-7006200D02*
X17393550Y-7116200D01*
X17393550Y-7006200D02*
X17283550Y-7116200D01*
X17338550Y-7116200D02*
X17393550Y-7061200D01*
X17338550Y-7006200D01*
X17283550Y-7061200D01*
X17338550Y-7116200D01*
X17783550Y-7006200D02*
X17893550Y-7116200D01*
X17893550Y-7006200D02*
X17783550Y-7116200D01*
X17838550Y-7116200D02*
X17893550Y-7061200D01*
X17838550Y-7006200D01*
X17783550Y-7061200D01*
X17838550Y-7116200D01*
X18283550Y-7006200D02*
X18393550Y-7116200D01*
X18393550Y-7006200D02*
X18283550Y-7116200D01*
X18338550Y-7116200D02*
X18393550Y-7061200D01*
X18338550Y-7006200D01*
X18283550Y-7061200D01*
X18338550Y-7116200D01*
X18783550Y-7006200D02*
X18893550Y-7116200D01*
X18893550Y-7006200D02*
X18783550Y-7116200D01*
X18838550Y-7116200D02*
X18893550Y-7061200D01*
X18838550Y-7006200D01*
X18783550Y-7061200D01*
X18838550Y-7116200D01*
X19283550Y-7006200D02*
X19393550Y-7116200D01*
X19393550Y-7006200D02*
X19283550Y-7116200D01*
X19338550Y-7116200D02*
X19393550Y-7061200D01*
X19338550Y-7006200D01*
X19283550Y-7061200D01*
X19338550Y-7116200D01*
X19783550Y-7006200D02*
X19893550Y-7116200D01*
X19893550Y-7006200D02*
X19783550Y-7116200D01*
X19838550Y-7116200D02*
X19893550Y-7061200D01*
X19838550Y-7006200D01*
X19783550Y-7061200D01*
X19838550Y-7116200D01*
X17312640Y-11720600D02*
X17312640Y-11850600D01*
X17247640Y-11785600D02*
X17377640Y-11785600D01*
X17377640Y-11785600D02*
G75*
G03X17377640Y-11785600I-65000J0D01*
G01*
X17312640Y-12228600D02*
X17312640Y-12358600D01*
X17247640Y-12293600D02*
X17377640Y-12293600D01*
X17377640Y-12293600D02*
G75*
G03X17377640Y-12293600I-65000J0D01*
G01*
X16728440Y-11720600D02*
X16728440Y-11850600D01*
X16663440Y-11785600D02*
X16793440Y-11785600D01*
X16793440Y-11785600D02*
G75*
G03X16793440Y-11785600I-65000J0D01*
G01*
X16728440Y-12228600D02*
X16728440Y-12358600D01*
X16663440Y-12293600D02*
X16793440Y-12293600D01*
X16793440Y-12293600D02*
G75*
G03X16793440Y-12293600I-65000J0D01*
G01*
X9812400Y-13193800D02*
X9812400Y-13323800D01*
X9747400Y-13258800D02*
X9877400Y-13258800D01*
X9877400Y-13258800D02*
G75*
G03X9877400Y-13258800I-65000J0D01*
G01*
X10312400Y-13193800D02*
X10312400Y-13323800D01*
X10247400Y-13258800D02*
X10377400Y-13258800D01*
X10377400Y-13258800D02*
G75*
G03X10377400Y-13258800I-65000J0D01*
G01*
X21833840Y-11720600D02*
X21833840Y-11850600D01*
X21768840Y-11785600D02*
X21898840Y-11785600D01*
X21898840Y-11785600D02*
G75*
G03X21898840Y-11785600I-65000J0D01*
G01*
X21833840Y-12228600D02*
X21833840Y-12358600D01*
X21768840Y-12293600D02*
X21898840Y-12293600D01*
X21898840Y-12293600D02*
G75*
G03X21898840Y-12293600I-65000J0D01*
G01*
X21249640Y-11720600D02*
X21249640Y-11850600D01*
X21184640Y-11785600D02*
X21314640Y-11785600D01*
X21314640Y-11785600D02*
G75*
G03X21314640Y-11785600I-65000J0D01*
G01*
X21249640Y-12228600D02*
X21249640Y-12358600D01*
X21184640Y-12293600D02*
X21314640Y-12293600D01*
X21314640Y-12293600D02*
G75*
G03X21314640Y-12293600I-65000J0D01*
G01*
X19497040Y-11720600D02*
X19497040Y-11850600D01*
X19432040Y-11785600D02*
X19562040Y-11785600D01*
X19562040Y-11785600D02*
G75*
G03X19562040Y-11785600I-65000J0D01*
G01*
X19497040Y-12228600D02*
X19497040Y-12358600D01*
X19432040Y-12293600D02*
X19562040Y-12293600D01*
X19562040Y-12293600D02*
G75*
G03X19562040Y-12293600I-65000J0D01*
G01*
X20665440Y-11720600D02*
X20665440Y-11850600D01*
X20600440Y-11785600D02*
X20730440Y-11785600D01*
X20730440Y-11785600D02*
G75*
G03X20730440Y-11785600I-65000J0D01*
G01*
X20665440Y-12228600D02*
X20665440Y-12358600D01*
X20600440Y-12293600D02*
X20730440Y-12293600D01*
X20730440Y-12293600D02*
G75*
G03X20730440Y-12293600I-65000J0D01*
G01*
X16144240Y-11720600D02*
X16144240Y-11850600D01*
X16079240Y-11785600D02*
X16209240Y-11785600D01*
X16209240Y-11785600D02*
G75*
G03X16209240Y-11785600I-65000J0D01*
G01*
X16144240Y-12228600D02*
X16144240Y-12358600D01*
X16079240Y-12293600D02*
X16209240Y-12293600D01*
X16209240Y-12293600D02*
G75*
G03X16209240Y-12293600I-65000J0D01*
G01*
X20081240Y-11720600D02*
X20081240Y-11850600D01*
X20016240Y-11785600D02*
X20146240Y-11785600D01*
X20146240Y-11785600D02*
G75*
G03X20146240Y-11785600I-65000J0D01*
G01*
X20081240Y-12228600D02*
X20081240Y-12358600D01*
X20016240Y-12293600D02*
X20146240Y-12293600D01*
X20146240Y-12293600D02*
G75*
G03X20146240Y-12293600I-65000J0D01*
G01*
X12321233Y-10196034D02*
X12321233Y-10089967D01*
X12215166Y-10089967D01*
X12215166Y-10196034D01*
X12321233Y-10196034D01*
X12343200Y-10143000D02*
G75*
G03X12343200Y-10143000I-75000J0D01*
G01*
X12321233Y-12245033D02*
X12321233Y-12138966D01*
X12215166Y-12138966D01*
X12215166Y-12245033D01*
X12321233Y-12245033D01*
X12343200Y-12192000D02*
G75*
G03X12343200Y-12192000I-75000J0D01*
G01*
X10114750Y-7853600D02*
X10196250Y-7772100D01*
X10114750Y-7690600D01*
X10033250Y-7772100D01*
X10114750Y-7853600D01*
X10196250Y-7772100D02*
G75*
G03X10196250Y-7772100I-81500J0D01*
G01*
X10114750Y-9402600D02*
X10196250Y-9321100D01*
X10114750Y-9239600D01*
X10033250Y-9321100D01*
X10114750Y-9402600D01*
X10196250Y-9321100D02*
G75*
G03X10196250Y-9321100I-81500J0D01*
G01*
X21742400Y-6985400D02*
X21742400Y-7239400D01*
X21615400Y-7112400D02*
X21869400Y-7112400D01*
X21832203Y-7202203D02*
X21832203Y-7022597D01*
X21652597Y-7022597D01*
X21652597Y-7202203D01*
X21832203Y-7202203D01*
X21742400Y-9677400D02*
X21742400Y-9931400D01*
X21615400Y-9804400D02*
X21869400Y-9804400D01*
X21832203Y-9894203D02*
X21832203Y-9714597D01*
X21652597Y-9714597D01*
X21652597Y-9894203D01*
X21832203Y-9894203D01*
X11399000Y-6791100D02*
X11399000Y-7066100D01*
X11261500Y-6928600D02*
X11536500Y-6928600D01*
X11399000Y-7066100D02*
X11536500Y-6928600D01*
X11399000Y-6791100D01*
X11261500Y-6928600D01*
X11399000Y-7066100D01*
X11399000Y-12591100D02*
X11399000Y-12866100D01*
X11261500Y-12728600D02*
X11536500Y-12728600D01*
X11399000Y-12866100D02*
X11536500Y-12728600D01*
X11399000Y-12591100D01*
X11261500Y-12728600D01*
X11399000Y-12866100D01*
X9809750Y-8137600D02*
X9972250Y-7975100D01*
X9809750Y-7812600D01*
X9647250Y-7975100D01*
X9809750Y-8137600D01*
X9924656Y-8090006D02*
X9924656Y-7860194D01*
X9694844Y-7860194D01*
X9694844Y-8090006D01*
X9924656Y-8090006D01*
X9809750Y-9280600D02*
X9972250Y-9118100D01*
X9809750Y-8955600D01*
X9647250Y-9118100D01*
X9809750Y-9280600D01*
X9924656Y-9233006D02*
X9924656Y-9003194D01*
X9694844Y-9003194D01*
X9694844Y-9233006D01*
X9924656Y-9233006D01*
D12*
X9377128Y-14285814D02*
X9377128Y-13985814D01*
X9448557Y-13985814D01*
X9491414Y-14000100D01*
X9519986Y-14028671D01*
X9534271Y-14057243D01*
X9548557Y-14114386D01*
X9548557Y-14157243D01*
X9534271Y-14214386D01*
X9519986Y-14242957D01*
X9491414Y-14271529D01*
X9448557Y-14285814D01*
X9377128Y-14285814D01*
X9677128Y-14285814D02*
X9677128Y-14085814D01*
X9677128Y-14142957D02*
X9691414Y-14114386D01*
X9705700Y-14100100D01*
X9734271Y-14085814D01*
X9762843Y-14085814D01*
X9862843Y-14285814D02*
X9862843Y-14085814D01*
X9862843Y-13985814D02*
X9848557Y-14000100D01*
X9862843Y-14014386D01*
X9877128Y-14000100D01*
X9862843Y-13985814D01*
X9862843Y-14014386D01*
X10048557Y-14285814D02*
X10019986Y-14271529D01*
X10005700Y-14242957D01*
X10005700Y-13985814D01*
X10205700Y-14285814D02*
X10177128Y-14271529D01*
X10162843Y-14242957D01*
X10162843Y-13985814D01*
X10548557Y-14285814D02*
X10548557Y-13985814D01*
X10648557Y-14200100D01*
X10748557Y-13985814D01*
X10748557Y-14285814D01*
X11019986Y-14285814D02*
X11019986Y-14128671D01*
X11005700Y-14100100D01*
X10977128Y-14085814D01*
X10919986Y-14085814D01*
X10891414Y-14100100D01*
X11019986Y-14271529D02*
X10991414Y-14285814D01*
X10919986Y-14285814D01*
X10891414Y-14271529D01*
X10877128Y-14242957D01*
X10877128Y-14214386D01*
X10891414Y-14185814D01*
X10919986Y-14171529D01*
X10991414Y-14171529D01*
X11019986Y-14157243D01*
X11162843Y-14085814D02*
X11162843Y-14385814D01*
X11162843Y-14100100D02*
X11191414Y-14085814D01*
X11248557Y-14085814D01*
X11277128Y-14100100D01*
X11291414Y-14114386D01*
X11305700Y-14142957D01*
X11305700Y-14228671D01*
X11291414Y-14257243D01*
X11277128Y-14271529D01*
X11248557Y-14285814D01*
X11191414Y-14285814D01*
X11162843Y-14271529D01*
X11434271Y-14257243D02*
X11448557Y-14271529D01*
X11434271Y-14285814D01*
X11419986Y-14271529D01*
X11434271Y-14257243D01*
X11434271Y-14285814D01*
X11434271Y-14100100D02*
X11448557Y-14114386D01*
X11434271Y-14128671D01*
X11419986Y-14114386D01*
X11434271Y-14100100D01*
X11434271Y-14128671D01*
X9050700Y-14760100D02*
X9090700Y-14800100D01*
X9090700Y-14760100D02*
X9050700Y-14800100D01*
X9434271Y-14615814D02*
X9462843Y-14615814D01*
X9491414Y-14630100D01*
X9505700Y-14644386D01*
X9519986Y-14672957D01*
X9534271Y-14730100D01*
X9534271Y-14801529D01*
X9519986Y-14858671D01*
X9505700Y-14887243D01*
X9491414Y-14901529D01*
X9462843Y-14915814D01*
X9434271Y-14915814D01*
X9405700Y-14901529D01*
X9391414Y-14887243D01*
X9377128Y-14858671D01*
X9362843Y-14801529D01*
X9362843Y-14730100D01*
X9377128Y-14672957D01*
X9391414Y-14644386D01*
X9405700Y-14630100D01*
X9434271Y-14615814D01*
X9662843Y-14887243D02*
X9677128Y-14901529D01*
X9662843Y-14915814D01*
X9648557Y-14901529D01*
X9662843Y-14887243D01*
X9662843Y-14915814D01*
X9934271Y-14715814D02*
X9934271Y-14915814D01*
X9862843Y-14601529D02*
X9791414Y-14815814D01*
X9977128Y-14815814D01*
X10148557Y-14615814D02*
X10177128Y-14615814D01*
X10205700Y-14630100D01*
X10219986Y-14644386D01*
X10234271Y-14672957D01*
X10248557Y-14730100D01*
X10248557Y-14801529D01*
X10234271Y-14858671D01*
X10219986Y-14887243D01*
X10205700Y-14901529D01*
X10177128Y-14915814D01*
X10148557Y-14915814D01*
X10119986Y-14901529D01*
X10105700Y-14887243D01*
X10091414Y-14858671D01*
X10077128Y-14801529D01*
X10077128Y-14730100D01*
X10091414Y-14672957D01*
X10105700Y-14644386D01*
X10119986Y-14630100D01*
X10148557Y-14615814D01*
X10377128Y-14915814D02*
X10377128Y-14715814D01*
X10377128Y-14744386D02*
X10391414Y-14730100D01*
X10419986Y-14715814D01*
X10462843Y-14715814D01*
X10491414Y-14730100D01*
X10505700Y-14758671D01*
X10505700Y-14915814D01*
X10505700Y-14758671D02*
X10519986Y-14730100D01*
X10548557Y-14715814D01*
X10591414Y-14715814D01*
X10619986Y-14730100D01*
X10634271Y-14758671D01*
X10634271Y-14915814D01*
X10777128Y-14915814D02*
X10777128Y-14715814D01*
X10777128Y-14744386D02*
X10791414Y-14730100D01*
X10819986Y-14715814D01*
X10862843Y-14715814D01*
X10891414Y-14730100D01*
X10905700Y-14758671D01*
X10905700Y-14915814D01*
X10905700Y-14758671D02*
X10919986Y-14730100D01*
X10948557Y-14715814D01*
X10991414Y-14715814D01*
X11019986Y-14730100D01*
X11034271Y-14758671D01*
X11034271Y-14915814D01*
X11619986Y-14601529D02*
X11362843Y-14987243D01*
X12005700Y-14615814D02*
X12034271Y-14615814D01*
X12062843Y-14630100D01*
X12077128Y-14644386D01*
X12091414Y-14672957D01*
X12105700Y-14730100D01*
X12105700Y-14801529D01*
X12091414Y-14858671D01*
X12077128Y-14887243D01*
X12062843Y-14901529D01*
X12034271Y-14915814D01*
X12005700Y-14915814D01*
X11977128Y-14901529D01*
X11962843Y-14887243D01*
X11948557Y-14858671D01*
X11934271Y-14801529D01*
X11934271Y-14730100D01*
X11948557Y-14672957D01*
X11962843Y-14644386D01*
X11977128Y-14630100D01*
X12005700Y-14615814D01*
X12234271Y-14887243D02*
X12248557Y-14901529D01*
X12234271Y-14915814D01*
X12219986Y-14901529D01*
X12234271Y-14887243D01*
X12234271Y-14915814D01*
X12434271Y-14615814D02*
X12462843Y-14615814D01*
X12491414Y-14630100D01*
X12505700Y-14644386D01*
X12519986Y-14672957D01*
X12534271Y-14730100D01*
X12534271Y-14801529D01*
X12519986Y-14858671D01*
X12505700Y-14887243D01*
X12491414Y-14901529D01*
X12462843Y-14915814D01*
X12434271Y-14915814D01*
X12405700Y-14901529D01*
X12391414Y-14887243D01*
X12377128Y-14858671D01*
X12362843Y-14801529D01*
X12362843Y-14730100D01*
X12377128Y-14672957D01*
X12391414Y-14644386D01*
X12405700Y-14630100D01*
X12434271Y-14615814D01*
X12819986Y-14915814D02*
X12648557Y-14915814D01*
X12734271Y-14915814D02*
X12734271Y-14615814D01*
X12705700Y-14658671D01*
X12677128Y-14687243D01*
X12648557Y-14701529D01*
X13077128Y-14615814D02*
X13019986Y-14615814D01*
X12991414Y-14630100D01*
X12977128Y-14644386D01*
X12948557Y-14687243D01*
X12934271Y-14744386D01*
X12934271Y-14858671D01*
X12948557Y-14887243D01*
X12962843Y-14901529D01*
X12991414Y-14915814D01*
X13048557Y-14915814D01*
X13077128Y-14901529D01*
X13091414Y-14887243D01*
X13105700Y-14858671D01*
X13105700Y-14787243D01*
X13091414Y-14758671D01*
X13077128Y-14744386D01*
X13048557Y-14730100D01*
X12991414Y-14730100D01*
X12962843Y-14744386D01*
X12948557Y-14758671D01*
X12934271Y-14787243D01*
X13219986Y-14615814D02*
X13219986Y-14672957D01*
X13334271Y-14615814D02*
X13334271Y-14672957D01*
X13777128Y-15030100D02*
X13762843Y-15015814D01*
X13734271Y-14972957D01*
X13719986Y-14944386D01*
X13705700Y-14901529D01*
X13691414Y-14830100D01*
X13691414Y-14772957D01*
X13705700Y-14701529D01*
X13719986Y-14658671D01*
X13734271Y-14630100D01*
X13762843Y-14587243D01*
X13777128Y-14572957D01*
X14048557Y-14915814D02*
X13877128Y-14915814D01*
X13962843Y-14915814D02*
X13962843Y-14615814D01*
X13934271Y-14658671D01*
X13905700Y-14687243D01*
X13877128Y-14701529D01*
X14219986Y-14744386D02*
X14191414Y-14730100D01*
X14177128Y-14715814D01*
X14162843Y-14687243D01*
X14162843Y-14672957D01*
X14177128Y-14644386D01*
X14191414Y-14630100D01*
X14219986Y-14615814D01*
X14277128Y-14615814D01*
X14305700Y-14630100D01*
X14319986Y-14644386D01*
X14334271Y-14672957D01*
X14334271Y-14687243D01*
X14319986Y-14715814D01*
X14305700Y-14730100D01*
X14277128Y-14744386D01*
X14219986Y-14744386D01*
X14191414Y-14758671D01*
X14177128Y-14772957D01*
X14162843Y-14801529D01*
X14162843Y-14858671D01*
X14177128Y-14887243D01*
X14191414Y-14901529D01*
X14219986Y-14915814D01*
X14277128Y-14915814D01*
X14305700Y-14901529D01*
X14319986Y-14887243D01*
X14334271Y-14858671D01*
X14334271Y-14801529D01*
X14319986Y-14772957D01*
X14305700Y-14758671D01*
X14277128Y-14744386D01*
X14477128Y-14915814D02*
X14534271Y-14915814D01*
X14562843Y-14901529D01*
X14577128Y-14887243D01*
X14605700Y-14844386D01*
X14619986Y-14787243D01*
X14619986Y-14672957D01*
X14605700Y-14644386D01*
X14591414Y-14630100D01*
X14562843Y-14615814D01*
X14505700Y-14615814D01*
X14477128Y-14630100D01*
X14462843Y-14644386D01*
X14448557Y-14672957D01*
X14448557Y-14744386D01*
X14462843Y-14772957D01*
X14477128Y-14787243D01*
X14505700Y-14801529D01*
X14562843Y-14801529D01*
X14591414Y-14787243D01*
X14605700Y-14772957D01*
X14619986Y-14744386D01*
X14977128Y-14915814D02*
X14977128Y-14615814D01*
X15105700Y-14915814D02*
X15105700Y-14758671D01*
X15091414Y-14730100D01*
X15062843Y-14715814D01*
X15019986Y-14715814D01*
X14991414Y-14730100D01*
X14977128Y-14744386D01*
X15291414Y-14915814D02*
X15262843Y-14901529D01*
X15248557Y-14887243D01*
X15234271Y-14858671D01*
X15234271Y-14772957D01*
X15248557Y-14744386D01*
X15262843Y-14730100D01*
X15291414Y-14715814D01*
X15334271Y-14715814D01*
X15362843Y-14730100D01*
X15377128Y-14744386D01*
X15391414Y-14772957D01*
X15391414Y-14858671D01*
X15377128Y-14887243D01*
X15362843Y-14901529D01*
X15334271Y-14915814D01*
X15291414Y-14915814D01*
X15562843Y-14915814D02*
X15534271Y-14901529D01*
X15519986Y-14872957D01*
X15519986Y-14615814D01*
X15791414Y-14901529D02*
X15762843Y-14915814D01*
X15705700Y-14915814D01*
X15677128Y-14901529D01*
X15662843Y-14872957D01*
X15662843Y-14758671D01*
X15677128Y-14730100D01*
X15705700Y-14715814D01*
X15762843Y-14715814D01*
X15791414Y-14730100D01*
X15805700Y-14758671D01*
X15805700Y-14787243D01*
X15662843Y-14815814D01*
X15919986Y-14901529D02*
X15948557Y-14915814D01*
X16005700Y-14915814D01*
X16034271Y-14901529D01*
X16048557Y-14872957D01*
X16048557Y-14858671D01*
X16034271Y-14830100D01*
X16005700Y-14815814D01*
X15962843Y-14815814D01*
X15934271Y-14801529D01*
X15919986Y-14772957D01*
X15919986Y-14758671D01*
X15934271Y-14730100D01*
X15962843Y-14715814D01*
X16005700Y-14715814D01*
X16034271Y-14730100D01*
X16148557Y-15030100D02*
X16162843Y-15015814D01*
X16191414Y-14972957D01*
X16205700Y-14944386D01*
X16219986Y-14901529D01*
X16234271Y-14830100D01*
X16234271Y-14772957D01*
X16219986Y-14701529D01*
X16205700Y-14658671D01*
X16191414Y-14630100D01*
X16162843Y-14587243D01*
X16148557Y-14572957D01*
X9090700Y-15176100D02*
G75*
G03X9090700Y-15176100I-30000J0D01*
G01*
X9434271Y-15011814D02*
X9462843Y-15011814D01*
X9491414Y-15026100D01*
X9505700Y-15040386D01*
X9519986Y-15068957D01*
X9534271Y-15126100D01*
X9534271Y-15197529D01*
X9519986Y-15254671D01*
X9505700Y-15283243D01*
X9491414Y-15297529D01*
X9462843Y-15311814D01*
X9434271Y-15311814D01*
X9405700Y-15297529D01*
X9391414Y-15283243D01*
X9377128Y-15254671D01*
X9362843Y-15197529D01*
X9362843Y-15126100D01*
X9377128Y-15068957D01*
X9391414Y-15040386D01*
X9405700Y-15026100D01*
X9434271Y-15011814D01*
X9662843Y-15283243D02*
X9677128Y-15297529D01*
X9662843Y-15311814D01*
X9648557Y-15297529D01*
X9662843Y-15283243D01*
X9662843Y-15311814D01*
X9934271Y-15011814D02*
X9877128Y-15011814D01*
X9848557Y-15026100D01*
X9834271Y-15040386D01*
X9805700Y-15083243D01*
X9791414Y-15140386D01*
X9791414Y-15254671D01*
X9805700Y-15283243D01*
X9819986Y-15297529D01*
X9848557Y-15311814D01*
X9905700Y-15311814D01*
X9934271Y-15297529D01*
X9948557Y-15283243D01*
X9962843Y-15254671D01*
X9962843Y-15183243D01*
X9948557Y-15154671D01*
X9934271Y-15140386D01*
X9905700Y-15126100D01*
X9848557Y-15126100D01*
X9819986Y-15140386D01*
X9805700Y-15154671D01*
X9791414Y-15183243D01*
X10148557Y-15011814D02*
X10177128Y-15011814D01*
X10205700Y-15026100D01*
X10219986Y-15040386D01*
X10234271Y-15068957D01*
X10248557Y-15126100D01*
X10248557Y-15197529D01*
X10234271Y-15254671D01*
X10219986Y-15283243D01*
X10205700Y-15297529D01*
X10177128Y-15311814D01*
X10148557Y-15311814D01*
X10119986Y-15297529D01*
X10105700Y-15283243D01*
X10091414Y-15254671D01*
X10077128Y-15197529D01*
X10077128Y-15126100D01*
X10091414Y-15068957D01*
X10105700Y-15040386D01*
X10119986Y-15026100D01*
X10148557Y-15011814D01*
X10377128Y-15311814D02*
X10377128Y-15111814D01*
X10377128Y-15140386D02*
X10391414Y-15126100D01*
X10419986Y-15111814D01*
X10462843Y-15111814D01*
X10491414Y-15126100D01*
X10505700Y-15154671D01*
X10505700Y-15311814D01*
X10505700Y-15154671D02*
X10519986Y-15126100D01*
X10548557Y-15111814D01*
X10591414Y-15111814D01*
X10619986Y-15126100D01*
X10634271Y-15154671D01*
X10634271Y-15311814D01*
X10777128Y-15311814D02*
X10777128Y-15111814D01*
X10777128Y-15140386D02*
X10791414Y-15126100D01*
X10819986Y-15111814D01*
X10862843Y-15111814D01*
X10891414Y-15126100D01*
X10905700Y-15154671D01*
X10905700Y-15311814D01*
X10905700Y-15154671D02*
X10919986Y-15126100D01*
X10948557Y-15111814D01*
X10991414Y-15111814D01*
X11019986Y-15126100D01*
X11034271Y-15154671D01*
X11034271Y-15311814D01*
X11619986Y-14997529D02*
X11362843Y-15383243D01*
X12005700Y-15011814D02*
X12034271Y-15011814D01*
X12062843Y-15026100D01*
X12077128Y-15040386D01*
X12091414Y-15068957D01*
X12105700Y-15126100D01*
X12105700Y-15197529D01*
X12091414Y-15254671D01*
X12077128Y-15283243D01*
X12062843Y-15297529D01*
X12034271Y-15311814D01*
X12005700Y-15311814D01*
X11977128Y-15297529D01*
X11962843Y-15283243D01*
X11948557Y-15254671D01*
X11934271Y-15197529D01*
X11934271Y-15126100D01*
X11948557Y-15068957D01*
X11962843Y-15040386D01*
X11977128Y-15026100D01*
X12005700Y-15011814D01*
X12234271Y-15283243D02*
X12248557Y-15297529D01*
X12234271Y-15311814D01*
X12219986Y-15297529D01*
X12234271Y-15283243D01*
X12234271Y-15311814D01*
X12434271Y-15011814D02*
X12462843Y-15011814D01*
X12491414Y-15026100D01*
X12505700Y-15040386D01*
X12519986Y-15068957D01*
X12534271Y-15126100D01*
X12534271Y-15197529D01*
X12519986Y-15254671D01*
X12505700Y-15283243D01*
X12491414Y-15297529D01*
X12462843Y-15311814D01*
X12434271Y-15311814D01*
X12405700Y-15297529D01*
X12391414Y-15283243D01*
X12377128Y-15254671D01*
X12362843Y-15197529D01*
X12362843Y-15126100D01*
X12377128Y-15068957D01*
X12391414Y-15040386D01*
X12405700Y-15026100D01*
X12434271Y-15011814D01*
X12648557Y-15040386D02*
X12662843Y-15026100D01*
X12691414Y-15011814D01*
X12762843Y-15011814D01*
X12791414Y-15026100D01*
X12805700Y-15040386D01*
X12819986Y-15068957D01*
X12819986Y-15097529D01*
X12805700Y-15140386D01*
X12634271Y-15311814D01*
X12819986Y-15311814D01*
X13077128Y-15111814D02*
X13077128Y-15311814D01*
X13005700Y-14997529D02*
X12934271Y-15211814D01*
X13119986Y-15211814D01*
X13219986Y-15011814D02*
X13219986Y-15068957D01*
X13334271Y-15011814D02*
X13334271Y-15068957D01*
X13777128Y-15426100D02*
X13762843Y-15411814D01*
X13734271Y-15368957D01*
X13719986Y-15340386D01*
X13705700Y-15297529D01*
X13691414Y-15226100D01*
X13691414Y-15168957D01*
X13705700Y-15097529D01*
X13719986Y-15054671D01*
X13734271Y-15026100D01*
X13762843Y-14983243D01*
X13777128Y-14968957D01*
X13862843Y-15011814D02*
X14048557Y-15011814D01*
X13948557Y-15126100D01*
X13991414Y-15126100D01*
X14019986Y-15140386D01*
X14034271Y-15154671D01*
X14048557Y-15183243D01*
X14048557Y-15254671D01*
X14034271Y-15283243D01*
X14019986Y-15297529D01*
X13991414Y-15311814D01*
X13905700Y-15311814D01*
X13877128Y-15297529D01*
X13862843Y-15283243D01*
X14405700Y-15311814D02*
X14405700Y-15011814D01*
X14534271Y-15311814D02*
X14534271Y-15154671D01*
X14519986Y-15126100D01*
X14491414Y-15111814D01*
X14448557Y-15111814D01*
X14419986Y-15126100D01*
X14405700Y-15140386D01*
X14719986Y-15311814D02*
X14691414Y-15297529D01*
X14677128Y-15283243D01*
X14662843Y-15254671D01*
X14662843Y-15168957D01*
X14677128Y-15140386D01*
X14691414Y-15126100D01*
X14719986Y-15111814D01*
X14762843Y-15111814D01*
X14791414Y-15126100D01*
X14805700Y-15140386D01*
X14819986Y-15168957D01*
X14819986Y-15254671D01*
X14805700Y-15283243D01*
X14791414Y-15297529D01*
X14762843Y-15311814D01*
X14719986Y-15311814D01*
X14991414Y-15311814D02*
X14962843Y-15297529D01*
X14948557Y-15268957D01*
X14948557Y-15011814D01*
X15219986Y-15297529D02*
X15191414Y-15311814D01*
X15134271Y-15311814D01*
X15105700Y-15297529D01*
X15091414Y-15268957D01*
X15091414Y-15154671D01*
X15105700Y-15126100D01*
X15134271Y-15111814D01*
X15191414Y-15111814D01*
X15219986Y-15126100D01*
X15234271Y-15154671D01*
X15234271Y-15183243D01*
X15091414Y-15211814D01*
X15348557Y-15297529D02*
X15377128Y-15311814D01*
X15434271Y-15311814D01*
X15462843Y-15297529D01*
X15477128Y-15268957D01*
X15477128Y-15254671D01*
X15462843Y-15226100D01*
X15434271Y-15211814D01*
X15391414Y-15211814D01*
X15362843Y-15197529D01*
X15348557Y-15168957D01*
X15348557Y-15154671D01*
X15362843Y-15126100D01*
X15391414Y-15111814D01*
X15434271Y-15111814D01*
X15462843Y-15126100D01*
X15577128Y-15426100D02*
X15591414Y-15411814D01*
X15619986Y-15368957D01*
X15634271Y-15340386D01*
X15648557Y-15297529D01*
X15662843Y-15226100D01*
X15662843Y-15168957D01*
X15648557Y-15097529D01*
X15634271Y-15054671D01*
X15619986Y-15026100D01*
X15591414Y-14983243D01*
X15577128Y-14968957D01*
X9052700Y-15534100D02*
X9052700Y-15610100D01*
X9014700Y-15572100D02*
X9090700Y-15572100D01*
X9434271Y-15407814D02*
X9462843Y-15407814D01*
X9491414Y-15422100D01*
X9505700Y-15436386D01*
X9519986Y-15464957D01*
X9534271Y-15522100D01*
X9534271Y-15593529D01*
X9519986Y-15650671D01*
X9505700Y-15679243D01*
X9491414Y-15693529D01*
X9462843Y-15707814D01*
X9434271Y-15707814D01*
X9405700Y-15693529D01*
X9391414Y-15679243D01*
X9377128Y-15650671D01*
X9362843Y-15593529D01*
X9362843Y-15522100D01*
X9377128Y-15464957D01*
X9391414Y-15436386D01*
X9405700Y-15422100D01*
X9434271Y-15407814D01*
X9662843Y-15679243D02*
X9677128Y-15693529D01*
X9662843Y-15707814D01*
X9648557Y-15693529D01*
X9662843Y-15679243D01*
X9662843Y-15707814D01*
X9777128Y-15407814D02*
X9977128Y-15407814D01*
X9848557Y-15707814D01*
X10219986Y-15407814D02*
X10162843Y-15407814D01*
X10134271Y-15422100D01*
X10119986Y-15436386D01*
X10091414Y-15479243D01*
X10077128Y-15536386D01*
X10077128Y-15650671D01*
X10091414Y-15679243D01*
X10105700Y-15693529D01*
X10134271Y-15707814D01*
X10191414Y-15707814D01*
X10219986Y-15693529D01*
X10234271Y-15679243D01*
X10248557Y-15650671D01*
X10248557Y-15579243D01*
X10234271Y-15550671D01*
X10219986Y-15536386D01*
X10191414Y-15522100D01*
X10134271Y-15522100D01*
X10105700Y-15536386D01*
X10091414Y-15550671D01*
X10077128Y-15579243D01*
X10377128Y-15707814D02*
X10377128Y-15507814D01*
X10377128Y-15536386D02*
X10391414Y-15522100D01*
X10419986Y-15507814D01*
X10462843Y-15507814D01*
X10491414Y-15522100D01*
X10505700Y-15550671D01*
X10505700Y-15707814D01*
X10505700Y-15550671D02*
X10519986Y-15522100D01*
X10548557Y-15507814D01*
X10591414Y-15507814D01*
X10619986Y-15522100D01*
X10634271Y-15550671D01*
X10634271Y-15707814D01*
X10777128Y-15707814D02*
X10777128Y-15507814D01*
X10777128Y-15536386D02*
X10791414Y-15522100D01*
X10819986Y-15507814D01*
X10862843Y-15507814D01*
X10891414Y-15522100D01*
X10905700Y-15550671D01*
X10905700Y-15707814D01*
X10905700Y-15550671D02*
X10919986Y-15522100D01*
X10948557Y-15507814D01*
X10991414Y-15507814D01*
X11019986Y-15522100D01*
X11034271Y-15550671D01*
X11034271Y-15707814D01*
X11619986Y-15393529D02*
X11362843Y-15779243D01*
X12005700Y-15407814D02*
X12034271Y-15407814D01*
X12062843Y-15422100D01*
X12077128Y-15436386D01*
X12091414Y-15464957D01*
X12105700Y-15522100D01*
X12105700Y-15593529D01*
X12091414Y-15650671D01*
X12077128Y-15679243D01*
X12062843Y-15693529D01*
X12034271Y-15707814D01*
X12005700Y-15707814D01*
X11977128Y-15693529D01*
X11962843Y-15679243D01*
X11948557Y-15650671D01*
X11934271Y-15593529D01*
X11934271Y-15522100D01*
X11948557Y-15464957D01*
X11962843Y-15436386D01*
X11977128Y-15422100D01*
X12005700Y-15407814D01*
X12234271Y-15679243D02*
X12248557Y-15693529D01*
X12234271Y-15707814D01*
X12219986Y-15693529D01*
X12234271Y-15679243D01*
X12234271Y-15707814D01*
X12434271Y-15407814D02*
X12462843Y-15407814D01*
X12491414Y-15422100D01*
X12505700Y-15436386D01*
X12519986Y-15464957D01*
X12534271Y-15522100D01*
X12534271Y-15593529D01*
X12519986Y-15650671D01*
X12505700Y-15679243D01*
X12491414Y-15693529D01*
X12462843Y-15707814D01*
X12434271Y-15707814D01*
X12405700Y-15693529D01*
X12391414Y-15679243D01*
X12377128Y-15650671D01*
X12362843Y-15593529D01*
X12362843Y-15522100D01*
X12377128Y-15464957D01*
X12391414Y-15436386D01*
X12405700Y-15422100D01*
X12434271Y-15407814D01*
X12634271Y-15407814D02*
X12819986Y-15407814D01*
X12719986Y-15522100D01*
X12762843Y-15522100D01*
X12791414Y-15536386D01*
X12805700Y-15550671D01*
X12819986Y-15579243D01*
X12819986Y-15650671D01*
X12805700Y-15679243D01*
X12791414Y-15693529D01*
X12762843Y-15707814D01*
X12677128Y-15707814D01*
X12648557Y-15693529D01*
X12634271Y-15679243D01*
X13005700Y-15407814D02*
X13034271Y-15407814D01*
X13062843Y-15422100D01*
X13077128Y-15436386D01*
X13091414Y-15464957D01*
X13105700Y-15522100D01*
X13105700Y-15593529D01*
X13091414Y-15650671D01*
X13077128Y-15679243D01*
X13062843Y-15693529D01*
X13034271Y-15707814D01*
X13005700Y-15707814D01*
X12977128Y-15693529D01*
X12962843Y-15679243D01*
X12948557Y-15650671D01*
X12934271Y-15593529D01*
X12934271Y-15522100D01*
X12948557Y-15464957D01*
X12962843Y-15436386D01*
X12977128Y-15422100D01*
X13005700Y-15407814D01*
X13219986Y-15407814D02*
X13219986Y-15464957D01*
X13334271Y-15407814D02*
X13334271Y-15464957D01*
X13777128Y-15822100D02*
X13762843Y-15807814D01*
X13734271Y-15764957D01*
X13719986Y-15736386D01*
X13705700Y-15693529D01*
X13691414Y-15622100D01*
X13691414Y-15564957D01*
X13705700Y-15493529D01*
X13719986Y-15450671D01*
X13734271Y-15422100D01*
X13762843Y-15379243D01*
X13777128Y-15364957D01*
X14048557Y-15707814D02*
X13877128Y-15707814D01*
X13962843Y-15707814D02*
X13962843Y-15407814D01*
X13934271Y-15450671D01*
X13905700Y-15479243D01*
X13877128Y-15493529D01*
X14305700Y-15407814D02*
X14248557Y-15407814D01*
X14219986Y-15422100D01*
X14205700Y-15436386D01*
X14177128Y-15479243D01*
X14162843Y-15536386D01*
X14162843Y-15650671D01*
X14177128Y-15679243D01*
X14191414Y-15693529D01*
X14219986Y-15707814D01*
X14277128Y-15707814D01*
X14305700Y-15693529D01*
X14319986Y-15679243D01*
X14334271Y-15650671D01*
X14334271Y-15579243D01*
X14319986Y-15550671D01*
X14305700Y-15536386D01*
X14277128Y-15522100D01*
X14219986Y-15522100D01*
X14191414Y-15536386D01*
X14177128Y-15550671D01*
X14162843Y-15579243D01*
X14691414Y-15707814D02*
X14691414Y-15407814D01*
X14819986Y-15707814D02*
X14819986Y-15550671D01*
X14805700Y-15522100D01*
X14777128Y-15507814D01*
X14734271Y-15507814D01*
X14705700Y-15522100D01*
X14691414Y-15536386D01*
X15005700Y-15707814D02*
X14977128Y-15693529D01*
X14962843Y-15679243D01*
X14948557Y-15650671D01*
X14948557Y-15564957D01*
X14962843Y-15536386D01*
X14977128Y-15522100D01*
X15005700Y-15507814D01*
X15048557Y-15507814D01*
X15077128Y-15522100D01*
X15091414Y-15536386D01*
X15105700Y-15564957D01*
X15105700Y-15650671D01*
X15091414Y-15679243D01*
X15077128Y-15693529D01*
X15048557Y-15707814D01*
X15005700Y-15707814D01*
X15277128Y-15707814D02*
X15248557Y-15693529D01*
X15234271Y-15664957D01*
X15234271Y-15407814D01*
X15505700Y-15693529D02*
X15477128Y-15707814D01*
X15419986Y-15707814D01*
X15391414Y-15693529D01*
X15377128Y-15664957D01*
X15377128Y-15550671D01*
X15391414Y-15522100D01*
X15419986Y-15507814D01*
X15477128Y-15507814D01*
X15505700Y-15522100D01*
X15519986Y-15550671D01*
X15519986Y-15579243D01*
X15377128Y-15607814D01*
X15634271Y-15693529D02*
X15662843Y-15707814D01*
X15719986Y-15707814D01*
X15748557Y-15693529D01*
X15762843Y-15664957D01*
X15762843Y-15650671D01*
X15748557Y-15622100D01*
X15719986Y-15607814D01*
X15677128Y-15607814D01*
X15648557Y-15593529D01*
X15634271Y-15564957D01*
X15634271Y-15550671D01*
X15648557Y-15522100D01*
X15677128Y-15507814D01*
X15719986Y-15507814D01*
X15748557Y-15522100D01*
X15862843Y-15822100D02*
X15877128Y-15807814D01*
X15905700Y-15764957D01*
X15919986Y-15736386D01*
X15934271Y-15693529D01*
X15948557Y-15622100D01*
X15948557Y-15564957D01*
X15934271Y-15493529D01*
X15919986Y-15450671D01*
X15905700Y-15422100D01*
X15877128Y-15379243D01*
X15862843Y-15364957D01*
X9078984Y-15996385D02*
X9078984Y-15939816D01*
X9022415Y-15939816D01*
X9022415Y-15996385D01*
X9078984Y-15996385D01*
X9434271Y-15803814D02*
X9462843Y-15803814D01*
X9491414Y-15818100D01*
X9505700Y-15832386D01*
X9519986Y-15860957D01*
X9534271Y-15918100D01*
X9534271Y-15989529D01*
X9519986Y-16046671D01*
X9505700Y-16075243D01*
X9491414Y-16089529D01*
X9462843Y-16103814D01*
X9434271Y-16103814D01*
X9405700Y-16089529D01*
X9391414Y-16075243D01*
X9377128Y-16046671D01*
X9362843Y-15989529D01*
X9362843Y-15918100D01*
X9377128Y-15860957D01*
X9391414Y-15832386D01*
X9405700Y-15818100D01*
X9434271Y-15803814D01*
X9662843Y-16075243D02*
X9677128Y-16089529D01*
X9662843Y-16103814D01*
X9648557Y-16089529D01*
X9662843Y-16075243D01*
X9662843Y-16103814D01*
X9848557Y-15932386D02*
X9819986Y-15918100D01*
X9805700Y-15903814D01*
X9791414Y-15875243D01*
X9791414Y-15860957D01*
X9805700Y-15832386D01*
X9819986Y-15818100D01*
X9848557Y-15803814D01*
X9905700Y-15803814D01*
X9934271Y-15818100D01*
X9948557Y-15832386D01*
X9962843Y-15860957D01*
X9962843Y-15875243D01*
X9948557Y-15903814D01*
X9934271Y-15918100D01*
X9905700Y-15932386D01*
X9848557Y-15932386D01*
X9819986Y-15946671D01*
X9805700Y-15960957D01*
X9791414Y-15989529D01*
X9791414Y-16046671D01*
X9805700Y-16075243D01*
X9819986Y-16089529D01*
X9848557Y-16103814D01*
X9905700Y-16103814D01*
X9934271Y-16089529D01*
X9948557Y-16075243D01*
X9962843Y-16046671D01*
X9962843Y-15989529D01*
X9948557Y-15960957D01*
X9934271Y-15946671D01*
X9905700Y-15932386D01*
X10148557Y-15803814D02*
X10177128Y-15803814D01*
X10205700Y-15818100D01*
X10219986Y-15832386D01*
X10234271Y-15860957D01*
X10248557Y-15918100D01*
X10248557Y-15989529D01*
X10234271Y-16046671D01*
X10219986Y-16075243D01*
X10205700Y-16089529D01*
X10177128Y-16103814D01*
X10148557Y-16103814D01*
X10119986Y-16089529D01*
X10105700Y-16075243D01*
X10091414Y-16046671D01*
X10077128Y-15989529D01*
X10077128Y-15918100D01*
X10091414Y-15860957D01*
X10105700Y-15832386D01*
X10119986Y-15818100D01*
X10148557Y-15803814D01*
X10377128Y-16103814D02*
X10377128Y-15903814D01*
X10377128Y-15932386D02*
X10391414Y-15918100D01*
X10419986Y-15903814D01*
X10462843Y-15903814D01*
X10491414Y-15918100D01*
X10505700Y-15946671D01*
X10505700Y-16103814D01*
X10505700Y-15946671D02*
X10519986Y-15918100D01*
X10548557Y-15903814D01*
X10591414Y-15903814D01*
X10619986Y-15918100D01*
X10634271Y-15946671D01*
X10634271Y-16103814D01*
X10777128Y-16103814D02*
X10777128Y-15903814D01*
X10777128Y-15932386D02*
X10791414Y-15918100D01*
X10819986Y-15903814D01*
X10862843Y-15903814D01*
X10891414Y-15918100D01*
X10905700Y-15946671D01*
X10905700Y-16103814D01*
X10905700Y-15946671D02*
X10919986Y-15918100D01*
X10948557Y-15903814D01*
X10991414Y-15903814D01*
X11019986Y-15918100D01*
X11034271Y-15946671D01*
X11034271Y-16103814D01*
X11619986Y-15789529D02*
X11362843Y-16175243D01*
X12005700Y-15803814D02*
X12034271Y-15803814D01*
X12062843Y-15818100D01*
X12077128Y-15832386D01*
X12091414Y-15860957D01*
X12105700Y-15918100D01*
X12105700Y-15989529D01*
X12091414Y-16046671D01*
X12077128Y-16075243D01*
X12062843Y-16089529D01*
X12034271Y-16103814D01*
X12005700Y-16103814D01*
X11977128Y-16089529D01*
X11962843Y-16075243D01*
X11948557Y-16046671D01*
X11934271Y-15989529D01*
X11934271Y-15918100D01*
X11948557Y-15860957D01*
X11962843Y-15832386D01*
X11977128Y-15818100D01*
X12005700Y-15803814D01*
X12234271Y-16075243D02*
X12248557Y-16089529D01*
X12234271Y-16103814D01*
X12219986Y-16089529D01*
X12234271Y-16075243D01*
X12234271Y-16103814D01*
X12434271Y-15803814D02*
X12462843Y-15803814D01*
X12491414Y-15818100D01*
X12505700Y-15832386D01*
X12519986Y-15860957D01*
X12534271Y-15918100D01*
X12534271Y-15989529D01*
X12519986Y-16046671D01*
X12505700Y-16075243D01*
X12491414Y-16089529D01*
X12462843Y-16103814D01*
X12434271Y-16103814D01*
X12405700Y-16089529D01*
X12391414Y-16075243D01*
X12377128Y-16046671D01*
X12362843Y-15989529D01*
X12362843Y-15918100D01*
X12377128Y-15860957D01*
X12391414Y-15832386D01*
X12405700Y-15818100D01*
X12434271Y-15803814D01*
X12634271Y-15803814D02*
X12819986Y-15803814D01*
X12719986Y-15918100D01*
X12762843Y-15918100D01*
X12791414Y-15932386D01*
X12805700Y-15946671D01*
X12819986Y-15975243D01*
X12819986Y-16046671D01*
X12805700Y-16075243D01*
X12791414Y-16089529D01*
X12762843Y-16103814D01*
X12677128Y-16103814D01*
X12648557Y-16089529D01*
X12634271Y-16075243D01*
X13105700Y-16103814D02*
X12934271Y-16103814D01*
X13019986Y-16103814D02*
X13019986Y-15803814D01*
X12991414Y-15846671D01*
X12962843Y-15875243D01*
X12934271Y-15889529D01*
X13219986Y-15803814D02*
X13219986Y-15860957D01*
X13334271Y-15803814D02*
X13334271Y-15860957D01*
X13777128Y-16218100D02*
X13762843Y-16203814D01*
X13734271Y-16160957D01*
X13719986Y-16132386D01*
X13705700Y-16089529D01*
X13691414Y-16018100D01*
X13691414Y-15960957D01*
X13705700Y-15889529D01*
X13719986Y-15846671D01*
X13734271Y-15818100D01*
X13762843Y-15775243D01*
X13777128Y-15760957D01*
X14048557Y-16103814D02*
X13877128Y-16103814D01*
X13962843Y-16103814D02*
X13962843Y-15803814D01*
X13934271Y-15846671D01*
X13905700Y-15875243D01*
X13877128Y-15889529D01*
X14305700Y-15903814D02*
X14305700Y-16103814D01*
X14234271Y-15789529D02*
X14162843Y-16003814D01*
X14348557Y-16003814D01*
X14691414Y-16103814D02*
X14691414Y-15803814D01*
X14819986Y-16103814D02*
X14819986Y-15946671D01*
X14805700Y-15918100D01*
X14777128Y-15903814D01*
X14734271Y-15903814D01*
X14705700Y-15918100D01*
X14691414Y-15932386D01*
X15005700Y-16103814D02*
X14977128Y-16089529D01*
X14962843Y-16075243D01*
X14948557Y-16046671D01*
X14948557Y-15960957D01*
X14962843Y-15932386D01*
X14977128Y-15918100D01*
X15005700Y-15903814D01*
X15048557Y-15903814D01*
X15077128Y-15918100D01*
X15091414Y-15932386D01*
X15105700Y-15960957D01*
X15105700Y-16046671D01*
X15091414Y-16075243D01*
X15077128Y-16089529D01*
X15048557Y-16103814D01*
X15005700Y-16103814D01*
X15277128Y-16103814D02*
X15248557Y-16089529D01*
X15234271Y-16060957D01*
X15234271Y-15803814D01*
X15505700Y-16089529D02*
X15477128Y-16103814D01*
X15419986Y-16103814D01*
X15391414Y-16089529D01*
X15377128Y-16060957D01*
X15377128Y-15946671D01*
X15391414Y-15918100D01*
X15419986Y-15903814D01*
X15477128Y-15903814D01*
X15505700Y-15918100D01*
X15519986Y-15946671D01*
X15519986Y-15975243D01*
X15377128Y-16003814D01*
X15634271Y-16089529D02*
X15662843Y-16103814D01*
X15719986Y-16103814D01*
X15748557Y-16089529D01*
X15762843Y-16060957D01*
X15762843Y-16046671D01*
X15748557Y-16018100D01*
X15719986Y-16003814D01*
X15677128Y-16003814D01*
X15648557Y-15989529D01*
X15634271Y-15960957D01*
X15634271Y-15946671D01*
X15648557Y-15918100D01*
X15677128Y-15903814D01*
X15719986Y-15903814D01*
X15748557Y-15918100D01*
X15862843Y-16218100D02*
X15877128Y-16203814D01*
X15905700Y-16160957D01*
X15919986Y-16132386D01*
X15934271Y-16089529D01*
X15948557Y-16018100D01*
X15948557Y-15960957D01*
X15934271Y-15889529D01*
X15919986Y-15846671D01*
X15905700Y-15818100D01*
X15877128Y-15775243D01*
X15862843Y-15760957D01*
X9050200Y-16404600D02*
X9090700Y-16364100D01*
X9050200Y-16323600D01*
X9009700Y-16364100D01*
X9050200Y-16404600D01*
X9434271Y-16199814D02*
X9462843Y-16199814D01*
X9491414Y-16214100D01*
X9505700Y-16228386D01*
X9519986Y-16256957D01*
X9534271Y-16314100D01*
X9534271Y-16385529D01*
X9519986Y-16442671D01*
X9505700Y-16471243D01*
X9491414Y-16485529D01*
X9462843Y-16499814D01*
X9434271Y-16499814D01*
X9405700Y-16485529D01*
X9391414Y-16471243D01*
X9377128Y-16442671D01*
X9362843Y-16385529D01*
X9362843Y-16314100D01*
X9377128Y-16256957D01*
X9391414Y-16228386D01*
X9405700Y-16214100D01*
X9434271Y-16199814D01*
X9662843Y-16471243D02*
X9677128Y-16485529D01*
X9662843Y-16499814D01*
X9648557Y-16485529D01*
X9662843Y-16471243D01*
X9662843Y-16499814D01*
X9848557Y-16328386D02*
X9819986Y-16314100D01*
X9805700Y-16299814D01*
X9791414Y-16271243D01*
X9791414Y-16256957D01*
X9805700Y-16228386D01*
X9819986Y-16214100D01*
X9848557Y-16199814D01*
X9905700Y-16199814D01*
X9934271Y-16214100D01*
X9948557Y-16228386D01*
X9962843Y-16256957D01*
X9962843Y-16271243D01*
X9948557Y-16299814D01*
X9934271Y-16314100D01*
X9905700Y-16328386D01*
X9848557Y-16328386D01*
X9819986Y-16342671D01*
X9805700Y-16356957D01*
X9791414Y-16385529D01*
X9791414Y-16442671D01*
X9805700Y-16471243D01*
X9819986Y-16485529D01*
X9848557Y-16499814D01*
X9905700Y-16499814D01*
X9934271Y-16485529D01*
X9948557Y-16471243D01*
X9962843Y-16442671D01*
X9962843Y-16385529D01*
X9948557Y-16356957D01*
X9934271Y-16342671D01*
X9905700Y-16328386D01*
X10248557Y-16499814D02*
X10077128Y-16499814D01*
X10162843Y-16499814D02*
X10162843Y-16199814D01*
X10134271Y-16242671D01*
X10105700Y-16271243D01*
X10077128Y-16285529D01*
X10377128Y-16499814D02*
X10377128Y-16299814D01*
X10377128Y-16328386D02*
X10391414Y-16314100D01*
X10419986Y-16299814D01*
X10462843Y-16299814D01*
X10491414Y-16314100D01*
X10505700Y-16342671D01*
X10505700Y-16499814D01*
X10505700Y-16342671D02*
X10519986Y-16314100D01*
X10548557Y-16299814D01*
X10591414Y-16299814D01*
X10619986Y-16314100D01*
X10634271Y-16342671D01*
X10634271Y-16499814D01*
X10777128Y-16499814D02*
X10777128Y-16299814D01*
X10777128Y-16328386D02*
X10791414Y-16314100D01*
X10819986Y-16299814D01*
X10862843Y-16299814D01*
X10891414Y-16314100D01*
X10905700Y-16342671D01*
X10905700Y-16499814D01*
X10905700Y-16342671D02*
X10919986Y-16314100D01*
X10948557Y-16299814D01*
X10991414Y-16299814D01*
X11019986Y-16314100D01*
X11034271Y-16342671D01*
X11034271Y-16499814D01*
X11619986Y-16185529D02*
X11362843Y-16571243D01*
X12005700Y-16199814D02*
X12034271Y-16199814D01*
X12062843Y-16214100D01*
X12077128Y-16228386D01*
X12091414Y-16256957D01*
X12105700Y-16314100D01*
X12105700Y-16385529D01*
X12091414Y-16442671D01*
X12077128Y-16471243D01*
X12062843Y-16485529D01*
X12034271Y-16499814D01*
X12005700Y-16499814D01*
X11977128Y-16485529D01*
X11962843Y-16471243D01*
X11948557Y-16442671D01*
X11934271Y-16385529D01*
X11934271Y-16314100D01*
X11948557Y-16256957D01*
X11962843Y-16228386D01*
X11977128Y-16214100D01*
X12005700Y-16199814D01*
X12234271Y-16471243D02*
X12248557Y-16485529D01*
X12234271Y-16499814D01*
X12219986Y-16485529D01*
X12234271Y-16471243D01*
X12234271Y-16499814D01*
X12434271Y-16199814D02*
X12462843Y-16199814D01*
X12491414Y-16214100D01*
X12505700Y-16228386D01*
X12519986Y-16256957D01*
X12534271Y-16314100D01*
X12534271Y-16385529D01*
X12519986Y-16442671D01*
X12505700Y-16471243D01*
X12491414Y-16485529D01*
X12462843Y-16499814D01*
X12434271Y-16499814D01*
X12405700Y-16485529D01*
X12391414Y-16471243D01*
X12377128Y-16442671D01*
X12362843Y-16385529D01*
X12362843Y-16314100D01*
X12377128Y-16256957D01*
X12391414Y-16228386D01*
X12405700Y-16214100D01*
X12434271Y-16199814D01*
X12634271Y-16199814D02*
X12819986Y-16199814D01*
X12719986Y-16314100D01*
X12762843Y-16314100D01*
X12791414Y-16328386D01*
X12805700Y-16342671D01*
X12819986Y-16371243D01*
X12819986Y-16442671D01*
X12805700Y-16471243D01*
X12791414Y-16485529D01*
X12762843Y-16499814D01*
X12677128Y-16499814D01*
X12648557Y-16485529D01*
X12634271Y-16471243D01*
X12934271Y-16228386D02*
X12948557Y-16214100D01*
X12977128Y-16199814D01*
X13048557Y-16199814D01*
X13077128Y-16214100D01*
X13091414Y-16228386D01*
X13105700Y-16256957D01*
X13105700Y-16285529D01*
X13091414Y-16328386D01*
X12919986Y-16499814D01*
X13105700Y-16499814D01*
X13219986Y-16199814D02*
X13219986Y-16256957D01*
X13334271Y-16199814D02*
X13334271Y-16256957D01*
X13777128Y-16614100D02*
X13762843Y-16599814D01*
X13734271Y-16556957D01*
X13719986Y-16528386D01*
X13705700Y-16485529D01*
X13691414Y-16414100D01*
X13691414Y-16356957D01*
X13705700Y-16285529D01*
X13719986Y-16242671D01*
X13734271Y-16214100D01*
X13762843Y-16171243D01*
X13777128Y-16156957D01*
X14048557Y-16499814D02*
X13877128Y-16499814D01*
X13962843Y-16499814D02*
X13962843Y-16199814D01*
X13934271Y-16242671D01*
X13905700Y-16271243D01*
X13877128Y-16285529D01*
X14305700Y-16299814D02*
X14305700Y-16499814D01*
X14234271Y-16185529D02*
X14162843Y-16399814D01*
X14348557Y-16399814D01*
X14691414Y-16499814D02*
X14691414Y-16199814D01*
X14819986Y-16499814D02*
X14819986Y-16342671D01*
X14805700Y-16314100D01*
X14777128Y-16299814D01*
X14734271Y-16299814D01*
X14705700Y-16314100D01*
X14691414Y-16328386D01*
X15005700Y-16499814D02*
X14977128Y-16485529D01*
X14962843Y-16471243D01*
X14948557Y-16442671D01*
X14948557Y-16356957D01*
X14962843Y-16328386D01*
X14977128Y-16314100D01*
X15005700Y-16299814D01*
X15048557Y-16299814D01*
X15077128Y-16314100D01*
X15091414Y-16328386D01*
X15105700Y-16356957D01*
X15105700Y-16442671D01*
X15091414Y-16471243D01*
X15077128Y-16485529D01*
X15048557Y-16499814D01*
X15005700Y-16499814D01*
X15277128Y-16499814D02*
X15248557Y-16485529D01*
X15234271Y-16456957D01*
X15234271Y-16199814D01*
X15505700Y-16485529D02*
X15477128Y-16499814D01*
X15419986Y-16499814D01*
X15391414Y-16485529D01*
X15377128Y-16456957D01*
X15377128Y-16342671D01*
X15391414Y-16314100D01*
X15419986Y-16299814D01*
X15477128Y-16299814D01*
X15505700Y-16314100D01*
X15519986Y-16342671D01*
X15519986Y-16371243D01*
X15377128Y-16399814D01*
X15634271Y-16485529D02*
X15662843Y-16499814D01*
X15719986Y-16499814D01*
X15748557Y-16485529D01*
X15762843Y-16456957D01*
X15762843Y-16442671D01*
X15748557Y-16414100D01*
X15719986Y-16399814D01*
X15677128Y-16399814D01*
X15648557Y-16385529D01*
X15634271Y-16356957D01*
X15634271Y-16342671D01*
X15648557Y-16314100D01*
X15677128Y-16299814D01*
X15719986Y-16299814D01*
X15748557Y-16314100D01*
X15862843Y-16614100D02*
X15877128Y-16599814D01*
X15905700Y-16556957D01*
X15919986Y-16528386D01*
X15934271Y-16485529D01*
X15948557Y-16414100D01*
X15948557Y-16356957D01*
X15934271Y-16285529D01*
X15919986Y-16242671D01*
X15905700Y-16214100D01*
X15877128Y-16171243D01*
X15862843Y-16156957D01*
X9000700Y-16715100D02*
X9090700Y-16805100D01*
X9090700Y-16715100D02*
X9000700Y-16805100D01*
X9090700Y-16760100D02*
G75*
G03X9090700Y-16760100I-45000J0D01*
G01*
X9434271Y-16595814D02*
X9462843Y-16595814D01*
X9491414Y-16610100D01*
X9505700Y-16624386D01*
X9519986Y-16652957D01*
X9534271Y-16710100D01*
X9534271Y-16781529D01*
X9519986Y-16838672D01*
X9505700Y-16867243D01*
X9491414Y-16881529D01*
X9462843Y-16895814D01*
X9434271Y-16895814D01*
X9405700Y-16881529D01*
X9391414Y-16867243D01*
X9377128Y-16838672D01*
X9362843Y-16781529D01*
X9362843Y-16710100D01*
X9377128Y-16652957D01*
X9391414Y-16624386D01*
X9405700Y-16610100D01*
X9434271Y-16595814D01*
X9662843Y-16867243D02*
X9677128Y-16881529D01*
X9662843Y-16895814D01*
X9648557Y-16881529D01*
X9662843Y-16867243D01*
X9662843Y-16895814D01*
X9819986Y-16895814D02*
X9877128Y-16895814D01*
X9905700Y-16881529D01*
X9919986Y-16867243D01*
X9948557Y-16824386D01*
X9962843Y-16767243D01*
X9962843Y-16652957D01*
X9948557Y-16624386D01*
X9934271Y-16610100D01*
X9905700Y-16595814D01*
X9848557Y-16595814D01*
X9819986Y-16610100D01*
X9805700Y-16624386D01*
X9791414Y-16652957D01*
X9791414Y-16724386D01*
X9805700Y-16752957D01*
X9819986Y-16767243D01*
X9848557Y-16781529D01*
X9905700Y-16781529D01*
X9934271Y-16767243D01*
X9948557Y-16752957D01*
X9962843Y-16724386D01*
X10148557Y-16595814D02*
X10177128Y-16595814D01*
X10205700Y-16610100D01*
X10219986Y-16624386D01*
X10234271Y-16652957D01*
X10248557Y-16710100D01*
X10248557Y-16781529D01*
X10234271Y-16838672D01*
X10219986Y-16867243D01*
X10205700Y-16881529D01*
X10177128Y-16895814D01*
X10148557Y-16895814D01*
X10119986Y-16881529D01*
X10105700Y-16867243D01*
X10091414Y-16838672D01*
X10077128Y-16781529D01*
X10077128Y-16710100D01*
X10091414Y-16652957D01*
X10105700Y-16624386D01*
X10119986Y-16610100D01*
X10148557Y-16595814D01*
X10377128Y-16895814D02*
X10377128Y-16695814D01*
X10377128Y-16724386D02*
X10391414Y-16710100D01*
X10419986Y-16695814D01*
X10462843Y-16695814D01*
X10491414Y-16710100D01*
X10505700Y-16738671D01*
X10505700Y-16895814D01*
X10505700Y-16738671D02*
X10519986Y-16710100D01*
X10548557Y-16695814D01*
X10591414Y-16695814D01*
X10619986Y-16710100D01*
X10634271Y-16738671D01*
X10634271Y-16895814D01*
X10777128Y-16895814D02*
X10777128Y-16695814D01*
X10777128Y-16724386D02*
X10791414Y-16710100D01*
X10819986Y-16695814D01*
X10862843Y-16695814D01*
X10891414Y-16710100D01*
X10905700Y-16738671D01*
X10905700Y-16895814D01*
X10905700Y-16738671D02*
X10919986Y-16710100D01*
X10948557Y-16695814D01*
X10991414Y-16695814D01*
X11019986Y-16710100D01*
X11034271Y-16738671D01*
X11034271Y-16895814D01*
X11619986Y-16581529D02*
X11362843Y-16967243D01*
X12005700Y-16595814D02*
X12034271Y-16595814D01*
X12062843Y-16610100D01*
X12077128Y-16624386D01*
X12091414Y-16652957D01*
X12105700Y-16710100D01*
X12105700Y-16781529D01*
X12091414Y-16838672D01*
X12077128Y-16867243D01*
X12062843Y-16881529D01*
X12034271Y-16895814D01*
X12005700Y-16895814D01*
X11977128Y-16881529D01*
X11962843Y-16867243D01*
X11948557Y-16838672D01*
X11934271Y-16781529D01*
X11934271Y-16710100D01*
X11948557Y-16652957D01*
X11962843Y-16624386D01*
X11977128Y-16610100D01*
X12005700Y-16595814D01*
X12234271Y-16867243D02*
X12248557Y-16881529D01*
X12234271Y-16895814D01*
X12219986Y-16881529D01*
X12234271Y-16867243D01*
X12234271Y-16895814D01*
X12434271Y-16595814D02*
X12462843Y-16595814D01*
X12491414Y-16610100D01*
X12505700Y-16624386D01*
X12519986Y-16652957D01*
X12534271Y-16710100D01*
X12534271Y-16781529D01*
X12519986Y-16838672D01*
X12505700Y-16867243D01*
X12491414Y-16881529D01*
X12462843Y-16895814D01*
X12434271Y-16895814D01*
X12405700Y-16881529D01*
X12391414Y-16867243D01*
X12377128Y-16838672D01*
X12362843Y-16781529D01*
X12362843Y-16710100D01*
X12377128Y-16652957D01*
X12391414Y-16624386D01*
X12405700Y-16610100D01*
X12434271Y-16595814D01*
X12634271Y-16595814D02*
X12819986Y-16595814D01*
X12719986Y-16710100D01*
X12762843Y-16710100D01*
X12791414Y-16724386D01*
X12805700Y-16738671D01*
X12819986Y-16767243D01*
X12819986Y-16838672D01*
X12805700Y-16867243D01*
X12791414Y-16881529D01*
X12762843Y-16895814D01*
X12677128Y-16895814D01*
X12648557Y-16881529D01*
X12634271Y-16867243D01*
X13091414Y-16595814D02*
X12948557Y-16595814D01*
X12934271Y-16738671D01*
X12948557Y-16724386D01*
X12977128Y-16710100D01*
X13048557Y-16710100D01*
X13077128Y-16724386D01*
X13091414Y-16738671D01*
X13105700Y-16767243D01*
X13105700Y-16838672D01*
X13091414Y-16867243D01*
X13077128Y-16881529D01*
X13048557Y-16895814D01*
X12977128Y-16895814D01*
X12948557Y-16881529D01*
X12934271Y-16867243D01*
X13219986Y-16595814D02*
X13219986Y-16652957D01*
X13334271Y-16595814D02*
X13334271Y-16652957D01*
X13777128Y-17010100D02*
X13762843Y-16995814D01*
X13734271Y-16952957D01*
X13719986Y-16924386D01*
X13705700Y-16881529D01*
X13691414Y-16810100D01*
X13691414Y-16752957D01*
X13705700Y-16681529D01*
X13719986Y-16638671D01*
X13734271Y-16610100D01*
X13762843Y-16567243D01*
X13777128Y-16552957D01*
X13934271Y-16724386D02*
X13905700Y-16710100D01*
X13891414Y-16695814D01*
X13877128Y-16667243D01*
X13877128Y-16652957D01*
X13891414Y-16624386D01*
X13905700Y-16610100D01*
X13934271Y-16595814D01*
X13991414Y-16595814D01*
X14019986Y-16610100D01*
X14034271Y-16624386D01*
X14048557Y-16652957D01*
X14048557Y-16667243D01*
X14034271Y-16695814D01*
X14019986Y-16710100D01*
X13991414Y-16724386D01*
X13934271Y-16724386D01*
X13905700Y-16738671D01*
X13891414Y-16752957D01*
X13877128Y-16781529D01*
X13877128Y-16838672D01*
X13891414Y-16867243D01*
X13905700Y-16881529D01*
X13934271Y-16895814D01*
X13991414Y-16895814D01*
X14019986Y-16881529D01*
X14034271Y-16867243D01*
X14048557Y-16838672D01*
X14048557Y-16781529D01*
X14034271Y-16752957D01*
X14019986Y-16738671D01*
X13991414Y-16724386D01*
X14405700Y-16895814D02*
X14405700Y-16595814D01*
X14534271Y-16895814D02*
X14534271Y-16738671D01*
X14519986Y-16710100D01*
X14491414Y-16695814D01*
X14448557Y-16695814D01*
X14419986Y-16710100D01*
X14405700Y-16724386D01*
X14719986Y-16895814D02*
X14691414Y-16881529D01*
X14677128Y-16867243D01*
X14662843Y-16838672D01*
X14662843Y-16752957D01*
X14677128Y-16724386D01*
X14691414Y-16710100D01*
X14719986Y-16695814D01*
X14762843Y-16695814D01*
X14791414Y-16710100D01*
X14805700Y-16724386D01*
X14819986Y-16752957D01*
X14819986Y-16838672D01*
X14805700Y-16867243D01*
X14791414Y-16881529D01*
X14762843Y-16895814D01*
X14719986Y-16895814D01*
X14991414Y-16895814D02*
X14962843Y-16881529D01*
X14948557Y-16852957D01*
X14948557Y-16595814D01*
X15219986Y-16881529D02*
X15191414Y-16895814D01*
X15134271Y-16895814D01*
X15105700Y-16881529D01*
X15091414Y-16852957D01*
X15091414Y-16738671D01*
X15105700Y-16710100D01*
X15134271Y-16695814D01*
X15191414Y-16695814D01*
X15219986Y-16710100D01*
X15234271Y-16738671D01*
X15234271Y-16767243D01*
X15091414Y-16795814D01*
X15348557Y-16881529D02*
X15377128Y-16895814D01*
X15434271Y-16895814D01*
X15462843Y-16881529D01*
X15477128Y-16852957D01*
X15477128Y-16838672D01*
X15462843Y-16810100D01*
X15434271Y-16795814D01*
X15391414Y-16795814D01*
X15362843Y-16781529D01*
X15348557Y-16752957D01*
X15348557Y-16738671D01*
X15362843Y-16710100D01*
X15391414Y-16695814D01*
X15434271Y-16695814D01*
X15462843Y-16710100D01*
X15577128Y-17010100D02*
X15591414Y-16995814D01*
X15619986Y-16952957D01*
X15634271Y-16924386D01*
X15648557Y-16881529D01*
X15662843Y-16810100D01*
X15662843Y-16752957D01*
X15648557Y-16681529D01*
X15634271Y-16638671D01*
X15619986Y-16610100D01*
X15591414Y-16567243D01*
X15577128Y-16552957D01*
X8990700Y-17106100D02*
X9090700Y-17206100D01*
X9090700Y-17106100D02*
X8990700Y-17206100D01*
X9040700Y-17106100D02*
X9040700Y-17206100D01*
X8990700Y-17156100D02*
X9090700Y-17156100D01*
X9534271Y-17291814D02*
X9362843Y-17291814D01*
X9448557Y-17291814D02*
X9448557Y-16991814D01*
X9419986Y-17034672D01*
X9391414Y-17063243D01*
X9362843Y-17077529D01*
X9662843Y-17263243D02*
X9677128Y-17277529D01*
X9662843Y-17291814D01*
X9648557Y-17277529D01*
X9662843Y-17263243D01*
X9662843Y-17291814D01*
X9862843Y-16991814D02*
X9891414Y-16991814D01*
X9919986Y-17006100D01*
X9934271Y-17020386D01*
X9948557Y-17048957D01*
X9962843Y-17106100D01*
X9962843Y-17177529D01*
X9948557Y-17234672D01*
X9934271Y-17263243D01*
X9919986Y-17277529D01*
X9891414Y-17291814D01*
X9862843Y-17291814D01*
X9834271Y-17277529D01*
X9819986Y-17263243D01*
X9805700Y-17234672D01*
X9791414Y-17177529D01*
X9791414Y-17106100D01*
X9805700Y-17048957D01*
X9819986Y-17020386D01*
X9834271Y-17006100D01*
X9862843Y-16991814D01*
X10148557Y-16991814D02*
X10177128Y-16991814D01*
X10205700Y-17006100D01*
X10219986Y-17020386D01*
X10234271Y-17048957D01*
X10248557Y-17106100D01*
X10248557Y-17177529D01*
X10234271Y-17234672D01*
X10219986Y-17263243D01*
X10205700Y-17277529D01*
X10177128Y-17291814D01*
X10148557Y-17291814D01*
X10119986Y-17277529D01*
X10105700Y-17263243D01*
X10091414Y-17234672D01*
X10077128Y-17177529D01*
X10077128Y-17106100D01*
X10091414Y-17048957D01*
X10105700Y-17020386D01*
X10119986Y-17006100D01*
X10148557Y-16991814D01*
X10377128Y-17291814D02*
X10377128Y-17091814D01*
X10377128Y-17120386D02*
X10391414Y-17106100D01*
X10419986Y-17091814D01*
X10462843Y-17091814D01*
X10491414Y-17106100D01*
X10505700Y-17134672D01*
X10505700Y-17291814D01*
X10505700Y-17134672D02*
X10519986Y-17106100D01*
X10548557Y-17091814D01*
X10591414Y-17091814D01*
X10619986Y-17106100D01*
X10634271Y-17134672D01*
X10634271Y-17291814D01*
X10777128Y-17291814D02*
X10777128Y-17091814D01*
X10777128Y-17120386D02*
X10791414Y-17106100D01*
X10819986Y-17091814D01*
X10862843Y-17091814D01*
X10891414Y-17106100D01*
X10905700Y-17134672D01*
X10905700Y-17291814D01*
X10905700Y-17134672D02*
X10919986Y-17106100D01*
X10948557Y-17091814D01*
X10991414Y-17091814D01*
X11019986Y-17106100D01*
X11034271Y-17134672D01*
X11034271Y-17291814D01*
X11619986Y-16977529D02*
X11362843Y-17363243D01*
X12005700Y-16991814D02*
X12034271Y-16991814D01*
X12062843Y-17006100D01*
X12077128Y-17020386D01*
X12091414Y-17048957D01*
X12105700Y-17106100D01*
X12105700Y-17177529D01*
X12091414Y-17234672D01*
X12077128Y-17263243D01*
X12062843Y-17277529D01*
X12034271Y-17291814D01*
X12005700Y-17291814D01*
X11977128Y-17277529D01*
X11962843Y-17263243D01*
X11948557Y-17234672D01*
X11934271Y-17177529D01*
X11934271Y-17106100D01*
X11948557Y-17048957D01*
X11962843Y-17020386D01*
X11977128Y-17006100D01*
X12005700Y-16991814D01*
X12234271Y-17263243D02*
X12248557Y-17277529D01*
X12234271Y-17291814D01*
X12219986Y-17277529D01*
X12234271Y-17263243D01*
X12234271Y-17291814D01*
X12434271Y-16991814D02*
X12462843Y-16991814D01*
X12491414Y-17006100D01*
X12505700Y-17020386D01*
X12519986Y-17048957D01*
X12534271Y-17106100D01*
X12534271Y-17177529D01*
X12519986Y-17234672D01*
X12505700Y-17263243D01*
X12491414Y-17277529D01*
X12462843Y-17291814D01*
X12434271Y-17291814D01*
X12405700Y-17277529D01*
X12391414Y-17263243D01*
X12377128Y-17234672D01*
X12362843Y-17177529D01*
X12362843Y-17106100D01*
X12377128Y-17048957D01*
X12391414Y-17020386D01*
X12405700Y-17006100D01*
X12434271Y-16991814D01*
X12634271Y-16991814D02*
X12819986Y-16991814D01*
X12719986Y-17106100D01*
X12762843Y-17106100D01*
X12791414Y-17120386D01*
X12805700Y-17134672D01*
X12819986Y-17163243D01*
X12819986Y-17234672D01*
X12805700Y-17263243D01*
X12791414Y-17277529D01*
X12762843Y-17291814D01*
X12677128Y-17291814D01*
X12648557Y-17277529D01*
X12634271Y-17263243D01*
X12962843Y-17291814D02*
X13019986Y-17291814D01*
X13048557Y-17277529D01*
X13062843Y-17263243D01*
X13091414Y-17220386D01*
X13105700Y-17163243D01*
X13105700Y-17048957D01*
X13091414Y-17020386D01*
X13077128Y-17006100D01*
X13048557Y-16991814D01*
X12991414Y-16991814D01*
X12962843Y-17006100D01*
X12948557Y-17020386D01*
X12934271Y-17048957D01*
X12934271Y-17120386D01*
X12948557Y-17148957D01*
X12962843Y-17163243D01*
X12991414Y-17177529D01*
X13048557Y-17177529D01*
X13077128Y-17163243D01*
X13091414Y-17148957D01*
X13105700Y-17120386D01*
X13219986Y-16991814D02*
X13219986Y-17048957D01*
X13334271Y-16991814D02*
X13334271Y-17048957D01*
X13777128Y-17406100D02*
X13762843Y-17391814D01*
X13734271Y-17348957D01*
X13719986Y-17320386D01*
X13705700Y-17277529D01*
X13691414Y-17206100D01*
X13691414Y-17148957D01*
X13705700Y-17077529D01*
X13719986Y-17034672D01*
X13734271Y-17006100D01*
X13762843Y-16963243D01*
X13777128Y-16948957D01*
X14034271Y-16991814D02*
X13891414Y-16991814D01*
X13877128Y-17134672D01*
X13891414Y-17120386D01*
X13919986Y-17106100D01*
X13991414Y-17106100D01*
X14019986Y-17120386D01*
X14034271Y-17134672D01*
X14048557Y-17163243D01*
X14048557Y-17234672D01*
X14034271Y-17263243D01*
X14019986Y-17277529D01*
X13991414Y-17291814D01*
X13919986Y-17291814D01*
X13891414Y-17277529D01*
X13877128Y-17263243D01*
X14191414Y-17291814D02*
X14248557Y-17291814D01*
X14277128Y-17277529D01*
X14291414Y-17263243D01*
X14319986Y-17220386D01*
X14334271Y-17163243D01*
X14334271Y-17048957D01*
X14319986Y-17020386D01*
X14305700Y-17006100D01*
X14277128Y-16991814D01*
X14219986Y-16991814D01*
X14191414Y-17006100D01*
X14177128Y-17020386D01*
X14162843Y-17048957D01*
X14162843Y-17120386D01*
X14177128Y-17148957D01*
X14191414Y-17163243D01*
X14219986Y-17177529D01*
X14277128Y-17177529D01*
X14305700Y-17163243D01*
X14319986Y-17148957D01*
X14334271Y-17120386D01*
X14691414Y-17291814D02*
X14691414Y-16991814D01*
X14819986Y-17291814D02*
X14819986Y-17134672D01*
X14805700Y-17106100D01*
X14777128Y-17091814D01*
X14734271Y-17091814D01*
X14705700Y-17106100D01*
X14691414Y-17120386D01*
X15005700Y-17291814D02*
X14977128Y-17277529D01*
X14962843Y-17263243D01*
X14948557Y-17234672D01*
X14948557Y-17148957D01*
X14962843Y-17120386D01*
X14977128Y-17106100D01*
X15005700Y-17091814D01*
X15048557Y-17091814D01*
X15077128Y-17106100D01*
X15091414Y-17120386D01*
X15105700Y-17148957D01*
X15105700Y-17234672D01*
X15091414Y-17263243D01*
X15077128Y-17277529D01*
X15048557Y-17291814D01*
X15005700Y-17291814D01*
X15277128Y-17291814D02*
X15248557Y-17277529D01*
X15234271Y-17248957D01*
X15234271Y-16991814D01*
X15505700Y-17277529D02*
X15477128Y-17291814D01*
X15419986Y-17291814D01*
X15391414Y-17277529D01*
X15377128Y-17248957D01*
X15377128Y-17134672D01*
X15391414Y-17106100D01*
X15419986Y-17091814D01*
X15477128Y-17091814D01*
X15505700Y-17106100D01*
X15519986Y-17134672D01*
X15519986Y-17163243D01*
X15377128Y-17191814D01*
X15634271Y-17277529D02*
X15662843Y-17291814D01*
X15719986Y-17291814D01*
X15748557Y-17277529D01*
X15762843Y-17248957D01*
X15762843Y-17234672D01*
X15748557Y-17206100D01*
X15719986Y-17191814D01*
X15677128Y-17191814D01*
X15648557Y-17177529D01*
X15634271Y-17148957D01*
X15634271Y-17134672D01*
X15648557Y-17106100D01*
X15677128Y-17091814D01*
X15719986Y-17091814D01*
X15748557Y-17106100D01*
X15862843Y-17406100D02*
X15877128Y-17391814D01*
X15905700Y-17348957D01*
X15919986Y-17320386D01*
X15934271Y-17277529D01*
X15948557Y-17206100D01*
X15948557Y-17148957D01*
X15934271Y-17077529D01*
X15919986Y-17034672D01*
X15905700Y-17006100D01*
X15877128Y-16963243D01*
X15862843Y-16948957D01*
X8988700Y-17501100D02*
X9090700Y-17603100D01*
X9090700Y-17501100D02*
X8988700Y-17603100D01*
X9075763Y-17588163D02*
X9075763Y-17516037D01*
X9003637Y-17516037D01*
X9003637Y-17588163D01*
X9075763Y-17588163D01*
X9534271Y-17687814D02*
X9362843Y-17687814D01*
X9448557Y-17687814D02*
X9448557Y-17387814D01*
X9419986Y-17430672D01*
X9391414Y-17459243D01*
X9362843Y-17473529D01*
X9662843Y-17659243D02*
X9677128Y-17673529D01*
X9662843Y-17687814D01*
X9648557Y-17673529D01*
X9662843Y-17659243D01*
X9662843Y-17687814D01*
X9862843Y-17387814D02*
X9891414Y-17387814D01*
X9919986Y-17402100D01*
X9934271Y-17416386D01*
X9948557Y-17444957D01*
X9962843Y-17502100D01*
X9962843Y-17573529D01*
X9948557Y-17630672D01*
X9934271Y-17659243D01*
X9919986Y-17673529D01*
X9891414Y-17687814D01*
X9862843Y-17687814D01*
X9834271Y-17673529D01*
X9819986Y-17659243D01*
X9805700Y-17630672D01*
X9791414Y-17573529D01*
X9791414Y-17502100D01*
X9805700Y-17444957D01*
X9819986Y-17416386D01*
X9834271Y-17402100D01*
X9862843Y-17387814D01*
X10077128Y-17416386D02*
X10091414Y-17402100D01*
X10119986Y-17387814D01*
X10191414Y-17387814D01*
X10219986Y-17402100D01*
X10234271Y-17416386D01*
X10248557Y-17444957D01*
X10248557Y-17473529D01*
X10234271Y-17516386D01*
X10062843Y-17687814D01*
X10248557Y-17687814D01*
X10377128Y-17687814D02*
X10377128Y-17487814D01*
X10377128Y-17516386D02*
X10391414Y-17502100D01*
X10419986Y-17487814D01*
X10462843Y-17487814D01*
X10491414Y-17502100D01*
X10505700Y-17530672D01*
X10505700Y-17687814D01*
X10505700Y-17530672D02*
X10519986Y-17502100D01*
X10548557Y-17487814D01*
X10591414Y-17487814D01*
X10619986Y-17502100D01*
X10634271Y-17530672D01*
X10634271Y-17687814D01*
X10777128Y-17687814D02*
X10777128Y-17487814D01*
X10777128Y-17516386D02*
X10791414Y-17502100D01*
X10819986Y-17487814D01*
X10862843Y-17487814D01*
X10891414Y-17502100D01*
X10905700Y-17530672D01*
X10905700Y-17687814D01*
X10905700Y-17530672D02*
X10919986Y-17502100D01*
X10948557Y-17487814D01*
X10991414Y-17487814D01*
X11019986Y-17502100D01*
X11034271Y-17530672D01*
X11034271Y-17687814D01*
X11619986Y-17373529D02*
X11362843Y-17759243D01*
X12005700Y-17387814D02*
X12034271Y-17387814D01*
X12062843Y-17402100D01*
X12077128Y-17416386D01*
X12091414Y-17444957D01*
X12105700Y-17502100D01*
X12105700Y-17573529D01*
X12091414Y-17630672D01*
X12077128Y-17659243D01*
X12062843Y-17673529D01*
X12034271Y-17687814D01*
X12005700Y-17687814D01*
X11977128Y-17673529D01*
X11962843Y-17659243D01*
X11948557Y-17630672D01*
X11934271Y-17573529D01*
X11934271Y-17502100D01*
X11948557Y-17444957D01*
X11962843Y-17416386D01*
X11977128Y-17402100D01*
X12005700Y-17387814D01*
X12234271Y-17659243D02*
X12248557Y-17673529D01*
X12234271Y-17687814D01*
X12219986Y-17673529D01*
X12234271Y-17659243D01*
X12234271Y-17687814D01*
X12434271Y-17387814D02*
X12462843Y-17387814D01*
X12491414Y-17402100D01*
X12505700Y-17416386D01*
X12519986Y-17444957D01*
X12534271Y-17502100D01*
X12534271Y-17573529D01*
X12519986Y-17630672D01*
X12505700Y-17659243D01*
X12491414Y-17673529D01*
X12462843Y-17687814D01*
X12434271Y-17687814D01*
X12405700Y-17673529D01*
X12391414Y-17659243D01*
X12377128Y-17630672D01*
X12362843Y-17573529D01*
X12362843Y-17502100D01*
X12377128Y-17444957D01*
X12391414Y-17416386D01*
X12405700Y-17402100D01*
X12434271Y-17387814D01*
X12791414Y-17487814D02*
X12791414Y-17687814D01*
X12719986Y-17373529D02*
X12648557Y-17587814D01*
X12834271Y-17587814D01*
X13005700Y-17387814D02*
X13034271Y-17387814D01*
X13062843Y-17402100D01*
X13077128Y-17416386D01*
X13091414Y-17444957D01*
X13105700Y-17502100D01*
X13105700Y-17573529D01*
X13091414Y-17630672D01*
X13077128Y-17659243D01*
X13062843Y-17673529D01*
X13034271Y-17687814D01*
X13005700Y-17687814D01*
X12977128Y-17673529D01*
X12962843Y-17659243D01*
X12948557Y-17630672D01*
X12934271Y-17573529D01*
X12934271Y-17502100D01*
X12948557Y-17444957D01*
X12962843Y-17416386D01*
X12977128Y-17402100D01*
X13005700Y-17387814D01*
X13219986Y-17387814D02*
X13219986Y-17444957D01*
X13334271Y-17387814D02*
X13334271Y-17444957D01*
X13777128Y-17802100D02*
X13762843Y-17787814D01*
X13734271Y-17744957D01*
X13719986Y-17716386D01*
X13705700Y-17673529D01*
X13691414Y-17602100D01*
X13691414Y-17544957D01*
X13705700Y-17473529D01*
X13719986Y-17430672D01*
X13734271Y-17402100D01*
X13762843Y-17359243D01*
X13777128Y-17344957D01*
X13862843Y-17387814D02*
X14062843Y-17387814D01*
X13934271Y-17687814D01*
X14405700Y-17687814D02*
X14405700Y-17387814D01*
X14534271Y-17687814D02*
X14534271Y-17530672D01*
X14519986Y-17502100D01*
X14491414Y-17487814D01*
X14448557Y-17487814D01*
X14419986Y-17502100D01*
X14405700Y-17516386D01*
X14719986Y-17687814D02*
X14691414Y-17673529D01*
X14677128Y-17659243D01*
X14662843Y-17630672D01*
X14662843Y-17544957D01*
X14677128Y-17516386D01*
X14691414Y-17502100D01*
X14719986Y-17487814D01*
X14762843Y-17487814D01*
X14791414Y-17502100D01*
X14805700Y-17516386D01*
X14819986Y-17544957D01*
X14819986Y-17630672D01*
X14805700Y-17659243D01*
X14791414Y-17673529D01*
X14762843Y-17687814D01*
X14719986Y-17687814D01*
X14991414Y-17687814D02*
X14962843Y-17673529D01*
X14948557Y-17644957D01*
X14948557Y-17387814D01*
X15219986Y-17673529D02*
X15191414Y-17687814D01*
X15134271Y-17687814D01*
X15105700Y-17673529D01*
X15091414Y-17644957D01*
X15091414Y-17530672D01*
X15105700Y-17502100D01*
X15134271Y-17487814D01*
X15191414Y-17487814D01*
X15219986Y-17502100D01*
X15234271Y-17530672D01*
X15234271Y-17559243D01*
X15091414Y-17587814D01*
X15348557Y-17673529D02*
X15377128Y-17687814D01*
X15434271Y-17687814D01*
X15462843Y-17673529D01*
X15477128Y-17644957D01*
X15477128Y-17630672D01*
X15462843Y-17602100D01*
X15434271Y-17587814D01*
X15391414Y-17587814D01*
X15362843Y-17573529D01*
X15348557Y-17544957D01*
X15348557Y-17530672D01*
X15362843Y-17502100D01*
X15391414Y-17487814D01*
X15434271Y-17487814D01*
X15462843Y-17502100D01*
X15577128Y-17802100D02*
X15591414Y-17787814D01*
X15619986Y-17744957D01*
X15634271Y-17716386D01*
X15648557Y-17673529D01*
X15662843Y-17602100D01*
X15662843Y-17544957D01*
X15648557Y-17473529D01*
X15634271Y-17430672D01*
X15619986Y-17402100D01*
X15591414Y-17359243D01*
X15577128Y-17344957D01*
X8980700Y-17893100D02*
X9090700Y-18003100D01*
X9090700Y-17893100D02*
X8980700Y-18003100D01*
X9035700Y-18003100D02*
X9090700Y-17948100D01*
X9035700Y-17893100D01*
X8980700Y-17948100D01*
X9035700Y-18003100D01*
X9534271Y-18083814D02*
X9362843Y-18083814D01*
X9448557Y-18083814D02*
X9448557Y-17783814D01*
X9419986Y-17826672D01*
X9391414Y-17855243D01*
X9362843Y-17869529D01*
X9662843Y-18055243D02*
X9677128Y-18069529D01*
X9662843Y-18083814D01*
X9648557Y-18069529D01*
X9662843Y-18055243D01*
X9662843Y-18083814D01*
X9962843Y-18083814D02*
X9791414Y-18083814D01*
X9877128Y-18083814D02*
X9877128Y-17783814D01*
X9848557Y-17826672D01*
X9819986Y-17855243D01*
X9791414Y-17869529D01*
X10148557Y-17783814D02*
X10177128Y-17783814D01*
X10205700Y-17798100D01*
X10219986Y-17812386D01*
X10234271Y-17840957D01*
X10248557Y-17898100D01*
X10248557Y-17969529D01*
X10234271Y-18026672D01*
X10219986Y-18055243D01*
X10205700Y-18069529D01*
X10177128Y-18083814D01*
X10148557Y-18083814D01*
X10119986Y-18069529D01*
X10105700Y-18055243D01*
X10091414Y-18026672D01*
X10077128Y-17969529D01*
X10077128Y-17898100D01*
X10091414Y-17840957D01*
X10105700Y-17812386D01*
X10119986Y-17798100D01*
X10148557Y-17783814D01*
X10377128Y-18083814D02*
X10377128Y-17883814D01*
X10377128Y-17912386D02*
X10391414Y-17898100D01*
X10419986Y-17883814D01*
X10462843Y-17883814D01*
X10491414Y-17898100D01*
X10505700Y-17926672D01*
X10505700Y-18083814D01*
X10505700Y-17926672D02*
X10519986Y-17898100D01*
X10548557Y-17883814D01*
X10591414Y-17883814D01*
X10619986Y-17898100D01*
X10634271Y-17926672D01*
X10634271Y-18083814D01*
X10777128Y-18083814D02*
X10777128Y-17883814D01*
X10777128Y-17912386D02*
X10791414Y-17898100D01*
X10819986Y-17883814D01*
X10862843Y-17883814D01*
X10891414Y-17898100D01*
X10905700Y-17926672D01*
X10905700Y-18083814D01*
X10905700Y-17926672D02*
X10919986Y-17898100D01*
X10948557Y-17883814D01*
X10991414Y-17883814D01*
X11019986Y-17898100D01*
X11034271Y-17926672D01*
X11034271Y-18083814D01*
X11619986Y-17769529D02*
X11362843Y-18155243D01*
X12005700Y-17783814D02*
X12034271Y-17783814D01*
X12062843Y-17798100D01*
X12077128Y-17812386D01*
X12091414Y-17840957D01*
X12105700Y-17898100D01*
X12105700Y-17969529D01*
X12091414Y-18026672D01*
X12077128Y-18055243D01*
X12062843Y-18069529D01*
X12034271Y-18083814D01*
X12005700Y-18083814D01*
X11977128Y-18069529D01*
X11962843Y-18055243D01*
X11948557Y-18026672D01*
X11934271Y-17969529D01*
X11934271Y-17898100D01*
X11948557Y-17840957D01*
X11962843Y-17812386D01*
X11977128Y-17798100D01*
X12005700Y-17783814D01*
X12234271Y-18055243D02*
X12248557Y-18069529D01*
X12234271Y-18083814D01*
X12219986Y-18069529D01*
X12234271Y-18055243D01*
X12234271Y-18083814D01*
X12434271Y-17783814D02*
X12462843Y-17783814D01*
X12491414Y-17798100D01*
X12505700Y-17812386D01*
X12519986Y-17840957D01*
X12534271Y-17898100D01*
X12534271Y-17969529D01*
X12519986Y-18026672D01*
X12505700Y-18055243D01*
X12491414Y-18069529D01*
X12462843Y-18083814D01*
X12434271Y-18083814D01*
X12405700Y-18069529D01*
X12391414Y-18055243D01*
X12377128Y-18026672D01*
X12362843Y-17969529D01*
X12362843Y-17898100D01*
X12377128Y-17840957D01*
X12391414Y-17812386D01*
X12405700Y-17798100D01*
X12434271Y-17783814D01*
X12791414Y-17883814D02*
X12791414Y-18083814D01*
X12719986Y-17769529D02*
X12648557Y-17983814D01*
X12834271Y-17983814D01*
X12919986Y-17783814D02*
X13105700Y-17783814D01*
X13005700Y-17898100D01*
X13048557Y-17898100D01*
X13077128Y-17912386D01*
X13091414Y-17926672D01*
X13105700Y-17955243D01*
X13105700Y-18026672D01*
X13091414Y-18055243D01*
X13077128Y-18069529D01*
X13048557Y-18083814D01*
X12962843Y-18083814D01*
X12934271Y-18069529D01*
X12919986Y-18055243D01*
X13219986Y-17783814D02*
X13219986Y-17840957D01*
X13334271Y-17783814D02*
X13334271Y-17840957D01*
X13777128Y-18198100D02*
X13762843Y-18183814D01*
X13734271Y-18140957D01*
X13719986Y-18112386D01*
X13705700Y-18069529D01*
X13691414Y-17998100D01*
X13691414Y-17940957D01*
X13705700Y-17869529D01*
X13719986Y-17826672D01*
X13734271Y-17798100D01*
X13762843Y-17755243D01*
X13777128Y-17740957D01*
X13934271Y-17912386D02*
X13905700Y-17898100D01*
X13891414Y-17883814D01*
X13877128Y-17855243D01*
X13877128Y-17840957D01*
X13891414Y-17812386D01*
X13905700Y-17798100D01*
X13934271Y-17783814D01*
X13991414Y-17783814D01*
X14019986Y-17798100D01*
X14034271Y-17812386D01*
X14048557Y-17840957D01*
X14048557Y-17855243D01*
X14034271Y-17883814D01*
X14019986Y-17898100D01*
X13991414Y-17912386D01*
X13934271Y-17912386D01*
X13905700Y-17926672D01*
X13891414Y-17940957D01*
X13877128Y-17969529D01*
X13877128Y-18026672D01*
X13891414Y-18055243D01*
X13905700Y-18069529D01*
X13934271Y-18083814D01*
X13991414Y-18083814D01*
X14019986Y-18069529D01*
X14034271Y-18055243D01*
X14048557Y-18026672D01*
X14048557Y-17969529D01*
X14034271Y-17940957D01*
X14019986Y-17926672D01*
X13991414Y-17912386D01*
X14405700Y-18083814D02*
X14405700Y-17783814D01*
X14534271Y-18083814D02*
X14534271Y-17926672D01*
X14519986Y-17898100D01*
X14491414Y-17883814D01*
X14448557Y-17883814D01*
X14419986Y-17898100D01*
X14405700Y-17912386D01*
X14719986Y-18083814D02*
X14691414Y-18069529D01*
X14677128Y-18055243D01*
X14662843Y-18026672D01*
X14662843Y-17940957D01*
X14677128Y-17912386D01*
X14691414Y-17898100D01*
X14719986Y-17883814D01*
X14762843Y-17883814D01*
X14791414Y-17898100D01*
X14805700Y-17912386D01*
X14819986Y-17940957D01*
X14819986Y-18026672D01*
X14805700Y-18055243D01*
X14791414Y-18069529D01*
X14762843Y-18083814D01*
X14719986Y-18083814D01*
X14991414Y-18083814D02*
X14962843Y-18069529D01*
X14948557Y-18040957D01*
X14948557Y-17783814D01*
X15219986Y-18069529D02*
X15191414Y-18083814D01*
X15134271Y-18083814D01*
X15105700Y-18069529D01*
X15091414Y-18040957D01*
X15091414Y-17926672D01*
X15105700Y-17898100D01*
X15134271Y-17883814D01*
X15191414Y-17883814D01*
X15219986Y-17898100D01*
X15234271Y-17926672D01*
X15234271Y-17955243D01*
X15091414Y-17983814D01*
X15348557Y-18069529D02*
X15377128Y-18083814D01*
X15434271Y-18083814D01*
X15462843Y-18069529D01*
X15477128Y-18040957D01*
X15477128Y-18026672D01*
X15462843Y-17998100D01*
X15434271Y-17983814D01*
X15391414Y-17983814D01*
X15362843Y-17969529D01*
X15348557Y-17940957D01*
X15348557Y-17926672D01*
X15362843Y-17898100D01*
X15391414Y-17883814D01*
X15434271Y-17883814D01*
X15462843Y-17898100D01*
X15577128Y-18198100D02*
X15591414Y-18183814D01*
X15619986Y-18140957D01*
X15634271Y-18112386D01*
X15648557Y-18069529D01*
X15662843Y-17998100D01*
X15662843Y-17940957D01*
X15648557Y-17869529D01*
X15634271Y-17826672D01*
X15619986Y-17798100D01*
X15591414Y-17755243D01*
X15577128Y-17740957D01*
X9025700Y-18279100D02*
X9025700Y-18409100D01*
X8960700Y-18344100D02*
X9090700Y-18344100D01*
X9090700Y-18344100D02*
G75*
G03X9090700Y-18344100I-65000J0D01*
G01*
X9534271Y-18479814D02*
X9362843Y-18479814D01*
X9448557Y-18479814D02*
X9448557Y-18179814D01*
X9419986Y-18222672D01*
X9391414Y-18251243D01*
X9362843Y-18265529D01*
X9662843Y-18451243D02*
X9677128Y-18465529D01*
X9662843Y-18479814D01*
X9648557Y-18465529D01*
X9662843Y-18451243D01*
X9662843Y-18479814D01*
X9777128Y-18179814D02*
X9962843Y-18179814D01*
X9862843Y-18294100D01*
X9905700Y-18294100D01*
X9934271Y-18308386D01*
X9948557Y-18322672D01*
X9962843Y-18351243D01*
X9962843Y-18422672D01*
X9948557Y-18451243D01*
X9934271Y-18465529D01*
X9905700Y-18479814D01*
X9819986Y-18479814D01*
X9791414Y-18465529D01*
X9777128Y-18451243D01*
X10148557Y-18179814D02*
X10177128Y-18179814D01*
X10205700Y-18194100D01*
X10219986Y-18208386D01*
X10234271Y-18236957D01*
X10248557Y-18294100D01*
X10248557Y-18365529D01*
X10234271Y-18422672D01*
X10219986Y-18451243D01*
X10205700Y-18465529D01*
X10177128Y-18479814D01*
X10148557Y-18479814D01*
X10119986Y-18465529D01*
X10105700Y-18451243D01*
X10091414Y-18422672D01*
X10077128Y-18365529D01*
X10077128Y-18294100D01*
X10091414Y-18236957D01*
X10105700Y-18208386D01*
X10119986Y-18194100D01*
X10148557Y-18179814D01*
X10377128Y-18479814D02*
X10377128Y-18279814D01*
X10377128Y-18308386D02*
X10391414Y-18294100D01*
X10419986Y-18279814D01*
X10462843Y-18279814D01*
X10491414Y-18294100D01*
X10505700Y-18322672D01*
X10505700Y-18479814D01*
X10505700Y-18322672D02*
X10519986Y-18294100D01*
X10548557Y-18279814D01*
X10591414Y-18279814D01*
X10619986Y-18294100D01*
X10634271Y-18322672D01*
X10634271Y-18479814D01*
X10777128Y-18479814D02*
X10777128Y-18279814D01*
X10777128Y-18308386D02*
X10791414Y-18294100D01*
X10819986Y-18279814D01*
X10862843Y-18279814D01*
X10891414Y-18294100D01*
X10905700Y-18322672D01*
X10905700Y-18479814D01*
X10905700Y-18322672D02*
X10919986Y-18294100D01*
X10948557Y-18279814D01*
X10991414Y-18279814D01*
X11019986Y-18294100D01*
X11034271Y-18322672D01*
X11034271Y-18479814D01*
X11619986Y-18165529D02*
X11362843Y-18551243D01*
X12005700Y-18179814D02*
X12034271Y-18179814D01*
X12062843Y-18194100D01*
X12077128Y-18208386D01*
X12091414Y-18236957D01*
X12105700Y-18294100D01*
X12105700Y-18365529D01*
X12091414Y-18422672D01*
X12077128Y-18451243D01*
X12062843Y-18465529D01*
X12034271Y-18479814D01*
X12005700Y-18479814D01*
X11977128Y-18465529D01*
X11962843Y-18451243D01*
X11948557Y-18422672D01*
X11934271Y-18365529D01*
X11934271Y-18294100D01*
X11948557Y-18236957D01*
X11962843Y-18208386D01*
X11977128Y-18194100D01*
X12005700Y-18179814D01*
X12234271Y-18451243D02*
X12248557Y-18465529D01*
X12234271Y-18479814D01*
X12219986Y-18465529D01*
X12234271Y-18451243D01*
X12234271Y-18479814D01*
X12434271Y-18179814D02*
X12462843Y-18179814D01*
X12491414Y-18194100D01*
X12505700Y-18208386D01*
X12519986Y-18236957D01*
X12534271Y-18294100D01*
X12534271Y-18365529D01*
X12519986Y-18422672D01*
X12505700Y-18451243D01*
X12491414Y-18465529D01*
X12462843Y-18479814D01*
X12434271Y-18479814D01*
X12405700Y-18465529D01*
X12391414Y-18451243D01*
X12377128Y-18422672D01*
X12362843Y-18365529D01*
X12362843Y-18294100D01*
X12377128Y-18236957D01*
X12391414Y-18208386D01*
X12405700Y-18194100D01*
X12434271Y-18179814D01*
X12805700Y-18179814D02*
X12662843Y-18179814D01*
X12648557Y-18322672D01*
X12662843Y-18308386D01*
X12691414Y-18294100D01*
X12762843Y-18294100D01*
X12791414Y-18308386D01*
X12805700Y-18322672D01*
X12819986Y-18351243D01*
X12819986Y-18422672D01*
X12805700Y-18451243D01*
X12791414Y-18465529D01*
X12762843Y-18479814D01*
X12691414Y-18479814D01*
X12662843Y-18465529D01*
X12648557Y-18451243D01*
X13105700Y-18479814D02*
X12934271Y-18479814D01*
X13019986Y-18479814D02*
X13019986Y-18179814D01*
X12991414Y-18222672D01*
X12962843Y-18251243D01*
X12934271Y-18265529D01*
X13219986Y-18179814D02*
X13219986Y-18236957D01*
X13334271Y-18179814D02*
X13334271Y-18236957D01*
X13777128Y-18594100D02*
X13762843Y-18579814D01*
X13734271Y-18536957D01*
X13719986Y-18508386D01*
X13705700Y-18465529D01*
X13691414Y-18394100D01*
X13691414Y-18336957D01*
X13705700Y-18265529D01*
X13719986Y-18222672D01*
X13734271Y-18194100D01*
X13762843Y-18151243D01*
X13777128Y-18136957D01*
X14048557Y-18479814D02*
X13877128Y-18479814D01*
X13962843Y-18479814D02*
X13962843Y-18179814D01*
X13934271Y-18222672D01*
X13905700Y-18251243D01*
X13877128Y-18265529D01*
X14219986Y-18308386D02*
X14191414Y-18294100D01*
X14177128Y-18279814D01*
X14162843Y-18251243D01*
X14162843Y-18236957D01*
X14177128Y-18208386D01*
X14191414Y-18194100D01*
X14219986Y-18179814D01*
X14277128Y-18179814D01*
X14305700Y-18194100D01*
X14319986Y-18208386D01*
X14334271Y-18236957D01*
X14334271Y-18251243D01*
X14319986Y-18279814D01*
X14305700Y-18294100D01*
X14277128Y-18308386D01*
X14219986Y-18308386D01*
X14191414Y-18322672D01*
X14177128Y-18336957D01*
X14162843Y-18365529D01*
X14162843Y-18422672D01*
X14177128Y-18451243D01*
X14191414Y-18465529D01*
X14219986Y-18479814D01*
X14277128Y-18479814D01*
X14305700Y-18465529D01*
X14319986Y-18451243D01*
X14334271Y-18422672D01*
X14334271Y-18365529D01*
X14319986Y-18336957D01*
X14305700Y-18322672D01*
X14277128Y-18308386D01*
X14691414Y-18479814D02*
X14691414Y-18179814D01*
X14819986Y-18479814D02*
X14819986Y-18322672D01*
X14805700Y-18294100D01*
X14777128Y-18279814D01*
X14734271Y-18279814D01*
X14705700Y-18294100D01*
X14691414Y-18308386D01*
X15005700Y-18479814D02*
X14977128Y-18465529D01*
X14962843Y-18451243D01*
X14948557Y-18422672D01*
X14948557Y-18336957D01*
X14962843Y-18308386D01*
X14977128Y-18294100D01*
X15005700Y-18279814D01*
X15048557Y-18279814D01*
X15077128Y-18294100D01*
X15091414Y-18308386D01*
X15105700Y-18336957D01*
X15105700Y-18422672D01*
X15091414Y-18451243D01*
X15077128Y-18465529D01*
X15048557Y-18479814D01*
X15005700Y-18479814D01*
X15277128Y-18479814D02*
X15248557Y-18465529D01*
X15234271Y-18436957D01*
X15234271Y-18179814D01*
X15505700Y-18465529D02*
X15477128Y-18479814D01*
X15419986Y-18479814D01*
X15391414Y-18465529D01*
X15377128Y-18436957D01*
X15377128Y-18322672D01*
X15391414Y-18294100D01*
X15419986Y-18279814D01*
X15477128Y-18279814D01*
X15505700Y-18294100D01*
X15519986Y-18322672D01*
X15519986Y-18351243D01*
X15377128Y-18379814D01*
X15634271Y-18465529D02*
X15662843Y-18479814D01*
X15719986Y-18479814D01*
X15748557Y-18465529D01*
X15762843Y-18436957D01*
X15762843Y-18422672D01*
X15748557Y-18394100D01*
X15719986Y-18379814D01*
X15677128Y-18379814D01*
X15648557Y-18365529D01*
X15634271Y-18336957D01*
X15634271Y-18322672D01*
X15648557Y-18294100D01*
X15677128Y-18279814D01*
X15719986Y-18279814D01*
X15748557Y-18294100D01*
X15862843Y-18594100D02*
X15877128Y-18579814D01*
X15905700Y-18536957D01*
X15919986Y-18508386D01*
X15934271Y-18465529D01*
X15948557Y-18394100D01*
X15948557Y-18336957D01*
X15934271Y-18265529D01*
X15919986Y-18222672D01*
X15905700Y-18194100D01*
X15877128Y-18151243D01*
X15862843Y-18136957D01*
X9068733Y-18793134D02*
X9068733Y-18687067D01*
X8962666Y-18687067D01*
X8962666Y-18793134D01*
X9068733Y-18793134D01*
X9090700Y-18740100D02*
G75*
G03X9090700Y-18740100I-75000J0D01*
G01*
X9534271Y-18875814D02*
X9362843Y-18875814D01*
X9448557Y-18875814D02*
X9448557Y-18575814D01*
X9419986Y-18618672D01*
X9391414Y-18647243D01*
X9362843Y-18661529D01*
X9662843Y-18847243D02*
X9677128Y-18861529D01*
X9662843Y-18875814D01*
X9648557Y-18861529D01*
X9662843Y-18847243D01*
X9662843Y-18875814D01*
X9948557Y-18575814D02*
X9805700Y-18575814D01*
X9791414Y-18718672D01*
X9805700Y-18704386D01*
X9834271Y-18690100D01*
X9905700Y-18690100D01*
X9934271Y-18704386D01*
X9948557Y-18718672D01*
X9962843Y-18747243D01*
X9962843Y-18818672D01*
X9948557Y-18847243D01*
X9934271Y-18861529D01*
X9905700Y-18875814D01*
X9834271Y-18875814D01*
X9805700Y-18861529D01*
X9791414Y-18847243D01*
X10148557Y-18575814D02*
X10177128Y-18575814D01*
X10205700Y-18590100D01*
X10219986Y-18604386D01*
X10234271Y-18632957D01*
X10248557Y-18690100D01*
X10248557Y-18761529D01*
X10234271Y-18818672D01*
X10219986Y-18847243D01*
X10205700Y-18861529D01*
X10177128Y-18875814D01*
X10148557Y-18875814D01*
X10119986Y-18861529D01*
X10105700Y-18847243D01*
X10091414Y-18818672D01*
X10077128Y-18761529D01*
X10077128Y-18690100D01*
X10091414Y-18632957D01*
X10105700Y-18604386D01*
X10119986Y-18590100D01*
X10148557Y-18575814D01*
X10377128Y-18875814D02*
X10377128Y-18675814D01*
X10377128Y-18704386D02*
X10391414Y-18690100D01*
X10419986Y-18675814D01*
X10462843Y-18675814D01*
X10491414Y-18690100D01*
X10505700Y-18718672D01*
X10505700Y-18875814D01*
X10505700Y-18718672D02*
X10519986Y-18690100D01*
X10548557Y-18675814D01*
X10591414Y-18675814D01*
X10619986Y-18690100D01*
X10634271Y-18718672D01*
X10634271Y-18875814D01*
X10777128Y-18875814D02*
X10777128Y-18675814D01*
X10777128Y-18704386D02*
X10791414Y-18690100D01*
X10819986Y-18675814D01*
X10862843Y-18675814D01*
X10891414Y-18690100D01*
X10905700Y-18718672D01*
X10905700Y-18875814D01*
X10905700Y-18718672D02*
X10919986Y-18690100D01*
X10948557Y-18675814D01*
X10991414Y-18675814D01*
X11019986Y-18690100D01*
X11034271Y-18718672D01*
X11034271Y-18875814D01*
X11619986Y-18561529D02*
X11362843Y-18947243D01*
X12005700Y-18575814D02*
X12034271Y-18575814D01*
X12062843Y-18590100D01*
X12077128Y-18604386D01*
X12091414Y-18632957D01*
X12105700Y-18690100D01*
X12105700Y-18761529D01*
X12091414Y-18818672D01*
X12077128Y-18847243D01*
X12062843Y-18861529D01*
X12034271Y-18875814D01*
X12005700Y-18875814D01*
X11977128Y-18861529D01*
X11962843Y-18847243D01*
X11948557Y-18818672D01*
X11934271Y-18761529D01*
X11934271Y-18690100D01*
X11948557Y-18632957D01*
X11962843Y-18604386D01*
X11977128Y-18590100D01*
X12005700Y-18575814D01*
X12234271Y-18847243D02*
X12248557Y-18861529D01*
X12234271Y-18875814D01*
X12219986Y-18861529D01*
X12234271Y-18847243D01*
X12234271Y-18875814D01*
X12434271Y-18575814D02*
X12462843Y-18575814D01*
X12491414Y-18590100D01*
X12505700Y-18604386D01*
X12519986Y-18632957D01*
X12534271Y-18690100D01*
X12534271Y-18761529D01*
X12519986Y-18818672D01*
X12505700Y-18847243D01*
X12491414Y-18861529D01*
X12462843Y-18875814D01*
X12434271Y-18875814D01*
X12405700Y-18861529D01*
X12391414Y-18847243D01*
X12377128Y-18818672D01*
X12362843Y-18761529D01*
X12362843Y-18690100D01*
X12377128Y-18632957D01*
X12391414Y-18604386D01*
X12405700Y-18590100D01*
X12434271Y-18575814D01*
X12805700Y-18575814D02*
X12662843Y-18575814D01*
X12648557Y-18718672D01*
X12662843Y-18704386D01*
X12691414Y-18690100D01*
X12762843Y-18690100D01*
X12791414Y-18704386D01*
X12805700Y-18718672D01*
X12819986Y-18747243D01*
X12819986Y-18818672D01*
X12805700Y-18847243D01*
X12791414Y-18861529D01*
X12762843Y-18875814D01*
X12691414Y-18875814D01*
X12662843Y-18861529D01*
X12648557Y-18847243D01*
X12962843Y-18875814D02*
X13019986Y-18875814D01*
X13048557Y-18861529D01*
X13062843Y-18847243D01*
X13091414Y-18804386D01*
X13105700Y-18747243D01*
X13105700Y-18632957D01*
X13091414Y-18604386D01*
X13077128Y-18590100D01*
X13048557Y-18575814D01*
X12991414Y-18575814D01*
X12962843Y-18590100D01*
X12948557Y-18604386D01*
X12934271Y-18632957D01*
X12934271Y-18704386D01*
X12948557Y-18732957D01*
X12962843Y-18747243D01*
X12991414Y-18761529D01*
X13048557Y-18761529D01*
X13077128Y-18747243D01*
X13091414Y-18732957D01*
X13105700Y-18704386D01*
X13219986Y-18575814D02*
X13219986Y-18632957D01*
X13334271Y-18575814D02*
X13334271Y-18632957D01*
X13777128Y-18990100D02*
X13762843Y-18975814D01*
X13734271Y-18932957D01*
X13719986Y-18904386D01*
X13705700Y-18861529D01*
X13691414Y-18790100D01*
X13691414Y-18732957D01*
X13705700Y-18661529D01*
X13719986Y-18618672D01*
X13734271Y-18590100D01*
X13762843Y-18547243D01*
X13777128Y-18532957D01*
X13877128Y-18604386D02*
X13891414Y-18590100D01*
X13919986Y-18575814D01*
X13991414Y-18575814D01*
X14019986Y-18590100D01*
X14034271Y-18604386D01*
X14048557Y-18632957D01*
X14048557Y-18661529D01*
X14034271Y-18704386D01*
X13862843Y-18875814D01*
X14048557Y-18875814D01*
X14405700Y-18875814D02*
X14405700Y-18575814D01*
X14534271Y-18875814D02*
X14534271Y-18718672D01*
X14519986Y-18690100D01*
X14491414Y-18675814D01*
X14448557Y-18675814D01*
X14419986Y-18690100D01*
X14405700Y-18704386D01*
X14719986Y-18875814D02*
X14691414Y-18861529D01*
X14677128Y-18847243D01*
X14662843Y-18818672D01*
X14662843Y-18732957D01*
X14677128Y-18704386D01*
X14691414Y-18690100D01*
X14719986Y-18675814D01*
X14762843Y-18675814D01*
X14791414Y-18690100D01*
X14805700Y-18704386D01*
X14819986Y-18732957D01*
X14819986Y-18818672D01*
X14805700Y-18847243D01*
X14791414Y-18861529D01*
X14762843Y-18875814D01*
X14719986Y-18875814D01*
X14991414Y-18875814D02*
X14962843Y-18861529D01*
X14948557Y-18832957D01*
X14948557Y-18575814D01*
X15219986Y-18861529D02*
X15191414Y-18875814D01*
X15134271Y-18875814D01*
X15105700Y-18861529D01*
X15091414Y-18832957D01*
X15091414Y-18718672D01*
X15105700Y-18690100D01*
X15134271Y-18675814D01*
X15191414Y-18675814D01*
X15219986Y-18690100D01*
X15234271Y-18718672D01*
X15234271Y-18747243D01*
X15091414Y-18775814D01*
X15348557Y-18861529D02*
X15377128Y-18875814D01*
X15434271Y-18875814D01*
X15462843Y-18861529D01*
X15477128Y-18832957D01*
X15477128Y-18818672D01*
X15462843Y-18790100D01*
X15434271Y-18775814D01*
X15391414Y-18775814D01*
X15362843Y-18761529D01*
X15348557Y-18732957D01*
X15348557Y-18718672D01*
X15362843Y-18690100D01*
X15391414Y-18675814D01*
X15434271Y-18675814D01*
X15462843Y-18690100D01*
X15577128Y-18990100D02*
X15591414Y-18975814D01*
X15619986Y-18932957D01*
X15634271Y-18904386D01*
X15648557Y-18861529D01*
X15662843Y-18790100D01*
X15662843Y-18732957D01*
X15648557Y-18661529D01*
X15634271Y-18618672D01*
X15619986Y-18590100D01*
X15591414Y-18547243D01*
X15577128Y-18532957D01*
X9009200Y-19217600D02*
X9090700Y-19136100D01*
X9009200Y-19054600D01*
X8927700Y-19136100D01*
X9009200Y-19217600D01*
X9090700Y-19136100D02*
G75*
G03X9090700Y-19136100I-81500J0D01*
G01*
X9534271Y-19271814D02*
X9362843Y-19271814D01*
X9448557Y-19271814D02*
X9448557Y-18971814D01*
X9419986Y-19014672D01*
X9391414Y-19043243D01*
X9362843Y-19057529D01*
X9662843Y-19243243D02*
X9677128Y-19257529D01*
X9662843Y-19271814D01*
X9648557Y-19257529D01*
X9662843Y-19243243D01*
X9662843Y-19271814D01*
X9934271Y-18971814D02*
X9877128Y-18971814D01*
X9848557Y-18986100D01*
X9834271Y-19000386D01*
X9805700Y-19043243D01*
X9791414Y-19100386D01*
X9791414Y-19214672D01*
X9805700Y-19243243D01*
X9819986Y-19257529D01*
X9848557Y-19271814D01*
X9905700Y-19271814D01*
X9934271Y-19257529D01*
X9948557Y-19243243D01*
X9962843Y-19214672D01*
X9962843Y-19143243D01*
X9948557Y-19114672D01*
X9934271Y-19100386D01*
X9905700Y-19086100D01*
X9848557Y-19086100D01*
X9819986Y-19100386D01*
X9805700Y-19114672D01*
X9791414Y-19143243D01*
X10062843Y-18971814D02*
X10248557Y-18971814D01*
X10148557Y-19086100D01*
X10191414Y-19086100D01*
X10219986Y-19100386D01*
X10234271Y-19114672D01*
X10248557Y-19143243D01*
X10248557Y-19214672D01*
X10234271Y-19243243D01*
X10219986Y-19257529D01*
X10191414Y-19271814D01*
X10105700Y-19271814D01*
X10077128Y-19257529D01*
X10062843Y-19243243D01*
X10377128Y-19271814D02*
X10377128Y-19071814D01*
X10377128Y-19100386D02*
X10391414Y-19086100D01*
X10419986Y-19071814D01*
X10462843Y-19071814D01*
X10491414Y-19086100D01*
X10505700Y-19114672D01*
X10505700Y-19271814D01*
X10505700Y-19114672D02*
X10519986Y-19086100D01*
X10548557Y-19071814D01*
X10591414Y-19071814D01*
X10619986Y-19086100D01*
X10634271Y-19114672D01*
X10634271Y-19271814D01*
X10777128Y-19271814D02*
X10777128Y-19071814D01*
X10777128Y-19100386D02*
X10791414Y-19086100D01*
X10819986Y-19071814D01*
X10862843Y-19071814D01*
X10891414Y-19086100D01*
X10905700Y-19114672D01*
X10905700Y-19271814D01*
X10905700Y-19114672D02*
X10919986Y-19086100D01*
X10948557Y-19071814D01*
X10991414Y-19071814D01*
X11019986Y-19086100D01*
X11034271Y-19114672D01*
X11034271Y-19271814D01*
X11619986Y-18957529D02*
X11362843Y-19343243D01*
X12005700Y-18971814D02*
X12034271Y-18971814D01*
X12062843Y-18986100D01*
X12077128Y-19000386D01*
X12091414Y-19028957D01*
X12105700Y-19086100D01*
X12105700Y-19157529D01*
X12091414Y-19214672D01*
X12077128Y-19243243D01*
X12062843Y-19257529D01*
X12034271Y-19271814D01*
X12005700Y-19271814D01*
X11977128Y-19257529D01*
X11962843Y-19243243D01*
X11948557Y-19214672D01*
X11934271Y-19157529D01*
X11934271Y-19086100D01*
X11948557Y-19028957D01*
X11962843Y-19000386D01*
X11977128Y-18986100D01*
X12005700Y-18971814D01*
X12234271Y-19243243D02*
X12248557Y-19257529D01*
X12234271Y-19271814D01*
X12219986Y-19257529D01*
X12234271Y-19243243D01*
X12234271Y-19271814D01*
X12434271Y-18971814D02*
X12462843Y-18971814D01*
X12491414Y-18986100D01*
X12505700Y-19000386D01*
X12519986Y-19028957D01*
X12534271Y-19086100D01*
X12534271Y-19157529D01*
X12519986Y-19214672D01*
X12505700Y-19243243D01*
X12491414Y-19257529D01*
X12462843Y-19271814D01*
X12434271Y-19271814D01*
X12405700Y-19257529D01*
X12391414Y-19243243D01*
X12377128Y-19214672D01*
X12362843Y-19157529D01*
X12362843Y-19086100D01*
X12377128Y-19028957D01*
X12391414Y-19000386D01*
X12405700Y-18986100D01*
X12434271Y-18971814D01*
X12791414Y-18971814D02*
X12734271Y-18971814D01*
X12705700Y-18986100D01*
X12691414Y-19000386D01*
X12662843Y-19043243D01*
X12648557Y-19100386D01*
X12648557Y-19214672D01*
X12662843Y-19243243D01*
X12677128Y-19257529D01*
X12705700Y-19271814D01*
X12762843Y-19271814D01*
X12791414Y-19257529D01*
X12805700Y-19243243D01*
X12819986Y-19214672D01*
X12819986Y-19143243D01*
X12805700Y-19114672D01*
X12791414Y-19100386D01*
X12762843Y-19086100D01*
X12705700Y-19086100D01*
X12677128Y-19100386D01*
X12662843Y-19114672D01*
X12648557Y-19143243D01*
X13077128Y-19071814D02*
X13077128Y-19271814D01*
X13005700Y-18957529D02*
X12934271Y-19171814D01*
X13119986Y-19171814D01*
X13219986Y-18971814D02*
X13219986Y-19028957D01*
X13334271Y-18971814D02*
X13334271Y-19028957D01*
X13777128Y-19386100D02*
X13762843Y-19371814D01*
X13734271Y-19328957D01*
X13719986Y-19300386D01*
X13705700Y-19257529D01*
X13691414Y-19186100D01*
X13691414Y-19128957D01*
X13705700Y-19057529D01*
X13719986Y-19014672D01*
X13734271Y-18986100D01*
X13762843Y-18943243D01*
X13777128Y-18928957D01*
X13877128Y-19000386D02*
X13891414Y-18986100D01*
X13919986Y-18971814D01*
X13991414Y-18971814D01*
X14019986Y-18986100D01*
X14034271Y-19000386D01*
X14048557Y-19028957D01*
X14048557Y-19057529D01*
X14034271Y-19100386D01*
X13862843Y-19271814D01*
X14048557Y-19271814D01*
X14405700Y-19271814D02*
X14405700Y-18971814D01*
X14534271Y-19271814D02*
X14534271Y-19114672D01*
X14519986Y-19086100D01*
X14491414Y-19071814D01*
X14448557Y-19071814D01*
X14419986Y-19086100D01*
X14405700Y-19100386D01*
X14719986Y-19271814D02*
X14691414Y-19257529D01*
X14677128Y-19243243D01*
X14662843Y-19214672D01*
X14662843Y-19128957D01*
X14677128Y-19100386D01*
X14691414Y-19086100D01*
X14719986Y-19071814D01*
X14762843Y-19071814D01*
X14791414Y-19086100D01*
X14805700Y-19100386D01*
X14819986Y-19128957D01*
X14819986Y-19214672D01*
X14805700Y-19243243D01*
X14791414Y-19257529D01*
X14762843Y-19271814D01*
X14719986Y-19271814D01*
X14991414Y-19271814D02*
X14962843Y-19257529D01*
X14948557Y-19228957D01*
X14948557Y-18971814D01*
X15219986Y-19257529D02*
X15191414Y-19271814D01*
X15134271Y-19271814D01*
X15105700Y-19257529D01*
X15091414Y-19228957D01*
X15091414Y-19114672D01*
X15105700Y-19086100D01*
X15134271Y-19071814D01*
X15191414Y-19071814D01*
X15219986Y-19086100D01*
X15234271Y-19114672D01*
X15234271Y-19143243D01*
X15091414Y-19171814D01*
X15348557Y-19257529D02*
X15377128Y-19271814D01*
X15434271Y-19271814D01*
X15462843Y-19257529D01*
X15477128Y-19228957D01*
X15477128Y-19214672D01*
X15462843Y-19186100D01*
X15434271Y-19171814D01*
X15391414Y-19171814D01*
X15362843Y-19157529D01*
X15348557Y-19128957D01*
X15348557Y-19114672D01*
X15362843Y-19086100D01*
X15391414Y-19071814D01*
X15434271Y-19071814D01*
X15462843Y-19086100D01*
X15577128Y-19386100D02*
X15591414Y-19371814D01*
X15619986Y-19328957D01*
X15634271Y-19300386D01*
X15648557Y-19257529D01*
X15662843Y-19186100D01*
X15662843Y-19128957D01*
X15648557Y-19057529D01*
X15634271Y-19014672D01*
X15619986Y-18986100D01*
X15591414Y-18943243D01*
X15577128Y-18928957D01*
X8963700Y-19405100D02*
X8963700Y-19659100D01*
X8836700Y-19532100D02*
X9090700Y-19532100D01*
X9053503Y-19621904D02*
X9053503Y-19442297D01*
X8873897Y-19442297D01*
X8873897Y-19621904D01*
X9053503Y-19621904D01*
X9362843Y-19396386D02*
X9377128Y-19382100D01*
X9405700Y-19367814D01*
X9477128Y-19367814D01*
X9505700Y-19382100D01*
X9519986Y-19396386D01*
X9534271Y-19424957D01*
X9534271Y-19453529D01*
X9519986Y-19496386D01*
X9348557Y-19667814D01*
X9534271Y-19667814D01*
X9662843Y-19639243D02*
X9677128Y-19653529D01*
X9662843Y-19667814D01*
X9648557Y-19653529D01*
X9662843Y-19639243D01*
X9662843Y-19667814D01*
X9948557Y-19367814D02*
X9805700Y-19367814D01*
X9791414Y-19510672D01*
X9805700Y-19496386D01*
X9834271Y-19482100D01*
X9905700Y-19482100D01*
X9934271Y-19496386D01*
X9948557Y-19510672D01*
X9962843Y-19539243D01*
X9962843Y-19610672D01*
X9948557Y-19639243D01*
X9934271Y-19653529D01*
X9905700Y-19667814D01*
X9834271Y-19667814D01*
X9805700Y-19653529D01*
X9791414Y-19639243D01*
X10219986Y-19467814D02*
X10219986Y-19667814D01*
X10148557Y-19353529D02*
X10077128Y-19567814D01*
X10262843Y-19567814D01*
X10377128Y-19667814D02*
X10377128Y-19467814D01*
X10377128Y-19496386D02*
X10391414Y-19482100D01*
X10419986Y-19467814D01*
X10462843Y-19467814D01*
X10491414Y-19482100D01*
X10505700Y-19510672D01*
X10505700Y-19667814D01*
X10505700Y-19510672D02*
X10519986Y-19482100D01*
X10548557Y-19467814D01*
X10591414Y-19467814D01*
X10619986Y-19482100D01*
X10634271Y-19510672D01*
X10634271Y-19667814D01*
X10777128Y-19667814D02*
X10777128Y-19467814D01*
X10777128Y-19496386D02*
X10791414Y-19482100D01*
X10819986Y-19467814D01*
X10862843Y-19467814D01*
X10891414Y-19482100D01*
X10905700Y-19510672D01*
X10905700Y-19667814D01*
X10905700Y-19510672D02*
X10919986Y-19482100D01*
X10948557Y-19467814D01*
X10991414Y-19467814D01*
X11019986Y-19482100D01*
X11034271Y-19510672D01*
X11034271Y-19667814D01*
X11619986Y-19353529D02*
X11362843Y-19739243D01*
X12005700Y-19367814D02*
X12034271Y-19367814D01*
X12062843Y-19382100D01*
X12077128Y-19396386D01*
X12091414Y-19424957D01*
X12105700Y-19482100D01*
X12105700Y-19553529D01*
X12091414Y-19610672D01*
X12077128Y-19639243D01*
X12062843Y-19653529D01*
X12034271Y-19667814D01*
X12005700Y-19667814D01*
X11977128Y-19653529D01*
X11962843Y-19639243D01*
X11948557Y-19610672D01*
X11934271Y-19553529D01*
X11934271Y-19482100D01*
X11948557Y-19424957D01*
X11962843Y-19396386D01*
X11977128Y-19382100D01*
X12005700Y-19367814D01*
X12234271Y-19639243D02*
X12248557Y-19653529D01*
X12234271Y-19667814D01*
X12219986Y-19653529D01*
X12234271Y-19639243D01*
X12234271Y-19667814D01*
X12534271Y-19667814D02*
X12362843Y-19667814D01*
X12448557Y-19667814D02*
X12448557Y-19367814D01*
X12419986Y-19410672D01*
X12391414Y-19439243D01*
X12362843Y-19453529D01*
X12719986Y-19367814D02*
X12748557Y-19367814D01*
X12777128Y-19382100D01*
X12791414Y-19396386D01*
X12805700Y-19424957D01*
X12819986Y-19482100D01*
X12819986Y-19553529D01*
X12805700Y-19610672D01*
X12791414Y-19639243D01*
X12777128Y-19653529D01*
X12748557Y-19667814D01*
X12719986Y-19667814D01*
X12691414Y-19653529D01*
X12677128Y-19639243D01*
X12662843Y-19610672D01*
X12648557Y-19553529D01*
X12648557Y-19482100D01*
X12662843Y-19424957D01*
X12677128Y-19396386D01*
X12691414Y-19382100D01*
X12719986Y-19367814D01*
X13005700Y-19367814D02*
X13034271Y-19367814D01*
X13062843Y-19382100D01*
X13077128Y-19396386D01*
X13091414Y-19424957D01*
X13105700Y-19482100D01*
X13105700Y-19553529D01*
X13091414Y-19610672D01*
X13077128Y-19639243D01*
X13062843Y-19653529D01*
X13034271Y-19667814D01*
X13005700Y-19667814D01*
X12977128Y-19653529D01*
X12962843Y-19639243D01*
X12948557Y-19610672D01*
X12934271Y-19553529D01*
X12934271Y-19482100D01*
X12948557Y-19424957D01*
X12962843Y-19396386D01*
X12977128Y-19382100D01*
X13005700Y-19367814D01*
X13219986Y-19367814D02*
X13219986Y-19424957D01*
X13334271Y-19367814D02*
X13334271Y-19424957D01*
X13777128Y-19782100D02*
X13762843Y-19767814D01*
X13734271Y-19724957D01*
X13719986Y-19696386D01*
X13705700Y-19653529D01*
X13691414Y-19582100D01*
X13691414Y-19524957D01*
X13705700Y-19453529D01*
X13719986Y-19410672D01*
X13734271Y-19382100D01*
X13762843Y-19339243D01*
X13777128Y-19324957D01*
X13877128Y-19396386D02*
X13891414Y-19382100D01*
X13919986Y-19367814D01*
X13991414Y-19367814D01*
X14019986Y-19382100D01*
X14034271Y-19396386D01*
X14048557Y-19424957D01*
X14048557Y-19453529D01*
X14034271Y-19496386D01*
X13862843Y-19667814D01*
X14048557Y-19667814D01*
X14405700Y-19667814D02*
X14405700Y-19367814D01*
X14534271Y-19667814D02*
X14534271Y-19510672D01*
X14519986Y-19482100D01*
X14491414Y-19467814D01*
X14448557Y-19467814D01*
X14419986Y-19482100D01*
X14405700Y-19496386D01*
X14719986Y-19667814D02*
X14691414Y-19653529D01*
X14677128Y-19639243D01*
X14662843Y-19610672D01*
X14662843Y-19524957D01*
X14677128Y-19496386D01*
X14691414Y-19482100D01*
X14719986Y-19467814D01*
X14762843Y-19467814D01*
X14791414Y-19482100D01*
X14805700Y-19496386D01*
X14819986Y-19524957D01*
X14819986Y-19610672D01*
X14805700Y-19639243D01*
X14791414Y-19653529D01*
X14762843Y-19667814D01*
X14719986Y-19667814D01*
X14991414Y-19667814D02*
X14962843Y-19653529D01*
X14948557Y-19624957D01*
X14948557Y-19367814D01*
X15219986Y-19653529D02*
X15191414Y-19667814D01*
X15134271Y-19667814D01*
X15105700Y-19653529D01*
X15091414Y-19624957D01*
X15091414Y-19510672D01*
X15105700Y-19482100D01*
X15134271Y-19467814D01*
X15191414Y-19467814D01*
X15219986Y-19482100D01*
X15234271Y-19510672D01*
X15234271Y-19539243D01*
X15091414Y-19567814D01*
X15348557Y-19653529D02*
X15377128Y-19667814D01*
X15434271Y-19667814D01*
X15462843Y-19653529D01*
X15477128Y-19624957D01*
X15477128Y-19610672D01*
X15462843Y-19582100D01*
X15434271Y-19567814D01*
X15391414Y-19567814D01*
X15362843Y-19553529D01*
X15348557Y-19524957D01*
X15348557Y-19510672D01*
X15362843Y-19482100D01*
X15391414Y-19467814D01*
X15434271Y-19467814D01*
X15462843Y-19482100D01*
X15577128Y-19782100D02*
X15591414Y-19767814D01*
X15619986Y-19724957D01*
X15634271Y-19696386D01*
X15648557Y-19653529D01*
X15662843Y-19582100D01*
X15662843Y-19524957D01*
X15648557Y-19453529D01*
X15634271Y-19410672D01*
X15619986Y-19382100D01*
X15591414Y-19339243D01*
X15577128Y-19324957D01*
X8953200Y-19790600D02*
X8953200Y-20065600D01*
X8815700Y-19928100D02*
X9090700Y-19928100D01*
X8953200Y-20065600D02*
X9090700Y-19928100D01*
X8953200Y-19790600D01*
X8815700Y-19928100D01*
X8953200Y-20065600D01*
X9362843Y-19792386D02*
X9377128Y-19778100D01*
X9405700Y-19763814D01*
X9477128Y-19763814D01*
X9505700Y-19778100D01*
X9519986Y-19792386D01*
X9534271Y-19820957D01*
X9534271Y-19849529D01*
X9519986Y-19892386D01*
X9348557Y-20063814D01*
X9534271Y-20063814D01*
X9662843Y-20035243D02*
X9677128Y-20049529D01*
X9662843Y-20063814D01*
X9648557Y-20049529D01*
X9662843Y-20035243D01*
X9662843Y-20063814D01*
X9777128Y-19763814D02*
X9977128Y-19763814D01*
X9848557Y-20063814D01*
X10234271Y-19763814D02*
X10091414Y-19763814D01*
X10077128Y-19906672D01*
X10091414Y-19892386D01*
X10119986Y-19878100D01*
X10191414Y-19878100D01*
X10219986Y-19892386D01*
X10234271Y-19906672D01*
X10248557Y-19935243D01*
X10248557Y-20006672D01*
X10234271Y-20035243D01*
X10219986Y-20049529D01*
X10191414Y-20063814D01*
X10119986Y-20063814D01*
X10091414Y-20049529D01*
X10077128Y-20035243D01*
X10377128Y-20063814D02*
X10377128Y-19863814D01*
X10377128Y-19892386D02*
X10391414Y-19878100D01*
X10419986Y-19863814D01*
X10462843Y-19863814D01*
X10491414Y-19878100D01*
X10505700Y-19906672D01*
X10505700Y-20063814D01*
X10505700Y-19906672D02*
X10519986Y-19878100D01*
X10548557Y-19863814D01*
X10591414Y-19863814D01*
X10619986Y-19878100D01*
X10634271Y-19906672D01*
X10634271Y-20063814D01*
X10777128Y-20063814D02*
X10777128Y-19863814D01*
X10777128Y-19892386D02*
X10791414Y-19878100D01*
X10819986Y-19863814D01*
X10862843Y-19863814D01*
X10891414Y-19878100D01*
X10905700Y-19906672D01*
X10905700Y-20063814D01*
X10905700Y-19906672D02*
X10919986Y-19878100D01*
X10948557Y-19863814D01*
X10991414Y-19863814D01*
X11019986Y-19878100D01*
X11034271Y-19906672D01*
X11034271Y-20063814D01*
X11619986Y-19749529D02*
X11362843Y-20135243D01*
X12005700Y-19763814D02*
X12034271Y-19763814D01*
X12062843Y-19778100D01*
X12077128Y-19792386D01*
X12091414Y-19820957D01*
X12105700Y-19878100D01*
X12105700Y-19949529D01*
X12091414Y-20006672D01*
X12077128Y-20035243D01*
X12062843Y-20049529D01*
X12034271Y-20063814D01*
X12005700Y-20063814D01*
X11977128Y-20049529D01*
X11962843Y-20035243D01*
X11948557Y-20006672D01*
X11934271Y-19949529D01*
X11934271Y-19878100D01*
X11948557Y-19820957D01*
X11962843Y-19792386D01*
X11977128Y-19778100D01*
X12005700Y-19763814D01*
X12234271Y-20035243D02*
X12248557Y-20049529D01*
X12234271Y-20063814D01*
X12219986Y-20049529D01*
X12234271Y-20035243D01*
X12234271Y-20063814D01*
X12534271Y-20063814D02*
X12362843Y-20063814D01*
X12448557Y-20063814D02*
X12448557Y-19763814D01*
X12419986Y-19806672D01*
X12391414Y-19835243D01*
X12362843Y-19849529D01*
X12719986Y-19763814D02*
X12748557Y-19763814D01*
X12777128Y-19778100D01*
X12791414Y-19792386D01*
X12805700Y-19820957D01*
X12819986Y-19878100D01*
X12819986Y-19949529D01*
X12805700Y-20006672D01*
X12791414Y-20035243D01*
X12777128Y-20049529D01*
X12748557Y-20063814D01*
X12719986Y-20063814D01*
X12691414Y-20049529D01*
X12677128Y-20035243D01*
X12662843Y-20006672D01*
X12648557Y-19949529D01*
X12648557Y-19878100D01*
X12662843Y-19820957D01*
X12677128Y-19792386D01*
X12691414Y-19778100D01*
X12719986Y-19763814D01*
X12991414Y-19892386D02*
X12962843Y-19878100D01*
X12948557Y-19863814D01*
X12934271Y-19835243D01*
X12934271Y-19820957D01*
X12948557Y-19792386D01*
X12962843Y-19778100D01*
X12991414Y-19763814D01*
X13048557Y-19763814D01*
X13077128Y-19778100D01*
X13091414Y-19792386D01*
X13105700Y-19820957D01*
X13105700Y-19835243D01*
X13091414Y-19863814D01*
X13077128Y-19878100D01*
X13048557Y-19892386D01*
X12991414Y-19892386D01*
X12962843Y-19906672D01*
X12948557Y-19920957D01*
X12934271Y-19949529D01*
X12934271Y-20006672D01*
X12948557Y-20035243D01*
X12962843Y-20049529D01*
X12991414Y-20063814D01*
X13048557Y-20063814D01*
X13077128Y-20049529D01*
X13091414Y-20035243D01*
X13105700Y-20006672D01*
X13105700Y-19949529D01*
X13091414Y-19920957D01*
X13077128Y-19906672D01*
X13048557Y-19892386D01*
X13219986Y-19763814D02*
X13219986Y-19820957D01*
X13334271Y-19763814D02*
X13334271Y-19820957D01*
X13777128Y-20178100D02*
X13762843Y-20163814D01*
X13734271Y-20120957D01*
X13719986Y-20092386D01*
X13705700Y-20049529D01*
X13691414Y-19978100D01*
X13691414Y-19920957D01*
X13705700Y-19849529D01*
X13719986Y-19806672D01*
X13734271Y-19778100D01*
X13762843Y-19735243D01*
X13777128Y-19720957D01*
X13877128Y-19792386D02*
X13891414Y-19778100D01*
X13919986Y-19763814D01*
X13991414Y-19763814D01*
X14019986Y-19778100D01*
X14034271Y-19792386D01*
X14048557Y-19820957D01*
X14048557Y-19849529D01*
X14034271Y-19892386D01*
X13862843Y-20063814D01*
X14048557Y-20063814D01*
X14405700Y-20063814D02*
X14405700Y-19763814D01*
X14534271Y-20063814D02*
X14534271Y-19906672D01*
X14519986Y-19878100D01*
X14491414Y-19863814D01*
X14448557Y-19863814D01*
X14419986Y-19878100D01*
X14405700Y-19892386D01*
X14719986Y-20063814D02*
X14691414Y-20049529D01*
X14677128Y-20035243D01*
X14662843Y-20006672D01*
X14662843Y-19920957D01*
X14677128Y-19892386D01*
X14691414Y-19878100D01*
X14719986Y-19863814D01*
X14762843Y-19863814D01*
X14791414Y-19878100D01*
X14805700Y-19892386D01*
X14819986Y-19920957D01*
X14819986Y-20006672D01*
X14805700Y-20035243D01*
X14791414Y-20049529D01*
X14762843Y-20063814D01*
X14719986Y-20063814D01*
X14991414Y-20063814D02*
X14962843Y-20049529D01*
X14948557Y-20020957D01*
X14948557Y-19763814D01*
X15219986Y-20049529D02*
X15191414Y-20063814D01*
X15134271Y-20063814D01*
X15105700Y-20049529D01*
X15091414Y-20020957D01*
X15091414Y-19906672D01*
X15105700Y-19878100D01*
X15134271Y-19863814D01*
X15191414Y-19863814D01*
X15219986Y-19878100D01*
X15234271Y-19906672D01*
X15234271Y-19935243D01*
X15091414Y-19963814D01*
X15348557Y-20049529D02*
X15377128Y-20063814D01*
X15434271Y-20063814D01*
X15462843Y-20049529D01*
X15477128Y-20020957D01*
X15477128Y-20006672D01*
X15462843Y-19978100D01*
X15434271Y-19963814D01*
X15391414Y-19963814D01*
X15362843Y-19949529D01*
X15348557Y-19920957D01*
X15348557Y-19906672D01*
X15362843Y-19878100D01*
X15391414Y-19863814D01*
X15434271Y-19863814D01*
X15462843Y-19878100D01*
X15577128Y-20178100D02*
X15591414Y-20163814D01*
X15619986Y-20120957D01*
X15634271Y-20092386D01*
X15648557Y-20049529D01*
X15662843Y-19978100D01*
X15662843Y-19920957D01*
X15648557Y-19849529D01*
X15634271Y-19806672D01*
X15619986Y-19778100D01*
X15591414Y-19735243D01*
X15577128Y-19720957D01*
X16119986Y-20178100D02*
X16105700Y-20163814D01*
X16077128Y-20120957D01*
X16062843Y-20092386D01*
X16048557Y-20049529D01*
X16034271Y-19978100D01*
X16034271Y-19920957D01*
X16048557Y-19849529D01*
X16062843Y-19806672D01*
X16077128Y-19778100D01*
X16105700Y-19735243D01*
X16119986Y-19720957D01*
X16234271Y-19863814D02*
X16234271Y-20063814D01*
X16234271Y-19892386D02*
X16248557Y-19878100D01*
X16277128Y-19863814D01*
X16319986Y-19863814D01*
X16348557Y-19878100D01*
X16362843Y-19906672D01*
X16362843Y-20063814D01*
X16548557Y-20063814D02*
X16519986Y-20049529D01*
X16505700Y-20035243D01*
X16491414Y-20006672D01*
X16491414Y-19920957D01*
X16505700Y-19892386D01*
X16519986Y-19878100D01*
X16548557Y-19863814D01*
X16591414Y-19863814D01*
X16619986Y-19878100D01*
X16634271Y-19892386D01*
X16648557Y-19920957D01*
X16648557Y-20006672D01*
X16634271Y-20035243D01*
X16619986Y-20049529D01*
X16591414Y-20063814D01*
X16548557Y-20063814D01*
X16734271Y-19863814D02*
X16848557Y-19863814D01*
X16777128Y-19763814D02*
X16777128Y-20020957D01*
X16791414Y-20049529D01*
X16819986Y-20063814D01*
X16848557Y-20063814D01*
X17177128Y-19863814D02*
X17177128Y-20163814D01*
X17177128Y-19878100D02*
X17205700Y-19863814D01*
X17262843Y-19863814D01*
X17291414Y-19878100D01*
X17305700Y-19892386D01*
X17319986Y-19920957D01*
X17319986Y-20006672D01*
X17305700Y-20035243D01*
X17291414Y-20049529D01*
X17262843Y-20063814D01*
X17205700Y-20063814D01*
X17177128Y-20049529D01*
X17491414Y-20063814D02*
X17462843Y-20049529D01*
X17448557Y-20020957D01*
X17448557Y-19763814D01*
X17734271Y-20063814D02*
X17734271Y-19906672D01*
X17719986Y-19878100D01*
X17691414Y-19863814D01*
X17634271Y-19863814D01*
X17605700Y-19878100D01*
X17734271Y-20049529D02*
X17705700Y-20063814D01*
X17634271Y-20063814D01*
X17605700Y-20049529D01*
X17591414Y-20020957D01*
X17591414Y-19992386D01*
X17605700Y-19963814D01*
X17634271Y-19949529D01*
X17705700Y-19949529D01*
X17734271Y-19935243D01*
X17834271Y-19863814D02*
X17948557Y-19863814D01*
X17877128Y-19763814D02*
X17877128Y-20020957D01*
X17891414Y-20049529D01*
X17919986Y-20063814D01*
X17948557Y-20063814D01*
X18162843Y-20049529D02*
X18134271Y-20063814D01*
X18077128Y-20063814D01*
X18048557Y-20049529D01*
X18034271Y-20020957D01*
X18034271Y-19906672D01*
X18048557Y-19878100D01*
X18077128Y-19863814D01*
X18134271Y-19863814D01*
X18162843Y-19878100D01*
X18177128Y-19906672D01*
X18177128Y-19935243D01*
X18034271Y-19963814D01*
X18434271Y-20063814D02*
X18434271Y-19763814D01*
X18434271Y-20049529D02*
X18405700Y-20063814D01*
X18348557Y-20063814D01*
X18319986Y-20049529D01*
X18305700Y-20035243D01*
X18291414Y-20006672D01*
X18291414Y-19920957D01*
X18305700Y-19892386D01*
X18319986Y-19878100D01*
X18348557Y-19863814D01*
X18405700Y-19863814D01*
X18434271Y-19878100D01*
X18548557Y-20178100D02*
X18562843Y-20163814D01*
X18591414Y-20120957D01*
X18605700Y-20092386D01*
X18619986Y-20049529D01*
X18634271Y-19978100D01*
X18634271Y-19920957D01*
X18619986Y-19849529D01*
X18605700Y-19806672D01*
X18591414Y-19778100D01*
X18562843Y-19735243D01*
X18548557Y-19720957D01*
X8928200Y-20495600D02*
X9090700Y-20333100D01*
X8928200Y-20170600D01*
X8765700Y-20333100D01*
X8928200Y-20495600D01*
X9043106Y-20448006D02*
X9043106Y-20218194D01*
X8813294Y-20218194D01*
X8813294Y-20448006D01*
X9043106Y-20448006D01*
X9348557Y-20168814D02*
X9534271Y-20168814D01*
X9434271Y-20283100D01*
X9477128Y-20283100D01*
X9505700Y-20297386D01*
X9519986Y-20311672D01*
X9534271Y-20340243D01*
X9534271Y-20411672D01*
X9519986Y-20440243D01*
X9505700Y-20454529D01*
X9477128Y-20468814D01*
X9391414Y-20468814D01*
X9362843Y-20454529D01*
X9348557Y-20440243D01*
X9662843Y-20440243D02*
X9677128Y-20454529D01*
X9662843Y-20468814D01*
X9648557Y-20454529D01*
X9662843Y-20440243D01*
X9662843Y-20468814D01*
X9791414Y-20197386D02*
X9805700Y-20183100D01*
X9834271Y-20168814D01*
X9905700Y-20168814D01*
X9934271Y-20183100D01*
X9948557Y-20197386D01*
X9962843Y-20225957D01*
X9962843Y-20254529D01*
X9948557Y-20297386D01*
X9777128Y-20468814D01*
X9962843Y-20468814D01*
X10234271Y-20168814D02*
X10091414Y-20168814D01*
X10077128Y-20311672D01*
X10091414Y-20297386D01*
X10119986Y-20283100D01*
X10191414Y-20283100D01*
X10219986Y-20297386D01*
X10234271Y-20311672D01*
X10248557Y-20340243D01*
X10248557Y-20411672D01*
X10234271Y-20440243D01*
X10219986Y-20454529D01*
X10191414Y-20468814D01*
X10119986Y-20468814D01*
X10091414Y-20454529D01*
X10077128Y-20440243D01*
X10377128Y-20468814D02*
X10377128Y-20268814D01*
X10377128Y-20297386D02*
X10391414Y-20283100D01*
X10419986Y-20268814D01*
X10462843Y-20268814D01*
X10491414Y-20283100D01*
X10505700Y-20311672D01*
X10505700Y-20468814D01*
X10505700Y-20311672D02*
X10519986Y-20283100D01*
X10548557Y-20268814D01*
X10591414Y-20268814D01*
X10619986Y-20283100D01*
X10634271Y-20311672D01*
X10634271Y-20468814D01*
X10777128Y-20468814D02*
X10777128Y-20268814D01*
X10777128Y-20297386D02*
X10791414Y-20283100D01*
X10819986Y-20268814D01*
X10862843Y-20268814D01*
X10891414Y-20283100D01*
X10905700Y-20311672D01*
X10905700Y-20468814D01*
X10905700Y-20311672D02*
X10919986Y-20283100D01*
X10948557Y-20268814D01*
X10991414Y-20268814D01*
X11019986Y-20283100D01*
X11034271Y-20311672D01*
X11034271Y-20468814D01*
X11619986Y-20154529D02*
X11362843Y-20540243D01*
X12005700Y-20168814D02*
X12034271Y-20168814D01*
X12062843Y-20183100D01*
X12077128Y-20197386D01*
X12091414Y-20225957D01*
X12105700Y-20283100D01*
X12105700Y-20354529D01*
X12091414Y-20411672D01*
X12077128Y-20440243D01*
X12062843Y-20454529D01*
X12034271Y-20468814D01*
X12005700Y-20468814D01*
X11977128Y-20454529D01*
X11962843Y-20440243D01*
X11948557Y-20411672D01*
X11934271Y-20354529D01*
X11934271Y-20283100D01*
X11948557Y-20225957D01*
X11962843Y-20197386D01*
X11977128Y-20183100D01*
X12005700Y-20168814D01*
X12234271Y-20440243D02*
X12248557Y-20454529D01*
X12234271Y-20468814D01*
X12219986Y-20454529D01*
X12234271Y-20440243D01*
X12234271Y-20468814D01*
X12534271Y-20468814D02*
X12362843Y-20468814D01*
X12448557Y-20468814D02*
X12448557Y-20168814D01*
X12419986Y-20211672D01*
X12391414Y-20240243D01*
X12362843Y-20254529D01*
X12648557Y-20197386D02*
X12662843Y-20183100D01*
X12691414Y-20168814D01*
X12762843Y-20168814D01*
X12791414Y-20183100D01*
X12805700Y-20197386D01*
X12819986Y-20225957D01*
X12819986Y-20254529D01*
X12805700Y-20297386D01*
X12634271Y-20468814D01*
X12819986Y-20468814D01*
X12991414Y-20297386D02*
X12962843Y-20283100D01*
X12948557Y-20268814D01*
X12934271Y-20240243D01*
X12934271Y-20225957D01*
X12948557Y-20197386D01*
X12962843Y-20183100D01*
X12991414Y-20168814D01*
X13048557Y-20168814D01*
X13077128Y-20183100D01*
X13091414Y-20197386D01*
X13105700Y-20225957D01*
X13105700Y-20240243D01*
X13091414Y-20268814D01*
X13077128Y-20283100D01*
X13048557Y-20297386D01*
X12991414Y-20297386D01*
X12962843Y-20311672D01*
X12948557Y-20325957D01*
X12934271Y-20354529D01*
X12934271Y-20411672D01*
X12948557Y-20440243D01*
X12962843Y-20454529D01*
X12991414Y-20468814D01*
X13048557Y-20468814D01*
X13077128Y-20454529D01*
X13091414Y-20440243D01*
X13105700Y-20411672D01*
X13105700Y-20354529D01*
X13091414Y-20325957D01*
X13077128Y-20311672D01*
X13048557Y-20297386D01*
X13219986Y-20168814D02*
X13219986Y-20225957D01*
X13334271Y-20168814D02*
X13334271Y-20225957D01*
X13777128Y-20583100D02*
X13762843Y-20568814D01*
X13734271Y-20525957D01*
X13719986Y-20497386D01*
X13705700Y-20454529D01*
X13691414Y-20383100D01*
X13691414Y-20325957D01*
X13705700Y-20254529D01*
X13719986Y-20211672D01*
X13734271Y-20183100D01*
X13762843Y-20140243D01*
X13777128Y-20125957D01*
X13877128Y-20197386D02*
X13891414Y-20183100D01*
X13919986Y-20168814D01*
X13991414Y-20168814D01*
X14019986Y-20183100D01*
X14034271Y-20197386D01*
X14048557Y-20225957D01*
X14048557Y-20254529D01*
X14034271Y-20297386D01*
X13862843Y-20468814D01*
X14048557Y-20468814D01*
X14405700Y-20468814D02*
X14405700Y-20168814D01*
X14534271Y-20468814D02*
X14534271Y-20311672D01*
X14519986Y-20283100D01*
X14491414Y-20268814D01*
X14448557Y-20268814D01*
X14419986Y-20283100D01*
X14405700Y-20297386D01*
X14719986Y-20468814D02*
X14691414Y-20454529D01*
X14677128Y-20440243D01*
X14662843Y-20411672D01*
X14662843Y-20325957D01*
X14677128Y-20297386D01*
X14691414Y-20283100D01*
X14719986Y-20268814D01*
X14762843Y-20268814D01*
X14791414Y-20283100D01*
X14805700Y-20297386D01*
X14819986Y-20325957D01*
X14819986Y-20411672D01*
X14805700Y-20440243D01*
X14791414Y-20454529D01*
X14762843Y-20468814D01*
X14719986Y-20468814D01*
X14991414Y-20468814D02*
X14962843Y-20454529D01*
X14948557Y-20425957D01*
X14948557Y-20168814D01*
X15219986Y-20454529D02*
X15191414Y-20468814D01*
X15134271Y-20468814D01*
X15105700Y-20454529D01*
X15091414Y-20425957D01*
X15091414Y-20311672D01*
X15105700Y-20283100D01*
X15134271Y-20268814D01*
X15191414Y-20268814D01*
X15219986Y-20283100D01*
X15234271Y-20311672D01*
X15234271Y-20340243D01*
X15091414Y-20368814D01*
X15348557Y-20454529D02*
X15377128Y-20468814D01*
X15434271Y-20468814D01*
X15462843Y-20454529D01*
X15477128Y-20425957D01*
X15477128Y-20411672D01*
X15462843Y-20383100D01*
X15434271Y-20368814D01*
X15391414Y-20368814D01*
X15362843Y-20354529D01*
X15348557Y-20325957D01*
X15348557Y-20311672D01*
X15362843Y-20283100D01*
X15391414Y-20268814D01*
X15434271Y-20268814D01*
X15462843Y-20283100D01*
X15577128Y-20583100D02*
X15591414Y-20568814D01*
X15619986Y-20525957D01*
X15634271Y-20497386D01*
X15648557Y-20454529D01*
X15662843Y-20383100D01*
X15662843Y-20325957D01*
X15648557Y-20254529D01*
X15634271Y-20211672D01*
X15619986Y-20183100D01*
X15591414Y-20140243D01*
X15577128Y-20125957D01*
X16119986Y-20583100D02*
X16105700Y-20568814D01*
X16077128Y-20525957D01*
X16062843Y-20497386D01*
X16048557Y-20454529D01*
X16034271Y-20383100D01*
X16034271Y-20325957D01*
X16048557Y-20254529D01*
X16062843Y-20211672D01*
X16077128Y-20183100D01*
X16105700Y-20140243D01*
X16119986Y-20125957D01*
X16234271Y-20268814D02*
X16234271Y-20468814D01*
X16234271Y-20297386D02*
X16248557Y-20283100D01*
X16277128Y-20268814D01*
X16319986Y-20268814D01*
X16348557Y-20283100D01*
X16362843Y-20311672D01*
X16362843Y-20468814D01*
X16548557Y-20468814D02*
X16519986Y-20454529D01*
X16505700Y-20440243D01*
X16491414Y-20411672D01*
X16491414Y-20325957D01*
X16505700Y-20297386D01*
X16519986Y-20283100D01*
X16548557Y-20268814D01*
X16591414Y-20268814D01*
X16619986Y-20283100D01*
X16634271Y-20297386D01*
X16648557Y-20325957D01*
X16648557Y-20411672D01*
X16634271Y-20440243D01*
X16619986Y-20454529D01*
X16591414Y-20468814D01*
X16548557Y-20468814D01*
X16734271Y-20268814D02*
X16848557Y-20268814D01*
X16777128Y-20168814D02*
X16777128Y-20425957D01*
X16791414Y-20454529D01*
X16819986Y-20468814D01*
X16848557Y-20468814D01*
X17177128Y-20268814D02*
X17177128Y-20568814D01*
X17177128Y-20283100D02*
X17205700Y-20268814D01*
X17262843Y-20268814D01*
X17291414Y-20283100D01*
X17305700Y-20297386D01*
X17319986Y-20325957D01*
X17319986Y-20411672D01*
X17305700Y-20440243D01*
X17291414Y-20454529D01*
X17262843Y-20468814D01*
X17205700Y-20468814D01*
X17177128Y-20454529D01*
X17491414Y-20468814D02*
X17462843Y-20454529D01*
X17448557Y-20425957D01*
X17448557Y-20168814D01*
X17734271Y-20468814D02*
X17734271Y-20311672D01*
X17719986Y-20283100D01*
X17691414Y-20268814D01*
X17634271Y-20268814D01*
X17605700Y-20283100D01*
X17734271Y-20454529D02*
X17705700Y-20468814D01*
X17634271Y-20468814D01*
X17605700Y-20454529D01*
X17591414Y-20425957D01*
X17591414Y-20397386D01*
X17605700Y-20368814D01*
X17634271Y-20354529D01*
X17705700Y-20354529D01*
X17734271Y-20340243D01*
X17834271Y-20268814D02*
X17948557Y-20268814D01*
X17877128Y-20168814D02*
X17877128Y-20425957D01*
X17891414Y-20454529D01*
X17919986Y-20468814D01*
X17948557Y-20468814D01*
X18162843Y-20454529D02*
X18134271Y-20468814D01*
X18077128Y-20468814D01*
X18048557Y-20454529D01*
X18034271Y-20425957D01*
X18034271Y-20311672D01*
X18048557Y-20283100D01*
X18077128Y-20268814D01*
X18134271Y-20268814D01*
X18162843Y-20283100D01*
X18177128Y-20311672D01*
X18177128Y-20340243D01*
X18034271Y-20368814D01*
X18434271Y-20468814D02*
X18434271Y-20168814D01*
X18434271Y-20454529D02*
X18405700Y-20468814D01*
X18348557Y-20468814D01*
X18319986Y-20454529D01*
X18305700Y-20440243D01*
X18291414Y-20411672D01*
X18291414Y-20325957D01*
X18305700Y-20297386D01*
X18319986Y-20283100D01*
X18348557Y-20268814D01*
X18405700Y-20268814D01*
X18434271Y-20283100D01*
X18548557Y-20583100D02*
X18562843Y-20568814D01*
X18591414Y-20525957D01*
X18605700Y-20497386D01*
X18619986Y-20454529D01*
X18634271Y-20383100D01*
X18634271Y-20325957D01*
X18619986Y-20254529D01*
X18605700Y-20211672D01*
X18591414Y-20183100D01*
X18562843Y-20140243D01*
X18548557Y-20125957D01*
M02*
