%FSLAX45Y45*%
G04 Gerber Fmt 4.5, Leading zero omitted, Abs format (unit mm)*
G04 Created by KiCad (PCBNEW 5.99.0-unknown-c3175b4~86~ubuntu16.04.1) date 2019-12-02 17:53:15*
%MOMM*%
%LPD*%
G04 APERTURE LIST*
%ADD10C,0.050000*%
%ADD11C,0.200000*%
%ADD12C,0.300000*%
G04 APERTURE END LIST*
D10*
X11400000Y-13310000D02*
X11390000Y-6959600D01*
X18008600Y-13309600D02*
X11400000Y-13310000D01*
X18008000Y-6959600D02*
X18008600Y-13309600D01*
X11390000Y-6959600D02*
X18008000Y-6959600D01*
D11*
X13156000Y-10787000D02*
X13196000Y-10827000D01*
X13196000Y-10787000D02*
X13156000Y-10827000D01*
X13390000Y-10817000D02*
X13430000Y-10857000D01*
X13430000Y-10817000D02*
X13390000Y-10857000D01*
X13469000Y-10881000D02*
X13509000Y-10921000D01*
X13509000Y-10881000D02*
X13469000Y-10921000D01*
X13738000Y-10983000D02*
X13778000Y-11023000D01*
X13778000Y-10983000D02*
X13738000Y-11023000D01*
X13741000Y-10788000D02*
X13781000Y-10828000D01*
X13781000Y-10788000D02*
X13741000Y-10828000D01*
X13862000Y-10890000D02*
X13902000Y-10930000D01*
X13902000Y-10890000D02*
X13862000Y-10930000D01*
X14260000Y-10613000D02*
X14300000Y-10653000D01*
X14300000Y-10613000D02*
X14260000Y-10653000D01*
X14819000Y-8098000D02*
X14859000Y-8138000D01*
X14859000Y-8098000D02*
X14819000Y-8138000D01*
X15004000Y-10436000D02*
X15044000Y-10476000D01*
X15044000Y-10436000D02*
X15004000Y-10476000D01*
X15169200Y-9809800D02*
X15209200Y-9849800D01*
X15209200Y-9809800D02*
X15169200Y-9849800D01*
X15306000Y-10607000D02*
X15346000Y-10647000D01*
X15346000Y-10607000D02*
X15306000Y-10647000D01*
X15600000Y-10839000D02*
X15640000Y-10879000D01*
X15640000Y-10839000D02*
X15600000Y-10879000D01*
X15690000Y-11495000D02*
X15730000Y-11535000D01*
X15730000Y-11495000D02*
X15690000Y-11535000D01*
X15758000Y-10733000D02*
X15798000Y-10773000D01*
X15798000Y-10733000D02*
X15758000Y-10773000D01*
X15842000Y-10607000D02*
X15882000Y-10647000D01*
X15882000Y-10607000D02*
X15842000Y-10647000D01*
X15878000Y-10920000D02*
X15918000Y-10960000D01*
X15918000Y-10920000D02*
X15878000Y-10960000D01*
X15878000Y-11399000D02*
X15918000Y-11439000D01*
X15918000Y-11399000D02*
X15878000Y-11439000D01*
X15909000Y-10507000D02*
X15949000Y-10547000D01*
X15949000Y-10507000D02*
X15909000Y-10547000D01*
X16027000Y-10920000D02*
X16067000Y-10960000D01*
X16067000Y-10920000D02*
X16027000Y-10960000D01*
X16153000Y-11624000D02*
X16193000Y-11664000D01*
X16193000Y-11624000D02*
X16153000Y-11664000D01*
X16173000Y-10508000D02*
X16213000Y-10548000D01*
X16213000Y-10508000D02*
X16173000Y-10548000D01*
X16272000Y-11400000D02*
X16312000Y-11440000D01*
X16312000Y-11400000D02*
X16272000Y-11440000D01*
X16402000Y-8799000D02*
X16442000Y-8839000D01*
X16442000Y-8799000D02*
X16402000Y-8839000D01*
X16515000Y-11620000D02*
X16555000Y-11660000D01*
X16555000Y-11620000D02*
X16515000Y-11660000D01*
X16542000Y-10939000D02*
X16582000Y-10979000D01*
X16582000Y-10939000D02*
X16542000Y-10979000D01*
X16878000Y-11627000D02*
X16918000Y-11667000D01*
X16918000Y-11627000D02*
X16878000Y-11667000D01*
X17078000Y-10949000D02*
X17118000Y-10989000D01*
X17118000Y-10949000D02*
X17078000Y-10989000D01*
X17358000Y-9122000D02*
X17398000Y-9162000D01*
X17398000Y-9122000D02*
X17358000Y-9162000D01*
X12416000Y-8663000D02*
G75*
G03X12416000Y-8663000I-40000J0D01*
G01*
X12416000Y-10187000D02*
G75*
G03X12416000Y-10187000I-40000J0D01*
G01*
X12670000Y-8663000D02*
G75*
G03X12670000Y-8663000I-40000J0D01*
G01*
X12670000Y-10187000D02*
G75*
G03X12670000Y-10187000I-40000J0D01*
G01*
X12924000Y-8663000D02*
G75*
G03X12924000Y-8663000I-40000J0D01*
G01*
X12924000Y-10187000D02*
G75*
G03X12924000Y-10187000I-40000J0D01*
G01*
X13178000Y-8663000D02*
G75*
G03X13178000Y-8663000I-40000J0D01*
G01*
X13178000Y-10187000D02*
G75*
G03X13178000Y-10187000I-40000J0D01*
G01*
X13432000Y-8663000D02*
G75*
G03X13432000Y-8663000I-40000J0D01*
G01*
X13432000Y-10187000D02*
G75*
G03X13432000Y-10187000I-40000J0D01*
G01*
X13686000Y-8663000D02*
G75*
G03X13686000Y-8663000I-40000J0D01*
G01*
X13686000Y-10187000D02*
G75*
G03X13686000Y-10187000I-40000J0D01*
G01*
X13940000Y-8663000D02*
G75*
G03X13940000Y-8663000I-40000J0D01*
G01*
X13940000Y-10187000D02*
G75*
G03X13940000Y-10187000I-40000J0D01*
G01*
X14194000Y-8663000D02*
G75*
G03X14194000Y-8663000I-40000J0D01*
G01*
X14194000Y-10187000D02*
G75*
G03X14194000Y-10187000I-40000J0D01*
G01*
X14448000Y-8663000D02*
G75*
G03X14448000Y-8663000I-40000J0D01*
G01*
X14448000Y-10187000D02*
G75*
G03X14448000Y-10187000I-40000J0D01*
G01*
X14702000Y-8663000D02*
G75*
G03X14702000Y-8663000I-40000J0D01*
G01*
X14702000Y-10187000D02*
G75*
G03X14702000Y-10187000I-40000J0D01*
G01*
X14956000Y-8663000D02*
G75*
G03X14956000Y-8663000I-40000J0D01*
G01*
X14956000Y-10187000D02*
G75*
G03X14956000Y-10187000I-40000J0D01*
G01*
X15210000Y-8663000D02*
G75*
G03X15210000Y-8663000I-40000J0D01*
G01*
X15210000Y-10187000D02*
G75*
G03X15210000Y-10187000I-40000J0D01*
G01*
X15464000Y-8663000D02*
G75*
G03X15464000Y-8663000I-40000J0D01*
G01*
X15464000Y-10187000D02*
G75*
G03X15464000Y-10187000I-40000J0D01*
G01*
X15718000Y-8663000D02*
G75*
G03X15718000Y-8663000I-40000J0D01*
G01*
X15718000Y-10187000D02*
G75*
G03X15718000Y-10187000I-40000J0D01*
G01*
X15972000Y-8663000D02*
G75*
G03X15972000Y-8663000I-40000J0D01*
G01*
X15972000Y-10187000D02*
G75*
G03X15972000Y-10187000I-40000J0D01*
G01*
X13827000Y-7526200D02*
X13827000Y-7627800D01*
X13776200Y-7577000D02*
X13877800Y-7577000D01*
X13827000Y-7780200D02*
X13827000Y-7881800D01*
X13776200Y-7831000D02*
X13877800Y-7831000D01*
X14081000Y-7526200D02*
X14081000Y-7627800D01*
X14030200Y-7577000D02*
X14131800Y-7577000D01*
X14081000Y-7780200D02*
X14081000Y-7881800D01*
X14030200Y-7831000D02*
X14131800Y-7831000D01*
X14335000Y-7526200D02*
X14335000Y-7627800D01*
X14284200Y-7577000D02*
X14385800Y-7577000D01*
X14335000Y-7780200D02*
X14335000Y-7881800D01*
X14284200Y-7831000D02*
X14385800Y-7831000D01*
X14589000Y-7526200D02*
X14589000Y-7627800D01*
X14538200Y-7577000D02*
X14639800Y-7577000D01*
X14589000Y-7780200D02*
X14589000Y-7881800D01*
X14538200Y-7831000D02*
X14639800Y-7831000D01*
X14843000Y-7526200D02*
X14843000Y-7627800D01*
X14792200Y-7577000D02*
X14893800Y-7577000D01*
X14843000Y-7780200D02*
X14843000Y-7881800D01*
X14792200Y-7831000D02*
X14893800Y-7831000D01*
X15097000Y-7526200D02*
X15097000Y-7627800D01*
X15046200Y-7577000D02*
X15147800Y-7577000D01*
X15097000Y-7780200D02*
X15097000Y-7881800D01*
X15046200Y-7831000D02*
X15147800Y-7831000D01*
X15351000Y-7526200D02*
X15351000Y-7627800D01*
X15300200Y-7577000D02*
X15401800Y-7577000D01*
X15351000Y-7780200D02*
X15351000Y-7881800D01*
X15300200Y-7831000D02*
X15401800Y-7831000D01*
X15713427Y-12528427D02*
X15713427Y-12443573D01*
X15628573Y-12443573D01*
X15628573Y-12528427D01*
X15713427Y-12528427D01*
X16063427Y-12528427D02*
X16063427Y-12443573D01*
X15978573Y-12443573D01*
X15978573Y-12528427D01*
X16063427Y-12528427D01*
X16413427Y-12528427D02*
X16413427Y-12443573D01*
X16328573Y-12443573D01*
X16328573Y-12528427D01*
X16413427Y-12528427D01*
X16763427Y-12528427D02*
X16763427Y-12443573D01*
X16678573Y-12443573D01*
X16678573Y-12528427D01*
X16763427Y-12528427D01*
X17113427Y-12528427D02*
X17113427Y-12443573D01*
X17028573Y-12443573D01*
X17028573Y-12528427D01*
X17113427Y-12528427D01*
X12089427Y-12504427D02*
X12089427Y-12419573D01*
X12004573Y-12419573D01*
X12004573Y-12504427D01*
X12089427Y-12504427D01*
X12439427Y-12504427D02*
X12439427Y-12419573D01*
X12354573Y-12419573D01*
X12354573Y-12504427D01*
X12439427Y-12504427D01*
X12789427Y-12504427D02*
X12789427Y-12419573D01*
X12704573Y-12419573D01*
X12704573Y-12504427D01*
X12789427Y-12504427D01*
X13139427Y-12504427D02*
X13139427Y-12419573D01*
X13054573Y-12419573D01*
X13054573Y-12504427D01*
X13139427Y-12504427D01*
X13489427Y-12504427D02*
X13489427Y-12419573D01*
X13404573Y-12419573D01*
X13404573Y-12504427D01*
X13489427Y-12504427D01*
X13839427Y-12504427D02*
X13839427Y-12419573D01*
X13754573Y-12419573D01*
X13754573Y-12504427D01*
X13839427Y-12504427D01*
X14189427Y-12504427D02*
X14189427Y-12419573D01*
X14104573Y-12419573D01*
X14104573Y-12504427D01*
X14189427Y-12504427D01*
X14539427Y-12504427D02*
X14539427Y-12419573D01*
X14454573Y-12419573D01*
X14454573Y-12504427D01*
X14539427Y-12504427D01*
X17591000Y-8331000D02*
X17751000Y-8171000D01*
X17591000Y-8011000D01*
X17431000Y-8171000D01*
X17591000Y-8331000D01*
X17592000Y-10875000D02*
X17752000Y-10715000D01*
X17592000Y-10555000D01*
X17432000Y-10715000D01*
X17592000Y-10875000D01*
X11839000Y-8309000D02*
X11999000Y-8149000D01*
X11839000Y-7989000D01*
X11679000Y-8149000D01*
X11839000Y-8309000D01*
X11837000Y-10835000D02*
X11997000Y-10675000D01*
X11837000Y-10515000D01*
X11677000Y-10675000D01*
X11837000Y-10835000D01*
D12*
X11673928Y-13778214D02*
X11673928Y-13478214D01*
X11745357Y-13478214D01*
X11788214Y-13492500D01*
X11816786Y-13521071D01*
X11831071Y-13549643D01*
X11845357Y-13606786D01*
X11845357Y-13649643D01*
X11831071Y-13706786D01*
X11816786Y-13735357D01*
X11788214Y-13763929D01*
X11745357Y-13778214D01*
X11673928Y-13778214D01*
X11973928Y-13778214D02*
X11973928Y-13578214D01*
X11973928Y-13635357D02*
X11988214Y-13606786D01*
X12002500Y-13592500D01*
X12031071Y-13578214D01*
X12059643Y-13578214D01*
X12159643Y-13778214D02*
X12159643Y-13578214D01*
X12159643Y-13478214D02*
X12145357Y-13492500D01*
X12159643Y-13506786D01*
X12173928Y-13492500D01*
X12159643Y-13478214D01*
X12159643Y-13506786D01*
X12345357Y-13778214D02*
X12316786Y-13763929D01*
X12302500Y-13735357D01*
X12302500Y-13478214D01*
X12502500Y-13778214D02*
X12473928Y-13763929D01*
X12459643Y-13735357D01*
X12459643Y-13478214D01*
X12845357Y-13778214D02*
X12845357Y-13478214D01*
X12945357Y-13692500D01*
X13045357Y-13478214D01*
X13045357Y-13778214D01*
X13316786Y-13778214D02*
X13316786Y-13621071D01*
X13302500Y-13592500D01*
X13273928Y-13578214D01*
X13216786Y-13578214D01*
X13188214Y-13592500D01*
X13316786Y-13763929D02*
X13288214Y-13778214D01*
X13216786Y-13778214D01*
X13188214Y-13763929D01*
X13173928Y-13735357D01*
X13173928Y-13706786D01*
X13188214Y-13678214D01*
X13216786Y-13663929D01*
X13288214Y-13663929D01*
X13316786Y-13649643D01*
X13459643Y-13578214D02*
X13459643Y-13878214D01*
X13459643Y-13592500D02*
X13488214Y-13578214D01*
X13545357Y-13578214D01*
X13573928Y-13592500D01*
X13588214Y-13606786D01*
X13602500Y-13635357D01*
X13602500Y-13721071D01*
X13588214Y-13749643D01*
X13573928Y-13763929D01*
X13545357Y-13778214D01*
X13488214Y-13778214D01*
X13459643Y-13763929D01*
X13731071Y-13749643D02*
X13745357Y-13763929D01*
X13731071Y-13778214D01*
X13716786Y-13763929D01*
X13731071Y-13749643D01*
X13731071Y-13778214D01*
X13731071Y-13592500D02*
X13745357Y-13606786D01*
X13731071Y-13621071D01*
X13716786Y-13606786D01*
X13731071Y-13592500D01*
X13731071Y-13621071D01*
X11347500Y-14252500D02*
X11387500Y-14292500D01*
X11387500Y-14252500D02*
X11347500Y-14292500D01*
X11731071Y-14108214D02*
X11759643Y-14108214D01*
X11788214Y-14122500D01*
X11802500Y-14136786D01*
X11816786Y-14165357D01*
X11831071Y-14222500D01*
X11831071Y-14293929D01*
X11816786Y-14351071D01*
X11802500Y-14379643D01*
X11788214Y-14393929D01*
X11759643Y-14408214D01*
X11731071Y-14408214D01*
X11702500Y-14393929D01*
X11688214Y-14379643D01*
X11673928Y-14351071D01*
X11659643Y-14293929D01*
X11659643Y-14222500D01*
X11673928Y-14165357D01*
X11688214Y-14136786D01*
X11702500Y-14122500D01*
X11731071Y-14108214D01*
X11959643Y-14379643D02*
X11973928Y-14393929D01*
X11959643Y-14408214D01*
X11945357Y-14393929D01*
X11959643Y-14379643D01*
X11959643Y-14408214D01*
X12231071Y-14208214D02*
X12231071Y-14408214D01*
X12159643Y-14093929D02*
X12088214Y-14308214D01*
X12273928Y-14308214D01*
X12445357Y-14108214D02*
X12473928Y-14108214D01*
X12502500Y-14122500D01*
X12516786Y-14136786D01*
X12531071Y-14165357D01*
X12545357Y-14222500D01*
X12545357Y-14293929D01*
X12531071Y-14351071D01*
X12516786Y-14379643D01*
X12502500Y-14393929D01*
X12473928Y-14408214D01*
X12445357Y-14408214D01*
X12416786Y-14393929D01*
X12402500Y-14379643D01*
X12388214Y-14351071D01*
X12373928Y-14293929D01*
X12373928Y-14222500D01*
X12388214Y-14165357D01*
X12402500Y-14136786D01*
X12416786Y-14122500D01*
X12445357Y-14108214D01*
X12673928Y-14408214D02*
X12673928Y-14208214D01*
X12673928Y-14236786D02*
X12688214Y-14222500D01*
X12716786Y-14208214D01*
X12759643Y-14208214D01*
X12788214Y-14222500D01*
X12802500Y-14251071D01*
X12802500Y-14408214D01*
X12802500Y-14251071D02*
X12816786Y-14222500D01*
X12845357Y-14208214D01*
X12888214Y-14208214D01*
X12916786Y-14222500D01*
X12931071Y-14251071D01*
X12931071Y-14408214D01*
X13073928Y-14408214D02*
X13073928Y-14208214D01*
X13073928Y-14236786D02*
X13088214Y-14222500D01*
X13116786Y-14208214D01*
X13159643Y-14208214D01*
X13188214Y-14222500D01*
X13202500Y-14251071D01*
X13202500Y-14408214D01*
X13202500Y-14251071D02*
X13216786Y-14222500D01*
X13245357Y-14208214D01*
X13288214Y-14208214D01*
X13316786Y-14222500D01*
X13331071Y-14251071D01*
X13331071Y-14408214D01*
X13916786Y-14093929D02*
X13659643Y-14479643D01*
X14302500Y-14108214D02*
X14331071Y-14108214D01*
X14359643Y-14122500D01*
X14373928Y-14136786D01*
X14388214Y-14165357D01*
X14402500Y-14222500D01*
X14402500Y-14293929D01*
X14388214Y-14351071D01*
X14373928Y-14379643D01*
X14359643Y-14393929D01*
X14331071Y-14408214D01*
X14302500Y-14408214D01*
X14273928Y-14393929D01*
X14259643Y-14379643D01*
X14245357Y-14351071D01*
X14231071Y-14293929D01*
X14231071Y-14222500D01*
X14245357Y-14165357D01*
X14259643Y-14136786D01*
X14273928Y-14122500D01*
X14302500Y-14108214D01*
X14531071Y-14379643D02*
X14545357Y-14393929D01*
X14531071Y-14408214D01*
X14516786Y-14393929D01*
X14531071Y-14379643D01*
X14531071Y-14408214D01*
X14731071Y-14108214D02*
X14759643Y-14108214D01*
X14788214Y-14122500D01*
X14802500Y-14136786D01*
X14816786Y-14165357D01*
X14831071Y-14222500D01*
X14831071Y-14293929D01*
X14816786Y-14351071D01*
X14802500Y-14379643D01*
X14788214Y-14393929D01*
X14759643Y-14408214D01*
X14731071Y-14408214D01*
X14702500Y-14393929D01*
X14688214Y-14379643D01*
X14673928Y-14351071D01*
X14659643Y-14293929D01*
X14659643Y-14222500D01*
X14673928Y-14165357D01*
X14688214Y-14136786D01*
X14702500Y-14122500D01*
X14731071Y-14108214D01*
X15116786Y-14408214D02*
X14945357Y-14408214D01*
X15031071Y-14408214D02*
X15031071Y-14108214D01*
X15002500Y-14151071D01*
X14973928Y-14179643D01*
X14945357Y-14193929D01*
X15373928Y-14108214D02*
X15316786Y-14108214D01*
X15288214Y-14122500D01*
X15273928Y-14136786D01*
X15245357Y-14179643D01*
X15231071Y-14236786D01*
X15231071Y-14351071D01*
X15245357Y-14379643D01*
X15259643Y-14393929D01*
X15288214Y-14408214D01*
X15345357Y-14408214D01*
X15373928Y-14393929D01*
X15388214Y-14379643D01*
X15402500Y-14351071D01*
X15402500Y-14279643D01*
X15388214Y-14251071D01*
X15373928Y-14236786D01*
X15345357Y-14222500D01*
X15288214Y-14222500D01*
X15259643Y-14236786D01*
X15245357Y-14251071D01*
X15231071Y-14279643D01*
X15516786Y-14108214D02*
X15516786Y-14165357D01*
X15631071Y-14108214D02*
X15631071Y-14165357D01*
X16073928Y-14522500D02*
X16059643Y-14508214D01*
X16031071Y-14465357D01*
X16016786Y-14436786D01*
X16002500Y-14393929D01*
X15988214Y-14322500D01*
X15988214Y-14265357D01*
X16002500Y-14193929D01*
X16016786Y-14151071D01*
X16031071Y-14122500D01*
X16059643Y-14079643D01*
X16073928Y-14065357D01*
X16173928Y-14136786D02*
X16188214Y-14122500D01*
X16216786Y-14108214D01*
X16288214Y-14108214D01*
X16316786Y-14122500D01*
X16331071Y-14136786D01*
X16345357Y-14165357D01*
X16345357Y-14193929D01*
X16331071Y-14236786D01*
X16159643Y-14408214D01*
X16345357Y-14408214D01*
X16516786Y-14236786D02*
X16488214Y-14222500D01*
X16473928Y-14208214D01*
X16459643Y-14179643D01*
X16459643Y-14165357D01*
X16473928Y-14136786D01*
X16488214Y-14122500D01*
X16516786Y-14108214D01*
X16573928Y-14108214D01*
X16602500Y-14122500D01*
X16616786Y-14136786D01*
X16631071Y-14165357D01*
X16631071Y-14179643D01*
X16616786Y-14208214D01*
X16602500Y-14222500D01*
X16573928Y-14236786D01*
X16516786Y-14236786D01*
X16488214Y-14251071D01*
X16473928Y-14265357D01*
X16459643Y-14293929D01*
X16459643Y-14351071D01*
X16473928Y-14379643D01*
X16488214Y-14393929D01*
X16516786Y-14408214D01*
X16573928Y-14408214D01*
X16602500Y-14393929D01*
X16616786Y-14379643D01*
X16631071Y-14351071D01*
X16631071Y-14293929D01*
X16616786Y-14265357D01*
X16602500Y-14251071D01*
X16573928Y-14236786D01*
X16988214Y-14408214D02*
X16988214Y-14108214D01*
X17116786Y-14408214D02*
X17116786Y-14251071D01*
X17102500Y-14222500D01*
X17073928Y-14208214D01*
X17031071Y-14208214D01*
X17002500Y-14222500D01*
X16988214Y-14236786D01*
X17302500Y-14408214D02*
X17273928Y-14393929D01*
X17259643Y-14379643D01*
X17245357Y-14351071D01*
X17245357Y-14265357D01*
X17259643Y-14236786D01*
X17273928Y-14222500D01*
X17302500Y-14208214D01*
X17345357Y-14208214D01*
X17373928Y-14222500D01*
X17388214Y-14236786D01*
X17402500Y-14265357D01*
X17402500Y-14351071D01*
X17388214Y-14379643D01*
X17373928Y-14393929D01*
X17345357Y-14408214D01*
X17302500Y-14408214D01*
X17573928Y-14408214D02*
X17545357Y-14393929D01*
X17531071Y-14365357D01*
X17531071Y-14108214D01*
X17802500Y-14393929D02*
X17773928Y-14408214D01*
X17716786Y-14408214D01*
X17688214Y-14393929D01*
X17673928Y-14365357D01*
X17673928Y-14251071D01*
X17688214Y-14222500D01*
X17716786Y-14208214D01*
X17773928Y-14208214D01*
X17802500Y-14222500D01*
X17816786Y-14251071D01*
X17816786Y-14279643D01*
X17673928Y-14308214D01*
X17931071Y-14393929D02*
X17959643Y-14408214D01*
X18016786Y-14408214D01*
X18045357Y-14393929D01*
X18059643Y-14365357D01*
X18059643Y-14351071D01*
X18045357Y-14322500D01*
X18016786Y-14308214D01*
X17973928Y-14308214D01*
X17945357Y-14293929D01*
X17931071Y-14265357D01*
X17931071Y-14251071D01*
X17945357Y-14222500D01*
X17973928Y-14208214D01*
X18016786Y-14208214D01*
X18045357Y-14222500D01*
X18159643Y-14522500D02*
X18173928Y-14508214D01*
X18202500Y-14465357D01*
X18216786Y-14436786D01*
X18231071Y-14393929D01*
X18245357Y-14322500D01*
X18245357Y-14265357D01*
X18231071Y-14193929D01*
X18216786Y-14151071D01*
X18202500Y-14122500D01*
X18173928Y-14079643D01*
X18159643Y-14065357D01*
X11387500Y-14668500D02*
G75*
G03X11387500Y-14668500I-40000J0D01*
G01*
X11731071Y-14504214D02*
X11759643Y-14504214D01*
X11788214Y-14518500D01*
X11802500Y-14532786D01*
X11816786Y-14561357D01*
X11831071Y-14618500D01*
X11831071Y-14689929D01*
X11816786Y-14747071D01*
X11802500Y-14775643D01*
X11788214Y-14789929D01*
X11759643Y-14804214D01*
X11731071Y-14804214D01*
X11702500Y-14789929D01*
X11688214Y-14775643D01*
X11673928Y-14747071D01*
X11659643Y-14689929D01*
X11659643Y-14618500D01*
X11673928Y-14561357D01*
X11688214Y-14532786D01*
X11702500Y-14518500D01*
X11731071Y-14504214D01*
X11959643Y-14775643D02*
X11973928Y-14789929D01*
X11959643Y-14804214D01*
X11945357Y-14789929D01*
X11959643Y-14775643D01*
X11959643Y-14804214D01*
X12145357Y-14632786D02*
X12116786Y-14618500D01*
X12102500Y-14604214D01*
X12088214Y-14575643D01*
X12088214Y-14561357D01*
X12102500Y-14532786D01*
X12116786Y-14518500D01*
X12145357Y-14504214D01*
X12202500Y-14504214D01*
X12231071Y-14518500D01*
X12245357Y-14532786D01*
X12259643Y-14561357D01*
X12259643Y-14575643D01*
X12245357Y-14604214D01*
X12231071Y-14618500D01*
X12202500Y-14632786D01*
X12145357Y-14632786D01*
X12116786Y-14647071D01*
X12102500Y-14661357D01*
X12088214Y-14689929D01*
X12088214Y-14747071D01*
X12102500Y-14775643D01*
X12116786Y-14789929D01*
X12145357Y-14804214D01*
X12202500Y-14804214D01*
X12231071Y-14789929D01*
X12245357Y-14775643D01*
X12259643Y-14747071D01*
X12259643Y-14689929D01*
X12245357Y-14661357D01*
X12231071Y-14647071D01*
X12202500Y-14632786D01*
X12445357Y-14504214D02*
X12473928Y-14504214D01*
X12502500Y-14518500D01*
X12516786Y-14532786D01*
X12531071Y-14561357D01*
X12545357Y-14618500D01*
X12545357Y-14689929D01*
X12531071Y-14747071D01*
X12516786Y-14775643D01*
X12502500Y-14789929D01*
X12473928Y-14804214D01*
X12445357Y-14804214D01*
X12416786Y-14789929D01*
X12402500Y-14775643D01*
X12388214Y-14747071D01*
X12373928Y-14689929D01*
X12373928Y-14618500D01*
X12388214Y-14561357D01*
X12402500Y-14532786D01*
X12416786Y-14518500D01*
X12445357Y-14504214D01*
X12673928Y-14804214D02*
X12673928Y-14604214D01*
X12673928Y-14632786D02*
X12688214Y-14618500D01*
X12716786Y-14604214D01*
X12759643Y-14604214D01*
X12788214Y-14618500D01*
X12802500Y-14647071D01*
X12802500Y-14804214D01*
X12802500Y-14647071D02*
X12816786Y-14618500D01*
X12845357Y-14604214D01*
X12888214Y-14604214D01*
X12916786Y-14618500D01*
X12931071Y-14647071D01*
X12931071Y-14804214D01*
X13073928Y-14804214D02*
X13073928Y-14604214D01*
X13073928Y-14632786D02*
X13088214Y-14618500D01*
X13116786Y-14604214D01*
X13159643Y-14604214D01*
X13188214Y-14618500D01*
X13202500Y-14647071D01*
X13202500Y-14804214D01*
X13202500Y-14647071D02*
X13216786Y-14618500D01*
X13245357Y-14604214D01*
X13288214Y-14604214D01*
X13316786Y-14618500D01*
X13331071Y-14647071D01*
X13331071Y-14804214D01*
X13916786Y-14489929D02*
X13659643Y-14875643D01*
X14302500Y-14504214D02*
X14331071Y-14504214D01*
X14359643Y-14518500D01*
X14373928Y-14532786D01*
X14388214Y-14561357D01*
X14402500Y-14618500D01*
X14402500Y-14689929D01*
X14388214Y-14747071D01*
X14373928Y-14775643D01*
X14359643Y-14789929D01*
X14331071Y-14804214D01*
X14302500Y-14804214D01*
X14273928Y-14789929D01*
X14259643Y-14775643D01*
X14245357Y-14747071D01*
X14231071Y-14689929D01*
X14231071Y-14618500D01*
X14245357Y-14561357D01*
X14259643Y-14532786D01*
X14273928Y-14518500D01*
X14302500Y-14504214D01*
X14531071Y-14775643D02*
X14545357Y-14789929D01*
X14531071Y-14804214D01*
X14516786Y-14789929D01*
X14531071Y-14775643D01*
X14531071Y-14804214D01*
X14731071Y-14504214D02*
X14759643Y-14504214D01*
X14788214Y-14518500D01*
X14802500Y-14532786D01*
X14816786Y-14561357D01*
X14831071Y-14618500D01*
X14831071Y-14689929D01*
X14816786Y-14747071D01*
X14802500Y-14775643D01*
X14788214Y-14789929D01*
X14759643Y-14804214D01*
X14731071Y-14804214D01*
X14702500Y-14789929D01*
X14688214Y-14775643D01*
X14673928Y-14747071D01*
X14659643Y-14689929D01*
X14659643Y-14618500D01*
X14673928Y-14561357D01*
X14688214Y-14532786D01*
X14702500Y-14518500D01*
X14731071Y-14504214D01*
X14931071Y-14504214D02*
X15116786Y-14504214D01*
X15016786Y-14618500D01*
X15059643Y-14618500D01*
X15088214Y-14632786D01*
X15102500Y-14647071D01*
X15116786Y-14675643D01*
X15116786Y-14747071D01*
X15102500Y-14775643D01*
X15088214Y-14789929D01*
X15059643Y-14804214D01*
X14973928Y-14804214D01*
X14945357Y-14789929D01*
X14931071Y-14775643D01*
X15402500Y-14804214D02*
X15231071Y-14804214D01*
X15316786Y-14804214D02*
X15316786Y-14504214D01*
X15288214Y-14547071D01*
X15259643Y-14575643D01*
X15231071Y-14589929D01*
X15516786Y-14504214D02*
X15516786Y-14561357D01*
X15631071Y-14504214D02*
X15631071Y-14561357D01*
X16073928Y-14918500D02*
X16059643Y-14904214D01*
X16031071Y-14861357D01*
X16016786Y-14832786D01*
X16002500Y-14789929D01*
X15988214Y-14718500D01*
X15988214Y-14661357D01*
X16002500Y-14589929D01*
X16016786Y-14547071D01*
X16031071Y-14518500D01*
X16059643Y-14475643D01*
X16073928Y-14461357D01*
X16159643Y-14504214D02*
X16345357Y-14504214D01*
X16245357Y-14618500D01*
X16288214Y-14618500D01*
X16316786Y-14632786D01*
X16331071Y-14647071D01*
X16345357Y-14675643D01*
X16345357Y-14747071D01*
X16331071Y-14775643D01*
X16316786Y-14789929D01*
X16288214Y-14804214D01*
X16202500Y-14804214D01*
X16173928Y-14789929D01*
X16159643Y-14775643D01*
X16531071Y-14504214D02*
X16559643Y-14504214D01*
X16588214Y-14518500D01*
X16602500Y-14532786D01*
X16616786Y-14561357D01*
X16631071Y-14618500D01*
X16631071Y-14689929D01*
X16616786Y-14747071D01*
X16602500Y-14775643D01*
X16588214Y-14789929D01*
X16559643Y-14804214D01*
X16531071Y-14804214D01*
X16502500Y-14789929D01*
X16488214Y-14775643D01*
X16473928Y-14747071D01*
X16459643Y-14689929D01*
X16459643Y-14618500D01*
X16473928Y-14561357D01*
X16488214Y-14532786D01*
X16502500Y-14518500D01*
X16531071Y-14504214D01*
X16988214Y-14804214D02*
X16988214Y-14504214D01*
X17116786Y-14804214D02*
X17116786Y-14647071D01*
X17102500Y-14618500D01*
X17073928Y-14604214D01*
X17031071Y-14604214D01*
X17002500Y-14618500D01*
X16988214Y-14632786D01*
X17302500Y-14804214D02*
X17273928Y-14789929D01*
X17259643Y-14775643D01*
X17245357Y-14747071D01*
X17245357Y-14661357D01*
X17259643Y-14632786D01*
X17273928Y-14618500D01*
X17302500Y-14604214D01*
X17345357Y-14604214D01*
X17373928Y-14618500D01*
X17388214Y-14632786D01*
X17402500Y-14661357D01*
X17402500Y-14747071D01*
X17388214Y-14775643D01*
X17373928Y-14789929D01*
X17345357Y-14804214D01*
X17302500Y-14804214D01*
X17573928Y-14804214D02*
X17545357Y-14789929D01*
X17531071Y-14761357D01*
X17531071Y-14504214D01*
X17802500Y-14789929D02*
X17773928Y-14804214D01*
X17716786Y-14804214D01*
X17688214Y-14789929D01*
X17673928Y-14761357D01*
X17673928Y-14647071D01*
X17688214Y-14618500D01*
X17716786Y-14604214D01*
X17773928Y-14604214D01*
X17802500Y-14618500D01*
X17816786Y-14647071D01*
X17816786Y-14675643D01*
X17673928Y-14704214D01*
X17931071Y-14789929D02*
X17959643Y-14804214D01*
X18016786Y-14804214D01*
X18045357Y-14789929D01*
X18059643Y-14761357D01*
X18059643Y-14747071D01*
X18045357Y-14718500D01*
X18016786Y-14704214D01*
X17973928Y-14704214D01*
X17945357Y-14689929D01*
X17931071Y-14661357D01*
X17931071Y-14647071D01*
X17945357Y-14618500D01*
X17973928Y-14604214D01*
X18016786Y-14604214D01*
X18045357Y-14618500D01*
X18159643Y-14918500D02*
X18173928Y-14904214D01*
X18202500Y-14861357D01*
X18216786Y-14832786D01*
X18231071Y-14789929D01*
X18245357Y-14718500D01*
X18245357Y-14661357D01*
X18231071Y-14589929D01*
X18216786Y-14547071D01*
X18202500Y-14518500D01*
X18173928Y-14475643D01*
X18159643Y-14461357D01*
X11336700Y-15013700D02*
X11336700Y-15115300D01*
X11285900Y-15064500D02*
X11387500Y-15064500D01*
X11831071Y-15200214D02*
X11659643Y-15200214D01*
X11745357Y-15200214D02*
X11745357Y-14900214D01*
X11716786Y-14943071D01*
X11688214Y-14971643D01*
X11659643Y-14985929D01*
X11959643Y-15171643D02*
X11973928Y-15185929D01*
X11959643Y-15200214D01*
X11945357Y-15185929D01*
X11959643Y-15171643D01*
X11959643Y-15200214D01*
X12159643Y-14900214D02*
X12188214Y-14900214D01*
X12216786Y-14914500D01*
X12231071Y-14928786D01*
X12245357Y-14957357D01*
X12259643Y-15014500D01*
X12259643Y-15085929D01*
X12245357Y-15143071D01*
X12231071Y-15171643D01*
X12216786Y-15185929D01*
X12188214Y-15200214D01*
X12159643Y-15200214D01*
X12131071Y-15185929D01*
X12116786Y-15171643D01*
X12102500Y-15143071D01*
X12088214Y-15085929D01*
X12088214Y-15014500D01*
X12102500Y-14957357D01*
X12116786Y-14928786D01*
X12131071Y-14914500D01*
X12159643Y-14900214D01*
X12373928Y-14928786D02*
X12388214Y-14914500D01*
X12416786Y-14900214D01*
X12488214Y-14900214D01*
X12516786Y-14914500D01*
X12531071Y-14928786D01*
X12545357Y-14957357D01*
X12545357Y-14985929D01*
X12531071Y-15028786D01*
X12359643Y-15200214D01*
X12545357Y-15200214D01*
X12673928Y-15200214D02*
X12673928Y-15000214D01*
X12673928Y-15028786D02*
X12688214Y-15014500D01*
X12716786Y-15000214D01*
X12759643Y-15000214D01*
X12788214Y-15014500D01*
X12802500Y-15043071D01*
X12802500Y-15200214D01*
X12802500Y-15043071D02*
X12816786Y-15014500D01*
X12845357Y-15000214D01*
X12888214Y-15000214D01*
X12916786Y-15014500D01*
X12931071Y-15043071D01*
X12931071Y-15200214D01*
X13073928Y-15200214D02*
X13073928Y-15000214D01*
X13073928Y-15028786D02*
X13088214Y-15014500D01*
X13116786Y-15000214D01*
X13159643Y-15000214D01*
X13188214Y-15014500D01*
X13202500Y-15043071D01*
X13202500Y-15200214D01*
X13202500Y-15043071D02*
X13216786Y-15014500D01*
X13245357Y-15000214D01*
X13288214Y-15000214D01*
X13316786Y-15014500D01*
X13331071Y-15043071D01*
X13331071Y-15200214D01*
X13916786Y-14885929D02*
X13659643Y-15271643D01*
X14302500Y-14900214D02*
X14331071Y-14900214D01*
X14359643Y-14914500D01*
X14373928Y-14928786D01*
X14388214Y-14957357D01*
X14402500Y-15014500D01*
X14402500Y-15085929D01*
X14388214Y-15143071D01*
X14373928Y-15171643D01*
X14359643Y-15185929D01*
X14331071Y-15200214D01*
X14302500Y-15200214D01*
X14273928Y-15185929D01*
X14259643Y-15171643D01*
X14245357Y-15143071D01*
X14231071Y-15085929D01*
X14231071Y-15014500D01*
X14245357Y-14957357D01*
X14259643Y-14928786D01*
X14273928Y-14914500D01*
X14302500Y-14900214D01*
X14531071Y-15171643D02*
X14545357Y-15185929D01*
X14531071Y-15200214D01*
X14516786Y-15185929D01*
X14531071Y-15171643D01*
X14531071Y-15200214D01*
X14731071Y-14900214D02*
X14759643Y-14900214D01*
X14788214Y-14914500D01*
X14802500Y-14928786D01*
X14816786Y-14957357D01*
X14831071Y-15014500D01*
X14831071Y-15085929D01*
X14816786Y-15143071D01*
X14802500Y-15171643D01*
X14788214Y-15185929D01*
X14759643Y-15200214D01*
X14731071Y-15200214D01*
X14702500Y-15185929D01*
X14688214Y-15171643D01*
X14673928Y-15143071D01*
X14659643Y-15085929D01*
X14659643Y-15014500D01*
X14673928Y-14957357D01*
X14688214Y-14928786D01*
X14702500Y-14914500D01*
X14731071Y-14900214D01*
X15088214Y-15000214D02*
X15088214Y-15200214D01*
X15016786Y-14885929D02*
X14945357Y-15100214D01*
X15131071Y-15100214D01*
X15302500Y-14900214D02*
X15331071Y-14900214D01*
X15359643Y-14914500D01*
X15373928Y-14928786D01*
X15388214Y-14957357D01*
X15402500Y-15014500D01*
X15402500Y-15085929D01*
X15388214Y-15143071D01*
X15373928Y-15171643D01*
X15359643Y-15185929D01*
X15331071Y-15200214D01*
X15302500Y-15200214D01*
X15273928Y-15185929D01*
X15259643Y-15171643D01*
X15245357Y-15143071D01*
X15231071Y-15085929D01*
X15231071Y-15014500D01*
X15245357Y-14957357D01*
X15259643Y-14928786D01*
X15273928Y-14914500D01*
X15302500Y-14900214D01*
X15516786Y-14900214D02*
X15516786Y-14957357D01*
X15631071Y-14900214D02*
X15631071Y-14957357D01*
X16073928Y-15314500D02*
X16059643Y-15300214D01*
X16031071Y-15257357D01*
X16016786Y-15228786D01*
X16002500Y-15185929D01*
X15988214Y-15114500D01*
X15988214Y-15057357D01*
X16002500Y-14985929D01*
X16016786Y-14943071D01*
X16031071Y-14914500D01*
X16059643Y-14871643D01*
X16073928Y-14857357D01*
X16345357Y-15200214D02*
X16173928Y-15200214D01*
X16259643Y-15200214D02*
X16259643Y-14900214D01*
X16231071Y-14943071D01*
X16202500Y-14971643D01*
X16173928Y-14985929D01*
X16602500Y-15000214D02*
X16602500Y-15200214D01*
X16531071Y-14885929D02*
X16459643Y-15100214D01*
X16645357Y-15100214D01*
X16988214Y-15200214D02*
X16988214Y-14900214D01*
X17116786Y-15200214D02*
X17116786Y-15043071D01*
X17102500Y-15014500D01*
X17073928Y-15000214D01*
X17031071Y-15000214D01*
X17002500Y-15014500D01*
X16988214Y-15028786D01*
X17302500Y-15200214D02*
X17273928Y-15185929D01*
X17259643Y-15171643D01*
X17245357Y-15143071D01*
X17245357Y-15057357D01*
X17259643Y-15028786D01*
X17273928Y-15014500D01*
X17302500Y-15000214D01*
X17345357Y-15000214D01*
X17373928Y-15014500D01*
X17388214Y-15028786D01*
X17402500Y-15057357D01*
X17402500Y-15143071D01*
X17388214Y-15171643D01*
X17373928Y-15185929D01*
X17345357Y-15200214D01*
X17302500Y-15200214D01*
X17573928Y-15200214D02*
X17545357Y-15185929D01*
X17531071Y-15157357D01*
X17531071Y-14900214D01*
X17802500Y-15185929D02*
X17773928Y-15200214D01*
X17716786Y-15200214D01*
X17688214Y-15185929D01*
X17673928Y-15157357D01*
X17673928Y-15043071D01*
X17688214Y-15014500D01*
X17716786Y-15000214D01*
X17773928Y-15000214D01*
X17802500Y-15014500D01*
X17816786Y-15043071D01*
X17816786Y-15071643D01*
X17673928Y-15100214D01*
X17931071Y-15185929D02*
X17959643Y-15200214D01*
X18016786Y-15200214D01*
X18045357Y-15185929D01*
X18059643Y-15157357D01*
X18059643Y-15143071D01*
X18045357Y-15114500D01*
X18016786Y-15100214D01*
X17973928Y-15100214D01*
X17945357Y-15085929D01*
X17931071Y-15057357D01*
X17931071Y-15043071D01*
X17945357Y-15014500D01*
X17973928Y-15000214D01*
X18016786Y-15000214D01*
X18045357Y-15014500D01*
X18159643Y-15314500D02*
X18173928Y-15300214D01*
X18202500Y-15257357D01*
X18216786Y-15228786D01*
X18231071Y-15185929D01*
X18245357Y-15114500D01*
X18245357Y-15057357D01*
X18231071Y-14985929D01*
X18216786Y-14943071D01*
X18202500Y-14914500D01*
X18173928Y-14871643D01*
X18159643Y-14857357D01*
X11369927Y-15502927D02*
X11369927Y-15418073D01*
X11285073Y-15418073D01*
X11285073Y-15502927D01*
X11369927Y-15502927D01*
X11831071Y-15596214D02*
X11659643Y-15596214D01*
X11745357Y-15596214D02*
X11745357Y-15296214D01*
X11716786Y-15339071D01*
X11688214Y-15367643D01*
X11659643Y-15381929D01*
X11959643Y-15567643D02*
X11973928Y-15581929D01*
X11959643Y-15596214D01*
X11945357Y-15581929D01*
X11959643Y-15567643D01*
X11959643Y-15596214D01*
X12088214Y-15324786D02*
X12102500Y-15310500D01*
X12131071Y-15296214D01*
X12202500Y-15296214D01*
X12231071Y-15310500D01*
X12245357Y-15324786D01*
X12259643Y-15353357D01*
X12259643Y-15381929D01*
X12245357Y-15424786D01*
X12073928Y-15596214D01*
X12259643Y-15596214D01*
X12445357Y-15296214D02*
X12473928Y-15296214D01*
X12502500Y-15310500D01*
X12516786Y-15324786D01*
X12531071Y-15353357D01*
X12545357Y-15410500D01*
X12545357Y-15481929D01*
X12531071Y-15539071D01*
X12516786Y-15567643D01*
X12502500Y-15581929D01*
X12473928Y-15596214D01*
X12445357Y-15596214D01*
X12416786Y-15581929D01*
X12402500Y-15567643D01*
X12388214Y-15539071D01*
X12373928Y-15481929D01*
X12373928Y-15410500D01*
X12388214Y-15353357D01*
X12402500Y-15324786D01*
X12416786Y-15310500D01*
X12445357Y-15296214D01*
X12673928Y-15596214D02*
X12673928Y-15396214D01*
X12673928Y-15424786D02*
X12688214Y-15410500D01*
X12716786Y-15396214D01*
X12759643Y-15396214D01*
X12788214Y-15410500D01*
X12802500Y-15439071D01*
X12802500Y-15596214D01*
X12802500Y-15439071D02*
X12816786Y-15410500D01*
X12845357Y-15396214D01*
X12888214Y-15396214D01*
X12916786Y-15410500D01*
X12931071Y-15439071D01*
X12931071Y-15596214D01*
X13073928Y-15596214D02*
X13073928Y-15396214D01*
X13073928Y-15424786D02*
X13088214Y-15410500D01*
X13116786Y-15396214D01*
X13159643Y-15396214D01*
X13188214Y-15410500D01*
X13202500Y-15439071D01*
X13202500Y-15596214D01*
X13202500Y-15439071D02*
X13216786Y-15410500D01*
X13245357Y-15396214D01*
X13288214Y-15396214D01*
X13316786Y-15410500D01*
X13331071Y-15439071D01*
X13331071Y-15596214D01*
X13916786Y-15281929D02*
X13659643Y-15667643D01*
X14302500Y-15296214D02*
X14331071Y-15296214D01*
X14359643Y-15310500D01*
X14373928Y-15324786D01*
X14388214Y-15353357D01*
X14402500Y-15410500D01*
X14402500Y-15481929D01*
X14388214Y-15539071D01*
X14373928Y-15567643D01*
X14359643Y-15581929D01*
X14331071Y-15596214D01*
X14302500Y-15596214D01*
X14273928Y-15581929D01*
X14259643Y-15567643D01*
X14245357Y-15539071D01*
X14231071Y-15481929D01*
X14231071Y-15410500D01*
X14245357Y-15353357D01*
X14259643Y-15324786D01*
X14273928Y-15310500D01*
X14302500Y-15296214D01*
X14531071Y-15567643D02*
X14545357Y-15581929D01*
X14531071Y-15596214D01*
X14516786Y-15581929D01*
X14531071Y-15567643D01*
X14531071Y-15596214D01*
X14731071Y-15296214D02*
X14759643Y-15296214D01*
X14788214Y-15310500D01*
X14802500Y-15324786D01*
X14816786Y-15353357D01*
X14831071Y-15410500D01*
X14831071Y-15481929D01*
X14816786Y-15539071D01*
X14802500Y-15567643D01*
X14788214Y-15581929D01*
X14759643Y-15596214D01*
X14731071Y-15596214D01*
X14702500Y-15581929D01*
X14688214Y-15567643D01*
X14673928Y-15539071D01*
X14659643Y-15481929D01*
X14659643Y-15410500D01*
X14673928Y-15353357D01*
X14688214Y-15324786D01*
X14702500Y-15310500D01*
X14731071Y-15296214D01*
X15088214Y-15396214D02*
X15088214Y-15596214D01*
X15016786Y-15281929D02*
X14945357Y-15496214D01*
X15131071Y-15496214D01*
X15216786Y-15296214D02*
X15416786Y-15296214D01*
X15288214Y-15596214D01*
X15516786Y-15296214D02*
X15516786Y-15353357D01*
X15631071Y-15296214D02*
X15631071Y-15353357D01*
X16073928Y-15710500D02*
X16059643Y-15696214D01*
X16031071Y-15653357D01*
X16016786Y-15624786D01*
X16002500Y-15581929D01*
X15988214Y-15510500D01*
X15988214Y-15453357D01*
X16002500Y-15381929D01*
X16016786Y-15339071D01*
X16031071Y-15310500D01*
X16059643Y-15267643D01*
X16073928Y-15253357D01*
X16345357Y-15596214D02*
X16173928Y-15596214D01*
X16259643Y-15596214D02*
X16259643Y-15296214D01*
X16231071Y-15339071D01*
X16202500Y-15367643D01*
X16173928Y-15381929D01*
X16445357Y-15296214D02*
X16631071Y-15296214D01*
X16531071Y-15410500D01*
X16573928Y-15410500D01*
X16602500Y-15424786D01*
X16616786Y-15439071D01*
X16631071Y-15467643D01*
X16631071Y-15539071D01*
X16616786Y-15567643D01*
X16602500Y-15581929D01*
X16573928Y-15596214D01*
X16488214Y-15596214D01*
X16459643Y-15581929D01*
X16445357Y-15567643D01*
X16988214Y-15596214D02*
X16988214Y-15296214D01*
X17116786Y-15596214D02*
X17116786Y-15439071D01*
X17102500Y-15410500D01*
X17073928Y-15396214D01*
X17031071Y-15396214D01*
X17002500Y-15410500D01*
X16988214Y-15424786D01*
X17302500Y-15596214D02*
X17273928Y-15581929D01*
X17259643Y-15567643D01*
X17245357Y-15539071D01*
X17245357Y-15453357D01*
X17259643Y-15424786D01*
X17273928Y-15410500D01*
X17302500Y-15396214D01*
X17345357Y-15396214D01*
X17373928Y-15410500D01*
X17388214Y-15424786D01*
X17402500Y-15453357D01*
X17402500Y-15539071D01*
X17388214Y-15567643D01*
X17373928Y-15581929D01*
X17345357Y-15596214D01*
X17302500Y-15596214D01*
X17573928Y-15596214D02*
X17545357Y-15581929D01*
X17531071Y-15553357D01*
X17531071Y-15296214D01*
X17802500Y-15581929D02*
X17773928Y-15596214D01*
X17716786Y-15596214D01*
X17688214Y-15581929D01*
X17673928Y-15553357D01*
X17673928Y-15439071D01*
X17688214Y-15410500D01*
X17716786Y-15396214D01*
X17773928Y-15396214D01*
X17802500Y-15410500D01*
X17816786Y-15439071D01*
X17816786Y-15467643D01*
X17673928Y-15496214D01*
X17931071Y-15581929D02*
X17959643Y-15596214D01*
X18016786Y-15596214D01*
X18045357Y-15581929D01*
X18059643Y-15553357D01*
X18059643Y-15539071D01*
X18045357Y-15510500D01*
X18016786Y-15496214D01*
X17973928Y-15496214D01*
X17945357Y-15481929D01*
X17931071Y-15453357D01*
X17931071Y-15439071D01*
X17945357Y-15410500D01*
X17973928Y-15396214D01*
X18016786Y-15396214D01*
X18045357Y-15410500D01*
X18159643Y-15710500D02*
X18173928Y-15696214D01*
X18202500Y-15653357D01*
X18216786Y-15624786D01*
X18231071Y-15581929D01*
X18245357Y-15510500D01*
X18245357Y-15453357D01*
X18231071Y-15381929D01*
X18216786Y-15339071D01*
X18202500Y-15310500D01*
X18173928Y-15267643D01*
X18159643Y-15253357D01*
X11227500Y-16016500D02*
X11387500Y-15856500D01*
X11227500Y-15696500D01*
X11067500Y-15856500D01*
X11227500Y-16016500D01*
X11645357Y-15692214D02*
X11831071Y-15692214D01*
X11731071Y-15806500D01*
X11773928Y-15806500D01*
X11802500Y-15820786D01*
X11816786Y-15835071D01*
X11831071Y-15863643D01*
X11831071Y-15935071D01*
X11816786Y-15963643D01*
X11802500Y-15977929D01*
X11773928Y-15992214D01*
X11688214Y-15992214D01*
X11659643Y-15977929D01*
X11645357Y-15963643D01*
X11959643Y-15963643D02*
X11973928Y-15977929D01*
X11959643Y-15992214D01*
X11945357Y-15977929D01*
X11959643Y-15963643D01*
X11959643Y-15992214D01*
X12088214Y-15720786D02*
X12102500Y-15706500D01*
X12131071Y-15692214D01*
X12202500Y-15692214D01*
X12231071Y-15706500D01*
X12245357Y-15720786D01*
X12259643Y-15749357D01*
X12259643Y-15777929D01*
X12245357Y-15820786D01*
X12073928Y-15992214D01*
X12259643Y-15992214D01*
X12445357Y-15692214D02*
X12473928Y-15692214D01*
X12502500Y-15706500D01*
X12516786Y-15720786D01*
X12531071Y-15749357D01*
X12545357Y-15806500D01*
X12545357Y-15877929D01*
X12531071Y-15935071D01*
X12516786Y-15963643D01*
X12502500Y-15977929D01*
X12473928Y-15992214D01*
X12445357Y-15992214D01*
X12416786Y-15977929D01*
X12402500Y-15963643D01*
X12388214Y-15935071D01*
X12373928Y-15877929D01*
X12373928Y-15806500D01*
X12388214Y-15749357D01*
X12402500Y-15720786D01*
X12416786Y-15706500D01*
X12445357Y-15692214D01*
X12673928Y-15992214D02*
X12673928Y-15792214D01*
X12673928Y-15820786D02*
X12688214Y-15806500D01*
X12716786Y-15792214D01*
X12759643Y-15792214D01*
X12788214Y-15806500D01*
X12802500Y-15835071D01*
X12802500Y-15992214D01*
X12802500Y-15835071D02*
X12816786Y-15806500D01*
X12845357Y-15792214D01*
X12888214Y-15792214D01*
X12916786Y-15806500D01*
X12931071Y-15835071D01*
X12931071Y-15992214D01*
X13073928Y-15992214D02*
X13073928Y-15792214D01*
X13073928Y-15820786D02*
X13088214Y-15806500D01*
X13116786Y-15792214D01*
X13159643Y-15792214D01*
X13188214Y-15806500D01*
X13202500Y-15835071D01*
X13202500Y-15992214D01*
X13202500Y-15835071D02*
X13216786Y-15806500D01*
X13245357Y-15792214D01*
X13288214Y-15792214D01*
X13316786Y-15806500D01*
X13331071Y-15835071D01*
X13331071Y-15992214D01*
X13916786Y-15677929D02*
X13659643Y-16063643D01*
X14302500Y-15692214D02*
X14331071Y-15692214D01*
X14359643Y-15706500D01*
X14373928Y-15720786D01*
X14388214Y-15749357D01*
X14402500Y-15806500D01*
X14402500Y-15877929D01*
X14388214Y-15935071D01*
X14373928Y-15963643D01*
X14359643Y-15977929D01*
X14331071Y-15992214D01*
X14302500Y-15992214D01*
X14273928Y-15977929D01*
X14259643Y-15963643D01*
X14245357Y-15935071D01*
X14231071Y-15877929D01*
X14231071Y-15806500D01*
X14245357Y-15749357D01*
X14259643Y-15720786D01*
X14273928Y-15706500D01*
X14302500Y-15692214D01*
X14531071Y-15963643D02*
X14545357Y-15977929D01*
X14531071Y-15992214D01*
X14516786Y-15977929D01*
X14531071Y-15963643D01*
X14531071Y-15992214D01*
X14831071Y-15992214D02*
X14659643Y-15992214D01*
X14745357Y-15992214D02*
X14745357Y-15692214D01*
X14716786Y-15735071D01*
X14688214Y-15763643D01*
X14659643Y-15777929D01*
X14945357Y-15720786D02*
X14959643Y-15706500D01*
X14988214Y-15692214D01*
X15059643Y-15692214D01*
X15088214Y-15706500D01*
X15102500Y-15720786D01*
X15116786Y-15749357D01*
X15116786Y-15777929D01*
X15102500Y-15820786D01*
X14931071Y-15992214D01*
X15116786Y-15992214D01*
X15373928Y-15692214D02*
X15316786Y-15692214D01*
X15288214Y-15706500D01*
X15273928Y-15720786D01*
X15245357Y-15763643D01*
X15231071Y-15820786D01*
X15231071Y-15935071D01*
X15245357Y-15963643D01*
X15259643Y-15977929D01*
X15288214Y-15992214D01*
X15345357Y-15992214D01*
X15373928Y-15977929D01*
X15388214Y-15963643D01*
X15402500Y-15935071D01*
X15402500Y-15863643D01*
X15388214Y-15835071D01*
X15373928Y-15820786D01*
X15345357Y-15806500D01*
X15288214Y-15806500D01*
X15259643Y-15820786D01*
X15245357Y-15835071D01*
X15231071Y-15863643D01*
X15516786Y-15692214D02*
X15516786Y-15749357D01*
X15631071Y-15692214D02*
X15631071Y-15749357D01*
X16073928Y-16106500D02*
X16059643Y-16092214D01*
X16031071Y-16049357D01*
X16016786Y-16020786D01*
X16002500Y-15977929D01*
X15988214Y-15906500D01*
X15988214Y-15849357D01*
X16002500Y-15777929D01*
X16016786Y-15735071D01*
X16031071Y-15706500D01*
X16059643Y-15663643D01*
X16073928Y-15649357D01*
X16316786Y-15792214D02*
X16316786Y-15992214D01*
X16245357Y-15677929D02*
X16173928Y-15892214D01*
X16359643Y-15892214D01*
X16702500Y-15992214D02*
X16702500Y-15692214D01*
X16831071Y-15992214D02*
X16831071Y-15835071D01*
X16816786Y-15806500D01*
X16788214Y-15792214D01*
X16745357Y-15792214D01*
X16716786Y-15806500D01*
X16702500Y-15820786D01*
X17016786Y-15992214D02*
X16988214Y-15977929D01*
X16973928Y-15963643D01*
X16959643Y-15935071D01*
X16959643Y-15849357D01*
X16973928Y-15820786D01*
X16988214Y-15806500D01*
X17016786Y-15792214D01*
X17059643Y-15792214D01*
X17088214Y-15806500D01*
X17102500Y-15820786D01*
X17116786Y-15849357D01*
X17116786Y-15935071D01*
X17102500Y-15963643D01*
X17088214Y-15977929D01*
X17059643Y-15992214D01*
X17016786Y-15992214D01*
X17288214Y-15992214D02*
X17259643Y-15977929D01*
X17245357Y-15949357D01*
X17245357Y-15692214D01*
X17516786Y-15977929D02*
X17488214Y-15992214D01*
X17431071Y-15992214D01*
X17402500Y-15977929D01*
X17388214Y-15949357D01*
X17388214Y-15835071D01*
X17402500Y-15806500D01*
X17431071Y-15792214D01*
X17488214Y-15792214D01*
X17516786Y-15806500D01*
X17531071Y-15835071D01*
X17531071Y-15863643D01*
X17388214Y-15892214D01*
X17645357Y-15977929D02*
X17673928Y-15992214D01*
X17731071Y-15992214D01*
X17759643Y-15977929D01*
X17773928Y-15949357D01*
X17773928Y-15935071D01*
X17759643Y-15906500D01*
X17731071Y-15892214D01*
X17688214Y-15892214D01*
X17659643Y-15877929D01*
X17645357Y-15849357D01*
X17645357Y-15835071D01*
X17659643Y-15806500D01*
X17688214Y-15792214D01*
X17731071Y-15792214D01*
X17759643Y-15806500D01*
X17873928Y-16106500D02*
X17888214Y-16092214D01*
X17916786Y-16049357D01*
X17931071Y-16020786D01*
X17945357Y-15977929D01*
X17959643Y-15906500D01*
X17959643Y-15849357D01*
X17945357Y-15777929D01*
X17931071Y-15735071D01*
X17916786Y-15706500D01*
X17888214Y-15663643D01*
X17873928Y-15649357D01*
X18416786Y-16106500D02*
X18402500Y-16092214D01*
X18373928Y-16049357D01*
X18359643Y-16020786D01*
X18345357Y-15977929D01*
X18331071Y-15906500D01*
X18331071Y-15849357D01*
X18345357Y-15777929D01*
X18359643Y-15735071D01*
X18373928Y-15706500D01*
X18402500Y-15663643D01*
X18416786Y-15649357D01*
X18531071Y-15792214D02*
X18531071Y-15992214D01*
X18531071Y-15820786D02*
X18545357Y-15806500D01*
X18573928Y-15792214D01*
X18616786Y-15792214D01*
X18645357Y-15806500D01*
X18659643Y-15835071D01*
X18659643Y-15992214D01*
X18845357Y-15992214D02*
X18816786Y-15977929D01*
X18802500Y-15963643D01*
X18788214Y-15935071D01*
X18788214Y-15849357D01*
X18802500Y-15820786D01*
X18816786Y-15806500D01*
X18845357Y-15792214D01*
X18888214Y-15792214D01*
X18916786Y-15806500D01*
X18931071Y-15820786D01*
X18945357Y-15849357D01*
X18945357Y-15935071D01*
X18931071Y-15963643D01*
X18916786Y-15977929D01*
X18888214Y-15992214D01*
X18845357Y-15992214D01*
X19031071Y-15792214D02*
X19145357Y-15792214D01*
X19073928Y-15692214D02*
X19073928Y-15949357D01*
X19088214Y-15977929D01*
X19116786Y-15992214D01*
X19145357Y-15992214D01*
X19473928Y-15792214D02*
X19473928Y-16092214D01*
X19473928Y-15806500D02*
X19502500Y-15792214D01*
X19559643Y-15792214D01*
X19588214Y-15806500D01*
X19602500Y-15820786D01*
X19616786Y-15849357D01*
X19616786Y-15935071D01*
X19602500Y-15963643D01*
X19588214Y-15977929D01*
X19559643Y-15992214D01*
X19502500Y-15992214D01*
X19473928Y-15977929D01*
X19788214Y-15992214D02*
X19759643Y-15977929D01*
X19745357Y-15949357D01*
X19745357Y-15692214D01*
X20031071Y-15992214D02*
X20031071Y-15835071D01*
X20016786Y-15806500D01*
X19988214Y-15792214D01*
X19931071Y-15792214D01*
X19902500Y-15806500D01*
X20031071Y-15977929D02*
X20002500Y-15992214D01*
X19931071Y-15992214D01*
X19902500Y-15977929D01*
X19888214Y-15949357D01*
X19888214Y-15920786D01*
X19902500Y-15892214D01*
X19931071Y-15877929D01*
X20002500Y-15877929D01*
X20031071Y-15863643D01*
X20131071Y-15792214D02*
X20245357Y-15792214D01*
X20173928Y-15692214D02*
X20173928Y-15949357D01*
X20188214Y-15977929D01*
X20216786Y-15992214D01*
X20245357Y-15992214D01*
X20459643Y-15977929D02*
X20431071Y-15992214D01*
X20373928Y-15992214D01*
X20345357Y-15977929D01*
X20331071Y-15949357D01*
X20331071Y-15835071D01*
X20345357Y-15806500D01*
X20373928Y-15792214D01*
X20431071Y-15792214D01*
X20459643Y-15806500D01*
X20473928Y-15835071D01*
X20473928Y-15863643D01*
X20331071Y-15892214D01*
X20731071Y-15992214D02*
X20731071Y-15692214D01*
X20731071Y-15977929D02*
X20702500Y-15992214D01*
X20645357Y-15992214D01*
X20616786Y-15977929D01*
X20602500Y-15963643D01*
X20588214Y-15935071D01*
X20588214Y-15849357D01*
X20602500Y-15820786D01*
X20616786Y-15806500D01*
X20645357Y-15792214D01*
X20702500Y-15792214D01*
X20731071Y-15806500D01*
X20845357Y-16106500D02*
X20859643Y-16092214D01*
X20888214Y-16049357D01*
X20902500Y-16020786D01*
X20916786Y-15977929D01*
X20931071Y-15906500D01*
X20931071Y-15849357D01*
X20916786Y-15777929D01*
X20902500Y-15735071D01*
X20888214Y-15706500D01*
X20859643Y-15663643D01*
X20845357Y-15649357D01*
M02*
