M48
; DRILL file {KiCad 5.99.0-unknown-c3175b4~86~ubuntu16.04.1} date lun 02 dic 2019 17:53:15 CET
; FORMAT={-:-/ absolute / metric / decimal}
; #@! TF.CreationDate,2019-12-02T17:53:15+01:00
; #@! TF.GenerationSoftware,Kicad,Pcbnew,5.99.0-unknown-c3175b4~86~ubuntu16.04.1
FMAT,2
METRIC
T1C0.400
T2C0.800
T3C1.016
T4C1.200
T5C3.200
%
G90
G05
T1
X131.76Y-108.07
X134.1Y-108.37
X134.89Y-109.01
X137.58Y-110.03
X137.61Y-108.08
X138.82Y-109.1
X142.8Y-106.33
X148.39Y-81.18
X150.24Y-104.56
X151.892Y-98.298
X153.26Y-106.27
X156.2Y-108.59
X157.1Y-115.15
X157.78Y-107.53
X158.62Y-106.27
X158.98Y-109.4
X158.98Y-114.19
X159.29Y-105.27
X160.47Y-109.4
X161.73Y-116.44
X161.93Y-105.28
X162.92Y-114.2
X164.22Y-88.19
X165.35Y-116.4
X165.62Y-109.59
X168.98Y-116.47
X170.98Y-109.69
X173.78Y-91.42
T2
X123.76Y-86.63
X123.76Y-101.87
X126.3Y-86.63
X126.3Y-101.87
X128.84Y-86.63
X128.84Y-101.87
X131.38Y-86.63
X131.38Y-101.87
X133.92Y-86.63
X133.92Y-101.87
X136.46Y-86.63
X136.46Y-101.87
X139.0Y-86.63
X139.0Y-101.87
X141.54Y-86.63
X141.54Y-101.87
X144.08Y-86.63
X144.08Y-101.87
X146.62Y-86.63
X146.62Y-101.87
X149.16Y-86.63
X149.16Y-101.87
X151.7Y-86.63
X151.7Y-101.87
X154.24Y-86.63
X154.24Y-101.87
X156.78Y-86.63
X156.78Y-101.87
X159.32Y-86.63
X159.32Y-101.87
T3
X138.27Y-75.77
X138.27Y-78.31
X140.81Y-75.77
X140.81Y-78.31
X143.35Y-75.77
X143.35Y-78.31
X145.89Y-75.77
X145.89Y-78.31
X148.43Y-75.77
X148.43Y-78.31
X150.97Y-75.77
X150.97Y-78.31
X153.51Y-75.77
X153.51Y-78.31
T4
X156.71Y-124.86
X160.21Y-124.86
X163.71Y-124.86
X167.21Y-124.86
X170.71Y-124.86
X120.47Y-124.62
X123.97Y-124.62
X127.47Y-124.62
X130.97Y-124.62
X134.47Y-124.62
X137.97Y-124.62
X141.47Y-124.62
X144.97Y-124.62
T5
X175.91Y-81.71
X175.92Y-107.15
X118.39Y-81.49
X118.37Y-106.75
T0
M30
