G04 #@! TF.GenerationSoftware,KiCad,Pcbnew,5.99.0-unknown-c3175b4~86~ubuntu16.04.1*
G04 #@! TF.CreationDate,2019-12-02T17:53:18+01:00*
G04 #@! TF.ProjectId,IntAna,496e7441-6e61-42e6-9b69-6361645f7063,rev?*
G04 #@! TF.SameCoordinates,Original*
G04 #@! TF.FileFunction,Legend,Top*
G04 #@! TF.FilePolarity,Positive*
%FSLAX46Y46*%
G04 Gerber Fmt 4.6, Leading zero omitted, Abs format (unit mm)*
G04 Created by KiCad (PCBNEW 5.99.0-unknown-c3175b4~86~ubuntu16.04.1) date 2019-12-02 17:53:18*
%MOMM*%
%LPD*%
G04 APERTURE LIST*
%ADD10C,0.150000*%
%ADD11C,0.300000*%
%ADD12C,0.120000*%
%ADD13C,0.010000*%
G04 APERTURE END LIST*
D10*
X121511904Y-83802380D02*
X121178571Y-83326190D01*
X120940476Y-83802380D02*
X120940476Y-82802380D01*
X121321428Y-82802380D01*
X121416666Y-82850000D01*
X121464285Y-82897619D01*
X121511904Y-82992857D01*
X121511904Y-83135714D01*
X121464285Y-83230952D01*
X121416666Y-83278571D01*
X121321428Y-83326190D01*
X120940476Y-83326190D01*
X121940476Y-82802380D02*
X121940476Y-83611904D01*
X121988095Y-83707142D01*
X122035714Y-83754761D01*
X122130952Y-83802380D01*
X122321428Y-83802380D01*
X122416666Y-83754761D01*
X122464285Y-83707142D01*
X122511904Y-83611904D01*
X122511904Y-82802380D01*
X122988095Y-83802380D02*
X122988095Y-82802380D01*
X123559523Y-83802380D01*
X123559523Y-82802380D01*
X131670000Y-83802380D02*
X131670000Y-82802380D01*
X131908095Y-82802380D01*
X132050952Y-82850000D01*
X132146190Y-82945238D01*
X132193809Y-83040476D01*
X132241428Y-83230952D01*
X132241428Y-83373809D01*
X132193809Y-83564285D01*
X132146190Y-83659523D01*
X132050952Y-83754761D01*
X131908095Y-83802380D01*
X131670000Y-83802380D01*
X132622380Y-83516666D02*
X133098571Y-83516666D01*
X132527142Y-83802380D02*
X132860476Y-82802380D01*
X133193809Y-83802380D01*
X133384285Y-82802380D02*
X133955714Y-82802380D01*
X133670000Y-83802380D02*
X133670000Y-82802380D01*
X134241428Y-83516666D02*
X134717619Y-83516666D01*
X134146190Y-83802380D02*
X134479523Y-82802380D01*
X134812857Y-83802380D01*
X165053333Y-86832380D02*
X164481904Y-86832380D01*
X164767619Y-86832380D02*
X164767619Y-85832380D01*
X164672380Y-85975238D01*
X164577142Y-86070476D01*
X164481904Y-86118095D01*
X165434285Y-85927619D02*
X165481904Y-85880000D01*
X165577142Y-85832380D01*
X165815238Y-85832380D01*
X165910476Y-85880000D01*
X165958095Y-85927619D01*
X166005714Y-86022857D01*
X166005714Y-86118095D01*
X165958095Y-86260952D01*
X165386666Y-86832380D01*
X166005714Y-86832380D01*
X166624761Y-85832380D02*
X166720000Y-85832380D01*
X166815238Y-85880000D01*
X166862857Y-85927619D01*
X166910476Y-86022857D01*
X166958095Y-86213333D01*
X166958095Y-86451428D01*
X166910476Y-86641904D01*
X166862857Y-86737142D01*
X166815238Y-86784761D01*
X166720000Y-86832380D01*
X166624761Y-86832380D01*
X166529523Y-86784761D01*
X166481904Y-86737142D01*
X166434285Y-86641904D01*
X166386666Y-86451428D01*
X166386666Y-86213333D01*
X166434285Y-86022857D01*
X166481904Y-85927619D01*
X166529523Y-85880000D01*
X166624761Y-85832380D01*
X167958095Y-86832380D02*
X167624761Y-86356190D01*
X167386666Y-86832380D02*
X167386666Y-85832380D01*
X167767619Y-85832380D01*
X167862857Y-85880000D01*
X167910476Y-85927619D01*
X167958095Y-86022857D01*
X167958095Y-86165714D01*
X167910476Y-86260952D01*
X167862857Y-86308571D01*
X167767619Y-86356190D01*
X167386666Y-86356190D01*
D11*
X164882619Y-80855476D02*
X164465952Y-80260238D01*
X164168333Y-80855476D02*
X164168333Y-79605476D01*
X164644523Y-79605476D01*
X164763571Y-79665000D01*
X164823095Y-79724523D01*
X164882619Y-79843571D01*
X164882619Y-80022142D01*
X164823095Y-80141190D01*
X164763571Y-80200714D01*
X164644523Y-80260238D01*
X164168333Y-80260238D01*
X165954047Y-80855476D02*
X165954047Y-80200714D01*
X165894523Y-80081666D01*
X165775476Y-80022142D01*
X165537380Y-80022142D01*
X165418333Y-80081666D01*
X165954047Y-80795952D02*
X165835000Y-80855476D01*
X165537380Y-80855476D01*
X165418333Y-80795952D01*
X165358809Y-80676904D01*
X165358809Y-80557857D01*
X165418333Y-80438809D01*
X165537380Y-80379285D01*
X165835000Y-80379285D01*
X165954047Y-80319761D01*
X167085000Y-80855476D02*
X167085000Y-79605476D01*
X167085000Y-80795952D02*
X166965952Y-80855476D01*
X166727857Y-80855476D01*
X166608809Y-80795952D01*
X166549285Y-80736428D01*
X166489761Y-80617380D01*
X166489761Y-80260238D01*
X166549285Y-80141190D01*
X166608809Y-80081666D01*
X166727857Y-80022142D01*
X166965952Y-80022142D01*
X167085000Y-80081666D01*
X167680238Y-80855476D02*
X167680238Y-80022142D01*
X167680238Y-79605476D02*
X167620714Y-79665000D01*
X167680238Y-79724523D01*
X167739761Y-79665000D01*
X167680238Y-79605476D01*
X167680238Y-79724523D01*
X168454047Y-80855476D02*
X168335000Y-80795952D01*
X168275476Y-80736428D01*
X168215952Y-80617380D01*
X168215952Y-80260238D01*
X168275476Y-80141190D01*
X168335000Y-80081666D01*
X168454047Y-80022142D01*
X168632619Y-80022142D01*
X168751666Y-80081666D01*
X168811190Y-80141190D01*
X168870714Y-80260238D01*
X168870714Y-80617380D01*
X168811190Y-80736428D01*
X168751666Y-80795952D01*
X168632619Y-80855476D01*
X168454047Y-80855476D01*
X169882619Y-80795952D02*
X169763571Y-80855476D01*
X169525476Y-80855476D01*
X169406428Y-80795952D01*
X169346904Y-80676904D01*
X169346904Y-80200714D01*
X169406428Y-80081666D01*
X169525476Y-80022142D01*
X169763571Y-80022142D01*
X169882619Y-80081666D01*
X169942142Y-80200714D01*
X169942142Y-80319761D01*
X169346904Y-80438809D01*
X170656428Y-80855476D02*
X170537380Y-80795952D01*
X170477857Y-80676904D01*
X170477857Y-79605476D01*
X170954047Y-80022142D02*
X171430238Y-80022142D01*
X171132619Y-80855476D02*
X171132619Y-79784047D01*
X171192142Y-79665000D01*
X171311190Y-79605476D01*
X171430238Y-79605476D01*
D10*
X122276666Y-73467380D02*
X122467142Y-73467380D01*
X122562380Y-73515000D01*
X122657619Y-73610238D01*
X122705238Y-73800714D01*
X122705238Y-74134047D01*
X122657619Y-74324523D01*
X122562380Y-74419761D01*
X122467142Y-74467380D01*
X122276666Y-74467380D01*
X122181428Y-74419761D01*
X122086190Y-74324523D01*
X122038571Y-74134047D01*
X122038571Y-73800714D01*
X122086190Y-73610238D01*
X122181428Y-73515000D01*
X122276666Y-73467380D01*
X123133809Y-73800714D02*
X123133809Y-74800714D01*
X123133809Y-73848333D02*
X123229047Y-73800714D01*
X123419523Y-73800714D01*
X123514761Y-73848333D01*
X123562380Y-73895952D01*
X123610000Y-73991190D01*
X123610000Y-74276904D01*
X123562380Y-74372142D01*
X123514761Y-74419761D01*
X123419523Y-74467380D01*
X123229047Y-74467380D01*
X123133809Y-74419761D01*
X124419523Y-74419761D02*
X124324285Y-74467380D01*
X124133809Y-74467380D01*
X124038571Y-74419761D01*
X123990952Y-74324523D01*
X123990952Y-73943571D01*
X124038571Y-73848333D01*
X124133809Y-73800714D01*
X124324285Y-73800714D01*
X124419523Y-73848333D01*
X124467142Y-73943571D01*
X124467142Y-74038809D01*
X123990952Y-74134047D01*
X124895714Y-73800714D02*
X124895714Y-74467380D01*
X124895714Y-73895952D02*
X124943333Y-73848333D01*
X125038571Y-73800714D01*
X125181428Y-73800714D01*
X125276666Y-73848333D01*
X125324285Y-73943571D01*
X125324285Y-74467380D01*
X125800476Y-74467380D02*
X125800476Y-73467380D01*
X126181428Y-73467380D01*
X126276666Y-73515000D01*
X126324285Y-73562619D01*
X126371904Y-73657857D01*
X126371904Y-73800714D01*
X126324285Y-73895952D01*
X126276666Y-73943571D01*
X126181428Y-73991190D01*
X125800476Y-73991190D01*
X127276666Y-74467380D02*
X126800476Y-74467380D01*
X126800476Y-73467380D01*
X128181428Y-74372142D02*
X128133809Y-74419761D01*
X127990952Y-74467380D01*
X127895714Y-74467380D01*
X127752857Y-74419761D01*
X127657619Y-74324523D01*
X127610000Y-74229285D01*
X127562380Y-74038809D01*
X127562380Y-73895952D01*
X127610000Y-73705476D01*
X127657619Y-73610238D01*
X127752857Y-73515000D01*
X127895714Y-73467380D01*
X127990952Y-73467380D01*
X128133809Y-73515000D01*
X128181428Y-73562619D01*
X120824285Y-76077380D02*
X120824285Y-75077380D01*
X121300476Y-75410714D02*
X121300476Y-76077380D01*
X121300476Y-75505952D02*
X121348095Y-75458333D01*
X121443333Y-75410714D01*
X121586190Y-75410714D01*
X121681428Y-75458333D01*
X121729047Y-75553571D01*
X121729047Y-76077380D01*
X122062380Y-75410714D02*
X122443333Y-75410714D01*
X122205238Y-75077380D02*
X122205238Y-75934523D01*
X122252857Y-76029761D01*
X122348095Y-76077380D01*
X122443333Y-76077380D01*
X123490952Y-75791666D02*
X123967142Y-75791666D01*
X123395714Y-76077380D02*
X123729047Y-75077380D01*
X124062380Y-76077380D01*
X124395714Y-75410714D02*
X124395714Y-76077380D01*
X124395714Y-75505952D02*
X124443333Y-75458333D01*
X124538571Y-75410714D01*
X124681428Y-75410714D01*
X124776666Y-75458333D01*
X124824285Y-75553571D01*
X124824285Y-76077380D01*
X125729047Y-76077380D02*
X125729047Y-75553571D01*
X125681428Y-75458333D01*
X125586190Y-75410714D01*
X125395714Y-75410714D01*
X125300476Y-75458333D01*
X125729047Y-76029761D02*
X125633809Y-76077380D01*
X125395714Y-76077380D01*
X125300476Y-76029761D01*
X125252857Y-75934523D01*
X125252857Y-75839285D01*
X125300476Y-75744047D01*
X125395714Y-75696428D01*
X125633809Y-75696428D01*
X125729047Y-75648809D01*
X126348095Y-76077380D02*
X126252857Y-76029761D01*
X126205238Y-75934523D01*
X126205238Y-75077380D01*
X126871904Y-76077380D02*
X126776666Y-76029761D01*
X126729047Y-75982142D01*
X126681428Y-75886904D01*
X126681428Y-75601190D01*
X126729047Y-75505952D01*
X126776666Y-75458333D01*
X126871904Y-75410714D01*
X127014761Y-75410714D01*
X127110000Y-75458333D01*
X127157619Y-75505952D01*
X127205238Y-75601190D01*
X127205238Y-75886904D01*
X127157619Y-75982142D01*
X127110000Y-76029761D01*
X127014761Y-76077380D01*
X126871904Y-76077380D01*
X128062380Y-75410714D02*
X128062380Y-76220238D01*
X128014761Y-76315476D01*
X127967142Y-76363095D01*
X127871904Y-76410714D01*
X127729047Y-76410714D01*
X127633809Y-76363095D01*
X128062380Y-76029761D02*
X127967142Y-76077380D01*
X127776666Y-76077380D01*
X127681428Y-76029761D01*
X127633809Y-75982142D01*
X127586190Y-75886904D01*
X127586190Y-75601190D01*
X127633809Y-75505952D01*
X127681428Y-75458333D01*
X127776666Y-75410714D01*
X127967142Y-75410714D01*
X128062380Y-75458333D01*
X128538571Y-76077380D02*
X128538571Y-75410714D01*
X128538571Y-75077380D02*
X128490952Y-75125000D01*
X128538571Y-75172619D01*
X128586190Y-75125000D01*
X128538571Y-75077380D01*
X128538571Y-75172619D01*
X129443333Y-76029761D02*
X129348095Y-76077380D01*
X129157619Y-76077380D01*
X129062380Y-76029761D01*
X129014761Y-75982142D01*
X128967142Y-75886904D01*
X128967142Y-75601190D01*
X129014761Y-75505952D01*
X129062380Y-75458333D01*
X129157619Y-75410714D01*
X129348095Y-75410714D01*
X129443333Y-75458333D01*
X167144285Y-128287619D02*
X167191904Y-128240000D01*
X167287142Y-128192380D01*
X167525238Y-128192380D01*
X167620476Y-128240000D01*
X167668095Y-128287619D01*
X167715714Y-128382857D01*
X167715714Y-128478095D01*
X167668095Y-128620952D01*
X167096666Y-129192380D01*
X167715714Y-129192380D01*
X163496666Y-128202380D02*
X164115714Y-128202380D01*
X163782380Y-128583333D01*
X163925238Y-128583333D01*
X164020476Y-128630952D01*
X164068095Y-128678571D01*
X164115714Y-128773809D01*
X164115714Y-129011904D01*
X164068095Y-129107142D01*
X164020476Y-129154761D01*
X163925238Y-129202380D01*
X163639523Y-129202380D01*
X163544285Y-129154761D01*
X163496666Y-129107142D01*
X160410476Y-128615714D02*
X160410476Y-129282380D01*
X160172380Y-128234761D02*
X159934285Y-128949047D01*
X160553333Y-128949047D01*
X171025714Y-129252380D02*
X170454285Y-129252380D01*
X170740000Y-129252380D02*
X170740000Y-128252380D01*
X170644761Y-128395238D01*
X170549523Y-128490476D01*
X170454285Y-128538095D01*
X143705714Y-129032380D02*
X143134285Y-129032380D01*
X143420000Y-129032380D02*
X143420000Y-128032380D01*
X143324761Y-128175238D01*
X143229523Y-128270476D01*
X143134285Y-128318095D01*
X135834285Y-128337619D02*
X135881904Y-128290000D01*
X135977142Y-128242380D01*
X136215238Y-128242380D01*
X136310476Y-128290000D01*
X136358095Y-128337619D01*
X136405714Y-128432857D01*
X136405714Y-128528095D01*
X136358095Y-128670952D01*
X135786666Y-129242380D01*
X136405714Y-129242380D01*
X128866666Y-128372380D02*
X129485714Y-128372380D01*
X129152380Y-128753333D01*
X129295238Y-128753333D01*
X129390476Y-128800952D01*
X129438095Y-128848571D01*
X129485714Y-128943809D01*
X129485714Y-129181904D01*
X129438095Y-129277142D01*
X129390476Y-129324761D01*
X129295238Y-129372380D01*
X129009523Y-129372380D01*
X128914285Y-129324761D01*
X128866666Y-129277142D01*
X122390476Y-128485714D02*
X122390476Y-129152380D01*
X122152380Y-128104761D02*
X121914285Y-128819047D01*
X122533333Y-128819047D01*
X120229047Y-128901428D02*
X120990952Y-128901428D01*
X127099047Y-128991428D02*
X127860952Y-128991428D01*
X134059047Y-128991428D02*
X134820952Y-128991428D01*
X141019047Y-128991428D02*
X141780952Y-128991428D01*
X123489047Y-128951428D02*
X124250952Y-128951428D01*
X123870000Y-129332380D02*
X123870000Y-128570476D01*
X130749047Y-128991428D02*
X131510952Y-128991428D01*
X131130000Y-129372380D02*
X131130000Y-128610476D01*
X137539047Y-128991428D02*
X138300952Y-128991428D01*
X137920000Y-129372380D02*
X137920000Y-128610476D01*
X144629047Y-128901428D02*
X145390952Y-128901428D01*
X145010000Y-129282380D02*
X145010000Y-128520476D01*
X127056095Y-131008380D02*
X127056095Y-130008380D01*
X127532285Y-130341714D02*
X127532285Y-131008380D01*
X127532285Y-130436952D02*
X127579904Y-130389333D01*
X127675142Y-130341714D01*
X127818000Y-130341714D01*
X127913238Y-130389333D01*
X127960857Y-130484571D01*
X127960857Y-131008380D01*
X128294190Y-130341714D02*
X128675142Y-130341714D01*
X128437047Y-130008380D02*
X128437047Y-130865523D01*
X128484666Y-130960761D01*
X128579904Y-131008380D01*
X128675142Y-131008380D01*
X130198952Y-130341714D02*
X130198952Y-131008380D01*
X129960857Y-129960761D02*
X129722761Y-130675047D01*
X130341809Y-130675047D01*
X130722761Y-130627428D02*
X131484666Y-130627428D01*
X131913238Y-130103619D02*
X131960857Y-130056000D01*
X132056095Y-130008380D01*
X132294190Y-130008380D01*
X132389428Y-130056000D01*
X132437047Y-130103619D01*
X132484666Y-130198857D01*
X132484666Y-130294095D01*
X132437047Y-130436952D01*
X131865619Y-131008380D01*
X132484666Y-131008380D01*
X133103714Y-130008380D02*
X133198952Y-130008380D01*
X133294190Y-130056000D01*
X133341809Y-130103619D01*
X133389428Y-130198857D01*
X133437047Y-130389333D01*
X133437047Y-130627428D01*
X133389428Y-130817904D01*
X133341809Y-130913142D01*
X133294190Y-130960761D01*
X133198952Y-131008380D01*
X133103714Y-131008380D01*
X133008476Y-130960761D01*
X132960857Y-130913142D01*
X132913238Y-130817904D01*
X132865619Y-130627428D01*
X132865619Y-130389333D01*
X132913238Y-130198857D01*
X132960857Y-130103619D01*
X133008476Y-130056000D01*
X133103714Y-130008380D01*
X133865619Y-131008380D02*
X133865619Y-130341714D01*
X133865619Y-130436952D02*
X133913238Y-130389333D01*
X134008476Y-130341714D01*
X134151333Y-130341714D01*
X134246571Y-130389333D01*
X134294190Y-130484571D01*
X134294190Y-131008380D01*
X134294190Y-130484571D02*
X134341809Y-130389333D01*
X134437047Y-130341714D01*
X134579904Y-130341714D01*
X134675142Y-130389333D01*
X134722761Y-130484571D01*
X134722761Y-131008380D01*
X135151333Y-130722666D02*
X135627523Y-130722666D01*
X135056095Y-131008380D02*
X135389428Y-130008380D01*
X135722761Y-131008380D01*
X155928095Y-128600000D02*
X155832857Y-128552380D01*
X155690000Y-128552380D01*
X155547142Y-128600000D01*
X155451904Y-128695238D01*
X155404285Y-128790476D01*
X155356666Y-128980952D01*
X155356666Y-129123809D01*
X155404285Y-129314285D01*
X155451904Y-129409523D01*
X155547142Y-129504761D01*
X155690000Y-129552380D01*
X155785238Y-129552380D01*
X155928095Y-129504761D01*
X155975714Y-129457142D01*
X155975714Y-129123809D01*
X155785238Y-129123809D01*
X156404285Y-129552380D02*
X156404285Y-128552380D01*
X156975714Y-129552380D01*
X156975714Y-128552380D01*
X157451904Y-129552380D02*
X157451904Y-128552380D01*
X157690000Y-128552380D01*
X157832857Y-128600000D01*
X157928095Y-128695238D01*
X157975714Y-128790476D01*
X158023333Y-128980952D01*
X158023333Y-129123809D01*
X157975714Y-129314285D01*
X157928095Y-129409523D01*
X157832857Y-129504761D01*
X157690000Y-129552380D01*
X157451904Y-129552380D01*
X161504761Y-131008380D02*
X161504761Y-130008380D01*
X161980952Y-130341714D02*
X161980952Y-131008380D01*
X161980952Y-130436952D02*
X162028571Y-130389333D01*
X162123809Y-130341714D01*
X162266666Y-130341714D01*
X162361904Y-130389333D01*
X162409523Y-130484571D01*
X162409523Y-131008380D01*
X162742857Y-130341714D02*
X163123809Y-130341714D01*
X162885714Y-130008380D02*
X162885714Y-130865523D01*
X162933333Y-130960761D01*
X163028571Y-131008380D01*
X163123809Y-131008380D01*
X164409523Y-130008380D02*
X164504761Y-130008380D01*
X164600000Y-130056000D01*
X164647619Y-130103619D01*
X164695238Y-130198857D01*
X164742857Y-130389333D01*
X164742857Y-130627428D01*
X164695238Y-130817904D01*
X164647619Y-130913142D01*
X164600000Y-130960761D01*
X164504761Y-131008380D01*
X164409523Y-131008380D01*
X164314285Y-130960761D01*
X164266666Y-130913142D01*
X164219047Y-130817904D01*
X164171428Y-130627428D01*
X164171428Y-130389333D01*
X164219047Y-130198857D01*
X164266666Y-130103619D01*
X164314285Y-130056000D01*
X164409523Y-130008380D01*
X165171428Y-130627428D02*
X165933333Y-130627428D01*
X166933333Y-131008380D02*
X166361904Y-131008380D01*
X166647619Y-131008380D02*
X166647619Y-130008380D01*
X166552380Y-130151238D01*
X166457142Y-130246476D01*
X166361904Y-130294095D01*
X167552380Y-130008380D02*
X167647619Y-130008380D01*
X167742857Y-130056000D01*
X167790476Y-130103619D01*
X167838095Y-130198857D01*
X167885714Y-130389333D01*
X167885714Y-130627428D01*
X167838095Y-130817904D01*
X167790476Y-130913142D01*
X167742857Y-130960761D01*
X167647619Y-131008380D01*
X167552380Y-131008380D01*
X167457142Y-130960761D01*
X167409523Y-130913142D01*
X167361904Y-130817904D01*
X167314285Y-130627428D01*
X167314285Y-130389333D01*
X167361904Y-130198857D01*
X167409523Y-130103619D01*
X167457142Y-130056000D01*
X167552380Y-130008380D01*
X168171428Y-130008380D02*
X168504761Y-131008380D01*
X168838095Y-130008380D01*
D12*
X137150000Y-81685000D02*
X137450000Y-81685000D01*
X137150000Y-80265000D02*
X137450000Y-80265000D01*
X151404000Y-96438000D02*
X144634000Y-96438000D01*
X151404000Y-100158000D02*
X151404000Y-96438000D01*
X144634000Y-100158000D02*
X151404000Y-100158000D01*
X157520000Y-90155000D02*
X157520000Y-89855000D01*
X156100000Y-90155000D02*
X156100000Y-89855000D01*
X160060000Y-90190000D02*
X160060000Y-89890000D01*
X158640000Y-90190000D02*
X158640000Y-89890000D01*
D10*
X168885000Y-91745000D02*
X167485000Y-91745000D01*
X168885000Y-96845000D02*
X173035000Y-96845000D01*
X168885000Y-91695000D02*
X173035000Y-91695000D01*
X168885000Y-96845000D02*
X168885000Y-96700000D01*
X173035000Y-96845000D02*
X173035000Y-96700000D01*
X173035000Y-91695000D02*
X173035000Y-91840000D01*
X168885000Y-91695000D02*
X168885000Y-91745000D01*
D13*
G36*
X164606873Y-78444679D02*
G01*
X164610606Y-78380905D01*
X164615907Y-78335582D01*
X164623258Y-78303555D01*
X164633143Y-78279668D01*
X164646046Y-78258764D01*
X164651579Y-78250898D01*
X164724969Y-78176595D01*
X164817760Y-78134467D01*
X164925096Y-78122722D01*
X165018886Y-78134505D01*
X165093539Y-78171727D01*
X165159431Y-78240261D01*
X165177577Y-78265648D01*
X165197345Y-78298866D01*
X165210172Y-78334945D01*
X165217510Y-78383098D01*
X165220813Y-78452536D01*
X165221538Y-78544206D01*
X165218263Y-78669830D01*
X165206877Y-78764154D01*
X165185041Y-78834523D01*
X165150419Y-78888286D01*
X165100670Y-78932788D01*
X165097014Y-78935423D01*
X165047985Y-78962377D01*
X164988945Y-78975712D01*
X164913859Y-78979000D01*
X164791795Y-78979000D01*
X164791744Y-79097497D01*
X164790608Y-79163492D01*
X164783686Y-79202202D01*
X164765598Y-79225419D01*
X164730962Y-79244933D01*
X164722645Y-79248920D01*
X164683720Y-79267603D01*
X164653583Y-79279403D01*
X164631174Y-79280422D01*
X164615433Y-79266761D01*
X164605302Y-79234522D01*
X164599723Y-79179804D01*
X164597635Y-79098711D01*
X164597981Y-78987344D01*
X164599700Y-78841802D01*
X164600237Y-78798269D01*
X164602172Y-78648205D01*
X164603904Y-78550042D01*
X164791692Y-78550042D01*
X164792748Y-78633364D01*
X164797438Y-78687880D01*
X164808051Y-78723837D01*
X164826872Y-78751482D01*
X164839650Y-78764965D01*
X164891890Y-78804417D01*
X164938142Y-78807628D01*
X164985867Y-78775049D01*
X164987077Y-78773846D01*
X165006494Y-78748668D01*
X165018307Y-78714447D01*
X165024265Y-78661748D01*
X165026120Y-78581131D01*
X165026154Y-78563271D01*
X165021670Y-78452175D01*
X165007074Y-78375161D01*
X164980650Y-78328147D01*
X164940683Y-78307050D01*
X164917584Y-78304923D01*
X164862762Y-78314900D01*
X164825158Y-78347752D01*
X164802523Y-78407857D01*
X164792606Y-78499598D01*
X164791692Y-78550042D01*
X164603904Y-78550042D01*
X164604222Y-78532060D01*
X164606873Y-78444679D01*
X164606873Y-78444679D01*
G37*
X164606873Y-78444679D02*
X164610606Y-78380905D01*
X164615907Y-78335582D01*
X164623258Y-78303555D01*
X164633143Y-78279668D01*
X164646046Y-78258764D01*
X164651579Y-78250898D01*
X164724969Y-78176595D01*
X164817760Y-78134467D01*
X164925096Y-78122722D01*
X165018886Y-78134505D01*
X165093539Y-78171727D01*
X165159431Y-78240261D01*
X165177577Y-78265648D01*
X165197345Y-78298866D01*
X165210172Y-78334945D01*
X165217510Y-78383098D01*
X165220813Y-78452536D01*
X165221538Y-78544206D01*
X165218263Y-78669830D01*
X165206877Y-78764154D01*
X165185041Y-78834523D01*
X165150419Y-78888286D01*
X165100670Y-78932788D01*
X165097014Y-78935423D01*
X165047985Y-78962377D01*
X164988945Y-78975712D01*
X164913859Y-78979000D01*
X164791795Y-78979000D01*
X164791744Y-79097497D01*
X164790608Y-79163492D01*
X164783686Y-79202202D01*
X164765598Y-79225419D01*
X164730962Y-79244933D01*
X164722645Y-79248920D01*
X164683720Y-79267603D01*
X164653583Y-79279403D01*
X164631174Y-79280422D01*
X164615433Y-79266761D01*
X164605302Y-79234522D01*
X164599723Y-79179804D01*
X164597635Y-79098711D01*
X164597981Y-78987344D01*
X164599700Y-78841802D01*
X164600237Y-78798269D01*
X164602172Y-78648205D01*
X164603904Y-78550042D01*
X164791692Y-78550042D01*
X164792748Y-78633364D01*
X164797438Y-78687880D01*
X164808051Y-78723837D01*
X164826872Y-78751482D01*
X164839650Y-78764965D01*
X164891890Y-78804417D01*
X164938142Y-78807628D01*
X164985867Y-78775049D01*
X164987077Y-78773846D01*
X165006494Y-78748668D01*
X165018307Y-78714447D01*
X165024265Y-78661748D01*
X165026120Y-78581131D01*
X165026154Y-78563271D01*
X165021670Y-78452175D01*
X165007074Y-78375161D01*
X164980650Y-78328147D01*
X164940683Y-78307050D01*
X164917584Y-78304923D01*
X164862762Y-78314900D01*
X164825158Y-78347752D01*
X164802523Y-78407857D01*
X164792606Y-78499598D01*
X164791692Y-78550042D01*
X164603904Y-78550042D01*
X164604222Y-78532060D01*
X164606873Y-78444679D01*
G36*
X166521664Y-78145089D02*
G01*
X166584367Y-78181358D01*
X166627961Y-78217358D01*
X166659845Y-78255075D01*
X166681810Y-78301199D01*
X166695649Y-78362421D01*
X166703153Y-78445431D01*
X166706117Y-78556919D01*
X166706461Y-78637062D01*
X166706461Y-78932065D01*
X166540385Y-79006515D01*
X166530615Y-78683402D01*
X166526579Y-78562729D01*
X166522344Y-78475141D01*
X166517097Y-78414650D01*
X166510025Y-78375268D01*
X166500311Y-78351007D01*
X166487144Y-78335880D01*
X166482919Y-78332606D01*
X166418909Y-78307034D01*
X166354208Y-78317153D01*
X166315692Y-78344000D01*
X166300025Y-78363024D01*
X166289180Y-78387988D01*
X166282288Y-78425834D01*
X166278479Y-78483502D01*
X166276883Y-78567935D01*
X166276615Y-78655928D01*
X166276563Y-78766323D01*
X166274672Y-78844463D01*
X166268345Y-78897165D01*
X166254983Y-78931242D01*
X166231985Y-78953511D01*
X166196754Y-78970787D01*
X166149697Y-78988738D01*
X166098303Y-79008278D01*
X166104421Y-78661485D01*
X166106884Y-78536468D01*
X166109767Y-78444082D01*
X166113898Y-78377881D01*
X166120107Y-78331420D01*
X166129226Y-78298256D01*
X166142083Y-78271944D01*
X166157584Y-78248729D01*
X166232371Y-78174569D01*
X166323628Y-78131684D01*
X166422883Y-78121412D01*
X166521664Y-78145089D01*
X166521664Y-78145089D01*
G37*
X166521664Y-78145089D02*
X166584367Y-78181358D01*
X166627961Y-78217358D01*
X166659845Y-78255075D01*
X166681810Y-78301199D01*
X166695649Y-78362421D01*
X166703153Y-78445431D01*
X166706117Y-78556919D01*
X166706461Y-78637062D01*
X166706461Y-78932065D01*
X166540385Y-79006515D01*
X166530615Y-78683402D01*
X166526579Y-78562729D01*
X166522344Y-78475141D01*
X166517097Y-78414650D01*
X166510025Y-78375268D01*
X166500311Y-78351007D01*
X166487144Y-78335880D01*
X166482919Y-78332606D01*
X166418909Y-78307034D01*
X166354208Y-78317153D01*
X166315692Y-78344000D01*
X166300025Y-78363024D01*
X166289180Y-78387988D01*
X166282288Y-78425834D01*
X166278479Y-78483502D01*
X166276883Y-78567935D01*
X166276615Y-78655928D01*
X166276563Y-78766323D01*
X166274672Y-78844463D01*
X166268345Y-78897165D01*
X166254983Y-78931242D01*
X166231985Y-78953511D01*
X166196754Y-78970787D01*
X166149697Y-78988738D01*
X166098303Y-79008278D01*
X166104421Y-78661485D01*
X166106884Y-78536468D01*
X166109767Y-78444082D01*
X166113898Y-78377881D01*
X166120107Y-78331420D01*
X166129226Y-78298256D01*
X166142083Y-78271944D01*
X166157584Y-78248729D01*
X166232371Y-78174569D01*
X166323628Y-78131684D01*
X166422883Y-78121412D01*
X166521664Y-78145089D01*
G36*
X163857629Y-78387906D02*
G01*
X163864322Y-78339163D01*
X163875960Y-78303288D01*
X163893853Y-78271548D01*
X163897808Y-78265648D01*
X163964267Y-78186104D01*
X164036685Y-78139929D01*
X164124849Y-78121599D01*
X164154787Y-78120703D01*
X164266886Y-78137256D01*
X164358464Y-78185409D01*
X164426049Y-78262905D01*
X164450057Y-78312727D01*
X164468738Y-78387533D01*
X164478301Y-78482052D01*
X164479208Y-78585210D01*
X164471921Y-78685935D01*
X164456903Y-78773153D01*
X164434615Y-78835791D01*
X164427765Y-78846579D01*
X164346632Y-78927105D01*
X164250266Y-78975336D01*
X164145701Y-78989450D01*
X164039968Y-78967629D01*
X164010543Y-78954547D01*
X163953241Y-78914231D01*
X163902950Y-78860775D01*
X163898197Y-78853995D01*
X163878878Y-78821321D01*
X163866108Y-78786394D01*
X163858564Y-78740414D01*
X163854924Y-78674584D01*
X163853865Y-78580105D01*
X163853846Y-78558923D01*
X163853894Y-78552182D01*
X164049231Y-78552182D01*
X164050368Y-78641349D01*
X164054841Y-78700520D01*
X164064246Y-78738741D01*
X164080176Y-78765053D01*
X164088308Y-78773846D01*
X164135058Y-78807261D01*
X164180447Y-78805737D01*
X164226340Y-78776752D01*
X164253712Y-78745809D01*
X164269923Y-78700643D01*
X164279026Y-78629420D01*
X164279651Y-78621114D01*
X164281204Y-78492037D01*
X164264965Y-78396172D01*
X164231152Y-78334107D01*
X164179984Y-78306432D01*
X164161720Y-78304923D01*
X164113760Y-78312513D01*
X164080953Y-78338808D01*
X164060895Y-78389095D01*
X164051178Y-78468664D01*
X164049231Y-78552182D01*
X163853894Y-78552182D01*
X163854574Y-78458249D01*
X163857629Y-78387906D01*
X163857629Y-78387906D01*
G37*
X163857629Y-78387906D02*
X163864322Y-78339163D01*
X163875960Y-78303288D01*
X163893853Y-78271548D01*
X163897808Y-78265648D01*
X163964267Y-78186104D01*
X164036685Y-78139929D01*
X164124849Y-78121599D01*
X164154787Y-78120703D01*
X164266886Y-78137256D01*
X164358464Y-78185409D01*
X164426049Y-78262905D01*
X164450057Y-78312727D01*
X164468738Y-78387533D01*
X164478301Y-78482052D01*
X164479208Y-78585210D01*
X164471921Y-78685935D01*
X164456903Y-78773153D01*
X164434615Y-78835791D01*
X164427765Y-78846579D01*
X164346632Y-78927105D01*
X164250266Y-78975336D01*
X164145701Y-78989450D01*
X164039968Y-78967629D01*
X164010543Y-78954547D01*
X163953241Y-78914231D01*
X163902950Y-78860775D01*
X163898197Y-78853995D01*
X163878878Y-78821321D01*
X163866108Y-78786394D01*
X163858564Y-78740414D01*
X163854924Y-78674584D01*
X163853865Y-78580105D01*
X163853846Y-78558923D01*
X163853894Y-78552182D01*
X164049231Y-78552182D01*
X164050368Y-78641349D01*
X164054841Y-78700520D01*
X164064246Y-78738741D01*
X164080176Y-78765053D01*
X164088308Y-78773846D01*
X164135058Y-78807261D01*
X164180447Y-78805737D01*
X164226340Y-78776752D01*
X164253712Y-78745809D01*
X164269923Y-78700643D01*
X164279026Y-78629420D01*
X164279651Y-78621114D01*
X164281204Y-78492037D01*
X164264965Y-78396172D01*
X164231152Y-78334107D01*
X164179984Y-78306432D01*
X164161720Y-78304923D01*
X164113760Y-78312513D01*
X164080953Y-78338808D01*
X164060895Y-78389095D01*
X164051178Y-78468664D01*
X164049231Y-78552182D01*
X163853894Y-78552182D01*
X163854574Y-78458249D01*
X163857629Y-78387906D01*
G36*
X165384778Y-78291055D02*
G01*
X165430421Y-78225215D01*
X165512802Y-78158681D01*
X165603546Y-78125676D01*
X165696185Y-78123573D01*
X165784254Y-78149745D01*
X165861286Y-78201567D01*
X165920816Y-78276412D01*
X165956378Y-78371654D01*
X165963571Y-78441756D01*
X165962754Y-78471009D01*
X165955914Y-78493407D01*
X165937112Y-78513474D01*
X165900408Y-78535733D01*
X165839862Y-78564709D01*
X165749534Y-78604927D01*
X165749077Y-78605129D01*
X165665933Y-78643210D01*
X165597753Y-78677025D01*
X165551505Y-78702933D01*
X165534158Y-78717295D01*
X165534154Y-78717411D01*
X165549443Y-78748685D01*
X165585196Y-78783157D01*
X165626242Y-78807990D01*
X165647037Y-78812923D01*
X165703770Y-78795862D01*
X165752627Y-78753133D01*
X165776465Y-78706155D01*
X165799397Y-78671522D01*
X165844318Y-78632081D01*
X165897123Y-78598009D01*
X165943710Y-78579480D01*
X165953452Y-78578462D01*
X165964418Y-78595215D01*
X165965079Y-78638039D01*
X165957020Y-78695781D01*
X165941827Y-78757289D01*
X165921086Y-78811409D01*
X165920038Y-78813510D01*
X165857621Y-78900660D01*
X165776726Y-78959939D01*
X165684856Y-78989034D01*
X165589513Y-78985634D01*
X165498198Y-78947428D01*
X165494138Y-78944741D01*
X165422306Y-78879642D01*
X165375073Y-78794705D01*
X165348934Y-78683021D01*
X165345426Y-78651643D01*
X165339213Y-78503536D01*
X165346661Y-78434468D01*
X165534154Y-78434468D01*
X165536590Y-78477552D01*
X165549914Y-78490126D01*
X165583132Y-78480719D01*
X165635494Y-78458483D01*
X165694024Y-78430610D01*
X165695479Y-78429872D01*
X165745089Y-78403777D01*
X165765000Y-78386363D01*
X165760090Y-78368107D01*
X165739416Y-78344120D01*
X165686819Y-78309406D01*
X165630177Y-78306856D01*
X165579369Y-78332119D01*
X165544276Y-78380847D01*
X165534154Y-78434468D01*
X165346661Y-78434468D01*
X165351992Y-78385036D01*
X165384778Y-78291055D01*
X165384778Y-78291055D01*
G37*
X165384778Y-78291055D02*
X165430421Y-78225215D01*
X165512802Y-78158681D01*
X165603546Y-78125676D01*
X165696185Y-78123573D01*
X165784254Y-78149745D01*
X165861286Y-78201567D01*
X165920816Y-78276412D01*
X165956378Y-78371654D01*
X165963571Y-78441756D01*
X165962754Y-78471009D01*
X165955914Y-78493407D01*
X165937112Y-78513474D01*
X165900408Y-78535733D01*
X165839862Y-78564709D01*
X165749534Y-78604927D01*
X165749077Y-78605129D01*
X165665933Y-78643210D01*
X165597753Y-78677025D01*
X165551505Y-78702933D01*
X165534158Y-78717295D01*
X165534154Y-78717411D01*
X165549443Y-78748685D01*
X165585196Y-78783157D01*
X165626242Y-78807990D01*
X165647037Y-78812923D01*
X165703770Y-78795862D01*
X165752627Y-78753133D01*
X165776465Y-78706155D01*
X165799397Y-78671522D01*
X165844318Y-78632081D01*
X165897123Y-78598009D01*
X165943710Y-78579480D01*
X165953452Y-78578462D01*
X165964418Y-78595215D01*
X165965079Y-78638039D01*
X165957020Y-78695781D01*
X165941827Y-78757289D01*
X165921086Y-78811409D01*
X165920038Y-78813510D01*
X165857621Y-78900660D01*
X165776726Y-78959939D01*
X165684856Y-78989034D01*
X165589513Y-78985634D01*
X165498198Y-78947428D01*
X165494138Y-78944741D01*
X165422306Y-78879642D01*
X165375073Y-78794705D01*
X165348934Y-78683021D01*
X165345426Y-78651643D01*
X165339213Y-78503536D01*
X165346661Y-78434468D01*
X165534154Y-78434468D01*
X165536590Y-78477552D01*
X165549914Y-78490126D01*
X165583132Y-78480719D01*
X165635494Y-78458483D01*
X165694024Y-78430610D01*
X165695479Y-78429872D01*
X165745089Y-78403777D01*
X165765000Y-78386363D01*
X165760090Y-78368107D01*
X165739416Y-78344120D01*
X165686819Y-78309406D01*
X165630177Y-78306856D01*
X165579369Y-78332119D01*
X165544276Y-78380847D01*
X165534154Y-78434468D01*
X165346661Y-78434468D01*
X165351992Y-78385036D01*
X165384778Y-78291055D01*
G36*
X167409846Y-78042120D02*
G01*
X167415572Y-78121980D01*
X167422149Y-78169039D01*
X167431262Y-78189566D01*
X167444598Y-78189829D01*
X167448923Y-78187378D01*
X167506444Y-78169636D01*
X167581268Y-78170672D01*
X167657339Y-78188910D01*
X167704918Y-78212505D01*
X167753702Y-78250198D01*
X167789364Y-78292855D01*
X167813845Y-78347057D01*
X167829087Y-78419384D01*
X167837030Y-78516419D01*
X167839616Y-78644742D01*
X167839662Y-78669358D01*
X167839692Y-78945870D01*
X167778161Y-78967320D01*
X167734459Y-78981912D01*
X167710482Y-78988706D01*
X167709777Y-78988769D01*
X167707415Y-78970345D01*
X167705406Y-78919526D01*
X167703901Y-78842993D01*
X167703053Y-78747430D01*
X167702923Y-78689329D01*
X167702651Y-78574771D01*
X167701252Y-78492667D01*
X167697849Y-78436393D01*
X167691567Y-78399326D01*
X167681529Y-78374844D01*
X167666861Y-78356325D01*
X167657702Y-78347406D01*
X167594789Y-78311466D01*
X167526136Y-78308775D01*
X167463848Y-78339170D01*
X167452329Y-78350144D01*
X167435433Y-78370779D01*
X167423714Y-78395256D01*
X167416233Y-78430647D01*
X167412054Y-78484026D01*
X167410237Y-78562466D01*
X167409846Y-78670617D01*
X167409846Y-78945870D01*
X167348315Y-78967320D01*
X167304613Y-78981912D01*
X167280636Y-78988706D01*
X167279930Y-78988769D01*
X167278126Y-78970069D01*
X167276500Y-78917322D01*
X167275117Y-78835557D01*
X167274042Y-78729805D01*
X167273340Y-78605094D01*
X167273077Y-78466455D01*
X167273077Y-77931806D01*
X167400077Y-77878236D01*
X167409846Y-78042120D01*
X167409846Y-78042120D01*
G37*
X167409846Y-78042120D02*
X167415572Y-78121980D01*
X167422149Y-78169039D01*
X167431262Y-78189566D01*
X167444598Y-78189829D01*
X167448923Y-78187378D01*
X167506444Y-78169636D01*
X167581268Y-78170672D01*
X167657339Y-78188910D01*
X167704918Y-78212505D01*
X167753702Y-78250198D01*
X167789364Y-78292855D01*
X167813845Y-78347057D01*
X167829087Y-78419384D01*
X167837030Y-78516419D01*
X167839616Y-78644742D01*
X167839662Y-78669358D01*
X167839692Y-78945870D01*
X167778161Y-78967320D01*
X167734459Y-78981912D01*
X167710482Y-78988706D01*
X167709777Y-78988769D01*
X167707415Y-78970345D01*
X167705406Y-78919526D01*
X167703901Y-78842993D01*
X167703053Y-78747430D01*
X167702923Y-78689329D01*
X167702651Y-78574771D01*
X167701252Y-78492667D01*
X167697849Y-78436393D01*
X167691567Y-78399326D01*
X167681529Y-78374844D01*
X167666861Y-78356325D01*
X167657702Y-78347406D01*
X167594789Y-78311466D01*
X167526136Y-78308775D01*
X167463848Y-78339170D01*
X167452329Y-78350144D01*
X167435433Y-78370779D01*
X167423714Y-78395256D01*
X167416233Y-78430647D01*
X167412054Y-78484026D01*
X167410237Y-78562466D01*
X167409846Y-78670617D01*
X167409846Y-78945870D01*
X167348315Y-78967320D01*
X167304613Y-78981912D01*
X167280636Y-78988706D01*
X167279930Y-78988769D01*
X167278126Y-78970069D01*
X167276500Y-78917322D01*
X167275117Y-78835557D01*
X167274042Y-78729805D01*
X167273340Y-78605094D01*
X167273077Y-78466455D01*
X167273077Y-77931806D01*
X167400077Y-77878236D01*
X167409846Y-78042120D01*
G36*
X168303501Y-78176303D02*
G01*
X168380060Y-78204733D01*
X168380936Y-78205279D01*
X168428285Y-78240127D01*
X168463241Y-78280852D01*
X168487825Y-78333925D01*
X168504062Y-78405814D01*
X168513975Y-78502992D01*
X168519586Y-78631928D01*
X168520077Y-78650298D01*
X168527141Y-78927287D01*
X168467695Y-78958028D01*
X168424681Y-78978802D01*
X168398710Y-78988646D01*
X168397509Y-78988769D01*
X168393014Y-78970606D01*
X168389444Y-78921612D01*
X168387248Y-78850031D01*
X168386769Y-78792068D01*
X168386758Y-78698170D01*
X168382466Y-78639203D01*
X168367503Y-78611079D01*
X168335482Y-78609706D01*
X168280014Y-78630998D01*
X168196269Y-78670136D01*
X168134689Y-78702643D01*
X168103017Y-78730845D01*
X168093706Y-78761582D01*
X168093692Y-78763104D01*
X168109057Y-78816054D01*
X168154547Y-78844660D01*
X168224166Y-78848803D01*
X168274313Y-78848084D01*
X168300754Y-78862527D01*
X168317243Y-78897218D01*
X168326733Y-78941416D01*
X168313057Y-78966493D01*
X168307907Y-78970082D01*
X168259425Y-78984496D01*
X168191531Y-78986537D01*
X168121612Y-78976983D01*
X168072068Y-78959522D01*
X168003570Y-78901364D01*
X167964634Y-78820408D01*
X167956923Y-78757160D01*
X167962807Y-78700111D01*
X167984101Y-78653542D01*
X168026265Y-78612181D01*
X168094759Y-78570755D01*
X168195044Y-78523993D01*
X168201154Y-78521350D01*
X168291490Y-78479617D01*
X168347235Y-78445391D01*
X168371129Y-78414635D01*
X168365913Y-78383311D01*
X168334328Y-78347383D01*
X168324883Y-78339116D01*
X168261617Y-78307058D01*
X168196064Y-78308407D01*
X168138972Y-78339838D01*
X168101093Y-78398024D01*
X168097574Y-78409446D01*
X168063300Y-78464837D01*
X168019809Y-78491518D01*
X167956923Y-78517960D01*
X167956923Y-78449548D01*
X167976052Y-78350110D01*
X168032831Y-78258902D01*
X168062378Y-78228389D01*
X168129542Y-78189228D01*
X168214956Y-78171500D01*
X168303501Y-78176303D01*
X168303501Y-78176303D01*
G37*
X168303501Y-78176303D02*
X168380060Y-78204733D01*
X168380936Y-78205279D01*
X168428285Y-78240127D01*
X168463241Y-78280852D01*
X168487825Y-78333925D01*
X168504062Y-78405814D01*
X168513975Y-78502992D01*
X168519586Y-78631928D01*
X168520077Y-78650298D01*
X168527141Y-78927287D01*
X168467695Y-78958028D01*
X168424681Y-78978802D01*
X168398710Y-78988646D01*
X168397509Y-78988769D01*
X168393014Y-78970606D01*
X168389444Y-78921612D01*
X168387248Y-78850031D01*
X168386769Y-78792068D01*
X168386758Y-78698170D01*
X168382466Y-78639203D01*
X168367503Y-78611079D01*
X168335482Y-78609706D01*
X168280014Y-78630998D01*
X168196269Y-78670136D01*
X168134689Y-78702643D01*
X168103017Y-78730845D01*
X168093706Y-78761582D01*
X168093692Y-78763104D01*
X168109057Y-78816054D01*
X168154547Y-78844660D01*
X168224166Y-78848803D01*
X168274313Y-78848084D01*
X168300754Y-78862527D01*
X168317243Y-78897218D01*
X168326733Y-78941416D01*
X168313057Y-78966493D01*
X168307907Y-78970082D01*
X168259425Y-78984496D01*
X168191531Y-78986537D01*
X168121612Y-78976983D01*
X168072068Y-78959522D01*
X168003570Y-78901364D01*
X167964634Y-78820408D01*
X167956923Y-78757160D01*
X167962807Y-78700111D01*
X167984101Y-78653542D01*
X168026265Y-78612181D01*
X168094759Y-78570755D01*
X168195044Y-78523993D01*
X168201154Y-78521350D01*
X168291490Y-78479617D01*
X168347235Y-78445391D01*
X168371129Y-78414635D01*
X168365913Y-78383311D01*
X168334328Y-78347383D01*
X168324883Y-78339116D01*
X168261617Y-78307058D01*
X168196064Y-78308407D01*
X168138972Y-78339838D01*
X168101093Y-78398024D01*
X168097574Y-78409446D01*
X168063300Y-78464837D01*
X168019809Y-78491518D01*
X167956923Y-78517960D01*
X167956923Y-78449548D01*
X167976052Y-78350110D01*
X168032831Y-78258902D01*
X168062378Y-78228389D01*
X168129542Y-78189228D01*
X168214956Y-78171500D01*
X168303501Y-78176303D01*
G36*
X168963362Y-78174670D02*
G01*
X169052117Y-78207421D01*
X169124022Y-78265350D01*
X169152144Y-78306128D01*
X169182802Y-78380954D01*
X169182165Y-78435058D01*
X169149987Y-78471446D01*
X169138081Y-78477633D01*
X169086675Y-78496925D01*
X169060422Y-78491982D01*
X169051530Y-78459587D01*
X169051077Y-78441692D01*
X169034797Y-78375859D01*
X168992365Y-78329807D01*
X168933388Y-78307564D01*
X168867475Y-78313161D01*
X168813895Y-78342229D01*
X168795798Y-78358810D01*
X168782971Y-78378925D01*
X168774306Y-78409332D01*
X168768696Y-78456788D01*
X168765035Y-78528050D01*
X168762215Y-78629875D01*
X168761484Y-78662115D01*
X168758820Y-78772410D01*
X168755792Y-78850036D01*
X168751250Y-78901396D01*
X168744046Y-78932890D01*
X168733033Y-78950920D01*
X168717060Y-78961888D01*
X168706834Y-78966733D01*
X168663406Y-78983301D01*
X168637842Y-78988769D01*
X168629395Y-78970507D01*
X168624239Y-78915296D01*
X168622346Y-78822499D01*
X168623689Y-78691478D01*
X168624107Y-78671269D01*
X168627058Y-78551733D01*
X168630548Y-78464449D01*
X168635514Y-78402591D01*
X168642893Y-78359336D01*
X168653624Y-78327860D01*
X168668645Y-78301339D01*
X168676502Y-78289975D01*
X168721553Y-78239692D01*
X168771940Y-78200581D01*
X168778108Y-78197167D01*
X168868458Y-78170212D01*
X168963362Y-78174670D01*
X168963362Y-78174670D01*
G37*
X168963362Y-78174670D02*
X169052117Y-78207421D01*
X169124022Y-78265350D01*
X169152144Y-78306128D01*
X169182802Y-78380954D01*
X169182165Y-78435058D01*
X169149987Y-78471446D01*
X169138081Y-78477633D01*
X169086675Y-78496925D01*
X169060422Y-78491982D01*
X169051530Y-78459587D01*
X169051077Y-78441692D01*
X169034797Y-78375859D01*
X168992365Y-78329807D01*
X168933388Y-78307564D01*
X168867475Y-78313161D01*
X168813895Y-78342229D01*
X168795798Y-78358810D01*
X168782971Y-78378925D01*
X168774306Y-78409332D01*
X168768696Y-78456788D01*
X168765035Y-78528050D01*
X168762215Y-78629875D01*
X168761484Y-78662115D01*
X168758820Y-78772410D01*
X168755792Y-78850036D01*
X168751250Y-78901396D01*
X168744046Y-78932890D01*
X168733033Y-78950920D01*
X168717060Y-78961888D01*
X168706834Y-78966733D01*
X168663406Y-78983301D01*
X168637842Y-78988769D01*
X168629395Y-78970507D01*
X168624239Y-78915296D01*
X168622346Y-78822499D01*
X168623689Y-78691478D01*
X168624107Y-78671269D01*
X168627058Y-78551733D01*
X168630548Y-78464449D01*
X168635514Y-78402591D01*
X168642893Y-78359336D01*
X168653624Y-78327860D01*
X168668645Y-78301339D01*
X168676502Y-78289975D01*
X168721553Y-78239692D01*
X168771940Y-78200581D01*
X168778108Y-78197167D01*
X168868458Y-78170212D01*
X168963362Y-78174670D01*
G36*
X169306362Y-78363577D02*
G01*
X169336528Y-78294269D01*
X169383629Y-78240211D01*
X169420312Y-78212505D01*
X169486990Y-78182572D01*
X169564272Y-78168678D01*
X169636110Y-78172397D01*
X169676308Y-78187400D01*
X169692082Y-78191670D01*
X169702550Y-78175750D01*
X169709856Y-78133089D01*
X169715385Y-78068106D01*
X169721437Y-77995732D01*
X169729844Y-77952187D01*
X169745141Y-77927287D01*
X169771864Y-77910845D01*
X169788654Y-77903564D01*
X169852154Y-77876963D01*
X169852081Y-78330289D01*
X169851833Y-78476320D01*
X169850872Y-78588655D01*
X169848794Y-78672678D01*
X169845193Y-78733769D01*
X169839665Y-78777309D01*
X169831804Y-78808679D01*
X169821207Y-78833262D01*
X169813182Y-78847294D01*
X169746728Y-78923388D01*
X169662470Y-78971084D01*
X169569249Y-78988199D01*
X169475900Y-78972546D01*
X169420312Y-78944418D01*
X169361957Y-78895760D01*
X169322186Y-78836333D01*
X169298190Y-78758507D01*
X169287161Y-78654652D01*
X169285599Y-78578462D01*
X169285809Y-78572986D01*
X169422308Y-78572986D01*
X169423141Y-78660355D01*
X169426961Y-78718192D01*
X169435746Y-78756029D01*
X169451474Y-78783398D01*
X169470266Y-78804042D01*
X169533375Y-78843890D01*
X169601137Y-78847295D01*
X169665179Y-78814025D01*
X169670164Y-78809517D01*
X169691439Y-78786067D01*
X169704779Y-78758166D01*
X169712001Y-78716641D01*
X169714923Y-78652316D01*
X169715385Y-78581200D01*
X169714383Y-78491858D01*
X169710238Y-78432258D01*
X169701236Y-78393089D01*
X169685667Y-78365040D01*
X169672902Y-78350144D01*
X169613600Y-78312575D01*
X169545301Y-78308057D01*
X169480110Y-78336753D01*
X169467528Y-78347406D01*
X169446111Y-78371063D01*
X169432744Y-78399251D01*
X169425566Y-78441245D01*
X169422719Y-78506319D01*
X169422308Y-78572986D01*
X169285809Y-78572986D01*
X169290322Y-78455765D01*
X169306362Y-78363577D01*
X169306362Y-78363577D01*
G37*
X169306362Y-78363577D02*
X169336528Y-78294269D01*
X169383629Y-78240211D01*
X169420312Y-78212505D01*
X169486990Y-78182572D01*
X169564272Y-78168678D01*
X169636110Y-78172397D01*
X169676308Y-78187400D01*
X169692082Y-78191670D01*
X169702550Y-78175750D01*
X169709856Y-78133089D01*
X169715385Y-78068106D01*
X169721437Y-77995732D01*
X169729844Y-77952187D01*
X169745141Y-77927287D01*
X169771864Y-77910845D01*
X169788654Y-77903564D01*
X169852154Y-77876963D01*
X169852081Y-78330289D01*
X169851833Y-78476320D01*
X169850872Y-78588655D01*
X169848794Y-78672678D01*
X169845193Y-78733769D01*
X169839665Y-78777309D01*
X169831804Y-78808679D01*
X169821207Y-78833262D01*
X169813182Y-78847294D01*
X169746728Y-78923388D01*
X169662470Y-78971084D01*
X169569249Y-78988199D01*
X169475900Y-78972546D01*
X169420312Y-78944418D01*
X169361957Y-78895760D01*
X169322186Y-78836333D01*
X169298190Y-78758507D01*
X169287161Y-78654652D01*
X169285599Y-78578462D01*
X169285809Y-78572986D01*
X169422308Y-78572986D01*
X169423141Y-78660355D01*
X169426961Y-78718192D01*
X169435746Y-78756029D01*
X169451474Y-78783398D01*
X169470266Y-78804042D01*
X169533375Y-78843890D01*
X169601137Y-78847295D01*
X169665179Y-78814025D01*
X169670164Y-78809517D01*
X169691439Y-78786067D01*
X169704779Y-78758166D01*
X169712001Y-78716641D01*
X169714923Y-78652316D01*
X169715385Y-78581200D01*
X169714383Y-78491858D01*
X169710238Y-78432258D01*
X169701236Y-78393089D01*
X169685667Y-78365040D01*
X169672902Y-78350144D01*
X169613600Y-78312575D01*
X169545301Y-78308057D01*
X169480110Y-78336753D01*
X169467528Y-78347406D01*
X169446111Y-78371063D01*
X169432744Y-78399251D01*
X169425566Y-78441245D01*
X169422719Y-78506319D01*
X169422308Y-78572986D01*
X169285809Y-78572986D01*
X169290322Y-78455765D01*
X169306362Y-78363577D01*
G36*
X170645929Y-78186662D02*
G01*
X170648911Y-78238068D01*
X170651247Y-78316192D01*
X170652749Y-78414857D01*
X170653231Y-78518343D01*
X170653231Y-78868533D01*
X170591401Y-78930363D01*
X170548793Y-78968462D01*
X170511390Y-78983895D01*
X170460270Y-78982918D01*
X170439978Y-78980433D01*
X170376554Y-78973200D01*
X170324095Y-78969055D01*
X170311308Y-78968672D01*
X170268199Y-78971176D01*
X170206544Y-78977462D01*
X170182638Y-78980433D01*
X170123922Y-78985028D01*
X170084464Y-78975046D01*
X170045338Y-78944228D01*
X170031215Y-78930363D01*
X169969385Y-78868533D01*
X169969385Y-78213503D01*
X170019150Y-78190829D01*
X170062002Y-78174034D01*
X170087073Y-78168154D01*
X170093501Y-78186736D01*
X170099509Y-78238655D01*
X170104697Y-78318172D01*
X170108664Y-78419546D01*
X170110577Y-78505192D01*
X170115923Y-78842231D01*
X170162560Y-78848825D01*
X170204976Y-78844214D01*
X170225760Y-78829287D01*
X170231570Y-78801377D01*
X170236530Y-78741925D01*
X170240246Y-78658466D01*
X170242324Y-78558532D01*
X170242624Y-78507104D01*
X170242923Y-78211054D01*
X170304454Y-78189604D01*
X170348004Y-78175020D01*
X170371694Y-78168219D01*
X170372377Y-78168154D01*
X170374754Y-78186642D01*
X170377366Y-78237906D01*
X170379995Y-78315649D01*
X170382421Y-78413574D01*
X170384115Y-78505192D01*
X170389461Y-78842231D01*
X170506692Y-78842231D01*
X170512072Y-78534746D01*
X170517451Y-78227261D01*
X170574601Y-78197707D01*
X170616797Y-78177413D01*
X170641770Y-78168204D01*
X170642491Y-78168154D01*
X170645929Y-78186662D01*
X170645929Y-78186662D01*
G37*
X170645929Y-78186662D02*
X170648911Y-78238068D01*
X170651247Y-78316192D01*
X170652749Y-78414857D01*
X170653231Y-78518343D01*
X170653231Y-78868533D01*
X170591401Y-78930363D01*
X170548793Y-78968462D01*
X170511390Y-78983895D01*
X170460270Y-78982918D01*
X170439978Y-78980433D01*
X170376554Y-78973200D01*
X170324095Y-78969055D01*
X170311308Y-78968672D01*
X170268199Y-78971176D01*
X170206544Y-78977462D01*
X170182638Y-78980433D01*
X170123922Y-78985028D01*
X170084464Y-78975046D01*
X170045338Y-78944228D01*
X170031215Y-78930363D01*
X169969385Y-78868533D01*
X169969385Y-78213503D01*
X170019150Y-78190829D01*
X170062002Y-78174034D01*
X170087073Y-78168154D01*
X170093501Y-78186736D01*
X170099509Y-78238655D01*
X170104697Y-78318172D01*
X170108664Y-78419546D01*
X170110577Y-78505192D01*
X170115923Y-78842231D01*
X170162560Y-78848825D01*
X170204976Y-78844214D01*
X170225760Y-78829287D01*
X170231570Y-78801377D01*
X170236530Y-78741925D01*
X170240246Y-78658466D01*
X170242324Y-78558532D01*
X170242624Y-78507104D01*
X170242923Y-78211054D01*
X170304454Y-78189604D01*
X170348004Y-78175020D01*
X170371694Y-78168219D01*
X170372377Y-78168154D01*
X170374754Y-78186642D01*
X170377366Y-78237906D01*
X170379995Y-78315649D01*
X170382421Y-78413574D01*
X170384115Y-78505192D01*
X170389461Y-78842231D01*
X170506692Y-78842231D01*
X170512072Y-78534746D01*
X170517451Y-78227261D01*
X170574601Y-78197707D01*
X170616797Y-78177413D01*
X170641770Y-78168204D01*
X170642491Y-78168154D01*
X170645929Y-78186662D01*
G36*
X171137333Y-78183528D02*
G01*
X171193590Y-78209117D01*
X171237747Y-78240124D01*
X171270101Y-78274795D01*
X171292438Y-78319520D01*
X171306546Y-78380692D01*
X171314211Y-78464701D01*
X171317220Y-78577940D01*
X171317538Y-78652509D01*
X171317538Y-78943420D01*
X171267773Y-78966095D01*
X171228576Y-78982667D01*
X171209157Y-78988769D01*
X171205442Y-78970610D01*
X171202495Y-78921648D01*
X171200691Y-78850153D01*
X171200308Y-78793385D01*
X171198661Y-78711371D01*
X171194222Y-78646309D01*
X171187740Y-78606467D01*
X171182590Y-78598000D01*
X171147977Y-78606646D01*
X171093640Y-78628823D01*
X171030722Y-78658886D01*
X170970368Y-78691192D01*
X170923721Y-78720098D01*
X170901926Y-78739961D01*
X170901839Y-78740175D01*
X170903714Y-78776935D01*
X170920525Y-78812026D01*
X170950039Y-78840528D01*
X170993116Y-78850061D01*
X171029932Y-78848950D01*
X171082074Y-78848133D01*
X171109444Y-78860349D01*
X171125882Y-78892624D01*
X171127955Y-78898710D01*
X171135081Y-78944739D01*
X171116024Y-78972687D01*
X171066353Y-78986007D01*
X171012697Y-78988470D01*
X170916142Y-78970210D01*
X170866159Y-78944131D01*
X170804429Y-78882868D01*
X170771690Y-78807670D01*
X170768753Y-78728211D01*
X170796424Y-78654167D01*
X170838047Y-78607769D01*
X170879604Y-78581793D01*
X170944922Y-78548907D01*
X171021038Y-78515557D01*
X171033726Y-78510461D01*
X171117333Y-78473565D01*
X171165530Y-78441046D01*
X171181030Y-78408718D01*
X171166550Y-78372394D01*
X171141692Y-78344000D01*
X171082939Y-78309039D01*
X171018293Y-78306417D01*
X170959008Y-78333358D01*
X170916339Y-78387088D01*
X170910739Y-78400950D01*
X170878133Y-78451936D01*
X170830530Y-78489787D01*
X170770461Y-78520850D01*
X170770461Y-78432768D01*
X170773997Y-78378951D01*
X170789156Y-78336534D01*
X170822768Y-78291279D01*
X170855035Y-78256420D01*
X170905209Y-78207062D01*
X170944193Y-78180547D01*
X170986064Y-78169911D01*
X171033460Y-78168154D01*
X171137333Y-78183528D01*
X171137333Y-78183528D01*
G37*
X171137333Y-78183528D02*
X171193590Y-78209117D01*
X171237747Y-78240124D01*
X171270101Y-78274795D01*
X171292438Y-78319520D01*
X171306546Y-78380692D01*
X171314211Y-78464701D01*
X171317220Y-78577940D01*
X171317538Y-78652509D01*
X171317538Y-78943420D01*
X171267773Y-78966095D01*
X171228576Y-78982667D01*
X171209157Y-78988769D01*
X171205442Y-78970610D01*
X171202495Y-78921648D01*
X171200691Y-78850153D01*
X171200308Y-78793385D01*
X171198661Y-78711371D01*
X171194222Y-78646309D01*
X171187740Y-78606467D01*
X171182590Y-78598000D01*
X171147977Y-78606646D01*
X171093640Y-78628823D01*
X171030722Y-78658886D01*
X170970368Y-78691192D01*
X170923721Y-78720098D01*
X170901926Y-78739961D01*
X170901839Y-78740175D01*
X170903714Y-78776935D01*
X170920525Y-78812026D01*
X170950039Y-78840528D01*
X170993116Y-78850061D01*
X171029932Y-78848950D01*
X171082074Y-78848133D01*
X171109444Y-78860349D01*
X171125882Y-78892624D01*
X171127955Y-78898710D01*
X171135081Y-78944739D01*
X171116024Y-78972687D01*
X171066353Y-78986007D01*
X171012697Y-78988470D01*
X170916142Y-78970210D01*
X170866159Y-78944131D01*
X170804429Y-78882868D01*
X170771690Y-78807670D01*
X170768753Y-78728211D01*
X170796424Y-78654167D01*
X170838047Y-78607769D01*
X170879604Y-78581793D01*
X170944922Y-78548907D01*
X171021038Y-78515557D01*
X171033726Y-78510461D01*
X171117333Y-78473565D01*
X171165530Y-78441046D01*
X171181030Y-78408718D01*
X171166550Y-78372394D01*
X171141692Y-78344000D01*
X171082939Y-78309039D01*
X171018293Y-78306417D01*
X170959008Y-78333358D01*
X170916339Y-78387088D01*
X170910739Y-78400950D01*
X170878133Y-78451936D01*
X170830530Y-78489787D01*
X170770461Y-78520850D01*
X170770461Y-78432768D01*
X170773997Y-78378951D01*
X170789156Y-78336534D01*
X170822768Y-78291279D01*
X170855035Y-78256420D01*
X170905209Y-78207062D01*
X170944193Y-78180547D01*
X170986064Y-78169911D01*
X171033460Y-78168154D01*
X171137333Y-78183528D01*
G36*
X171820807Y-78186782D02*
G01*
X171844161Y-78196988D01*
X171899902Y-78241134D01*
X171947569Y-78304967D01*
X171977048Y-78373087D01*
X171981846Y-78406670D01*
X171965760Y-78453556D01*
X171930475Y-78478365D01*
X171892644Y-78493387D01*
X171875321Y-78496155D01*
X171866886Y-78476066D01*
X171850230Y-78432351D01*
X171842923Y-78412598D01*
X171801948Y-78344271D01*
X171742622Y-78310191D01*
X171666552Y-78311239D01*
X171660918Y-78312581D01*
X171620305Y-78331836D01*
X171590448Y-78369375D01*
X171570055Y-78429809D01*
X171557836Y-78517751D01*
X171552500Y-78637813D01*
X171552000Y-78701698D01*
X171551752Y-78802403D01*
X171550126Y-78871054D01*
X171545801Y-78914673D01*
X171537454Y-78940282D01*
X171523765Y-78954903D01*
X171503411Y-78965558D01*
X171502234Y-78966095D01*
X171463038Y-78982667D01*
X171443619Y-78988769D01*
X171440635Y-78970319D01*
X171438081Y-78919323D01*
X171436140Y-78842308D01*
X171434997Y-78745805D01*
X171434769Y-78675184D01*
X171435932Y-78538525D01*
X171440479Y-78434851D01*
X171449999Y-78358108D01*
X171466081Y-78302246D01*
X171490313Y-78261212D01*
X171524286Y-78228954D01*
X171557833Y-78206440D01*
X171638499Y-78176476D01*
X171732381Y-78169718D01*
X171820807Y-78186782D01*
X171820807Y-78186782D01*
G37*
X171820807Y-78186782D02*
X171844161Y-78196988D01*
X171899902Y-78241134D01*
X171947569Y-78304967D01*
X171977048Y-78373087D01*
X171981846Y-78406670D01*
X171965760Y-78453556D01*
X171930475Y-78478365D01*
X171892644Y-78493387D01*
X171875321Y-78496155D01*
X171866886Y-78476066D01*
X171850230Y-78432351D01*
X171842923Y-78412598D01*
X171801948Y-78344271D01*
X171742622Y-78310191D01*
X171666552Y-78311239D01*
X171660918Y-78312581D01*
X171620305Y-78331836D01*
X171590448Y-78369375D01*
X171570055Y-78429809D01*
X171557836Y-78517751D01*
X171552500Y-78637813D01*
X171552000Y-78701698D01*
X171551752Y-78802403D01*
X171550126Y-78871054D01*
X171545801Y-78914673D01*
X171537454Y-78940282D01*
X171523765Y-78954903D01*
X171503411Y-78965558D01*
X171502234Y-78966095D01*
X171463038Y-78982667D01*
X171443619Y-78988769D01*
X171440635Y-78970319D01*
X171438081Y-78919323D01*
X171436140Y-78842308D01*
X171434997Y-78745805D01*
X171434769Y-78675184D01*
X171435932Y-78538525D01*
X171440479Y-78434851D01*
X171449999Y-78358108D01*
X171466081Y-78302246D01*
X171490313Y-78261212D01*
X171524286Y-78228954D01*
X171557833Y-78206440D01*
X171638499Y-78176476D01*
X171732381Y-78169718D01*
X171820807Y-78186782D01*
G36*
X172111032Y-78370710D02*
G01*
X172129460Y-78305167D01*
X172159360Y-78256912D01*
X172203080Y-78218767D01*
X172222141Y-78206440D01*
X172308726Y-78174336D01*
X172403522Y-78172316D01*
X172495224Y-78197838D01*
X172572528Y-78248361D01*
X172609814Y-78293590D01*
X172639353Y-78375663D01*
X172641699Y-78440607D01*
X172636385Y-78527445D01*
X172436115Y-78615103D01*
X172338739Y-78659887D01*
X172275113Y-78695913D01*
X172242029Y-78727117D01*
X172236280Y-78757436D01*
X172254658Y-78790805D01*
X172274923Y-78812923D01*
X172333889Y-78848393D01*
X172398024Y-78850879D01*
X172456926Y-78823235D01*
X172500197Y-78768320D01*
X172507936Y-78748928D01*
X172545006Y-78688364D01*
X172587654Y-78662552D01*
X172646154Y-78640471D01*
X172646154Y-78724184D01*
X172640982Y-78781150D01*
X172620723Y-78829189D01*
X172578262Y-78884346D01*
X172571951Y-78891514D01*
X172524720Y-78940585D01*
X172484121Y-78966920D01*
X172433328Y-78979035D01*
X172391220Y-78983003D01*
X172315902Y-78983991D01*
X172262286Y-78971466D01*
X172228838Y-78952869D01*
X172176268Y-78911975D01*
X172139879Y-78867748D01*
X172116850Y-78812126D01*
X172104359Y-78737047D01*
X172099587Y-78634449D01*
X172099206Y-78582376D01*
X172100501Y-78519948D01*
X172218471Y-78519948D01*
X172219839Y-78553438D01*
X172223249Y-78558923D01*
X172245753Y-78551472D01*
X172294182Y-78531753D01*
X172358908Y-78503718D01*
X172372443Y-78497692D01*
X172454244Y-78456096D01*
X172499312Y-78419538D01*
X172509217Y-78385296D01*
X172485526Y-78350648D01*
X172465960Y-78335339D01*
X172395360Y-78304721D01*
X172329280Y-78309780D01*
X172273959Y-78347151D01*
X172235636Y-78413473D01*
X172223349Y-78466116D01*
X172218471Y-78519948D01*
X172100501Y-78519948D01*
X172101730Y-78460720D01*
X172111032Y-78370710D01*
X172111032Y-78370710D01*
G37*
X172111032Y-78370710D02*
X172129460Y-78305167D01*
X172159360Y-78256912D01*
X172203080Y-78218767D01*
X172222141Y-78206440D01*
X172308726Y-78174336D01*
X172403522Y-78172316D01*
X172495224Y-78197838D01*
X172572528Y-78248361D01*
X172609814Y-78293590D01*
X172639353Y-78375663D01*
X172641699Y-78440607D01*
X172636385Y-78527445D01*
X172436115Y-78615103D01*
X172338739Y-78659887D01*
X172275113Y-78695913D01*
X172242029Y-78727117D01*
X172236280Y-78757436D01*
X172254658Y-78790805D01*
X172274923Y-78812923D01*
X172333889Y-78848393D01*
X172398024Y-78850879D01*
X172456926Y-78823235D01*
X172500197Y-78768320D01*
X172507936Y-78748928D01*
X172545006Y-78688364D01*
X172587654Y-78662552D01*
X172646154Y-78640471D01*
X172646154Y-78724184D01*
X172640982Y-78781150D01*
X172620723Y-78829189D01*
X172578262Y-78884346D01*
X172571951Y-78891514D01*
X172524720Y-78940585D01*
X172484121Y-78966920D01*
X172433328Y-78979035D01*
X172391220Y-78983003D01*
X172315902Y-78983991D01*
X172262286Y-78971466D01*
X172228838Y-78952869D01*
X172176268Y-78911975D01*
X172139879Y-78867748D01*
X172116850Y-78812126D01*
X172104359Y-78737047D01*
X172099587Y-78634449D01*
X172099206Y-78582376D01*
X172100501Y-78519948D01*
X172218471Y-78519948D01*
X172219839Y-78553438D01*
X172223249Y-78558923D01*
X172245753Y-78551472D01*
X172294182Y-78531753D01*
X172358908Y-78503718D01*
X172372443Y-78497692D01*
X172454244Y-78456096D01*
X172499312Y-78419538D01*
X172509217Y-78385296D01*
X172485526Y-78350648D01*
X172465960Y-78335339D01*
X172395360Y-78304721D01*
X172329280Y-78309780D01*
X172273959Y-78347151D01*
X172235636Y-78413473D01*
X172223349Y-78466116D01*
X172218471Y-78519948D01*
X172100501Y-78519948D01*
X172101730Y-78460720D01*
X172111032Y-78370710D01*
G36*
X168389878Y-71837776D02*
G01*
X168495612Y-71838355D01*
X168572132Y-71839922D01*
X168624372Y-71842972D01*
X168657263Y-71847996D01*
X168675737Y-71855489D01*
X168684727Y-71865944D01*
X168689163Y-71879853D01*
X168689594Y-71881654D01*
X168696333Y-71914145D01*
X168708808Y-71978252D01*
X168725719Y-72067151D01*
X168745771Y-72174019D01*
X168767664Y-72292033D01*
X168768429Y-72296178D01*
X168790359Y-72411831D01*
X168810877Y-72514014D01*
X168828659Y-72596598D01*
X168842381Y-72653456D01*
X168850718Y-72678458D01*
X168851116Y-72678901D01*
X168875677Y-72691110D01*
X168926315Y-72711456D01*
X168992095Y-72735545D01*
X168992461Y-72735674D01*
X169075317Y-72766818D01*
X169173000Y-72806491D01*
X169265077Y-72846381D01*
X169269434Y-72848353D01*
X169419407Y-72916420D01*
X169751498Y-72689639D01*
X169853374Y-72620504D01*
X169945657Y-72558697D01*
X170023003Y-72507733D01*
X170080064Y-72471127D01*
X170111495Y-72452394D01*
X170114479Y-72451004D01*
X170137321Y-72457190D01*
X170179982Y-72487035D01*
X170244128Y-72541947D01*
X170331421Y-72623334D01*
X170420535Y-72709922D01*
X170506441Y-72795247D01*
X170583327Y-72873108D01*
X170646564Y-72938697D01*
X170691523Y-72987205D01*
X170713576Y-73013825D01*
X170714396Y-73015195D01*
X170716834Y-73033463D01*
X170707650Y-73063295D01*
X170684574Y-73108721D01*
X170645337Y-73173770D01*
X170587670Y-73262470D01*
X170510795Y-73376657D01*
X170442570Y-73477162D01*
X170381582Y-73567303D01*
X170331356Y-73641849D01*
X170295416Y-73695565D01*
X170277287Y-73723218D01*
X170276146Y-73725095D01*
X170278359Y-73751590D01*
X170295138Y-73803086D01*
X170323142Y-73869851D01*
X170333122Y-73891172D01*
X170376672Y-73986159D01*
X170423134Y-74093937D01*
X170460877Y-74187192D01*
X170488073Y-74256406D01*
X170509675Y-74309006D01*
X170522158Y-74336497D01*
X170523709Y-74338616D01*
X170546668Y-74342124D01*
X170600786Y-74351738D01*
X170678868Y-74366089D01*
X170773719Y-74383807D01*
X170878143Y-74403525D01*
X170984944Y-74423874D01*
X171086926Y-74443486D01*
X171176894Y-74460991D01*
X171247653Y-74475022D01*
X171292006Y-74484209D01*
X171302885Y-74486807D01*
X171314122Y-74493218D01*
X171322605Y-74507697D01*
X171328714Y-74535133D01*
X171332832Y-74580411D01*
X171335341Y-74648420D01*
X171336621Y-74744047D01*
X171337054Y-74872180D01*
X171337077Y-74924701D01*
X171337077Y-75351845D01*
X171234500Y-75372091D01*
X171177431Y-75383070D01*
X171092269Y-75399095D01*
X170989372Y-75418233D01*
X170879096Y-75438551D01*
X170848615Y-75444132D01*
X170746855Y-75463917D01*
X170658205Y-75483373D01*
X170590108Y-75500697D01*
X170550004Y-75514088D01*
X170543323Y-75518079D01*
X170526919Y-75546342D01*
X170503399Y-75601109D01*
X170477316Y-75671588D01*
X170472142Y-75686769D01*
X170437956Y-75780896D01*
X170395523Y-75887101D01*
X170353997Y-75982473D01*
X170353792Y-75982916D01*
X170284640Y-76132525D01*
X170739512Y-76801617D01*
X170447500Y-77094116D01*
X170359180Y-77181170D01*
X170278625Y-77257909D01*
X170210360Y-77320237D01*
X170158908Y-77364056D01*
X170128794Y-77385270D01*
X170124474Y-77386616D01*
X170099111Y-77376016D01*
X170047358Y-77346547D01*
X169974868Y-77301705D01*
X169887294Y-77244984D01*
X169792612Y-77181462D01*
X169696516Y-77116668D01*
X169610837Y-77060287D01*
X169541016Y-77015788D01*
X169492494Y-76986639D01*
X169470782Y-76976308D01*
X169444293Y-76985050D01*
X169394062Y-77008087D01*
X169330451Y-77040631D01*
X169323708Y-77044249D01*
X169238046Y-77087210D01*
X169179306Y-77108279D01*
X169142772Y-77108503D01*
X169123731Y-77088928D01*
X169123620Y-77088654D01*
X169114102Y-77065472D01*
X169091403Y-77010441D01*
X169057282Y-76927822D01*
X169013500Y-76821872D01*
X168961816Y-76696852D01*
X168903992Y-76557020D01*
X168847991Y-76421637D01*
X168786447Y-76272234D01*
X168729939Y-76133832D01*
X168680161Y-76010673D01*
X168638806Y-75907002D01*
X168607568Y-75827059D01*
X168588141Y-75775088D01*
X168582154Y-75755692D01*
X168597168Y-75733443D01*
X168636439Y-75697982D01*
X168688807Y-75658887D01*
X168837941Y-75535245D01*
X168954511Y-75393522D01*
X169037118Y-75236704D01*
X169084366Y-75067775D01*
X169094857Y-74889722D01*
X169087231Y-74807539D01*
X169045682Y-74637031D01*
X168974123Y-74486459D01*
X168876995Y-74357309D01*
X168758734Y-74251064D01*
X168623780Y-74169210D01*
X168476571Y-74113232D01*
X168321544Y-74084615D01*
X168163139Y-74084844D01*
X168005794Y-74115405D01*
X167853946Y-74177782D01*
X167712035Y-74273460D01*
X167652803Y-74327572D01*
X167539203Y-74466520D01*
X167460106Y-74618361D01*
X167414986Y-74778667D01*
X167403316Y-74943012D01*
X167424569Y-75106971D01*
X167478220Y-75266118D01*
X167563740Y-75416025D01*
X167680605Y-75552267D01*
X167811193Y-75658887D01*
X167865588Y-75699642D01*
X167904014Y-75734718D01*
X167917846Y-75755726D01*
X167910603Y-75778635D01*
X167890005Y-75833365D01*
X167857746Y-75915672D01*
X167815521Y-76021315D01*
X167765023Y-76146050D01*
X167707948Y-76285636D01*
X167651854Y-76421670D01*
X167589967Y-76571201D01*
X167532644Y-76709767D01*
X167481644Y-76833107D01*
X167438727Y-76936964D01*
X167405653Y-77017080D01*
X167384181Y-77069195D01*
X167376225Y-77088654D01*
X167357429Y-77108423D01*
X167321074Y-77108365D01*
X167262479Y-77087441D01*
X167176968Y-77044613D01*
X167176292Y-77044249D01*
X167111907Y-77011012D01*
X167059861Y-76986802D01*
X167030512Y-76976404D01*
X167029217Y-76976308D01*
X167007124Y-76986855D01*
X166958348Y-77016184D01*
X166888331Y-77060827D01*
X166802514Y-77117314D01*
X166707388Y-77181462D01*
X166610540Y-77246411D01*
X166523253Y-77302896D01*
X166451181Y-77347421D01*
X166399977Y-77376490D01*
X166375526Y-77386616D01*
X166353010Y-77373307D01*
X166307742Y-77336112D01*
X166244244Y-77279128D01*
X166167039Y-77206449D01*
X166080651Y-77122171D01*
X166052399Y-77094016D01*
X165760287Y-76801416D01*
X165982631Y-76475104D01*
X166050202Y-76374897D01*
X166109507Y-76284963D01*
X166157217Y-76210510D01*
X166190007Y-76156751D01*
X166204548Y-76128894D01*
X166204974Y-76126912D01*
X166197308Y-76100655D01*
X166176689Y-76047837D01*
X166146685Y-75977310D01*
X166125625Y-75930093D01*
X166086248Y-75839694D01*
X166049165Y-75748366D01*
X166020415Y-75671200D01*
X166012605Y-75647692D01*
X165990417Y-75584916D01*
X165968727Y-75536411D01*
X165956813Y-75518079D01*
X165930523Y-75506859D01*
X165873142Y-75490954D01*
X165792118Y-75472167D01*
X165694895Y-75452299D01*
X165651385Y-75444132D01*
X165540896Y-75423829D01*
X165434916Y-75404170D01*
X165343801Y-75387088D01*
X165277908Y-75374518D01*
X165265500Y-75372091D01*
X165162923Y-75351845D01*
X165162923Y-74924701D01*
X165163153Y-74784246D01*
X165164099Y-74677979D01*
X165166141Y-74601013D01*
X165169662Y-74548460D01*
X165175043Y-74515433D01*
X165182666Y-74497045D01*
X165192912Y-74488408D01*
X165197115Y-74486807D01*
X165222470Y-74481127D01*
X165278484Y-74469795D01*
X165357964Y-74454179D01*
X165453712Y-74435647D01*
X165558533Y-74415569D01*
X165665232Y-74395312D01*
X165766613Y-74376246D01*
X165855479Y-74359739D01*
X165924637Y-74347159D01*
X165966889Y-74339875D01*
X165976290Y-74338616D01*
X165984807Y-74321763D01*
X166003660Y-74276870D01*
X166029324Y-74212430D01*
X166039123Y-74187192D01*
X166078648Y-74089686D01*
X166125192Y-73981959D01*
X166166877Y-73891172D01*
X166197550Y-73821753D01*
X166217956Y-73764710D01*
X166224768Y-73729777D01*
X166223682Y-73725095D01*
X166209285Y-73702991D01*
X166176412Y-73653831D01*
X166128590Y-73582848D01*
X166069348Y-73495278D01*
X166002215Y-73396357D01*
X165988941Y-73376830D01*
X165911046Y-73261140D01*
X165853787Y-73173044D01*
X165814881Y-73108486D01*
X165792044Y-73063411D01*
X165782994Y-73033763D01*
X165785448Y-73015485D01*
X165785511Y-73015369D01*
X165804827Y-72991361D01*
X165847551Y-72944947D01*
X165909051Y-72880937D01*
X165984698Y-72804145D01*
X166069861Y-72719382D01*
X166079465Y-72709922D01*
X166186790Y-72605989D01*
X166269615Y-72529675D01*
X166329605Y-72479571D01*
X166368423Y-72454270D01*
X166385520Y-72451004D01*
X166410473Y-72465250D01*
X166462255Y-72498156D01*
X166535520Y-72546208D01*
X166624920Y-72605890D01*
X166725111Y-72673688D01*
X166748501Y-72689639D01*
X167080593Y-72916420D01*
X167230565Y-72848353D01*
X167321770Y-72808685D01*
X167419669Y-72768791D01*
X167503831Y-72736983D01*
X167507538Y-72735674D01*
X167573369Y-72711576D01*
X167624116Y-72691200D01*
X167648842Y-72678936D01*
X167648884Y-72678901D01*
X167656729Y-72656734D01*
X167670066Y-72602217D01*
X167687570Y-72521480D01*
X167707917Y-72420650D01*
X167729782Y-72305856D01*
X167731571Y-72296178D01*
X167753504Y-72177904D01*
X167773640Y-72070542D01*
X167790680Y-71980917D01*
X167803328Y-71915851D01*
X167810284Y-71882168D01*
X167810406Y-71881654D01*
X167814639Y-71867325D01*
X167822871Y-71856507D01*
X167840033Y-71848706D01*
X167871058Y-71843429D01*
X167920878Y-71840182D01*
X167994424Y-71838472D01*
X168096629Y-71837807D01*
X168232425Y-71837693D01*
X168250000Y-71837692D01*
X168389878Y-71837776D01*
X168389878Y-71837776D01*
G37*
X168389878Y-71837776D02*
X168495612Y-71838355D01*
X168572132Y-71839922D01*
X168624372Y-71842972D01*
X168657263Y-71847996D01*
X168675737Y-71855489D01*
X168684727Y-71865944D01*
X168689163Y-71879853D01*
X168689594Y-71881654D01*
X168696333Y-71914145D01*
X168708808Y-71978252D01*
X168725719Y-72067151D01*
X168745771Y-72174019D01*
X168767664Y-72292033D01*
X168768429Y-72296178D01*
X168790359Y-72411831D01*
X168810877Y-72514014D01*
X168828659Y-72596598D01*
X168842381Y-72653456D01*
X168850718Y-72678458D01*
X168851116Y-72678901D01*
X168875677Y-72691110D01*
X168926315Y-72711456D01*
X168992095Y-72735545D01*
X168992461Y-72735674D01*
X169075317Y-72766818D01*
X169173000Y-72806491D01*
X169265077Y-72846381D01*
X169269434Y-72848353D01*
X169419407Y-72916420D01*
X169751498Y-72689639D01*
X169853374Y-72620504D01*
X169945657Y-72558697D01*
X170023003Y-72507733D01*
X170080064Y-72471127D01*
X170111495Y-72452394D01*
X170114479Y-72451004D01*
X170137321Y-72457190D01*
X170179982Y-72487035D01*
X170244128Y-72541947D01*
X170331421Y-72623334D01*
X170420535Y-72709922D01*
X170506441Y-72795247D01*
X170583327Y-72873108D01*
X170646564Y-72938697D01*
X170691523Y-72987205D01*
X170713576Y-73013825D01*
X170714396Y-73015195D01*
X170716834Y-73033463D01*
X170707650Y-73063295D01*
X170684574Y-73108721D01*
X170645337Y-73173770D01*
X170587670Y-73262470D01*
X170510795Y-73376657D01*
X170442570Y-73477162D01*
X170381582Y-73567303D01*
X170331356Y-73641849D01*
X170295416Y-73695565D01*
X170277287Y-73723218D01*
X170276146Y-73725095D01*
X170278359Y-73751590D01*
X170295138Y-73803086D01*
X170323142Y-73869851D01*
X170333122Y-73891172D01*
X170376672Y-73986159D01*
X170423134Y-74093937D01*
X170460877Y-74187192D01*
X170488073Y-74256406D01*
X170509675Y-74309006D01*
X170522158Y-74336497D01*
X170523709Y-74338616D01*
X170546668Y-74342124D01*
X170600786Y-74351738D01*
X170678868Y-74366089D01*
X170773719Y-74383807D01*
X170878143Y-74403525D01*
X170984944Y-74423874D01*
X171086926Y-74443486D01*
X171176894Y-74460991D01*
X171247653Y-74475022D01*
X171292006Y-74484209D01*
X171302885Y-74486807D01*
X171314122Y-74493218D01*
X171322605Y-74507697D01*
X171328714Y-74535133D01*
X171332832Y-74580411D01*
X171335341Y-74648420D01*
X171336621Y-74744047D01*
X171337054Y-74872180D01*
X171337077Y-74924701D01*
X171337077Y-75351845D01*
X171234500Y-75372091D01*
X171177431Y-75383070D01*
X171092269Y-75399095D01*
X170989372Y-75418233D01*
X170879096Y-75438551D01*
X170848615Y-75444132D01*
X170746855Y-75463917D01*
X170658205Y-75483373D01*
X170590108Y-75500697D01*
X170550004Y-75514088D01*
X170543323Y-75518079D01*
X170526919Y-75546342D01*
X170503399Y-75601109D01*
X170477316Y-75671588D01*
X170472142Y-75686769D01*
X170437956Y-75780896D01*
X170395523Y-75887101D01*
X170353997Y-75982473D01*
X170353792Y-75982916D01*
X170284640Y-76132525D01*
X170739512Y-76801617D01*
X170447500Y-77094116D01*
X170359180Y-77181170D01*
X170278625Y-77257909D01*
X170210360Y-77320237D01*
X170158908Y-77364056D01*
X170128794Y-77385270D01*
X170124474Y-77386616D01*
X170099111Y-77376016D01*
X170047358Y-77346547D01*
X169974868Y-77301705D01*
X169887294Y-77244984D01*
X169792612Y-77181462D01*
X169696516Y-77116668D01*
X169610837Y-77060287D01*
X169541016Y-77015788D01*
X169492494Y-76986639D01*
X169470782Y-76976308D01*
X169444293Y-76985050D01*
X169394062Y-77008087D01*
X169330451Y-77040631D01*
X169323708Y-77044249D01*
X169238046Y-77087210D01*
X169179306Y-77108279D01*
X169142772Y-77108503D01*
X169123731Y-77088928D01*
X169123620Y-77088654D01*
X169114102Y-77065472D01*
X169091403Y-77010441D01*
X169057282Y-76927822D01*
X169013500Y-76821872D01*
X168961816Y-76696852D01*
X168903992Y-76557020D01*
X168847991Y-76421637D01*
X168786447Y-76272234D01*
X168729939Y-76133832D01*
X168680161Y-76010673D01*
X168638806Y-75907002D01*
X168607568Y-75827059D01*
X168588141Y-75775088D01*
X168582154Y-75755692D01*
X168597168Y-75733443D01*
X168636439Y-75697982D01*
X168688807Y-75658887D01*
X168837941Y-75535245D01*
X168954511Y-75393522D01*
X169037118Y-75236704D01*
X169084366Y-75067775D01*
X169094857Y-74889722D01*
X169087231Y-74807539D01*
X169045682Y-74637031D01*
X168974123Y-74486459D01*
X168876995Y-74357309D01*
X168758734Y-74251064D01*
X168623780Y-74169210D01*
X168476571Y-74113232D01*
X168321544Y-74084615D01*
X168163139Y-74084844D01*
X168005794Y-74115405D01*
X167853946Y-74177782D01*
X167712035Y-74273460D01*
X167652803Y-74327572D01*
X167539203Y-74466520D01*
X167460106Y-74618361D01*
X167414986Y-74778667D01*
X167403316Y-74943012D01*
X167424569Y-75106971D01*
X167478220Y-75266118D01*
X167563740Y-75416025D01*
X167680605Y-75552267D01*
X167811193Y-75658887D01*
X167865588Y-75699642D01*
X167904014Y-75734718D01*
X167917846Y-75755726D01*
X167910603Y-75778635D01*
X167890005Y-75833365D01*
X167857746Y-75915672D01*
X167815521Y-76021315D01*
X167765023Y-76146050D01*
X167707948Y-76285636D01*
X167651854Y-76421670D01*
X167589967Y-76571201D01*
X167532644Y-76709767D01*
X167481644Y-76833107D01*
X167438727Y-76936964D01*
X167405653Y-77017080D01*
X167384181Y-77069195D01*
X167376225Y-77088654D01*
X167357429Y-77108423D01*
X167321074Y-77108365D01*
X167262479Y-77087441D01*
X167176968Y-77044613D01*
X167176292Y-77044249D01*
X167111907Y-77011012D01*
X167059861Y-76986802D01*
X167030512Y-76976404D01*
X167029217Y-76976308D01*
X167007124Y-76986855D01*
X166958348Y-77016184D01*
X166888331Y-77060827D01*
X166802514Y-77117314D01*
X166707388Y-77181462D01*
X166610540Y-77246411D01*
X166523253Y-77302896D01*
X166451181Y-77347421D01*
X166399977Y-77376490D01*
X166375526Y-77386616D01*
X166353010Y-77373307D01*
X166307742Y-77336112D01*
X166244244Y-77279128D01*
X166167039Y-77206449D01*
X166080651Y-77122171D01*
X166052399Y-77094016D01*
X165760287Y-76801416D01*
X165982631Y-76475104D01*
X166050202Y-76374897D01*
X166109507Y-76284963D01*
X166157217Y-76210510D01*
X166190007Y-76156751D01*
X166204548Y-76128894D01*
X166204974Y-76126912D01*
X166197308Y-76100655D01*
X166176689Y-76047837D01*
X166146685Y-75977310D01*
X166125625Y-75930093D01*
X166086248Y-75839694D01*
X166049165Y-75748366D01*
X166020415Y-75671200D01*
X166012605Y-75647692D01*
X165990417Y-75584916D01*
X165968727Y-75536411D01*
X165956813Y-75518079D01*
X165930523Y-75506859D01*
X165873142Y-75490954D01*
X165792118Y-75472167D01*
X165694895Y-75452299D01*
X165651385Y-75444132D01*
X165540896Y-75423829D01*
X165434916Y-75404170D01*
X165343801Y-75387088D01*
X165277908Y-75374518D01*
X165265500Y-75372091D01*
X165162923Y-75351845D01*
X165162923Y-74924701D01*
X165163153Y-74784246D01*
X165164099Y-74677979D01*
X165166141Y-74601013D01*
X165169662Y-74548460D01*
X165175043Y-74515433D01*
X165182666Y-74497045D01*
X165192912Y-74488408D01*
X165197115Y-74486807D01*
X165222470Y-74481127D01*
X165278484Y-74469795D01*
X165357964Y-74454179D01*
X165453712Y-74435647D01*
X165558533Y-74415569D01*
X165665232Y-74395312D01*
X165766613Y-74376246D01*
X165855479Y-74359739D01*
X165924637Y-74347159D01*
X165966889Y-74339875D01*
X165976290Y-74338616D01*
X165984807Y-74321763D01*
X166003660Y-74276870D01*
X166029324Y-74212430D01*
X166039123Y-74187192D01*
X166078648Y-74089686D01*
X166125192Y-73981959D01*
X166166877Y-73891172D01*
X166197550Y-73821753D01*
X166217956Y-73764710D01*
X166224768Y-73729777D01*
X166223682Y-73725095D01*
X166209285Y-73702991D01*
X166176412Y-73653831D01*
X166128590Y-73582848D01*
X166069348Y-73495278D01*
X166002215Y-73396357D01*
X165988941Y-73376830D01*
X165911046Y-73261140D01*
X165853787Y-73173044D01*
X165814881Y-73108486D01*
X165792044Y-73063411D01*
X165782994Y-73033763D01*
X165785448Y-73015485D01*
X165785511Y-73015369D01*
X165804827Y-72991361D01*
X165847551Y-72944947D01*
X165909051Y-72880937D01*
X165984698Y-72804145D01*
X166069861Y-72719382D01*
X166079465Y-72709922D01*
X166186790Y-72605989D01*
X166269615Y-72529675D01*
X166329605Y-72479571D01*
X166368423Y-72454270D01*
X166385520Y-72451004D01*
X166410473Y-72465250D01*
X166462255Y-72498156D01*
X166535520Y-72546208D01*
X166624920Y-72605890D01*
X166725111Y-72673688D01*
X166748501Y-72689639D01*
X167080593Y-72916420D01*
X167230565Y-72848353D01*
X167321770Y-72808685D01*
X167419669Y-72768791D01*
X167503831Y-72736983D01*
X167507538Y-72735674D01*
X167573369Y-72711576D01*
X167624116Y-72691200D01*
X167648842Y-72678936D01*
X167648884Y-72678901D01*
X167656729Y-72656734D01*
X167670066Y-72602217D01*
X167687570Y-72521480D01*
X167707917Y-72420650D01*
X167729782Y-72305856D01*
X167731571Y-72296178D01*
X167753504Y-72177904D01*
X167773640Y-72070542D01*
X167790680Y-71980917D01*
X167803328Y-71915851D01*
X167810284Y-71882168D01*
X167810406Y-71881654D01*
X167814639Y-71867325D01*
X167822871Y-71856507D01*
X167840033Y-71848706D01*
X167871058Y-71843429D01*
X167920878Y-71840182D01*
X167994424Y-71838472D01*
X168096629Y-71837807D01*
X168232425Y-71837693D01*
X168250000Y-71837692D01*
X168389878Y-71837776D01*
D12*
X132920000Y-72365000D02*
X158860000Y-72365000D01*
X158860000Y-72365000D02*
X158860000Y-81715000D01*
X158860000Y-81715000D02*
X132920000Y-81715000D01*
X132920000Y-81715000D02*
X132920000Y-72365000D01*
X132670000Y-81965000D02*
X135210000Y-81965000D01*
X132670000Y-81965000D02*
X132670000Y-79425000D01*
D10*
X156695000Y-104645000D02*
X156695000Y-104820000D01*
X159945000Y-104645000D02*
X159945000Y-104920000D01*
X159945000Y-107895000D02*
X159945000Y-107620000D01*
X156695000Y-107895000D02*
X156695000Y-107620000D01*
X156695000Y-104645000D02*
X159945000Y-104645000D01*
X156695000Y-107895000D02*
X159945000Y-107895000D01*
X156695000Y-104820000D02*
X155620000Y-104820000D01*
X134595000Y-104545000D02*
X134595000Y-104720000D01*
X137845000Y-104545000D02*
X137845000Y-104820000D01*
X137845000Y-107795000D02*
X137845000Y-107520000D01*
X134595000Y-107795000D02*
X134595000Y-107520000D01*
X134595000Y-104545000D02*
X137845000Y-104545000D01*
X134595000Y-107795000D02*
X137845000Y-107795000D01*
X134595000Y-104720000D02*
X133520000Y-104720000D01*
D12*
X154740000Y-117885000D02*
X154740000Y-118185000D01*
X153320000Y-117885000D02*
X153320000Y-118185000D01*
X166485000Y-88890000D02*
X166185000Y-88890000D01*
X166485000Y-87470000D02*
X166185000Y-87470000D01*
X131430000Y-79865000D02*
X131430000Y-80165000D01*
X130010000Y-79865000D02*
X130010000Y-80165000D01*
X125100000Y-79715000D02*
X125100000Y-80015000D01*
X123680000Y-79715000D02*
X123680000Y-80015000D01*
X143390000Y-105560000D02*
X143390000Y-105260000D01*
X144810000Y-105560000D02*
X144810000Y-105260000D01*
X142220000Y-105250000D02*
X142220000Y-105550000D01*
X140800000Y-105250000D02*
X140800000Y-105550000D01*
X120580000Y-112150000D02*
X120580000Y-112450000D01*
X119160000Y-112150000D02*
X119160000Y-112450000D01*
X124770000Y-117955000D02*
X124770000Y-118255000D01*
X123350000Y-117955000D02*
X123350000Y-118255000D01*
X131690000Y-117940000D02*
X131690000Y-118240000D01*
X130270000Y-117940000D02*
X130270000Y-118240000D01*
X138650000Y-117905000D02*
X138650000Y-118205000D01*
X137230000Y-117905000D02*
X137230000Y-118205000D01*
X145680000Y-118005000D02*
X145680000Y-118305000D01*
X144260000Y-118005000D02*
X144260000Y-118305000D01*
X128980000Y-112170000D02*
X128980000Y-112470000D01*
X127560000Y-112170000D02*
X127560000Y-112470000D01*
X135910000Y-112195000D02*
X135910000Y-112495000D01*
X134490000Y-112195000D02*
X134490000Y-112495000D01*
X142940000Y-112165000D02*
X142940000Y-112465000D01*
X141520000Y-112165000D02*
X141520000Y-112465000D01*
X149990000Y-112185000D02*
X149990000Y-112485000D01*
X148570000Y-112185000D02*
X148570000Y-112485000D01*
X157245000Y-119760000D02*
X156945000Y-119760000D01*
X157245000Y-118340000D02*
X156945000Y-118340000D01*
X160620000Y-110470000D02*
X160920000Y-110470000D01*
X160620000Y-111890000D02*
X160920000Y-111890000D01*
X168115000Y-110480000D02*
X168415000Y-110480000D01*
X168115000Y-111900000D02*
X168415000Y-111900000D01*
X171785000Y-110510000D02*
X172085000Y-110510000D01*
X171785000Y-111930000D02*
X172085000Y-111930000D01*
X124820000Y-112190000D02*
X124820000Y-112490000D01*
X123400000Y-112190000D02*
X123400000Y-112490000D01*
X131700000Y-112195000D02*
X131700000Y-112495000D01*
X130280000Y-112195000D02*
X130280000Y-112495000D01*
X138710000Y-112175000D02*
X138710000Y-112475000D01*
X137290000Y-112175000D02*
X137290000Y-112475000D01*
X145780000Y-112175000D02*
X145780000Y-112475000D01*
X144360000Y-112175000D02*
X144360000Y-112475000D01*
X160920000Y-118155000D02*
X160920000Y-118455000D01*
X159500000Y-118155000D02*
X159500000Y-118455000D01*
X164450000Y-118185000D02*
X164450000Y-118485000D01*
X163030000Y-118185000D02*
X163030000Y-118485000D01*
X167910000Y-118175000D02*
X167910000Y-118475000D01*
X166490000Y-118175000D02*
X166490000Y-118475000D01*
X171490000Y-118155000D02*
X171490000Y-118455000D01*
X170070000Y-118155000D02*
X170070000Y-118455000D01*
X124855000Y-114410000D02*
X125155000Y-114410000D01*
X124855000Y-115830000D02*
X125155000Y-115830000D01*
X131755000Y-114470000D02*
X132055000Y-114470000D01*
X131755000Y-115890000D02*
X132055000Y-115890000D01*
X138765000Y-114430000D02*
X139065000Y-114430000D01*
X138765000Y-115850000D02*
X139065000Y-115850000D01*
X145825000Y-114490000D02*
X146125000Y-114490000D01*
X145825000Y-115910000D02*
X146125000Y-115910000D01*
X129300000Y-106045000D02*
X129300000Y-106345000D01*
X127880000Y-106045000D02*
X127880000Y-106345000D01*
X152430000Y-105365000D02*
X152430000Y-105665000D01*
X151010000Y-105365000D02*
X151010000Y-105665000D01*
X170810000Y-87210000D02*
G75*
G02X171510000Y-87910000I0J-700000D01*
G01*
X171510000Y-88510000D02*
G75*
G02X170810000Y-89210000I-700000J0D01*
G01*
X169410000Y-89210000D02*
G75*
G02X168710000Y-88510000I0J700000D01*
G01*
X168710000Y-87910000D02*
G75*
G02X169410000Y-87210000I700000J0D01*
G01*
X168710000Y-88510000D02*
X168710000Y-87910000D01*
X170810000Y-89210000D02*
X169410000Y-89210000D01*
X171510000Y-87910000D02*
X171510000Y-88510000D01*
X169410000Y-87210000D02*
X170810000Y-87210000D01*
X157459647Y-127109845D02*
G75*
G03X155960000Y-127110000I-749647J-1700155D01*
G01*
X160959647Y-127109845D02*
G75*
G03X159460000Y-127110000I-749647J-1700155D01*
G01*
X164459647Y-127109845D02*
G75*
G03X162960000Y-127110000I-749647J-1700155D01*
G01*
X167959647Y-127109845D02*
G75*
G03X166460000Y-127110000I-749647J-1700155D01*
G01*
X171459647Y-127109845D02*
G75*
G03X169960000Y-127110000I-749647J-1700155D01*
G01*
X154180000Y-120530000D02*
X154180000Y-127940000D01*
X154180000Y-127940000D02*
X173240000Y-127940000D01*
X173240000Y-127940000D02*
X173240000Y-120530000D01*
X173240000Y-120530000D02*
X154180000Y-120530000D01*
X155960000Y-127110000D02*
X155210000Y-127110000D01*
X155210000Y-127110000D02*
X155210000Y-122810000D01*
X155210000Y-122810000D02*
X155960000Y-122810000D01*
X155960000Y-122810000D02*
X155960000Y-122460000D01*
X155960000Y-122460000D02*
X155460000Y-122460000D01*
X155460000Y-122460000D02*
X155210000Y-121460000D01*
X155210000Y-121460000D02*
X158210000Y-121460000D01*
X158210000Y-121460000D02*
X157960000Y-122460000D01*
X157960000Y-122460000D02*
X157460000Y-122460000D01*
X157460000Y-122460000D02*
X157460000Y-122810000D01*
X157460000Y-122810000D02*
X158210000Y-122810000D01*
X158210000Y-122810000D02*
X158210000Y-127110000D01*
X158210000Y-127110000D02*
X157460000Y-127110000D01*
X159460000Y-127110000D02*
X158710000Y-127110000D01*
X158710000Y-127110000D02*
X158710000Y-122810000D01*
X158710000Y-122810000D02*
X159460000Y-122810000D01*
X159460000Y-122810000D02*
X159460000Y-122460000D01*
X159460000Y-122460000D02*
X158960000Y-122460000D01*
X158960000Y-122460000D02*
X158710000Y-121460000D01*
X158710000Y-121460000D02*
X161710000Y-121460000D01*
X161710000Y-121460000D02*
X161460000Y-122460000D01*
X161460000Y-122460000D02*
X160960000Y-122460000D01*
X160960000Y-122460000D02*
X160960000Y-122810000D01*
X160960000Y-122810000D02*
X161710000Y-122810000D01*
X161710000Y-122810000D02*
X161710000Y-127110000D01*
X161710000Y-127110000D02*
X160960000Y-127110000D01*
X162960000Y-127110000D02*
X162210000Y-127110000D01*
X162210000Y-127110000D02*
X162210000Y-122810000D01*
X162210000Y-122810000D02*
X162960000Y-122810000D01*
X162960000Y-122810000D02*
X162960000Y-122460000D01*
X162960000Y-122460000D02*
X162460000Y-122460000D01*
X162460000Y-122460000D02*
X162210000Y-121460000D01*
X162210000Y-121460000D02*
X165210000Y-121460000D01*
X165210000Y-121460000D02*
X164960000Y-122460000D01*
X164960000Y-122460000D02*
X164460000Y-122460000D01*
X164460000Y-122460000D02*
X164460000Y-122810000D01*
X164460000Y-122810000D02*
X165210000Y-122810000D01*
X165210000Y-122810000D02*
X165210000Y-127110000D01*
X165210000Y-127110000D02*
X164460000Y-127110000D01*
X166460000Y-127110000D02*
X165710000Y-127110000D01*
X165710000Y-127110000D02*
X165710000Y-122810000D01*
X165710000Y-122810000D02*
X166460000Y-122810000D01*
X166460000Y-122810000D02*
X166460000Y-122460000D01*
X166460000Y-122460000D02*
X165960000Y-122460000D01*
X165960000Y-122460000D02*
X165710000Y-121460000D01*
X165710000Y-121460000D02*
X168710000Y-121460000D01*
X168710000Y-121460000D02*
X168460000Y-122460000D01*
X168460000Y-122460000D02*
X167960000Y-122460000D01*
X167960000Y-122460000D02*
X167960000Y-122810000D01*
X167960000Y-122810000D02*
X168710000Y-122810000D01*
X168710000Y-122810000D02*
X168710000Y-127110000D01*
X168710000Y-127110000D02*
X167960000Y-127110000D01*
X169960000Y-127110000D02*
X169210000Y-127110000D01*
X169210000Y-127110000D02*
X169210000Y-122810000D01*
X169210000Y-122810000D02*
X169960000Y-122810000D01*
X169960000Y-122810000D02*
X169960000Y-122460000D01*
X169960000Y-122460000D02*
X169460000Y-122460000D01*
X169460000Y-122460000D02*
X169210000Y-121460000D01*
X169210000Y-121460000D02*
X172210000Y-121460000D01*
X172210000Y-121460000D02*
X171960000Y-122460000D01*
X171960000Y-122460000D02*
X171460000Y-122460000D01*
X171460000Y-122460000D02*
X171460000Y-122810000D01*
X171460000Y-122810000D02*
X172210000Y-122810000D01*
X172210000Y-122810000D02*
X172210000Y-127110000D01*
X172210000Y-127110000D02*
X171460000Y-127110000D01*
X153760000Y-121360000D02*
X153760000Y-120110000D01*
X153760000Y-120110000D02*
X155760000Y-120110000D01*
X121219647Y-126869845D02*
G75*
G03X119720000Y-126870000I-749647J-1700155D01*
G01*
X124719647Y-126869845D02*
G75*
G03X123220000Y-126870000I-749647J-1700155D01*
G01*
X128219647Y-126869845D02*
G75*
G03X126720000Y-126870000I-749647J-1700155D01*
G01*
X131719647Y-126869845D02*
G75*
G03X130220000Y-126870000I-749647J-1700155D01*
G01*
X135219647Y-126869845D02*
G75*
G03X133720000Y-126870000I-749647J-1700155D01*
G01*
X138719647Y-126869845D02*
G75*
G03X137220000Y-126870000I-749647J-1700155D01*
G01*
X142219647Y-126869845D02*
G75*
G03X140720000Y-126870000I-749647J-1700155D01*
G01*
X145719647Y-126869845D02*
G75*
G03X144220000Y-126870000I-749647J-1700155D01*
G01*
X117940000Y-120290000D02*
X117940000Y-127700000D01*
X117940000Y-127700000D02*
X147500000Y-127700000D01*
X147500000Y-127700000D02*
X147500000Y-120290000D01*
X147500000Y-120290000D02*
X117940000Y-120290000D01*
X119720000Y-126870000D02*
X118970000Y-126870000D01*
X118970000Y-126870000D02*
X118970000Y-122570000D01*
X118970000Y-122570000D02*
X119720000Y-122570000D01*
X119720000Y-122570000D02*
X119720000Y-122220000D01*
X119720000Y-122220000D02*
X119220000Y-122220000D01*
X119220000Y-122220000D02*
X118970000Y-121220000D01*
X118970000Y-121220000D02*
X121970000Y-121220000D01*
X121970000Y-121220000D02*
X121720000Y-122220000D01*
X121720000Y-122220000D02*
X121220000Y-122220000D01*
X121220000Y-122220000D02*
X121220000Y-122570000D01*
X121220000Y-122570000D02*
X121970000Y-122570000D01*
X121970000Y-122570000D02*
X121970000Y-126870000D01*
X121970000Y-126870000D02*
X121220000Y-126870000D01*
X123220000Y-126870000D02*
X122470000Y-126870000D01*
X122470000Y-126870000D02*
X122470000Y-122570000D01*
X122470000Y-122570000D02*
X123220000Y-122570000D01*
X123220000Y-122570000D02*
X123220000Y-122220000D01*
X123220000Y-122220000D02*
X122720000Y-122220000D01*
X122720000Y-122220000D02*
X122470000Y-121220000D01*
X122470000Y-121220000D02*
X125470000Y-121220000D01*
X125470000Y-121220000D02*
X125220000Y-122220000D01*
X125220000Y-122220000D02*
X124720000Y-122220000D01*
X124720000Y-122220000D02*
X124720000Y-122570000D01*
X124720000Y-122570000D02*
X125470000Y-122570000D01*
X125470000Y-122570000D02*
X125470000Y-126870000D01*
X125470000Y-126870000D02*
X124720000Y-126870000D01*
X126720000Y-126870000D02*
X125970000Y-126870000D01*
X125970000Y-126870000D02*
X125970000Y-122570000D01*
X125970000Y-122570000D02*
X126720000Y-122570000D01*
X126720000Y-122570000D02*
X126720000Y-122220000D01*
X126720000Y-122220000D02*
X126220000Y-122220000D01*
X126220000Y-122220000D02*
X125970000Y-121220000D01*
X125970000Y-121220000D02*
X128970000Y-121220000D01*
X128970000Y-121220000D02*
X128720000Y-122220000D01*
X128720000Y-122220000D02*
X128220000Y-122220000D01*
X128220000Y-122220000D02*
X128220000Y-122570000D01*
X128220000Y-122570000D02*
X128970000Y-122570000D01*
X128970000Y-122570000D02*
X128970000Y-126870000D01*
X128970000Y-126870000D02*
X128220000Y-126870000D01*
X130220000Y-126870000D02*
X129470000Y-126870000D01*
X129470000Y-126870000D02*
X129470000Y-122570000D01*
X129470000Y-122570000D02*
X130220000Y-122570000D01*
X130220000Y-122570000D02*
X130220000Y-122220000D01*
X130220000Y-122220000D02*
X129720000Y-122220000D01*
X129720000Y-122220000D02*
X129470000Y-121220000D01*
X129470000Y-121220000D02*
X132470000Y-121220000D01*
X132470000Y-121220000D02*
X132220000Y-122220000D01*
X132220000Y-122220000D02*
X131720000Y-122220000D01*
X131720000Y-122220000D02*
X131720000Y-122570000D01*
X131720000Y-122570000D02*
X132470000Y-122570000D01*
X132470000Y-122570000D02*
X132470000Y-126870000D01*
X132470000Y-126870000D02*
X131720000Y-126870000D01*
X133720000Y-126870000D02*
X132970000Y-126870000D01*
X132970000Y-126870000D02*
X132970000Y-122570000D01*
X132970000Y-122570000D02*
X133720000Y-122570000D01*
X133720000Y-122570000D02*
X133720000Y-122220000D01*
X133720000Y-122220000D02*
X133220000Y-122220000D01*
X133220000Y-122220000D02*
X132970000Y-121220000D01*
X132970000Y-121220000D02*
X135970000Y-121220000D01*
X135970000Y-121220000D02*
X135720000Y-122220000D01*
X135720000Y-122220000D02*
X135220000Y-122220000D01*
X135220000Y-122220000D02*
X135220000Y-122570000D01*
X135220000Y-122570000D02*
X135970000Y-122570000D01*
X135970000Y-122570000D02*
X135970000Y-126870000D01*
X135970000Y-126870000D02*
X135220000Y-126870000D01*
X137220000Y-126870000D02*
X136470000Y-126870000D01*
X136470000Y-126870000D02*
X136470000Y-122570000D01*
X136470000Y-122570000D02*
X137220000Y-122570000D01*
X137220000Y-122570000D02*
X137220000Y-122220000D01*
X137220000Y-122220000D02*
X136720000Y-122220000D01*
X136720000Y-122220000D02*
X136470000Y-121220000D01*
X136470000Y-121220000D02*
X139470000Y-121220000D01*
X139470000Y-121220000D02*
X139220000Y-122220000D01*
X139220000Y-122220000D02*
X138720000Y-122220000D01*
X138720000Y-122220000D02*
X138720000Y-122570000D01*
X138720000Y-122570000D02*
X139470000Y-122570000D01*
X139470000Y-122570000D02*
X139470000Y-126870000D01*
X139470000Y-126870000D02*
X138720000Y-126870000D01*
X140720000Y-126870000D02*
X139970000Y-126870000D01*
X139970000Y-126870000D02*
X139970000Y-122570000D01*
X139970000Y-122570000D02*
X140720000Y-122570000D01*
X140720000Y-122570000D02*
X140720000Y-122220000D01*
X140720000Y-122220000D02*
X140220000Y-122220000D01*
X140220000Y-122220000D02*
X139970000Y-121220000D01*
X139970000Y-121220000D02*
X142970000Y-121220000D01*
X142970000Y-121220000D02*
X142720000Y-122220000D01*
X142720000Y-122220000D02*
X142220000Y-122220000D01*
X142220000Y-122220000D02*
X142220000Y-122570000D01*
X142220000Y-122570000D02*
X142970000Y-122570000D01*
X142970000Y-122570000D02*
X142970000Y-126870000D01*
X142970000Y-126870000D02*
X142220000Y-126870000D01*
X144220000Y-126870000D02*
X143470000Y-126870000D01*
X143470000Y-126870000D02*
X143470000Y-122570000D01*
X143470000Y-122570000D02*
X144220000Y-122570000D01*
X144220000Y-122570000D02*
X144220000Y-122220000D01*
X144220000Y-122220000D02*
X143720000Y-122220000D01*
X143720000Y-122220000D02*
X143470000Y-121220000D01*
X143470000Y-121220000D02*
X146470000Y-121220000D01*
X146470000Y-121220000D02*
X146220000Y-122220000D01*
X146220000Y-122220000D02*
X145720000Y-122220000D01*
X145720000Y-122220000D02*
X145720000Y-122570000D01*
X145720000Y-122570000D02*
X146470000Y-122570000D01*
X146470000Y-122570000D02*
X146470000Y-126870000D01*
X146470000Y-126870000D02*
X145720000Y-126870000D01*
X117520000Y-121120000D02*
X117520000Y-119870000D01*
X117520000Y-119870000D02*
X119520000Y-119870000D01*
X128810000Y-84370000D02*
X131510000Y-84370000D01*
X131510000Y-84370000D02*
X131510000Y-82350000D01*
X131510000Y-82350000D02*
X128810000Y-82350000D01*
X126325000Y-82310000D02*
X123625000Y-82310000D01*
X123625000Y-82310000D02*
X123625000Y-84330000D01*
X123625000Y-84330000D02*
X126325000Y-84330000D01*
X159900000Y-115780000D02*
X159900000Y-114850000D01*
X159900000Y-112620000D02*
X159900000Y-113550000D01*
X159900000Y-112620000D02*
X157740000Y-112620000D01*
X159900000Y-115780000D02*
X158440000Y-115780000D01*
X163490000Y-115780000D02*
X163490000Y-114850000D01*
X163490000Y-112620000D02*
X163490000Y-113550000D01*
X163490000Y-112620000D02*
X161330000Y-112620000D01*
X163490000Y-115780000D02*
X162030000Y-115780000D01*
X167110000Y-115800000D02*
X167110000Y-114870000D01*
X167110000Y-112640000D02*
X167110000Y-113570000D01*
X167110000Y-112640000D02*
X164950000Y-112640000D01*
X167110000Y-115800000D02*
X165650000Y-115800000D01*
X170740000Y-115840000D02*
X170740000Y-114910000D01*
X170740000Y-112680000D02*
X170740000Y-113610000D01*
X170740000Y-112680000D02*
X168580000Y-112680000D01*
X170740000Y-115840000D02*
X169280000Y-115840000D01*
X122350000Y-117370000D02*
X121420000Y-117370000D01*
X119190000Y-117370000D02*
X120120000Y-117370000D01*
X119190000Y-117370000D02*
X119190000Y-119530000D01*
X122350000Y-117370000D02*
X122350000Y-118830000D01*
X129240000Y-117320000D02*
X128310000Y-117320000D01*
X126080000Y-117320000D02*
X127010000Y-117320000D01*
X126080000Y-117320000D02*
X126080000Y-119480000D01*
X129240000Y-117320000D02*
X129240000Y-118780000D01*
X136560000Y-117320000D02*
X135630000Y-117320000D01*
X133400000Y-117320000D02*
X134330000Y-117320000D01*
X133400000Y-117320000D02*
X133400000Y-119480000D01*
X136560000Y-117320000D02*
X136560000Y-118780000D01*
X143390000Y-117190000D02*
X142460000Y-117190000D01*
X140230000Y-117190000D02*
X141160000Y-117190000D01*
X140230000Y-117190000D02*
X140230000Y-119350000D01*
X143390000Y-117190000D02*
X143390000Y-118650000D01*
X173070000Y-89660000D02*
X173070000Y-89360000D01*
X174490000Y-89660000D02*
X174490000Y-89360000D01*
X162460000Y-105490000D02*
X162460000Y-105190000D01*
X163880000Y-105490000D02*
X163880000Y-105190000D01*
X132470000Y-106070000D02*
X132470000Y-106370000D01*
X131050000Y-106070000D02*
X131050000Y-106370000D01*
X128595000Y-115830000D02*
X128295000Y-115830000D01*
X128595000Y-114410000D02*
X128295000Y-114410000D01*
X135540000Y-115890000D02*
X135240000Y-115890000D01*
X135540000Y-114470000D02*
X135240000Y-114470000D01*
X142605000Y-115860000D02*
X142305000Y-115860000D01*
X142605000Y-114440000D02*
X142305000Y-114440000D01*
X149635000Y-115880000D02*
X149335000Y-115880000D01*
X149635000Y-114460000D02*
X149335000Y-114460000D01*
X157245000Y-117710000D02*
X156945000Y-117710000D01*
X157245000Y-116290000D02*
X156945000Y-116290000D01*
X157395000Y-111850000D02*
X157095000Y-111850000D01*
X157395000Y-110430000D02*
X157095000Y-110430000D01*
X164815000Y-111890000D02*
X164515000Y-111890000D01*
X164815000Y-110470000D02*
X164515000Y-110470000D01*
X172180000Y-114410000D02*
X172180000Y-114110000D01*
X173600000Y-114410000D02*
X173600000Y-114110000D01*
X126900000Y-112190000D02*
X126900000Y-112490000D01*
X125480000Y-112190000D02*
X125480000Y-112490000D01*
X133800000Y-112195000D02*
X133800000Y-112495000D01*
X132380000Y-112195000D02*
X132380000Y-112495000D01*
X140830000Y-112175000D02*
X140830000Y-112475000D01*
X139410000Y-112175000D02*
X139410000Y-112475000D01*
X147850000Y-112185000D02*
X147850000Y-112485000D01*
X146430000Y-112185000D02*
X146430000Y-112485000D01*
X158050000Y-87900000D02*
X160590000Y-87900000D01*
X160590000Y-87900000D02*
X160590000Y-85230000D01*
X158050000Y-85230000D02*
X119820000Y-85230000D01*
X163260000Y-85230000D02*
X160590000Y-85230000D01*
X160590000Y-100600000D02*
X160590000Y-103270000D01*
X160590000Y-100600000D02*
X122490000Y-100600000D01*
X122490000Y-100600000D02*
X122490000Y-103270000D01*
X158050000Y-87900000D02*
X158050000Y-85230000D01*
X158050000Y-87900000D02*
X122490000Y-87900000D01*
X122490000Y-87900000D02*
X122490000Y-85230000D01*
X119820000Y-85230000D02*
X119820000Y-103270000D01*
X119820000Y-103270000D02*
X163260000Y-103270000D01*
X163260000Y-103270000D02*
X163260000Y-85230000D01*
D10*
X136657142Y-79577380D02*
X136323809Y-79101190D01*
X136085714Y-79577380D02*
X136085714Y-78577380D01*
X136466666Y-78577380D01*
X136561904Y-78625000D01*
X136609523Y-78672619D01*
X136657142Y-78767857D01*
X136657142Y-78910714D01*
X136609523Y-79005952D01*
X136561904Y-79053571D01*
X136466666Y-79101190D01*
X136085714Y-79101190D01*
X136990476Y-78577380D02*
X137609523Y-78577380D01*
X137276190Y-78958333D01*
X137419047Y-78958333D01*
X137514285Y-79005952D01*
X137561904Y-79053571D01*
X137609523Y-79148809D01*
X137609523Y-79386904D01*
X137561904Y-79482142D01*
X137514285Y-79529761D01*
X137419047Y-79577380D01*
X137133333Y-79577380D01*
X137038095Y-79529761D01*
X136990476Y-79482142D01*
X138466666Y-78910714D02*
X138466666Y-79577380D01*
X138228571Y-78529761D02*
X137990476Y-79244047D01*
X138609523Y-79244047D01*
X146991142Y-96369142D02*
X146943523Y-96416761D01*
X146800666Y-96464380D01*
X146705428Y-96464380D01*
X146562571Y-96416761D01*
X146467333Y-96321523D01*
X146419714Y-96226285D01*
X146372095Y-96035809D01*
X146372095Y-95892952D01*
X146419714Y-95702476D01*
X146467333Y-95607238D01*
X146562571Y-95512000D01*
X146705428Y-95464380D01*
X146800666Y-95464380D01*
X146943523Y-95512000D01*
X146991142Y-95559619D01*
X147943523Y-96464380D02*
X147372095Y-96464380D01*
X147657809Y-96464380D02*
X147657809Y-95464380D01*
X147562571Y-95607238D01*
X147467333Y-95702476D01*
X147372095Y-95750095D01*
X148800666Y-95464380D02*
X148610190Y-95464380D01*
X148514952Y-95512000D01*
X148467333Y-95559619D01*
X148372095Y-95702476D01*
X148324476Y-95892952D01*
X148324476Y-96273904D01*
X148372095Y-96369142D01*
X148419714Y-96416761D01*
X148514952Y-96464380D01*
X148705428Y-96464380D01*
X148800666Y-96416761D01*
X148848285Y-96369142D01*
X148895904Y-96273904D01*
X148895904Y-96035809D01*
X148848285Y-95940571D01*
X148800666Y-95892952D01*
X148705428Y-95845333D01*
X148514952Y-95845333D01*
X148419714Y-95892952D01*
X148372095Y-95940571D01*
X148324476Y-96035809D01*
X153777142Y-90412380D02*
X153443809Y-89936190D01*
X153205714Y-90412380D02*
X153205714Y-89412380D01*
X153586666Y-89412380D01*
X153681904Y-89460000D01*
X153729523Y-89507619D01*
X153777142Y-89602857D01*
X153777142Y-89745714D01*
X153729523Y-89840952D01*
X153681904Y-89888571D01*
X153586666Y-89936190D01*
X153205714Y-89936190D01*
X154110476Y-89412380D02*
X154729523Y-89412380D01*
X154396190Y-89793333D01*
X154539047Y-89793333D01*
X154634285Y-89840952D01*
X154681904Y-89888571D01*
X154729523Y-89983809D01*
X154729523Y-90221904D01*
X154681904Y-90317142D01*
X154634285Y-90364761D01*
X154539047Y-90412380D01*
X154253333Y-90412380D01*
X154158095Y-90364761D01*
X154110476Y-90317142D01*
X155062857Y-89412380D02*
X155681904Y-89412380D01*
X155348571Y-89793333D01*
X155491428Y-89793333D01*
X155586666Y-89840952D01*
X155634285Y-89888571D01*
X155681904Y-89983809D01*
X155681904Y-90221904D01*
X155634285Y-90317142D01*
X155586666Y-90364761D01*
X155491428Y-90412380D01*
X155205714Y-90412380D01*
X155110476Y-90364761D01*
X155062857Y-90317142D01*
X161057142Y-90452380D02*
X160723809Y-89976190D01*
X160485714Y-90452380D02*
X160485714Y-89452380D01*
X160866666Y-89452380D01*
X160961904Y-89500000D01*
X161009523Y-89547619D01*
X161057142Y-89642857D01*
X161057142Y-89785714D01*
X161009523Y-89880952D01*
X160961904Y-89928571D01*
X160866666Y-89976190D01*
X160485714Y-89976190D01*
X161390476Y-89452380D02*
X162009523Y-89452380D01*
X161676190Y-89833333D01*
X161819047Y-89833333D01*
X161914285Y-89880952D01*
X161961904Y-89928571D01*
X162009523Y-90023809D01*
X162009523Y-90261904D01*
X161961904Y-90357142D01*
X161914285Y-90404761D01*
X161819047Y-90452380D01*
X161533333Y-90452380D01*
X161438095Y-90404761D01*
X161390476Y-90357142D01*
X162390476Y-89547619D02*
X162438095Y-89500000D01*
X162533333Y-89452380D01*
X162771428Y-89452380D01*
X162866666Y-89500000D01*
X162914285Y-89547619D01*
X162961904Y-89642857D01*
X162961904Y-89738095D01*
X162914285Y-89880952D01*
X162342857Y-90452380D01*
X162961904Y-90452380D01*
X170198095Y-90222380D02*
X170198095Y-91031904D01*
X170245714Y-91127142D01*
X170293333Y-91174761D01*
X170388571Y-91222380D01*
X170579047Y-91222380D01*
X170674285Y-91174761D01*
X170721904Y-91127142D01*
X170769523Y-91031904D01*
X170769523Y-90222380D01*
X171150476Y-90222380D02*
X171769523Y-90222380D01*
X171436190Y-90603333D01*
X171579047Y-90603333D01*
X171674285Y-90650952D01*
X171721904Y-90698571D01*
X171769523Y-90793809D01*
X171769523Y-91031904D01*
X171721904Y-91127142D01*
X171674285Y-91174761D01*
X171579047Y-91222380D01*
X171293333Y-91222380D01*
X171198095Y-91174761D01*
X171150476Y-91127142D01*
X131666666Y-76362380D02*
X131666666Y-77076666D01*
X131619047Y-77219523D01*
X131523809Y-77314761D01*
X131380952Y-77362380D01*
X131285714Y-77362380D01*
X132666666Y-77362380D02*
X132095238Y-77362380D01*
X132380952Y-77362380D02*
X132380952Y-76362380D01*
X132285714Y-76505238D01*
X132190476Y-76600476D01*
X132095238Y-76648095D01*
X154868095Y-103532380D02*
X154868095Y-104341904D01*
X154915714Y-104437142D01*
X154963333Y-104484761D01*
X155058571Y-104532380D01*
X155249047Y-104532380D01*
X155344285Y-104484761D01*
X155391904Y-104437142D01*
X155439523Y-104341904D01*
X155439523Y-103532380D01*
X155868095Y-103627619D02*
X155915714Y-103580000D01*
X156010952Y-103532380D01*
X156249047Y-103532380D01*
X156344285Y-103580000D01*
X156391904Y-103627619D01*
X156439523Y-103722857D01*
X156439523Y-103818095D01*
X156391904Y-103960952D01*
X155820476Y-104532380D01*
X156439523Y-104532380D01*
X132798095Y-103532380D02*
X132798095Y-104341904D01*
X132845714Y-104437142D01*
X132893333Y-104484761D01*
X132988571Y-104532380D01*
X133179047Y-104532380D01*
X133274285Y-104484761D01*
X133321904Y-104437142D01*
X133369523Y-104341904D01*
X133369523Y-103532380D01*
X134369523Y-104532380D02*
X133798095Y-104532380D01*
X134083809Y-104532380D02*
X134083809Y-103532380D01*
X133988571Y-103675238D01*
X133893333Y-103770476D01*
X133798095Y-103818095D01*
X153042380Y-118782857D02*
X152566190Y-119116190D01*
X153042380Y-119354285D02*
X152042380Y-119354285D01*
X152042380Y-118973333D01*
X152090000Y-118878095D01*
X152137619Y-118830476D01*
X152232857Y-118782857D01*
X152375714Y-118782857D01*
X152470952Y-118830476D01*
X152518571Y-118878095D01*
X152566190Y-118973333D01*
X152566190Y-119354285D01*
X152042380Y-118449523D02*
X152042380Y-117830476D01*
X152423333Y-118163809D01*
X152423333Y-118020952D01*
X152470952Y-117925714D01*
X152518571Y-117878095D01*
X152613809Y-117830476D01*
X152851904Y-117830476D01*
X152947142Y-117878095D01*
X152994761Y-117925714D01*
X153042380Y-118020952D01*
X153042380Y-118306666D01*
X152994761Y-118401904D01*
X152947142Y-118449523D01*
X153042380Y-116878095D02*
X153042380Y-117449523D01*
X153042380Y-117163809D02*
X152042380Y-117163809D01*
X152185238Y-117259047D01*
X152280476Y-117354285D01*
X152328095Y-117449523D01*
X165807142Y-90372380D02*
X165473809Y-89896190D01*
X165235714Y-90372380D02*
X165235714Y-89372380D01*
X165616666Y-89372380D01*
X165711904Y-89420000D01*
X165759523Y-89467619D01*
X165807142Y-89562857D01*
X165807142Y-89705714D01*
X165759523Y-89800952D01*
X165711904Y-89848571D01*
X165616666Y-89896190D01*
X165235714Y-89896190D01*
X166140476Y-89372380D02*
X166759523Y-89372380D01*
X166426190Y-89753333D01*
X166569047Y-89753333D01*
X166664285Y-89800952D01*
X166711904Y-89848571D01*
X166759523Y-89943809D01*
X166759523Y-90181904D01*
X166711904Y-90277142D01*
X166664285Y-90324761D01*
X166569047Y-90372380D01*
X166283333Y-90372380D01*
X166188095Y-90324761D01*
X166140476Y-90277142D01*
X167378571Y-89372380D02*
X167473809Y-89372380D01*
X167569047Y-89420000D01*
X167616666Y-89467619D01*
X167664285Y-89562857D01*
X167711904Y-89753333D01*
X167711904Y-89991428D01*
X167664285Y-90181904D01*
X167616666Y-90277142D01*
X167569047Y-90324761D01*
X167473809Y-90372380D01*
X167378571Y-90372380D01*
X167283333Y-90324761D01*
X167235714Y-90277142D01*
X167188095Y-90181904D01*
X167140476Y-89991428D01*
X167140476Y-89753333D01*
X167188095Y-89562857D01*
X167235714Y-89467619D01*
X167283333Y-89420000D01*
X167378571Y-89372380D01*
X129292380Y-80452857D02*
X128816190Y-80786190D01*
X129292380Y-81024285D02*
X128292380Y-81024285D01*
X128292380Y-80643333D01*
X128340000Y-80548095D01*
X128387619Y-80500476D01*
X128482857Y-80452857D01*
X128625714Y-80452857D01*
X128720952Y-80500476D01*
X128768571Y-80548095D01*
X128816190Y-80643333D01*
X128816190Y-81024285D01*
X128387619Y-80071904D02*
X128340000Y-80024285D01*
X128292380Y-79929047D01*
X128292380Y-79690952D01*
X128340000Y-79595714D01*
X128387619Y-79548095D01*
X128482857Y-79500476D01*
X128578095Y-79500476D01*
X128720952Y-79548095D01*
X129292380Y-80119523D01*
X129292380Y-79500476D01*
X129292380Y-79024285D02*
X129292380Y-78833809D01*
X129244761Y-78738571D01*
X129197142Y-78690952D01*
X129054285Y-78595714D01*
X128863809Y-78548095D01*
X128482857Y-78548095D01*
X128387619Y-78595714D01*
X128340000Y-78643333D01*
X128292380Y-78738571D01*
X128292380Y-78929047D01*
X128340000Y-79024285D01*
X128387619Y-79071904D01*
X128482857Y-79119523D01*
X128720952Y-79119523D01*
X128816190Y-79071904D01*
X128863809Y-79024285D01*
X128911428Y-78929047D01*
X128911428Y-78738571D01*
X128863809Y-78643333D01*
X128816190Y-78595714D01*
X128720952Y-78548095D01*
X122892380Y-80682857D02*
X122416190Y-81016190D01*
X122892380Y-81254285D02*
X121892380Y-81254285D01*
X121892380Y-80873333D01*
X121940000Y-80778095D01*
X121987619Y-80730476D01*
X122082857Y-80682857D01*
X122225714Y-80682857D01*
X122320952Y-80730476D01*
X122368571Y-80778095D01*
X122416190Y-80873333D01*
X122416190Y-81254285D01*
X121987619Y-80301904D02*
X121940000Y-80254285D01*
X121892380Y-80159047D01*
X121892380Y-79920952D01*
X121940000Y-79825714D01*
X121987619Y-79778095D01*
X122082857Y-79730476D01*
X122178095Y-79730476D01*
X122320952Y-79778095D01*
X122892380Y-80349523D01*
X122892380Y-79730476D01*
X122320952Y-79159047D02*
X122273333Y-79254285D01*
X122225714Y-79301904D01*
X122130476Y-79349523D01*
X122082857Y-79349523D01*
X121987619Y-79301904D01*
X121940000Y-79254285D01*
X121892380Y-79159047D01*
X121892380Y-78968571D01*
X121940000Y-78873333D01*
X121987619Y-78825714D01*
X122082857Y-78778095D01*
X122130476Y-78778095D01*
X122225714Y-78825714D01*
X122273333Y-78873333D01*
X122320952Y-78968571D01*
X122320952Y-79159047D01*
X122368571Y-79254285D01*
X122416190Y-79301904D01*
X122511428Y-79349523D01*
X122701904Y-79349523D01*
X122797142Y-79301904D01*
X122844761Y-79254285D01*
X122892380Y-79159047D01*
X122892380Y-78968571D01*
X122844761Y-78873333D01*
X122797142Y-78825714D01*
X122701904Y-78778095D01*
X122511428Y-78778095D01*
X122416190Y-78825714D01*
X122368571Y-78873333D01*
X122320952Y-78968571D01*
X146232380Y-106132857D02*
X145756190Y-106466190D01*
X146232380Y-106704285D02*
X145232380Y-106704285D01*
X145232380Y-106323333D01*
X145280000Y-106228095D01*
X145327619Y-106180476D01*
X145422857Y-106132857D01*
X145565714Y-106132857D01*
X145660952Y-106180476D01*
X145708571Y-106228095D01*
X145756190Y-106323333D01*
X145756190Y-106704285D01*
X145327619Y-105751904D02*
X145280000Y-105704285D01*
X145232380Y-105609047D01*
X145232380Y-105370952D01*
X145280000Y-105275714D01*
X145327619Y-105228095D01*
X145422857Y-105180476D01*
X145518095Y-105180476D01*
X145660952Y-105228095D01*
X146232380Y-105799523D01*
X146232380Y-105180476D01*
X145232380Y-104847142D02*
X145232380Y-104180476D01*
X146232380Y-104609047D01*
X140522380Y-105912857D02*
X140046190Y-106246190D01*
X140522380Y-106484285D02*
X139522380Y-106484285D01*
X139522380Y-106103333D01*
X139570000Y-106008095D01*
X139617619Y-105960476D01*
X139712857Y-105912857D01*
X139855714Y-105912857D01*
X139950952Y-105960476D01*
X139998571Y-106008095D01*
X140046190Y-106103333D01*
X140046190Y-106484285D01*
X139617619Y-105531904D02*
X139570000Y-105484285D01*
X139522380Y-105389047D01*
X139522380Y-105150952D01*
X139570000Y-105055714D01*
X139617619Y-105008095D01*
X139712857Y-104960476D01*
X139808095Y-104960476D01*
X139950952Y-105008095D01*
X140522380Y-105579523D01*
X140522380Y-104960476D01*
X139522380Y-104103333D02*
X139522380Y-104293809D01*
X139570000Y-104389047D01*
X139617619Y-104436666D01*
X139760476Y-104531904D01*
X139950952Y-104579523D01*
X140331904Y-104579523D01*
X140427142Y-104531904D01*
X140474761Y-104484285D01*
X140522380Y-104389047D01*
X140522380Y-104198571D01*
X140474761Y-104103333D01*
X140427142Y-104055714D01*
X140331904Y-104008095D01*
X140093809Y-104008095D01*
X139998571Y-104055714D01*
X139950952Y-104103333D01*
X139903333Y-104198571D01*
X139903333Y-104389047D01*
X139950952Y-104484285D01*
X139998571Y-104531904D01*
X140093809Y-104579523D01*
X116237142Y-113922380D02*
X115903809Y-113446190D01*
X115665714Y-113922380D02*
X115665714Y-112922380D01*
X116046666Y-112922380D01*
X116141904Y-112970000D01*
X116189523Y-113017619D01*
X116237142Y-113112857D01*
X116237142Y-113255714D01*
X116189523Y-113350952D01*
X116141904Y-113398571D01*
X116046666Y-113446190D01*
X115665714Y-113446190D01*
X116618095Y-113017619D02*
X116665714Y-112970000D01*
X116760952Y-112922380D01*
X116999047Y-112922380D01*
X117094285Y-112970000D01*
X117141904Y-113017619D01*
X117189523Y-113112857D01*
X117189523Y-113208095D01*
X117141904Y-113350952D01*
X116570476Y-113922380D01*
X117189523Y-113922380D01*
X118094285Y-112922380D02*
X117618095Y-112922380D01*
X117570476Y-113398571D01*
X117618095Y-113350952D01*
X117713333Y-113303333D01*
X117951428Y-113303333D01*
X118046666Y-113350952D01*
X118094285Y-113398571D01*
X118141904Y-113493809D01*
X118141904Y-113731904D01*
X118094285Y-113827142D01*
X118046666Y-113874761D01*
X117951428Y-113922380D01*
X117713333Y-113922380D01*
X117618095Y-113874761D01*
X117570476Y-113827142D01*
X126032380Y-118852857D02*
X125556190Y-119186190D01*
X126032380Y-119424285D02*
X125032380Y-119424285D01*
X125032380Y-119043333D01*
X125080000Y-118948095D01*
X125127619Y-118900476D01*
X125222857Y-118852857D01*
X125365714Y-118852857D01*
X125460952Y-118900476D01*
X125508571Y-118948095D01*
X125556190Y-119043333D01*
X125556190Y-119424285D01*
X125127619Y-118471904D02*
X125080000Y-118424285D01*
X125032380Y-118329047D01*
X125032380Y-118090952D01*
X125080000Y-117995714D01*
X125127619Y-117948095D01*
X125222857Y-117900476D01*
X125318095Y-117900476D01*
X125460952Y-117948095D01*
X126032380Y-118519523D01*
X126032380Y-117900476D01*
X125365714Y-117043333D02*
X126032380Y-117043333D01*
X124984761Y-117281428D02*
X125699047Y-117519523D01*
X125699047Y-116900476D01*
X133042380Y-118702857D02*
X132566190Y-119036190D01*
X133042380Y-119274285D02*
X132042380Y-119274285D01*
X132042380Y-118893333D01*
X132090000Y-118798095D01*
X132137619Y-118750476D01*
X132232857Y-118702857D01*
X132375714Y-118702857D01*
X132470952Y-118750476D01*
X132518571Y-118798095D01*
X132566190Y-118893333D01*
X132566190Y-119274285D01*
X132137619Y-118321904D02*
X132090000Y-118274285D01*
X132042380Y-118179047D01*
X132042380Y-117940952D01*
X132090000Y-117845714D01*
X132137619Y-117798095D01*
X132232857Y-117750476D01*
X132328095Y-117750476D01*
X132470952Y-117798095D01*
X133042380Y-118369523D01*
X133042380Y-117750476D01*
X132042380Y-117417142D02*
X132042380Y-116798095D01*
X132423333Y-117131428D01*
X132423333Y-116988571D01*
X132470952Y-116893333D01*
X132518571Y-116845714D01*
X132613809Y-116798095D01*
X132851904Y-116798095D01*
X132947142Y-116845714D01*
X132994761Y-116893333D01*
X133042380Y-116988571D01*
X133042380Y-117274285D01*
X132994761Y-117369523D01*
X132947142Y-117417142D01*
X139972380Y-118612857D02*
X139496190Y-118946190D01*
X139972380Y-119184285D02*
X138972380Y-119184285D01*
X138972380Y-118803333D01*
X139020000Y-118708095D01*
X139067619Y-118660476D01*
X139162857Y-118612857D01*
X139305714Y-118612857D01*
X139400952Y-118660476D01*
X139448571Y-118708095D01*
X139496190Y-118803333D01*
X139496190Y-119184285D01*
X139067619Y-118231904D02*
X139020000Y-118184285D01*
X138972380Y-118089047D01*
X138972380Y-117850952D01*
X139020000Y-117755714D01*
X139067619Y-117708095D01*
X139162857Y-117660476D01*
X139258095Y-117660476D01*
X139400952Y-117708095D01*
X139972380Y-118279523D01*
X139972380Y-117660476D01*
X139067619Y-117279523D02*
X139020000Y-117231904D01*
X138972380Y-117136666D01*
X138972380Y-116898571D01*
X139020000Y-116803333D01*
X139067619Y-116755714D01*
X139162857Y-116708095D01*
X139258095Y-116708095D01*
X139400952Y-116755714D01*
X139972380Y-117327142D01*
X139972380Y-116708095D01*
X147072380Y-118722857D02*
X146596190Y-119056190D01*
X147072380Y-119294285D02*
X146072380Y-119294285D01*
X146072380Y-118913333D01*
X146120000Y-118818095D01*
X146167619Y-118770476D01*
X146262857Y-118722857D01*
X146405714Y-118722857D01*
X146500952Y-118770476D01*
X146548571Y-118818095D01*
X146596190Y-118913333D01*
X146596190Y-119294285D01*
X146167619Y-118341904D02*
X146120000Y-118294285D01*
X146072380Y-118199047D01*
X146072380Y-117960952D01*
X146120000Y-117865714D01*
X146167619Y-117818095D01*
X146262857Y-117770476D01*
X146358095Y-117770476D01*
X146500952Y-117818095D01*
X147072380Y-118389523D01*
X147072380Y-117770476D01*
X147072380Y-116818095D02*
X147072380Y-117389523D01*
X147072380Y-117103809D02*
X146072380Y-117103809D01*
X146215238Y-117199047D01*
X146310476Y-117294285D01*
X146358095Y-117389523D01*
X128692380Y-109932857D02*
X128216190Y-110266190D01*
X128692380Y-110504285D02*
X127692380Y-110504285D01*
X127692380Y-110123333D01*
X127740000Y-110028095D01*
X127787619Y-109980476D01*
X127882857Y-109932857D01*
X128025714Y-109932857D01*
X128120952Y-109980476D01*
X128168571Y-110028095D01*
X128216190Y-110123333D01*
X128216190Y-110504285D01*
X127787619Y-109551904D02*
X127740000Y-109504285D01*
X127692380Y-109409047D01*
X127692380Y-109170952D01*
X127740000Y-109075714D01*
X127787619Y-109028095D01*
X127882857Y-108980476D01*
X127978095Y-108980476D01*
X128120952Y-109028095D01*
X128692380Y-109599523D01*
X128692380Y-108980476D01*
X127692380Y-108361428D02*
X127692380Y-108266190D01*
X127740000Y-108170952D01*
X127787619Y-108123333D01*
X127882857Y-108075714D01*
X128073333Y-108028095D01*
X128311428Y-108028095D01*
X128501904Y-108075714D01*
X128597142Y-108123333D01*
X128644761Y-108170952D01*
X128692380Y-108266190D01*
X128692380Y-108361428D01*
X128644761Y-108456666D01*
X128597142Y-108504285D01*
X128501904Y-108551904D01*
X128311428Y-108599523D01*
X128073333Y-108599523D01*
X127882857Y-108551904D01*
X127787619Y-108504285D01*
X127740000Y-108456666D01*
X127692380Y-108361428D01*
X135682380Y-110012857D02*
X135206190Y-110346190D01*
X135682380Y-110584285D02*
X134682380Y-110584285D01*
X134682380Y-110203333D01*
X134730000Y-110108095D01*
X134777619Y-110060476D01*
X134872857Y-110012857D01*
X135015714Y-110012857D01*
X135110952Y-110060476D01*
X135158571Y-110108095D01*
X135206190Y-110203333D01*
X135206190Y-110584285D01*
X135682380Y-109060476D02*
X135682380Y-109631904D01*
X135682380Y-109346190D02*
X134682380Y-109346190D01*
X134825238Y-109441428D01*
X134920476Y-109536666D01*
X134968095Y-109631904D01*
X135682380Y-108584285D02*
X135682380Y-108393809D01*
X135634761Y-108298571D01*
X135587142Y-108250952D01*
X135444285Y-108155714D01*
X135253809Y-108108095D01*
X134872857Y-108108095D01*
X134777619Y-108155714D01*
X134730000Y-108203333D01*
X134682380Y-108298571D01*
X134682380Y-108489047D01*
X134730000Y-108584285D01*
X134777619Y-108631904D01*
X134872857Y-108679523D01*
X135110952Y-108679523D01*
X135206190Y-108631904D01*
X135253809Y-108584285D01*
X135301428Y-108489047D01*
X135301428Y-108298571D01*
X135253809Y-108203333D01*
X135206190Y-108155714D01*
X135110952Y-108108095D01*
X142652380Y-109932857D02*
X142176190Y-110266190D01*
X142652380Y-110504285D02*
X141652380Y-110504285D01*
X141652380Y-110123333D01*
X141700000Y-110028095D01*
X141747619Y-109980476D01*
X141842857Y-109932857D01*
X141985714Y-109932857D01*
X142080952Y-109980476D01*
X142128571Y-110028095D01*
X142176190Y-110123333D01*
X142176190Y-110504285D01*
X142652380Y-108980476D02*
X142652380Y-109551904D01*
X142652380Y-109266190D02*
X141652380Y-109266190D01*
X141795238Y-109361428D01*
X141890476Y-109456666D01*
X141938095Y-109551904D01*
X142080952Y-108409047D02*
X142033333Y-108504285D01*
X141985714Y-108551904D01*
X141890476Y-108599523D01*
X141842857Y-108599523D01*
X141747619Y-108551904D01*
X141700000Y-108504285D01*
X141652380Y-108409047D01*
X141652380Y-108218571D01*
X141700000Y-108123333D01*
X141747619Y-108075714D01*
X141842857Y-108028095D01*
X141890476Y-108028095D01*
X141985714Y-108075714D01*
X142033333Y-108123333D01*
X142080952Y-108218571D01*
X142080952Y-108409047D01*
X142128571Y-108504285D01*
X142176190Y-108551904D01*
X142271428Y-108599523D01*
X142461904Y-108599523D01*
X142557142Y-108551904D01*
X142604761Y-108504285D01*
X142652380Y-108409047D01*
X142652380Y-108218571D01*
X142604761Y-108123333D01*
X142557142Y-108075714D01*
X142461904Y-108028095D01*
X142271428Y-108028095D01*
X142176190Y-108075714D01*
X142128571Y-108123333D01*
X142080952Y-108218571D01*
X149702380Y-109962857D02*
X149226190Y-110296190D01*
X149702380Y-110534285D02*
X148702380Y-110534285D01*
X148702380Y-110153333D01*
X148750000Y-110058095D01*
X148797619Y-110010476D01*
X148892857Y-109962857D01*
X149035714Y-109962857D01*
X149130952Y-110010476D01*
X149178571Y-110058095D01*
X149226190Y-110153333D01*
X149226190Y-110534285D01*
X149702380Y-109010476D02*
X149702380Y-109581904D01*
X149702380Y-109296190D02*
X148702380Y-109296190D01*
X148845238Y-109391428D01*
X148940476Y-109486666D01*
X148988095Y-109581904D01*
X148702380Y-108677142D02*
X148702380Y-108010476D01*
X149702380Y-108439047D01*
X160127142Y-109782380D02*
X159793809Y-109306190D01*
X159555714Y-109782380D02*
X159555714Y-108782380D01*
X159936666Y-108782380D01*
X160031904Y-108830000D01*
X160079523Y-108877619D01*
X160127142Y-108972857D01*
X160127142Y-109115714D01*
X160079523Y-109210952D01*
X160031904Y-109258571D01*
X159936666Y-109306190D01*
X159555714Y-109306190D01*
X161079523Y-109782380D02*
X160508095Y-109782380D01*
X160793809Y-109782380D02*
X160793809Y-108782380D01*
X160698571Y-108925238D01*
X160603333Y-109020476D01*
X160508095Y-109068095D01*
X161984285Y-108782380D02*
X161508095Y-108782380D01*
X161460476Y-109258571D01*
X161508095Y-109210952D01*
X161603333Y-109163333D01*
X161841428Y-109163333D01*
X161936666Y-109210952D01*
X161984285Y-109258571D01*
X162031904Y-109353809D01*
X162031904Y-109591904D01*
X161984285Y-109687142D01*
X161936666Y-109734761D01*
X161841428Y-109782380D01*
X161603333Y-109782380D01*
X161508095Y-109734761D01*
X161460476Y-109687142D01*
X167622142Y-109792380D02*
X167288809Y-109316190D01*
X167050714Y-109792380D02*
X167050714Y-108792380D01*
X167431666Y-108792380D01*
X167526904Y-108840000D01*
X167574523Y-108887619D01*
X167622142Y-108982857D01*
X167622142Y-109125714D01*
X167574523Y-109220952D01*
X167526904Y-109268571D01*
X167431666Y-109316190D01*
X167050714Y-109316190D01*
X168574523Y-109792380D02*
X168003095Y-109792380D01*
X168288809Y-109792380D02*
X168288809Y-108792380D01*
X168193571Y-108935238D01*
X168098333Y-109030476D01*
X168003095Y-109078095D01*
X169431666Y-109125714D02*
X169431666Y-109792380D01*
X169193571Y-108744761D02*
X168955476Y-109459047D01*
X169574523Y-109459047D01*
X171292142Y-109822380D02*
X170958809Y-109346190D01*
X170720714Y-109822380D02*
X170720714Y-108822380D01*
X171101666Y-108822380D01*
X171196904Y-108870000D01*
X171244523Y-108917619D01*
X171292142Y-109012857D01*
X171292142Y-109155714D01*
X171244523Y-109250952D01*
X171196904Y-109298571D01*
X171101666Y-109346190D01*
X170720714Y-109346190D01*
X172244523Y-109822380D02*
X171673095Y-109822380D01*
X171958809Y-109822380D02*
X171958809Y-108822380D01*
X171863571Y-108965238D01*
X171768333Y-109060476D01*
X171673095Y-109108095D01*
X172577857Y-108822380D02*
X173196904Y-108822380D01*
X172863571Y-109203333D01*
X173006428Y-109203333D01*
X173101666Y-109250952D01*
X173149285Y-109298571D01*
X173196904Y-109393809D01*
X173196904Y-109631904D01*
X173149285Y-109727142D01*
X173101666Y-109774761D01*
X173006428Y-109822380D01*
X172720714Y-109822380D01*
X172625476Y-109774761D01*
X172577857Y-109727142D01*
X124562380Y-110072857D02*
X124086190Y-110406190D01*
X124562380Y-110644285D02*
X123562380Y-110644285D01*
X123562380Y-110263333D01*
X123610000Y-110168095D01*
X123657619Y-110120476D01*
X123752857Y-110072857D01*
X123895714Y-110072857D01*
X123990952Y-110120476D01*
X124038571Y-110168095D01*
X124086190Y-110263333D01*
X124086190Y-110644285D01*
X124562380Y-109120476D02*
X124562380Y-109691904D01*
X124562380Y-109406190D02*
X123562380Y-109406190D01*
X123705238Y-109501428D01*
X123800476Y-109596666D01*
X123848095Y-109691904D01*
X123657619Y-108739523D02*
X123610000Y-108691904D01*
X123562380Y-108596666D01*
X123562380Y-108358571D01*
X123610000Y-108263333D01*
X123657619Y-108215714D01*
X123752857Y-108168095D01*
X123848095Y-108168095D01*
X123990952Y-108215714D01*
X124562380Y-108787142D01*
X124562380Y-108168095D01*
X131542380Y-110102857D02*
X131066190Y-110436190D01*
X131542380Y-110674285D02*
X130542380Y-110674285D01*
X130542380Y-110293333D01*
X130590000Y-110198095D01*
X130637619Y-110150476D01*
X130732857Y-110102857D01*
X130875714Y-110102857D01*
X130970952Y-110150476D01*
X131018571Y-110198095D01*
X131066190Y-110293333D01*
X131066190Y-110674285D01*
X131542380Y-109150476D02*
X131542380Y-109721904D01*
X131542380Y-109436190D02*
X130542380Y-109436190D01*
X130685238Y-109531428D01*
X130780476Y-109626666D01*
X130828095Y-109721904D01*
X131542380Y-108198095D02*
X131542380Y-108769523D01*
X131542380Y-108483809D02*
X130542380Y-108483809D01*
X130685238Y-108579047D01*
X130780476Y-108674285D01*
X130828095Y-108769523D01*
X138562380Y-109922857D02*
X138086190Y-110256190D01*
X138562380Y-110494285D02*
X137562380Y-110494285D01*
X137562380Y-110113333D01*
X137610000Y-110018095D01*
X137657619Y-109970476D01*
X137752857Y-109922857D01*
X137895714Y-109922857D01*
X137990952Y-109970476D01*
X138038571Y-110018095D01*
X138086190Y-110113333D01*
X138086190Y-110494285D01*
X138562380Y-108970476D02*
X138562380Y-109541904D01*
X138562380Y-109256190D02*
X137562380Y-109256190D01*
X137705238Y-109351428D01*
X137800476Y-109446666D01*
X137848095Y-109541904D01*
X137562380Y-108351428D02*
X137562380Y-108256190D01*
X137610000Y-108160952D01*
X137657619Y-108113333D01*
X137752857Y-108065714D01*
X137943333Y-108018095D01*
X138181428Y-108018095D01*
X138371904Y-108065714D01*
X138467142Y-108113333D01*
X138514761Y-108160952D01*
X138562380Y-108256190D01*
X138562380Y-108351428D01*
X138514761Y-108446666D01*
X138467142Y-108494285D01*
X138371904Y-108541904D01*
X138181428Y-108589523D01*
X137943333Y-108589523D01*
X137752857Y-108541904D01*
X137657619Y-108494285D01*
X137610000Y-108446666D01*
X137562380Y-108351428D01*
X145572380Y-109976666D02*
X145096190Y-110310000D01*
X145572380Y-110548095D02*
X144572380Y-110548095D01*
X144572380Y-110167142D01*
X144620000Y-110071904D01*
X144667619Y-110024285D01*
X144762857Y-109976666D01*
X144905714Y-109976666D01*
X145000952Y-110024285D01*
X145048571Y-110071904D01*
X145096190Y-110167142D01*
X145096190Y-110548095D01*
X145572380Y-109500476D02*
X145572380Y-109310000D01*
X145524761Y-109214761D01*
X145477142Y-109167142D01*
X145334285Y-109071904D01*
X145143809Y-109024285D01*
X144762857Y-109024285D01*
X144667619Y-109071904D01*
X144620000Y-109119523D01*
X144572380Y-109214761D01*
X144572380Y-109405238D01*
X144620000Y-109500476D01*
X144667619Y-109548095D01*
X144762857Y-109595714D01*
X145000952Y-109595714D01*
X145096190Y-109548095D01*
X145143809Y-109500476D01*
X145191428Y-109405238D01*
X145191428Y-109214761D01*
X145143809Y-109119523D01*
X145096190Y-109071904D01*
X145000952Y-109024285D01*
X162512380Y-118471666D02*
X162036190Y-118805000D01*
X162512380Y-119043095D02*
X161512380Y-119043095D01*
X161512380Y-118662142D01*
X161560000Y-118566904D01*
X161607619Y-118519285D01*
X161702857Y-118471666D01*
X161845714Y-118471666D01*
X161940952Y-118519285D01*
X161988571Y-118566904D01*
X162036190Y-118662142D01*
X162036190Y-119043095D01*
X161940952Y-117900238D02*
X161893333Y-117995476D01*
X161845714Y-118043095D01*
X161750476Y-118090714D01*
X161702857Y-118090714D01*
X161607619Y-118043095D01*
X161560000Y-117995476D01*
X161512380Y-117900238D01*
X161512380Y-117709761D01*
X161560000Y-117614523D01*
X161607619Y-117566904D01*
X161702857Y-117519285D01*
X161750476Y-117519285D01*
X161845714Y-117566904D01*
X161893333Y-117614523D01*
X161940952Y-117709761D01*
X161940952Y-117900238D01*
X161988571Y-117995476D01*
X162036190Y-118043095D01*
X162131428Y-118090714D01*
X162321904Y-118090714D01*
X162417142Y-118043095D01*
X162464761Y-117995476D01*
X162512380Y-117900238D01*
X162512380Y-117709761D01*
X162464761Y-117614523D01*
X162417142Y-117566904D01*
X162321904Y-117519285D01*
X162131428Y-117519285D01*
X162036190Y-117566904D01*
X161988571Y-117614523D01*
X161940952Y-117709761D01*
X166042380Y-118501666D02*
X165566190Y-118835000D01*
X166042380Y-119073095D02*
X165042380Y-119073095D01*
X165042380Y-118692142D01*
X165090000Y-118596904D01*
X165137619Y-118549285D01*
X165232857Y-118501666D01*
X165375714Y-118501666D01*
X165470952Y-118549285D01*
X165518571Y-118596904D01*
X165566190Y-118692142D01*
X165566190Y-119073095D01*
X165042380Y-118168333D02*
X165042380Y-117501666D01*
X166042380Y-117930238D01*
X169502380Y-118491666D02*
X169026190Y-118825000D01*
X169502380Y-119063095D02*
X168502380Y-119063095D01*
X168502380Y-118682142D01*
X168550000Y-118586904D01*
X168597619Y-118539285D01*
X168692857Y-118491666D01*
X168835714Y-118491666D01*
X168930952Y-118539285D01*
X168978571Y-118586904D01*
X169026190Y-118682142D01*
X169026190Y-119063095D01*
X168502380Y-117634523D02*
X168502380Y-117825000D01*
X168550000Y-117920238D01*
X168597619Y-117967857D01*
X168740476Y-118063095D01*
X168930952Y-118110714D01*
X169311904Y-118110714D01*
X169407142Y-118063095D01*
X169454761Y-118015476D01*
X169502380Y-117920238D01*
X169502380Y-117729761D01*
X169454761Y-117634523D01*
X169407142Y-117586904D01*
X169311904Y-117539285D01*
X169073809Y-117539285D01*
X168978571Y-117586904D01*
X168930952Y-117634523D01*
X168883333Y-117729761D01*
X168883333Y-117920238D01*
X168930952Y-118015476D01*
X168978571Y-118063095D01*
X169073809Y-118110714D01*
X173082380Y-118471666D02*
X172606190Y-118805000D01*
X173082380Y-119043095D02*
X172082380Y-119043095D01*
X172082380Y-118662142D01*
X172130000Y-118566904D01*
X172177619Y-118519285D01*
X172272857Y-118471666D01*
X172415714Y-118471666D01*
X172510952Y-118519285D01*
X172558571Y-118566904D01*
X172606190Y-118662142D01*
X172606190Y-119043095D01*
X172082380Y-117566904D02*
X172082380Y-118043095D01*
X172558571Y-118090714D01*
X172510952Y-118043095D01*
X172463333Y-117947857D01*
X172463333Y-117709761D01*
X172510952Y-117614523D01*
X172558571Y-117566904D01*
X172653809Y-117519285D01*
X172891904Y-117519285D01*
X172987142Y-117566904D01*
X173034761Y-117614523D01*
X173082380Y-117709761D01*
X173082380Y-117947857D01*
X173034761Y-118043095D01*
X172987142Y-118090714D01*
X122183333Y-115512380D02*
X121850000Y-115036190D01*
X121611904Y-115512380D02*
X121611904Y-114512380D01*
X121992857Y-114512380D01*
X122088095Y-114560000D01*
X122135714Y-114607619D01*
X122183333Y-114702857D01*
X122183333Y-114845714D01*
X122135714Y-114940952D01*
X122088095Y-114988571D01*
X121992857Y-115036190D01*
X121611904Y-115036190D01*
X123040476Y-114845714D02*
X123040476Y-115512380D01*
X122802380Y-114464761D02*
X122564285Y-115179047D01*
X123183333Y-115179047D01*
X126173333Y-106622380D02*
X125697142Y-106622380D01*
X125697142Y-105622380D01*
X126459047Y-105717619D02*
X126506666Y-105670000D01*
X126601904Y-105622380D01*
X126840000Y-105622380D01*
X126935238Y-105670000D01*
X126982857Y-105717619D01*
X127030476Y-105812857D01*
X127030476Y-105908095D01*
X126982857Y-106050952D01*
X126411428Y-106622380D01*
X127030476Y-106622380D01*
X149913333Y-106012380D02*
X149437142Y-106012380D01*
X149437142Y-105012380D01*
X150770476Y-106012380D02*
X150199047Y-106012380D01*
X150484761Y-106012380D02*
X150484761Y-105012380D01*
X150389523Y-105155238D01*
X150294285Y-105250476D01*
X150199047Y-105298095D01*
X169276666Y-85862380D02*
X169276666Y-86576666D01*
X169229047Y-86719523D01*
X169133809Y-86814761D01*
X168990952Y-86862380D01*
X168895714Y-86862380D01*
X169752857Y-86862380D02*
X169752857Y-85862380D01*
X170133809Y-85862380D01*
X170229047Y-85910000D01*
X170276666Y-85957619D01*
X170324285Y-86052857D01*
X170324285Y-86195714D01*
X170276666Y-86290952D01*
X170229047Y-86338571D01*
X170133809Y-86386190D01*
X169752857Y-86386190D01*
X171276666Y-86862380D02*
X170705238Y-86862380D01*
X170990952Y-86862380D02*
X170990952Y-85862380D01*
X170895714Y-86005238D01*
X170800476Y-86100476D01*
X170705238Y-86148095D01*
X152886666Y-121462380D02*
X152886666Y-122176666D01*
X152839047Y-122319523D01*
X152743809Y-122414761D01*
X152600952Y-122462380D01*
X152505714Y-122462380D01*
X153267619Y-121462380D02*
X153886666Y-121462380D01*
X153553333Y-121843333D01*
X153696190Y-121843333D01*
X153791428Y-121890952D01*
X153839047Y-121938571D01*
X153886666Y-122033809D01*
X153886666Y-122271904D01*
X153839047Y-122367142D01*
X153791428Y-122414761D01*
X153696190Y-122462380D01*
X153410476Y-122462380D01*
X153315238Y-122414761D01*
X153267619Y-122367142D01*
X116596666Y-121542380D02*
X116596666Y-122256666D01*
X116549047Y-122399523D01*
X116453809Y-122494761D01*
X116310952Y-122542380D01*
X116215714Y-122542380D01*
X117025238Y-121637619D02*
X117072857Y-121590000D01*
X117168095Y-121542380D01*
X117406190Y-121542380D01*
X117501428Y-121590000D01*
X117549047Y-121637619D01*
X117596666Y-121732857D01*
X117596666Y-121828095D01*
X117549047Y-121970952D01*
X116977619Y-122542380D01*
X117596666Y-122542380D01*
X128635714Y-82332380D02*
X128635714Y-81332380D01*
X128873809Y-81332380D01*
X129016666Y-81380000D01*
X129111904Y-81475238D01*
X129159523Y-81570476D01*
X129207142Y-81760952D01*
X129207142Y-81903809D01*
X129159523Y-82094285D01*
X129111904Y-82189523D01*
X129016666Y-82284761D01*
X128873809Y-82332380D01*
X128635714Y-82332380D01*
X130159523Y-82332380D02*
X129588095Y-82332380D01*
X129873809Y-82332380D02*
X129873809Y-81332380D01*
X129778571Y-81475238D01*
X129683333Y-81570476D01*
X129588095Y-81618095D01*
X130778571Y-81332380D02*
X130873809Y-81332380D01*
X130969047Y-81380000D01*
X131016666Y-81427619D01*
X131064285Y-81522857D01*
X131111904Y-81713333D01*
X131111904Y-81951428D01*
X131064285Y-82141904D01*
X131016666Y-82237142D01*
X130969047Y-82284761D01*
X130873809Y-82332380D01*
X130778571Y-82332380D01*
X130683333Y-82284761D01*
X130635714Y-82237142D01*
X130588095Y-82141904D01*
X130540476Y-81951428D01*
X130540476Y-81713333D01*
X130588095Y-81522857D01*
X130635714Y-81427619D01*
X130683333Y-81380000D01*
X130778571Y-81332380D01*
X124751904Y-82302380D02*
X124751904Y-81302380D01*
X124990000Y-81302380D01*
X125132857Y-81350000D01*
X125228095Y-81445238D01*
X125275714Y-81540476D01*
X125323333Y-81730952D01*
X125323333Y-81873809D01*
X125275714Y-82064285D01*
X125228095Y-82159523D01*
X125132857Y-82254761D01*
X124990000Y-82302380D01*
X124751904Y-82302380D01*
X125799523Y-82302380D02*
X125990000Y-82302380D01*
X126085238Y-82254761D01*
X126132857Y-82207142D01*
X126228095Y-82064285D01*
X126275714Y-81873809D01*
X126275714Y-81492857D01*
X126228095Y-81397619D01*
X126180476Y-81350000D01*
X126085238Y-81302380D01*
X125894761Y-81302380D01*
X125799523Y-81350000D01*
X125751904Y-81397619D01*
X125704285Y-81492857D01*
X125704285Y-81730952D01*
X125751904Y-81826190D01*
X125799523Y-81873809D01*
X125894761Y-81921428D01*
X126085238Y-81921428D01*
X126180476Y-81873809D01*
X126228095Y-81826190D01*
X126275714Y-81730952D01*
X155851904Y-113732380D02*
X155851904Y-112732380D01*
X156090000Y-112732380D01*
X156232857Y-112780000D01*
X156328095Y-112875238D01*
X156375714Y-112970476D01*
X156423333Y-113160952D01*
X156423333Y-113303809D01*
X156375714Y-113494285D01*
X156328095Y-113589523D01*
X156232857Y-113684761D01*
X156090000Y-113732380D01*
X155851904Y-113732380D01*
X156994761Y-113160952D02*
X156899523Y-113113333D01*
X156851904Y-113065714D01*
X156804285Y-112970476D01*
X156804285Y-112922857D01*
X156851904Y-112827619D01*
X156899523Y-112780000D01*
X156994761Y-112732380D01*
X157185238Y-112732380D01*
X157280476Y-112780000D01*
X157328095Y-112827619D01*
X157375714Y-112922857D01*
X157375714Y-112970476D01*
X157328095Y-113065714D01*
X157280476Y-113113333D01*
X157185238Y-113160952D01*
X156994761Y-113160952D01*
X156899523Y-113208571D01*
X156851904Y-113256190D01*
X156804285Y-113351428D01*
X156804285Y-113541904D01*
X156851904Y-113637142D01*
X156899523Y-113684761D01*
X156994761Y-113732380D01*
X157185238Y-113732380D01*
X157280476Y-113684761D01*
X157328095Y-113637142D01*
X157375714Y-113541904D01*
X157375714Y-113351428D01*
X157328095Y-113256190D01*
X157280476Y-113208571D01*
X157185238Y-113160952D01*
X160351904Y-113692380D02*
X160351904Y-112692380D01*
X160590000Y-112692380D01*
X160732857Y-112740000D01*
X160828095Y-112835238D01*
X160875714Y-112930476D01*
X160923333Y-113120952D01*
X160923333Y-113263809D01*
X160875714Y-113454285D01*
X160828095Y-113549523D01*
X160732857Y-113644761D01*
X160590000Y-113692380D01*
X160351904Y-113692380D01*
X161256666Y-112692380D02*
X161923333Y-112692380D01*
X161494761Y-113692380D01*
X163671904Y-113562380D02*
X163671904Y-112562380D01*
X163910000Y-112562380D01*
X164052857Y-112610000D01*
X164148095Y-112705238D01*
X164195714Y-112800476D01*
X164243333Y-112990952D01*
X164243333Y-113133809D01*
X164195714Y-113324285D01*
X164148095Y-113419523D01*
X164052857Y-113514761D01*
X163910000Y-113562380D01*
X163671904Y-113562380D01*
X165100476Y-112562380D02*
X164910000Y-112562380D01*
X164814761Y-112610000D01*
X164767142Y-112657619D01*
X164671904Y-112800476D01*
X164624285Y-112990952D01*
X164624285Y-113371904D01*
X164671904Y-113467142D01*
X164719523Y-113514761D01*
X164814761Y-113562380D01*
X165005238Y-113562380D01*
X165100476Y-113514761D01*
X165148095Y-113467142D01*
X165195714Y-113371904D01*
X165195714Y-113133809D01*
X165148095Y-113038571D01*
X165100476Y-112990952D01*
X165005238Y-112943333D01*
X164814761Y-112943333D01*
X164719523Y-112990952D01*
X164671904Y-113038571D01*
X164624285Y-113133809D01*
X167131904Y-113512380D02*
X167131904Y-112512380D01*
X167370000Y-112512380D01*
X167512857Y-112560000D01*
X167608095Y-112655238D01*
X167655714Y-112750476D01*
X167703333Y-112940952D01*
X167703333Y-113083809D01*
X167655714Y-113274285D01*
X167608095Y-113369523D01*
X167512857Y-113464761D01*
X167370000Y-113512380D01*
X167131904Y-113512380D01*
X168608095Y-112512380D02*
X168131904Y-112512380D01*
X168084285Y-112988571D01*
X168131904Y-112940952D01*
X168227142Y-112893333D01*
X168465238Y-112893333D01*
X168560476Y-112940952D01*
X168608095Y-112988571D01*
X168655714Y-113083809D01*
X168655714Y-113321904D01*
X168608095Y-113417142D01*
X168560476Y-113464761D01*
X168465238Y-113512380D01*
X168227142Y-113512380D01*
X168131904Y-113464761D01*
X168084285Y-113417142D01*
X117531904Y-118582380D02*
X117531904Y-117582380D01*
X117770000Y-117582380D01*
X117912857Y-117630000D01*
X118008095Y-117725238D01*
X118055714Y-117820476D01*
X118103333Y-118010952D01*
X118103333Y-118153809D01*
X118055714Y-118344285D01*
X118008095Y-118439523D01*
X117912857Y-118534761D01*
X117770000Y-118582380D01*
X117531904Y-118582380D01*
X118960476Y-117915714D02*
X118960476Y-118582380D01*
X118722380Y-117534761D02*
X118484285Y-118249047D01*
X119103333Y-118249047D01*
X128351904Y-117312380D02*
X128351904Y-116312380D01*
X128590000Y-116312380D01*
X128732857Y-116360000D01*
X128828095Y-116455238D01*
X128875714Y-116550476D01*
X128923333Y-116740952D01*
X128923333Y-116883809D01*
X128875714Y-117074285D01*
X128828095Y-117169523D01*
X128732857Y-117264761D01*
X128590000Y-117312380D01*
X128351904Y-117312380D01*
X129256666Y-116312380D02*
X129875714Y-116312380D01*
X129542380Y-116693333D01*
X129685238Y-116693333D01*
X129780476Y-116740952D01*
X129828095Y-116788571D01*
X129875714Y-116883809D01*
X129875714Y-117121904D01*
X129828095Y-117217142D01*
X129780476Y-117264761D01*
X129685238Y-117312380D01*
X129399523Y-117312380D01*
X129304285Y-117264761D01*
X129256666Y-117217142D01*
X135511904Y-117402380D02*
X135511904Y-116402380D01*
X135750000Y-116402380D01*
X135892857Y-116450000D01*
X135988095Y-116545238D01*
X136035714Y-116640476D01*
X136083333Y-116830952D01*
X136083333Y-116973809D01*
X136035714Y-117164285D01*
X135988095Y-117259523D01*
X135892857Y-117354761D01*
X135750000Y-117402380D01*
X135511904Y-117402380D01*
X136464285Y-116497619D02*
X136511904Y-116450000D01*
X136607142Y-116402380D01*
X136845238Y-116402380D01*
X136940476Y-116450000D01*
X136988095Y-116497619D01*
X137035714Y-116592857D01*
X137035714Y-116688095D01*
X136988095Y-116830952D01*
X136416666Y-117402380D01*
X137035714Y-117402380D01*
X142631904Y-117162380D02*
X142631904Y-116162380D01*
X142870000Y-116162380D01*
X143012857Y-116210000D01*
X143108095Y-116305238D01*
X143155714Y-116400476D01*
X143203333Y-116590952D01*
X143203333Y-116733809D01*
X143155714Y-116924285D01*
X143108095Y-117019523D01*
X143012857Y-117114761D01*
X142870000Y-117162380D01*
X142631904Y-117162380D01*
X144155714Y-117162380D02*
X143584285Y-117162380D01*
X143870000Y-117162380D02*
X143870000Y-116162380D01*
X143774761Y-116305238D01*
X143679523Y-116400476D01*
X143584285Y-116448095D01*
X175257142Y-89847142D02*
X175209523Y-89894761D01*
X175066666Y-89942380D01*
X174971428Y-89942380D01*
X174828571Y-89894761D01*
X174733333Y-89799523D01*
X174685714Y-89704285D01*
X174638095Y-89513809D01*
X174638095Y-89370952D01*
X174685714Y-89180476D01*
X174733333Y-89085238D01*
X174828571Y-88990000D01*
X174971428Y-88942380D01*
X175066666Y-88942380D01*
X175209523Y-88990000D01*
X175257142Y-89037619D01*
X176209523Y-89942380D02*
X175638095Y-89942380D01*
X175923809Y-89942380D02*
X175923809Y-88942380D01*
X175828571Y-89085238D01*
X175733333Y-89180476D01*
X175638095Y-89228095D01*
X177114285Y-88942380D02*
X176638095Y-88942380D01*
X176590476Y-89418571D01*
X176638095Y-89370952D01*
X176733333Y-89323333D01*
X176971428Y-89323333D01*
X177066666Y-89370952D01*
X177114285Y-89418571D01*
X177161904Y-89513809D01*
X177161904Y-89751904D01*
X177114285Y-89847142D01*
X177066666Y-89894761D01*
X176971428Y-89942380D01*
X176733333Y-89942380D01*
X176638095Y-89894761D01*
X176590476Y-89847142D01*
X164937142Y-105737142D02*
X164889523Y-105784761D01*
X164746666Y-105832380D01*
X164651428Y-105832380D01*
X164508571Y-105784761D01*
X164413333Y-105689523D01*
X164365714Y-105594285D01*
X164318095Y-105403809D01*
X164318095Y-105260952D01*
X164365714Y-105070476D01*
X164413333Y-104975238D01*
X164508571Y-104880000D01*
X164651428Y-104832380D01*
X164746666Y-104832380D01*
X164889523Y-104880000D01*
X164937142Y-104927619D01*
X165889523Y-105832380D02*
X165318095Y-105832380D01*
X165603809Y-105832380D02*
X165603809Y-104832380D01*
X165508571Y-104975238D01*
X165413333Y-105070476D01*
X165318095Y-105118095D01*
X166746666Y-105165714D02*
X166746666Y-105832380D01*
X166508571Y-104784761D02*
X166270476Y-105499047D01*
X166889523Y-105499047D01*
X130717142Y-106802857D02*
X130764761Y-106850476D01*
X130812380Y-106993333D01*
X130812380Y-107088571D01*
X130764761Y-107231428D01*
X130669523Y-107326666D01*
X130574285Y-107374285D01*
X130383809Y-107421904D01*
X130240952Y-107421904D01*
X130050476Y-107374285D01*
X129955238Y-107326666D01*
X129860000Y-107231428D01*
X129812380Y-107088571D01*
X129812380Y-106993333D01*
X129860000Y-106850476D01*
X129907619Y-106802857D01*
X130812380Y-105850476D02*
X130812380Y-106421904D01*
X130812380Y-106136190D02*
X129812380Y-106136190D01*
X129955238Y-106231428D01*
X130050476Y-106326666D01*
X130098095Y-106421904D01*
X129812380Y-105517142D02*
X129812380Y-104898095D01*
X130193333Y-105231428D01*
X130193333Y-105088571D01*
X130240952Y-104993333D01*
X130288571Y-104945714D01*
X130383809Y-104898095D01*
X130621904Y-104898095D01*
X130717142Y-104945714D01*
X130764761Y-104993333D01*
X130812380Y-105088571D01*
X130812380Y-105374285D01*
X130764761Y-105469523D01*
X130717142Y-105517142D01*
X149318333Y-117377142D02*
X149270714Y-117424761D01*
X149127857Y-117472380D01*
X149032619Y-117472380D01*
X148889761Y-117424761D01*
X148794523Y-117329523D01*
X148746904Y-117234285D01*
X148699285Y-117043809D01*
X148699285Y-116900952D01*
X148746904Y-116710476D01*
X148794523Y-116615238D01*
X148889761Y-116520000D01*
X149032619Y-116472380D01*
X149127857Y-116472380D01*
X149270714Y-116520000D01*
X149318333Y-116567619D01*
X149794523Y-117472380D02*
X149985000Y-117472380D01*
X150080238Y-117424761D01*
X150127857Y-117377142D01*
X150223095Y-117234285D01*
X150270714Y-117043809D01*
X150270714Y-116662857D01*
X150223095Y-116567619D01*
X150175476Y-116520000D01*
X150080238Y-116472380D01*
X149889761Y-116472380D01*
X149794523Y-116520000D01*
X149746904Y-116567619D01*
X149699285Y-116662857D01*
X149699285Y-116900952D01*
X149746904Y-116996190D01*
X149794523Y-117043809D01*
X149889761Y-117091428D01*
X150080238Y-117091428D01*
X150175476Y-117043809D01*
X150223095Y-116996190D01*
X150270714Y-116900952D01*
X155593333Y-115727142D02*
X155545714Y-115774761D01*
X155402857Y-115822380D01*
X155307619Y-115822380D01*
X155164761Y-115774761D01*
X155069523Y-115679523D01*
X155021904Y-115584285D01*
X154974285Y-115393809D01*
X154974285Y-115250952D01*
X155021904Y-115060476D01*
X155069523Y-114965238D01*
X155164761Y-114870000D01*
X155307619Y-114822380D01*
X155402857Y-114822380D01*
X155545714Y-114870000D01*
X155593333Y-114917619D01*
X156164761Y-115250952D02*
X156069523Y-115203333D01*
X156021904Y-115155714D01*
X155974285Y-115060476D01*
X155974285Y-115012857D01*
X156021904Y-114917619D01*
X156069523Y-114870000D01*
X156164761Y-114822380D01*
X156355238Y-114822380D01*
X156450476Y-114870000D01*
X156498095Y-114917619D01*
X156545714Y-115012857D01*
X156545714Y-115060476D01*
X156498095Y-115155714D01*
X156450476Y-115203333D01*
X156355238Y-115250952D01*
X156164761Y-115250952D01*
X156069523Y-115298571D01*
X156021904Y-115346190D01*
X155974285Y-115441428D01*
X155974285Y-115631904D01*
X156021904Y-115727142D01*
X156069523Y-115774761D01*
X156164761Y-115822380D01*
X156355238Y-115822380D01*
X156450476Y-115774761D01*
X156498095Y-115727142D01*
X156545714Y-115631904D01*
X156545714Y-115441428D01*
X156498095Y-115346190D01*
X156450476Y-115298571D01*
X156355238Y-115250952D01*
X157033333Y-109907142D02*
X156985714Y-109954761D01*
X156842857Y-110002380D01*
X156747619Y-110002380D01*
X156604761Y-109954761D01*
X156509523Y-109859523D01*
X156461904Y-109764285D01*
X156414285Y-109573809D01*
X156414285Y-109430952D01*
X156461904Y-109240476D01*
X156509523Y-109145238D01*
X156604761Y-109050000D01*
X156747619Y-109002380D01*
X156842857Y-109002380D01*
X156985714Y-109050000D01*
X157033333Y-109097619D01*
X157366666Y-109002380D02*
X158033333Y-109002380D01*
X157604761Y-110002380D01*
X164083333Y-109817142D02*
X164035714Y-109864761D01*
X163892857Y-109912380D01*
X163797619Y-109912380D01*
X163654761Y-109864761D01*
X163559523Y-109769523D01*
X163511904Y-109674285D01*
X163464285Y-109483809D01*
X163464285Y-109340952D01*
X163511904Y-109150476D01*
X163559523Y-109055238D01*
X163654761Y-108960000D01*
X163797619Y-108912380D01*
X163892857Y-108912380D01*
X164035714Y-108960000D01*
X164083333Y-109007619D01*
X164940476Y-108912380D02*
X164750000Y-108912380D01*
X164654761Y-108960000D01*
X164607142Y-109007619D01*
X164511904Y-109150476D01*
X164464285Y-109340952D01*
X164464285Y-109721904D01*
X164511904Y-109817142D01*
X164559523Y-109864761D01*
X164654761Y-109912380D01*
X164845238Y-109912380D01*
X164940476Y-109864761D01*
X164988095Y-109817142D01*
X165035714Y-109721904D01*
X165035714Y-109483809D01*
X164988095Y-109388571D01*
X164940476Y-109340952D01*
X164845238Y-109293333D01*
X164654761Y-109293333D01*
X164559523Y-109340952D01*
X164511904Y-109388571D01*
X164464285Y-109483809D01*
X174573333Y-114787142D02*
X174525714Y-114834761D01*
X174382857Y-114882380D01*
X174287619Y-114882380D01*
X174144761Y-114834761D01*
X174049523Y-114739523D01*
X174001904Y-114644285D01*
X173954285Y-114453809D01*
X173954285Y-114310952D01*
X174001904Y-114120476D01*
X174049523Y-114025238D01*
X174144761Y-113930000D01*
X174287619Y-113882380D01*
X174382857Y-113882380D01*
X174525714Y-113930000D01*
X174573333Y-113977619D01*
X175478095Y-113882380D02*
X175001904Y-113882380D01*
X174954285Y-114358571D01*
X175001904Y-114310952D01*
X175097142Y-114263333D01*
X175335238Y-114263333D01*
X175430476Y-114310952D01*
X175478095Y-114358571D01*
X175525714Y-114453809D01*
X175525714Y-114691904D01*
X175478095Y-114787142D01*
X175430476Y-114834761D01*
X175335238Y-114882380D01*
X175097142Y-114882380D01*
X175001904Y-114834761D01*
X174954285Y-114787142D01*
X126587142Y-109916666D02*
X126634761Y-109964285D01*
X126682380Y-110107142D01*
X126682380Y-110202380D01*
X126634761Y-110345238D01*
X126539523Y-110440476D01*
X126444285Y-110488095D01*
X126253809Y-110535714D01*
X126110952Y-110535714D01*
X125920476Y-110488095D01*
X125825238Y-110440476D01*
X125730000Y-110345238D01*
X125682380Y-110202380D01*
X125682380Y-110107142D01*
X125730000Y-109964285D01*
X125777619Y-109916666D01*
X126015714Y-109059523D02*
X126682380Y-109059523D01*
X125634761Y-109297619D02*
X126349047Y-109535714D01*
X126349047Y-108916666D01*
X133417142Y-109886666D02*
X133464761Y-109934285D01*
X133512380Y-110077142D01*
X133512380Y-110172380D01*
X133464761Y-110315238D01*
X133369523Y-110410476D01*
X133274285Y-110458095D01*
X133083809Y-110505714D01*
X132940952Y-110505714D01*
X132750476Y-110458095D01*
X132655238Y-110410476D01*
X132560000Y-110315238D01*
X132512380Y-110172380D01*
X132512380Y-110077142D01*
X132560000Y-109934285D01*
X132607619Y-109886666D01*
X132512380Y-109553333D02*
X132512380Y-108934285D01*
X132893333Y-109267619D01*
X132893333Y-109124761D01*
X132940952Y-109029523D01*
X132988571Y-108981904D01*
X133083809Y-108934285D01*
X133321904Y-108934285D01*
X133417142Y-108981904D01*
X133464761Y-109029523D01*
X133512380Y-109124761D01*
X133512380Y-109410476D01*
X133464761Y-109505714D01*
X133417142Y-109553333D01*
X140537142Y-109916666D02*
X140584761Y-109964285D01*
X140632380Y-110107142D01*
X140632380Y-110202380D01*
X140584761Y-110345238D01*
X140489523Y-110440476D01*
X140394285Y-110488095D01*
X140203809Y-110535714D01*
X140060952Y-110535714D01*
X139870476Y-110488095D01*
X139775238Y-110440476D01*
X139680000Y-110345238D01*
X139632380Y-110202380D01*
X139632380Y-110107142D01*
X139680000Y-109964285D01*
X139727619Y-109916666D01*
X139727619Y-109535714D02*
X139680000Y-109488095D01*
X139632380Y-109392857D01*
X139632380Y-109154761D01*
X139680000Y-109059523D01*
X139727619Y-109011904D01*
X139822857Y-108964285D01*
X139918095Y-108964285D01*
X140060952Y-109011904D01*
X140632380Y-109583333D01*
X140632380Y-108964285D01*
X147467142Y-109906666D02*
X147514761Y-109954285D01*
X147562380Y-110097142D01*
X147562380Y-110192380D01*
X147514761Y-110335238D01*
X147419523Y-110430476D01*
X147324285Y-110478095D01*
X147133809Y-110525714D01*
X146990952Y-110525714D01*
X146800476Y-110478095D01*
X146705238Y-110430476D01*
X146610000Y-110335238D01*
X146562380Y-110192380D01*
X146562380Y-110097142D01*
X146610000Y-109954285D01*
X146657619Y-109906666D01*
X147562380Y-108954285D02*
X147562380Y-109525714D01*
X147562380Y-109240000D02*
X146562380Y-109240000D01*
X146705238Y-109335238D01*
X146800476Y-109430476D01*
X146848095Y-109525714D01*
X158655714Y-84606666D02*
X159131904Y-84606666D01*
X158560476Y-84892380D02*
X158893809Y-83892380D01*
X159227142Y-84892380D01*
X160084285Y-84892380D02*
X159512857Y-84892380D01*
X159798571Y-84892380D02*
X159798571Y-83892380D01*
X159703333Y-84035238D01*
X159608095Y-84130476D01*
X159512857Y-84178095D01*
M02*
