G04 #@! TF.GenerationSoftware,KiCad,Pcbnew,5.99.0-unknown-c3175b4~86~ubuntu16.04.1*
G04 #@! TF.CreationDate,2019-12-02T17:53:17+01:00*
G04 #@! TF.ProjectId,IntAna,496e7441-6e61-42e6-9b69-6361645f7063,rev?*
G04 #@! TF.SameCoordinates,Original*
G04 #@! TF.FileFunction,Copper,L2,Bot*
G04 #@! TF.FilePolarity,Positive*
%FSLAX46Y46*%
G04 Gerber Fmt 4.6, Leading zero omitted, Abs format (unit mm)*
G04 Created by KiCad (PCBNEW 5.99.0-unknown-c3175b4~86~ubuntu16.04.1) date 2019-12-02 17:53:17*
%MOMM*%
%LPD*%
G04 APERTURE LIST*
%ADD10O,1.727200X1.727200*%
%ADD11R,1.727200X1.727200*%
%ADD12O,1.800000X3.600000*%
%ADD13R,1.800000X3.600000*%
%ADD14O,1.600000X1.600000*%
%ADD15R,1.600000X1.600000*%
%ADD16C,0.800000*%
%ADD17C,0.500000*%
%ADD18C,0.250000*%
%ADD19C,0.254000*%
G04 APERTURE END LIST*
D10*
X153510000Y-75770000D03*
X153510000Y-78310000D03*
X150970000Y-75770000D03*
X150970000Y-78310000D03*
X148430000Y-75770000D03*
X148430000Y-78310000D03*
X145890000Y-75770000D03*
X145890000Y-78310000D03*
X143350000Y-75770000D03*
X143350000Y-78310000D03*
X140810000Y-75770000D03*
X140810000Y-78310000D03*
X138270000Y-75770000D03*
D11*
X138270000Y-78310000D03*
D12*
X170710000Y-124860000D03*
X167210000Y-124860000D03*
X163710000Y-124860000D03*
X160210000Y-124860000D03*
D13*
X156710000Y-124860000D03*
D12*
X144970000Y-124620000D03*
X141470000Y-124620000D03*
X137970000Y-124620000D03*
X134470000Y-124620000D03*
X130970000Y-124620000D03*
X127470000Y-124620000D03*
X123970000Y-124620000D03*
D13*
X120470000Y-124620000D03*
D14*
X123760000Y-101870000D03*
X123760000Y-86630000D03*
X159320000Y-101870000D03*
X126300000Y-86630000D03*
X156780000Y-101870000D03*
X128840000Y-86630000D03*
X154240000Y-101870000D03*
X131380000Y-86630000D03*
X151700000Y-101870000D03*
X133920000Y-86630000D03*
X149160000Y-101870000D03*
X136460000Y-86630000D03*
X146620000Y-101870000D03*
X139000000Y-86630000D03*
X144080000Y-101870000D03*
X141540000Y-86630000D03*
X141540000Y-101870000D03*
X144080000Y-86630000D03*
X139000000Y-101870000D03*
X146620000Y-86630000D03*
X136460000Y-101870000D03*
X149160000Y-86630000D03*
X133920000Y-101870000D03*
X151700000Y-86630000D03*
X131380000Y-101870000D03*
X154240000Y-86630000D03*
X128840000Y-101870000D03*
X156780000Y-86630000D03*
X126300000Y-101870000D03*
D15*
X159320000Y-86630000D03*
D16*
X153260000Y-106270000D03*
X158620000Y-106270000D03*
X157780000Y-107530000D03*
X156200000Y-108590000D03*
X170980000Y-109690000D03*
X165620000Y-109590000D03*
X160470000Y-109400000D03*
X162920000Y-114200000D03*
X158980000Y-114190000D03*
X158980000Y-109400000D03*
X142800000Y-106330000D03*
X157100000Y-115150000D03*
X161730000Y-116440000D03*
X165350000Y-116400000D03*
X168980000Y-116470000D03*
X173780000Y-91420000D03*
X148390000Y-81180000D03*
X150240000Y-104560000D03*
X138820000Y-109100000D03*
X134100000Y-108370000D03*
X137580000Y-110030000D03*
X134890000Y-109010000D03*
X137610000Y-108080000D03*
X131760000Y-108070000D03*
X161930000Y-105280000D03*
X159290000Y-105270000D03*
X164220000Y-88190000D03*
X151892000Y-98298000D03*
D17*
X143350000Y-75770000D02*
X143350000Y-78310000D01*
D18*
X141540000Y-100370000D02*
X141820000Y-100090000D01*
X141540000Y-101870000D02*
X141540000Y-100370000D01*
X158620000Y-106270000D02*
X153260000Y-106270000D01*
X157780000Y-107530000D02*
X165920000Y-107530000D01*
X165920000Y-107530000D02*
X166290000Y-107900000D01*
X157310000Y-108590000D02*
X156200000Y-108590000D01*
X168080000Y-109690000D02*
X166290000Y-107900000D01*
X170980000Y-109690000D02*
X168080000Y-109690000D01*
X165310000Y-108590000D02*
X157310000Y-108590000D01*
X165620000Y-108900000D02*
X165310000Y-108590000D01*
X165620000Y-109590000D02*
X165620000Y-108900000D01*
X162920000Y-114200000D02*
X162920000Y-109830000D01*
X162920000Y-109830000D02*
X162490000Y-109400000D01*
X162490000Y-109400000D02*
X160470000Y-109400000D01*
X158980000Y-109400000D02*
X158980000Y-114190000D01*
X138730000Y-109010000D02*
X138820000Y-109100000D01*
X134890000Y-109010000D02*
X138730000Y-109010000D01*
X134080000Y-109670000D02*
X134080000Y-108390000D01*
X134080000Y-108390000D02*
X134100000Y-108370000D01*
X134440000Y-110030000D02*
X134080000Y-109670000D01*
X137580000Y-110030000D02*
X134440000Y-110030000D01*
X134880000Y-109020000D02*
X134890000Y-109010000D01*
X132340000Y-107490000D02*
X131760000Y-108070000D01*
X134790000Y-107490000D02*
X132340000Y-107490000D01*
X135380000Y-108080000D02*
X134790000Y-107490000D01*
X137610000Y-108080000D02*
X135380000Y-108080000D01*
X141820000Y-100090000D02*
X141820000Y-100080000D01*
X141820000Y-100080000D02*
X141930000Y-99970000D01*
X141930000Y-99970000D02*
X161570000Y-99970000D01*
X161935000Y-105275000D02*
X161935000Y-100335000D01*
X161930000Y-105280000D02*
X161935000Y-105275000D01*
X161570000Y-99970000D02*
X161935000Y-100335000D01*
X160510000Y-105270000D02*
X159290000Y-105270000D01*
X161390000Y-104390000D02*
X160510000Y-105270000D01*
X161390000Y-100870000D02*
X161390000Y-104390000D01*
X144080000Y-101870000D02*
X144080000Y-100930000D01*
X144080000Y-100930000D02*
X144520000Y-100490000D01*
X144520000Y-100490000D02*
X161010000Y-100490000D01*
X161010000Y-100490000D02*
X161390000Y-100870000D01*
X162430000Y-80580000D02*
X161920000Y-80040000D01*
X140960000Y-75810000D02*
X140770000Y-75810000D01*
X163003462Y-88190000D02*
X162421731Y-87608269D01*
X164220000Y-88190000D02*
X163003462Y-88190000D01*
X162421731Y-87608269D02*
X162430000Y-80580000D01*
X150970000Y-79400000D02*
X151599255Y-80029255D01*
X150970000Y-78310000D02*
X150970000Y-79400000D01*
X161920000Y-80040000D02*
X151599255Y-80029255D01*
X148430000Y-81140000D02*
X148390000Y-81180000D01*
D17*
X148430000Y-78310000D02*
X148430000Y-81140000D01*
D18*
X132670000Y-101230000D02*
X132670000Y-102540000D01*
X137700000Y-101230000D02*
X137700000Y-102540000D01*
X127550000Y-101180000D02*
X127550000Y-102490000D01*
D19*
G36*
X179451941Y-132462039D02*
G01*
X114633002Y-132465962D01*
X114617796Y-122808976D01*
X118928163Y-122808976D01*
X118928163Y-126436588D01*
X119008795Y-126737512D01*
X119156185Y-126913165D01*
X119349814Y-127024956D01*
X119558976Y-127061837D01*
X121386588Y-127061837D01*
X121687512Y-126981205D01*
X121863165Y-126833815D01*
X121974956Y-126640186D01*
X122011837Y-126431024D01*
X122011837Y-123673283D01*
X122436000Y-123673283D01*
X122436000Y-125585324D01*
X122452468Y-125779397D01*
X122517869Y-126031377D01*
X122624791Y-126268734D01*
X122770177Y-126484684D01*
X122949869Y-126673050D01*
X123158730Y-126828446D01*
X123390787Y-126946430D01*
X123639407Y-127023629D01*
X123897478Y-127057833D01*
X124157623Y-127048067D01*
X124412404Y-126994608D01*
X124654535Y-126898986D01*
X124877093Y-126763935D01*
X125073714Y-126593316D01*
X125238777Y-126392007D01*
X125367562Y-126165765D01*
X125457409Y-125918241D01*
X125504000Y-125566718D01*
X125504000Y-123673283D01*
X125936000Y-123673283D01*
X125936000Y-125585324D01*
X125952468Y-125779397D01*
X126017869Y-126031377D01*
X126124791Y-126268734D01*
X126270177Y-126484684D01*
X126449869Y-126673050D01*
X126658730Y-126828446D01*
X126890787Y-126946430D01*
X127139407Y-127023629D01*
X127397478Y-127057833D01*
X127657623Y-127048067D01*
X127912404Y-126994608D01*
X128154535Y-126898986D01*
X128377093Y-126763935D01*
X128573714Y-126593316D01*
X128738777Y-126392007D01*
X128867562Y-126165765D01*
X128957409Y-125918241D01*
X129004000Y-125566718D01*
X129004000Y-123673283D01*
X129436000Y-123673283D01*
X129436000Y-125585324D01*
X129452468Y-125779397D01*
X129517869Y-126031377D01*
X129624791Y-126268734D01*
X129770177Y-126484684D01*
X129949869Y-126673050D01*
X130158730Y-126828446D01*
X130390787Y-126946430D01*
X130639407Y-127023629D01*
X130897478Y-127057833D01*
X131157623Y-127048067D01*
X131412404Y-126994608D01*
X131654535Y-126898986D01*
X131877093Y-126763935D01*
X132073714Y-126593316D01*
X132238777Y-126392007D01*
X132367562Y-126165765D01*
X132457409Y-125918241D01*
X132504000Y-125566718D01*
X132504000Y-123673283D01*
X132936000Y-123673283D01*
X132936000Y-125585324D01*
X132952468Y-125779397D01*
X133017869Y-126031377D01*
X133124791Y-126268734D01*
X133270177Y-126484684D01*
X133449869Y-126673050D01*
X133658730Y-126828446D01*
X133890787Y-126946430D01*
X134139407Y-127023629D01*
X134397478Y-127057833D01*
X134657623Y-127048067D01*
X134912404Y-126994608D01*
X135154535Y-126898986D01*
X135377093Y-126763935D01*
X135573714Y-126593316D01*
X135738777Y-126392007D01*
X135867562Y-126165765D01*
X135957409Y-125918241D01*
X136004000Y-125566718D01*
X136004000Y-123673283D01*
X136436000Y-123673283D01*
X136436000Y-125585324D01*
X136452468Y-125779397D01*
X136517869Y-126031377D01*
X136624791Y-126268734D01*
X136770177Y-126484684D01*
X136949869Y-126673050D01*
X137158730Y-126828446D01*
X137390787Y-126946430D01*
X137639407Y-127023629D01*
X137897478Y-127057833D01*
X138157623Y-127048067D01*
X138412404Y-126994608D01*
X138654535Y-126898986D01*
X138877093Y-126763935D01*
X139073714Y-126593316D01*
X139238777Y-126392007D01*
X139367562Y-126165765D01*
X139457409Y-125918241D01*
X139504000Y-125566718D01*
X139504000Y-123673283D01*
X139936000Y-123673283D01*
X139936000Y-125585324D01*
X139952468Y-125779397D01*
X140017869Y-126031377D01*
X140124791Y-126268734D01*
X140270177Y-126484684D01*
X140449869Y-126673050D01*
X140658730Y-126828446D01*
X140890787Y-126946430D01*
X141139407Y-127023629D01*
X141397478Y-127057833D01*
X141657623Y-127048067D01*
X141912404Y-126994608D01*
X142154535Y-126898986D01*
X142377093Y-126763935D01*
X142573714Y-126593316D01*
X142738777Y-126392007D01*
X142867562Y-126165765D01*
X142957409Y-125918241D01*
X143004000Y-125566718D01*
X143004000Y-123673283D01*
X143436000Y-123673283D01*
X143436000Y-125585324D01*
X143452468Y-125779397D01*
X143517869Y-126031377D01*
X143624791Y-126268734D01*
X143770177Y-126484684D01*
X143949869Y-126673050D01*
X144158730Y-126828446D01*
X144390787Y-126946430D01*
X144639407Y-127023629D01*
X144897478Y-127057833D01*
X145157623Y-127048067D01*
X145412404Y-126994608D01*
X145654535Y-126898986D01*
X145877093Y-126763935D01*
X146073714Y-126593316D01*
X146238777Y-126392007D01*
X146367562Y-126165765D01*
X146457409Y-125918241D01*
X146504000Y-125566718D01*
X146504000Y-123654676D01*
X146487533Y-123460603D01*
X146422132Y-123208623D01*
X146350216Y-123048976D01*
X155168163Y-123048976D01*
X155168163Y-126676588D01*
X155248795Y-126977512D01*
X155396185Y-127153165D01*
X155589814Y-127264956D01*
X155798976Y-127301837D01*
X157626588Y-127301837D01*
X157927512Y-127221205D01*
X158103165Y-127073815D01*
X158214956Y-126880186D01*
X158251837Y-126671024D01*
X158251837Y-123913283D01*
X158676000Y-123913283D01*
X158676000Y-125825324D01*
X158692468Y-126019397D01*
X158757869Y-126271377D01*
X158864791Y-126508734D01*
X159010177Y-126724684D01*
X159189869Y-126913050D01*
X159398730Y-127068446D01*
X159630787Y-127186430D01*
X159879407Y-127263629D01*
X160137478Y-127297833D01*
X160397623Y-127288067D01*
X160652404Y-127234608D01*
X160894535Y-127138986D01*
X161117093Y-127003935D01*
X161313714Y-126833316D01*
X161478777Y-126632007D01*
X161607562Y-126405765D01*
X161697409Y-126158241D01*
X161744000Y-125806718D01*
X161744000Y-123913283D01*
X162176000Y-123913283D01*
X162176000Y-125825324D01*
X162192468Y-126019397D01*
X162257869Y-126271377D01*
X162364791Y-126508734D01*
X162510177Y-126724684D01*
X162689869Y-126913050D01*
X162898730Y-127068446D01*
X163130787Y-127186430D01*
X163379407Y-127263629D01*
X163637478Y-127297833D01*
X163897623Y-127288067D01*
X164152404Y-127234608D01*
X164394535Y-127138986D01*
X164617093Y-127003935D01*
X164813714Y-126833316D01*
X164978777Y-126632007D01*
X165107562Y-126405765D01*
X165197409Y-126158241D01*
X165244000Y-125806718D01*
X165244000Y-123913283D01*
X165676000Y-123913283D01*
X165676000Y-125825324D01*
X165692468Y-126019397D01*
X165757869Y-126271377D01*
X165864791Y-126508734D01*
X166010177Y-126724684D01*
X166189869Y-126913050D01*
X166398730Y-127068446D01*
X166630787Y-127186430D01*
X166879407Y-127263629D01*
X167137478Y-127297833D01*
X167397623Y-127288067D01*
X167652404Y-127234608D01*
X167894535Y-127138986D01*
X168117093Y-127003935D01*
X168313714Y-126833316D01*
X168478777Y-126632007D01*
X168607562Y-126405765D01*
X168697409Y-126158241D01*
X168744000Y-125806718D01*
X168744000Y-123913283D01*
X169176000Y-123913283D01*
X169176000Y-125825324D01*
X169192468Y-126019397D01*
X169257869Y-126271377D01*
X169364791Y-126508734D01*
X169510177Y-126724684D01*
X169689869Y-126913050D01*
X169898730Y-127068446D01*
X170130787Y-127186430D01*
X170379407Y-127263629D01*
X170637478Y-127297833D01*
X170897623Y-127288067D01*
X171152404Y-127234608D01*
X171394535Y-127138986D01*
X171617093Y-127003935D01*
X171813714Y-126833316D01*
X171978777Y-126632007D01*
X172107562Y-126405765D01*
X172197409Y-126158241D01*
X172244000Y-125806718D01*
X172244000Y-123894676D01*
X172227533Y-123700603D01*
X172162132Y-123448623D01*
X172055210Y-123211266D01*
X171909824Y-122995316D01*
X171730131Y-122806950D01*
X171521270Y-122651554D01*
X171289213Y-122533570D01*
X171040593Y-122456371D01*
X170782522Y-122422167D01*
X170522377Y-122431933D01*
X170267596Y-122485392D01*
X170025465Y-122581014D01*
X169802907Y-122716066D01*
X169606286Y-122886686D01*
X169441223Y-123087994D01*
X169312438Y-123314236D01*
X169222591Y-123561760D01*
X169176000Y-123913283D01*
X168744000Y-123913283D01*
X168744000Y-123894676D01*
X168727533Y-123700603D01*
X168662132Y-123448623D01*
X168555210Y-123211266D01*
X168409824Y-122995316D01*
X168230131Y-122806950D01*
X168021270Y-122651554D01*
X167789213Y-122533570D01*
X167540593Y-122456371D01*
X167282522Y-122422167D01*
X167022377Y-122431933D01*
X166767596Y-122485392D01*
X166525465Y-122581014D01*
X166302907Y-122716066D01*
X166106286Y-122886686D01*
X165941223Y-123087994D01*
X165812438Y-123314236D01*
X165722591Y-123561760D01*
X165676000Y-123913283D01*
X165244000Y-123913283D01*
X165244000Y-123894676D01*
X165227533Y-123700603D01*
X165162132Y-123448623D01*
X165055210Y-123211266D01*
X164909824Y-122995316D01*
X164730131Y-122806950D01*
X164521270Y-122651554D01*
X164289213Y-122533570D01*
X164040593Y-122456371D01*
X163782522Y-122422167D01*
X163522377Y-122431933D01*
X163267596Y-122485392D01*
X163025465Y-122581014D01*
X162802907Y-122716066D01*
X162606286Y-122886686D01*
X162441223Y-123087994D01*
X162312438Y-123314236D01*
X162222591Y-123561760D01*
X162176000Y-123913283D01*
X161744000Y-123913283D01*
X161744000Y-123894676D01*
X161727533Y-123700603D01*
X161662132Y-123448623D01*
X161555210Y-123211266D01*
X161409824Y-122995316D01*
X161230131Y-122806950D01*
X161021270Y-122651554D01*
X160789213Y-122533570D01*
X160540593Y-122456371D01*
X160282522Y-122422167D01*
X160022377Y-122431933D01*
X159767596Y-122485392D01*
X159525465Y-122581014D01*
X159302907Y-122716066D01*
X159106286Y-122886686D01*
X158941223Y-123087994D01*
X158812438Y-123314236D01*
X158722591Y-123561760D01*
X158676000Y-123913283D01*
X158251837Y-123913283D01*
X158251837Y-123043412D01*
X158171205Y-122742489D01*
X158023815Y-122566835D01*
X157830186Y-122455044D01*
X157621024Y-122418163D01*
X155793412Y-122418163D01*
X155492489Y-122498795D01*
X155316835Y-122646185D01*
X155205044Y-122839814D01*
X155168163Y-123048976D01*
X146350216Y-123048976D01*
X146315210Y-122971266D01*
X146169824Y-122755316D01*
X145990131Y-122566950D01*
X145781270Y-122411554D01*
X145549213Y-122293570D01*
X145300593Y-122216371D01*
X145042522Y-122182167D01*
X144782377Y-122191933D01*
X144527596Y-122245392D01*
X144285465Y-122341014D01*
X144062907Y-122476066D01*
X143866286Y-122646686D01*
X143701223Y-122847994D01*
X143572438Y-123074236D01*
X143482591Y-123321760D01*
X143436000Y-123673283D01*
X143004000Y-123673283D01*
X143004000Y-123654676D01*
X142987533Y-123460603D01*
X142922132Y-123208623D01*
X142815210Y-122971266D01*
X142669824Y-122755316D01*
X142490131Y-122566950D01*
X142281270Y-122411554D01*
X142049213Y-122293570D01*
X141800593Y-122216371D01*
X141542522Y-122182167D01*
X141282377Y-122191933D01*
X141027596Y-122245392D01*
X140785465Y-122341014D01*
X140562907Y-122476066D01*
X140366286Y-122646686D01*
X140201223Y-122847994D01*
X140072438Y-123074236D01*
X139982591Y-123321760D01*
X139936000Y-123673283D01*
X139504000Y-123673283D01*
X139504000Y-123654676D01*
X139487533Y-123460603D01*
X139422132Y-123208623D01*
X139315210Y-122971266D01*
X139169824Y-122755316D01*
X138990131Y-122566950D01*
X138781270Y-122411554D01*
X138549213Y-122293570D01*
X138300593Y-122216371D01*
X138042522Y-122182167D01*
X137782377Y-122191933D01*
X137527596Y-122245392D01*
X137285465Y-122341014D01*
X137062907Y-122476066D01*
X136866286Y-122646686D01*
X136701223Y-122847994D01*
X136572438Y-123074236D01*
X136482591Y-123321760D01*
X136436000Y-123673283D01*
X136004000Y-123673283D01*
X136004000Y-123654676D01*
X135987533Y-123460603D01*
X135922132Y-123208623D01*
X135815210Y-122971266D01*
X135669824Y-122755316D01*
X135490131Y-122566950D01*
X135281270Y-122411554D01*
X135049213Y-122293570D01*
X134800593Y-122216371D01*
X134542522Y-122182167D01*
X134282377Y-122191933D01*
X134027596Y-122245392D01*
X133785465Y-122341014D01*
X133562907Y-122476066D01*
X133366286Y-122646686D01*
X133201223Y-122847994D01*
X133072438Y-123074236D01*
X132982591Y-123321760D01*
X132936000Y-123673283D01*
X132504000Y-123673283D01*
X132504000Y-123654676D01*
X132487533Y-123460603D01*
X132422132Y-123208623D01*
X132315210Y-122971266D01*
X132169824Y-122755316D01*
X131990131Y-122566950D01*
X131781270Y-122411554D01*
X131549213Y-122293570D01*
X131300593Y-122216371D01*
X131042522Y-122182167D01*
X130782377Y-122191933D01*
X130527596Y-122245392D01*
X130285465Y-122341014D01*
X130062907Y-122476066D01*
X129866286Y-122646686D01*
X129701223Y-122847994D01*
X129572438Y-123074236D01*
X129482591Y-123321760D01*
X129436000Y-123673283D01*
X129004000Y-123673283D01*
X129004000Y-123654676D01*
X128987533Y-123460603D01*
X128922132Y-123208623D01*
X128815210Y-122971266D01*
X128669824Y-122755316D01*
X128490131Y-122566950D01*
X128281270Y-122411554D01*
X128049213Y-122293570D01*
X127800593Y-122216371D01*
X127542522Y-122182167D01*
X127282377Y-122191933D01*
X127027596Y-122245392D01*
X126785465Y-122341014D01*
X126562907Y-122476066D01*
X126366286Y-122646686D01*
X126201223Y-122847994D01*
X126072438Y-123074236D01*
X125982591Y-123321760D01*
X125936000Y-123673283D01*
X125504000Y-123673283D01*
X125504000Y-123654676D01*
X125487533Y-123460603D01*
X125422132Y-123208623D01*
X125315210Y-122971266D01*
X125169824Y-122755316D01*
X124990131Y-122566950D01*
X124781270Y-122411554D01*
X124549213Y-122293570D01*
X124300593Y-122216371D01*
X124042522Y-122182167D01*
X123782377Y-122191933D01*
X123527596Y-122245392D01*
X123285465Y-122341014D01*
X123062907Y-122476066D01*
X122866286Y-122646686D01*
X122701223Y-122847994D01*
X122572438Y-123074236D01*
X122482591Y-123321760D01*
X122436000Y-123673283D01*
X122011837Y-123673283D01*
X122011837Y-122803412D01*
X121931205Y-122502489D01*
X121783815Y-122326835D01*
X121590186Y-122215044D01*
X121381024Y-122178163D01*
X119553412Y-122178163D01*
X119252489Y-122258795D01*
X119076835Y-122406185D01*
X118965044Y-122599814D01*
X118928163Y-122808976D01*
X114617796Y-122808976D01*
X114592711Y-106878898D01*
X116134496Y-106878898D01*
X116172672Y-107181098D01*
X116251510Y-107475321D01*
X116369547Y-107756122D01*
X116524602Y-108018307D01*
X116713805Y-108257021D01*
X116933655Y-108467849D01*
X117180083Y-108646890D01*
X117448530Y-108790830D01*
X117734028Y-108897006D01*
X118031294Y-108963452D01*
X118334828Y-108988941D01*
X118639012Y-108973000D01*
X118938220Y-108915923D01*
X119226911Y-108818767D01*
X119499747Y-108683330D01*
X119751678Y-108512119D01*
X119978041Y-108308300D01*
X120174649Y-108075646D01*
X120264621Y-107933872D01*
X130726000Y-107933872D01*
X130726000Y-108206128D01*
X130796466Y-108469109D01*
X130932594Y-108704891D01*
X131125109Y-108897406D01*
X131360891Y-109033534D01*
X131623872Y-109104000D01*
X131896128Y-109104000D01*
X132159109Y-109033534D01*
X132394891Y-108897406D01*
X132587406Y-108704891D01*
X132723534Y-108469109D01*
X132782512Y-108249000D01*
X133066000Y-108249000D01*
X133066000Y-108506128D01*
X133136466Y-108769109D01*
X133272594Y-109004891D01*
X133321001Y-109053297D01*
X133321000Y-109730243D01*
X133321001Y-109730249D01*
X133321001Y-109790213D01*
X133339688Y-109847724D01*
X133349150Y-109907467D01*
X133376609Y-109961357D01*
X133395297Y-110018874D01*
X133430846Y-110067803D01*
X133458302Y-110121689D01*
X133628657Y-110292045D01*
X133628661Y-110292047D01*
X133817953Y-110481339D01*
X133817955Y-110481343D01*
X133988310Y-110651697D01*
X134042197Y-110679155D01*
X134091125Y-110714703D01*
X134148642Y-110733391D01*
X134202532Y-110760850D01*
X134262275Y-110770312D01*
X134319786Y-110788999D01*
X134379750Y-110788999D01*
X134379756Y-110789000D01*
X136876704Y-110789000D01*
X136945109Y-110857406D01*
X137180891Y-110993534D01*
X137443872Y-111064000D01*
X137716128Y-111064000D01*
X137979109Y-110993534D01*
X138214891Y-110857406D01*
X138407406Y-110664891D01*
X138543534Y-110429109D01*
X138614000Y-110166128D01*
X138614000Y-110115278D01*
X138683872Y-110134000D01*
X138956128Y-110134000D01*
X139219109Y-110063534D01*
X139454891Y-109927406D01*
X139647406Y-109734891D01*
X139783534Y-109499109D01*
X139854000Y-109236128D01*
X139854000Y-108963872D01*
X139783534Y-108700891D01*
X139647406Y-108465109D01*
X139454891Y-108272594D01*
X139219109Y-108136466D01*
X138956128Y-108066000D01*
X138683872Y-108066000D01*
X138644000Y-108076684D01*
X138644000Y-107943872D01*
X138573534Y-107680891D01*
X138437406Y-107445109D01*
X138244891Y-107252594D01*
X138009109Y-107116466D01*
X137746128Y-107046000D01*
X137473872Y-107046000D01*
X137210891Y-107116466D01*
X136975109Y-107252594D01*
X136906704Y-107321000D01*
X135694388Y-107321000D01*
X135412046Y-107038659D01*
X135412045Y-107038657D01*
X135241690Y-106868303D01*
X135187801Y-106840844D01*
X135138873Y-106805296D01*
X135081359Y-106786610D01*
X135027468Y-106759150D01*
X134967726Y-106749688D01*
X134910213Y-106731001D01*
X134850250Y-106731001D01*
X134850244Y-106731000D01*
X132279756Y-106731000D01*
X132279750Y-106731001D01*
X132219786Y-106731001D01*
X132162275Y-106749688D01*
X132102532Y-106759150D01*
X132048642Y-106786609D01*
X131991125Y-106805297D01*
X131942196Y-106840846D01*
X131888310Y-106868302D01*
X131720613Y-107036000D01*
X131623872Y-107036000D01*
X131360891Y-107106466D01*
X131125109Y-107242594D01*
X130932594Y-107435109D01*
X130796466Y-107670891D01*
X130726000Y-107933872D01*
X120264621Y-107933872D01*
X120337863Y-107818463D01*
X120464663Y-107541507D01*
X120552702Y-107249906D01*
X120600456Y-106948399D01*
X120604122Y-106598356D01*
X120562692Y-106295916D01*
X120480780Y-106002534D01*
X120359808Y-105722984D01*
X120202015Y-105462438D01*
X120010323Y-105225718D01*
X119788277Y-105017204D01*
X119539988Y-104840753D01*
X119270049Y-104699633D01*
X118983454Y-104596452D01*
X118685509Y-104533121D01*
X118381724Y-104510813D01*
X118077723Y-104529939D01*
X117779131Y-104590147D01*
X117491472Y-104690319D01*
X117220070Y-104828606D01*
X116969946Y-105002446D01*
X116745729Y-105208624D01*
X116551568Y-105443324D01*
X116391057Y-105702203D01*
X116267163Y-105980471D01*
X116182183Y-106272979D01*
X116137685Y-106574313D01*
X116134496Y-106878898D01*
X114592711Y-106878898D01*
X114584824Y-101870000D01*
X122320523Y-101870000D01*
X122342391Y-102119962D01*
X122407333Y-102362330D01*
X122513376Y-102589739D01*
X122657297Y-102795279D01*
X122834721Y-102972703D01*
X123040261Y-103116624D01*
X123267670Y-103222667D01*
X123510038Y-103287609D01*
X123697394Y-103304000D01*
X123822606Y-103304000D01*
X124009962Y-103287609D01*
X124252330Y-103222667D01*
X124479739Y-103116624D01*
X124685279Y-102972703D01*
X124862703Y-102795279D01*
X125006624Y-102589739D01*
X125030000Y-102539609D01*
X125053376Y-102589739D01*
X125197297Y-102795279D01*
X125374721Y-102972703D01*
X125580261Y-103116624D01*
X125807670Y-103222667D01*
X126050038Y-103287609D01*
X126237394Y-103304000D01*
X126362606Y-103304000D01*
X126549962Y-103287609D01*
X126792330Y-103222667D01*
X127019739Y-103116624D01*
X127225279Y-102972703D01*
X127402703Y-102795279D01*
X127546624Y-102589739D01*
X127570000Y-102539609D01*
X127593376Y-102589739D01*
X127737297Y-102795279D01*
X127914721Y-102972703D01*
X128120261Y-103116624D01*
X128347670Y-103222667D01*
X128590038Y-103287609D01*
X128777394Y-103304000D01*
X128902606Y-103304000D01*
X129089962Y-103287609D01*
X129332330Y-103222667D01*
X129559739Y-103116624D01*
X129765279Y-102972703D01*
X129942703Y-102795279D01*
X130086624Y-102589739D01*
X130110000Y-102539609D01*
X130133376Y-102589739D01*
X130277297Y-102795279D01*
X130454721Y-102972703D01*
X130660261Y-103116624D01*
X130887670Y-103222667D01*
X131130038Y-103287609D01*
X131317394Y-103304000D01*
X131442606Y-103304000D01*
X131629962Y-103287609D01*
X131872330Y-103222667D01*
X132099739Y-103116624D01*
X132305279Y-102972703D01*
X132482703Y-102795279D01*
X132626624Y-102589739D01*
X132650000Y-102539609D01*
X132673376Y-102589739D01*
X132817297Y-102795279D01*
X132994721Y-102972703D01*
X133200261Y-103116624D01*
X133427670Y-103222667D01*
X133670038Y-103287609D01*
X133857394Y-103304000D01*
X133982606Y-103304000D01*
X134169962Y-103287609D01*
X134412330Y-103222667D01*
X134639739Y-103116624D01*
X134845279Y-102972703D01*
X135022703Y-102795279D01*
X135166624Y-102589739D01*
X135190000Y-102539609D01*
X135213376Y-102589739D01*
X135357297Y-102795279D01*
X135534721Y-102972703D01*
X135740261Y-103116624D01*
X135967670Y-103222667D01*
X136210038Y-103287609D01*
X136397394Y-103304000D01*
X136522606Y-103304000D01*
X136709962Y-103287609D01*
X136952330Y-103222667D01*
X137179739Y-103116624D01*
X137385279Y-102972703D01*
X137562703Y-102795279D01*
X137706624Y-102589739D01*
X137730000Y-102539609D01*
X137753376Y-102589739D01*
X137897297Y-102795279D01*
X138074721Y-102972703D01*
X138280261Y-103116624D01*
X138507670Y-103222667D01*
X138750038Y-103287609D01*
X138937394Y-103304000D01*
X139062606Y-103304000D01*
X139249962Y-103287609D01*
X139492330Y-103222667D01*
X139719739Y-103116624D01*
X139925279Y-102972703D01*
X140102703Y-102795279D01*
X140246624Y-102589739D01*
X140270000Y-102539609D01*
X140293376Y-102589739D01*
X140437297Y-102795279D01*
X140614721Y-102972703D01*
X140820261Y-103116624D01*
X141047670Y-103222667D01*
X141290038Y-103287609D01*
X141477394Y-103304000D01*
X141602606Y-103304000D01*
X141789962Y-103287609D01*
X142032330Y-103222667D01*
X142259739Y-103116624D01*
X142465279Y-102972703D01*
X142642703Y-102795279D01*
X142786624Y-102589739D01*
X142810000Y-102539609D01*
X142833376Y-102589739D01*
X142977297Y-102795279D01*
X143154721Y-102972703D01*
X143360261Y-103116624D01*
X143587670Y-103222667D01*
X143830038Y-103287609D01*
X144017394Y-103304000D01*
X144142606Y-103304000D01*
X144329962Y-103287609D01*
X144572330Y-103222667D01*
X144799739Y-103116624D01*
X145005279Y-102972703D01*
X145182703Y-102795279D01*
X145326624Y-102589739D01*
X145350000Y-102539609D01*
X145373376Y-102589739D01*
X145517297Y-102795279D01*
X145694721Y-102972703D01*
X145900261Y-103116624D01*
X146127670Y-103222667D01*
X146370038Y-103287609D01*
X146557394Y-103304000D01*
X146682606Y-103304000D01*
X146869962Y-103287609D01*
X147112330Y-103222667D01*
X147339739Y-103116624D01*
X147545279Y-102972703D01*
X147722703Y-102795279D01*
X147866624Y-102589739D01*
X147890000Y-102539609D01*
X147913376Y-102589739D01*
X148057297Y-102795279D01*
X148234721Y-102972703D01*
X148440261Y-103116624D01*
X148667670Y-103222667D01*
X148910038Y-103287609D01*
X149097394Y-103304000D01*
X149222606Y-103304000D01*
X149409962Y-103287609D01*
X149652330Y-103222667D01*
X149879739Y-103116624D01*
X150085279Y-102972703D01*
X150262703Y-102795279D01*
X150406624Y-102589739D01*
X150430000Y-102539609D01*
X150453376Y-102589739D01*
X150597297Y-102795279D01*
X150774721Y-102972703D01*
X150980261Y-103116624D01*
X151207670Y-103222667D01*
X151572000Y-103320288D01*
X151572000Y-101742000D01*
X151828000Y-101742000D01*
X151828000Y-103320288D01*
X152192330Y-103222667D01*
X152419739Y-103116624D01*
X152625279Y-102972703D01*
X152802703Y-102795279D01*
X152946624Y-102589739D01*
X152970000Y-102539609D01*
X152993376Y-102589739D01*
X153137297Y-102795279D01*
X153314721Y-102972703D01*
X153520261Y-103116624D01*
X153747670Y-103222667D01*
X153990038Y-103287609D01*
X154177394Y-103304000D01*
X154302606Y-103304000D01*
X154489962Y-103287609D01*
X154732330Y-103222667D01*
X154959739Y-103116624D01*
X155165279Y-102972703D01*
X155342703Y-102795279D01*
X155486624Y-102589739D01*
X155510000Y-102539609D01*
X155533376Y-102589739D01*
X155677297Y-102795279D01*
X155854721Y-102972703D01*
X156060261Y-103116624D01*
X156287670Y-103222667D01*
X156530038Y-103287609D01*
X156717394Y-103304000D01*
X156842606Y-103304000D01*
X157029962Y-103287609D01*
X157272330Y-103222667D01*
X157499739Y-103116624D01*
X157705279Y-102972703D01*
X157882703Y-102795279D01*
X158026624Y-102589739D01*
X158050000Y-102539609D01*
X158073376Y-102589739D01*
X158217297Y-102795279D01*
X158394721Y-102972703D01*
X158600261Y-103116624D01*
X158827670Y-103222667D01*
X159070038Y-103287609D01*
X159257394Y-103304000D01*
X159382606Y-103304000D01*
X159569962Y-103287609D01*
X159812330Y-103222667D01*
X160039739Y-103116624D01*
X160245279Y-102972703D01*
X160422703Y-102795279D01*
X160566624Y-102589739D01*
X160631000Y-102451684D01*
X160631001Y-104075611D01*
X160195613Y-104511000D01*
X159993296Y-104511000D01*
X159924891Y-104442594D01*
X159689109Y-104306466D01*
X159426128Y-104236000D01*
X159153872Y-104236000D01*
X158890891Y-104306466D01*
X158655109Y-104442594D01*
X158462594Y-104635109D01*
X158326466Y-104870891D01*
X158256000Y-105133872D01*
X158256000Y-105297058D01*
X158220891Y-105306466D01*
X157985109Y-105442594D01*
X157916704Y-105511000D01*
X153963296Y-105511000D01*
X153894891Y-105442594D01*
X153659109Y-105306466D01*
X153396128Y-105236000D01*
X153123872Y-105236000D01*
X152860891Y-105306466D01*
X152625109Y-105442594D01*
X152432594Y-105635109D01*
X152296466Y-105870891D01*
X152226000Y-106133872D01*
X152226000Y-106406128D01*
X152296466Y-106669109D01*
X152432594Y-106904891D01*
X152625109Y-107097406D01*
X152860891Y-107233534D01*
X153123872Y-107304000D01*
X153396128Y-107304000D01*
X153659109Y-107233534D01*
X153894891Y-107097406D01*
X153963296Y-107029000D01*
X156875292Y-107029000D01*
X156816466Y-107130891D01*
X156746000Y-107393872D01*
X156746000Y-107666128D01*
X156760311Y-107719535D01*
X156599109Y-107626466D01*
X156336128Y-107556000D01*
X156063872Y-107556000D01*
X155800891Y-107626466D01*
X155565109Y-107762594D01*
X155372594Y-107955109D01*
X155236466Y-108190891D01*
X155166000Y-108453872D01*
X155166000Y-108726128D01*
X155236466Y-108989109D01*
X155372594Y-109224891D01*
X155565109Y-109417406D01*
X155800891Y-109553534D01*
X156063872Y-109624000D01*
X156336128Y-109624000D01*
X156599109Y-109553534D01*
X156834891Y-109417406D01*
X156903296Y-109349000D01*
X157946000Y-109349000D01*
X157946000Y-109536128D01*
X158016466Y-109799109D01*
X158152594Y-110034891D01*
X158221000Y-110103296D01*
X158221001Y-113486703D01*
X158152594Y-113555109D01*
X158016466Y-113790891D01*
X157946000Y-114053872D01*
X157946000Y-114326128D01*
X158016466Y-114589109D01*
X158152594Y-114824891D01*
X158345109Y-115017406D01*
X158580891Y-115153534D01*
X158843872Y-115224000D01*
X159116128Y-115224000D01*
X159379109Y-115153534D01*
X159614891Y-115017406D01*
X159807406Y-114824891D01*
X159943534Y-114589109D01*
X160014000Y-114326128D01*
X160014000Y-114053872D01*
X159943534Y-113790891D01*
X159807406Y-113555109D01*
X159739000Y-113486704D01*
X159739000Y-110131297D01*
X159835109Y-110227406D01*
X160070891Y-110363534D01*
X160333872Y-110434000D01*
X160606128Y-110434000D01*
X160869109Y-110363534D01*
X161104891Y-110227406D01*
X161173296Y-110159000D01*
X162161001Y-110159000D01*
X162161000Y-113496704D01*
X162092594Y-113565109D01*
X161956466Y-113800891D01*
X161886000Y-114063872D01*
X161886000Y-114336128D01*
X161956466Y-114599109D01*
X162092594Y-114834891D01*
X162285109Y-115027406D01*
X162520891Y-115163534D01*
X162783872Y-115234000D01*
X163056128Y-115234000D01*
X163319109Y-115163534D01*
X163554891Y-115027406D01*
X163747406Y-114834891D01*
X163883534Y-114599109D01*
X163954000Y-114336128D01*
X163954000Y-114063872D01*
X163883534Y-113800891D01*
X163747406Y-113565109D01*
X163679000Y-113496704D01*
X163679000Y-109769756D01*
X163678999Y-109769750D01*
X163678999Y-109709786D01*
X163660312Y-109652275D01*
X163650850Y-109592532D01*
X163623391Y-109538642D01*
X163604703Y-109481125D01*
X163569154Y-109432196D01*
X163541698Y-109378310D01*
X163512388Y-109349000D01*
X164614100Y-109349000D01*
X164586000Y-109453872D01*
X164586000Y-109726128D01*
X164656466Y-109989109D01*
X164792594Y-110224891D01*
X164985109Y-110417406D01*
X165220891Y-110553534D01*
X165483872Y-110624000D01*
X165756128Y-110624000D01*
X166019109Y-110553534D01*
X166254891Y-110417406D01*
X166447406Y-110224891D01*
X166583534Y-109989109D01*
X166654000Y-109726128D01*
X166654000Y-109453872D01*
X166611363Y-109294749D01*
X167472414Y-110155801D01*
X167628310Y-110311698D01*
X167682196Y-110339154D01*
X167731125Y-110374703D01*
X167788642Y-110393391D01*
X167842532Y-110420850D01*
X167902275Y-110430312D01*
X167959786Y-110448999D01*
X168019750Y-110448999D01*
X168019756Y-110449000D01*
X170276704Y-110449000D01*
X170345109Y-110517406D01*
X170580891Y-110653534D01*
X170843872Y-110724000D01*
X171116128Y-110724000D01*
X171379109Y-110653534D01*
X171614891Y-110517406D01*
X171807406Y-110324891D01*
X171943534Y-110089109D01*
X172014000Y-109826128D01*
X172014000Y-109553872D01*
X171943534Y-109290891D01*
X171807406Y-109055109D01*
X171614891Y-108862594D01*
X171379109Y-108726466D01*
X171116128Y-108656000D01*
X170843872Y-108656000D01*
X170580891Y-108726466D01*
X170345109Y-108862594D01*
X170276704Y-108931000D01*
X168394387Y-108931000D01*
X166791468Y-107328082D01*
X166742284Y-107278898D01*
X173684496Y-107278898D01*
X173722672Y-107581098D01*
X173801510Y-107875321D01*
X173919547Y-108156122D01*
X174074602Y-108418307D01*
X174263805Y-108657021D01*
X174483655Y-108867849D01*
X174730083Y-109046890D01*
X174998530Y-109190830D01*
X175284028Y-109297006D01*
X175581294Y-109363452D01*
X175884828Y-109388941D01*
X176189012Y-109373000D01*
X176488220Y-109315923D01*
X176776911Y-109218767D01*
X177049747Y-109083330D01*
X177301678Y-108912119D01*
X177528041Y-108708300D01*
X177724649Y-108475646D01*
X177887863Y-108218463D01*
X178014663Y-107941507D01*
X178102702Y-107649906D01*
X178150456Y-107348399D01*
X178154122Y-106998356D01*
X178112692Y-106695916D01*
X178030780Y-106402534D01*
X177909808Y-106122984D01*
X177752015Y-105862438D01*
X177560323Y-105625718D01*
X177338277Y-105417204D01*
X177089988Y-105240753D01*
X176820049Y-105099633D01*
X176533454Y-104996452D01*
X176235509Y-104933121D01*
X175931724Y-104910813D01*
X175627723Y-104929939D01*
X175329131Y-104990147D01*
X175041472Y-105090319D01*
X174770070Y-105228606D01*
X174519946Y-105402446D01*
X174295729Y-105608624D01*
X174101568Y-105843324D01*
X173941057Y-106102203D01*
X173817163Y-106380471D01*
X173732183Y-106672979D01*
X173687685Y-106974313D01*
X173684496Y-107278898D01*
X166742284Y-107278898D01*
X166542047Y-107078661D01*
X166542045Y-107078657D01*
X166371690Y-106908303D01*
X166317801Y-106880844D01*
X166268873Y-106845296D01*
X166211359Y-106826610D01*
X166157468Y-106799150D01*
X166097726Y-106789688D01*
X166040213Y-106771001D01*
X165980250Y-106771001D01*
X165980244Y-106771000D01*
X159524708Y-106771000D01*
X159583534Y-106669109D01*
X159654000Y-106406128D01*
X159654000Y-106242942D01*
X159689109Y-106233534D01*
X159924891Y-106097406D01*
X159993296Y-106029000D01*
X160570244Y-106029000D01*
X160570250Y-106028999D01*
X160630213Y-106028999D01*
X160687726Y-106010312D01*
X160747468Y-106000850D01*
X160801359Y-105973390D01*
X160858873Y-105954704D01*
X160907801Y-105919156D01*
X160961690Y-105891697D01*
X161042530Y-105810857D01*
X161102594Y-105914891D01*
X161295109Y-106107406D01*
X161530891Y-106243534D01*
X161793872Y-106314000D01*
X162066128Y-106314000D01*
X162329109Y-106243534D01*
X162564891Y-106107406D01*
X162757406Y-105914891D01*
X162893534Y-105679109D01*
X162964000Y-105416128D01*
X162964000Y-105143872D01*
X162893534Y-104880891D01*
X162757406Y-104645109D01*
X162694000Y-104581704D01*
X162694000Y-100274756D01*
X162693999Y-100274750D01*
X162693999Y-100214786D01*
X162675312Y-100157275D01*
X162665850Y-100097532D01*
X162638391Y-100043642D01*
X162619703Y-99986125D01*
X162584155Y-99937197D01*
X162556697Y-99883310D01*
X162386343Y-99712955D01*
X162386339Y-99712953D01*
X162192047Y-99518661D01*
X162192045Y-99518657D01*
X162021690Y-99348303D01*
X161967801Y-99320844D01*
X161918873Y-99285296D01*
X161861359Y-99266610D01*
X161807468Y-99239150D01*
X161747726Y-99229688D01*
X161690213Y-99211001D01*
X161630250Y-99211001D01*
X161630244Y-99211000D01*
X141869756Y-99211000D01*
X141869750Y-99211001D01*
X141809786Y-99211001D01*
X141752274Y-99229688D01*
X141692532Y-99239150D01*
X141638641Y-99266610D01*
X141581127Y-99285296D01*
X141532199Y-99320844D01*
X141478310Y-99348303D01*
X141307955Y-99518657D01*
X141307954Y-99518659D01*
X141198302Y-99628310D01*
X141187912Y-99648702D01*
X140918303Y-99918310D01*
X140890849Y-99972194D01*
X140855297Y-100021125D01*
X140836608Y-100078645D01*
X140809151Y-100132533D01*
X140799690Y-100192268D01*
X140781001Y-100249787D01*
X140781001Y-100650866D01*
X140614721Y-100767297D01*
X140437297Y-100944721D01*
X140293376Y-101150261D01*
X140270000Y-101200391D01*
X140246624Y-101150261D01*
X140102703Y-100944721D01*
X139925279Y-100767297D01*
X139719739Y-100623376D01*
X139492330Y-100517333D01*
X139249962Y-100452391D01*
X139062606Y-100436000D01*
X138937394Y-100436000D01*
X138750038Y-100452391D01*
X138507670Y-100517333D01*
X138280261Y-100623376D01*
X138074721Y-100767297D01*
X137897297Y-100944721D01*
X137753376Y-101150261D01*
X137730000Y-101200391D01*
X137706624Y-101150261D01*
X137562703Y-100944721D01*
X137385279Y-100767297D01*
X137179739Y-100623376D01*
X136952330Y-100517333D01*
X136709962Y-100452391D01*
X136522606Y-100436000D01*
X136397394Y-100436000D01*
X136210038Y-100452391D01*
X135967670Y-100517333D01*
X135740261Y-100623376D01*
X135534721Y-100767297D01*
X135357297Y-100944721D01*
X135213376Y-101150261D01*
X135190000Y-101200391D01*
X135166624Y-101150261D01*
X135022703Y-100944721D01*
X134845279Y-100767297D01*
X134639739Y-100623376D01*
X134412330Y-100517333D01*
X134169962Y-100452391D01*
X133982606Y-100436000D01*
X133857394Y-100436000D01*
X133670038Y-100452391D01*
X133427670Y-100517333D01*
X133200261Y-100623376D01*
X132994721Y-100767297D01*
X132817297Y-100944721D01*
X132673376Y-101150261D01*
X132650000Y-101200391D01*
X132626624Y-101150261D01*
X132482703Y-100944721D01*
X132305279Y-100767297D01*
X132099739Y-100623376D01*
X131872330Y-100517333D01*
X131629962Y-100452391D01*
X131442606Y-100436000D01*
X131317394Y-100436000D01*
X131130038Y-100452391D01*
X130887670Y-100517333D01*
X130660261Y-100623376D01*
X130454721Y-100767297D01*
X130277297Y-100944721D01*
X130133376Y-101150261D01*
X130110000Y-101200391D01*
X130086624Y-101150261D01*
X129942703Y-100944721D01*
X129765279Y-100767297D01*
X129559739Y-100623376D01*
X129332330Y-100517333D01*
X129089962Y-100452391D01*
X128902606Y-100436000D01*
X128777394Y-100436000D01*
X128590038Y-100452391D01*
X128347670Y-100517333D01*
X128120261Y-100623376D01*
X127914721Y-100767297D01*
X127737297Y-100944721D01*
X127593376Y-101150261D01*
X127570000Y-101200391D01*
X127546624Y-101150261D01*
X127402703Y-100944721D01*
X127225279Y-100767297D01*
X127019739Y-100623376D01*
X126792330Y-100517333D01*
X126549962Y-100452391D01*
X126362606Y-100436000D01*
X126237394Y-100436000D01*
X126050038Y-100452391D01*
X125807670Y-100517333D01*
X125580261Y-100623376D01*
X125374721Y-100767297D01*
X125197297Y-100944721D01*
X125053376Y-101150261D01*
X125030000Y-101200391D01*
X125006624Y-101150261D01*
X124862703Y-100944721D01*
X124685279Y-100767297D01*
X124479739Y-100623376D01*
X124252330Y-100517333D01*
X124009962Y-100452391D01*
X123822606Y-100436000D01*
X123697394Y-100436000D01*
X123510038Y-100452391D01*
X123267670Y-100517333D01*
X123040261Y-100623376D01*
X122834721Y-100767297D01*
X122657297Y-100944721D01*
X122513376Y-101150261D01*
X122407333Y-101377670D01*
X122342391Y-101620038D01*
X122320523Y-101870000D01*
X114584824Y-101870000D01*
X114560826Y-86630000D01*
X122320523Y-86630000D01*
X122342391Y-86879962D01*
X122407333Y-87122330D01*
X122513376Y-87349739D01*
X122657297Y-87555279D01*
X122834721Y-87732703D01*
X123040261Y-87876624D01*
X123267670Y-87982667D01*
X123510038Y-88047609D01*
X123697394Y-88064000D01*
X123822606Y-88064000D01*
X124009962Y-88047609D01*
X124252330Y-87982667D01*
X124479739Y-87876624D01*
X124685279Y-87732703D01*
X124862703Y-87555279D01*
X125006624Y-87349739D01*
X125030000Y-87299609D01*
X125053376Y-87349739D01*
X125197297Y-87555279D01*
X125374721Y-87732703D01*
X125580261Y-87876624D01*
X125807670Y-87982667D01*
X126050038Y-88047609D01*
X126237394Y-88064000D01*
X126362606Y-88064000D01*
X126549962Y-88047609D01*
X126792330Y-87982667D01*
X127019739Y-87876624D01*
X127225279Y-87732703D01*
X127402703Y-87555279D01*
X127546624Y-87349739D01*
X127570000Y-87299609D01*
X127593376Y-87349739D01*
X127737297Y-87555279D01*
X127914721Y-87732703D01*
X128120261Y-87876624D01*
X128347670Y-87982667D01*
X128590038Y-88047609D01*
X128777394Y-88064000D01*
X128902606Y-88064000D01*
X129089962Y-88047609D01*
X129332330Y-87982667D01*
X129559739Y-87876624D01*
X129765279Y-87732703D01*
X129942703Y-87555279D01*
X130086624Y-87349739D01*
X130110000Y-87299609D01*
X130133376Y-87349739D01*
X130277297Y-87555279D01*
X130454721Y-87732703D01*
X130660261Y-87876624D01*
X130887670Y-87982667D01*
X131130038Y-88047609D01*
X131317394Y-88064000D01*
X131442606Y-88064000D01*
X131629962Y-88047609D01*
X131872330Y-87982667D01*
X132099739Y-87876624D01*
X132305279Y-87732703D01*
X132482703Y-87555279D01*
X132626624Y-87349739D01*
X132650000Y-87299609D01*
X132673376Y-87349739D01*
X132817297Y-87555279D01*
X132994721Y-87732703D01*
X133200261Y-87876624D01*
X133427670Y-87982667D01*
X133670038Y-88047609D01*
X133857394Y-88064000D01*
X133982606Y-88064000D01*
X134169962Y-88047609D01*
X134412330Y-87982667D01*
X134639739Y-87876624D01*
X134845279Y-87732703D01*
X135022703Y-87555279D01*
X135166624Y-87349739D01*
X135190000Y-87299609D01*
X135213376Y-87349739D01*
X135357297Y-87555279D01*
X135534721Y-87732703D01*
X135740261Y-87876624D01*
X135967670Y-87982667D01*
X136210038Y-88047609D01*
X136397394Y-88064000D01*
X136522606Y-88064000D01*
X136709962Y-88047609D01*
X136952330Y-87982667D01*
X137179739Y-87876624D01*
X137385279Y-87732703D01*
X137562703Y-87555279D01*
X137706624Y-87349739D01*
X137730000Y-87299609D01*
X137753376Y-87349739D01*
X137897297Y-87555279D01*
X138074721Y-87732703D01*
X138280261Y-87876624D01*
X138507670Y-87982667D01*
X138750038Y-88047609D01*
X138937394Y-88064000D01*
X139062606Y-88064000D01*
X139249962Y-88047609D01*
X139492330Y-87982667D01*
X139719739Y-87876624D01*
X139925279Y-87732703D01*
X140102703Y-87555279D01*
X140246624Y-87349739D01*
X140270000Y-87299609D01*
X140293376Y-87349739D01*
X140437297Y-87555279D01*
X140614721Y-87732703D01*
X140820261Y-87876624D01*
X141047670Y-87982667D01*
X141290038Y-88047609D01*
X141477394Y-88064000D01*
X141602606Y-88064000D01*
X141789962Y-88047609D01*
X142032330Y-87982667D01*
X142259739Y-87876624D01*
X142465279Y-87732703D01*
X142642703Y-87555279D01*
X142786624Y-87349739D01*
X142810000Y-87299609D01*
X142833376Y-87349739D01*
X142977297Y-87555279D01*
X143154721Y-87732703D01*
X143360261Y-87876624D01*
X143587670Y-87982667D01*
X143830038Y-88047609D01*
X144017394Y-88064000D01*
X144142606Y-88064000D01*
X144329962Y-88047609D01*
X144572330Y-87982667D01*
X144799739Y-87876624D01*
X145005279Y-87732703D01*
X145182703Y-87555279D01*
X145326624Y-87349739D01*
X145350000Y-87299609D01*
X145373376Y-87349739D01*
X145517297Y-87555279D01*
X145694721Y-87732703D01*
X145900261Y-87876624D01*
X146127670Y-87982667D01*
X146370038Y-88047609D01*
X146557394Y-88064000D01*
X146682606Y-88064000D01*
X146869962Y-88047609D01*
X147112330Y-87982667D01*
X147339739Y-87876624D01*
X147545279Y-87732703D01*
X147722703Y-87555279D01*
X147866624Y-87349739D01*
X147890000Y-87299609D01*
X147913376Y-87349739D01*
X148057297Y-87555279D01*
X148234721Y-87732703D01*
X148440261Y-87876624D01*
X148667670Y-87982667D01*
X148910038Y-88047609D01*
X149097394Y-88064000D01*
X149222606Y-88064000D01*
X149409962Y-88047609D01*
X149652330Y-87982667D01*
X149879739Y-87876624D01*
X150085279Y-87732703D01*
X150262703Y-87555279D01*
X150406624Y-87349739D01*
X150430000Y-87299609D01*
X150453376Y-87349739D01*
X150597297Y-87555279D01*
X150774721Y-87732703D01*
X150980261Y-87876624D01*
X151207670Y-87982667D01*
X151450038Y-88047609D01*
X151637394Y-88064000D01*
X151762606Y-88064000D01*
X151949962Y-88047609D01*
X152192330Y-87982667D01*
X152419739Y-87876624D01*
X152625279Y-87732703D01*
X152802703Y-87555279D01*
X152946624Y-87349739D01*
X152970000Y-87299609D01*
X152993376Y-87349739D01*
X153137297Y-87555279D01*
X153314721Y-87732703D01*
X153520261Y-87876624D01*
X153747670Y-87982667D01*
X153990038Y-88047609D01*
X154177394Y-88064000D01*
X154302606Y-88064000D01*
X154489962Y-88047609D01*
X154732330Y-87982667D01*
X154959739Y-87876624D01*
X155165279Y-87732703D01*
X155342703Y-87555279D01*
X155486624Y-87349739D01*
X155510000Y-87299609D01*
X155533376Y-87349739D01*
X155677297Y-87555279D01*
X155854721Y-87732703D01*
X156060261Y-87876624D01*
X156287670Y-87982667D01*
X156530038Y-88047609D01*
X156717394Y-88064000D01*
X156842606Y-88064000D01*
X157029962Y-88047609D01*
X157272330Y-87982667D01*
X157499739Y-87876624D01*
X157705279Y-87732703D01*
X157882703Y-87555279D01*
X157900483Y-87529887D01*
X157958795Y-87747512D01*
X158106185Y-87923165D01*
X158299814Y-88034956D01*
X158508976Y-88071837D01*
X160136588Y-88071837D01*
X160437512Y-87991205D01*
X160613165Y-87843815D01*
X160724956Y-87650186D01*
X160761837Y-87441024D01*
X160761837Y-85813412D01*
X160681205Y-85512489D01*
X160533815Y-85336835D01*
X160340186Y-85225044D01*
X160131024Y-85188163D01*
X158503412Y-85188163D01*
X158202489Y-85268795D01*
X158026835Y-85416185D01*
X157915044Y-85609814D01*
X157895170Y-85722525D01*
X157882703Y-85704721D01*
X157705279Y-85527297D01*
X157499739Y-85383376D01*
X157272330Y-85277333D01*
X157029962Y-85212391D01*
X156842606Y-85196000D01*
X156717394Y-85196000D01*
X156530038Y-85212391D01*
X156287670Y-85277333D01*
X156060261Y-85383376D01*
X155854721Y-85527297D01*
X155677297Y-85704721D01*
X155533376Y-85910261D01*
X155510000Y-85960391D01*
X155486624Y-85910261D01*
X155342703Y-85704721D01*
X155165279Y-85527297D01*
X154959739Y-85383376D01*
X154732330Y-85277333D01*
X154489962Y-85212391D01*
X154302606Y-85196000D01*
X154177394Y-85196000D01*
X153990038Y-85212391D01*
X153747670Y-85277333D01*
X153520261Y-85383376D01*
X153314721Y-85527297D01*
X153137297Y-85704721D01*
X152993376Y-85910261D01*
X152970000Y-85960391D01*
X152946624Y-85910261D01*
X152802703Y-85704721D01*
X152625279Y-85527297D01*
X152419739Y-85383376D01*
X152192330Y-85277333D01*
X151949962Y-85212391D01*
X151762606Y-85196000D01*
X151637394Y-85196000D01*
X151450038Y-85212391D01*
X151207670Y-85277333D01*
X150980261Y-85383376D01*
X150774721Y-85527297D01*
X150597297Y-85704721D01*
X150453376Y-85910261D01*
X150430000Y-85960391D01*
X150406624Y-85910261D01*
X150262703Y-85704721D01*
X150085279Y-85527297D01*
X149879739Y-85383376D01*
X149652330Y-85277333D01*
X149409962Y-85212391D01*
X149222606Y-85196000D01*
X149097394Y-85196000D01*
X148910038Y-85212391D01*
X148667670Y-85277333D01*
X148440261Y-85383376D01*
X148234721Y-85527297D01*
X148057297Y-85704721D01*
X147913376Y-85910261D01*
X147890000Y-85960391D01*
X147866624Y-85910261D01*
X147722703Y-85704721D01*
X147545279Y-85527297D01*
X147339739Y-85383376D01*
X147112330Y-85277333D01*
X146869962Y-85212391D01*
X146682606Y-85196000D01*
X146557394Y-85196000D01*
X146370038Y-85212391D01*
X146127670Y-85277333D01*
X145900261Y-85383376D01*
X145694721Y-85527297D01*
X145517297Y-85704721D01*
X145373376Y-85910261D01*
X145350000Y-85960391D01*
X145326624Y-85910261D01*
X145182703Y-85704721D01*
X145005279Y-85527297D01*
X144799739Y-85383376D01*
X144572330Y-85277333D01*
X144329962Y-85212391D01*
X144142606Y-85196000D01*
X144017394Y-85196000D01*
X143830038Y-85212391D01*
X143587670Y-85277333D01*
X143360261Y-85383376D01*
X143154721Y-85527297D01*
X142977297Y-85704721D01*
X142833376Y-85910261D01*
X142810000Y-85960391D01*
X142786624Y-85910261D01*
X142642703Y-85704721D01*
X142465279Y-85527297D01*
X142259739Y-85383376D01*
X142032330Y-85277333D01*
X141789962Y-85212391D01*
X141602606Y-85196000D01*
X141477394Y-85196000D01*
X141290038Y-85212391D01*
X141047670Y-85277333D01*
X140820261Y-85383376D01*
X140614721Y-85527297D01*
X140437297Y-85704721D01*
X140293376Y-85910261D01*
X140270000Y-85960391D01*
X140246624Y-85910261D01*
X140102703Y-85704721D01*
X139925279Y-85527297D01*
X139719739Y-85383376D01*
X139492330Y-85277333D01*
X139249962Y-85212391D01*
X139062606Y-85196000D01*
X138937394Y-85196000D01*
X138750038Y-85212391D01*
X138507670Y-85277333D01*
X138280261Y-85383376D01*
X138074721Y-85527297D01*
X137897297Y-85704721D01*
X137753376Y-85910261D01*
X137730000Y-85960391D01*
X137706624Y-85910261D01*
X137562703Y-85704721D01*
X137385279Y-85527297D01*
X137179739Y-85383376D01*
X136952330Y-85277333D01*
X136709962Y-85212391D01*
X136522606Y-85196000D01*
X136397394Y-85196000D01*
X136210038Y-85212391D01*
X135967670Y-85277333D01*
X135740261Y-85383376D01*
X135534721Y-85527297D01*
X135357297Y-85704721D01*
X135213376Y-85910261D01*
X135190000Y-85960391D01*
X135166624Y-85910261D01*
X135022703Y-85704721D01*
X134845279Y-85527297D01*
X134639739Y-85383376D01*
X134412330Y-85277333D01*
X134169962Y-85212391D01*
X133982606Y-85196000D01*
X133857394Y-85196000D01*
X133670038Y-85212391D01*
X133427670Y-85277333D01*
X133200261Y-85383376D01*
X132994721Y-85527297D01*
X132817297Y-85704721D01*
X132673376Y-85910261D01*
X132650000Y-85960391D01*
X132626624Y-85910261D01*
X132482703Y-85704721D01*
X132305279Y-85527297D01*
X132099739Y-85383376D01*
X131872330Y-85277333D01*
X131629962Y-85212391D01*
X131442606Y-85196000D01*
X131317394Y-85196000D01*
X131130038Y-85212391D01*
X130887670Y-85277333D01*
X130660261Y-85383376D01*
X130454721Y-85527297D01*
X130277297Y-85704721D01*
X130133376Y-85910261D01*
X130110000Y-85960391D01*
X130086624Y-85910261D01*
X129942703Y-85704721D01*
X129765279Y-85527297D01*
X129559739Y-85383376D01*
X129332330Y-85277333D01*
X129089962Y-85212391D01*
X128902606Y-85196000D01*
X128777394Y-85196000D01*
X128590038Y-85212391D01*
X128347670Y-85277333D01*
X128120261Y-85383376D01*
X127914721Y-85527297D01*
X127737297Y-85704721D01*
X127593376Y-85910261D01*
X127570000Y-85960391D01*
X127546624Y-85910261D01*
X127402703Y-85704721D01*
X127225279Y-85527297D01*
X127019739Y-85383376D01*
X126792330Y-85277333D01*
X126549962Y-85212391D01*
X126362606Y-85196000D01*
X126237394Y-85196000D01*
X126050038Y-85212391D01*
X125807670Y-85277333D01*
X125580261Y-85383376D01*
X125374721Y-85527297D01*
X125197297Y-85704721D01*
X125053376Y-85910261D01*
X125030000Y-85960391D01*
X125006624Y-85910261D01*
X124862703Y-85704721D01*
X124685279Y-85527297D01*
X124479739Y-85383376D01*
X124252330Y-85277333D01*
X124009962Y-85212391D01*
X123822606Y-85196000D01*
X123697394Y-85196000D01*
X123510038Y-85212391D01*
X123267670Y-85277333D01*
X123040261Y-85383376D01*
X122834721Y-85527297D01*
X122657297Y-85704721D01*
X122513376Y-85910261D01*
X122407333Y-86137670D01*
X122342391Y-86380038D01*
X122320523Y-86630000D01*
X114560826Y-86630000D01*
X114552934Y-81618898D01*
X116154496Y-81618898D01*
X116192672Y-81921098D01*
X116271510Y-82215321D01*
X116389547Y-82496122D01*
X116544602Y-82758307D01*
X116733805Y-82997021D01*
X116953655Y-83207849D01*
X117200083Y-83386890D01*
X117468530Y-83530830D01*
X117754028Y-83637006D01*
X118051294Y-83703452D01*
X118354828Y-83728941D01*
X118659012Y-83713000D01*
X118958220Y-83655923D01*
X119246911Y-83558767D01*
X119519747Y-83423330D01*
X119771678Y-83252119D01*
X119998041Y-83048300D01*
X120194649Y-82815646D01*
X120357863Y-82558463D01*
X120484663Y-82281507D01*
X120572702Y-81989906D01*
X120620456Y-81688399D01*
X120624122Y-81338356D01*
X120582692Y-81035916D01*
X120500780Y-80742534D01*
X120379808Y-80462984D01*
X120222015Y-80202438D01*
X120030323Y-79965718D01*
X119808277Y-79757204D01*
X119559988Y-79580753D01*
X119290049Y-79439633D01*
X119003454Y-79336452D01*
X118705509Y-79273121D01*
X118401724Y-79250813D01*
X118097723Y-79269939D01*
X117799131Y-79330147D01*
X117511472Y-79430319D01*
X117240070Y-79568606D01*
X116989946Y-79742446D01*
X116765729Y-79948624D01*
X116571568Y-80183324D01*
X116411057Y-80442203D01*
X116287163Y-80720471D01*
X116202183Y-81012979D01*
X116157685Y-81314313D01*
X116154496Y-81618898D01*
X114552934Y-81618898D01*
X114546346Y-77435376D01*
X136764563Y-77435376D01*
X136764563Y-79190188D01*
X136845195Y-79491112D01*
X136992585Y-79666765D01*
X137186214Y-79778556D01*
X137395376Y-79815437D01*
X139150188Y-79815437D01*
X139451112Y-79734805D01*
X139626765Y-79587415D01*
X139738556Y-79393786D01*
X139743459Y-79365982D01*
X139762153Y-79387525D01*
X139958684Y-79548671D01*
X140179558Y-79674400D01*
X140421275Y-79762139D01*
X140764271Y-79807600D01*
X140873780Y-79807600D01*
X141063242Y-79791524D01*
X141309242Y-79727675D01*
X141540967Y-79623290D01*
X141751793Y-79481355D01*
X141935690Y-79305926D01*
X142082670Y-79108375D01*
X142135581Y-79195570D01*
X142302153Y-79387525D01*
X142498684Y-79548671D01*
X142719558Y-79674400D01*
X142961275Y-79762139D01*
X143222000Y-79796696D01*
X143222000Y-78182000D01*
X143478000Y-78182000D01*
X143478000Y-79824030D01*
X143849242Y-79727675D01*
X144080967Y-79623290D01*
X144291793Y-79481355D01*
X144475690Y-79305926D01*
X144622670Y-79108375D01*
X144675581Y-79195570D01*
X144842153Y-79387525D01*
X145038684Y-79548671D01*
X145259558Y-79674400D01*
X145501275Y-79762139D01*
X145844271Y-79807600D01*
X145953780Y-79807600D01*
X146143242Y-79791524D01*
X146389242Y-79727675D01*
X146620967Y-79623290D01*
X146831793Y-79481355D01*
X147015690Y-79305926D01*
X147162670Y-79108375D01*
X147215581Y-79195570D01*
X147382153Y-79387525D01*
X147546000Y-79521872D01*
X147546001Y-80573849D01*
X147426466Y-80780891D01*
X147356000Y-81043872D01*
X147356000Y-81316128D01*
X147426466Y-81579109D01*
X147562594Y-81814891D01*
X147755109Y-82007406D01*
X147990891Y-82143534D01*
X148253872Y-82214000D01*
X148526128Y-82214000D01*
X148789109Y-82143534D01*
X149024891Y-82007406D01*
X149217406Y-81814891D01*
X149353534Y-81579109D01*
X149424000Y-81316128D01*
X149424000Y-81043872D01*
X149353534Y-80780891D01*
X149314000Y-80712416D01*
X149314000Y-79520263D01*
X149371793Y-79481354D01*
X149555690Y-79305926D01*
X149702670Y-79108375D01*
X149755581Y-79195570D01*
X149922153Y-79387525D01*
X150118684Y-79548671D01*
X150235631Y-79615241D01*
X150239151Y-79637467D01*
X150266608Y-79691355D01*
X150285297Y-79748875D01*
X150320849Y-79797806D01*
X150348303Y-79851690D01*
X150398082Y-79901468D01*
X151062937Y-80566324D01*
X151146918Y-80650481D01*
X151201129Y-80678175D01*
X151250380Y-80713958D01*
X151307526Y-80732526D01*
X151361028Y-80759857D01*
X151421144Y-80769442D01*
X151479041Y-80788254D01*
X151598596Y-80788254D01*
X161592513Y-80798659D01*
X161670646Y-80881387D01*
X161662872Y-87487619D01*
X161662732Y-87488051D01*
X161662732Y-87607049D01*
X161662661Y-87667118D01*
X161662732Y-87667569D01*
X161662732Y-87728482D01*
X161681281Y-87785569D01*
X161690603Y-87844876D01*
X161718200Y-87899196D01*
X161737028Y-87957143D01*
X161772315Y-88005712D01*
X161799503Y-88059227D01*
X161842479Y-88102303D01*
X161842743Y-88102668D01*
X161884854Y-88144778D01*
X161969335Y-88229459D01*
X161969741Y-88229666D01*
X162395875Y-88655801D01*
X162551772Y-88811698D01*
X162605658Y-88839154D01*
X162654587Y-88874703D01*
X162712104Y-88893391D01*
X162765994Y-88920850D01*
X162825737Y-88930312D01*
X162883248Y-88948999D01*
X162943212Y-88948999D01*
X162943218Y-88949000D01*
X163516704Y-88949000D01*
X163585109Y-89017406D01*
X163820891Y-89153534D01*
X164083872Y-89224000D01*
X164356128Y-89224000D01*
X164619109Y-89153534D01*
X164854891Y-89017406D01*
X165047406Y-88824891D01*
X165183534Y-88589109D01*
X165254000Y-88326128D01*
X165254000Y-88053872D01*
X165183534Y-87790891D01*
X165047406Y-87555109D01*
X164854891Y-87362594D01*
X164619109Y-87226466D01*
X164356128Y-87156000D01*
X164083872Y-87156000D01*
X163820891Y-87226466D01*
X163585109Y-87362594D01*
X163516704Y-87431000D01*
X163317849Y-87431000D01*
X163181101Y-87294252D01*
X163187519Y-81838898D01*
X173674496Y-81838898D01*
X173712672Y-82141098D01*
X173791510Y-82435321D01*
X173909547Y-82716122D01*
X174064602Y-82978307D01*
X174253805Y-83217021D01*
X174473655Y-83427849D01*
X174720083Y-83606890D01*
X174988530Y-83750830D01*
X175274028Y-83857006D01*
X175571294Y-83923452D01*
X175874828Y-83948941D01*
X176179012Y-83933000D01*
X176478220Y-83875923D01*
X176766911Y-83778767D01*
X177039747Y-83643330D01*
X177291678Y-83472119D01*
X177518041Y-83268300D01*
X177714649Y-83035646D01*
X177877863Y-82778463D01*
X178004663Y-82501507D01*
X178092702Y-82209906D01*
X178140456Y-81908399D01*
X178144122Y-81558356D01*
X178102692Y-81255916D01*
X178020780Y-80962534D01*
X177899808Y-80682984D01*
X177742015Y-80422438D01*
X177550323Y-80185718D01*
X177328277Y-79977204D01*
X177079988Y-79800753D01*
X176810049Y-79659633D01*
X176523454Y-79556452D01*
X176225509Y-79493121D01*
X175921724Y-79470813D01*
X175617723Y-79489939D01*
X175319131Y-79550147D01*
X175031472Y-79650319D01*
X174760070Y-79788606D01*
X174509946Y-79962446D01*
X174285729Y-80168624D01*
X174091568Y-80403324D01*
X173931057Y-80662203D01*
X173807163Y-80940471D01*
X173722183Y-81232979D01*
X173677685Y-81534313D01*
X173674496Y-81838898D01*
X163187519Y-81838898D01*
X163188987Y-80591274D01*
X163192123Y-80481512D01*
X163172142Y-80413466D01*
X163161128Y-80343393D01*
X163138478Y-80298811D01*
X163124388Y-80250823D01*
X163084350Y-80192269D01*
X163052228Y-80129042D01*
X162974703Y-80051335D01*
X162547007Y-79598481D01*
X162542167Y-79588957D01*
X162464618Y-79511246D01*
X162430790Y-79475429D01*
X162422481Y-79469021D01*
X162372337Y-79418773D01*
X162327847Y-79396046D01*
X162288287Y-79365540D01*
X162221440Y-79341690D01*
X162158227Y-79309398D01*
X162108896Y-79301533D01*
X162061841Y-79284743D01*
X161990891Y-79282716D01*
X161980527Y-79281063D01*
X161931246Y-79281012D01*
X161821514Y-79277878D01*
X161811264Y-79280887D01*
X154659859Y-79273441D01*
X154787398Y-79102021D01*
X154902583Y-78875470D01*
X154977950Y-78632750D01*
X155011343Y-78380802D01*
X155001808Y-78126829D01*
X154949618Y-77878094D01*
X154856265Y-77641708D01*
X154724419Y-77424430D01*
X154557847Y-77232475D01*
X154361316Y-77071329D01*
X154305731Y-77039688D01*
X154451793Y-76941355D01*
X154635690Y-76765926D01*
X154787398Y-76562021D01*
X154902583Y-76335470D01*
X154977950Y-76092750D01*
X155011343Y-75840802D01*
X155001808Y-75586829D01*
X154949618Y-75338094D01*
X154856265Y-75101708D01*
X154724419Y-74884430D01*
X154557847Y-74692475D01*
X154361316Y-74531329D01*
X154140442Y-74405600D01*
X153898725Y-74317861D01*
X153555729Y-74272400D01*
X153446220Y-74272400D01*
X153256758Y-74288476D01*
X153010758Y-74352325D01*
X152779033Y-74456710D01*
X152568207Y-74598645D01*
X152384310Y-74774074D01*
X152237330Y-74971625D01*
X152184419Y-74884430D01*
X152017847Y-74692475D01*
X151821316Y-74531329D01*
X151600442Y-74405600D01*
X151358725Y-74317861D01*
X151015729Y-74272400D01*
X150906220Y-74272400D01*
X150716758Y-74288476D01*
X150470758Y-74352325D01*
X150239033Y-74456710D01*
X150028207Y-74598645D01*
X149844310Y-74774074D01*
X149697330Y-74971625D01*
X149644419Y-74884430D01*
X149477847Y-74692475D01*
X149281316Y-74531329D01*
X149060442Y-74405600D01*
X148818725Y-74317861D01*
X148475729Y-74272400D01*
X148366220Y-74272400D01*
X148176758Y-74288476D01*
X147930758Y-74352325D01*
X147699033Y-74456710D01*
X147488207Y-74598645D01*
X147304310Y-74774074D01*
X147157330Y-74971625D01*
X147104419Y-74884430D01*
X146937847Y-74692475D01*
X146741316Y-74531329D01*
X146520442Y-74405600D01*
X146278725Y-74317861D01*
X145935729Y-74272400D01*
X145826220Y-74272400D01*
X145636758Y-74288476D01*
X145390758Y-74352325D01*
X145159033Y-74456710D01*
X144948207Y-74598645D01*
X144764310Y-74774074D01*
X144617330Y-74971625D01*
X144564419Y-74884430D01*
X144397847Y-74692475D01*
X144201316Y-74531329D01*
X143980442Y-74405600D01*
X143738725Y-74317861D01*
X143478000Y-74283304D01*
X143478000Y-75898000D01*
X143222000Y-75898000D01*
X143222000Y-74255970D01*
X142850758Y-74352325D01*
X142619033Y-74456710D01*
X142408207Y-74598645D01*
X142224310Y-74774074D01*
X142077330Y-74971625D01*
X142024419Y-74884430D01*
X141857847Y-74692475D01*
X141661316Y-74531329D01*
X141440442Y-74405600D01*
X141198725Y-74317861D01*
X140855729Y-74272400D01*
X140746220Y-74272400D01*
X140556758Y-74288476D01*
X140310758Y-74352325D01*
X140079033Y-74456710D01*
X139868207Y-74598645D01*
X139684310Y-74774074D01*
X139537330Y-74971625D01*
X139484419Y-74884430D01*
X139317847Y-74692475D01*
X139121316Y-74531329D01*
X138900442Y-74405600D01*
X138658725Y-74317861D01*
X138315729Y-74272400D01*
X138206220Y-74272400D01*
X138016758Y-74288476D01*
X137770758Y-74352325D01*
X137539033Y-74456710D01*
X137328207Y-74598645D01*
X137144310Y-74774074D01*
X136992602Y-74977979D01*
X136877417Y-75204530D01*
X136802050Y-75447250D01*
X136768657Y-75699198D01*
X136778192Y-75953171D01*
X136830382Y-76201906D01*
X136923735Y-76438292D01*
X137055581Y-76655570D01*
X137222153Y-76847525D01*
X137223957Y-76849004D01*
X137088889Y-76885195D01*
X136913235Y-77032585D01*
X136801444Y-77226214D01*
X136764563Y-77435376D01*
X114546346Y-77435376D01*
X114534999Y-70230000D01*
X179446060Y-70230000D01*
X179451941Y-132462039D01*
X179451941Y-132462039D01*
G37*
X179451941Y-132462039D02*
X114633002Y-132465962D01*
X114617796Y-122808976D01*
X118928163Y-122808976D01*
X118928163Y-126436588D01*
X119008795Y-126737512D01*
X119156185Y-126913165D01*
X119349814Y-127024956D01*
X119558976Y-127061837D01*
X121386588Y-127061837D01*
X121687512Y-126981205D01*
X121863165Y-126833815D01*
X121974956Y-126640186D01*
X122011837Y-126431024D01*
X122011837Y-123673283D01*
X122436000Y-123673283D01*
X122436000Y-125585324D01*
X122452468Y-125779397D01*
X122517869Y-126031377D01*
X122624791Y-126268734D01*
X122770177Y-126484684D01*
X122949869Y-126673050D01*
X123158730Y-126828446D01*
X123390787Y-126946430D01*
X123639407Y-127023629D01*
X123897478Y-127057833D01*
X124157623Y-127048067D01*
X124412404Y-126994608D01*
X124654535Y-126898986D01*
X124877093Y-126763935D01*
X125073714Y-126593316D01*
X125238777Y-126392007D01*
X125367562Y-126165765D01*
X125457409Y-125918241D01*
X125504000Y-125566718D01*
X125504000Y-123673283D01*
X125936000Y-123673283D01*
X125936000Y-125585324D01*
X125952468Y-125779397D01*
X126017869Y-126031377D01*
X126124791Y-126268734D01*
X126270177Y-126484684D01*
X126449869Y-126673050D01*
X126658730Y-126828446D01*
X126890787Y-126946430D01*
X127139407Y-127023629D01*
X127397478Y-127057833D01*
X127657623Y-127048067D01*
X127912404Y-126994608D01*
X128154535Y-126898986D01*
X128377093Y-126763935D01*
X128573714Y-126593316D01*
X128738777Y-126392007D01*
X128867562Y-126165765D01*
X128957409Y-125918241D01*
X129004000Y-125566718D01*
X129004000Y-123673283D01*
X129436000Y-123673283D01*
X129436000Y-125585324D01*
X129452468Y-125779397D01*
X129517869Y-126031377D01*
X129624791Y-126268734D01*
X129770177Y-126484684D01*
X129949869Y-126673050D01*
X130158730Y-126828446D01*
X130390787Y-126946430D01*
X130639407Y-127023629D01*
X130897478Y-127057833D01*
X131157623Y-127048067D01*
X131412404Y-126994608D01*
X131654535Y-126898986D01*
X131877093Y-126763935D01*
X132073714Y-126593316D01*
X132238777Y-126392007D01*
X132367562Y-126165765D01*
X132457409Y-125918241D01*
X132504000Y-125566718D01*
X132504000Y-123673283D01*
X132936000Y-123673283D01*
X132936000Y-125585324D01*
X132952468Y-125779397D01*
X133017869Y-126031377D01*
X133124791Y-126268734D01*
X133270177Y-126484684D01*
X133449869Y-126673050D01*
X133658730Y-126828446D01*
X133890787Y-126946430D01*
X134139407Y-127023629D01*
X134397478Y-127057833D01*
X134657623Y-127048067D01*
X134912404Y-126994608D01*
X135154535Y-126898986D01*
X135377093Y-126763935D01*
X135573714Y-126593316D01*
X135738777Y-126392007D01*
X135867562Y-126165765D01*
X135957409Y-125918241D01*
X136004000Y-125566718D01*
X136004000Y-123673283D01*
X136436000Y-123673283D01*
X136436000Y-125585324D01*
X136452468Y-125779397D01*
X136517869Y-126031377D01*
X136624791Y-126268734D01*
X136770177Y-126484684D01*
X136949869Y-126673050D01*
X137158730Y-126828446D01*
X137390787Y-126946430D01*
X137639407Y-127023629D01*
X137897478Y-127057833D01*
X138157623Y-127048067D01*
X138412404Y-126994608D01*
X138654535Y-126898986D01*
X138877093Y-126763935D01*
X139073714Y-126593316D01*
X139238777Y-126392007D01*
X139367562Y-126165765D01*
X139457409Y-125918241D01*
X139504000Y-125566718D01*
X139504000Y-123673283D01*
X139936000Y-123673283D01*
X139936000Y-125585324D01*
X139952468Y-125779397D01*
X140017869Y-126031377D01*
X140124791Y-126268734D01*
X140270177Y-126484684D01*
X140449869Y-126673050D01*
X140658730Y-126828446D01*
X140890787Y-126946430D01*
X141139407Y-127023629D01*
X141397478Y-127057833D01*
X141657623Y-127048067D01*
X141912404Y-126994608D01*
X142154535Y-126898986D01*
X142377093Y-126763935D01*
X142573714Y-126593316D01*
X142738777Y-126392007D01*
X142867562Y-126165765D01*
X142957409Y-125918241D01*
X143004000Y-125566718D01*
X143004000Y-123673283D01*
X143436000Y-123673283D01*
X143436000Y-125585324D01*
X143452468Y-125779397D01*
X143517869Y-126031377D01*
X143624791Y-126268734D01*
X143770177Y-126484684D01*
X143949869Y-126673050D01*
X144158730Y-126828446D01*
X144390787Y-126946430D01*
X144639407Y-127023629D01*
X144897478Y-127057833D01*
X145157623Y-127048067D01*
X145412404Y-126994608D01*
X145654535Y-126898986D01*
X145877093Y-126763935D01*
X146073714Y-126593316D01*
X146238777Y-126392007D01*
X146367562Y-126165765D01*
X146457409Y-125918241D01*
X146504000Y-125566718D01*
X146504000Y-123654676D01*
X146487533Y-123460603D01*
X146422132Y-123208623D01*
X146350216Y-123048976D01*
X155168163Y-123048976D01*
X155168163Y-126676588D01*
X155248795Y-126977512D01*
X155396185Y-127153165D01*
X155589814Y-127264956D01*
X155798976Y-127301837D01*
X157626588Y-127301837D01*
X157927512Y-127221205D01*
X158103165Y-127073815D01*
X158214956Y-126880186D01*
X158251837Y-126671024D01*
X158251837Y-123913283D01*
X158676000Y-123913283D01*
X158676000Y-125825324D01*
X158692468Y-126019397D01*
X158757869Y-126271377D01*
X158864791Y-126508734D01*
X159010177Y-126724684D01*
X159189869Y-126913050D01*
X159398730Y-127068446D01*
X159630787Y-127186430D01*
X159879407Y-127263629D01*
X160137478Y-127297833D01*
X160397623Y-127288067D01*
X160652404Y-127234608D01*
X160894535Y-127138986D01*
X161117093Y-127003935D01*
X161313714Y-126833316D01*
X161478777Y-126632007D01*
X161607562Y-126405765D01*
X161697409Y-126158241D01*
X161744000Y-125806718D01*
X161744000Y-123913283D01*
X162176000Y-123913283D01*
X162176000Y-125825324D01*
X162192468Y-126019397D01*
X162257869Y-126271377D01*
X162364791Y-126508734D01*
X162510177Y-126724684D01*
X162689869Y-126913050D01*
X162898730Y-127068446D01*
X163130787Y-127186430D01*
X163379407Y-127263629D01*
X163637478Y-127297833D01*
X163897623Y-127288067D01*
X164152404Y-127234608D01*
X164394535Y-127138986D01*
X164617093Y-127003935D01*
X164813714Y-126833316D01*
X164978777Y-126632007D01*
X165107562Y-126405765D01*
X165197409Y-126158241D01*
X165244000Y-125806718D01*
X165244000Y-123913283D01*
X165676000Y-123913283D01*
X165676000Y-125825324D01*
X165692468Y-126019397D01*
X165757869Y-126271377D01*
X165864791Y-126508734D01*
X166010177Y-126724684D01*
X166189869Y-126913050D01*
X166398730Y-127068446D01*
X166630787Y-127186430D01*
X166879407Y-127263629D01*
X167137478Y-127297833D01*
X167397623Y-127288067D01*
X167652404Y-127234608D01*
X167894535Y-127138986D01*
X168117093Y-127003935D01*
X168313714Y-126833316D01*
X168478777Y-126632007D01*
X168607562Y-126405765D01*
X168697409Y-126158241D01*
X168744000Y-125806718D01*
X168744000Y-123913283D01*
X169176000Y-123913283D01*
X169176000Y-125825324D01*
X169192468Y-126019397D01*
X169257869Y-126271377D01*
X169364791Y-126508734D01*
X169510177Y-126724684D01*
X169689869Y-126913050D01*
X169898730Y-127068446D01*
X170130787Y-127186430D01*
X170379407Y-127263629D01*
X170637478Y-127297833D01*
X170897623Y-127288067D01*
X171152404Y-127234608D01*
X171394535Y-127138986D01*
X171617093Y-127003935D01*
X171813714Y-126833316D01*
X171978777Y-126632007D01*
X172107562Y-126405765D01*
X172197409Y-126158241D01*
X172244000Y-125806718D01*
X172244000Y-123894676D01*
X172227533Y-123700603D01*
X172162132Y-123448623D01*
X172055210Y-123211266D01*
X171909824Y-122995316D01*
X171730131Y-122806950D01*
X171521270Y-122651554D01*
X171289213Y-122533570D01*
X171040593Y-122456371D01*
X170782522Y-122422167D01*
X170522377Y-122431933D01*
X170267596Y-122485392D01*
X170025465Y-122581014D01*
X169802907Y-122716066D01*
X169606286Y-122886686D01*
X169441223Y-123087994D01*
X169312438Y-123314236D01*
X169222591Y-123561760D01*
X169176000Y-123913283D01*
X168744000Y-123913283D01*
X168744000Y-123894676D01*
X168727533Y-123700603D01*
X168662132Y-123448623D01*
X168555210Y-123211266D01*
X168409824Y-122995316D01*
X168230131Y-122806950D01*
X168021270Y-122651554D01*
X167789213Y-122533570D01*
X167540593Y-122456371D01*
X167282522Y-122422167D01*
X167022377Y-122431933D01*
X166767596Y-122485392D01*
X166525465Y-122581014D01*
X166302907Y-122716066D01*
X166106286Y-122886686D01*
X165941223Y-123087994D01*
X165812438Y-123314236D01*
X165722591Y-123561760D01*
X165676000Y-123913283D01*
X165244000Y-123913283D01*
X165244000Y-123894676D01*
X165227533Y-123700603D01*
X165162132Y-123448623D01*
X165055210Y-123211266D01*
X164909824Y-122995316D01*
X164730131Y-122806950D01*
X164521270Y-122651554D01*
X164289213Y-122533570D01*
X164040593Y-122456371D01*
X163782522Y-122422167D01*
X163522377Y-122431933D01*
X163267596Y-122485392D01*
X163025465Y-122581014D01*
X162802907Y-122716066D01*
X162606286Y-122886686D01*
X162441223Y-123087994D01*
X162312438Y-123314236D01*
X162222591Y-123561760D01*
X162176000Y-123913283D01*
X161744000Y-123913283D01*
X161744000Y-123894676D01*
X161727533Y-123700603D01*
X161662132Y-123448623D01*
X161555210Y-123211266D01*
X161409824Y-122995316D01*
X161230131Y-122806950D01*
X161021270Y-122651554D01*
X160789213Y-122533570D01*
X160540593Y-122456371D01*
X160282522Y-122422167D01*
X160022377Y-122431933D01*
X159767596Y-122485392D01*
X159525465Y-122581014D01*
X159302907Y-122716066D01*
X159106286Y-122886686D01*
X158941223Y-123087994D01*
X158812438Y-123314236D01*
X158722591Y-123561760D01*
X158676000Y-123913283D01*
X158251837Y-123913283D01*
X158251837Y-123043412D01*
X158171205Y-122742489D01*
X158023815Y-122566835D01*
X157830186Y-122455044D01*
X157621024Y-122418163D01*
X155793412Y-122418163D01*
X155492489Y-122498795D01*
X155316835Y-122646185D01*
X155205044Y-122839814D01*
X155168163Y-123048976D01*
X146350216Y-123048976D01*
X146315210Y-122971266D01*
X146169824Y-122755316D01*
X145990131Y-122566950D01*
X145781270Y-122411554D01*
X145549213Y-122293570D01*
X145300593Y-122216371D01*
X145042522Y-122182167D01*
X144782377Y-122191933D01*
X144527596Y-122245392D01*
X144285465Y-122341014D01*
X144062907Y-122476066D01*
X143866286Y-122646686D01*
X143701223Y-122847994D01*
X143572438Y-123074236D01*
X143482591Y-123321760D01*
X143436000Y-123673283D01*
X143004000Y-123673283D01*
X143004000Y-123654676D01*
X142987533Y-123460603D01*
X142922132Y-123208623D01*
X142815210Y-122971266D01*
X142669824Y-122755316D01*
X142490131Y-122566950D01*
X142281270Y-122411554D01*
X142049213Y-122293570D01*
X141800593Y-122216371D01*
X141542522Y-122182167D01*
X141282377Y-122191933D01*
X141027596Y-122245392D01*
X140785465Y-122341014D01*
X140562907Y-122476066D01*
X140366286Y-122646686D01*
X140201223Y-122847994D01*
X140072438Y-123074236D01*
X139982591Y-123321760D01*
X139936000Y-123673283D01*
X139504000Y-123673283D01*
X139504000Y-123654676D01*
X139487533Y-123460603D01*
X139422132Y-123208623D01*
X139315210Y-122971266D01*
X139169824Y-122755316D01*
X138990131Y-122566950D01*
X138781270Y-122411554D01*
X138549213Y-122293570D01*
X138300593Y-122216371D01*
X138042522Y-122182167D01*
X137782377Y-122191933D01*
X137527596Y-122245392D01*
X137285465Y-122341014D01*
X137062907Y-122476066D01*
X136866286Y-122646686D01*
X136701223Y-122847994D01*
X136572438Y-123074236D01*
X136482591Y-123321760D01*
X136436000Y-123673283D01*
X136004000Y-123673283D01*
X136004000Y-123654676D01*
X135987533Y-123460603D01*
X135922132Y-123208623D01*
X135815210Y-122971266D01*
X135669824Y-122755316D01*
X135490131Y-122566950D01*
X135281270Y-122411554D01*
X135049213Y-122293570D01*
X134800593Y-122216371D01*
X134542522Y-122182167D01*
X134282377Y-122191933D01*
X134027596Y-122245392D01*
X133785465Y-122341014D01*
X133562907Y-122476066D01*
X133366286Y-122646686D01*
X133201223Y-122847994D01*
X133072438Y-123074236D01*
X132982591Y-123321760D01*
X132936000Y-123673283D01*
X132504000Y-123673283D01*
X132504000Y-123654676D01*
X132487533Y-123460603D01*
X132422132Y-123208623D01*
X132315210Y-122971266D01*
X132169824Y-122755316D01*
X131990131Y-122566950D01*
X131781270Y-122411554D01*
X131549213Y-122293570D01*
X131300593Y-122216371D01*
X131042522Y-122182167D01*
X130782377Y-122191933D01*
X130527596Y-122245392D01*
X130285465Y-122341014D01*
X130062907Y-122476066D01*
X129866286Y-122646686D01*
X129701223Y-122847994D01*
X129572438Y-123074236D01*
X129482591Y-123321760D01*
X129436000Y-123673283D01*
X129004000Y-123673283D01*
X129004000Y-123654676D01*
X128987533Y-123460603D01*
X128922132Y-123208623D01*
X128815210Y-122971266D01*
X128669824Y-122755316D01*
X128490131Y-122566950D01*
X128281270Y-122411554D01*
X128049213Y-122293570D01*
X127800593Y-122216371D01*
X127542522Y-122182167D01*
X127282377Y-122191933D01*
X127027596Y-122245392D01*
X126785465Y-122341014D01*
X126562907Y-122476066D01*
X126366286Y-122646686D01*
X126201223Y-122847994D01*
X126072438Y-123074236D01*
X125982591Y-123321760D01*
X125936000Y-123673283D01*
X125504000Y-123673283D01*
X125504000Y-123654676D01*
X125487533Y-123460603D01*
X125422132Y-123208623D01*
X125315210Y-122971266D01*
X125169824Y-122755316D01*
X124990131Y-122566950D01*
X124781270Y-122411554D01*
X124549213Y-122293570D01*
X124300593Y-122216371D01*
X124042522Y-122182167D01*
X123782377Y-122191933D01*
X123527596Y-122245392D01*
X123285465Y-122341014D01*
X123062907Y-122476066D01*
X122866286Y-122646686D01*
X122701223Y-122847994D01*
X122572438Y-123074236D01*
X122482591Y-123321760D01*
X122436000Y-123673283D01*
X122011837Y-123673283D01*
X122011837Y-122803412D01*
X121931205Y-122502489D01*
X121783815Y-122326835D01*
X121590186Y-122215044D01*
X121381024Y-122178163D01*
X119553412Y-122178163D01*
X119252489Y-122258795D01*
X119076835Y-122406185D01*
X118965044Y-122599814D01*
X118928163Y-122808976D01*
X114617796Y-122808976D01*
X114592711Y-106878898D01*
X116134496Y-106878898D01*
X116172672Y-107181098D01*
X116251510Y-107475321D01*
X116369547Y-107756122D01*
X116524602Y-108018307D01*
X116713805Y-108257021D01*
X116933655Y-108467849D01*
X117180083Y-108646890D01*
X117448530Y-108790830D01*
X117734028Y-108897006D01*
X118031294Y-108963452D01*
X118334828Y-108988941D01*
X118639012Y-108973000D01*
X118938220Y-108915923D01*
X119226911Y-108818767D01*
X119499747Y-108683330D01*
X119751678Y-108512119D01*
X119978041Y-108308300D01*
X120174649Y-108075646D01*
X120264621Y-107933872D01*
X130726000Y-107933872D01*
X130726000Y-108206128D01*
X130796466Y-108469109D01*
X130932594Y-108704891D01*
X131125109Y-108897406D01*
X131360891Y-109033534D01*
X131623872Y-109104000D01*
X131896128Y-109104000D01*
X132159109Y-109033534D01*
X132394891Y-108897406D01*
X132587406Y-108704891D01*
X132723534Y-108469109D01*
X132782512Y-108249000D01*
X133066000Y-108249000D01*
X133066000Y-108506128D01*
X133136466Y-108769109D01*
X133272594Y-109004891D01*
X133321001Y-109053297D01*
X133321000Y-109730243D01*
X133321001Y-109730249D01*
X133321001Y-109790213D01*
X133339688Y-109847724D01*
X133349150Y-109907467D01*
X133376609Y-109961357D01*
X133395297Y-110018874D01*
X133430846Y-110067803D01*
X133458302Y-110121689D01*
X133628657Y-110292045D01*
X133628661Y-110292047D01*
X133817953Y-110481339D01*
X133817955Y-110481343D01*
X133988310Y-110651697D01*
X134042197Y-110679155D01*
X134091125Y-110714703D01*
X134148642Y-110733391D01*
X134202532Y-110760850D01*
X134262275Y-110770312D01*
X134319786Y-110788999D01*
X134379750Y-110788999D01*
X134379756Y-110789000D01*
X136876704Y-110789000D01*
X136945109Y-110857406D01*
X137180891Y-110993534D01*
X137443872Y-111064000D01*
X137716128Y-111064000D01*
X137979109Y-110993534D01*
X138214891Y-110857406D01*
X138407406Y-110664891D01*
X138543534Y-110429109D01*
X138614000Y-110166128D01*
X138614000Y-110115278D01*
X138683872Y-110134000D01*
X138956128Y-110134000D01*
X139219109Y-110063534D01*
X139454891Y-109927406D01*
X139647406Y-109734891D01*
X139783534Y-109499109D01*
X139854000Y-109236128D01*
X139854000Y-108963872D01*
X139783534Y-108700891D01*
X139647406Y-108465109D01*
X139454891Y-108272594D01*
X139219109Y-108136466D01*
X138956128Y-108066000D01*
X138683872Y-108066000D01*
X138644000Y-108076684D01*
X138644000Y-107943872D01*
X138573534Y-107680891D01*
X138437406Y-107445109D01*
X138244891Y-107252594D01*
X138009109Y-107116466D01*
X137746128Y-107046000D01*
X137473872Y-107046000D01*
X137210891Y-107116466D01*
X136975109Y-107252594D01*
X136906704Y-107321000D01*
X135694388Y-107321000D01*
X135412046Y-107038659D01*
X135412045Y-107038657D01*
X135241690Y-106868303D01*
X135187801Y-106840844D01*
X135138873Y-106805296D01*
X135081359Y-106786610D01*
X135027468Y-106759150D01*
X134967726Y-106749688D01*
X134910213Y-106731001D01*
X134850250Y-106731001D01*
X134850244Y-106731000D01*
X132279756Y-106731000D01*
X132279750Y-106731001D01*
X132219786Y-106731001D01*
X132162275Y-106749688D01*
X132102532Y-106759150D01*
X132048642Y-106786609D01*
X131991125Y-106805297D01*
X131942196Y-106840846D01*
X131888310Y-106868302D01*
X131720613Y-107036000D01*
X131623872Y-107036000D01*
X131360891Y-107106466D01*
X131125109Y-107242594D01*
X130932594Y-107435109D01*
X130796466Y-107670891D01*
X130726000Y-107933872D01*
X120264621Y-107933872D01*
X120337863Y-107818463D01*
X120464663Y-107541507D01*
X120552702Y-107249906D01*
X120600456Y-106948399D01*
X120604122Y-106598356D01*
X120562692Y-106295916D01*
X120480780Y-106002534D01*
X120359808Y-105722984D01*
X120202015Y-105462438D01*
X120010323Y-105225718D01*
X119788277Y-105017204D01*
X119539988Y-104840753D01*
X119270049Y-104699633D01*
X118983454Y-104596452D01*
X118685509Y-104533121D01*
X118381724Y-104510813D01*
X118077723Y-104529939D01*
X117779131Y-104590147D01*
X117491472Y-104690319D01*
X117220070Y-104828606D01*
X116969946Y-105002446D01*
X116745729Y-105208624D01*
X116551568Y-105443324D01*
X116391057Y-105702203D01*
X116267163Y-105980471D01*
X116182183Y-106272979D01*
X116137685Y-106574313D01*
X116134496Y-106878898D01*
X114592711Y-106878898D01*
X114584824Y-101870000D01*
X122320523Y-101870000D01*
X122342391Y-102119962D01*
X122407333Y-102362330D01*
X122513376Y-102589739D01*
X122657297Y-102795279D01*
X122834721Y-102972703D01*
X123040261Y-103116624D01*
X123267670Y-103222667D01*
X123510038Y-103287609D01*
X123697394Y-103304000D01*
X123822606Y-103304000D01*
X124009962Y-103287609D01*
X124252330Y-103222667D01*
X124479739Y-103116624D01*
X124685279Y-102972703D01*
X124862703Y-102795279D01*
X125006624Y-102589739D01*
X125030000Y-102539609D01*
X125053376Y-102589739D01*
X125197297Y-102795279D01*
X125374721Y-102972703D01*
X125580261Y-103116624D01*
X125807670Y-103222667D01*
X126050038Y-103287609D01*
X126237394Y-103304000D01*
X126362606Y-103304000D01*
X126549962Y-103287609D01*
X126792330Y-103222667D01*
X127019739Y-103116624D01*
X127225279Y-102972703D01*
X127402703Y-102795279D01*
X127546624Y-102589739D01*
X127570000Y-102539609D01*
X127593376Y-102589739D01*
X127737297Y-102795279D01*
X127914721Y-102972703D01*
X128120261Y-103116624D01*
X128347670Y-103222667D01*
X128590038Y-103287609D01*
X128777394Y-103304000D01*
X128902606Y-103304000D01*
X129089962Y-103287609D01*
X129332330Y-103222667D01*
X129559739Y-103116624D01*
X129765279Y-102972703D01*
X129942703Y-102795279D01*
X130086624Y-102589739D01*
X130110000Y-102539609D01*
X130133376Y-102589739D01*
X130277297Y-102795279D01*
X130454721Y-102972703D01*
X130660261Y-103116624D01*
X130887670Y-103222667D01*
X131130038Y-103287609D01*
X131317394Y-103304000D01*
X131442606Y-103304000D01*
X131629962Y-103287609D01*
X131872330Y-103222667D01*
X132099739Y-103116624D01*
X132305279Y-102972703D01*
X132482703Y-102795279D01*
X132626624Y-102589739D01*
X132650000Y-102539609D01*
X132673376Y-102589739D01*
X132817297Y-102795279D01*
X132994721Y-102972703D01*
X133200261Y-103116624D01*
X133427670Y-103222667D01*
X133670038Y-103287609D01*
X133857394Y-103304000D01*
X133982606Y-103304000D01*
X134169962Y-103287609D01*
X134412330Y-103222667D01*
X134639739Y-103116624D01*
X134845279Y-102972703D01*
X135022703Y-102795279D01*
X135166624Y-102589739D01*
X135190000Y-102539609D01*
X135213376Y-102589739D01*
X135357297Y-102795279D01*
X135534721Y-102972703D01*
X135740261Y-103116624D01*
X135967670Y-103222667D01*
X136210038Y-103287609D01*
X136397394Y-103304000D01*
X136522606Y-103304000D01*
X136709962Y-103287609D01*
X136952330Y-103222667D01*
X137179739Y-103116624D01*
X137385279Y-102972703D01*
X137562703Y-102795279D01*
X137706624Y-102589739D01*
X137730000Y-102539609D01*
X137753376Y-102589739D01*
X137897297Y-102795279D01*
X138074721Y-102972703D01*
X138280261Y-103116624D01*
X138507670Y-103222667D01*
X138750038Y-103287609D01*
X138937394Y-103304000D01*
X139062606Y-103304000D01*
X139249962Y-103287609D01*
X139492330Y-103222667D01*
X139719739Y-103116624D01*
X139925279Y-102972703D01*
X140102703Y-102795279D01*
X140246624Y-102589739D01*
X140270000Y-102539609D01*
X140293376Y-102589739D01*
X140437297Y-102795279D01*
X140614721Y-102972703D01*
X140820261Y-103116624D01*
X141047670Y-103222667D01*
X141290038Y-103287609D01*
X141477394Y-103304000D01*
X141602606Y-103304000D01*
X141789962Y-103287609D01*
X142032330Y-103222667D01*
X142259739Y-103116624D01*
X142465279Y-102972703D01*
X142642703Y-102795279D01*
X142786624Y-102589739D01*
X142810000Y-102539609D01*
X142833376Y-102589739D01*
X142977297Y-102795279D01*
X143154721Y-102972703D01*
X143360261Y-103116624D01*
X143587670Y-103222667D01*
X143830038Y-103287609D01*
X144017394Y-103304000D01*
X144142606Y-103304000D01*
X144329962Y-103287609D01*
X144572330Y-103222667D01*
X144799739Y-103116624D01*
X145005279Y-102972703D01*
X145182703Y-102795279D01*
X145326624Y-102589739D01*
X145350000Y-102539609D01*
X145373376Y-102589739D01*
X145517297Y-102795279D01*
X145694721Y-102972703D01*
X145900261Y-103116624D01*
X146127670Y-103222667D01*
X146370038Y-103287609D01*
X146557394Y-103304000D01*
X146682606Y-103304000D01*
X146869962Y-103287609D01*
X147112330Y-103222667D01*
X147339739Y-103116624D01*
X147545279Y-102972703D01*
X147722703Y-102795279D01*
X147866624Y-102589739D01*
X147890000Y-102539609D01*
X147913376Y-102589739D01*
X148057297Y-102795279D01*
X148234721Y-102972703D01*
X148440261Y-103116624D01*
X148667670Y-103222667D01*
X148910038Y-103287609D01*
X149097394Y-103304000D01*
X149222606Y-103304000D01*
X149409962Y-103287609D01*
X149652330Y-103222667D01*
X149879739Y-103116624D01*
X150085279Y-102972703D01*
X150262703Y-102795279D01*
X150406624Y-102589739D01*
X150430000Y-102539609D01*
X150453376Y-102589739D01*
X150597297Y-102795279D01*
X150774721Y-102972703D01*
X150980261Y-103116624D01*
X151207670Y-103222667D01*
X151572000Y-103320288D01*
X151572000Y-101742000D01*
X151828000Y-101742000D01*
X151828000Y-103320288D01*
X152192330Y-103222667D01*
X152419739Y-103116624D01*
X152625279Y-102972703D01*
X152802703Y-102795279D01*
X152946624Y-102589739D01*
X152970000Y-102539609D01*
X152993376Y-102589739D01*
X153137297Y-102795279D01*
X153314721Y-102972703D01*
X153520261Y-103116624D01*
X153747670Y-103222667D01*
X153990038Y-103287609D01*
X154177394Y-103304000D01*
X154302606Y-103304000D01*
X154489962Y-103287609D01*
X154732330Y-103222667D01*
X154959739Y-103116624D01*
X155165279Y-102972703D01*
X155342703Y-102795279D01*
X155486624Y-102589739D01*
X155510000Y-102539609D01*
X155533376Y-102589739D01*
X155677297Y-102795279D01*
X155854721Y-102972703D01*
X156060261Y-103116624D01*
X156287670Y-103222667D01*
X156530038Y-103287609D01*
X156717394Y-103304000D01*
X156842606Y-103304000D01*
X157029962Y-103287609D01*
X157272330Y-103222667D01*
X157499739Y-103116624D01*
X157705279Y-102972703D01*
X157882703Y-102795279D01*
X158026624Y-102589739D01*
X158050000Y-102539609D01*
X158073376Y-102589739D01*
X158217297Y-102795279D01*
X158394721Y-102972703D01*
X158600261Y-103116624D01*
X158827670Y-103222667D01*
X159070038Y-103287609D01*
X159257394Y-103304000D01*
X159382606Y-103304000D01*
X159569962Y-103287609D01*
X159812330Y-103222667D01*
X160039739Y-103116624D01*
X160245279Y-102972703D01*
X160422703Y-102795279D01*
X160566624Y-102589739D01*
X160631000Y-102451684D01*
X160631001Y-104075611D01*
X160195613Y-104511000D01*
X159993296Y-104511000D01*
X159924891Y-104442594D01*
X159689109Y-104306466D01*
X159426128Y-104236000D01*
X159153872Y-104236000D01*
X158890891Y-104306466D01*
X158655109Y-104442594D01*
X158462594Y-104635109D01*
X158326466Y-104870891D01*
X158256000Y-105133872D01*
X158256000Y-105297058D01*
X158220891Y-105306466D01*
X157985109Y-105442594D01*
X157916704Y-105511000D01*
X153963296Y-105511000D01*
X153894891Y-105442594D01*
X153659109Y-105306466D01*
X153396128Y-105236000D01*
X153123872Y-105236000D01*
X152860891Y-105306466D01*
X152625109Y-105442594D01*
X152432594Y-105635109D01*
X152296466Y-105870891D01*
X152226000Y-106133872D01*
X152226000Y-106406128D01*
X152296466Y-106669109D01*
X152432594Y-106904891D01*
X152625109Y-107097406D01*
X152860891Y-107233534D01*
X153123872Y-107304000D01*
X153396128Y-107304000D01*
X153659109Y-107233534D01*
X153894891Y-107097406D01*
X153963296Y-107029000D01*
X156875292Y-107029000D01*
X156816466Y-107130891D01*
X156746000Y-107393872D01*
X156746000Y-107666128D01*
X156760311Y-107719535D01*
X156599109Y-107626466D01*
X156336128Y-107556000D01*
X156063872Y-107556000D01*
X155800891Y-107626466D01*
X155565109Y-107762594D01*
X155372594Y-107955109D01*
X155236466Y-108190891D01*
X155166000Y-108453872D01*
X155166000Y-108726128D01*
X155236466Y-108989109D01*
X155372594Y-109224891D01*
X155565109Y-109417406D01*
X155800891Y-109553534D01*
X156063872Y-109624000D01*
X156336128Y-109624000D01*
X156599109Y-109553534D01*
X156834891Y-109417406D01*
X156903296Y-109349000D01*
X157946000Y-109349000D01*
X157946000Y-109536128D01*
X158016466Y-109799109D01*
X158152594Y-110034891D01*
X158221000Y-110103296D01*
X158221001Y-113486703D01*
X158152594Y-113555109D01*
X158016466Y-113790891D01*
X157946000Y-114053872D01*
X157946000Y-114326128D01*
X158016466Y-114589109D01*
X158152594Y-114824891D01*
X158345109Y-115017406D01*
X158580891Y-115153534D01*
X158843872Y-115224000D01*
X159116128Y-115224000D01*
X159379109Y-115153534D01*
X159614891Y-115017406D01*
X159807406Y-114824891D01*
X159943534Y-114589109D01*
X160014000Y-114326128D01*
X160014000Y-114053872D01*
X159943534Y-113790891D01*
X159807406Y-113555109D01*
X159739000Y-113486704D01*
X159739000Y-110131297D01*
X159835109Y-110227406D01*
X160070891Y-110363534D01*
X160333872Y-110434000D01*
X160606128Y-110434000D01*
X160869109Y-110363534D01*
X161104891Y-110227406D01*
X161173296Y-110159000D01*
X162161001Y-110159000D01*
X162161000Y-113496704D01*
X162092594Y-113565109D01*
X161956466Y-113800891D01*
X161886000Y-114063872D01*
X161886000Y-114336128D01*
X161956466Y-114599109D01*
X162092594Y-114834891D01*
X162285109Y-115027406D01*
X162520891Y-115163534D01*
X162783872Y-115234000D01*
X163056128Y-115234000D01*
X163319109Y-115163534D01*
X163554891Y-115027406D01*
X163747406Y-114834891D01*
X163883534Y-114599109D01*
X163954000Y-114336128D01*
X163954000Y-114063872D01*
X163883534Y-113800891D01*
X163747406Y-113565109D01*
X163679000Y-113496704D01*
X163679000Y-109769756D01*
X163678999Y-109769750D01*
X163678999Y-109709786D01*
X163660312Y-109652275D01*
X163650850Y-109592532D01*
X163623391Y-109538642D01*
X163604703Y-109481125D01*
X163569154Y-109432196D01*
X163541698Y-109378310D01*
X163512388Y-109349000D01*
X164614100Y-109349000D01*
X164586000Y-109453872D01*
X164586000Y-109726128D01*
X164656466Y-109989109D01*
X164792594Y-110224891D01*
X164985109Y-110417406D01*
X165220891Y-110553534D01*
X165483872Y-110624000D01*
X165756128Y-110624000D01*
X166019109Y-110553534D01*
X166254891Y-110417406D01*
X166447406Y-110224891D01*
X166583534Y-109989109D01*
X166654000Y-109726128D01*
X166654000Y-109453872D01*
X166611363Y-109294749D01*
X167472414Y-110155801D01*
X167628310Y-110311698D01*
X167682196Y-110339154D01*
X167731125Y-110374703D01*
X167788642Y-110393391D01*
X167842532Y-110420850D01*
X167902275Y-110430312D01*
X167959786Y-110448999D01*
X168019750Y-110448999D01*
X168019756Y-110449000D01*
X170276704Y-110449000D01*
X170345109Y-110517406D01*
X170580891Y-110653534D01*
X170843872Y-110724000D01*
X171116128Y-110724000D01*
X171379109Y-110653534D01*
X171614891Y-110517406D01*
X171807406Y-110324891D01*
X171943534Y-110089109D01*
X172014000Y-109826128D01*
X172014000Y-109553872D01*
X171943534Y-109290891D01*
X171807406Y-109055109D01*
X171614891Y-108862594D01*
X171379109Y-108726466D01*
X171116128Y-108656000D01*
X170843872Y-108656000D01*
X170580891Y-108726466D01*
X170345109Y-108862594D01*
X170276704Y-108931000D01*
X168394387Y-108931000D01*
X166791468Y-107328082D01*
X166742284Y-107278898D01*
X173684496Y-107278898D01*
X173722672Y-107581098D01*
X173801510Y-107875321D01*
X173919547Y-108156122D01*
X174074602Y-108418307D01*
X174263805Y-108657021D01*
X174483655Y-108867849D01*
X174730083Y-109046890D01*
X174998530Y-109190830D01*
X175284028Y-109297006D01*
X175581294Y-109363452D01*
X175884828Y-109388941D01*
X176189012Y-109373000D01*
X176488220Y-109315923D01*
X176776911Y-109218767D01*
X177049747Y-109083330D01*
X177301678Y-108912119D01*
X177528041Y-108708300D01*
X177724649Y-108475646D01*
X177887863Y-108218463D01*
X178014663Y-107941507D01*
X178102702Y-107649906D01*
X178150456Y-107348399D01*
X178154122Y-106998356D01*
X178112692Y-106695916D01*
X178030780Y-106402534D01*
X177909808Y-106122984D01*
X177752015Y-105862438D01*
X177560323Y-105625718D01*
X177338277Y-105417204D01*
X177089988Y-105240753D01*
X176820049Y-105099633D01*
X176533454Y-104996452D01*
X176235509Y-104933121D01*
X175931724Y-104910813D01*
X175627723Y-104929939D01*
X175329131Y-104990147D01*
X175041472Y-105090319D01*
X174770070Y-105228606D01*
X174519946Y-105402446D01*
X174295729Y-105608624D01*
X174101568Y-105843324D01*
X173941057Y-106102203D01*
X173817163Y-106380471D01*
X173732183Y-106672979D01*
X173687685Y-106974313D01*
X173684496Y-107278898D01*
X166742284Y-107278898D01*
X166542047Y-107078661D01*
X166542045Y-107078657D01*
X166371690Y-106908303D01*
X166317801Y-106880844D01*
X166268873Y-106845296D01*
X166211359Y-106826610D01*
X166157468Y-106799150D01*
X166097726Y-106789688D01*
X166040213Y-106771001D01*
X165980250Y-106771001D01*
X165980244Y-106771000D01*
X159524708Y-106771000D01*
X159583534Y-106669109D01*
X159654000Y-106406128D01*
X159654000Y-106242942D01*
X159689109Y-106233534D01*
X159924891Y-106097406D01*
X159993296Y-106029000D01*
X160570244Y-106029000D01*
X160570250Y-106028999D01*
X160630213Y-106028999D01*
X160687726Y-106010312D01*
X160747468Y-106000850D01*
X160801359Y-105973390D01*
X160858873Y-105954704D01*
X160907801Y-105919156D01*
X160961690Y-105891697D01*
X161042530Y-105810857D01*
X161102594Y-105914891D01*
X161295109Y-106107406D01*
X161530891Y-106243534D01*
X161793872Y-106314000D01*
X162066128Y-106314000D01*
X162329109Y-106243534D01*
X162564891Y-106107406D01*
X162757406Y-105914891D01*
X162893534Y-105679109D01*
X162964000Y-105416128D01*
X162964000Y-105143872D01*
X162893534Y-104880891D01*
X162757406Y-104645109D01*
X162694000Y-104581704D01*
X162694000Y-100274756D01*
X162693999Y-100274750D01*
X162693999Y-100214786D01*
X162675312Y-100157275D01*
X162665850Y-100097532D01*
X162638391Y-100043642D01*
X162619703Y-99986125D01*
X162584155Y-99937197D01*
X162556697Y-99883310D01*
X162386343Y-99712955D01*
X162386339Y-99712953D01*
X162192047Y-99518661D01*
X162192045Y-99518657D01*
X162021690Y-99348303D01*
X161967801Y-99320844D01*
X161918873Y-99285296D01*
X161861359Y-99266610D01*
X161807468Y-99239150D01*
X161747726Y-99229688D01*
X161690213Y-99211001D01*
X161630250Y-99211001D01*
X161630244Y-99211000D01*
X141869756Y-99211000D01*
X141869750Y-99211001D01*
X141809786Y-99211001D01*
X141752274Y-99229688D01*
X141692532Y-99239150D01*
X141638641Y-99266610D01*
X141581127Y-99285296D01*
X141532199Y-99320844D01*
X141478310Y-99348303D01*
X141307955Y-99518657D01*
X141307954Y-99518659D01*
X141198302Y-99628310D01*
X141187912Y-99648702D01*
X140918303Y-99918310D01*
X140890849Y-99972194D01*
X140855297Y-100021125D01*
X140836608Y-100078645D01*
X140809151Y-100132533D01*
X140799690Y-100192268D01*
X140781001Y-100249787D01*
X140781001Y-100650866D01*
X140614721Y-100767297D01*
X140437297Y-100944721D01*
X140293376Y-101150261D01*
X140270000Y-101200391D01*
X140246624Y-101150261D01*
X140102703Y-100944721D01*
X139925279Y-100767297D01*
X139719739Y-100623376D01*
X139492330Y-100517333D01*
X139249962Y-100452391D01*
X139062606Y-100436000D01*
X138937394Y-100436000D01*
X138750038Y-100452391D01*
X138507670Y-100517333D01*
X138280261Y-100623376D01*
X138074721Y-100767297D01*
X137897297Y-100944721D01*
X137753376Y-101150261D01*
X137730000Y-101200391D01*
X137706624Y-101150261D01*
X137562703Y-100944721D01*
X137385279Y-100767297D01*
X137179739Y-100623376D01*
X136952330Y-100517333D01*
X136709962Y-100452391D01*
X136522606Y-100436000D01*
X136397394Y-100436000D01*
X136210038Y-100452391D01*
X135967670Y-100517333D01*
X135740261Y-100623376D01*
X135534721Y-100767297D01*
X135357297Y-100944721D01*
X135213376Y-101150261D01*
X135190000Y-101200391D01*
X135166624Y-101150261D01*
X135022703Y-100944721D01*
X134845279Y-100767297D01*
X134639739Y-100623376D01*
X134412330Y-100517333D01*
X134169962Y-100452391D01*
X133982606Y-100436000D01*
X133857394Y-100436000D01*
X133670038Y-100452391D01*
X133427670Y-100517333D01*
X133200261Y-100623376D01*
X132994721Y-100767297D01*
X132817297Y-100944721D01*
X132673376Y-101150261D01*
X132650000Y-101200391D01*
X132626624Y-101150261D01*
X132482703Y-100944721D01*
X132305279Y-100767297D01*
X132099739Y-100623376D01*
X131872330Y-100517333D01*
X131629962Y-100452391D01*
X131442606Y-100436000D01*
X131317394Y-100436000D01*
X131130038Y-100452391D01*
X130887670Y-100517333D01*
X130660261Y-100623376D01*
X130454721Y-100767297D01*
X130277297Y-100944721D01*
X130133376Y-101150261D01*
X130110000Y-101200391D01*
X130086624Y-101150261D01*
X129942703Y-100944721D01*
X129765279Y-100767297D01*
X129559739Y-100623376D01*
X129332330Y-100517333D01*
X129089962Y-100452391D01*
X128902606Y-100436000D01*
X128777394Y-100436000D01*
X128590038Y-100452391D01*
X128347670Y-100517333D01*
X128120261Y-100623376D01*
X127914721Y-100767297D01*
X127737297Y-100944721D01*
X127593376Y-101150261D01*
X127570000Y-101200391D01*
X127546624Y-101150261D01*
X127402703Y-100944721D01*
X127225279Y-100767297D01*
X127019739Y-100623376D01*
X126792330Y-100517333D01*
X126549962Y-100452391D01*
X126362606Y-100436000D01*
X126237394Y-100436000D01*
X126050038Y-100452391D01*
X125807670Y-100517333D01*
X125580261Y-100623376D01*
X125374721Y-100767297D01*
X125197297Y-100944721D01*
X125053376Y-101150261D01*
X125030000Y-101200391D01*
X125006624Y-101150261D01*
X124862703Y-100944721D01*
X124685279Y-100767297D01*
X124479739Y-100623376D01*
X124252330Y-100517333D01*
X124009962Y-100452391D01*
X123822606Y-100436000D01*
X123697394Y-100436000D01*
X123510038Y-100452391D01*
X123267670Y-100517333D01*
X123040261Y-100623376D01*
X122834721Y-100767297D01*
X122657297Y-100944721D01*
X122513376Y-101150261D01*
X122407333Y-101377670D01*
X122342391Y-101620038D01*
X122320523Y-101870000D01*
X114584824Y-101870000D01*
X114560826Y-86630000D01*
X122320523Y-86630000D01*
X122342391Y-86879962D01*
X122407333Y-87122330D01*
X122513376Y-87349739D01*
X122657297Y-87555279D01*
X122834721Y-87732703D01*
X123040261Y-87876624D01*
X123267670Y-87982667D01*
X123510038Y-88047609D01*
X123697394Y-88064000D01*
X123822606Y-88064000D01*
X124009962Y-88047609D01*
X124252330Y-87982667D01*
X124479739Y-87876624D01*
X124685279Y-87732703D01*
X124862703Y-87555279D01*
X125006624Y-87349739D01*
X125030000Y-87299609D01*
X125053376Y-87349739D01*
X125197297Y-87555279D01*
X125374721Y-87732703D01*
X125580261Y-87876624D01*
X125807670Y-87982667D01*
X126050038Y-88047609D01*
X126237394Y-88064000D01*
X126362606Y-88064000D01*
X126549962Y-88047609D01*
X126792330Y-87982667D01*
X127019739Y-87876624D01*
X127225279Y-87732703D01*
X127402703Y-87555279D01*
X127546624Y-87349739D01*
X127570000Y-87299609D01*
X127593376Y-87349739D01*
X127737297Y-87555279D01*
X127914721Y-87732703D01*
X128120261Y-87876624D01*
X128347670Y-87982667D01*
X128590038Y-88047609D01*
X128777394Y-88064000D01*
X128902606Y-88064000D01*
X129089962Y-88047609D01*
X129332330Y-87982667D01*
X129559739Y-87876624D01*
X129765279Y-87732703D01*
X129942703Y-87555279D01*
X130086624Y-87349739D01*
X130110000Y-87299609D01*
X130133376Y-87349739D01*
X130277297Y-87555279D01*
X130454721Y-87732703D01*
X130660261Y-87876624D01*
X130887670Y-87982667D01*
X131130038Y-88047609D01*
X131317394Y-88064000D01*
X131442606Y-88064000D01*
X131629962Y-88047609D01*
X131872330Y-87982667D01*
X132099739Y-87876624D01*
X132305279Y-87732703D01*
X132482703Y-87555279D01*
X132626624Y-87349739D01*
X132650000Y-87299609D01*
X132673376Y-87349739D01*
X132817297Y-87555279D01*
X132994721Y-87732703D01*
X133200261Y-87876624D01*
X133427670Y-87982667D01*
X133670038Y-88047609D01*
X133857394Y-88064000D01*
X133982606Y-88064000D01*
X134169962Y-88047609D01*
X134412330Y-87982667D01*
X134639739Y-87876624D01*
X134845279Y-87732703D01*
X135022703Y-87555279D01*
X135166624Y-87349739D01*
X135190000Y-87299609D01*
X135213376Y-87349739D01*
X135357297Y-87555279D01*
X135534721Y-87732703D01*
X135740261Y-87876624D01*
X135967670Y-87982667D01*
X136210038Y-88047609D01*
X136397394Y-88064000D01*
X136522606Y-88064000D01*
X136709962Y-88047609D01*
X136952330Y-87982667D01*
X137179739Y-87876624D01*
X137385279Y-87732703D01*
X137562703Y-87555279D01*
X137706624Y-87349739D01*
X137730000Y-87299609D01*
X137753376Y-87349739D01*
X137897297Y-87555279D01*
X138074721Y-87732703D01*
X138280261Y-87876624D01*
X138507670Y-87982667D01*
X138750038Y-88047609D01*
X138937394Y-88064000D01*
X139062606Y-88064000D01*
X139249962Y-88047609D01*
X139492330Y-87982667D01*
X139719739Y-87876624D01*
X139925279Y-87732703D01*
X140102703Y-87555279D01*
X140246624Y-87349739D01*
X140270000Y-87299609D01*
X140293376Y-87349739D01*
X140437297Y-87555279D01*
X140614721Y-87732703D01*
X140820261Y-87876624D01*
X141047670Y-87982667D01*
X141290038Y-88047609D01*
X141477394Y-88064000D01*
X141602606Y-88064000D01*
X141789962Y-88047609D01*
X142032330Y-87982667D01*
X142259739Y-87876624D01*
X142465279Y-87732703D01*
X142642703Y-87555279D01*
X142786624Y-87349739D01*
X142810000Y-87299609D01*
X142833376Y-87349739D01*
X142977297Y-87555279D01*
X143154721Y-87732703D01*
X143360261Y-87876624D01*
X143587670Y-87982667D01*
X143830038Y-88047609D01*
X144017394Y-88064000D01*
X144142606Y-88064000D01*
X144329962Y-88047609D01*
X144572330Y-87982667D01*
X144799739Y-87876624D01*
X145005279Y-87732703D01*
X145182703Y-87555279D01*
X145326624Y-87349739D01*
X145350000Y-87299609D01*
X145373376Y-87349739D01*
X145517297Y-87555279D01*
X145694721Y-87732703D01*
X145900261Y-87876624D01*
X146127670Y-87982667D01*
X146370038Y-88047609D01*
X146557394Y-88064000D01*
X146682606Y-88064000D01*
X146869962Y-88047609D01*
X147112330Y-87982667D01*
X147339739Y-87876624D01*
X147545279Y-87732703D01*
X147722703Y-87555279D01*
X147866624Y-87349739D01*
X147890000Y-87299609D01*
X147913376Y-87349739D01*
X148057297Y-87555279D01*
X148234721Y-87732703D01*
X148440261Y-87876624D01*
X148667670Y-87982667D01*
X148910038Y-88047609D01*
X149097394Y-88064000D01*
X149222606Y-88064000D01*
X149409962Y-88047609D01*
X149652330Y-87982667D01*
X149879739Y-87876624D01*
X150085279Y-87732703D01*
X150262703Y-87555279D01*
X150406624Y-87349739D01*
X150430000Y-87299609D01*
X150453376Y-87349739D01*
X150597297Y-87555279D01*
X150774721Y-87732703D01*
X150980261Y-87876624D01*
X151207670Y-87982667D01*
X151450038Y-88047609D01*
X151637394Y-88064000D01*
X151762606Y-88064000D01*
X151949962Y-88047609D01*
X152192330Y-87982667D01*
X152419739Y-87876624D01*
X152625279Y-87732703D01*
X152802703Y-87555279D01*
X152946624Y-87349739D01*
X152970000Y-87299609D01*
X152993376Y-87349739D01*
X153137297Y-87555279D01*
X153314721Y-87732703D01*
X153520261Y-87876624D01*
X153747670Y-87982667D01*
X153990038Y-88047609D01*
X154177394Y-88064000D01*
X154302606Y-88064000D01*
X154489962Y-88047609D01*
X154732330Y-87982667D01*
X154959739Y-87876624D01*
X155165279Y-87732703D01*
X155342703Y-87555279D01*
X155486624Y-87349739D01*
X155510000Y-87299609D01*
X155533376Y-87349739D01*
X155677297Y-87555279D01*
X155854721Y-87732703D01*
X156060261Y-87876624D01*
X156287670Y-87982667D01*
X156530038Y-88047609D01*
X156717394Y-88064000D01*
X156842606Y-88064000D01*
X157029962Y-88047609D01*
X157272330Y-87982667D01*
X157499739Y-87876624D01*
X157705279Y-87732703D01*
X157882703Y-87555279D01*
X157900483Y-87529887D01*
X157958795Y-87747512D01*
X158106185Y-87923165D01*
X158299814Y-88034956D01*
X158508976Y-88071837D01*
X160136588Y-88071837D01*
X160437512Y-87991205D01*
X160613165Y-87843815D01*
X160724956Y-87650186D01*
X160761837Y-87441024D01*
X160761837Y-85813412D01*
X160681205Y-85512489D01*
X160533815Y-85336835D01*
X160340186Y-85225044D01*
X160131024Y-85188163D01*
X158503412Y-85188163D01*
X158202489Y-85268795D01*
X158026835Y-85416185D01*
X157915044Y-85609814D01*
X157895170Y-85722525D01*
X157882703Y-85704721D01*
X157705279Y-85527297D01*
X157499739Y-85383376D01*
X157272330Y-85277333D01*
X157029962Y-85212391D01*
X156842606Y-85196000D01*
X156717394Y-85196000D01*
X156530038Y-85212391D01*
X156287670Y-85277333D01*
X156060261Y-85383376D01*
X155854721Y-85527297D01*
X155677297Y-85704721D01*
X155533376Y-85910261D01*
X155510000Y-85960391D01*
X155486624Y-85910261D01*
X155342703Y-85704721D01*
X155165279Y-85527297D01*
X154959739Y-85383376D01*
X154732330Y-85277333D01*
X154489962Y-85212391D01*
X154302606Y-85196000D01*
X154177394Y-85196000D01*
X153990038Y-85212391D01*
X153747670Y-85277333D01*
X153520261Y-85383376D01*
X153314721Y-85527297D01*
X153137297Y-85704721D01*
X152993376Y-85910261D01*
X152970000Y-85960391D01*
X152946624Y-85910261D01*
X152802703Y-85704721D01*
X152625279Y-85527297D01*
X152419739Y-85383376D01*
X152192330Y-85277333D01*
X151949962Y-85212391D01*
X151762606Y-85196000D01*
X151637394Y-85196000D01*
X151450038Y-85212391D01*
X151207670Y-85277333D01*
X150980261Y-85383376D01*
X150774721Y-85527297D01*
X150597297Y-85704721D01*
X150453376Y-85910261D01*
X150430000Y-85960391D01*
X150406624Y-85910261D01*
X150262703Y-85704721D01*
X150085279Y-85527297D01*
X149879739Y-85383376D01*
X149652330Y-85277333D01*
X149409962Y-85212391D01*
X149222606Y-85196000D01*
X149097394Y-85196000D01*
X148910038Y-85212391D01*
X148667670Y-85277333D01*
X148440261Y-85383376D01*
X148234721Y-85527297D01*
X148057297Y-85704721D01*
X147913376Y-85910261D01*
X147890000Y-85960391D01*
X147866624Y-85910261D01*
X147722703Y-85704721D01*
X147545279Y-85527297D01*
X147339739Y-85383376D01*
X147112330Y-85277333D01*
X146869962Y-85212391D01*
X146682606Y-85196000D01*
X146557394Y-85196000D01*
X146370038Y-85212391D01*
X146127670Y-85277333D01*
X145900261Y-85383376D01*
X145694721Y-85527297D01*
X145517297Y-85704721D01*
X145373376Y-85910261D01*
X145350000Y-85960391D01*
X145326624Y-85910261D01*
X145182703Y-85704721D01*
X145005279Y-85527297D01*
X144799739Y-85383376D01*
X144572330Y-85277333D01*
X144329962Y-85212391D01*
X144142606Y-85196000D01*
X144017394Y-85196000D01*
X143830038Y-85212391D01*
X143587670Y-85277333D01*
X143360261Y-85383376D01*
X143154721Y-85527297D01*
X142977297Y-85704721D01*
X142833376Y-85910261D01*
X142810000Y-85960391D01*
X142786624Y-85910261D01*
X142642703Y-85704721D01*
X142465279Y-85527297D01*
X142259739Y-85383376D01*
X142032330Y-85277333D01*
X141789962Y-85212391D01*
X141602606Y-85196000D01*
X141477394Y-85196000D01*
X141290038Y-85212391D01*
X141047670Y-85277333D01*
X140820261Y-85383376D01*
X140614721Y-85527297D01*
X140437297Y-85704721D01*
X140293376Y-85910261D01*
X140270000Y-85960391D01*
X140246624Y-85910261D01*
X140102703Y-85704721D01*
X139925279Y-85527297D01*
X139719739Y-85383376D01*
X139492330Y-85277333D01*
X139249962Y-85212391D01*
X139062606Y-85196000D01*
X138937394Y-85196000D01*
X138750038Y-85212391D01*
X138507670Y-85277333D01*
X138280261Y-85383376D01*
X138074721Y-85527297D01*
X137897297Y-85704721D01*
X137753376Y-85910261D01*
X137730000Y-85960391D01*
X137706624Y-85910261D01*
X137562703Y-85704721D01*
X137385279Y-85527297D01*
X137179739Y-85383376D01*
X136952330Y-85277333D01*
X136709962Y-85212391D01*
X136522606Y-85196000D01*
X136397394Y-85196000D01*
X136210038Y-85212391D01*
X135967670Y-85277333D01*
X135740261Y-85383376D01*
X135534721Y-85527297D01*
X135357297Y-85704721D01*
X135213376Y-85910261D01*
X135190000Y-85960391D01*
X135166624Y-85910261D01*
X135022703Y-85704721D01*
X134845279Y-85527297D01*
X134639739Y-85383376D01*
X134412330Y-85277333D01*
X134169962Y-85212391D01*
X133982606Y-85196000D01*
X133857394Y-85196000D01*
X133670038Y-85212391D01*
X133427670Y-85277333D01*
X133200261Y-85383376D01*
X132994721Y-85527297D01*
X132817297Y-85704721D01*
X132673376Y-85910261D01*
X132650000Y-85960391D01*
X132626624Y-85910261D01*
X132482703Y-85704721D01*
X132305279Y-85527297D01*
X132099739Y-85383376D01*
X131872330Y-85277333D01*
X131629962Y-85212391D01*
X131442606Y-85196000D01*
X131317394Y-85196000D01*
X131130038Y-85212391D01*
X130887670Y-85277333D01*
X130660261Y-85383376D01*
X130454721Y-85527297D01*
X130277297Y-85704721D01*
X130133376Y-85910261D01*
X130110000Y-85960391D01*
X130086624Y-85910261D01*
X129942703Y-85704721D01*
X129765279Y-85527297D01*
X129559739Y-85383376D01*
X129332330Y-85277333D01*
X129089962Y-85212391D01*
X128902606Y-85196000D01*
X128777394Y-85196000D01*
X128590038Y-85212391D01*
X128347670Y-85277333D01*
X128120261Y-85383376D01*
X127914721Y-85527297D01*
X127737297Y-85704721D01*
X127593376Y-85910261D01*
X127570000Y-85960391D01*
X127546624Y-85910261D01*
X127402703Y-85704721D01*
X127225279Y-85527297D01*
X127019739Y-85383376D01*
X126792330Y-85277333D01*
X126549962Y-85212391D01*
X126362606Y-85196000D01*
X126237394Y-85196000D01*
X126050038Y-85212391D01*
X125807670Y-85277333D01*
X125580261Y-85383376D01*
X125374721Y-85527297D01*
X125197297Y-85704721D01*
X125053376Y-85910261D01*
X125030000Y-85960391D01*
X125006624Y-85910261D01*
X124862703Y-85704721D01*
X124685279Y-85527297D01*
X124479739Y-85383376D01*
X124252330Y-85277333D01*
X124009962Y-85212391D01*
X123822606Y-85196000D01*
X123697394Y-85196000D01*
X123510038Y-85212391D01*
X123267670Y-85277333D01*
X123040261Y-85383376D01*
X122834721Y-85527297D01*
X122657297Y-85704721D01*
X122513376Y-85910261D01*
X122407333Y-86137670D01*
X122342391Y-86380038D01*
X122320523Y-86630000D01*
X114560826Y-86630000D01*
X114552934Y-81618898D01*
X116154496Y-81618898D01*
X116192672Y-81921098D01*
X116271510Y-82215321D01*
X116389547Y-82496122D01*
X116544602Y-82758307D01*
X116733805Y-82997021D01*
X116953655Y-83207849D01*
X117200083Y-83386890D01*
X117468530Y-83530830D01*
X117754028Y-83637006D01*
X118051294Y-83703452D01*
X118354828Y-83728941D01*
X118659012Y-83713000D01*
X118958220Y-83655923D01*
X119246911Y-83558767D01*
X119519747Y-83423330D01*
X119771678Y-83252119D01*
X119998041Y-83048300D01*
X120194649Y-82815646D01*
X120357863Y-82558463D01*
X120484663Y-82281507D01*
X120572702Y-81989906D01*
X120620456Y-81688399D01*
X120624122Y-81338356D01*
X120582692Y-81035916D01*
X120500780Y-80742534D01*
X120379808Y-80462984D01*
X120222015Y-80202438D01*
X120030323Y-79965718D01*
X119808277Y-79757204D01*
X119559988Y-79580753D01*
X119290049Y-79439633D01*
X119003454Y-79336452D01*
X118705509Y-79273121D01*
X118401724Y-79250813D01*
X118097723Y-79269939D01*
X117799131Y-79330147D01*
X117511472Y-79430319D01*
X117240070Y-79568606D01*
X116989946Y-79742446D01*
X116765729Y-79948624D01*
X116571568Y-80183324D01*
X116411057Y-80442203D01*
X116287163Y-80720471D01*
X116202183Y-81012979D01*
X116157685Y-81314313D01*
X116154496Y-81618898D01*
X114552934Y-81618898D01*
X114546346Y-77435376D01*
X136764563Y-77435376D01*
X136764563Y-79190188D01*
X136845195Y-79491112D01*
X136992585Y-79666765D01*
X137186214Y-79778556D01*
X137395376Y-79815437D01*
X139150188Y-79815437D01*
X139451112Y-79734805D01*
X139626765Y-79587415D01*
X139738556Y-79393786D01*
X139743459Y-79365982D01*
X139762153Y-79387525D01*
X139958684Y-79548671D01*
X140179558Y-79674400D01*
X140421275Y-79762139D01*
X140764271Y-79807600D01*
X140873780Y-79807600D01*
X141063242Y-79791524D01*
X141309242Y-79727675D01*
X141540967Y-79623290D01*
X141751793Y-79481355D01*
X141935690Y-79305926D01*
X142082670Y-79108375D01*
X142135581Y-79195570D01*
X142302153Y-79387525D01*
X142498684Y-79548671D01*
X142719558Y-79674400D01*
X142961275Y-79762139D01*
X143222000Y-79796696D01*
X143222000Y-78182000D01*
X143478000Y-78182000D01*
X143478000Y-79824030D01*
X143849242Y-79727675D01*
X144080967Y-79623290D01*
X144291793Y-79481355D01*
X144475690Y-79305926D01*
X144622670Y-79108375D01*
X144675581Y-79195570D01*
X144842153Y-79387525D01*
X145038684Y-79548671D01*
X145259558Y-79674400D01*
X145501275Y-79762139D01*
X145844271Y-79807600D01*
X145953780Y-79807600D01*
X146143242Y-79791524D01*
X146389242Y-79727675D01*
X146620967Y-79623290D01*
X146831793Y-79481355D01*
X147015690Y-79305926D01*
X147162670Y-79108375D01*
X147215581Y-79195570D01*
X147382153Y-79387525D01*
X147546000Y-79521872D01*
X147546001Y-80573849D01*
X147426466Y-80780891D01*
X147356000Y-81043872D01*
X147356000Y-81316128D01*
X147426466Y-81579109D01*
X147562594Y-81814891D01*
X147755109Y-82007406D01*
X147990891Y-82143534D01*
X148253872Y-82214000D01*
X148526128Y-82214000D01*
X148789109Y-82143534D01*
X149024891Y-82007406D01*
X149217406Y-81814891D01*
X149353534Y-81579109D01*
X149424000Y-81316128D01*
X149424000Y-81043872D01*
X149353534Y-80780891D01*
X149314000Y-80712416D01*
X149314000Y-79520263D01*
X149371793Y-79481354D01*
X149555690Y-79305926D01*
X149702670Y-79108375D01*
X149755581Y-79195570D01*
X149922153Y-79387525D01*
X150118684Y-79548671D01*
X150235631Y-79615241D01*
X150239151Y-79637467D01*
X150266608Y-79691355D01*
X150285297Y-79748875D01*
X150320849Y-79797806D01*
X150348303Y-79851690D01*
X150398082Y-79901468D01*
X151062937Y-80566324D01*
X151146918Y-80650481D01*
X151201129Y-80678175D01*
X151250380Y-80713958D01*
X151307526Y-80732526D01*
X151361028Y-80759857D01*
X151421144Y-80769442D01*
X151479041Y-80788254D01*
X151598596Y-80788254D01*
X161592513Y-80798659D01*
X161670646Y-80881387D01*
X161662872Y-87487619D01*
X161662732Y-87488051D01*
X161662732Y-87607049D01*
X161662661Y-87667118D01*
X161662732Y-87667569D01*
X161662732Y-87728482D01*
X161681281Y-87785569D01*
X161690603Y-87844876D01*
X161718200Y-87899196D01*
X161737028Y-87957143D01*
X161772315Y-88005712D01*
X161799503Y-88059227D01*
X161842479Y-88102303D01*
X161842743Y-88102668D01*
X161884854Y-88144778D01*
X161969335Y-88229459D01*
X161969741Y-88229666D01*
X162395875Y-88655801D01*
X162551772Y-88811698D01*
X162605658Y-88839154D01*
X162654587Y-88874703D01*
X162712104Y-88893391D01*
X162765994Y-88920850D01*
X162825737Y-88930312D01*
X162883248Y-88948999D01*
X162943212Y-88948999D01*
X162943218Y-88949000D01*
X163516704Y-88949000D01*
X163585109Y-89017406D01*
X163820891Y-89153534D01*
X164083872Y-89224000D01*
X164356128Y-89224000D01*
X164619109Y-89153534D01*
X164854891Y-89017406D01*
X165047406Y-88824891D01*
X165183534Y-88589109D01*
X165254000Y-88326128D01*
X165254000Y-88053872D01*
X165183534Y-87790891D01*
X165047406Y-87555109D01*
X164854891Y-87362594D01*
X164619109Y-87226466D01*
X164356128Y-87156000D01*
X164083872Y-87156000D01*
X163820891Y-87226466D01*
X163585109Y-87362594D01*
X163516704Y-87431000D01*
X163317849Y-87431000D01*
X163181101Y-87294252D01*
X163187519Y-81838898D01*
X173674496Y-81838898D01*
X173712672Y-82141098D01*
X173791510Y-82435321D01*
X173909547Y-82716122D01*
X174064602Y-82978307D01*
X174253805Y-83217021D01*
X174473655Y-83427849D01*
X174720083Y-83606890D01*
X174988530Y-83750830D01*
X175274028Y-83857006D01*
X175571294Y-83923452D01*
X175874828Y-83948941D01*
X176179012Y-83933000D01*
X176478220Y-83875923D01*
X176766911Y-83778767D01*
X177039747Y-83643330D01*
X177291678Y-83472119D01*
X177518041Y-83268300D01*
X177714649Y-83035646D01*
X177877863Y-82778463D01*
X178004663Y-82501507D01*
X178092702Y-82209906D01*
X178140456Y-81908399D01*
X178144122Y-81558356D01*
X178102692Y-81255916D01*
X178020780Y-80962534D01*
X177899808Y-80682984D01*
X177742015Y-80422438D01*
X177550323Y-80185718D01*
X177328277Y-79977204D01*
X177079988Y-79800753D01*
X176810049Y-79659633D01*
X176523454Y-79556452D01*
X176225509Y-79493121D01*
X175921724Y-79470813D01*
X175617723Y-79489939D01*
X175319131Y-79550147D01*
X175031472Y-79650319D01*
X174760070Y-79788606D01*
X174509946Y-79962446D01*
X174285729Y-80168624D01*
X174091568Y-80403324D01*
X173931057Y-80662203D01*
X173807163Y-80940471D01*
X173722183Y-81232979D01*
X173677685Y-81534313D01*
X173674496Y-81838898D01*
X163187519Y-81838898D01*
X163188987Y-80591274D01*
X163192123Y-80481512D01*
X163172142Y-80413466D01*
X163161128Y-80343393D01*
X163138478Y-80298811D01*
X163124388Y-80250823D01*
X163084350Y-80192269D01*
X163052228Y-80129042D01*
X162974703Y-80051335D01*
X162547007Y-79598481D01*
X162542167Y-79588957D01*
X162464618Y-79511246D01*
X162430790Y-79475429D01*
X162422481Y-79469021D01*
X162372337Y-79418773D01*
X162327847Y-79396046D01*
X162288287Y-79365540D01*
X162221440Y-79341690D01*
X162158227Y-79309398D01*
X162108896Y-79301533D01*
X162061841Y-79284743D01*
X161990891Y-79282716D01*
X161980527Y-79281063D01*
X161931246Y-79281012D01*
X161821514Y-79277878D01*
X161811264Y-79280887D01*
X154659859Y-79273441D01*
X154787398Y-79102021D01*
X154902583Y-78875470D01*
X154977950Y-78632750D01*
X155011343Y-78380802D01*
X155001808Y-78126829D01*
X154949618Y-77878094D01*
X154856265Y-77641708D01*
X154724419Y-77424430D01*
X154557847Y-77232475D01*
X154361316Y-77071329D01*
X154305731Y-77039688D01*
X154451793Y-76941355D01*
X154635690Y-76765926D01*
X154787398Y-76562021D01*
X154902583Y-76335470D01*
X154977950Y-76092750D01*
X155011343Y-75840802D01*
X155001808Y-75586829D01*
X154949618Y-75338094D01*
X154856265Y-75101708D01*
X154724419Y-74884430D01*
X154557847Y-74692475D01*
X154361316Y-74531329D01*
X154140442Y-74405600D01*
X153898725Y-74317861D01*
X153555729Y-74272400D01*
X153446220Y-74272400D01*
X153256758Y-74288476D01*
X153010758Y-74352325D01*
X152779033Y-74456710D01*
X152568207Y-74598645D01*
X152384310Y-74774074D01*
X152237330Y-74971625D01*
X152184419Y-74884430D01*
X152017847Y-74692475D01*
X151821316Y-74531329D01*
X151600442Y-74405600D01*
X151358725Y-74317861D01*
X151015729Y-74272400D01*
X150906220Y-74272400D01*
X150716758Y-74288476D01*
X150470758Y-74352325D01*
X150239033Y-74456710D01*
X150028207Y-74598645D01*
X149844310Y-74774074D01*
X149697330Y-74971625D01*
X149644419Y-74884430D01*
X149477847Y-74692475D01*
X149281316Y-74531329D01*
X149060442Y-74405600D01*
X148818725Y-74317861D01*
X148475729Y-74272400D01*
X148366220Y-74272400D01*
X148176758Y-74288476D01*
X147930758Y-74352325D01*
X147699033Y-74456710D01*
X147488207Y-74598645D01*
X147304310Y-74774074D01*
X147157330Y-74971625D01*
X147104419Y-74884430D01*
X146937847Y-74692475D01*
X146741316Y-74531329D01*
X146520442Y-74405600D01*
X146278725Y-74317861D01*
X145935729Y-74272400D01*
X145826220Y-74272400D01*
X145636758Y-74288476D01*
X145390758Y-74352325D01*
X145159033Y-74456710D01*
X144948207Y-74598645D01*
X144764310Y-74774074D01*
X144617330Y-74971625D01*
X144564419Y-74884430D01*
X144397847Y-74692475D01*
X144201316Y-74531329D01*
X143980442Y-74405600D01*
X143738725Y-74317861D01*
X143478000Y-74283304D01*
X143478000Y-75898000D01*
X143222000Y-75898000D01*
X143222000Y-74255970D01*
X142850758Y-74352325D01*
X142619033Y-74456710D01*
X142408207Y-74598645D01*
X142224310Y-74774074D01*
X142077330Y-74971625D01*
X142024419Y-74884430D01*
X141857847Y-74692475D01*
X141661316Y-74531329D01*
X141440442Y-74405600D01*
X141198725Y-74317861D01*
X140855729Y-74272400D01*
X140746220Y-74272400D01*
X140556758Y-74288476D01*
X140310758Y-74352325D01*
X140079033Y-74456710D01*
X139868207Y-74598645D01*
X139684310Y-74774074D01*
X139537330Y-74971625D01*
X139484419Y-74884430D01*
X139317847Y-74692475D01*
X139121316Y-74531329D01*
X138900442Y-74405600D01*
X138658725Y-74317861D01*
X138315729Y-74272400D01*
X138206220Y-74272400D01*
X138016758Y-74288476D01*
X137770758Y-74352325D01*
X137539033Y-74456710D01*
X137328207Y-74598645D01*
X137144310Y-74774074D01*
X136992602Y-74977979D01*
X136877417Y-75204530D01*
X136802050Y-75447250D01*
X136768657Y-75699198D01*
X136778192Y-75953171D01*
X136830382Y-76201906D01*
X136923735Y-76438292D01*
X137055581Y-76655570D01*
X137222153Y-76847525D01*
X137223957Y-76849004D01*
X137088889Y-76885195D01*
X136913235Y-77032585D01*
X136801444Y-77226214D01*
X136764563Y-77435376D01*
X114546346Y-77435376D01*
X114534999Y-70230000D01*
X179446060Y-70230000D01*
X179451941Y-132462039D01*
M02*
