G04 #@! TF.GenerationSoftware,KiCad,Pcbnew,5.99.0-unknown-c3175b4~86~ubuntu16.04.1*
G04 #@! TF.CreationDate,2019-12-02T17:53:18+01:00*
G04 #@! TF.ProjectId,IntAna,496e7441-6e61-42e6-9b69-6361645f7063,rev?*
G04 #@! TF.SameCoordinates,Original*
G04 #@! TF.FileFunction,Paste,Top*
G04 #@! TF.FilePolarity,Positive*
%FSLAX46Y46*%
G04 Gerber Fmt 4.6, Leading zero omitted, Abs format (unit mm)*
G04 Created by KiCad (PCBNEW 5.99.0-unknown-c3175b4~86~ubuntu16.04.1) date 2019-12-02 17:53:18*
%MOMM*%
%LPD*%
G04 APERTURE LIST*
%ADD10R,0.970000X1.500000*%
%ADD11R,2.060000X2.400000*%
%ADD12R,1.500000X0.970000*%
%ADD13R,2.000000X0.600000*%
%ADD14R,1.100000X0.250000*%
%ADD15R,0.900000X0.800000*%
%ADD16R,0.800000X0.900000*%
G04 APERTURE END LIST*
D10*
X138255000Y-80975000D03*
X136345000Y-80975000D03*
D11*
X145154000Y-98298000D03*
X150114000Y-98298000D03*
D12*
X156810000Y-89050000D03*
X156810000Y-90960000D03*
X159350000Y-89085000D03*
X159350000Y-90995000D03*
D13*
X173685000Y-92365000D03*
X173685000Y-93635000D03*
X173685000Y-94905000D03*
X173685000Y-96175000D03*
X168235000Y-96175000D03*
X168235000Y-94905000D03*
X168235000Y-93635000D03*
X168235000Y-92365000D03*
D14*
X160470000Y-105270000D03*
X160470000Y-105770000D03*
X160470000Y-106270000D03*
X160470000Y-106770000D03*
X160470000Y-107270000D03*
X156170000Y-107270000D03*
X156170000Y-106770000D03*
X156170000Y-106270000D03*
X156170000Y-105770000D03*
X156170000Y-105270000D03*
X138370000Y-105170000D03*
X138370000Y-105670000D03*
X138370000Y-106170000D03*
X138370000Y-106670000D03*
X138370000Y-107170000D03*
X134070000Y-107170000D03*
X134070000Y-106670000D03*
X134070000Y-106170000D03*
X134070000Y-105670000D03*
X134070000Y-105170000D03*
D12*
X154030000Y-118990000D03*
X154030000Y-117080000D03*
D10*
X165380000Y-88180000D03*
X167290000Y-88180000D03*
D12*
X130720000Y-80970000D03*
X130720000Y-79060000D03*
X124390000Y-80820000D03*
X124390000Y-78910000D03*
X144100000Y-104455000D03*
X144100000Y-106365000D03*
X141510000Y-106355000D03*
X141510000Y-104445000D03*
X119870000Y-113255000D03*
X119870000Y-111345000D03*
X124060000Y-119060000D03*
X124060000Y-117150000D03*
X130980000Y-119045000D03*
X130980000Y-117135000D03*
X137940000Y-119010000D03*
X137940000Y-117100000D03*
X144970000Y-119110000D03*
X144970000Y-117200000D03*
X128270000Y-113275000D03*
X128270000Y-111365000D03*
X135200000Y-113300000D03*
X135200000Y-111390000D03*
X142230000Y-113270000D03*
X142230000Y-111360000D03*
X149280000Y-113290000D03*
X149280000Y-111380000D03*
D10*
X156140000Y-119050000D03*
X158050000Y-119050000D03*
X161725000Y-111180000D03*
X159815000Y-111180000D03*
X169220000Y-111190000D03*
X167310000Y-111190000D03*
X172890000Y-111220000D03*
X170980000Y-111220000D03*
D12*
X124110000Y-113295000D03*
X124110000Y-111385000D03*
X130990000Y-113300000D03*
X130990000Y-111390000D03*
X138000000Y-113280000D03*
X138000000Y-111370000D03*
X145070000Y-113280000D03*
X145070000Y-111370000D03*
X160210000Y-119260000D03*
X160210000Y-117350000D03*
X163740000Y-119290000D03*
X163740000Y-117380000D03*
X167200000Y-119280000D03*
X167200000Y-117370000D03*
X170780000Y-119260000D03*
X170780000Y-117350000D03*
D10*
X125960000Y-115120000D03*
X124050000Y-115120000D03*
X132860000Y-115180000D03*
X130950000Y-115180000D03*
X139870000Y-115140000D03*
X137960000Y-115140000D03*
X146930000Y-115200000D03*
X145020000Y-115200000D03*
D12*
X128590000Y-107150000D03*
X128590000Y-105240000D03*
X151720000Y-106470000D03*
X151720000Y-104560000D03*
D10*
X128855000Y-83360000D03*
X130765000Y-83360000D03*
X126280000Y-83320000D03*
X124370000Y-83320000D03*
D15*
X160140000Y-114200000D03*
X158140000Y-115150000D03*
X158140000Y-113250000D03*
X163730000Y-114200000D03*
X161730000Y-115150000D03*
X161730000Y-113250000D03*
X167350000Y-114220000D03*
X165350000Y-115170000D03*
X165350000Y-113270000D03*
X170980000Y-114260000D03*
X168980000Y-115210000D03*
X168980000Y-113310000D03*
D16*
X120770000Y-117130000D03*
X121720000Y-119130000D03*
X119820000Y-119130000D03*
X127660000Y-117080000D03*
X128610000Y-119080000D03*
X126710000Y-119080000D03*
X134980000Y-117080000D03*
X135930000Y-119080000D03*
X134030000Y-119080000D03*
X141810000Y-116950000D03*
X142760000Y-118950000D03*
X140860000Y-118950000D03*
D12*
X173780000Y-88555000D03*
X173780000Y-90465000D03*
X163170000Y-104385000D03*
X163170000Y-106295000D03*
X131760000Y-107175000D03*
X131760000Y-105265000D03*
D10*
X127490000Y-115120000D03*
X129400000Y-115120000D03*
X134435000Y-115180000D03*
X136345000Y-115180000D03*
X141500000Y-115150000D03*
X143410000Y-115150000D03*
X148530000Y-115170000D03*
X150440000Y-115170000D03*
X156140000Y-117000000D03*
X158050000Y-117000000D03*
X156290000Y-111140000D03*
X158200000Y-111140000D03*
X163710000Y-111180000D03*
X165620000Y-111180000D03*
D12*
X172890000Y-113305000D03*
X172890000Y-115215000D03*
X126190000Y-113295000D03*
X126190000Y-111385000D03*
X133090000Y-113300000D03*
X133090000Y-111390000D03*
X140120000Y-113280000D03*
X140120000Y-111370000D03*
X147140000Y-113290000D03*
X147140000Y-111380000D03*
M02*
