G04 #@! TF.GenerationSoftware,KiCad,Pcbnew,5.99.0-unknown-c3175b4~86~ubuntu16.04.1*
G04 #@! TF.CreationDate,2019-12-02T17:53:19+01:00*
G04 #@! TF.ProjectId,IntAna,496e7441-6e61-42e6-9b69-6361645f7063,rev?*
G04 #@! TF.SameCoordinates,Original*
G04 #@! TF.FileFunction,Soldermask,Bot*
G04 #@! TF.FilePolarity,Negative*
%FSLAX46Y46*%
G04 Gerber Fmt 4.6, Leading zero omitted, Abs format (unit mm)*
G04 Created by KiCad (PCBNEW 5.99.0-unknown-c3175b4~86~ubuntu16.04.1) date 2019-12-02 17:53:19*
%MOMM*%
%LPD*%
G04 APERTURE LIST*
%ADD10C,0.100000*%
G04 APERTURE END LIST*
D10*
G36*
X170712924Y-123007838D02*
G01*
X170756667Y-123005813D01*
X170803299Y-123012574D01*
X170856239Y-123015349D01*
X170898681Y-123026404D01*
X170936254Y-123031852D01*
X170986253Y-123049215D01*
X171043200Y-123064048D01*
X171077330Y-123080842D01*
X171107682Y-123091382D01*
X171158518Y-123120791D01*
X171216551Y-123149347D01*
X171241998Y-123169086D01*
X171264762Y-123182255D01*
X171313504Y-123224551D01*
X171369210Y-123267761D01*
X171386367Y-123287778D01*
X171401819Y-123301187D01*
X171445262Y-123356493D01*
X171494940Y-123414453D01*
X171504889Y-123432401D01*
X171513919Y-123443897D01*
X171548777Y-123511577D01*
X171588605Y-123583429D01*
X171592990Y-123597422D01*
X171597008Y-123605223D01*
X171620066Y-123683822D01*
X171646380Y-123767789D01*
X171647270Y-123776552D01*
X171648091Y-123779350D01*
X171656391Y-123866346D01*
X171661000Y-123911721D01*
X171661000Y-125791678D01*
X171645138Y-125894139D01*
X171624832Y-126034189D01*
X171622600Y-126039726D01*
X171621159Y-126049037D01*
X171587520Y-126126772D01*
X171558153Y-126199641D01*
X171551585Y-126209814D01*
X171544430Y-126226347D01*
X171499209Y-126290930D01*
X171459716Y-126352093D01*
X171447300Y-126365063D01*
X171433615Y-126384607D01*
X171380583Y-126434757D01*
X171334231Y-126483177D01*
X171314819Y-126496947D01*
X171293240Y-126517353D01*
X171236152Y-126552749D01*
X171186219Y-126588169D01*
X171159247Y-126600432D01*
X171129041Y-126619161D01*
X171071458Y-126640347D01*
X171021025Y-126663278D01*
X170986558Y-126671585D01*
X170947724Y-126685873D01*
X170892820Y-126694176D01*
X170844603Y-126705797D01*
X170803359Y-126707706D01*
X170756696Y-126714763D01*
X170707076Y-126712162D01*
X170663333Y-126714187D01*
X170616701Y-126707426D01*
X170563761Y-126704651D01*
X170521319Y-126693596D01*
X170483746Y-126688148D01*
X170433747Y-126670785D01*
X170376800Y-126655952D01*
X170342670Y-126639158D01*
X170312318Y-126628618D01*
X170261481Y-126599208D01*
X170203449Y-126570653D01*
X170178004Y-126550916D01*
X170155239Y-126537746D01*
X170106493Y-126495446D01*
X170050791Y-126452239D01*
X170033634Y-126432222D01*
X170018182Y-126418813D01*
X169974739Y-126363507D01*
X169925061Y-126305547D01*
X169915112Y-126287599D01*
X169906082Y-126276103D01*
X169871224Y-126208423D01*
X169831396Y-126136571D01*
X169827011Y-126122578D01*
X169822993Y-126114777D01*
X169799935Y-126036178D01*
X169773621Y-125952211D01*
X169772731Y-125943448D01*
X169771910Y-125940650D01*
X169763601Y-125853570D01*
X169759001Y-125808279D01*
X169759001Y-125805353D01*
X169759000Y-125805343D01*
X169759000Y-123928323D01*
X169774862Y-123825862D01*
X169795168Y-123685812D01*
X169797400Y-123680274D01*
X169798841Y-123670964D01*
X169832478Y-123593233D01*
X169861848Y-123520357D01*
X169868417Y-123510183D01*
X169875570Y-123493654D01*
X169920780Y-123429088D01*
X169960282Y-123367909D01*
X169972701Y-123354936D01*
X169986385Y-123335393D01*
X170039417Y-123285243D01*
X170085769Y-123236823D01*
X170105181Y-123223053D01*
X170126760Y-123202647D01*
X170183848Y-123167251D01*
X170233781Y-123131831D01*
X170260753Y-123119568D01*
X170290959Y-123100839D01*
X170348542Y-123079653D01*
X170398975Y-123056722D01*
X170433442Y-123048415D01*
X170472276Y-123034127D01*
X170527180Y-123025824D01*
X170575397Y-123014203D01*
X170616641Y-123012294D01*
X170663304Y-123005237D01*
X170712924Y-123007838D01*
X170712924Y-123007838D01*
G37*
G36*
X167212924Y-123007838D02*
G01*
X167256667Y-123005813D01*
X167303299Y-123012574D01*
X167356239Y-123015349D01*
X167398681Y-123026404D01*
X167436254Y-123031852D01*
X167486253Y-123049215D01*
X167543200Y-123064048D01*
X167577330Y-123080842D01*
X167607682Y-123091382D01*
X167658518Y-123120791D01*
X167716551Y-123149347D01*
X167741998Y-123169086D01*
X167764762Y-123182255D01*
X167813504Y-123224551D01*
X167869210Y-123267761D01*
X167886367Y-123287778D01*
X167901819Y-123301187D01*
X167945262Y-123356493D01*
X167994940Y-123414453D01*
X168004889Y-123432401D01*
X168013919Y-123443897D01*
X168048777Y-123511577D01*
X168088605Y-123583429D01*
X168092990Y-123597422D01*
X168097008Y-123605223D01*
X168120066Y-123683822D01*
X168146380Y-123767789D01*
X168147270Y-123776552D01*
X168148091Y-123779350D01*
X168156391Y-123866346D01*
X168161000Y-123911721D01*
X168161000Y-125791678D01*
X168145138Y-125894139D01*
X168124832Y-126034189D01*
X168122600Y-126039726D01*
X168121159Y-126049037D01*
X168087520Y-126126772D01*
X168058153Y-126199641D01*
X168051585Y-126209814D01*
X168044430Y-126226347D01*
X167999209Y-126290930D01*
X167959716Y-126352093D01*
X167947300Y-126365063D01*
X167933615Y-126384607D01*
X167880583Y-126434757D01*
X167834231Y-126483177D01*
X167814819Y-126496947D01*
X167793240Y-126517353D01*
X167736152Y-126552749D01*
X167686219Y-126588169D01*
X167659247Y-126600432D01*
X167629041Y-126619161D01*
X167571458Y-126640347D01*
X167521025Y-126663278D01*
X167486558Y-126671585D01*
X167447724Y-126685873D01*
X167392820Y-126694176D01*
X167344603Y-126705797D01*
X167303359Y-126707706D01*
X167256696Y-126714763D01*
X167207076Y-126712162D01*
X167163333Y-126714187D01*
X167116701Y-126707426D01*
X167063761Y-126704651D01*
X167021319Y-126693596D01*
X166983746Y-126688148D01*
X166933747Y-126670785D01*
X166876800Y-126655952D01*
X166842670Y-126639158D01*
X166812318Y-126628618D01*
X166761481Y-126599208D01*
X166703449Y-126570653D01*
X166678004Y-126550916D01*
X166655239Y-126537746D01*
X166606493Y-126495446D01*
X166550791Y-126452239D01*
X166533634Y-126432222D01*
X166518182Y-126418813D01*
X166474739Y-126363507D01*
X166425061Y-126305547D01*
X166415112Y-126287599D01*
X166406082Y-126276103D01*
X166371224Y-126208423D01*
X166331396Y-126136571D01*
X166327011Y-126122578D01*
X166322993Y-126114777D01*
X166299935Y-126036178D01*
X166273621Y-125952211D01*
X166272731Y-125943448D01*
X166271910Y-125940650D01*
X166263601Y-125853570D01*
X166259001Y-125808279D01*
X166259001Y-125805353D01*
X166259000Y-125805343D01*
X166259000Y-123928323D01*
X166274862Y-123825862D01*
X166295168Y-123685812D01*
X166297400Y-123680274D01*
X166298841Y-123670964D01*
X166332478Y-123593233D01*
X166361848Y-123520357D01*
X166368417Y-123510183D01*
X166375570Y-123493654D01*
X166420780Y-123429088D01*
X166460282Y-123367909D01*
X166472701Y-123354936D01*
X166486385Y-123335393D01*
X166539417Y-123285243D01*
X166585769Y-123236823D01*
X166605181Y-123223053D01*
X166626760Y-123202647D01*
X166683848Y-123167251D01*
X166733781Y-123131831D01*
X166760753Y-123119568D01*
X166790959Y-123100839D01*
X166848542Y-123079653D01*
X166898975Y-123056722D01*
X166933442Y-123048415D01*
X166972276Y-123034127D01*
X167027180Y-123025824D01*
X167075397Y-123014203D01*
X167116641Y-123012294D01*
X167163304Y-123005237D01*
X167212924Y-123007838D01*
X167212924Y-123007838D01*
G37*
G36*
X163712924Y-123007838D02*
G01*
X163756667Y-123005813D01*
X163803299Y-123012574D01*
X163856239Y-123015349D01*
X163898681Y-123026404D01*
X163936254Y-123031852D01*
X163986253Y-123049215D01*
X164043200Y-123064048D01*
X164077330Y-123080842D01*
X164107682Y-123091382D01*
X164158518Y-123120791D01*
X164216551Y-123149347D01*
X164241998Y-123169086D01*
X164264762Y-123182255D01*
X164313504Y-123224551D01*
X164369210Y-123267761D01*
X164386367Y-123287778D01*
X164401819Y-123301187D01*
X164445262Y-123356493D01*
X164494940Y-123414453D01*
X164504889Y-123432401D01*
X164513919Y-123443897D01*
X164548777Y-123511577D01*
X164588605Y-123583429D01*
X164592990Y-123597422D01*
X164597008Y-123605223D01*
X164620066Y-123683822D01*
X164646380Y-123767789D01*
X164647270Y-123776552D01*
X164648091Y-123779350D01*
X164656391Y-123866346D01*
X164661000Y-123911721D01*
X164661000Y-125791678D01*
X164645138Y-125894139D01*
X164624832Y-126034189D01*
X164622600Y-126039726D01*
X164621159Y-126049037D01*
X164587520Y-126126772D01*
X164558153Y-126199641D01*
X164551585Y-126209814D01*
X164544430Y-126226347D01*
X164499209Y-126290930D01*
X164459716Y-126352093D01*
X164447300Y-126365063D01*
X164433615Y-126384607D01*
X164380583Y-126434757D01*
X164334231Y-126483177D01*
X164314819Y-126496947D01*
X164293240Y-126517353D01*
X164236152Y-126552749D01*
X164186219Y-126588169D01*
X164159247Y-126600432D01*
X164129041Y-126619161D01*
X164071458Y-126640347D01*
X164021025Y-126663278D01*
X163986558Y-126671585D01*
X163947724Y-126685873D01*
X163892820Y-126694176D01*
X163844603Y-126705797D01*
X163803359Y-126707706D01*
X163756696Y-126714763D01*
X163707076Y-126712162D01*
X163663333Y-126714187D01*
X163616701Y-126707426D01*
X163563761Y-126704651D01*
X163521319Y-126693596D01*
X163483746Y-126688148D01*
X163433747Y-126670785D01*
X163376800Y-126655952D01*
X163342670Y-126639158D01*
X163312318Y-126628618D01*
X163261481Y-126599208D01*
X163203449Y-126570653D01*
X163178004Y-126550916D01*
X163155239Y-126537746D01*
X163106493Y-126495446D01*
X163050791Y-126452239D01*
X163033634Y-126432222D01*
X163018182Y-126418813D01*
X162974739Y-126363507D01*
X162925061Y-126305547D01*
X162915112Y-126287599D01*
X162906082Y-126276103D01*
X162871224Y-126208423D01*
X162831396Y-126136571D01*
X162827011Y-126122578D01*
X162822993Y-126114777D01*
X162799935Y-126036178D01*
X162773621Y-125952211D01*
X162772731Y-125943448D01*
X162771910Y-125940650D01*
X162763601Y-125853570D01*
X162759001Y-125808279D01*
X162759001Y-125805353D01*
X162759000Y-125805343D01*
X162759000Y-123928323D01*
X162774862Y-123825862D01*
X162795168Y-123685812D01*
X162797400Y-123680274D01*
X162798841Y-123670964D01*
X162832478Y-123593233D01*
X162861848Y-123520357D01*
X162868417Y-123510183D01*
X162875570Y-123493654D01*
X162920780Y-123429088D01*
X162960282Y-123367909D01*
X162972701Y-123354936D01*
X162986385Y-123335393D01*
X163039417Y-123285243D01*
X163085769Y-123236823D01*
X163105181Y-123223053D01*
X163126760Y-123202647D01*
X163183848Y-123167251D01*
X163233781Y-123131831D01*
X163260753Y-123119568D01*
X163290959Y-123100839D01*
X163348542Y-123079653D01*
X163398975Y-123056722D01*
X163433442Y-123048415D01*
X163472276Y-123034127D01*
X163527180Y-123025824D01*
X163575397Y-123014203D01*
X163616641Y-123012294D01*
X163663304Y-123005237D01*
X163712924Y-123007838D01*
X163712924Y-123007838D01*
G37*
G36*
X160212924Y-123007838D02*
G01*
X160256667Y-123005813D01*
X160303299Y-123012574D01*
X160356239Y-123015349D01*
X160398681Y-123026404D01*
X160436254Y-123031852D01*
X160486253Y-123049215D01*
X160543200Y-123064048D01*
X160577330Y-123080842D01*
X160607682Y-123091382D01*
X160658518Y-123120791D01*
X160716551Y-123149347D01*
X160741998Y-123169086D01*
X160764762Y-123182255D01*
X160813504Y-123224551D01*
X160869210Y-123267761D01*
X160886367Y-123287778D01*
X160901819Y-123301187D01*
X160945262Y-123356493D01*
X160994940Y-123414453D01*
X161004889Y-123432401D01*
X161013919Y-123443897D01*
X161048777Y-123511577D01*
X161088605Y-123583429D01*
X161092990Y-123597422D01*
X161097008Y-123605223D01*
X161120066Y-123683822D01*
X161146380Y-123767789D01*
X161147270Y-123776552D01*
X161148091Y-123779350D01*
X161156391Y-123866346D01*
X161161000Y-123911721D01*
X161161000Y-125791678D01*
X161145138Y-125894139D01*
X161124832Y-126034189D01*
X161122600Y-126039726D01*
X161121159Y-126049037D01*
X161087520Y-126126772D01*
X161058153Y-126199641D01*
X161051585Y-126209814D01*
X161044430Y-126226347D01*
X160999209Y-126290930D01*
X160959716Y-126352093D01*
X160947300Y-126365063D01*
X160933615Y-126384607D01*
X160880583Y-126434757D01*
X160834231Y-126483177D01*
X160814819Y-126496947D01*
X160793240Y-126517353D01*
X160736152Y-126552749D01*
X160686219Y-126588169D01*
X160659247Y-126600432D01*
X160629041Y-126619161D01*
X160571458Y-126640347D01*
X160521025Y-126663278D01*
X160486558Y-126671585D01*
X160447724Y-126685873D01*
X160392820Y-126694176D01*
X160344603Y-126705797D01*
X160303359Y-126707706D01*
X160256696Y-126714763D01*
X160207076Y-126712162D01*
X160163333Y-126714187D01*
X160116701Y-126707426D01*
X160063761Y-126704651D01*
X160021319Y-126693596D01*
X159983746Y-126688148D01*
X159933747Y-126670785D01*
X159876800Y-126655952D01*
X159842670Y-126639158D01*
X159812318Y-126628618D01*
X159761481Y-126599208D01*
X159703449Y-126570653D01*
X159678004Y-126550916D01*
X159655239Y-126537746D01*
X159606493Y-126495446D01*
X159550791Y-126452239D01*
X159533634Y-126432222D01*
X159518182Y-126418813D01*
X159474739Y-126363507D01*
X159425061Y-126305547D01*
X159415112Y-126287599D01*
X159406082Y-126276103D01*
X159371224Y-126208423D01*
X159331396Y-126136571D01*
X159327011Y-126122578D01*
X159322993Y-126114777D01*
X159299935Y-126036178D01*
X159273621Y-125952211D01*
X159272731Y-125943448D01*
X159271910Y-125940650D01*
X159263601Y-125853570D01*
X159259001Y-125808279D01*
X159259001Y-125805353D01*
X159259000Y-125805343D01*
X159259000Y-123928323D01*
X159274862Y-123825862D01*
X159295168Y-123685812D01*
X159297400Y-123680274D01*
X159298841Y-123670964D01*
X159332478Y-123593233D01*
X159361848Y-123520357D01*
X159368417Y-123510183D01*
X159375570Y-123493654D01*
X159420780Y-123429088D01*
X159460282Y-123367909D01*
X159472701Y-123354936D01*
X159486385Y-123335393D01*
X159539417Y-123285243D01*
X159585769Y-123236823D01*
X159605181Y-123223053D01*
X159626760Y-123202647D01*
X159683848Y-123167251D01*
X159733781Y-123131831D01*
X159760753Y-123119568D01*
X159790959Y-123100839D01*
X159848542Y-123079653D01*
X159898975Y-123056722D01*
X159933442Y-123048415D01*
X159972276Y-123034127D01*
X160027180Y-123025824D01*
X160075397Y-123014203D01*
X160116641Y-123012294D01*
X160163304Y-123005237D01*
X160212924Y-123007838D01*
X160212924Y-123007838D01*
G37*
G36*
X157629899Y-123011959D02*
G01*
X157646769Y-123023231D01*
X157658041Y-123040101D01*
X157664448Y-123072312D01*
X157664448Y-126647688D01*
X157661999Y-126660000D01*
X157658041Y-126679899D01*
X157646769Y-126696769D01*
X157629899Y-126708041D01*
X157610000Y-126711999D01*
X157597688Y-126714448D01*
X155822312Y-126714448D01*
X155790101Y-126708041D01*
X155773231Y-126696769D01*
X155761959Y-126679899D01*
X155755552Y-126647688D01*
X155755552Y-123072312D01*
X155761959Y-123040101D01*
X155773231Y-123023231D01*
X155790101Y-123011959D01*
X155822312Y-123005552D01*
X157597688Y-123005552D01*
X157629899Y-123011959D01*
X157629899Y-123011959D01*
G37*
G36*
X127472924Y-122767838D02*
G01*
X127516667Y-122765813D01*
X127563299Y-122772574D01*
X127616239Y-122775349D01*
X127658681Y-122786404D01*
X127696254Y-122791852D01*
X127746253Y-122809215D01*
X127803200Y-122824048D01*
X127837330Y-122840842D01*
X127867682Y-122851382D01*
X127918518Y-122880791D01*
X127976551Y-122909347D01*
X128001998Y-122929086D01*
X128024762Y-122942255D01*
X128073504Y-122984551D01*
X128129210Y-123027761D01*
X128146367Y-123047778D01*
X128161819Y-123061187D01*
X128205262Y-123116493D01*
X128254940Y-123174453D01*
X128264889Y-123192401D01*
X128273919Y-123203897D01*
X128308777Y-123271577D01*
X128348605Y-123343429D01*
X128352990Y-123357422D01*
X128357008Y-123365223D01*
X128380066Y-123443822D01*
X128406380Y-123527789D01*
X128407270Y-123536552D01*
X128408091Y-123539350D01*
X128416391Y-123626346D01*
X128421000Y-123671721D01*
X128421000Y-125551678D01*
X128405138Y-125654139D01*
X128384832Y-125794189D01*
X128382600Y-125799726D01*
X128381159Y-125809037D01*
X128347520Y-125886772D01*
X128318153Y-125959641D01*
X128311585Y-125969814D01*
X128304430Y-125986347D01*
X128259209Y-126050930D01*
X128219716Y-126112093D01*
X128207300Y-126125063D01*
X128193615Y-126144607D01*
X128140583Y-126194757D01*
X128094231Y-126243177D01*
X128074819Y-126256947D01*
X128053240Y-126277353D01*
X127996152Y-126312749D01*
X127946219Y-126348169D01*
X127919247Y-126360432D01*
X127889041Y-126379161D01*
X127831458Y-126400347D01*
X127781025Y-126423278D01*
X127746558Y-126431585D01*
X127707724Y-126445873D01*
X127652820Y-126454176D01*
X127604603Y-126465797D01*
X127563359Y-126467706D01*
X127516696Y-126474763D01*
X127467076Y-126472162D01*
X127423333Y-126474187D01*
X127376701Y-126467426D01*
X127323761Y-126464651D01*
X127281319Y-126453596D01*
X127243746Y-126448148D01*
X127193747Y-126430785D01*
X127136800Y-126415952D01*
X127102670Y-126399158D01*
X127072318Y-126388618D01*
X127021481Y-126359208D01*
X126963449Y-126330653D01*
X126938004Y-126310916D01*
X126915239Y-126297746D01*
X126866493Y-126255446D01*
X126810791Y-126212239D01*
X126793634Y-126192222D01*
X126778182Y-126178813D01*
X126734739Y-126123507D01*
X126685061Y-126065547D01*
X126675112Y-126047599D01*
X126666082Y-126036103D01*
X126631224Y-125968423D01*
X126591396Y-125896571D01*
X126587011Y-125882578D01*
X126582993Y-125874777D01*
X126559935Y-125796178D01*
X126533621Y-125712211D01*
X126532731Y-125703448D01*
X126531910Y-125700650D01*
X126523601Y-125613570D01*
X126519001Y-125568279D01*
X126519001Y-125565353D01*
X126519000Y-125565343D01*
X126519000Y-123688323D01*
X126534862Y-123585862D01*
X126555168Y-123445812D01*
X126557400Y-123440274D01*
X126558841Y-123430964D01*
X126592478Y-123353233D01*
X126621848Y-123280357D01*
X126628417Y-123270183D01*
X126635570Y-123253654D01*
X126680780Y-123189088D01*
X126720282Y-123127909D01*
X126732701Y-123114936D01*
X126746385Y-123095393D01*
X126799417Y-123045243D01*
X126845769Y-122996823D01*
X126865181Y-122983053D01*
X126886760Y-122962647D01*
X126943848Y-122927251D01*
X126993781Y-122891831D01*
X127020753Y-122879568D01*
X127050959Y-122860839D01*
X127108542Y-122839653D01*
X127158975Y-122816722D01*
X127193442Y-122808415D01*
X127232276Y-122794127D01*
X127287180Y-122785824D01*
X127335397Y-122774203D01*
X127376641Y-122772294D01*
X127423304Y-122765237D01*
X127472924Y-122767838D01*
X127472924Y-122767838D01*
G37*
G36*
X123972924Y-122767838D02*
G01*
X124016667Y-122765813D01*
X124063299Y-122772574D01*
X124116239Y-122775349D01*
X124158681Y-122786404D01*
X124196254Y-122791852D01*
X124246253Y-122809215D01*
X124303200Y-122824048D01*
X124337330Y-122840842D01*
X124367682Y-122851382D01*
X124418518Y-122880791D01*
X124476551Y-122909347D01*
X124501998Y-122929086D01*
X124524762Y-122942255D01*
X124573504Y-122984551D01*
X124629210Y-123027761D01*
X124646367Y-123047778D01*
X124661819Y-123061187D01*
X124705262Y-123116493D01*
X124754940Y-123174453D01*
X124764889Y-123192401D01*
X124773919Y-123203897D01*
X124808777Y-123271577D01*
X124848605Y-123343429D01*
X124852990Y-123357422D01*
X124857008Y-123365223D01*
X124880066Y-123443822D01*
X124906380Y-123527789D01*
X124907270Y-123536552D01*
X124908091Y-123539350D01*
X124916391Y-123626346D01*
X124921000Y-123671721D01*
X124921000Y-125551678D01*
X124905138Y-125654139D01*
X124884832Y-125794189D01*
X124882600Y-125799726D01*
X124881159Y-125809037D01*
X124847520Y-125886772D01*
X124818153Y-125959641D01*
X124811585Y-125969814D01*
X124804430Y-125986347D01*
X124759209Y-126050930D01*
X124719716Y-126112093D01*
X124707300Y-126125063D01*
X124693615Y-126144607D01*
X124640583Y-126194757D01*
X124594231Y-126243177D01*
X124574819Y-126256947D01*
X124553240Y-126277353D01*
X124496152Y-126312749D01*
X124446219Y-126348169D01*
X124419247Y-126360432D01*
X124389041Y-126379161D01*
X124331458Y-126400347D01*
X124281025Y-126423278D01*
X124246558Y-126431585D01*
X124207724Y-126445873D01*
X124152820Y-126454176D01*
X124104603Y-126465797D01*
X124063359Y-126467706D01*
X124016696Y-126474763D01*
X123967076Y-126472162D01*
X123923333Y-126474187D01*
X123876701Y-126467426D01*
X123823761Y-126464651D01*
X123781319Y-126453596D01*
X123743746Y-126448148D01*
X123693747Y-126430785D01*
X123636800Y-126415952D01*
X123602670Y-126399158D01*
X123572318Y-126388618D01*
X123521481Y-126359208D01*
X123463449Y-126330653D01*
X123438004Y-126310916D01*
X123415239Y-126297746D01*
X123366493Y-126255446D01*
X123310791Y-126212239D01*
X123293634Y-126192222D01*
X123278182Y-126178813D01*
X123234739Y-126123507D01*
X123185061Y-126065547D01*
X123175112Y-126047599D01*
X123166082Y-126036103D01*
X123131224Y-125968423D01*
X123091396Y-125896571D01*
X123087011Y-125882578D01*
X123082993Y-125874777D01*
X123059935Y-125796178D01*
X123033621Y-125712211D01*
X123032731Y-125703448D01*
X123031910Y-125700650D01*
X123023601Y-125613570D01*
X123019001Y-125568279D01*
X123019001Y-125565353D01*
X123019000Y-125565343D01*
X123019000Y-123688323D01*
X123034862Y-123585862D01*
X123055168Y-123445812D01*
X123057400Y-123440274D01*
X123058841Y-123430964D01*
X123092478Y-123353233D01*
X123121848Y-123280357D01*
X123128417Y-123270183D01*
X123135570Y-123253654D01*
X123180780Y-123189088D01*
X123220282Y-123127909D01*
X123232701Y-123114936D01*
X123246385Y-123095393D01*
X123299417Y-123045243D01*
X123345769Y-122996823D01*
X123365181Y-122983053D01*
X123386760Y-122962647D01*
X123443848Y-122927251D01*
X123493781Y-122891831D01*
X123520753Y-122879568D01*
X123550959Y-122860839D01*
X123608542Y-122839653D01*
X123658975Y-122816722D01*
X123693442Y-122808415D01*
X123732276Y-122794127D01*
X123787180Y-122785824D01*
X123835397Y-122774203D01*
X123876641Y-122772294D01*
X123923304Y-122765237D01*
X123972924Y-122767838D01*
X123972924Y-122767838D01*
G37*
G36*
X134472924Y-122767838D02*
G01*
X134516667Y-122765813D01*
X134563299Y-122772574D01*
X134616239Y-122775349D01*
X134658681Y-122786404D01*
X134696254Y-122791852D01*
X134746253Y-122809215D01*
X134803200Y-122824048D01*
X134837330Y-122840842D01*
X134867682Y-122851382D01*
X134918518Y-122880791D01*
X134976551Y-122909347D01*
X135001998Y-122929086D01*
X135024762Y-122942255D01*
X135073504Y-122984551D01*
X135129210Y-123027761D01*
X135146367Y-123047778D01*
X135161819Y-123061187D01*
X135205262Y-123116493D01*
X135254940Y-123174453D01*
X135264889Y-123192401D01*
X135273919Y-123203897D01*
X135308777Y-123271577D01*
X135348605Y-123343429D01*
X135352990Y-123357422D01*
X135357008Y-123365223D01*
X135380066Y-123443822D01*
X135406380Y-123527789D01*
X135407270Y-123536552D01*
X135408091Y-123539350D01*
X135416391Y-123626346D01*
X135421000Y-123671721D01*
X135421000Y-125551678D01*
X135405138Y-125654139D01*
X135384832Y-125794189D01*
X135382600Y-125799726D01*
X135381159Y-125809037D01*
X135347520Y-125886772D01*
X135318153Y-125959641D01*
X135311585Y-125969814D01*
X135304430Y-125986347D01*
X135259209Y-126050930D01*
X135219716Y-126112093D01*
X135207300Y-126125063D01*
X135193615Y-126144607D01*
X135140583Y-126194757D01*
X135094231Y-126243177D01*
X135074819Y-126256947D01*
X135053240Y-126277353D01*
X134996152Y-126312749D01*
X134946219Y-126348169D01*
X134919247Y-126360432D01*
X134889041Y-126379161D01*
X134831458Y-126400347D01*
X134781025Y-126423278D01*
X134746558Y-126431585D01*
X134707724Y-126445873D01*
X134652820Y-126454176D01*
X134604603Y-126465797D01*
X134563359Y-126467706D01*
X134516696Y-126474763D01*
X134467076Y-126472162D01*
X134423333Y-126474187D01*
X134376701Y-126467426D01*
X134323761Y-126464651D01*
X134281319Y-126453596D01*
X134243746Y-126448148D01*
X134193747Y-126430785D01*
X134136800Y-126415952D01*
X134102670Y-126399158D01*
X134072318Y-126388618D01*
X134021481Y-126359208D01*
X133963449Y-126330653D01*
X133938004Y-126310916D01*
X133915239Y-126297746D01*
X133866493Y-126255446D01*
X133810791Y-126212239D01*
X133793634Y-126192222D01*
X133778182Y-126178813D01*
X133734739Y-126123507D01*
X133685061Y-126065547D01*
X133675112Y-126047599D01*
X133666082Y-126036103D01*
X133631224Y-125968423D01*
X133591396Y-125896571D01*
X133587011Y-125882578D01*
X133582993Y-125874777D01*
X133559935Y-125796178D01*
X133533621Y-125712211D01*
X133532731Y-125703448D01*
X133531910Y-125700650D01*
X133523601Y-125613570D01*
X133519001Y-125568279D01*
X133519001Y-125565353D01*
X133519000Y-125565343D01*
X133519000Y-123688323D01*
X133534862Y-123585862D01*
X133555168Y-123445812D01*
X133557400Y-123440274D01*
X133558841Y-123430964D01*
X133592478Y-123353233D01*
X133621848Y-123280357D01*
X133628417Y-123270183D01*
X133635570Y-123253654D01*
X133680780Y-123189088D01*
X133720282Y-123127909D01*
X133732701Y-123114936D01*
X133746385Y-123095393D01*
X133799417Y-123045243D01*
X133845769Y-122996823D01*
X133865181Y-122983053D01*
X133886760Y-122962647D01*
X133943848Y-122927251D01*
X133993781Y-122891831D01*
X134020753Y-122879568D01*
X134050959Y-122860839D01*
X134108542Y-122839653D01*
X134158975Y-122816722D01*
X134193442Y-122808415D01*
X134232276Y-122794127D01*
X134287180Y-122785824D01*
X134335397Y-122774203D01*
X134376641Y-122772294D01*
X134423304Y-122765237D01*
X134472924Y-122767838D01*
X134472924Y-122767838D01*
G37*
G36*
X130972924Y-122767838D02*
G01*
X131016667Y-122765813D01*
X131063299Y-122772574D01*
X131116239Y-122775349D01*
X131158681Y-122786404D01*
X131196254Y-122791852D01*
X131246253Y-122809215D01*
X131303200Y-122824048D01*
X131337330Y-122840842D01*
X131367682Y-122851382D01*
X131418518Y-122880791D01*
X131476551Y-122909347D01*
X131501998Y-122929086D01*
X131524762Y-122942255D01*
X131573504Y-122984551D01*
X131629210Y-123027761D01*
X131646367Y-123047778D01*
X131661819Y-123061187D01*
X131705262Y-123116493D01*
X131754940Y-123174453D01*
X131764889Y-123192401D01*
X131773919Y-123203897D01*
X131808777Y-123271577D01*
X131848605Y-123343429D01*
X131852990Y-123357422D01*
X131857008Y-123365223D01*
X131880066Y-123443822D01*
X131906380Y-123527789D01*
X131907270Y-123536552D01*
X131908091Y-123539350D01*
X131916391Y-123626346D01*
X131921000Y-123671721D01*
X131921000Y-125551678D01*
X131905138Y-125654139D01*
X131884832Y-125794189D01*
X131882600Y-125799726D01*
X131881159Y-125809037D01*
X131847520Y-125886772D01*
X131818153Y-125959641D01*
X131811585Y-125969814D01*
X131804430Y-125986347D01*
X131759209Y-126050930D01*
X131719716Y-126112093D01*
X131707300Y-126125063D01*
X131693615Y-126144607D01*
X131640583Y-126194757D01*
X131594231Y-126243177D01*
X131574819Y-126256947D01*
X131553240Y-126277353D01*
X131496152Y-126312749D01*
X131446219Y-126348169D01*
X131419247Y-126360432D01*
X131389041Y-126379161D01*
X131331458Y-126400347D01*
X131281025Y-126423278D01*
X131246558Y-126431585D01*
X131207724Y-126445873D01*
X131152820Y-126454176D01*
X131104603Y-126465797D01*
X131063359Y-126467706D01*
X131016696Y-126474763D01*
X130967076Y-126472162D01*
X130923333Y-126474187D01*
X130876701Y-126467426D01*
X130823761Y-126464651D01*
X130781319Y-126453596D01*
X130743746Y-126448148D01*
X130693747Y-126430785D01*
X130636800Y-126415952D01*
X130602670Y-126399158D01*
X130572318Y-126388618D01*
X130521481Y-126359208D01*
X130463449Y-126330653D01*
X130438004Y-126310916D01*
X130415239Y-126297746D01*
X130366493Y-126255446D01*
X130310791Y-126212239D01*
X130293634Y-126192222D01*
X130278182Y-126178813D01*
X130234739Y-126123507D01*
X130185061Y-126065547D01*
X130175112Y-126047599D01*
X130166082Y-126036103D01*
X130131224Y-125968423D01*
X130091396Y-125896571D01*
X130087011Y-125882578D01*
X130082993Y-125874777D01*
X130059935Y-125796178D01*
X130033621Y-125712211D01*
X130032731Y-125703448D01*
X130031910Y-125700650D01*
X130023601Y-125613570D01*
X130019001Y-125568279D01*
X130019001Y-125565353D01*
X130019000Y-125565343D01*
X130019000Y-123688323D01*
X130034862Y-123585862D01*
X130055168Y-123445812D01*
X130057400Y-123440274D01*
X130058841Y-123430964D01*
X130092478Y-123353233D01*
X130121848Y-123280357D01*
X130128417Y-123270183D01*
X130135570Y-123253654D01*
X130180780Y-123189088D01*
X130220282Y-123127909D01*
X130232701Y-123114936D01*
X130246385Y-123095393D01*
X130299417Y-123045243D01*
X130345769Y-122996823D01*
X130365181Y-122983053D01*
X130386760Y-122962647D01*
X130443848Y-122927251D01*
X130493781Y-122891831D01*
X130520753Y-122879568D01*
X130550959Y-122860839D01*
X130608542Y-122839653D01*
X130658975Y-122816722D01*
X130693442Y-122808415D01*
X130732276Y-122794127D01*
X130787180Y-122785824D01*
X130835397Y-122774203D01*
X130876641Y-122772294D01*
X130923304Y-122765237D01*
X130972924Y-122767838D01*
X130972924Y-122767838D01*
G37*
G36*
X137972924Y-122767838D02*
G01*
X138016667Y-122765813D01*
X138063299Y-122772574D01*
X138116239Y-122775349D01*
X138158681Y-122786404D01*
X138196254Y-122791852D01*
X138246253Y-122809215D01*
X138303200Y-122824048D01*
X138337330Y-122840842D01*
X138367682Y-122851382D01*
X138418518Y-122880791D01*
X138476551Y-122909347D01*
X138501998Y-122929086D01*
X138524762Y-122942255D01*
X138573504Y-122984551D01*
X138629210Y-123027761D01*
X138646367Y-123047778D01*
X138661819Y-123061187D01*
X138705262Y-123116493D01*
X138754940Y-123174453D01*
X138764889Y-123192401D01*
X138773919Y-123203897D01*
X138808777Y-123271577D01*
X138848605Y-123343429D01*
X138852990Y-123357422D01*
X138857008Y-123365223D01*
X138880066Y-123443822D01*
X138906380Y-123527789D01*
X138907270Y-123536552D01*
X138908091Y-123539350D01*
X138916391Y-123626346D01*
X138921000Y-123671721D01*
X138921000Y-125551678D01*
X138905138Y-125654139D01*
X138884832Y-125794189D01*
X138882600Y-125799726D01*
X138881159Y-125809037D01*
X138847520Y-125886772D01*
X138818153Y-125959641D01*
X138811585Y-125969814D01*
X138804430Y-125986347D01*
X138759209Y-126050930D01*
X138719716Y-126112093D01*
X138707300Y-126125063D01*
X138693615Y-126144607D01*
X138640583Y-126194757D01*
X138594231Y-126243177D01*
X138574819Y-126256947D01*
X138553240Y-126277353D01*
X138496152Y-126312749D01*
X138446219Y-126348169D01*
X138419247Y-126360432D01*
X138389041Y-126379161D01*
X138331458Y-126400347D01*
X138281025Y-126423278D01*
X138246558Y-126431585D01*
X138207724Y-126445873D01*
X138152820Y-126454176D01*
X138104603Y-126465797D01*
X138063359Y-126467706D01*
X138016696Y-126474763D01*
X137967076Y-126472162D01*
X137923333Y-126474187D01*
X137876701Y-126467426D01*
X137823761Y-126464651D01*
X137781319Y-126453596D01*
X137743746Y-126448148D01*
X137693747Y-126430785D01*
X137636800Y-126415952D01*
X137602670Y-126399158D01*
X137572318Y-126388618D01*
X137521481Y-126359208D01*
X137463449Y-126330653D01*
X137438004Y-126310916D01*
X137415239Y-126297746D01*
X137366493Y-126255446D01*
X137310791Y-126212239D01*
X137293634Y-126192222D01*
X137278182Y-126178813D01*
X137234739Y-126123507D01*
X137185061Y-126065547D01*
X137175112Y-126047599D01*
X137166082Y-126036103D01*
X137131224Y-125968423D01*
X137091396Y-125896571D01*
X137087011Y-125882578D01*
X137082993Y-125874777D01*
X137059935Y-125796178D01*
X137033621Y-125712211D01*
X137032731Y-125703448D01*
X137031910Y-125700650D01*
X137023601Y-125613570D01*
X137019001Y-125568279D01*
X137019001Y-125565353D01*
X137019000Y-125565343D01*
X137019000Y-123688323D01*
X137034862Y-123585862D01*
X137055168Y-123445812D01*
X137057400Y-123440274D01*
X137058841Y-123430964D01*
X137092478Y-123353233D01*
X137121848Y-123280357D01*
X137128417Y-123270183D01*
X137135570Y-123253654D01*
X137180780Y-123189088D01*
X137220282Y-123127909D01*
X137232701Y-123114936D01*
X137246385Y-123095393D01*
X137299417Y-123045243D01*
X137345769Y-122996823D01*
X137365181Y-122983053D01*
X137386760Y-122962647D01*
X137443848Y-122927251D01*
X137493781Y-122891831D01*
X137520753Y-122879568D01*
X137550959Y-122860839D01*
X137608542Y-122839653D01*
X137658975Y-122816722D01*
X137693442Y-122808415D01*
X137732276Y-122794127D01*
X137787180Y-122785824D01*
X137835397Y-122774203D01*
X137876641Y-122772294D01*
X137923304Y-122765237D01*
X137972924Y-122767838D01*
X137972924Y-122767838D01*
G37*
G36*
X141472924Y-122767838D02*
G01*
X141516667Y-122765813D01*
X141563299Y-122772574D01*
X141616239Y-122775349D01*
X141658681Y-122786404D01*
X141696254Y-122791852D01*
X141746253Y-122809215D01*
X141803200Y-122824048D01*
X141837330Y-122840842D01*
X141867682Y-122851382D01*
X141918518Y-122880791D01*
X141976551Y-122909347D01*
X142001998Y-122929086D01*
X142024762Y-122942255D01*
X142073504Y-122984551D01*
X142129210Y-123027761D01*
X142146367Y-123047778D01*
X142161819Y-123061187D01*
X142205262Y-123116493D01*
X142254940Y-123174453D01*
X142264889Y-123192401D01*
X142273919Y-123203897D01*
X142308777Y-123271577D01*
X142348605Y-123343429D01*
X142352990Y-123357422D01*
X142357008Y-123365223D01*
X142380066Y-123443822D01*
X142406380Y-123527789D01*
X142407270Y-123536552D01*
X142408091Y-123539350D01*
X142416391Y-123626346D01*
X142421000Y-123671721D01*
X142421000Y-125551678D01*
X142405138Y-125654139D01*
X142384832Y-125794189D01*
X142382600Y-125799726D01*
X142381159Y-125809037D01*
X142347520Y-125886772D01*
X142318153Y-125959641D01*
X142311585Y-125969814D01*
X142304430Y-125986347D01*
X142259209Y-126050930D01*
X142219716Y-126112093D01*
X142207300Y-126125063D01*
X142193615Y-126144607D01*
X142140583Y-126194757D01*
X142094231Y-126243177D01*
X142074819Y-126256947D01*
X142053240Y-126277353D01*
X141996152Y-126312749D01*
X141946219Y-126348169D01*
X141919247Y-126360432D01*
X141889041Y-126379161D01*
X141831458Y-126400347D01*
X141781025Y-126423278D01*
X141746558Y-126431585D01*
X141707724Y-126445873D01*
X141652820Y-126454176D01*
X141604603Y-126465797D01*
X141563359Y-126467706D01*
X141516696Y-126474763D01*
X141467076Y-126472162D01*
X141423333Y-126474187D01*
X141376701Y-126467426D01*
X141323761Y-126464651D01*
X141281319Y-126453596D01*
X141243746Y-126448148D01*
X141193747Y-126430785D01*
X141136800Y-126415952D01*
X141102670Y-126399158D01*
X141072318Y-126388618D01*
X141021481Y-126359208D01*
X140963449Y-126330653D01*
X140938004Y-126310916D01*
X140915239Y-126297746D01*
X140866493Y-126255446D01*
X140810791Y-126212239D01*
X140793634Y-126192222D01*
X140778182Y-126178813D01*
X140734739Y-126123507D01*
X140685061Y-126065547D01*
X140675112Y-126047599D01*
X140666082Y-126036103D01*
X140631224Y-125968423D01*
X140591396Y-125896571D01*
X140587011Y-125882578D01*
X140582993Y-125874777D01*
X140559935Y-125796178D01*
X140533621Y-125712211D01*
X140532731Y-125703448D01*
X140531910Y-125700650D01*
X140523601Y-125613570D01*
X140519001Y-125568279D01*
X140519001Y-125565353D01*
X140519000Y-125565343D01*
X140519000Y-123688323D01*
X140534862Y-123585862D01*
X140555168Y-123445812D01*
X140557400Y-123440274D01*
X140558841Y-123430964D01*
X140592478Y-123353233D01*
X140621848Y-123280357D01*
X140628417Y-123270183D01*
X140635570Y-123253654D01*
X140680780Y-123189088D01*
X140720282Y-123127909D01*
X140732701Y-123114936D01*
X140746385Y-123095393D01*
X140799417Y-123045243D01*
X140845769Y-122996823D01*
X140865181Y-122983053D01*
X140886760Y-122962647D01*
X140943848Y-122927251D01*
X140993781Y-122891831D01*
X141020753Y-122879568D01*
X141050959Y-122860839D01*
X141108542Y-122839653D01*
X141158975Y-122816722D01*
X141193442Y-122808415D01*
X141232276Y-122794127D01*
X141287180Y-122785824D01*
X141335397Y-122774203D01*
X141376641Y-122772294D01*
X141423304Y-122765237D01*
X141472924Y-122767838D01*
X141472924Y-122767838D01*
G37*
G36*
X144972924Y-122767838D02*
G01*
X145016667Y-122765813D01*
X145063299Y-122772574D01*
X145116239Y-122775349D01*
X145158681Y-122786404D01*
X145196254Y-122791852D01*
X145246253Y-122809215D01*
X145303200Y-122824048D01*
X145337330Y-122840842D01*
X145367682Y-122851382D01*
X145418518Y-122880791D01*
X145476551Y-122909347D01*
X145501998Y-122929086D01*
X145524762Y-122942255D01*
X145573504Y-122984551D01*
X145629210Y-123027761D01*
X145646367Y-123047778D01*
X145661819Y-123061187D01*
X145705262Y-123116493D01*
X145754940Y-123174453D01*
X145764889Y-123192401D01*
X145773919Y-123203897D01*
X145808777Y-123271577D01*
X145848605Y-123343429D01*
X145852990Y-123357422D01*
X145857008Y-123365223D01*
X145880066Y-123443822D01*
X145906380Y-123527789D01*
X145907270Y-123536552D01*
X145908091Y-123539350D01*
X145916391Y-123626346D01*
X145921000Y-123671721D01*
X145921000Y-125551678D01*
X145905138Y-125654139D01*
X145884832Y-125794189D01*
X145882600Y-125799726D01*
X145881159Y-125809037D01*
X145847520Y-125886772D01*
X145818153Y-125959641D01*
X145811585Y-125969814D01*
X145804430Y-125986347D01*
X145759209Y-126050930D01*
X145719716Y-126112093D01*
X145707300Y-126125063D01*
X145693615Y-126144607D01*
X145640583Y-126194757D01*
X145594231Y-126243177D01*
X145574819Y-126256947D01*
X145553240Y-126277353D01*
X145496152Y-126312749D01*
X145446219Y-126348169D01*
X145419247Y-126360432D01*
X145389041Y-126379161D01*
X145331458Y-126400347D01*
X145281025Y-126423278D01*
X145246558Y-126431585D01*
X145207724Y-126445873D01*
X145152820Y-126454176D01*
X145104603Y-126465797D01*
X145063359Y-126467706D01*
X145016696Y-126474763D01*
X144967076Y-126472162D01*
X144923333Y-126474187D01*
X144876701Y-126467426D01*
X144823761Y-126464651D01*
X144781319Y-126453596D01*
X144743746Y-126448148D01*
X144693747Y-126430785D01*
X144636800Y-126415952D01*
X144602670Y-126399158D01*
X144572318Y-126388618D01*
X144521481Y-126359208D01*
X144463449Y-126330653D01*
X144438004Y-126310916D01*
X144415239Y-126297746D01*
X144366493Y-126255446D01*
X144310791Y-126212239D01*
X144293634Y-126192222D01*
X144278182Y-126178813D01*
X144234739Y-126123507D01*
X144185061Y-126065547D01*
X144175112Y-126047599D01*
X144166082Y-126036103D01*
X144131224Y-125968423D01*
X144091396Y-125896571D01*
X144087011Y-125882578D01*
X144082993Y-125874777D01*
X144059935Y-125796178D01*
X144033621Y-125712211D01*
X144032731Y-125703448D01*
X144031910Y-125700650D01*
X144023601Y-125613570D01*
X144019001Y-125568279D01*
X144019001Y-125565353D01*
X144019000Y-125565343D01*
X144019000Y-123688323D01*
X144034862Y-123585862D01*
X144055168Y-123445812D01*
X144057400Y-123440274D01*
X144058841Y-123430964D01*
X144092478Y-123353233D01*
X144121848Y-123280357D01*
X144128417Y-123270183D01*
X144135570Y-123253654D01*
X144180780Y-123189088D01*
X144220282Y-123127909D01*
X144232701Y-123114936D01*
X144246385Y-123095393D01*
X144299417Y-123045243D01*
X144345769Y-122996823D01*
X144365181Y-122983053D01*
X144386760Y-122962647D01*
X144443848Y-122927251D01*
X144493781Y-122891831D01*
X144520753Y-122879568D01*
X144550959Y-122860839D01*
X144608542Y-122839653D01*
X144658975Y-122816722D01*
X144693442Y-122808415D01*
X144732276Y-122794127D01*
X144787180Y-122785824D01*
X144835397Y-122774203D01*
X144876641Y-122772294D01*
X144923304Y-122765237D01*
X144972924Y-122767838D01*
X144972924Y-122767838D01*
G37*
G36*
X121389899Y-122771959D02*
G01*
X121406769Y-122783231D01*
X121418041Y-122800101D01*
X121424448Y-122832312D01*
X121424448Y-126407688D01*
X121421999Y-126420000D01*
X121418041Y-126439899D01*
X121406769Y-126456769D01*
X121389899Y-126468041D01*
X121370000Y-126471999D01*
X121357688Y-126474448D01*
X119582312Y-126474448D01*
X119550101Y-126468041D01*
X119533231Y-126456769D01*
X119521959Y-126439899D01*
X119515552Y-126407688D01*
X119515552Y-122832312D01*
X119521959Y-122800101D01*
X119533231Y-122783231D01*
X119550101Y-122771959D01*
X119582312Y-122765552D01*
X121357688Y-122765552D01*
X121389899Y-122771959D01*
X121389899Y-122771959D01*
G37*
G36*
X175993730Y-105499000D02*
G01*
X176049937Y-105499000D01*
X176120874Y-105510235D01*
X176187558Y-105516128D01*
X176244072Y-105529748D01*
X176306610Y-105539653D01*
X176368179Y-105559658D01*
X176426121Y-105573622D01*
X176486809Y-105598203D01*
X176553764Y-105619958D01*
X176605106Y-105646118D01*
X176653565Y-105665746D01*
X176716309Y-105702779D01*
X176785312Y-105737938D01*
X176826161Y-105767616D01*
X176864891Y-105790476D01*
X176927232Y-105841049D01*
X176995554Y-105890688D01*
X177026207Y-105921341D01*
X177055465Y-105945076D01*
X177114718Y-106009852D01*
X177179312Y-106074446D01*
X177200574Y-106103711D01*
X177221091Y-106126140D01*
X177274400Y-106205323D01*
X177332062Y-106284688D01*
X177345230Y-106310531D01*
X177358137Y-106329703D01*
X177402562Y-106423052D01*
X177450042Y-106516236D01*
X177456784Y-106536987D01*
X177463587Y-106551281D01*
X177496245Y-106658436D01*
X177530347Y-106763390D01*
X177532634Y-106777830D01*
X177535129Y-106786016D01*
X177553244Y-106907955D01*
X177571000Y-107020063D01*
X177571000Y-107279937D01*
X177562684Y-107332440D01*
X177561885Y-107361983D01*
X177544640Y-107446367D01*
X177530347Y-107536610D01*
X177519164Y-107571027D01*
X177513080Y-107600799D01*
X177480365Y-107690439D01*
X177450042Y-107783764D01*
X177436872Y-107809612D01*
X177428950Y-107831318D01*
X177379540Y-107922131D01*
X177332062Y-108015312D01*
X177319241Y-108032959D01*
X177311672Y-108046870D01*
X177244158Y-108136301D01*
X177179312Y-108225554D01*
X177168976Y-108235890D01*
X177163819Y-108242721D01*
X177075782Y-108329084D01*
X176995554Y-108409312D01*
X176989558Y-108413668D01*
X176988640Y-108414569D01*
X176813110Y-108541866D01*
X176785312Y-108562062D01*
X176684629Y-108613363D01*
X176572223Y-108671753D01*
X176565505Y-108674060D01*
X176553764Y-108680042D01*
X176447902Y-108714439D01*
X176340133Y-108751441D01*
X176325994Y-108754049D01*
X176306610Y-108760347D01*
X176202080Y-108776903D01*
X176098808Y-108795950D01*
X176077170Y-108796687D01*
X176049937Y-108801000D01*
X175950480Y-108801000D01*
X175853553Y-108804300D01*
X175824812Y-108801000D01*
X175790063Y-108801000D01*
X175698482Y-108786495D01*
X175609768Y-108776309D01*
X175574791Y-108766904D01*
X175533390Y-108760347D01*
X175451749Y-108733820D01*
X175372788Y-108712589D01*
X175332903Y-108695205D01*
X175286236Y-108680042D01*
X175215965Y-108644237D01*
X175147832Y-108614541D01*
X175104765Y-108587578D01*
X175054688Y-108562062D01*
X174996590Y-108519851D01*
X174939843Y-108484323D01*
X174895667Y-108446526D01*
X174844446Y-108409312D01*
X174798671Y-108363537D01*
X174753382Y-108324788D01*
X174710465Y-108275331D01*
X174660688Y-108225554D01*
X174626823Y-108178943D01*
X174592556Y-108139454D01*
X174553461Y-108077969D01*
X174507938Y-108015312D01*
X174485015Y-107970323D01*
X174460884Y-107932372D01*
X174428299Y-107859012D01*
X174389958Y-107783764D01*
X174376561Y-107742533D01*
X174361269Y-107708105D01*
X174337885Y-107623501D01*
X174309653Y-107536610D01*
X174303993Y-107500874D01*
X174295897Y-107471582D01*
X174284348Y-107376843D01*
X174269000Y-107279937D01*
X174269000Y-107250932D01*
X174266203Y-107227987D01*
X174269000Y-107124628D01*
X174269000Y-107020063D01*
X174272413Y-106998516D01*
X174272841Y-106982689D01*
X174292390Y-106872382D01*
X174309653Y-106763390D01*
X174314171Y-106749485D01*
X174315664Y-106741061D01*
X174354876Y-106624207D01*
X174389958Y-106516236D01*
X174393325Y-106509628D01*
X174393732Y-106508415D01*
X174491710Y-106316538D01*
X174507938Y-106284688D01*
X174574366Y-106193258D01*
X174648002Y-106090214D01*
X174652942Y-106085107D01*
X174660688Y-106074446D01*
X174739390Y-105995744D01*
X174818621Y-105913841D01*
X174830037Y-105905097D01*
X174844446Y-105890688D01*
X174930048Y-105828494D01*
X175013440Y-105764621D01*
X175032390Y-105754139D01*
X175054688Y-105737938D01*
X175143279Y-105692798D01*
X175228164Y-105645843D01*
X175255275Y-105635734D01*
X175286236Y-105619958D01*
X175374418Y-105591306D01*
X175458091Y-105560105D01*
X175493527Y-105552605D01*
X175533390Y-105539653D01*
X175618177Y-105526224D01*
X175698171Y-105509294D01*
X175741600Y-105506676D01*
X175790063Y-105499000D01*
X175868917Y-105499000D01*
X175943111Y-105494527D01*
X175993730Y-105499000D01*
X175993730Y-105499000D01*
G37*
G36*
X118443730Y-105099000D02*
G01*
X118499937Y-105099000D01*
X118570874Y-105110235D01*
X118637558Y-105116128D01*
X118694072Y-105129748D01*
X118756610Y-105139653D01*
X118818179Y-105159658D01*
X118876121Y-105173622D01*
X118936809Y-105198203D01*
X119003764Y-105219958D01*
X119055106Y-105246118D01*
X119103565Y-105265746D01*
X119166309Y-105302779D01*
X119235312Y-105337938D01*
X119276161Y-105367616D01*
X119314891Y-105390476D01*
X119377232Y-105441049D01*
X119445554Y-105490688D01*
X119476207Y-105521341D01*
X119505465Y-105545076D01*
X119564718Y-105609852D01*
X119629312Y-105674446D01*
X119650574Y-105703711D01*
X119671091Y-105726140D01*
X119724400Y-105805323D01*
X119782062Y-105884688D01*
X119795230Y-105910531D01*
X119808137Y-105929703D01*
X119852562Y-106023052D01*
X119900042Y-106116236D01*
X119906784Y-106136987D01*
X119913587Y-106151281D01*
X119946245Y-106258436D01*
X119980347Y-106363390D01*
X119982634Y-106377830D01*
X119985129Y-106386016D01*
X120003244Y-106507955D01*
X120021000Y-106620063D01*
X120021000Y-106879937D01*
X120012684Y-106932440D01*
X120011885Y-106961983D01*
X119994640Y-107046367D01*
X119980347Y-107136610D01*
X119969164Y-107171027D01*
X119963080Y-107200799D01*
X119930365Y-107290439D01*
X119900042Y-107383764D01*
X119886872Y-107409612D01*
X119878950Y-107431318D01*
X119829540Y-107522131D01*
X119782062Y-107615312D01*
X119769241Y-107632959D01*
X119761672Y-107646870D01*
X119694158Y-107736301D01*
X119629312Y-107825554D01*
X119618976Y-107835890D01*
X119613819Y-107842721D01*
X119525782Y-107929084D01*
X119445554Y-108009312D01*
X119439558Y-108013668D01*
X119438640Y-108014569D01*
X119263110Y-108141866D01*
X119235312Y-108162062D01*
X119134629Y-108213363D01*
X119022223Y-108271753D01*
X119015505Y-108274060D01*
X119003764Y-108280042D01*
X118897902Y-108314439D01*
X118790133Y-108351441D01*
X118775994Y-108354049D01*
X118756610Y-108360347D01*
X118652080Y-108376903D01*
X118548808Y-108395950D01*
X118527170Y-108396687D01*
X118499937Y-108401000D01*
X118400480Y-108401000D01*
X118303553Y-108404300D01*
X118274812Y-108401000D01*
X118240063Y-108401000D01*
X118148482Y-108386495D01*
X118059768Y-108376309D01*
X118024791Y-108366904D01*
X117983390Y-108360347D01*
X117901749Y-108333820D01*
X117822788Y-108312589D01*
X117782903Y-108295205D01*
X117736236Y-108280042D01*
X117665965Y-108244237D01*
X117597832Y-108214541D01*
X117554765Y-108187578D01*
X117504688Y-108162062D01*
X117446590Y-108119851D01*
X117389843Y-108084323D01*
X117345667Y-108046526D01*
X117294446Y-108009312D01*
X117248671Y-107963537D01*
X117203382Y-107924788D01*
X117160465Y-107875331D01*
X117110688Y-107825554D01*
X117076823Y-107778943D01*
X117042556Y-107739454D01*
X117003461Y-107677969D01*
X116957938Y-107615312D01*
X116935015Y-107570323D01*
X116910884Y-107532372D01*
X116878299Y-107459012D01*
X116839958Y-107383764D01*
X116826561Y-107342533D01*
X116811269Y-107308105D01*
X116787885Y-107223501D01*
X116759653Y-107136610D01*
X116753993Y-107100874D01*
X116745897Y-107071582D01*
X116734348Y-106976843D01*
X116719000Y-106879937D01*
X116719000Y-106850932D01*
X116716203Y-106827987D01*
X116719000Y-106724628D01*
X116719000Y-106620063D01*
X116722413Y-106598516D01*
X116722841Y-106582689D01*
X116742390Y-106472382D01*
X116759653Y-106363390D01*
X116764171Y-106349485D01*
X116765664Y-106341061D01*
X116804876Y-106224207D01*
X116839958Y-106116236D01*
X116843325Y-106109628D01*
X116843732Y-106108415D01*
X116941710Y-105916538D01*
X116957938Y-105884688D01*
X117024366Y-105793258D01*
X117098002Y-105690214D01*
X117102942Y-105685107D01*
X117110688Y-105674446D01*
X117189390Y-105595744D01*
X117268621Y-105513841D01*
X117280037Y-105505097D01*
X117294446Y-105490688D01*
X117380048Y-105428494D01*
X117463440Y-105364621D01*
X117482390Y-105354139D01*
X117504688Y-105337938D01*
X117593279Y-105292798D01*
X117678164Y-105245843D01*
X117705275Y-105235734D01*
X117736236Y-105219958D01*
X117824418Y-105191306D01*
X117908091Y-105160105D01*
X117943527Y-105152605D01*
X117983390Y-105139653D01*
X118068177Y-105126224D01*
X118148171Y-105109294D01*
X118191600Y-105106676D01*
X118240063Y-105099000D01*
X118318917Y-105099000D01*
X118393111Y-105094527D01*
X118443730Y-105099000D01*
X118443730Y-105099000D01*
G37*
G36*
X159457270Y-101036707D02*
G01*
X159581689Y-101055968D01*
X159586690Y-101058132D01*
X159595865Y-101059651D01*
X159668903Y-101093709D01*
X159737312Y-101123313D01*
X159747129Y-101130187D01*
X159763440Y-101137793D01*
X159822726Y-101183121D01*
X159878929Y-101222474D01*
X159891276Y-101235530D01*
X159910327Y-101250096D01*
X159954657Y-101302554D01*
X159997715Y-101348086D01*
X160010335Y-101368439D01*
X160029671Y-101391321D01*
X160058930Y-101446816D01*
X160088819Y-101495022D01*
X160099150Y-101523099D01*
X160115905Y-101554879D01*
X160130983Y-101609619D01*
X160148516Y-101657272D01*
X160153882Y-101692753D01*
X160165006Y-101733139D01*
X160167666Y-101783903D01*
X160174368Y-101828216D01*
X160172178Y-101869995D01*
X160174683Y-101917784D01*
X160167354Y-101962056D01*
X160165320Y-102000863D01*
X160153272Y-102047117D01*
X160144484Y-102100200D01*
X160130035Y-102136325D01*
X160121741Y-102168167D01*
X160098009Y-102216396D01*
X160075819Y-102271876D01*
X160057303Y-102299121D01*
X160045413Y-102323285D01*
X160008825Y-102370454D01*
X159971890Y-102424802D01*
X159952296Y-102443332D01*
X159939447Y-102459896D01*
X159889605Y-102502616D01*
X159837548Y-102551844D01*
X159819557Y-102562654D01*
X159808185Y-102572401D01*
X159745589Y-102607098D01*
X159679059Y-102647074D01*
X159664838Y-102651860D01*
X159656972Y-102656220D01*
X159582991Y-102679404D01*
X159503817Y-102706049D01*
X159494863Y-102707022D01*
X159492000Y-102707919D01*
X159408954Y-102716354D01*
X159366191Y-102721000D01*
X159289689Y-102721000D01*
X159182730Y-102703293D01*
X159058311Y-102684032D01*
X159053310Y-102681868D01*
X159044135Y-102680349D01*
X158971097Y-102646291D01*
X158902688Y-102616687D01*
X158892871Y-102609813D01*
X158876560Y-102602207D01*
X158817274Y-102556879D01*
X158761071Y-102517526D01*
X158748724Y-102504470D01*
X158729673Y-102489904D01*
X158685343Y-102437446D01*
X158642285Y-102391914D01*
X158629665Y-102371561D01*
X158610329Y-102348679D01*
X158581070Y-102293184D01*
X158551181Y-102244978D01*
X158540850Y-102216901D01*
X158524095Y-102185121D01*
X158509017Y-102130381D01*
X158491484Y-102082728D01*
X158486118Y-102047247D01*
X158474994Y-102006861D01*
X158472334Y-101956097D01*
X158465632Y-101911784D01*
X158467822Y-101870005D01*
X158465317Y-101822216D01*
X158472646Y-101777944D01*
X158474680Y-101739137D01*
X158486728Y-101692883D01*
X158495516Y-101639800D01*
X158509965Y-101603675D01*
X158518259Y-101571833D01*
X158541991Y-101523604D01*
X158564181Y-101468124D01*
X158582697Y-101440879D01*
X158594587Y-101416715D01*
X158631175Y-101369546D01*
X158668110Y-101315198D01*
X158687704Y-101296668D01*
X158700553Y-101280104D01*
X158750395Y-101237384D01*
X158802452Y-101188156D01*
X158820443Y-101177346D01*
X158831815Y-101167599D01*
X158894411Y-101132902D01*
X158960941Y-101092926D01*
X158975162Y-101088140D01*
X158983028Y-101083780D01*
X159057009Y-101060596D01*
X159136183Y-101033951D01*
X159145137Y-101032978D01*
X159148000Y-101032081D01*
X159231046Y-101023646D01*
X159273809Y-101019000D01*
X159350311Y-101019000D01*
X159457270Y-101036707D01*
X159457270Y-101036707D01*
G37*
G36*
X128977270Y-101036707D02*
G01*
X129101689Y-101055968D01*
X129106690Y-101058132D01*
X129115865Y-101059651D01*
X129188903Y-101093709D01*
X129257312Y-101123313D01*
X129267129Y-101130187D01*
X129283440Y-101137793D01*
X129342726Y-101183121D01*
X129398929Y-101222474D01*
X129411276Y-101235530D01*
X129430327Y-101250096D01*
X129474657Y-101302554D01*
X129517715Y-101348086D01*
X129530335Y-101368439D01*
X129549671Y-101391321D01*
X129578930Y-101446816D01*
X129608819Y-101495022D01*
X129619150Y-101523099D01*
X129635905Y-101554879D01*
X129650983Y-101609619D01*
X129668516Y-101657272D01*
X129673882Y-101692753D01*
X129685006Y-101733139D01*
X129687666Y-101783903D01*
X129694368Y-101828216D01*
X129692178Y-101869995D01*
X129694683Y-101917784D01*
X129687354Y-101962056D01*
X129685320Y-102000863D01*
X129673272Y-102047117D01*
X129664484Y-102100200D01*
X129650035Y-102136325D01*
X129641741Y-102168167D01*
X129618009Y-102216396D01*
X129595819Y-102271876D01*
X129577303Y-102299121D01*
X129565413Y-102323285D01*
X129528825Y-102370454D01*
X129491890Y-102424802D01*
X129472296Y-102443332D01*
X129459447Y-102459896D01*
X129409605Y-102502616D01*
X129357548Y-102551844D01*
X129339557Y-102562654D01*
X129328185Y-102572401D01*
X129265589Y-102607098D01*
X129199059Y-102647074D01*
X129184838Y-102651860D01*
X129176972Y-102656220D01*
X129102991Y-102679404D01*
X129023817Y-102706049D01*
X129014863Y-102707022D01*
X129012000Y-102707919D01*
X128928954Y-102716354D01*
X128886191Y-102721000D01*
X128809689Y-102721000D01*
X128702730Y-102703293D01*
X128578311Y-102684032D01*
X128573310Y-102681868D01*
X128564135Y-102680349D01*
X128491097Y-102646291D01*
X128422688Y-102616687D01*
X128412871Y-102609813D01*
X128396560Y-102602207D01*
X128337274Y-102556879D01*
X128281071Y-102517526D01*
X128268724Y-102504470D01*
X128249673Y-102489904D01*
X128205343Y-102437446D01*
X128162285Y-102391914D01*
X128149665Y-102371561D01*
X128130329Y-102348679D01*
X128101070Y-102293184D01*
X128071181Y-102244978D01*
X128060850Y-102216901D01*
X128044095Y-102185121D01*
X128029017Y-102130381D01*
X128011484Y-102082728D01*
X128006118Y-102047247D01*
X127994994Y-102006861D01*
X127992334Y-101956097D01*
X127985632Y-101911784D01*
X127987822Y-101870005D01*
X127985317Y-101822216D01*
X127992646Y-101777944D01*
X127994680Y-101739137D01*
X128006728Y-101692883D01*
X128015516Y-101639800D01*
X128029965Y-101603675D01*
X128038259Y-101571833D01*
X128061991Y-101523604D01*
X128084181Y-101468124D01*
X128102697Y-101440879D01*
X128114587Y-101416715D01*
X128151175Y-101369546D01*
X128188110Y-101315198D01*
X128207704Y-101296668D01*
X128220553Y-101280104D01*
X128270395Y-101237384D01*
X128322452Y-101188156D01*
X128340443Y-101177346D01*
X128351815Y-101167599D01*
X128414411Y-101132902D01*
X128480941Y-101092926D01*
X128495162Y-101088140D01*
X128503028Y-101083780D01*
X128577009Y-101060596D01*
X128656183Y-101033951D01*
X128665137Y-101032978D01*
X128668000Y-101032081D01*
X128751046Y-101023646D01*
X128793809Y-101019000D01*
X128870311Y-101019000D01*
X128977270Y-101036707D01*
X128977270Y-101036707D01*
G37*
G36*
X131517270Y-101036707D02*
G01*
X131641689Y-101055968D01*
X131646690Y-101058132D01*
X131655865Y-101059651D01*
X131728903Y-101093709D01*
X131797312Y-101123313D01*
X131807129Y-101130187D01*
X131823440Y-101137793D01*
X131882726Y-101183121D01*
X131938929Y-101222474D01*
X131951276Y-101235530D01*
X131970327Y-101250096D01*
X132014657Y-101302554D01*
X132057715Y-101348086D01*
X132070335Y-101368439D01*
X132089671Y-101391321D01*
X132118930Y-101446816D01*
X132148819Y-101495022D01*
X132159150Y-101523099D01*
X132175905Y-101554879D01*
X132190983Y-101609619D01*
X132208516Y-101657272D01*
X132213882Y-101692753D01*
X132225006Y-101733139D01*
X132227666Y-101783903D01*
X132234368Y-101828216D01*
X132232178Y-101869995D01*
X132234683Y-101917784D01*
X132227354Y-101962056D01*
X132225320Y-102000863D01*
X132213272Y-102047117D01*
X132204484Y-102100200D01*
X132190035Y-102136325D01*
X132181741Y-102168167D01*
X132158009Y-102216396D01*
X132135819Y-102271876D01*
X132117303Y-102299121D01*
X132105413Y-102323285D01*
X132068825Y-102370454D01*
X132031890Y-102424802D01*
X132012296Y-102443332D01*
X131999447Y-102459896D01*
X131949605Y-102502616D01*
X131897548Y-102551844D01*
X131879557Y-102562654D01*
X131868185Y-102572401D01*
X131805589Y-102607098D01*
X131739059Y-102647074D01*
X131724838Y-102651860D01*
X131716972Y-102656220D01*
X131642991Y-102679404D01*
X131563817Y-102706049D01*
X131554863Y-102707022D01*
X131552000Y-102707919D01*
X131468954Y-102716354D01*
X131426191Y-102721000D01*
X131349689Y-102721000D01*
X131242730Y-102703293D01*
X131118311Y-102684032D01*
X131113310Y-102681868D01*
X131104135Y-102680349D01*
X131031097Y-102646291D01*
X130962688Y-102616687D01*
X130952871Y-102609813D01*
X130936560Y-102602207D01*
X130877274Y-102556879D01*
X130821071Y-102517526D01*
X130808724Y-102504470D01*
X130789673Y-102489904D01*
X130745343Y-102437446D01*
X130702285Y-102391914D01*
X130689665Y-102371561D01*
X130670329Y-102348679D01*
X130641070Y-102293184D01*
X130611181Y-102244978D01*
X130600850Y-102216901D01*
X130584095Y-102185121D01*
X130569017Y-102130381D01*
X130551484Y-102082728D01*
X130546118Y-102047247D01*
X130534994Y-102006861D01*
X130532334Y-101956097D01*
X130525632Y-101911784D01*
X130527822Y-101870005D01*
X130525317Y-101822216D01*
X130532646Y-101777944D01*
X130534680Y-101739137D01*
X130546728Y-101692883D01*
X130555516Y-101639800D01*
X130569965Y-101603675D01*
X130578259Y-101571833D01*
X130601991Y-101523604D01*
X130624181Y-101468124D01*
X130642697Y-101440879D01*
X130654587Y-101416715D01*
X130691175Y-101369546D01*
X130728110Y-101315198D01*
X130747704Y-101296668D01*
X130760553Y-101280104D01*
X130810395Y-101237384D01*
X130862452Y-101188156D01*
X130880443Y-101177346D01*
X130891815Y-101167599D01*
X130954411Y-101132902D01*
X131020941Y-101092926D01*
X131035162Y-101088140D01*
X131043028Y-101083780D01*
X131117009Y-101060596D01*
X131196183Y-101033951D01*
X131205137Y-101032978D01*
X131208000Y-101032081D01*
X131291046Y-101023646D01*
X131333809Y-101019000D01*
X131410311Y-101019000D01*
X131517270Y-101036707D01*
X131517270Y-101036707D01*
G37*
G36*
X134057270Y-101036707D02*
G01*
X134181689Y-101055968D01*
X134186690Y-101058132D01*
X134195865Y-101059651D01*
X134268903Y-101093709D01*
X134337312Y-101123313D01*
X134347129Y-101130187D01*
X134363440Y-101137793D01*
X134422726Y-101183121D01*
X134478929Y-101222474D01*
X134491276Y-101235530D01*
X134510327Y-101250096D01*
X134554657Y-101302554D01*
X134597715Y-101348086D01*
X134610335Y-101368439D01*
X134629671Y-101391321D01*
X134658930Y-101446816D01*
X134688819Y-101495022D01*
X134699150Y-101523099D01*
X134715905Y-101554879D01*
X134730983Y-101609619D01*
X134748516Y-101657272D01*
X134753882Y-101692753D01*
X134765006Y-101733139D01*
X134767666Y-101783903D01*
X134774368Y-101828216D01*
X134772178Y-101869995D01*
X134774683Y-101917784D01*
X134767354Y-101962056D01*
X134765320Y-102000863D01*
X134753272Y-102047117D01*
X134744484Y-102100200D01*
X134730035Y-102136325D01*
X134721741Y-102168167D01*
X134698009Y-102216396D01*
X134675819Y-102271876D01*
X134657303Y-102299121D01*
X134645413Y-102323285D01*
X134608825Y-102370454D01*
X134571890Y-102424802D01*
X134552296Y-102443332D01*
X134539447Y-102459896D01*
X134489605Y-102502616D01*
X134437548Y-102551844D01*
X134419557Y-102562654D01*
X134408185Y-102572401D01*
X134345589Y-102607098D01*
X134279059Y-102647074D01*
X134264838Y-102651860D01*
X134256972Y-102656220D01*
X134182991Y-102679404D01*
X134103817Y-102706049D01*
X134094863Y-102707022D01*
X134092000Y-102707919D01*
X134008954Y-102716354D01*
X133966191Y-102721000D01*
X133889689Y-102721000D01*
X133782730Y-102703293D01*
X133658311Y-102684032D01*
X133653310Y-102681868D01*
X133644135Y-102680349D01*
X133571097Y-102646291D01*
X133502688Y-102616687D01*
X133492871Y-102609813D01*
X133476560Y-102602207D01*
X133417274Y-102556879D01*
X133361071Y-102517526D01*
X133348724Y-102504470D01*
X133329673Y-102489904D01*
X133285343Y-102437446D01*
X133242285Y-102391914D01*
X133229665Y-102371561D01*
X133210329Y-102348679D01*
X133181070Y-102293184D01*
X133151181Y-102244978D01*
X133140850Y-102216901D01*
X133124095Y-102185121D01*
X133109017Y-102130381D01*
X133091484Y-102082728D01*
X133086118Y-102047247D01*
X133074994Y-102006861D01*
X133072334Y-101956097D01*
X133065632Y-101911784D01*
X133067822Y-101870005D01*
X133065317Y-101822216D01*
X133072646Y-101777944D01*
X133074680Y-101739137D01*
X133086728Y-101692883D01*
X133095516Y-101639800D01*
X133109965Y-101603675D01*
X133118259Y-101571833D01*
X133141991Y-101523604D01*
X133164181Y-101468124D01*
X133182697Y-101440879D01*
X133194587Y-101416715D01*
X133231175Y-101369546D01*
X133268110Y-101315198D01*
X133287704Y-101296668D01*
X133300553Y-101280104D01*
X133350395Y-101237384D01*
X133402452Y-101188156D01*
X133420443Y-101177346D01*
X133431815Y-101167599D01*
X133494411Y-101132902D01*
X133560941Y-101092926D01*
X133575162Y-101088140D01*
X133583028Y-101083780D01*
X133657009Y-101060596D01*
X133736183Y-101033951D01*
X133745137Y-101032978D01*
X133748000Y-101032081D01*
X133831046Y-101023646D01*
X133873809Y-101019000D01*
X133950311Y-101019000D01*
X134057270Y-101036707D01*
X134057270Y-101036707D01*
G37*
G36*
X136597270Y-101036707D02*
G01*
X136721689Y-101055968D01*
X136726690Y-101058132D01*
X136735865Y-101059651D01*
X136808903Y-101093709D01*
X136877312Y-101123313D01*
X136887129Y-101130187D01*
X136903440Y-101137793D01*
X136962726Y-101183121D01*
X137018929Y-101222474D01*
X137031276Y-101235530D01*
X137050327Y-101250096D01*
X137094657Y-101302554D01*
X137137715Y-101348086D01*
X137150335Y-101368439D01*
X137169671Y-101391321D01*
X137198930Y-101446816D01*
X137228819Y-101495022D01*
X137239150Y-101523099D01*
X137255905Y-101554879D01*
X137270983Y-101609619D01*
X137288516Y-101657272D01*
X137293882Y-101692753D01*
X137305006Y-101733139D01*
X137307666Y-101783903D01*
X137314368Y-101828216D01*
X137312178Y-101869995D01*
X137314683Y-101917784D01*
X137307354Y-101962056D01*
X137305320Y-102000863D01*
X137293272Y-102047117D01*
X137284484Y-102100200D01*
X137270035Y-102136325D01*
X137261741Y-102168167D01*
X137238009Y-102216396D01*
X137215819Y-102271876D01*
X137197303Y-102299121D01*
X137185413Y-102323285D01*
X137148825Y-102370454D01*
X137111890Y-102424802D01*
X137092296Y-102443332D01*
X137079447Y-102459896D01*
X137029605Y-102502616D01*
X136977548Y-102551844D01*
X136959557Y-102562654D01*
X136948185Y-102572401D01*
X136885589Y-102607098D01*
X136819059Y-102647074D01*
X136804838Y-102651860D01*
X136796972Y-102656220D01*
X136722991Y-102679404D01*
X136643817Y-102706049D01*
X136634863Y-102707022D01*
X136632000Y-102707919D01*
X136548954Y-102716354D01*
X136506191Y-102721000D01*
X136429689Y-102721000D01*
X136322730Y-102703293D01*
X136198311Y-102684032D01*
X136193310Y-102681868D01*
X136184135Y-102680349D01*
X136111097Y-102646291D01*
X136042688Y-102616687D01*
X136032871Y-102609813D01*
X136016560Y-102602207D01*
X135957274Y-102556879D01*
X135901071Y-102517526D01*
X135888724Y-102504470D01*
X135869673Y-102489904D01*
X135825343Y-102437446D01*
X135782285Y-102391914D01*
X135769665Y-102371561D01*
X135750329Y-102348679D01*
X135721070Y-102293184D01*
X135691181Y-102244978D01*
X135680850Y-102216901D01*
X135664095Y-102185121D01*
X135649017Y-102130381D01*
X135631484Y-102082728D01*
X135626118Y-102047247D01*
X135614994Y-102006861D01*
X135612334Y-101956097D01*
X135605632Y-101911784D01*
X135607822Y-101870005D01*
X135605317Y-101822216D01*
X135612646Y-101777944D01*
X135614680Y-101739137D01*
X135626728Y-101692883D01*
X135635516Y-101639800D01*
X135649965Y-101603675D01*
X135658259Y-101571833D01*
X135681991Y-101523604D01*
X135704181Y-101468124D01*
X135722697Y-101440879D01*
X135734587Y-101416715D01*
X135771175Y-101369546D01*
X135808110Y-101315198D01*
X135827704Y-101296668D01*
X135840553Y-101280104D01*
X135890395Y-101237384D01*
X135942452Y-101188156D01*
X135960443Y-101177346D01*
X135971815Y-101167599D01*
X136034411Y-101132902D01*
X136100941Y-101092926D01*
X136115162Y-101088140D01*
X136123028Y-101083780D01*
X136197009Y-101060596D01*
X136276183Y-101033951D01*
X136285137Y-101032978D01*
X136288000Y-101032081D01*
X136371046Y-101023646D01*
X136413809Y-101019000D01*
X136490311Y-101019000D01*
X136597270Y-101036707D01*
X136597270Y-101036707D01*
G37*
G36*
X139137270Y-101036707D02*
G01*
X139261689Y-101055968D01*
X139266690Y-101058132D01*
X139275865Y-101059651D01*
X139348903Y-101093709D01*
X139417312Y-101123313D01*
X139427129Y-101130187D01*
X139443440Y-101137793D01*
X139502726Y-101183121D01*
X139558929Y-101222474D01*
X139571276Y-101235530D01*
X139590327Y-101250096D01*
X139634657Y-101302554D01*
X139677715Y-101348086D01*
X139690335Y-101368439D01*
X139709671Y-101391321D01*
X139738930Y-101446816D01*
X139768819Y-101495022D01*
X139779150Y-101523099D01*
X139795905Y-101554879D01*
X139810983Y-101609619D01*
X139828516Y-101657272D01*
X139833882Y-101692753D01*
X139845006Y-101733139D01*
X139847666Y-101783903D01*
X139854368Y-101828216D01*
X139852178Y-101869995D01*
X139854683Y-101917784D01*
X139847354Y-101962056D01*
X139845320Y-102000863D01*
X139833272Y-102047117D01*
X139824484Y-102100200D01*
X139810035Y-102136325D01*
X139801741Y-102168167D01*
X139778009Y-102216396D01*
X139755819Y-102271876D01*
X139737303Y-102299121D01*
X139725413Y-102323285D01*
X139688825Y-102370454D01*
X139651890Y-102424802D01*
X139632296Y-102443332D01*
X139619447Y-102459896D01*
X139569605Y-102502616D01*
X139517548Y-102551844D01*
X139499557Y-102562654D01*
X139488185Y-102572401D01*
X139425589Y-102607098D01*
X139359059Y-102647074D01*
X139344838Y-102651860D01*
X139336972Y-102656220D01*
X139262991Y-102679404D01*
X139183817Y-102706049D01*
X139174863Y-102707022D01*
X139172000Y-102707919D01*
X139088954Y-102716354D01*
X139046191Y-102721000D01*
X138969689Y-102721000D01*
X138862730Y-102703293D01*
X138738311Y-102684032D01*
X138733310Y-102681868D01*
X138724135Y-102680349D01*
X138651097Y-102646291D01*
X138582688Y-102616687D01*
X138572871Y-102609813D01*
X138556560Y-102602207D01*
X138497274Y-102556879D01*
X138441071Y-102517526D01*
X138428724Y-102504470D01*
X138409673Y-102489904D01*
X138365343Y-102437446D01*
X138322285Y-102391914D01*
X138309665Y-102371561D01*
X138290329Y-102348679D01*
X138261070Y-102293184D01*
X138231181Y-102244978D01*
X138220850Y-102216901D01*
X138204095Y-102185121D01*
X138189017Y-102130381D01*
X138171484Y-102082728D01*
X138166118Y-102047247D01*
X138154994Y-102006861D01*
X138152334Y-101956097D01*
X138145632Y-101911784D01*
X138147822Y-101870005D01*
X138145317Y-101822216D01*
X138152646Y-101777944D01*
X138154680Y-101739137D01*
X138166728Y-101692883D01*
X138175516Y-101639800D01*
X138189965Y-101603675D01*
X138198259Y-101571833D01*
X138221991Y-101523604D01*
X138244181Y-101468124D01*
X138262697Y-101440879D01*
X138274587Y-101416715D01*
X138311175Y-101369546D01*
X138348110Y-101315198D01*
X138367704Y-101296668D01*
X138380553Y-101280104D01*
X138430395Y-101237384D01*
X138482452Y-101188156D01*
X138500443Y-101177346D01*
X138511815Y-101167599D01*
X138574411Y-101132902D01*
X138640941Y-101092926D01*
X138655162Y-101088140D01*
X138663028Y-101083780D01*
X138737009Y-101060596D01*
X138816183Y-101033951D01*
X138825137Y-101032978D01*
X138828000Y-101032081D01*
X138911046Y-101023646D01*
X138953809Y-101019000D01*
X139030311Y-101019000D01*
X139137270Y-101036707D01*
X139137270Y-101036707D01*
G37*
G36*
X141677270Y-101036707D02*
G01*
X141801689Y-101055968D01*
X141806690Y-101058132D01*
X141815865Y-101059651D01*
X141888903Y-101093709D01*
X141957312Y-101123313D01*
X141967129Y-101130187D01*
X141983440Y-101137793D01*
X142042726Y-101183121D01*
X142098929Y-101222474D01*
X142111276Y-101235530D01*
X142130327Y-101250096D01*
X142174657Y-101302554D01*
X142217715Y-101348086D01*
X142230335Y-101368439D01*
X142249671Y-101391321D01*
X142278930Y-101446816D01*
X142308819Y-101495022D01*
X142319150Y-101523099D01*
X142335905Y-101554879D01*
X142350983Y-101609619D01*
X142368516Y-101657272D01*
X142373882Y-101692753D01*
X142385006Y-101733139D01*
X142387666Y-101783903D01*
X142394368Y-101828216D01*
X142392178Y-101869995D01*
X142394683Y-101917784D01*
X142387354Y-101962056D01*
X142385320Y-102000863D01*
X142373272Y-102047117D01*
X142364484Y-102100200D01*
X142350035Y-102136325D01*
X142341741Y-102168167D01*
X142318009Y-102216396D01*
X142295819Y-102271876D01*
X142277303Y-102299121D01*
X142265413Y-102323285D01*
X142228825Y-102370454D01*
X142191890Y-102424802D01*
X142172296Y-102443332D01*
X142159447Y-102459896D01*
X142109605Y-102502616D01*
X142057548Y-102551844D01*
X142039557Y-102562654D01*
X142028185Y-102572401D01*
X141965589Y-102607098D01*
X141899059Y-102647074D01*
X141884838Y-102651860D01*
X141876972Y-102656220D01*
X141802991Y-102679404D01*
X141723817Y-102706049D01*
X141714863Y-102707022D01*
X141712000Y-102707919D01*
X141628954Y-102716354D01*
X141586191Y-102721000D01*
X141509689Y-102721000D01*
X141402730Y-102703293D01*
X141278311Y-102684032D01*
X141273310Y-102681868D01*
X141264135Y-102680349D01*
X141191097Y-102646291D01*
X141122688Y-102616687D01*
X141112871Y-102609813D01*
X141096560Y-102602207D01*
X141037274Y-102556879D01*
X140981071Y-102517526D01*
X140968724Y-102504470D01*
X140949673Y-102489904D01*
X140905343Y-102437446D01*
X140862285Y-102391914D01*
X140849665Y-102371561D01*
X140830329Y-102348679D01*
X140801070Y-102293184D01*
X140771181Y-102244978D01*
X140760850Y-102216901D01*
X140744095Y-102185121D01*
X140729017Y-102130381D01*
X140711484Y-102082728D01*
X140706118Y-102047247D01*
X140694994Y-102006861D01*
X140692334Y-101956097D01*
X140685632Y-101911784D01*
X140687822Y-101870005D01*
X140685317Y-101822216D01*
X140692646Y-101777944D01*
X140694680Y-101739137D01*
X140706728Y-101692883D01*
X140715516Y-101639800D01*
X140729965Y-101603675D01*
X140738259Y-101571833D01*
X140761991Y-101523604D01*
X140784181Y-101468124D01*
X140802697Y-101440879D01*
X140814587Y-101416715D01*
X140851175Y-101369546D01*
X140888110Y-101315198D01*
X140907704Y-101296668D01*
X140920553Y-101280104D01*
X140970395Y-101237384D01*
X141022452Y-101188156D01*
X141040443Y-101177346D01*
X141051815Y-101167599D01*
X141114411Y-101132902D01*
X141180941Y-101092926D01*
X141195162Y-101088140D01*
X141203028Y-101083780D01*
X141277009Y-101060596D01*
X141356183Y-101033951D01*
X141365137Y-101032978D01*
X141368000Y-101032081D01*
X141451046Y-101023646D01*
X141493809Y-101019000D01*
X141570311Y-101019000D01*
X141677270Y-101036707D01*
X141677270Y-101036707D01*
G37*
G36*
X144217270Y-101036707D02*
G01*
X144341689Y-101055968D01*
X144346690Y-101058132D01*
X144355865Y-101059651D01*
X144428903Y-101093709D01*
X144497312Y-101123313D01*
X144507129Y-101130187D01*
X144523440Y-101137793D01*
X144582726Y-101183121D01*
X144638929Y-101222474D01*
X144651276Y-101235530D01*
X144670327Y-101250096D01*
X144714657Y-101302554D01*
X144757715Y-101348086D01*
X144770335Y-101368439D01*
X144789671Y-101391321D01*
X144818930Y-101446816D01*
X144848819Y-101495022D01*
X144859150Y-101523099D01*
X144875905Y-101554879D01*
X144890983Y-101609619D01*
X144908516Y-101657272D01*
X144913882Y-101692753D01*
X144925006Y-101733139D01*
X144927666Y-101783903D01*
X144934368Y-101828216D01*
X144932178Y-101869995D01*
X144934683Y-101917784D01*
X144927354Y-101962056D01*
X144925320Y-102000863D01*
X144913272Y-102047117D01*
X144904484Y-102100200D01*
X144890035Y-102136325D01*
X144881741Y-102168167D01*
X144858009Y-102216396D01*
X144835819Y-102271876D01*
X144817303Y-102299121D01*
X144805413Y-102323285D01*
X144768825Y-102370454D01*
X144731890Y-102424802D01*
X144712296Y-102443332D01*
X144699447Y-102459896D01*
X144649605Y-102502616D01*
X144597548Y-102551844D01*
X144579557Y-102562654D01*
X144568185Y-102572401D01*
X144505589Y-102607098D01*
X144439059Y-102647074D01*
X144424838Y-102651860D01*
X144416972Y-102656220D01*
X144342991Y-102679404D01*
X144263817Y-102706049D01*
X144254863Y-102707022D01*
X144252000Y-102707919D01*
X144168954Y-102716354D01*
X144126191Y-102721000D01*
X144049689Y-102721000D01*
X143942730Y-102703293D01*
X143818311Y-102684032D01*
X143813310Y-102681868D01*
X143804135Y-102680349D01*
X143731097Y-102646291D01*
X143662688Y-102616687D01*
X143652871Y-102609813D01*
X143636560Y-102602207D01*
X143577274Y-102556879D01*
X143521071Y-102517526D01*
X143508724Y-102504470D01*
X143489673Y-102489904D01*
X143445343Y-102437446D01*
X143402285Y-102391914D01*
X143389665Y-102371561D01*
X143370329Y-102348679D01*
X143341070Y-102293184D01*
X143311181Y-102244978D01*
X143300850Y-102216901D01*
X143284095Y-102185121D01*
X143269017Y-102130381D01*
X143251484Y-102082728D01*
X143246118Y-102047247D01*
X143234994Y-102006861D01*
X143232334Y-101956097D01*
X143225632Y-101911784D01*
X143227822Y-101870005D01*
X143225317Y-101822216D01*
X143232646Y-101777944D01*
X143234680Y-101739137D01*
X143246728Y-101692883D01*
X143255516Y-101639800D01*
X143269965Y-101603675D01*
X143278259Y-101571833D01*
X143301991Y-101523604D01*
X143324181Y-101468124D01*
X143342697Y-101440879D01*
X143354587Y-101416715D01*
X143391175Y-101369546D01*
X143428110Y-101315198D01*
X143447704Y-101296668D01*
X143460553Y-101280104D01*
X143510395Y-101237384D01*
X143562452Y-101188156D01*
X143580443Y-101177346D01*
X143591815Y-101167599D01*
X143654411Y-101132902D01*
X143720941Y-101092926D01*
X143735162Y-101088140D01*
X143743028Y-101083780D01*
X143817009Y-101060596D01*
X143896183Y-101033951D01*
X143905137Y-101032978D01*
X143908000Y-101032081D01*
X143991046Y-101023646D01*
X144033809Y-101019000D01*
X144110311Y-101019000D01*
X144217270Y-101036707D01*
X144217270Y-101036707D01*
G37*
G36*
X126437270Y-101036707D02*
G01*
X126561689Y-101055968D01*
X126566690Y-101058132D01*
X126575865Y-101059651D01*
X126648903Y-101093709D01*
X126717312Y-101123313D01*
X126727129Y-101130187D01*
X126743440Y-101137793D01*
X126802726Y-101183121D01*
X126858929Y-101222474D01*
X126871276Y-101235530D01*
X126890327Y-101250096D01*
X126934657Y-101302554D01*
X126977715Y-101348086D01*
X126990335Y-101368439D01*
X127009671Y-101391321D01*
X127038930Y-101446816D01*
X127068819Y-101495022D01*
X127079150Y-101523099D01*
X127095905Y-101554879D01*
X127110983Y-101609619D01*
X127128516Y-101657272D01*
X127133882Y-101692753D01*
X127145006Y-101733139D01*
X127147666Y-101783903D01*
X127154368Y-101828216D01*
X127152178Y-101869995D01*
X127154683Y-101917784D01*
X127147354Y-101962056D01*
X127145320Y-102000863D01*
X127133272Y-102047117D01*
X127124484Y-102100200D01*
X127110035Y-102136325D01*
X127101741Y-102168167D01*
X127078009Y-102216396D01*
X127055819Y-102271876D01*
X127037303Y-102299121D01*
X127025413Y-102323285D01*
X126988825Y-102370454D01*
X126951890Y-102424802D01*
X126932296Y-102443332D01*
X126919447Y-102459896D01*
X126869605Y-102502616D01*
X126817548Y-102551844D01*
X126799557Y-102562654D01*
X126788185Y-102572401D01*
X126725589Y-102607098D01*
X126659059Y-102647074D01*
X126644838Y-102651860D01*
X126636972Y-102656220D01*
X126562991Y-102679404D01*
X126483817Y-102706049D01*
X126474863Y-102707022D01*
X126472000Y-102707919D01*
X126388954Y-102716354D01*
X126346191Y-102721000D01*
X126269689Y-102721000D01*
X126162730Y-102703293D01*
X126038311Y-102684032D01*
X126033310Y-102681868D01*
X126024135Y-102680349D01*
X125951097Y-102646291D01*
X125882688Y-102616687D01*
X125872871Y-102609813D01*
X125856560Y-102602207D01*
X125797274Y-102556879D01*
X125741071Y-102517526D01*
X125728724Y-102504470D01*
X125709673Y-102489904D01*
X125665343Y-102437446D01*
X125622285Y-102391914D01*
X125609665Y-102371561D01*
X125590329Y-102348679D01*
X125561070Y-102293184D01*
X125531181Y-102244978D01*
X125520850Y-102216901D01*
X125504095Y-102185121D01*
X125489017Y-102130381D01*
X125471484Y-102082728D01*
X125466118Y-102047247D01*
X125454994Y-102006861D01*
X125452334Y-101956097D01*
X125445632Y-101911784D01*
X125447822Y-101870005D01*
X125445317Y-101822216D01*
X125452646Y-101777944D01*
X125454680Y-101739137D01*
X125466728Y-101692883D01*
X125475516Y-101639800D01*
X125489965Y-101603675D01*
X125498259Y-101571833D01*
X125521991Y-101523604D01*
X125544181Y-101468124D01*
X125562697Y-101440879D01*
X125574587Y-101416715D01*
X125611175Y-101369546D01*
X125648110Y-101315198D01*
X125667704Y-101296668D01*
X125680553Y-101280104D01*
X125730395Y-101237384D01*
X125782452Y-101188156D01*
X125800443Y-101177346D01*
X125811815Y-101167599D01*
X125874411Y-101132902D01*
X125940941Y-101092926D01*
X125955162Y-101088140D01*
X125963028Y-101083780D01*
X126037009Y-101060596D01*
X126116183Y-101033951D01*
X126125137Y-101032978D01*
X126128000Y-101032081D01*
X126211046Y-101023646D01*
X126253809Y-101019000D01*
X126330311Y-101019000D01*
X126437270Y-101036707D01*
X126437270Y-101036707D01*
G37*
G36*
X123897270Y-101036707D02*
G01*
X124021689Y-101055968D01*
X124026690Y-101058132D01*
X124035865Y-101059651D01*
X124108903Y-101093709D01*
X124177312Y-101123313D01*
X124187129Y-101130187D01*
X124203440Y-101137793D01*
X124262726Y-101183121D01*
X124318929Y-101222474D01*
X124331276Y-101235530D01*
X124350327Y-101250096D01*
X124394657Y-101302554D01*
X124437715Y-101348086D01*
X124450335Y-101368439D01*
X124469671Y-101391321D01*
X124498930Y-101446816D01*
X124528819Y-101495022D01*
X124539150Y-101523099D01*
X124555905Y-101554879D01*
X124570983Y-101609619D01*
X124588516Y-101657272D01*
X124593882Y-101692753D01*
X124605006Y-101733139D01*
X124607666Y-101783903D01*
X124614368Y-101828216D01*
X124612178Y-101869995D01*
X124614683Y-101917784D01*
X124607354Y-101962056D01*
X124605320Y-102000863D01*
X124593272Y-102047117D01*
X124584484Y-102100200D01*
X124570035Y-102136325D01*
X124561741Y-102168167D01*
X124538009Y-102216396D01*
X124515819Y-102271876D01*
X124497303Y-102299121D01*
X124485413Y-102323285D01*
X124448825Y-102370454D01*
X124411890Y-102424802D01*
X124392296Y-102443332D01*
X124379447Y-102459896D01*
X124329605Y-102502616D01*
X124277548Y-102551844D01*
X124259557Y-102562654D01*
X124248185Y-102572401D01*
X124185589Y-102607098D01*
X124119059Y-102647074D01*
X124104838Y-102651860D01*
X124096972Y-102656220D01*
X124022991Y-102679404D01*
X123943817Y-102706049D01*
X123934863Y-102707022D01*
X123932000Y-102707919D01*
X123848954Y-102716354D01*
X123806191Y-102721000D01*
X123729689Y-102721000D01*
X123622730Y-102703293D01*
X123498311Y-102684032D01*
X123493310Y-102681868D01*
X123484135Y-102680349D01*
X123411097Y-102646291D01*
X123342688Y-102616687D01*
X123332871Y-102609813D01*
X123316560Y-102602207D01*
X123257274Y-102556879D01*
X123201071Y-102517526D01*
X123188724Y-102504470D01*
X123169673Y-102489904D01*
X123125343Y-102437446D01*
X123082285Y-102391914D01*
X123069665Y-102371561D01*
X123050329Y-102348679D01*
X123021070Y-102293184D01*
X122991181Y-102244978D01*
X122980850Y-102216901D01*
X122964095Y-102185121D01*
X122949017Y-102130381D01*
X122931484Y-102082728D01*
X122926118Y-102047247D01*
X122914994Y-102006861D01*
X122912334Y-101956097D01*
X122905632Y-101911784D01*
X122907822Y-101870005D01*
X122905317Y-101822216D01*
X122912646Y-101777944D01*
X122914680Y-101739137D01*
X122926728Y-101692883D01*
X122935516Y-101639800D01*
X122949965Y-101603675D01*
X122958259Y-101571833D01*
X122981991Y-101523604D01*
X123004181Y-101468124D01*
X123022697Y-101440879D01*
X123034587Y-101416715D01*
X123071175Y-101369546D01*
X123108110Y-101315198D01*
X123127704Y-101296668D01*
X123140553Y-101280104D01*
X123190395Y-101237384D01*
X123242452Y-101188156D01*
X123260443Y-101177346D01*
X123271815Y-101167599D01*
X123334411Y-101132902D01*
X123400941Y-101092926D01*
X123415162Y-101088140D01*
X123423028Y-101083780D01*
X123497009Y-101060596D01*
X123576183Y-101033951D01*
X123585137Y-101032978D01*
X123588000Y-101032081D01*
X123671046Y-101023646D01*
X123713809Y-101019000D01*
X123790311Y-101019000D01*
X123897270Y-101036707D01*
X123897270Y-101036707D01*
G37*
G36*
X156917270Y-101036707D02*
G01*
X157041689Y-101055968D01*
X157046690Y-101058132D01*
X157055865Y-101059651D01*
X157128903Y-101093709D01*
X157197312Y-101123313D01*
X157207129Y-101130187D01*
X157223440Y-101137793D01*
X157282726Y-101183121D01*
X157338929Y-101222474D01*
X157351276Y-101235530D01*
X157370327Y-101250096D01*
X157414657Y-101302554D01*
X157457715Y-101348086D01*
X157470335Y-101368439D01*
X157489671Y-101391321D01*
X157518930Y-101446816D01*
X157548819Y-101495022D01*
X157559150Y-101523099D01*
X157575905Y-101554879D01*
X157590983Y-101609619D01*
X157608516Y-101657272D01*
X157613882Y-101692753D01*
X157625006Y-101733139D01*
X157627666Y-101783903D01*
X157634368Y-101828216D01*
X157632178Y-101869995D01*
X157634683Y-101917784D01*
X157627354Y-101962056D01*
X157625320Y-102000863D01*
X157613272Y-102047117D01*
X157604484Y-102100200D01*
X157590035Y-102136325D01*
X157581741Y-102168167D01*
X157558009Y-102216396D01*
X157535819Y-102271876D01*
X157517303Y-102299121D01*
X157505413Y-102323285D01*
X157468825Y-102370454D01*
X157431890Y-102424802D01*
X157412296Y-102443332D01*
X157399447Y-102459896D01*
X157349605Y-102502616D01*
X157297548Y-102551844D01*
X157279557Y-102562654D01*
X157268185Y-102572401D01*
X157205589Y-102607098D01*
X157139059Y-102647074D01*
X157124838Y-102651860D01*
X157116972Y-102656220D01*
X157042991Y-102679404D01*
X156963817Y-102706049D01*
X156954863Y-102707022D01*
X156952000Y-102707919D01*
X156868954Y-102716354D01*
X156826191Y-102721000D01*
X156749689Y-102721000D01*
X156642730Y-102703293D01*
X156518311Y-102684032D01*
X156513310Y-102681868D01*
X156504135Y-102680349D01*
X156431097Y-102646291D01*
X156362688Y-102616687D01*
X156352871Y-102609813D01*
X156336560Y-102602207D01*
X156277274Y-102556879D01*
X156221071Y-102517526D01*
X156208724Y-102504470D01*
X156189673Y-102489904D01*
X156145343Y-102437446D01*
X156102285Y-102391914D01*
X156089665Y-102371561D01*
X156070329Y-102348679D01*
X156041070Y-102293184D01*
X156011181Y-102244978D01*
X156000850Y-102216901D01*
X155984095Y-102185121D01*
X155969017Y-102130381D01*
X155951484Y-102082728D01*
X155946118Y-102047247D01*
X155934994Y-102006861D01*
X155932334Y-101956097D01*
X155925632Y-101911784D01*
X155927822Y-101870005D01*
X155925317Y-101822216D01*
X155932646Y-101777944D01*
X155934680Y-101739137D01*
X155946728Y-101692883D01*
X155955516Y-101639800D01*
X155969965Y-101603675D01*
X155978259Y-101571833D01*
X156001991Y-101523604D01*
X156024181Y-101468124D01*
X156042697Y-101440879D01*
X156054587Y-101416715D01*
X156091175Y-101369546D01*
X156128110Y-101315198D01*
X156147704Y-101296668D01*
X156160553Y-101280104D01*
X156210395Y-101237384D01*
X156262452Y-101188156D01*
X156280443Y-101177346D01*
X156291815Y-101167599D01*
X156354411Y-101132902D01*
X156420941Y-101092926D01*
X156435162Y-101088140D01*
X156443028Y-101083780D01*
X156517009Y-101060596D01*
X156596183Y-101033951D01*
X156605137Y-101032978D01*
X156608000Y-101032081D01*
X156691046Y-101023646D01*
X156733809Y-101019000D01*
X156810311Y-101019000D01*
X156917270Y-101036707D01*
X156917270Y-101036707D01*
G37*
G36*
X154377270Y-101036707D02*
G01*
X154501689Y-101055968D01*
X154506690Y-101058132D01*
X154515865Y-101059651D01*
X154588903Y-101093709D01*
X154657312Y-101123313D01*
X154667129Y-101130187D01*
X154683440Y-101137793D01*
X154742726Y-101183121D01*
X154798929Y-101222474D01*
X154811276Y-101235530D01*
X154830327Y-101250096D01*
X154874657Y-101302554D01*
X154917715Y-101348086D01*
X154930335Y-101368439D01*
X154949671Y-101391321D01*
X154978930Y-101446816D01*
X155008819Y-101495022D01*
X155019150Y-101523099D01*
X155035905Y-101554879D01*
X155050983Y-101609619D01*
X155068516Y-101657272D01*
X155073882Y-101692753D01*
X155085006Y-101733139D01*
X155087666Y-101783903D01*
X155094368Y-101828216D01*
X155092178Y-101869995D01*
X155094683Y-101917784D01*
X155087354Y-101962056D01*
X155085320Y-102000863D01*
X155073272Y-102047117D01*
X155064484Y-102100200D01*
X155050035Y-102136325D01*
X155041741Y-102168167D01*
X155018009Y-102216396D01*
X154995819Y-102271876D01*
X154977303Y-102299121D01*
X154965413Y-102323285D01*
X154928825Y-102370454D01*
X154891890Y-102424802D01*
X154872296Y-102443332D01*
X154859447Y-102459896D01*
X154809605Y-102502616D01*
X154757548Y-102551844D01*
X154739557Y-102562654D01*
X154728185Y-102572401D01*
X154665589Y-102607098D01*
X154599059Y-102647074D01*
X154584838Y-102651860D01*
X154576972Y-102656220D01*
X154502991Y-102679404D01*
X154423817Y-102706049D01*
X154414863Y-102707022D01*
X154412000Y-102707919D01*
X154328954Y-102716354D01*
X154286191Y-102721000D01*
X154209689Y-102721000D01*
X154102730Y-102703293D01*
X153978311Y-102684032D01*
X153973310Y-102681868D01*
X153964135Y-102680349D01*
X153891097Y-102646291D01*
X153822688Y-102616687D01*
X153812871Y-102609813D01*
X153796560Y-102602207D01*
X153737274Y-102556879D01*
X153681071Y-102517526D01*
X153668724Y-102504470D01*
X153649673Y-102489904D01*
X153605343Y-102437446D01*
X153562285Y-102391914D01*
X153549665Y-102371561D01*
X153530329Y-102348679D01*
X153501070Y-102293184D01*
X153471181Y-102244978D01*
X153460850Y-102216901D01*
X153444095Y-102185121D01*
X153429017Y-102130381D01*
X153411484Y-102082728D01*
X153406118Y-102047247D01*
X153394994Y-102006861D01*
X153392334Y-101956097D01*
X153385632Y-101911784D01*
X153387822Y-101870005D01*
X153385317Y-101822216D01*
X153392646Y-101777944D01*
X153394680Y-101739137D01*
X153406728Y-101692883D01*
X153415516Y-101639800D01*
X153429965Y-101603675D01*
X153438259Y-101571833D01*
X153461991Y-101523604D01*
X153484181Y-101468124D01*
X153502697Y-101440879D01*
X153514587Y-101416715D01*
X153551175Y-101369546D01*
X153588110Y-101315198D01*
X153607704Y-101296668D01*
X153620553Y-101280104D01*
X153670395Y-101237384D01*
X153722452Y-101188156D01*
X153740443Y-101177346D01*
X153751815Y-101167599D01*
X153814411Y-101132902D01*
X153880941Y-101092926D01*
X153895162Y-101088140D01*
X153903028Y-101083780D01*
X153977009Y-101060596D01*
X154056183Y-101033951D01*
X154065137Y-101032978D01*
X154068000Y-101032081D01*
X154151046Y-101023646D01*
X154193809Y-101019000D01*
X154270311Y-101019000D01*
X154377270Y-101036707D01*
X154377270Y-101036707D01*
G37*
G36*
X149297270Y-101036707D02*
G01*
X149421689Y-101055968D01*
X149426690Y-101058132D01*
X149435865Y-101059651D01*
X149508903Y-101093709D01*
X149577312Y-101123313D01*
X149587129Y-101130187D01*
X149603440Y-101137793D01*
X149662726Y-101183121D01*
X149718929Y-101222474D01*
X149731276Y-101235530D01*
X149750327Y-101250096D01*
X149794657Y-101302554D01*
X149837715Y-101348086D01*
X149850335Y-101368439D01*
X149869671Y-101391321D01*
X149898930Y-101446816D01*
X149928819Y-101495022D01*
X149939150Y-101523099D01*
X149955905Y-101554879D01*
X149970983Y-101609619D01*
X149988516Y-101657272D01*
X149993882Y-101692753D01*
X150005006Y-101733139D01*
X150007666Y-101783903D01*
X150014368Y-101828216D01*
X150012178Y-101869995D01*
X150014683Y-101917784D01*
X150007354Y-101962056D01*
X150005320Y-102000863D01*
X149993272Y-102047117D01*
X149984484Y-102100200D01*
X149970035Y-102136325D01*
X149961741Y-102168167D01*
X149938009Y-102216396D01*
X149915819Y-102271876D01*
X149897303Y-102299121D01*
X149885413Y-102323285D01*
X149848825Y-102370454D01*
X149811890Y-102424802D01*
X149792296Y-102443332D01*
X149779447Y-102459896D01*
X149729605Y-102502616D01*
X149677548Y-102551844D01*
X149659557Y-102562654D01*
X149648185Y-102572401D01*
X149585589Y-102607098D01*
X149519059Y-102647074D01*
X149504838Y-102651860D01*
X149496972Y-102656220D01*
X149422991Y-102679404D01*
X149343817Y-102706049D01*
X149334863Y-102707022D01*
X149332000Y-102707919D01*
X149248954Y-102716354D01*
X149206191Y-102721000D01*
X149129689Y-102721000D01*
X149022730Y-102703293D01*
X148898311Y-102684032D01*
X148893310Y-102681868D01*
X148884135Y-102680349D01*
X148811097Y-102646291D01*
X148742688Y-102616687D01*
X148732871Y-102609813D01*
X148716560Y-102602207D01*
X148657274Y-102556879D01*
X148601071Y-102517526D01*
X148588724Y-102504470D01*
X148569673Y-102489904D01*
X148525343Y-102437446D01*
X148482285Y-102391914D01*
X148469665Y-102371561D01*
X148450329Y-102348679D01*
X148421070Y-102293184D01*
X148391181Y-102244978D01*
X148380850Y-102216901D01*
X148364095Y-102185121D01*
X148349017Y-102130381D01*
X148331484Y-102082728D01*
X148326118Y-102047247D01*
X148314994Y-102006861D01*
X148312334Y-101956097D01*
X148305632Y-101911784D01*
X148307822Y-101870005D01*
X148305317Y-101822216D01*
X148312646Y-101777944D01*
X148314680Y-101739137D01*
X148326728Y-101692883D01*
X148335516Y-101639800D01*
X148349965Y-101603675D01*
X148358259Y-101571833D01*
X148381991Y-101523604D01*
X148404181Y-101468124D01*
X148422697Y-101440879D01*
X148434587Y-101416715D01*
X148471175Y-101369546D01*
X148508110Y-101315198D01*
X148527704Y-101296668D01*
X148540553Y-101280104D01*
X148590395Y-101237384D01*
X148642452Y-101188156D01*
X148660443Y-101177346D01*
X148671815Y-101167599D01*
X148734411Y-101132902D01*
X148800941Y-101092926D01*
X148815162Y-101088140D01*
X148823028Y-101083780D01*
X148897009Y-101060596D01*
X148976183Y-101033951D01*
X148985137Y-101032978D01*
X148988000Y-101032081D01*
X149071046Y-101023646D01*
X149113809Y-101019000D01*
X149190311Y-101019000D01*
X149297270Y-101036707D01*
X149297270Y-101036707D01*
G37*
G36*
X151837270Y-101036707D02*
G01*
X151961689Y-101055968D01*
X151966690Y-101058132D01*
X151975865Y-101059651D01*
X152048903Y-101093709D01*
X152117312Y-101123313D01*
X152127129Y-101130187D01*
X152143440Y-101137793D01*
X152202726Y-101183121D01*
X152258929Y-101222474D01*
X152271276Y-101235530D01*
X152290327Y-101250096D01*
X152334657Y-101302554D01*
X152377715Y-101348086D01*
X152390335Y-101368439D01*
X152409671Y-101391321D01*
X152438930Y-101446816D01*
X152468819Y-101495022D01*
X152479150Y-101523099D01*
X152495905Y-101554879D01*
X152510983Y-101609619D01*
X152528516Y-101657272D01*
X152533882Y-101692753D01*
X152545006Y-101733139D01*
X152547666Y-101783903D01*
X152554368Y-101828216D01*
X152552178Y-101869995D01*
X152554683Y-101917784D01*
X152547354Y-101962056D01*
X152545320Y-102000863D01*
X152533272Y-102047117D01*
X152524484Y-102100200D01*
X152510035Y-102136325D01*
X152501741Y-102168167D01*
X152478009Y-102216396D01*
X152455819Y-102271876D01*
X152437303Y-102299121D01*
X152425413Y-102323285D01*
X152388825Y-102370454D01*
X152351890Y-102424802D01*
X152332296Y-102443332D01*
X152319447Y-102459896D01*
X152269605Y-102502616D01*
X152217548Y-102551844D01*
X152199557Y-102562654D01*
X152188185Y-102572401D01*
X152125589Y-102607098D01*
X152059059Y-102647074D01*
X152044838Y-102651860D01*
X152036972Y-102656220D01*
X151962991Y-102679404D01*
X151883817Y-102706049D01*
X151874863Y-102707022D01*
X151872000Y-102707919D01*
X151788954Y-102716354D01*
X151746191Y-102721000D01*
X151669689Y-102721000D01*
X151562730Y-102703293D01*
X151438311Y-102684032D01*
X151433310Y-102681868D01*
X151424135Y-102680349D01*
X151351097Y-102646291D01*
X151282688Y-102616687D01*
X151272871Y-102609813D01*
X151256560Y-102602207D01*
X151197274Y-102556879D01*
X151141071Y-102517526D01*
X151128724Y-102504470D01*
X151109673Y-102489904D01*
X151065343Y-102437446D01*
X151022285Y-102391914D01*
X151009665Y-102371561D01*
X150990329Y-102348679D01*
X150961070Y-102293184D01*
X150931181Y-102244978D01*
X150920850Y-102216901D01*
X150904095Y-102185121D01*
X150889017Y-102130381D01*
X150871484Y-102082728D01*
X150866118Y-102047247D01*
X150854994Y-102006861D01*
X150852334Y-101956097D01*
X150845632Y-101911784D01*
X150847822Y-101870005D01*
X150845317Y-101822216D01*
X150852646Y-101777944D01*
X150854680Y-101739137D01*
X150866728Y-101692883D01*
X150875516Y-101639800D01*
X150889965Y-101603675D01*
X150898259Y-101571833D01*
X150921991Y-101523604D01*
X150944181Y-101468124D01*
X150962697Y-101440879D01*
X150974587Y-101416715D01*
X151011175Y-101369546D01*
X151048110Y-101315198D01*
X151067704Y-101296668D01*
X151080553Y-101280104D01*
X151130395Y-101237384D01*
X151182452Y-101188156D01*
X151200443Y-101177346D01*
X151211815Y-101167599D01*
X151274411Y-101132902D01*
X151340941Y-101092926D01*
X151355162Y-101088140D01*
X151363028Y-101083780D01*
X151437009Y-101060596D01*
X151516183Y-101033951D01*
X151525137Y-101032978D01*
X151528000Y-101032081D01*
X151611046Y-101023646D01*
X151653809Y-101019000D01*
X151730311Y-101019000D01*
X151837270Y-101036707D01*
X151837270Y-101036707D01*
G37*
G36*
X146757270Y-101036707D02*
G01*
X146881689Y-101055968D01*
X146886690Y-101058132D01*
X146895865Y-101059651D01*
X146968903Y-101093709D01*
X147037312Y-101123313D01*
X147047129Y-101130187D01*
X147063440Y-101137793D01*
X147122726Y-101183121D01*
X147178929Y-101222474D01*
X147191276Y-101235530D01*
X147210327Y-101250096D01*
X147254657Y-101302554D01*
X147297715Y-101348086D01*
X147310335Y-101368439D01*
X147329671Y-101391321D01*
X147358930Y-101446816D01*
X147388819Y-101495022D01*
X147399150Y-101523099D01*
X147415905Y-101554879D01*
X147430983Y-101609619D01*
X147448516Y-101657272D01*
X147453882Y-101692753D01*
X147465006Y-101733139D01*
X147467666Y-101783903D01*
X147474368Y-101828216D01*
X147472178Y-101869995D01*
X147474683Y-101917784D01*
X147467354Y-101962056D01*
X147465320Y-102000863D01*
X147453272Y-102047117D01*
X147444484Y-102100200D01*
X147430035Y-102136325D01*
X147421741Y-102168167D01*
X147398009Y-102216396D01*
X147375819Y-102271876D01*
X147357303Y-102299121D01*
X147345413Y-102323285D01*
X147308825Y-102370454D01*
X147271890Y-102424802D01*
X147252296Y-102443332D01*
X147239447Y-102459896D01*
X147189605Y-102502616D01*
X147137548Y-102551844D01*
X147119557Y-102562654D01*
X147108185Y-102572401D01*
X147045589Y-102607098D01*
X146979059Y-102647074D01*
X146964838Y-102651860D01*
X146956972Y-102656220D01*
X146882991Y-102679404D01*
X146803817Y-102706049D01*
X146794863Y-102707022D01*
X146792000Y-102707919D01*
X146708954Y-102716354D01*
X146666191Y-102721000D01*
X146589689Y-102721000D01*
X146482730Y-102703293D01*
X146358311Y-102684032D01*
X146353310Y-102681868D01*
X146344135Y-102680349D01*
X146271097Y-102646291D01*
X146202688Y-102616687D01*
X146192871Y-102609813D01*
X146176560Y-102602207D01*
X146117274Y-102556879D01*
X146061071Y-102517526D01*
X146048724Y-102504470D01*
X146029673Y-102489904D01*
X145985343Y-102437446D01*
X145942285Y-102391914D01*
X145929665Y-102371561D01*
X145910329Y-102348679D01*
X145881070Y-102293184D01*
X145851181Y-102244978D01*
X145840850Y-102216901D01*
X145824095Y-102185121D01*
X145809017Y-102130381D01*
X145791484Y-102082728D01*
X145786118Y-102047247D01*
X145774994Y-102006861D01*
X145772334Y-101956097D01*
X145765632Y-101911784D01*
X145767822Y-101870005D01*
X145765317Y-101822216D01*
X145772646Y-101777944D01*
X145774680Y-101739137D01*
X145786728Y-101692883D01*
X145795516Y-101639800D01*
X145809965Y-101603675D01*
X145818259Y-101571833D01*
X145841991Y-101523604D01*
X145864181Y-101468124D01*
X145882697Y-101440879D01*
X145894587Y-101416715D01*
X145931175Y-101369546D01*
X145968110Y-101315198D01*
X145987704Y-101296668D01*
X146000553Y-101280104D01*
X146050395Y-101237384D01*
X146102452Y-101188156D01*
X146120443Y-101177346D01*
X146131815Y-101167599D01*
X146194411Y-101132902D01*
X146260941Y-101092926D01*
X146275162Y-101088140D01*
X146283028Y-101083780D01*
X146357009Y-101060596D01*
X146436183Y-101033951D01*
X146445137Y-101032978D01*
X146448000Y-101032081D01*
X146531046Y-101023646D01*
X146573809Y-101019000D01*
X146650311Y-101019000D01*
X146757270Y-101036707D01*
X146757270Y-101036707D01*
G37*
G36*
X160139899Y-85781959D02*
G01*
X160156769Y-85793231D01*
X160168041Y-85810101D01*
X160174448Y-85842312D01*
X160174448Y-87417688D01*
X160171999Y-87430000D01*
X160168041Y-87449899D01*
X160156769Y-87466769D01*
X160139899Y-87478041D01*
X160120000Y-87481999D01*
X160107688Y-87484448D01*
X158532312Y-87484448D01*
X158500101Y-87478041D01*
X158483231Y-87466769D01*
X158471959Y-87449899D01*
X158465552Y-87417688D01*
X158465552Y-85842312D01*
X158471959Y-85810101D01*
X158483231Y-85793231D01*
X158500101Y-85781959D01*
X158532312Y-85775552D01*
X160107688Y-85775552D01*
X160139899Y-85781959D01*
X160139899Y-85781959D01*
G37*
G36*
X156917270Y-85796707D02*
G01*
X157041689Y-85815968D01*
X157046690Y-85818132D01*
X157055865Y-85819651D01*
X157128903Y-85853709D01*
X157197312Y-85883313D01*
X157207129Y-85890187D01*
X157223440Y-85897793D01*
X157282726Y-85943121D01*
X157338929Y-85982474D01*
X157351276Y-85995530D01*
X157370327Y-86010096D01*
X157414657Y-86062554D01*
X157457715Y-86108086D01*
X157470335Y-86128439D01*
X157489671Y-86151321D01*
X157518930Y-86206816D01*
X157548819Y-86255022D01*
X157559150Y-86283099D01*
X157575905Y-86314879D01*
X157590983Y-86369619D01*
X157608516Y-86417272D01*
X157613882Y-86452753D01*
X157625006Y-86493139D01*
X157627666Y-86543903D01*
X157634368Y-86588216D01*
X157632178Y-86629995D01*
X157634683Y-86677784D01*
X157627354Y-86722056D01*
X157625320Y-86760863D01*
X157613272Y-86807117D01*
X157604484Y-86860200D01*
X157590035Y-86896325D01*
X157581741Y-86928167D01*
X157558009Y-86976396D01*
X157535819Y-87031876D01*
X157517303Y-87059121D01*
X157505413Y-87083285D01*
X157468825Y-87130454D01*
X157431890Y-87184802D01*
X157412296Y-87203332D01*
X157399447Y-87219896D01*
X157349605Y-87262616D01*
X157297548Y-87311844D01*
X157279557Y-87322654D01*
X157268185Y-87332401D01*
X157205589Y-87367098D01*
X157139059Y-87407074D01*
X157124838Y-87411860D01*
X157116972Y-87416220D01*
X157042991Y-87439404D01*
X156963817Y-87466049D01*
X156954863Y-87467022D01*
X156952000Y-87467919D01*
X156868954Y-87476354D01*
X156826191Y-87481000D01*
X156749689Y-87481000D01*
X156642730Y-87463293D01*
X156518311Y-87444032D01*
X156513310Y-87441868D01*
X156504135Y-87440349D01*
X156431097Y-87406291D01*
X156362688Y-87376687D01*
X156352871Y-87369813D01*
X156336560Y-87362207D01*
X156277274Y-87316879D01*
X156221071Y-87277526D01*
X156208724Y-87264470D01*
X156189673Y-87249904D01*
X156145343Y-87197446D01*
X156102285Y-87151914D01*
X156089665Y-87131561D01*
X156070329Y-87108679D01*
X156041070Y-87053184D01*
X156011181Y-87004978D01*
X156000850Y-86976901D01*
X155984095Y-86945121D01*
X155969017Y-86890381D01*
X155951484Y-86842728D01*
X155946118Y-86807247D01*
X155934994Y-86766861D01*
X155932334Y-86716097D01*
X155925632Y-86671784D01*
X155927822Y-86630005D01*
X155925317Y-86582216D01*
X155932646Y-86537944D01*
X155934680Y-86499137D01*
X155946728Y-86452883D01*
X155955516Y-86399800D01*
X155969965Y-86363675D01*
X155978259Y-86331833D01*
X156001991Y-86283604D01*
X156024181Y-86228124D01*
X156042697Y-86200879D01*
X156054587Y-86176715D01*
X156091175Y-86129546D01*
X156128110Y-86075198D01*
X156147704Y-86056668D01*
X156160553Y-86040104D01*
X156210395Y-85997384D01*
X156262452Y-85948156D01*
X156280443Y-85937346D01*
X156291815Y-85927599D01*
X156354411Y-85892902D01*
X156420941Y-85852926D01*
X156435162Y-85848140D01*
X156443028Y-85843780D01*
X156517009Y-85820596D01*
X156596183Y-85793951D01*
X156605137Y-85792978D01*
X156608000Y-85792081D01*
X156691046Y-85783646D01*
X156733809Y-85779000D01*
X156810311Y-85779000D01*
X156917270Y-85796707D01*
X156917270Y-85796707D01*
G37*
G36*
X136597270Y-85796707D02*
G01*
X136721689Y-85815968D01*
X136726690Y-85818132D01*
X136735865Y-85819651D01*
X136808903Y-85853709D01*
X136877312Y-85883313D01*
X136887129Y-85890187D01*
X136903440Y-85897793D01*
X136962726Y-85943121D01*
X137018929Y-85982474D01*
X137031276Y-85995530D01*
X137050327Y-86010096D01*
X137094657Y-86062554D01*
X137137715Y-86108086D01*
X137150335Y-86128439D01*
X137169671Y-86151321D01*
X137198930Y-86206816D01*
X137228819Y-86255022D01*
X137239150Y-86283099D01*
X137255905Y-86314879D01*
X137270983Y-86369619D01*
X137288516Y-86417272D01*
X137293882Y-86452753D01*
X137305006Y-86493139D01*
X137307666Y-86543903D01*
X137314368Y-86588216D01*
X137312178Y-86629995D01*
X137314683Y-86677784D01*
X137307354Y-86722056D01*
X137305320Y-86760863D01*
X137293272Y-86807117D01*
X137284484Y-86860200D01*
X137270035Y-86896325D01*
X137261741Y-86928167D01*
X137238009Y-86976396D01*
X137215819Y-87031876D01*
X137197303Y-87059121D01*
X137185413Y-87083285D01*
X137148825Y-87130454D01*
X137111890Y-87184802D01*
X137092296Y-87203332D01*
X137079447Y-87219896D01*
X137029605Y-87262616D01*
X136977548Y-87311844D01*
X136959557Y-87322654D01*
X136948185Y-87332401D01*
X136885589Y-87367098D01*
X136819059Y-87407074D01*
X136804838Y-87411860D01*
X136796972Y-87416220D01*
X136722991Y-87439404D01*
X136643817Y-87466049D01*
X136634863Y-87467022D01*
X136632000Y-87467919D01*
X136548954Y-87476354D01*
X136506191Y-87481000D01*
X136429689Y-87481000D01*
X136322730Y-87463293D01*
X136198311Y-87444032D01*
X136193310Y-87441868D01*
X136184135Y-87440349D01*
X136111097Y-87406291D01*
X136042688Y-87376687D01*
X136032871Y-87369813D01*
X136016560Y-87362207D01*
X135957274Y-87316879D01*
X135901071Y-87277526D01*
X135888724Y-87264470D01*
X135869673Y-87249904D01*
X135825343Y-87197446D01*
X135782285Y-87151914D01*
X135769665Y-87131561D01*
X135750329Y-87108679D01*
X135721070Y-87053184D01*
X135691181Y-87004978D01*
X135680850Y-86976901D01*
X135664095Y-86945121D01*
X135649017Y-86890381D01*
X135631484Y-86842728D01*
X135626118Y-86807247D01*
X135614994Y-86766861D01*
X135612334Y-86716097D01*
X135605632Y-86671784D01*
X135607822Y-86630005D01*
X135605317Y-86582216D01*
X135612646Y-86537944D01*
X135614680Y-86499137D01*
X135626728Y-86452883D01*
X135635516Y-86399800D01*
X135649965Y-86363675D01*
X135658259Y-86331833D01*
X135681991Y-86283604D01*
X135704181Y-86228124D01*
X135722697Y-86200879D01*
X135734587Y-86176715D01*
X135771175Y-86129546D01*
X135808110Y-86075198D01*
X135827704Y-86056668D01*
X135840553Y-86040104D01*
X135890395Y-85997384D01*
X135942452Y-85948156D01*
X135960443Y-85937346D01*
X135971815Y-85927599D01*
X136034411Y-85892902D01*
X136100941Y-85852926D01*
X136115162Y-85848140D01*
X136123028Y-85843780D01*
X136197009Y-85820596D01*
X136276183Y-85793951D01*
X136285137Y-85792978D01*
X136288000Y-85792081D01*
X136371046Y-85783646D01*
X136413809Y-85779000D01*
X136490311Y-85779000D01*
X136597270Y-85796707D01*
X136597270Y-85796707D01*
G37*
G36*
X134057270Y-85796707D02*
G01*
X134181689Y-85815968D01*
X134186690Y-85818132D01*
X134195865Y-85819651D01*
X134268903Y-85853709D01*
X134337312Y-85883313D01*
X134347129Y-85890187D01*
X134363440Y-85897793D01*
X134422726Y-85943121D01*
X134478929Y-85982474D01*
X134491276Y-85995530D01*
X134510327Y-86010096D01*
X134554657Y-86062554D01*
X134597715Y-86108086D01*
X134610335Y-86128439D01*
X134629671Y-86151321D01*
X134658930Y-86206816D01*
X134688819Y-86255022D01*
X134699150Y-86283099D01*
X134715905Y-86314879D01*
X134730983Y-86369619D01*
X134748516Y-86417272D01*
X134753882Y-86452753D01*
X134765006Y-86493139D01*
X134767666Y-86543903D01*
X134774368Y-86588216D01*
X134772178Y-86629995D01*
X134774683Y-86677784D01*
X134767354Y-86722056D01*
X134765320Y-86760863D01*
X134753272Y-86807117D01*
X134744484Y-86860200D01*
X134730035Y-86896325D01*
X134721741Y-86928167D01*
X134698009Y-86976396D01*
X134675819Y-87031876D01*
X134657303Y-87059121D01*
X134645413Y-87083285D01*
X134608825Y-87130454D01*
X134571890Y-87184802D01*
X134552296Y-87203332D01*
X134539447Y-87219896D01*
X134489605Y-87262616D01*
X134437548Y-87311844D01*
X134419557Y-87322654D01*
X134408185Y-87332401D01*
X134345589Y-87367098D01*
X134279059Y-87407074D01*
X134264838Y-87411860D01*
X134256972Y-87416220D01*
X134182991Y-87439404D01*
X134103817Y-87466049D01*
X134094863Y-87467022D01*
X134092000Y-87467919D01*
X134008954Y-87476354D01*
X133966191Y-87481000D01*
X133889689Y-87481000D01*
X133782730Y-87463293D01*
X133658311Y-87444032D01*
X133653310Y-87441868D01*
X133644135Y-87440349D01*
X133571097Y-87406291D01*
X133502688Y-87376687D01*
X133492871Y-87369813D01*
X133476560Y-87362207D01*
X133417274Y-87316879D01*
X133361071Y-87277526D01*
X133348724Y-87264470D01*
X133329673Y-87249904D01*
X133285343Y-87197446D01*
X133242285Y-87151914D01*
X133229665Y-87131561D01*
X133210329Y-87108679D01*
X133181070Y-87053184D01*
X133151181Y-87004978D01*
X133140850Y-86976901D01*
X133124095Y-86945121D01*
X133109017Y-86890381D01*
X133091484Y-86842728D01*
X133086118Y-86807247D01*
X133074994Y-86766861D01*
X133072334Y-86716097D01*
X133065632Y-86671784D01*
X133067822Y-86630005D01*
X133065317Y-86582216D01*
X133072646Y-86537944D01*
X133074680Y-86499137D01*
X133086728Y-86452883D01*
X133095516Y-86399800D01*
X133109965Y-86363675D01*
X133118259Y-86331833D01*
X133141991Y-86283604D01*
X133164181Y-86228124D01*
X133182697Y-86200879D01*
X133194587Y-86176715D01*
X133231175Y-86129546D01*
X133268110Y-86075198D01*
X133287704Y-86056668D01*
X133300553Y-86040104D01*
X133350395Y-85997384D01*
X133402452Y-85948156D01*
X133420443Y-85937346D01*
X133431815Y-85927599D01*
X133494411Y-85892902D01*
X133560941Y-85852926D01*
X133575162Y-85848140D01*
X133583028Y-85843780D01*
X133657009Y-85820596D01*
X133736183Y-85793951D01*
X133745137Y-85792978D01*
X133748000Y-85792081D01*
X133831046Y-85783646D01*
X133873809Y-85779000D01*
X133950311Y-85779000D01*
X134057270Y-85796707D01*
X134057270Y-85796707D01*
G37*
G36*
X154377270Y-85796707D02*
G01*
X154501689Y-85815968D01*
X154506690Y-85818132D01*
X154515865Y-85819651D01*
X154588903Y-85853709D01*
X154657312Y-85883313D01*
X154667129Y-85890187D01*
X154683440Y-85897793D01*
X154742726Y-85943121D01*
X154798929Y-85982474D01*
X154811276Y-85995530D01*
X154830327Y-86010096D01*
X154874657Y-86062554D01*
X154917715Y-86108086D01*
X154930335Y-86128439D01*
X154949671Y-86151321D01*
X154978930Y-86206816D01*
X155008819Y-86255022D01*
X155019150Y-86283099D01*
X155035905Y-86314879D01*
X155050983Y-86369619D01*
X155068516Y-86417272D01*
X155073882Y-86452753D01*
X155085006Y-86493139D01*
X155087666Y-86543903D01*
X155094368Y-86588216D01*
X155092178Y-86629995D01*
X155094683Y-86677784D01*
X155087354Y-86722056D01*
X155085320Y-86760863D01*
X155073272Y-86807117D01*
X155064484Y-86860200D01*
X155050035Y-86896325D01*
X155041741Y-86928167D01*
X155018009Y-86976396D01*
X154995819Y-87031876D01*
X154977303Y-87059121D01*
X154965413Y-87083285D01*
X154928825Y-87130454D01*
X154891890Y-87184802D01*
X154872296Y-87203332D01*
X154859447Y-87219896D01*
X154809605Y-87262616D01*
X154757548Y-87311844D01*
X154739557Y-87322654D01*
X154728185Y-87332401D01*
X154665589Y-87367098D01*
X154599059Y-87407074D01*
X154584838Y-87411860D01*
X154576972Y-87416220D01*
X154502991Y-87439404D01*
X154423817Y-87466049D01*
X154414863Y-87467022D01*
X154412000Y-87467919D01*
X154328954Y-87476354D01*
X154286191Y-87481000D01*
X154209689Y-87481000D01*
X154102730Y-87463293D01*
X153978311Y-87444032D01*
X153973310Y-87441868D01*
X153964135Y-87440349D01*
X153891097Y-87406291D01*
X153822688Y-87376687D01*
X153812871Y-87369813D01*
X153796560Y-87362207D01*
X153737274Y-87316879D01*
X153681071Y-87277526D01*
X153668724Y-87264470D01*
X153649673Y-87249904D01*
X153605343Y-87197446D01*
X153562285Y-87151914D01*
X153549665Y-87131561D01*
X153530329Y-87108679D01*
X153501070Y-87053184D01*
X153471181Y-87004978D01*
X153460850Y-86976901D01*
X153444095Y-86945121D01*
X153429017Y-86890381D01*
X153411484Y-86842728D01*
X153406118Y-86807247D01*
X153394994Y-86766861D01*
X153392334Y-86716097D01*
X153385632Y-86671784D01*
X153387822Y-86630005D01*
X153385317Y-86582216D01*
X153392646Y-86537944D01*
X153394680Y-86499137D01*
X153406728Y-86452883D01*
X153415516Y-86399800D01*
X153429965Y-86363675D01*
X153438259Y-86331833D01*
X153461991Y-86283604D01*
X153484181Y-86228124D01*
X153502697Y-86200879D01*
X153514587Y-86176715D01*
X153551175Y-86129546D01*
X153588110Y-86075198D01*
X153607704Y-86056668D01*
X153620553Y-86040104D01*
X153670395Y-85997384D01*
X153722452Y-85948156D01*
X153740443Y-85937346D01*
X153751815Y-85927599D01*
X153814411Y-85892902D01*
X153880941Y-85852926D01*
X153895162Y-85848140D01*
X153903028Y-85843780D01*
X153977009Y-85820596D01*
X154056183Y-85793951D01*
X154065137Y-85792978D01*
X154068000Y-85792081D01*
X154151046Y-85783646D01*
X154193809Y-85779000D01*
X154270311Y-85779000D01*
X154377270Y-85796707D01*
X154377270Y-85796707D01*
G37*
G36*
X131517270Y-85796707D02*
G01*
X131641689Y-85815968D01*
X131646690Y-85818132D01*
X131655865Y-85819651D01*
X131728903Y-85853709D01*
X131797312Y-85883313D01*
X131807129Y-85890187D01*
X131823440Y-85897793D01*
X131882726Y-85943121D01*
X131938929Y-85982474D01*
X131951276Y-85995530D01*
X131970327Y-86010096D01*
X132014657Y-86062554D01*
X132057715Y-86108086D01*
X132070335Y-86128439D01*
X132089671Y-86151321D01*
X132118930Y-86206816D01*
X132148819Y-86255022D01*
X132159150Y-86283099D01*
X132175905Y-86314879D01*
X132190983Y-86369619D01*
X132208516Y-86417272D01*
X132213882Y-86452753D01*
X132225006Y-86493139D01*
X132227666Y-86543903D01*
X132234368Y-86588216D01*
X132232178Y-86629995D01*
X132234683Y-86677784D01*
X132227354Y-86722056D01*
X132225320Y-86760863D01*
X132213272Y-86807117D01*
X132204484Y-86860200D01*
X132190035Y-86896325D01*
X132181741Y-86928167D01*
X132158009Y-86976396D01*
X132135819Y-87031876D01*
X132117303Y-87059121D01*
X132105413Y-87083285D01*
X132068825Y-87130454D01*
X132031890Y-87184802D01*
X132012296Y-87203332D01*
X131999447Y-87219896D01*
X131949605Y-87262616D01*
X131897548Y-87311844D01*
X131879557Y-87322654D01*
X131868185Y-87332401D01*
X131805589Y-87367098D01*
X131739059Y-87407074D01*
X131724838Y-87411860D01*
X131716972Y-87416220D01*
X131642991Y-87439404D01*
X131563817Y-87466049D01*
X131554863Y-87467022D01*
X131552000Y-87467919D01*
X131468954Y-87476354D01*
X131426191Y-87481000D01*
X131349689Y-87481000D01*
X131242730Y-87463293D01*
X131118311Y-87444032D01*
X131113310Y-87441868D01*
X131104135Y-87440349D01*
X131031097Y-87406291D01*
X130962688Y-87376687D01*
X130952871Y-87369813D01*
X130936560Y-87362207D01*
X130877274Y-87316879D01*
X130821071Y-87277526D01*
X130808724Y-87264470D01*
X130789673Y-87249904D01*
X130745343Y-87197446D01*
X130702285Y-87151914D01*
X130689665Y-87131561D01*
X130670329Y-87108679D01*
X130641070Y-87053184D01*
X130611181Y-87004978D01*
X130600850Y-86976901D01*
X130584095Y-86945121D01*
X130569017Y-86890381D01*
X130551484Y-86842728D01*
X130546118Y-86807247D01*
X130534994Y-86766861D01*
X130532334Y-86716097D01*
X130525632Y-86671784D01*
X130527822Y-86630005D01*
X130525317Y-86582216D01*
X130532646Y-86537944D01*
X130534680Y-86499137D01*
X130546728Y-86452883D01*
X130555516Y-86399800D01*
X130569965Y-86363675D01*
X130578259Y-86331833D01*
X130601991Y-86283604D01*
X130624181Y-86228124D01*
X130642697Y-86200879D01*
X130654587Y-86176715D01*
X130691175Y-86129546D01*
X130728110Y-86075198D01*
X130747704Y-86056668D01*
X130760553Y-86040104D01*
X130810395Y-85997384D01*
X130862452Y-85948156D01*
X130880443Y-85937346D01*
X130891815Y-85927599D01*
X130954411Y-85892902D01*
X131020941Y-85852926D01*
X131035162Y-85848140D01*
X131043028Y-85843780D01*
X131117009Y-85820596D01*
X131196183Y-85793951D01*
X131205137Y-85792978D01*
X131208000Y-85792081D01*
X131291046Y-85783646D01*
X131333809Y-85779000D01*
X131410311Y-85779000D01*
X131517270Y-85796707D01*
X131517270Y-85796707D01*
G37*
G36*
X151837270Y-85796707D02*
G01*
X151961689Y-85815968D01*
X151966690Y-85818132D01*
X151975865Y-85819651D01*
X152048903Y-85853709D01*
X152117312Y-85883313D01*
X152127129Y-85890187D01*
X152143440Y-85897793D01*
X152202726Y-85943121D01*
X152258929Y-85982474D01*
X152271276Y-85995530D01*
X152290327Y-86010096D01*
X152334657Y-86062554D01*
X152377715Y-86108086D01*
X152390335Y-86128439D01*
X152409671Y-86151321D01*
X152438930Y-86206816D01*
X152468819Y-86255022D01*
X152479150Y-86283099D01*
X152495905Y-86314879D01*
X152510983Y-86369619D01*
X152528516Y-86417272D01*
X152533882Y-86452753D01*
X152545006Y-86493139D01*
X152547666Y-86543903D01*
X152554368Y-86588216D01*
X152552178Y-86629995D01*
X152554683Y-86677784D01*
X152547354Y-86722056D01*
X152545320Y-86760863D01*
X152533272Y-86807117D01*
X152524484Y-86860200D01*
X152510035Y-86896325D01*
X152501741Y-86928167D01*
X152478009Y-86976396D01*
X152455819Y-87031876D01*
X152437303Y-87059121D01*
X152425413Y-87083285D01*
X152388825Y-87130454D01*
X152351890Y-87184802D01*
X152332296Y-87203332D01*
X152319447Y-87219896D01*
X152269605Y-87262616D01*
X152217548Y-87311844D01*
X152199557Y-87322654D01*
X152188185Y-87332401D01*
X152125589Y-87367098D01*
X152059059Y-87407074D01*
X152044838Y-87411860D01*
X152036972Y-87416220D01*
X151962991Y-87439404D01*
X151883817Y-87466049D01*
X151874863Y-87467022D01*
X151872000Y-87467919D01*
X151788954Y-87476354D01*
X151746191Y-87481000D01*
X151669689Y-87481000D01*
X151562730Y-87463293D01*
X151438311Y-87444032D01*
X151433310Y-87441868D01*
X151424135Y-87440349D01*
X151351097Y-87406291D01*
X151282688Y-87376687D01*
X151272871Y-87369813D01*
X151256560Y-87362207D01*
X151197274Y-87316879D01*
X151141071Y-87277526D01*
X151128724Y-87264470D01*
X151109673Y-87249904D01*
X151065343Y-87197446D01*
X151022285Y-87151914D01*
X151009665Y-87131561D01*
X150990329Y-87108679D01*
X150961070Y-87053184D01*
X150931181Y-87004978D01*
X150920850Y-86976901D01*
X150904095Y-86945121D01*
X150889017Y-86890381D01*
X150871484Y-86842728D01*
X150866118Y-86807247D01*
X150854994Y-86766861D01*
X150852334Y-86716097D01*
X150845632Y-86671784D01*
X150847822Y-86630005D01*
X150845317Y-86582216D01*
X150852646Y-86537944D01*
X150854680Y-86499137D01*
X150866728Y-86452883D01*
X150875516Y-86399800D01*
X150889965Y-86363675D01*
X150898259Y-86331833D01*
X150921991Y-86283604D01*
X150944181Y-86228124D01*
X150962697Y-86200879D01*
X150974587Y-86176715D01*
X151011175Y-86129546D01*
X151048110Y-86075198D01*
X151067704Y-86056668D01*
X151080553Y-86040104D01*
X151130395Y-85997384D01*
X151182452Y-85948156D01*
X151200443Y-85937346D01*
X151211815Y-85927599D01*
X151274411Y-85892902D01*
X151340941Y-85852926D01*
X151355162Y-85848140D01*
X151363028Y-85843780D01*
X151437009Y-85820596D01*
X151516183Y-85793951D01*
X151525137Y-85792978D01*
X151528000Y-85792081D01*
X151611046Y-85783646D01*
X151653809Y-85779000D01*
X151730311Y-85779000D01*
X151837270Y-85796707D01*
X151837270Y-85796707D01*
G37*
G36*
X128977270Y-85796707D02*
G01*
X129101689Y-85815968D01*
X129106690Y-85818132D01*
X129115865Y-85819651D01*
X129188903Y-85853709D01*
X129257312Y-85883313D01*
X129267129Y-85890187D01*
X129283440Y-85897793D01*
X129342726Y-85943121D01*
X129398929Y-85982474D01*
X129411276Y-85995530D01*
X129430327Y-86010096D01*
X129474657Y-86062554D01*
X129517715Y-86108086D01*
X129530335Y-86128439D01*
X129549671Y-86151321D01*
X129578930Y-86206816D01*
X129608819Y-86255022D01*
X129619150Y-86283099D01*
X129635905Y-86314879D01*
X129650983Y-86369619D01*
X129668516Y-86417272D01*
X129673882Y-86452753D01*
X129685006Y-86493139D01*
X129687666Y-86543903D01*
X129694368Y-86588216D01*
X129692178Y-86629995D01*
X129694683Y-86677784D01*
X129687354Y-86722056D01*
X129685320Y-86760863D01*
X129673272Y-86807117D01*
X129664484Y-86860200D01*
X129650035Y-86896325D01*
X129641741Y-86928167D01*
X129618009Y-86976396D01*
X129595819Y-87031876D01*
X129577303Y-87059121D01*
X129565413Y-87083285D01*
X129528825Y-87130454D01*
X129491890Y-87184802D01*
X129472296Y-87203332D01*
X129459447Y-87219896D01*
X129409605Y-87262616D01*
X129357548Y-87311844D01*
X129339557Y-87322654D01*
X129328185Y-87332401D01*
X129265589Y-87367098D01*
X129199059Y-87407074D01*
X129184838Y-87411860D01*
X129176972Y-87416220D01*
X129102991Y-87439404D01*
X129023817Y-87466049D01*
X129014863Y-87467022D01*
X129012000Y-87467919D01*
X128928954Y-87476354D01*
X128886191Y-87481000D01*
X128809689Y-87481000D01*
X128702730Y-87463293D01*
X128578311Y-87444032D01*
X128573310Y-87441868D01*
X128564135Y-87440349D01*
X128491097Y-87406291D01*
X128422688Y-87376687D01*
X128412871Y-87369813D01*
X128396560Y-87362207D01*
X128337274Y-87316879D01*
X128281071Y-87277526D01*
X128268724Y-87264470D01*
X128249673Y-87249904D01*
X128205343Y-87197446D01*
X128162285Y-87151914D01*
X128149665Y-87131561D01*
X128130329Y-87108679D01*
X128101070Y-87053184D01*
X128071181Y-87004978D01*
X128060850Y-86976901D01*
X128044095Y-86945121D01*
X128029017Y-86890381D01*
X128011484Y-86842728D01*
X128006118Y-86807247D01*
X127994994Y-86766861D01*
X127992334Y-86716097D01*
X127985632Y-86671784D01*
X127987822Y-86630005D01*
X127985317Y-86582216D01*
X127992646Y-86537944D01*
X127994680Y-86499137D01*
X128006728Y-86452883D01*
X128015516Y-86399800D01*
X128029965Y-86363675D01*
X128038259Y-86331833D01*
X128061991Y-86283604D01*
X128084181Y-86228124D01*
X128102697Y-86200879D01*
X128114587Y-86176715D01*
X128151175Y-86129546D01*
X128188110Y-86075198D01*
X128207704Y-86056668D01*
X128220553Y-86040104D01*
X128270395Y-85997384D01*
X128322452Y-85948156D01*
X128340443Y-85937346D01*
X128351815Y-85927599D01*
X128414411Y-85892902D01*
X128480941Y-85852926D01*
X128495162Y-85848140D01*
X128503028Y-85843780D01*
X128577009Y-85820596D01*
X128656183Y-85793951D01*
X128665137Y-85792978D01*
X128668000Y-85792081D01*
X128751046Y-85783646D01*
X128793809Y-85779000D01*
X128870311Y-85779000D01*
X128977270Y-85796707D01*
X128977270Y-85796707D01*
G37*
G36*
X139137270Y-85796707D02*
G01*
X139261689Y-85815968D01*
X139266690Y-85818132D01*
X139275865Y-85819651D01*
X139348903Y-85853709D01*
X139417312Y-85883313D01*
X139427129Y-85890187D01*
X139443440Y-85897793D01*
X139502726Y-85943121D01*
X139558929Y-85982474D01*
X139571276Y-85995530D01*
X139590327Y-86010096D01*
X139634657Y-86062554D01*
X139677715Y-86108086D01*
X139690335Y-86128439D01*
X139709671Y-86151321D01*
X139738930Y-86206816D01*
X139768819Y-86255022D01*
X139779150Y-86283099D01*
X139795905Y-86314879D01*
X139810983Y-86369619D01*
X139828516Y-86417272D01*
X139833882Y-86452753D01*
X139845006Y-86493139D01*
X139847666Y-86543903D01*
X139854368Y-86588216D01*
X139852178Y-86629995D01*
X139854683Y-86677784D01*
X139847354Y-86722056D01*
X139845320Y-86760863D01*
X139833272Y-86807117D01*
X139824484Y-86860200D01*
X139810035Y-86896325D01*
X139801741Y-86928167D01*
X139778009Y-86976396D01*
X139755819Y-87031876D01*
X139737303Y-87059121D01*
X139725413Y-87083285D01*
X139688825Y-87130454D01*
X139651890Y-87184802D01*
X139632296Y-87203332D01*
X139619447Y-87219896D01*
X139569605Y-87262616D01*
X139517548Y-87311844D01*
X139499557Y-87322654D01*
X139488185Y-87332401D01*
X139425589Y-87367098D01*
X139359059Y-87407074D01*
X139344838Y-87411860D01*
X139336972Y-87416220D01*
X139262991Y-87439404D01*
X139183817Y-87466049D01*
X139174863Y-87467022D01*
X139172000Y-87467919D01*
X139088954Y-87476354D01*
X139046191Y-87481000D01*
X138969689Y-87481000D01*
X138862730Y-87463293D01*
X138738311Y-87444032D01*
X138733310Y-87441868D01*
X138724135Y-87440349D01*
X138651097Y-87406291D01*
X138582688Y-87376687D01*
X138572871Y-87369813D01*
X138556560Y-87362207D01*
X138497274Y-87316879D01*
X138441071Y-87277526D01*
X138428724Y-87264470D01*
X138409673Y-87249904D01*
X138365343Y-87197446D01*
X138322285Y-87151914D01*
X138309665Y-87131561D01*
X138290329Y-87108679D01*
X138261070Y-87053184D01*
X138231181Y-87004978D01*
X138220850Y-86976901D01*
X138204095Y-86945121D01*
X138189017Y-86890381D01*
X138171484Y-86842728D01*
X138166118Y-86807247D01*
X138154994Y-86766861D01*
X138152334Y-86716097D01*
X138145632Y-86671784D01*
X138147822Y-86630005D01*
X138145317Y-86582216D01*
X138152646Y-86537944D01*
X138154680Y-86499137D01*
X138166728Y-86452883D01*
X138175516Y-86399800D01*
X138189965Y-86363675D01*
X138198259Y-86331833D01*
X138221991Y-86283604D01*
X138244181Y-86228124D01*
X138262697Y-86200879D01*
X138274587Y-86176715D01*
X138311175Y-86129546D01*
X138348110Y-86075198D01*
X138367704Y-86056668D01*
X138380553Y-86040104D01*
X138430395Y-85997384D01*
X138482452Y-85948156D01*
X138500443Y-85937346D01*
X138511815Y-85927599D01*
X138574411Y-85892902D01*
X138640941Y-85852926D01*
X138655162Y-85848140D01*
X138663028Y-85843780D01*
X138737009Y-85820596D01*
X138816183Y-85793951D01*
X138825137Y-85792978D01*
X138828000Y-85792081D01*
X138911046Y-85783646D01*
X138953809Y-85779000D01*
X139030311Y-85779000D01*
X139137270Y-85796707D01*
X139137270Y-85796707D01*
G37*
G36*
X146757270Y-85796707D02*
G01*
X146881689Y-85815968D01*
X146886690Y-85818132D01*
X146895865Y-85819651D01*
X146968903Y-85853709D01*
X147037312Y-85883313D01*
X147047129Y-85890187D01*
X147063440Y-85897793D01*
X147122726Y-85943121D01*
X147178929Y-85982474D01*
X147191276Y-85995530D01*
X147210327Y-86010096D01*
X147254657Y-86062554D01*
X147297715Y-86108086D01*
X147310335Y-86128439D01*
X147329671Y-86151321D01*
X147358930Y-86206816D01*
X147388819Y-86255022D01*
X147399150Y-86283099D01*
X147415905Y-86314879D01*
X147430983Y-86369619D01*
X147448516Y-86417272D01*
X147453882Y-86452753D01*
X147465006Y-86493139D01*
X147467666Y-86543903D01*
X147474368Y-86588216D01*
X147472178Y-86629995D01*
X147474683Y-86677784D01*
X147467354Y-86722056D01*
X147465320Y-86760863D01*
X147453272Y-86807117D01*
X147444484Y-86860200D01*
X147430035Y-86896325D01*
X147421741Y-86928167D01*
X147398009Y-86976396D01*
X147375819Y-87031876D01*
X147357303Y-87059121D01*
X147345413Y-87083285D01*
X147308825Y-87130454D01*
X147271890Y-87184802D01*
X147252296Y-87203332D01*
X147239447Y-87219896D01*
X147189605Y-87262616D01*
X147137548Y-87311844D01*
X147119557Y-87322654D01*
X147108185Y-87332401D01*
X147045589Y-87367098D01*
X146979059Y-87407074D01*
X146964838Y-87411860D01*
X146956972Y-87416220D01*
X146882991Y-87439404D01*
X146803817Y-87466049D01*
X146794863Y-87467022D01*
X146792000Y-87467919D01*
X146708954Y-87476354D01*
X146666191Y-87481000D01*
X146589689Y-87481000D01*
X146482730Y-87463293D01*
X146358311Y-87444032D01*
X146353310Y-87441868D01*
X146344135Y-87440349D01*
X146271097Y-87406291D01*
X146202688Y-87376687D01*
X146192871Y-87369813D01*
X146176560Y-87362207D01*
X146117274Y-87316879D01*
X146061071Y-87277526D01*
X146048724Y-87264470D01*
X146029673Y-87249904D01*
X145985343Y-87197446D01*
X145942285Y-87151914D01*
X145929665Y-87131561D01*
X145910329Y-87108679D01*
X145881070Y-87053184D01*
X145851181Y-87004978D01*
X145840850Y-86976901D01*
X145824095Y-86945121D01*
X145809017Y-86890381D01*
X145791484Y-86842728D01*
X145786118Y-86807247D01*
X145774994Y-86766861D01*
X145772334Y-86716097D01*
X145765632Y-86671784D01*
X145767822Y-86630005D01*
X145765317Y-86582216D01*
X145772646Y-86537944D01*
X145774680Y-86499137D01*
X145786728Y-86452883D01*
X145795516Y-86399800D01*
X145809965Y-86363675D01*
X145818259Y-86331833D01*
X145841991Y-86283604D01*
X145864181Y-86228124D01*
X145882697Y-86200879D01*
X145894587Y-86176715D01*
X145931175Y-86129546D01*
X145968110Y-86075198D01*
X145987704Y-86056668D01*
X146000553Y-86040104D01*
X146050395Y-85997384D01*
X146102452Y-85948156D01*
X146120443Y-85937346D01*
X146131815Y-85927599D01*
X146194411Y-85892902D01*
X146260941Y-85852926D01*
X146275162Y-85848140D01*
X146283028Y-85843780D01*
X146357009Y-85820596D01*
X146436183Y-85793951D01*
X146445137Y-85792978D01*
X146448000Y-85792081D01*
X146531046Y-85783646D01*
X146573809Y-85779000D01*
X146650311Y-85779000D01*
X146757270Y-85796707D01*
X146757270Y-85796707D01*
G37*
G36*
X126437270Y-85796707D02*
G01*
X126561689Y-85815968D01*
X126566690Y-85818132D01*
X126575865Y-85819651D01*
X126648903Y-85853709D01*
X126717312Y-85883313D01*
X126727129Y-85890187D01*
X126743440Y-85897793D01*
X126802726Y-85943121D01*
X126858929Y-85982474D01*
X126871276Y-85995530D01*
X126890327Y-86010096D01*
X126934657Y-86062554D01*
X126977715Y-86108086D01*
X126990335Y-86128439D01*
X127009671Y-86151321D01*
X127038930Y-86206816D01*
X127068819Y-86255022D01*
X127079150Y-86283099D01*
X127095905Y-86314879D01*
X127110983Y-86369619D01*
X127128516Y-86417272D01*
X127133882Y-86452753D01*
X127145006Y-86493139D01*
X127147666Y-86543903D01*
X127154368Y-86588216D01*
X127152178Y-86629995D01*
X127154683Y-86677784D01*
X127147354Y-86722056D01*
X127145320Y-86760863D01*
X127133272Y-86807117D01*
X127124484Y-86860200D01*
X127110035Y-86896325D01*
X127101741Y-86928167D01*
X127078009Y-86976396D01*
X127055819Y-87031876D01*
X127037303Y-87059121D01*
X127025413Y-87083285D01*
X126988825Y-87130454D01*
X126951890Y-87184802D01*
X126932296Y-87203332D01*
X126919447Y-87219896D01*
X126869605Y-87262616D01*
X126817548Y-87311844D01*
X126799557Y-87322654D01*
X126788185Y-87332401D01*
X126725589Y-87367098D01*
X126659059Y-87407074D01*
X126644838Y-87411860D01*
X126636972Y-87416220D01*
X126562991Y-87439404D01*
X126483817Y-87466049D01*
X126474863Y-87467022D01*
X126472000Y-87467919D01*
X126388954Y-87476354D01*
X126346191Y-87481000D01*
X126269689Y-87481000D01*
X126162730Y-87463293D01*
X126038311Y-87444032D01*
X126033310Y-87441868D01*
X126024135Y-87440349D01*
X125951097Y-87406291D01*
X125882688Y-87376687D01*
X125872871Y-87369813D01*
X125856560Y-87362207D01*
X125797274Y-87316879D01*
X125741071Y-87277526D01*
X125728724Y-87264470D01*
X125709673Y-87249904D01*
X125665343Y-87197446D01*
X125622285Y-87151914D01*
X125609665Y-87131561D01*
X125590329Y-87108679D01*
X125561070Y-87053184D01*
X125531181Y-87004978D01*
X125520850Y-86976901D01*
X125504095Y-86945121D01*
X125489017Y-86890381D01*
X125471484Y-86842728D01*
X125466118Y-86807247D01*
X125454994Y-86766861D01*
X125452334Y-86716097D01*
X125445632Y-86671784D01*
X125447822Y-86630005D01*
X125445317Y-86582216D01*
X125452646Y-86537944D01*
X125454680Y-86499137D01*
X125466728Y-86452883D01*
X125475516Y-86399800D01*
X125489965Y-86363675D01*
X125498259Y-86331833D01*
X125521991Y-86283604D01*
X125544181Y-86228124D01*
X125562697Y-86200879D01*
X125574587Y-86176715D01*
X125611175Y-86129546D01*
X125648110Y-86075198D01*
X125667704Y-86056668D01*
X125680553Y-86040104D01*
X125730395Y-85997384D01*
X125782452Y-85948156D01*
X125800443Y-85937346D01*
X125811815Y-85927599D01*
X125874411Y-85892902D01*
X125940941Y-85852926D01*
X125955162Y-85848140D01*
X125963028Y-85843780D01*
X126037009Y-85820596D01*
X126116183Y-85793951D01*
X126125137Y-85792978D01*
X126128000Y-85792081D01*
X126211046Y-85783646D01*
X126253809Y-85779000D01*
X126330311Y-85779000D01*
X126437270Y-85796707D01*
X126437270Y-85796707D01*
G37*
G36*
X144217270Y-85796707D02*
G01*
X144341689Y-85815968D01*
X144346690Y-85818132D01*
X144355865Y-85819651D01*
X144428903Y-85853709D01*
X144497312Y-85883313D01*
X144507129Y-85890187D01*
X144523440Y-85897793D01*
X144582726Y-85943121D01*
X144638929Y-85982474D01*
X144651276Y-85995530D01*
X144670327Y-86010096D01*
X144714657Y-86062554D01*
X144757715Y-86108086D01*
X144770335Y-86128439D01*
X144789671Y-86151321D01*
X144818930Y-86206816D01*
X144848819Y-86255022D01*
X144859150Y-86283099D01*
X144875905Y-86314879D01*
X144890983Y-86369619D01*
X144908516Y-86417272D01*
X144913882Y-86452753D01*
X144925006Y-86493139D01*
X144927666Y-86543903D01*
X144934368Y-86588216D01*
X144932178Y-86629995D01*
X144934683Y-86677784D01*
X144927354Y-86722056D01*
X144925320Y-86760863D01*
X144913272Y-86807117D01*
X144904484Y-86860200D01*
X144890035Y-86896325D01*
X144881741Y-86928167D01*
X144858009Y-86976396D01*
X144835819Y-87031876D01*
X144817303Y-87059121D01*
X144805413Y-87083285D01*
X144768825Y-87130454D01*
X144731890Y-87184802D01*
X144712296Y-87203332D01*
X144699447Y-87219896D01*
X144649605Y-87262616D01*
X144597548Y-87311844D01*
X144579557Y-87322654D01*
X144568185Y-87332401D01*
X144505589Y-87367098D01*
X144439059Y-87407074D01*
X144424838Y-87411860D01*
X144416972Y-87416220D01*
X144342991Y-87439404D01*
X144263817Y-87466049D01*
X144254863Y-87467022D01*
X144252000Y-87467919D01*
X144168954Y-87476354D01*
X144126191Y-87481000D01*
X144049689Y-87481000D01*
X143942730Y-87463293D01*
X143818311Y-87444032D01*
X143813310Y-87441868D01*
X143804135Y-87440349D01*
X143731097Y-87406291D01*
X143662688Y-87376687D01*
X143652871Y-87369813D01*
X143636560Y-87362207D01*
X143577274Y-87316879D01*
X143521071Y-87277526D01*
X143508724Y-87264470D01*
X143489673Y-87249904D01*
X143445343Y-87197446D01*
X143402285Y-87151914D01*
X143389665Y-87131561D01*
X143370329Y-87108679D01*
X143341070Y-87053184D01*
X143311181Y-87004978D01*
X143300850Y-86976901D01*
X143284095Y-86945121D01*
X143269017Y-86890381D01*
X143251484Y-86842728D01*
X143246118Y-86807247D01*
X143234994Y-86766861D01*
X143232334Y-86716097D01*
X143225632Y-86671784D01*
X143227822Y-86630005D01*
X143225317Y-86582216D01*
X143232646Y-86537944D01*
X143234680Y-86499137D01*
X143246728Y-86452883D01*
X143255516Y-86399800D01*
X143269965Y-86363675D01*
X143278259Y-86331833D01*
X143301991Y-86283604D01*
X143324181Y-86228124D01*
X143342697Y-86200879D01*
X143354587Y-86176715D01*
X143391175Y-86129546D01*
X143428110Y-86075198D01*
X143447704Y-86056668D01*
X143460553Y-86040104D01*
X143510395Y-85997384D01*
X143562452Y-85948156D01*
X143580443Y-85937346D01*
X143591815Y-85927599D01*
X143654411Y-85892902D01*
X143720941Y-85852926D01*
X143735162Y-85848140D01*
X143743028Y-85843780D01*
X143817009Y-85820596D01*
X143896183Y-85793951D01*
X143905137Y-85792978D01*
X143908000Y-85792081D01*
X143991046Y-85783646D01*
X144033809Y-85779000D01*
X144110311Y-85779000D01*
X144217270Y-85796707D01*
X144217270Y-85796707D01*
G37*
G36*
X123897270Y-85796707D02*
G01*
X124021689Y-85815968D01*
X124026690Y-85818132D01*
X124035865Y-85819651D01*
X124108903Y-85853709D01*
X124177312Y-85883313D01*
X124187129Y-85890187D01*
X124203440Y-85897793D01*
X124262726Y-85943121D01*
X124318929Y-85982474D01*
X124331276Y-85995530D01*
X124350327Y-86010096D01*
X124394657Y-86062554D01*
X124437715Y-86108086D01*
X124450335Y-86128439D01*
X124469671Y-86151321D01*
X124498930Y-86206816D01*
X124528819Y-86255022D01*
X124539150Y-86283099D01*
X124555905Y-86314879D01*
X124570983Y-86369619D01*
X124588516Y-86417272D01*
X124593882Y-86452753D01*
X124605006Y-86493139D01*
X124607666Y-86543903D01*
X124614368Y-86588216D01*
X124612178Y-86629995D01*
X124614683Y-86677784D01*
X124607354Y-86722056D01*
X124605320Y-86760863D01*
X124593272Y-86807117D01*
X124584484Y-86860200D01*
X124570035Y-86896325D01*
X124561741Y-86928167D01*
X124538009Y-86976396D01*
X124515819Y-87031876D01*
X124497303Y-87059121D01*
X124485413Y-87083285D01*
X124448825Y-87130454D01*
X124411890Y-87184802D01*
X124392296Y-87203332D01*
X124379447Y-87219896D01*
X124329605Y-87262616D01*
X124277548Y-87311844D01*
X124259557Y-87322654D01*
X124248185Y-87332401D01*
X124185589Y-87367098D01*
X124119059Y-87407074D01*
X124104838Y-87411860D01*
X124096972Y-87416220D01*
X124022991Y-87439404D01*
X123943817Y-87466049D01*
X123934863Y-87467022D01*
X123932000Y-87467919D01*
X123848954Y-87476354D01*
X123806191Y-87481000D01*
X123729689Y-87481000D01*
X123622730Y-87463293D01*
X123498311Y-87444032D01*
X123493310Y-87441868D01*
X123484135Y-87440349D01*
X123411097Y-87406291D01*
X123342688Y-87376687D01*
X123332871Y-87369813D01*
X123316560Y-87362207D01*
X123257274Y-87316879D01*
X123201071Y-87277526D01*
X123188724Y-87264470D01*
X123169673Y-87249904D01*
X123125343Y-87197446D01*
X123082285Y-87151914D01*
X123069665Y-87131561D01*
X123050329Y-87108679D01*
X123021070Y-87053184D01*
X122991181Y-87004978D01*
X122980850Y-86976901D01*
X122964095Y-86945121D01*
X122949017Y-86890381D01*
X122931484Y-86842728D01*
X122926118Y-86807247D01*
X122914994Y-86766861D01*
X122912334Y-86716097D01*
X122905632Y-86671784D01*
X122907822Y-86630005D01*
X122905317Y-86582216D01*
X122912646Y-86537944D01*
X122914680Y-86499137D01*
X122926728Y-86452883D01*
X122935516Y-86399800D01*
X122949965Y-86363675D01*
X122958259Y-86331833D01*
X122981991Y-86283604D01*
X123004181Y-86228124D01*
X123022697Y-86200879D01*
X123034587Y-86176715D01*
X123071175Y-86129546D01*
X123108110Y-86075198D01*
X123127704Y-86056668D01*
X123140553Y-86040104D01*
X123190395Y-85997384D01*
X123242452Y-85948156D01*
X123260443Y-85937346D01*
X123271815Y-85927599D01*
X123334411Y-85892902D01*
X123400941Y-85852926D01*
X123415162Y-85848140D01*
X123423028Y-85843780D01*
X123497009Y-85820596D01*
X123576183Y-85793951D01*
X123585137Y-85792978D01*
X123588000Y-85792081D01*
X123671046Y-85783646D01*
X123713809Y-85779000D01*
X123790311Y-85779000D01*
X123897270Y-85796707D01*
X123897270Y-85796707D01*
G37*
G36*
X141677270Y-85796707D02*
G01*
X141801689Y-85815968D01*
X141806690Y-85818132D01*
X141815865Y-85819651D01*
X141888903Y-85853709D01*
X141957312Y-85883313D01*
X141967129Y-85890187D01*
X141983440Y-85897793D01*
X142042726Y-85943121D01*
X142098929Y-85982474D01*
X142111276Y-85995530D01*
X142130327Y-86010096D01*
X142174657Y-86062554D01*
X142217715Y-86108086D01*
X142230335Y-86128439D01*
X142249671Y-86151321D01*
X142278930Y-86206816D01*
X142308819Y-86255022D01*
X142319150Y-86283099D01*
X142335905Y-86314879D01*
X142350983Y-86369619D01*
X142368516Y-86417272D01*
X142373882Y-86452753D01*
X142385006Y-86493139D01*
X142387666Y-86543903D01*
X142394368Y-86588216D01*
X142392178Y-86629995D01*
X142394683Y-86677784D01*
X142387354Y-86722056D01*
X142385320Y-86760863D01*
X142373272Y-86807117D01*
X142364484Y-86860200D01*
X142350035Y-86896325D01*
X142341741Y-86928167D01*
X142318009Y-86976396D01*
X142295819Y-87031876D01*
X142277303Y-87059121D01*
X142265413Y-87083285D01*
X142228825Y-87130454D01*
X142191890Y-87184802D01*
X142172296Y-87203332D01*
X142159447Y-87219896D01*
X142109605Y-87262616D01*
X142057548Y-87311844D01*
X142039557Y-87322654D01*
X142028185Y-87332401D01*
X141965589Y-87367098D01*
X141899059Y-87407074D01*
X141884838Y-87411860D01*
X141876972Y-87416220D01*
X141802991Y-87439404D01*
X141723817Y-87466049D01*
X141714863Y-87467022D01*
X141712000Y-87467919D01*
X141628954Y-87476354D01*
X141586191Y-87481000D01*
X141509689Y-87481000D01*
X141402730Y-87463293D01*
X141278311Y-87444032D01*
X141273310Y-87441868D01*
X141264135Y-87440349D01*
X141191097Y-87406291D01*
X141122688Y-87376687D01*
X141112871Y-87369813D01*
X141096560Y-87362207D01*
X141037274Y-87316879D01*
X140981071Y-87277526D01*
X140968724Y-87264470D01*
X140949673Y-87249904D01*
X140905343Y-87197446D01*
X140862285Y-87151914D01*
X140849665Y-87131561D01*
X140830329Y-87108679D01*
X140801070Y-87053184D01*
X140771181Y-87004978D01*
X140760850Y-86976901D01*
X140744095Y-86945121D01*
X140729017Y-86890381D01*
X140711484Y-86842728D01*
X140706118Y-86807247D01*
X140694994Y-86766861D01*
X140692334Y-86716097D01*
X140685632Y-86671784D01*
X140687822Y-86630005D01*
X140685317Y-86582216D01*
X140692646Y-86537944D01*
X140694680Y-86499137D01*
X140706728Y-86452883D01*
X140715516Y-86399800D01*
X140729965Y-86363675D01*
X140738259Y-86331833D01*
X140761991Y-86283604D01*
X140784181Y-86228124D01*
X140802697Y-86200879D01*
X140814587Y-86176715D01*
X140851175Y-86129546D01*
X140888110Y-86075198D01*
X140907704Y-86056668D01*
X140920553Y-86040104D01*
X140970395Y-85997384D01*
X141022452Y-85948156D01*
X141040443Y-85937346D01*
X141051815Y-85927599D01*
X141114411Y-85892902D01*
X141180941Y-85852926D01*
X141195162Y-85848140D01*
X141203028Y-85843780D01*
X141277009Y-85820596D01*
X141356183Y-85793951D01*
X141365137Y-85792978D01*
X141368000Y-85792081D01*
X141451046Y-85783646D01*
X141493809Y-85779000D01*
X141570311Y-85779000D01*
X141677270Y-85796707D01*
X141677270Y-85796707D01*
G37*
G36*
X149297270Y-85796707D02*
G01*
X149421689Y-85815968D01*
X149426690Y-85818132D01*
X149435865Y-85819651D01*
X149508903Y-85853709D01*
X149577312Y-85883313D01*
X149587129Y-85890187D01*
X149603440Y-85897793D01*
X149662726Y-85943121D01*
X149718929Y-85982474D01*
X149731276Y-85995530D01*
X149750327Y-86010096D01*
X149794657Y-86062554D01*
X149837715Y-86108086D01*
X149850335Y-86128439D01*
X149869671Y-86151321D01*
X149898930Y-86206816D01*
X149928819Y-86255022D01*
X149939150Y-86283099D01*
X149955905Y-86314879D01*
X149970983Y-86369619D01*
X149988516Y-86417272D01*
X149993882Y-86452753D01*
X150005006Y-86493139D01*
X150007666Y-86543903D01*
X150014368Y-86588216D01*
X150012178Y-86629995D01*
X150014683Y-86677784D01*
X150007354Y-86722056D01*
X150005320Y-86760863D01*
X149993272Y-86807117D01*
X149984484Y-86860200D01*
X149970035Y-86896325D01*
X149961741Y-86928167D01*
X149938009Y-86976396D01*
X149915819Y-87031876D01*
X149897303Y-87059121D01*
X149885413Y-87083285D01*
X149848825Y-87130454D01*
X149811890Y-87184802D01*
X149792296Y-87203332D01*
X149779447Y-87219896D01*
X149729605Y-87262616D01*
X149677548Y-87311844D01*
X149659557Y-87322654D01*
X149648185Y-87332401D01*
X149585589Y-87367098D01*
X149519059Y-87407074D01*
X149504838Y-87411860D01*
X149496972Y-87416220D01*
X149422991Y-87439404D01*
X149343817Y-87466049D01*
X149334863Y-87467022D01*
X149332000Y-87467919D01*
X149248954Y-87476354D01*
X149206191Y-87481000D01*
X149129689Y-87481000D01*
X149022730Y-87463293D01*
X148898311Y-87444032D01*
X148893310Y-87441868D01*
X148884135Y-87440349D01*
X148811097Y-87406291D01*
X148742688Y-87376687D01*
X148732871Y-87369813D01*
X148716560Y-87362207D01*
X148657274Y-87316879D01*
X148601071Y-87277526D01*
X148588724Y-87264470D01*
X148569673Y-87249904D01*
X148525343Y-87197446D01*
X148482285Y-87151914D01*
X148469665Y-87131561D01*
X148450329Y-87108679D01*
X148421070Y-87053184D01*
X148391181Y-87004978D01*
X148380850Y-86976901D01*
X148364095Y-86945121D01*
X148349017Y-86890381D01*
X148331484Y-86842728D01*
X148326118Y-86807247D01*
X148314994Y-86766861D01*
X148312334Y-86716097D01*
X148305632Y-86671784D01*
X148307822Y-86630005D01*
X148305317Y-86582216D01*
X148312646Y-86537944D01*
X148314680Y-86499137D01*
X148326728Y-86452883D01*
X148335516Y-86399800D01*
X148349965Y-86363675D01*
X148358259Y-86331833D01*
X148381991Y-86283604D01*
X148404181Y-86228124D01*
X148422697Y-86200879D01*
X148434587Y-86176715D01*
X148471175Y-86129546D01*
X148508110Y-86075198D01*
X148527704Y-86056668D01*
X148540553Y-86040104D01*
X148590395Y-85997384D01*
X148642452Y-85948156D01*
X148660443Y-85937346D01*
X148671815Y-85927599D01*
X148734411Y-85892902D01*
X148800941Y-85852926D01*
X148815162Y-85848140D01*
X148823028Y-85843780D01*
X148897009Y-85820596D01*
X148976183Y-85793951D01*
X148985137Y-85792978D01*
X148988000Y-85792081D01*
X149071046Y-85783646D01*
X149113809Y-85779000D01*
X149190311Y-85779000D01*
X149297270Y-85796707D01*
X149297270Y-85796707D01*
G37*
G36*
X175983730Y-80059000D02*
G01*
X176039937Y-80059000D01*
X176110874Y-80070235D01*
X176177558Y-80076128D01*
X176234072Y-80089748D01*
X176296610Y-80099653D01*
X176358179Y-80119658D01*
X176416121Y-80133622D01*
X176476809Y-80158203D01*
X176543764Y-80179958D01*
X176595106Y-80206118D01*
X176643565Y-80225746D01*
X176706309Y-80262779D01*
X176775312Y-80297938D01*
X176816161Y-80327616D01*
X176854891Y-80350476D01*
X176917232Y-80401049D01*
X176985554Y-80450688D01*
X177016207Y-80481341D01*
X177045465Y-80505076D01*
X177104718Y-80569852D01*
X177169312Y-80634446D01*
X177190574Y-80663711D01*
X177211091Y-80686140D01*
X177264400Y-80765323D01*
X177322062Y-80844688D01*
X177335230Y-80870531D01*
X177348137Y-80889703D01*
X177392562Y-80983052D01*
X177440042Y-81076236D01*
X177446784Y-81096987D01*
X177453587Y-81111281D01*
X177486245Y-81218436D01*
X177520347Y-81323390D01*
X177522634Y-81337830D01*
X177525129Y-81346016D01*
X177543244Y-81467955D01*
X177561000Y-81580063D01*
X177561000Y-81839937D01*
X177552684Y-81892440D01*
X177551885Y-81921983D01*
X177534640Y-82006367D01*
X177520347Y-82096610D01*
X177509164Y-82131027D01*
X177503080Y-82160799D01*
X177470365Y-82250439D01*
X177440042Y-82343764D01*
X177426872Y-82369612D01*
X177418950Y-82391318D01*
X177369540Y-82482131D01*
X177322062Y-82575312D01*
X177309241Y-82592959D01*
X177301672Y-82606870D01*
X177234158Y-82696301D01*
X177169312Y-82785554D01*
X177158976Y-82795890D01*
X177153819Y-82802721D01*
X177065782Y-82889084D01*
X176985554Y-82969312D01*
X176979558Y-82973668D01*
X176978640Y-82974569D01*
X176803110Y-83101866D01*
X176775312Y-83122062D01*
X176674629Y-83173363D01*
X176562223Y-83231753D01*
X176555505Y-83234060D01*
X176543764Y-83240042D01*
X176437902Y-83274439D01*
X176330133Y-83311441D01*
X176315994Y-83314049D01*
X176296610Y-83320347D01*
X176192080Y-83336903D01*
X176088808Y-83355950D01*
X176067170Y-83356687D01*
X176039937Y-83361000D01*
X175940480Y-83361000D01*
X175843553Y-83364300D01*
X175814812Y-83361000D01*
X175780063Y-83361000D01*
X175688482Y-83346495D01*
X175599768Y-83336309D01*
X175564791Y-83326904D01*
X175523390Y-83320347D01*
X175441749Y-83293820D01*
X175362788Y-83272589D01*
X175322903Y-83255205D01*
X175276236Y-83240042D01*
X175205965Y-83204237D01*
X175137832Y-83174541D01*
X175094765Y-83147578D01*
X175044688Y-83122062D01*
X174986590Y-83079851D01*
X174929843Y-83044323D01*
X174885667Y-83006526D01*
X174834446Y-82969312D01*
X174788671Y-82923537D01*
X174743382Y-82884788D01*
X174700465Y-82835331D01*
X174650688Y-82785554D01*
X174616823Y-82738943D01*
X174582556Y-82699454D01*
X174543461Y-82637969D01*
X174497938Y-82575312D01*
X174475015Y-82530323D01*
X174450884Y-82492372D01*
X174418299Y-82419012D01*
X174379958Y-82343764D01*
X174366561Y-82302533D01*
X174351269Y-82268105D01*
X174327885Y-82183501D01*
X174299653Y-82096610D01*
X174293993Y-82060874D01*
X174285897Y-82031582D01*
X174274348Y-81936843D01*
X174259000Y-81839937D01*
X174259000Y-81810932D01*
X174256203Y-81787987D01*
X174259000Y-81684628D01*
X174259000Y-81580063D01*
X174262413Y-81558516D01*
X174262841Y-81542689D01*
X174282390Y-81432382D01*
X174299653Y-81323390D01*
X174304171Y-81309485D01*
X174305664Y-81301061D01*
X174344876Y-81184207D01*
X174379958Y-81076236D01*
X174383325Y-81069628D01*
X174383732Y-81068415D01*
X174481710Y-80876538D01*
X174497938Y-80844688D01*
X174564366Y-80753258D01*
X174638002Y-80650214D01*
X174642942Y-80645107D01*
X174650688Y-80634446D01*
X174729390Y-80555744D01*
X174808621Y-80473841D01*
X174820037Y-80465097D01*
X174834446Y-80450688D01*
X174920048Y-80388494D01*
X175003440Y-80324621D01*
X175022390Y-80314139D01*
X175044688Y-80297938D01*
X175133279Y-80252798D01*
X175218164Y-80205843D01*
X175245275Y-80195734D01*
X175276236Y-80179958D01*
X175364418Y-80151306D01*
X175448091Y-80120105D01*
X175483527Y-80112605D01*
X175523390Y-80099653D01*
X175608177Y-80086224D01*
X175688171Y-80069294D01*
X175731600Y-80066676D01*
X175780063Y-80059000D01*
X175858917Y-80059000D01*
X175933111Y-80054527D01*
X175983730Y-80059000D01*
X175983730Y-80059000D01*
G37*
G36*
X118463730Y-79839000D02*
G01*
X118519937Y-79839000D01*
X118590874Y-79850235D01*
X118657558Y-79856128D01*
X118714072Y-79869748D01*
X118776610Y-79879653D01*
X118838179Y-79899658D01*
X118896121Y-79913622D01*
X118956809Y-79938203D01*
X119023764Y-79959958D01*
X119075106Y-79986118D01*
X119123565Y-80005746D01*
X119186309Y-80042779D01*
X119255312Y-80077938D01*
X119296161Y-80107616D01*
X119334891Y-80130476D01*
X119397232Y-80181049D01*
X119465554Y-80230688D01*
X119496207Y-80261341D01*
X119525465Y-80285076D01*
X119584718Y-80349852D01*
X119649312Y-80414446D01*
X119670574Y-80443711D01*
X119691091Y-80466140D01*
X119744400Y-80545323D01*
X119802062Y-80624688D01*
X119815230Y-80650531D01*
X119828137Y-80669703D01*
X119872562Y-80763052D01*
X119920042Y-80856236D01*
X119926784Y-80876987D01*
X119933587Y-80891281D01*
X119966245Y-80998436D01*
X120000347Y-81103390D01*
X120002634Y-81117830D01*
X120005129Y-81126016D01*
X120023244Y-81247955D01*
X120041000Y-81360063D01*
X120041000Y-81619937D01*
X120032684Y-81672440D01*
X120031885Y-81701983D01*
X120014640Y-81786367D01*
X120000347Y-81876610D01*
X119989164Y-81911027D01*
X119983080Y-81940799D01*
X119950365Y-82030439D01*
X119920042Y-82123764D01*
X119906872Y-82149612D01*
X119898950Y-82171318D01*
X119849540Y-82262131D01*
X119802062Y-82355312D01*
X119789241Y-82372959D01*
X119781672Y-82386870D01*
X119714158Y-82476301D01*
X119649312Y-82565554D01*
X119638976Y-82575890D01*
X119633819Y-82582721D01*
X119545782Y-82669084D01*
X119465554Y-82749312D01*
X119459558Y-82753668D01*
X119458640Y-82754569D01*
X119283110Y-82881866D01*
X119255312Y-82902062D01*
X119154629Y-82953363D01*
X119042223Y-83011753D01*
X119035505Y-83014060D01*
X119023764Y-83020042D01*
X118917902Y-83054439D01*
X118810133Y-83091441D01*
X118795994Y-83094049D01*
X118776610Y-83100347D01*
X118672080Y-83116903D01*
X118568808Y-83135950D01*
X118547170Y-83136687D01*
X118519937Y-83141000D01*
X118420480Y-83141000D01*
X118323553Y-83144300D01*
X118294812Y-83141000D01*
X118260063Y-83141000D01*
X118168482Y-83126495D01*
X118079768Y-83116309D01*
X118044791Y-83106904D01*
X118003390Y-83100347D01*
X117921749Y-83073820D01*
X117842788Y-83052589D01*
X117802903Y-83035205D01*
X117756236Y-83020042D01*
X117685965Y-82984237D01*
X117617832Y-82954541D01*
X117574765Y-82927578D01*
X117524688Y-82902062D01*
X117466590Y-82859851D01*
X117409843Y-82824323D01*
X117365667Y-82786526D01*
X117314446Y-82749312D01*
X117268671Y-82703537D01*
X117223382Y-82664788D01*
X117180465Y-82615331D01*
X117130688Y-82565554D01*
X117096823Y-82518943D01*
X117062556Y-82479454D01*
X117023461Y-82417969D01*
X116977938Y-82355312D01*
X116955015Y-82310323D01*
X116930884Y-82272372D01*
X116898299Y-82199012D01*
X116859958Y-82123764D01*
X116846561Y-82082533D01*
X116831269Y-82048105D01*
X116807885Y-81963501D01*
X116779653Y-81876610D01*
X116773993Y-81840874D01*
X116765897Y-81811582D01*
X116754348Y-81716843D01*
X116739000Y-81619937D01*
X116739000Y-81590932D01*
X116736203Y-81567987D01*
X116739000Y-81464628D01*
X116739000Y-81360063D01*
X116742413Y-81338516D01*
X116742841Y-81322689D01*
X116762390Y-81212382D01*
X116779653Y-81103390D01*
X116784171Y-81089485D01*
X116785664Y-81081061D01*
X116824876Y-80964207D01*
X116859958Y-80856236D01*
X116863325Y-80849628D01*
X116863732Y-80848415D01*
X116961710Y-80656538D01*
X116977938Y-80624688D01*
X117044366Y-80533258D01*
X117118002Y-80430214D01*
X117122942Y-80425107D01*
X117130688Y-80414446D01*
X117209390Y-80335744D01*
X117288621Y-80253841D01*
X117300037Y-80245097D01*
X117314446Y-80230688D01*
X117400048Y-80168494D01*
X117483440Y-80104621D01*
X117502390Y-80094139D01*
X117524688Y-80077938D01*
X117613279Y-80032798D01*
X117698164Y-79985843D01*
X117725275Y-79975734D01*
X117756236Y-79959958D01*
X117844418Y-79931306D01*
X117928091Y-79900105D01*
X117963527Y-79892605D01*
X118003390Y-79879653D01*
X118088177Y-79866224D01*
X118168171Y-79849294D01*
X118211600Y-79846676D01*
X118260063Y-79839000D01*
X118338917Y-79839000D01*
X118413111Y-79834527D01*
X118463730Y-79839000D01*
X118463730Y-79839000D01*
G37*
G36*
X139153499Y-77398359D02*
G01*
X139170369Y-77409631D01*
X139181641Y-77426501D01*
X139188048Y-77458712D01*
X139188048Y-79161288D01*
X139185599Y-79173600D01*
X139181641Y-79193499D01*
X139170369Y-79210369D01*
X139153499Y-79221641D01*
X139133600Y-79225599D01*
X139121288Y-79228048D01*
X137418712Y-79228048D01*
X137386501Y-79221641D01*
X137369631Y-79210369D01*
X137358359Y-79193499D01*
X137351952Y-79161288D01*
X137351952Y-77458712D01*
X137358359Y-77426501D01*
X137369631Y-77409631D01*
X137386501Y-77398359D01*
X137418712Y-77391952D01*
X139121288Y-77391952D01*
X139153499Y-77398359D01*
X139153499Y-77398359D01*
G37*
G36*
X148621203Y-77410459D02*
G01*
X148703535Y-77437211D01*
X148792046Y-77465288D01*
X148795078Y-77466955D01*
X148804050Y-77469870D01*
X148877139Y-77512068D01*
X148949223Y-77551696D01*
X148956824Y-77558074D01*
X148970549Y-77565998D01*
X149029143Y-77618757D01*
X149086622Y-77666987D01*
X149096886Y-77679753D01*
X149113423Y-77694643D01*
X149156242Y-77753577D01*
X149199012Y-77806774D01*
X149209585Y-77826999D01*
X149226429Y-77850182D01*
X149253543Y-77911082D01*
X149282110Y-77965724D01*
X149290376Y-77993808D01*
X149304627Y-78025817D01*
X149317184Y-78084893D01*
X149332752Y-78137788D01*
X149335990Y-78173370D01*
X149344599Y-78213872D01*
X149344599Y-78267971D01*
X149349008Y-78316420D01*
X149344599Y-78358369D01*
X149344599Y-78406128D01*
X149334669Y-78452844D01*
X149330260Y-78494795D01*
X149315874Y-78541268D01*
X149304627Y-78594183D01*
X149287785Y-78632011D01*
X149277220Y-78666141D01*
X149250994Y-78714645D01*
X149226429Y-78769819D01*
X149205837Y-78798161D01*
X149191913Y-78823913D01*
X149152606Y-78871426D01*
X149113423Y-78925357D01*
X149092129Y-78944531D01*
X149077579Y-78962118D01*
X149024686Y-79005257D01*
X148970549Y-79054002D01*
X148951273Y-79065131D01*
X148938585Y-79075479D01*
X148872351Y-79110697D01*
X148804050Y-79150130D01*
X148788977Y-79155027D01*
X148780214Y-79159687D01*
X148701447Y-79183468D01*
X148621203Y-79209541D01*
X148611823Y-79210527D01*
X148608507Y-79211528D01*
X148515945Y-79220604D01*
X148477924Y-79224600D01*
X148382076Y-79224600D01*
X148238797Y-79209541D01*
X148156465Y-79182789D01*
X148067954Y-79154712D01*
X148064922Y-79153045D01*
X148055950Y-79150130D01*
X147982861Y-79107932D01*
X147910777Y-79068304D01*
X147903176Y-79061926D01*
X147889451Y-79054002D01*
X147830857Y-79001243D01*
X147773378Y-78953013D01*
X147763114Y-78940247D01*
X147746577Y-78925357D01*
X147703758Y-78866423D01*
X147660988Y-78813226D01*
X147650415Y-78793001D01*
X147633571Y-78769818D01*
X147606457Y-78708918D01*
X147577890Y-78654276D01*
X147569624Y-78626192D01*
X147555373Y-78594183D01*
X147542816Y-78535107D01*
X147527248Y-78482212D01*
X147524010Y-78446630D01*
X147515401Y-78406128D01*
X147515401Y-78352029D01*
X147510992Y-78303580D01*
X147515401Y-78261631D01*
X147515401Y-78213872D01*
X147525331Y-78167156D01*
X147529740Y-78125205D01*
X147544126Y-78078732D01*
X147555373Y-78025817D01*
X147572215Y-77987989D01*
X147582780Y-77953859D01*
X147609006Y-77905355D01*
X147633571Y-77850181D01*
X147654163Y-77821839D01*
X147668087Y-77796087D01*
X147707394Y-77748574D01*
X147746577Y-77694643D01*
X147767871Y-77675469D01*
X147782421Y-77657882D01*
X147835314Y-77614743D01*
X147889451Y-77565998D01*
X147908727Y-77554869D01*
X147921415Y-77544521D01*
X147987649Y-77509303D01*
X148055950Y-77469870D01*
X148071023Y-77464973D01*
X148079786Y-77460313D01*
X148158553Y-77436532D01*
X148238797Y-77410459D01*
X148248177Y-77409473D01*
X148251493Y-77408472D01*
X148344055Y-77399396D01*
X148382076Y-77395400D01*
X148477924Y-77395400D01*
X148621203Y-77410459D01*
X148621203Y-77410459D01*
G37*
G36*
X141001203Y-77410459D02*
G01*
X141083535Y-77437211D01*
X141172046Y-77465288D01*
X141175078Y-77466955D01*
X141184050Y-77469870D01*
X141257139Y-77512068D01*
X141329223Y-77551696D01*
X141336824Y-77558074D01*
X141350549Y-77565998D01*
X141409143Y-77618757D01*
X141466622Y-77666987D01*
X141476886Y-77679753D01*
X141493423Y-77694643D01*
X141536242Y-77753577D01*
X141579012Y-77806774D01*
X141589585Y-77826999D01*
X141606429Y-77850182D01*
X141633543Y-77911082D01*
X141662110Y-77965724D01*
X141670376Y-77993808D01*
X141684627Y-78025817D01*
X141697184Y-78084893D01*
X141712752Y-78137788D01*
X141715990Y-78173370D01*
X141724599Y-78213872D01*
X141724599Y-78267971D01*
X141729008Y-78316420D01*
X141724599Y-78358369D01*
X141724599Y-78406128D01*
X141714669Y-78452844D01*
X141710260Y-78494795D01*
X141695874Y-78541268D01*
X141684627Y-78594183D01*
X141667785Y-78632011D01*
X141657220Y-78666141D01*
X141630994Y-78714645D01*
X141606429Y-78769819D01*
X141585837Y-78798161D01*
X141571913Y-78823913D01*
X141532606Y-78871426D01*
X141493423Y-78925357D01*
X141472129Y-78944531D01*
X141457579Y-78962118D01*
X141404686Y-79005257D01*
X141350549Y-79054002D01*
X141331273Y-79065131D01*
X141318585Y-79075479D01*
X141252351Y-79110697D01*
X141184050Y-79150130D01*
X141168977Y-79155027D01*
X141160214Y-79159687D01*
X141081447Y-79183468D01*
X141001203Y-79209541D01*
X140991823Y-79210527D01*
X140988507Y-79211528D01*
X140895945Y-79220604D01*
X140857924Y-79224600D01*
X140762076Y-79224600D01*
X140618797Y-79209541D01*
X140536465Y-79182789D01*
X140447954Y-79154712D01*
X140444922Y-79153045D01*
X140435950Y-79150130D01*
X140362861Y-79107932D01*
X140290777Y-79068304D01*
X140283176Y-79061926D01*
X140269451Y-79054002D01*
X140210857Y-79001243D01*
X140153378Y-78953013D01*
X140143114Y-78940247D01*
X140126577Y-78925357D01*
X140083758Y-78866423D01*
X140040988Y-78813226D01*
X140030415Y-78793001D01*
X140013571Y-78769818D01*
X139986457Y-78708918D01*
X139957890Y-78654276D01*
X139949624Y-78626192D01*
X139935373Y-78594183D01*
X139922816Y-78535107D01*
X139907248Y-78482212D01*
X139904010Y-78446630D01*
X139895401Y-78406128D01*
X139895401Y-78352029D01*
X139890992Y-78303580D01*
X139895401Y-78261631D01*
X139895401Y-78213872D01*
X139905331Y-78167156D01*
X139909740Y-78125205D01*
X139924126Y-78078732D01*
X139935373Y-78025817D01*
X139952215Y-77987989D01*
X139962780Y-77953859D01*
X139989006Y-77905355D01*
X140013571Y-77850181D01*
X140034163Y-77821839D01*
X140048087Y-77796087D01*
X140087394Y-77748574D01*
X140126577Y-77694643D01*
X140147871Y-77675469D01*
X140162421Y-77657882D01*
X140215314Y-77614743D01*
X140269451Y-77565998D01*
X140288727Y-77554869D01*
X140301415Y-77544521D01*
X140367649Y-77509303D01*
X140435950Y-77469870D01*
X140451023Y-77464973D01*
X140459786Y-77460313D01*
X140538553Y-77436532D01*
X140618797Y-77410459D01*
X140628177Y-77409473D01*
X140631493Y-77408472D01*
X140724055Y-77399396D01*
X140762076Y-77395400D01*
X140857924Y-77395400D01*
X141001203Y-77410459D01*
X141001203Y-77410459D01*
G37*
G36*
X143541203Y-77410459D02*
G01*
X143623535Y-77437211D01*
X143712046Y-77465288D01*
X143715078Y-77466955D01*
X143724050Y-77469870D01*
X143797139Y-77512068D01*
X143869223Y-77551696D01*
X143876824Y-77558074D01*
X143890549Y-77565998D01*
X143949143Y-77618757D01*
X144006622Y-77666987D01*
X144016886Y-77679753D01*
X144033423Y-77694643D01*
X144076242Y-77753577D01*
X144119012Y-77806774D01*
X144129585Y-77826999D01*
X144146429Y-77850182D01*
X144173543Y-77911082D01*
X144202110Y-77965724D01*
X144210376Y-77993808D01*
X144224627Y-78025817D01*
X144237184Y-78084893D01*
X144252752Y-78137788D01*
X144255990Y-78173370D01*
X144264599Y-78213872D01*
X144264599Y-78267971D01*
X144269008Y-78316420D01*
X144264599Y-78358369D01*
X144264599Y-78406128D01*
X144254669Y-78452844D01*
X144250260Y-78494795D01*
X144235874Y-78541268D01*
X144224627Y-78594183D01*
X144207785Y-78632011D01*
X144197220Y-78666141D01*
X144170994Y-78714645D01*
X144146429Y-78769819D01*
X144125837Y-78798161D01*
X144111913Y-78823913D01*
X144072606Y-78871426D01*
X144033423Y-78925357D01*
X144012129Y-78944531D01*
X143997579Y-78962118D01*
X143944686Y-79005257D01*
X143890549Y-79054002D01*
X143871273Y-79065131D01*
X143858585Y-79075479D01*
X143792351Y-79110697D01*
X143724050Y-79150130D01*
X143708977Y-79155027D01*
X143700214Y-79159687D01*
X143621447Y-79183468D01*
X143541203Y-79209541D01*
X143531823Y-79210527D01*
X143528507Y-79211528D01*
X143435945Y-79220604D01*
X143397924Y-79224600D01*
X143302076Y-79224600D01*
X143158797Y-79209541D01*
X143076465Y-79182789D01*
X142987954Y-79154712D01*
X142984922Y-79153045D01*
X142975950Y-79150130D01*
X142902861Y-79107932D01*
X142830777Y-79068304D01*
X142823176Y-79061926D01*
X142809451Y-79054002D01*
X142750857Y-79001243D01*
X142693378Y-78953013D01*
X142683114Y-78940247D01*
X142666577Y-78925357D01*
X142623758Y-78866423D01*
X142580988Y-78813226D01*
X142570415Y-78793001D01*
X142553571Y-78769818D01*
X142526457Y-78708918D01*
X142497890Y-78654276D01*
X142489624Y-78626192D01*
X142475373Y-78594183D01*
X142462816Y-78535107D01*
X142447248Y-78482212D01*
X142444010Y-78446630D01*
X142435401Y-78406128D01*
X142435401Y-78352029D01*
X142430992Y-78303580D01*
X142435401Y-78261631D01*
X142435401Y-78213872D01*
X142445331Y-78167156D01*
X142449740Y-78125205D01*
X142464126Y-78078732D01*
X142475373Y-78025817D01*
X142492215Y-77987989D01*
X142502780Y-77953859D01*
X142529006Y-77905355D01*
X142553571Y-77850181D01*
X142574163Y-77821839D01*
X142588087Y-77796087D01*
X142627394Y-77748574D01*
X142666577Y-77694643D01*
X142687871Y-77675469D01*
X142702421Y-77657882D01*
X142755314Y-77614743D01*
X142809451Y-77565998D01*
X142828727Y-77554869D01*
X142841415Y-77544521D01*
X142907649Y-77509303D01*
X142975950Y-77469870D01*
X142991023Y-77464973D01*
X142999786Y-77460313D01*
X143078553Y-77436532D01*
X143158797Y-77410459D01*
X143168177Y-77409473D01*
X143171493Y-77408472D01*
X143264055Y-77399396D01*
X143302076Y-77395400D01*
X143397924Y-77395400D01*
X143541203Y-77410459D01*
X143541203Y-77410459D01*
G37*
G36*
X146081203Y-77410459D02*
G01*
X146163535Y-77437211D01*
X146252046Y-77465288D01*
X146255078Y-77466955D01*
X146264050Y-77469870D01*
X146337139Y-77512068D01*
X146409223Y-77551696D01*
X146416824Y-77558074D01*
X146430549Y-77565998D01*
X146489143Y-77618757D01*
X146546622Y-77666987D01*
X146556886Y-77679753D01*
X146573423Y-77694643D01*
X146616242Y-77753577D01*
X146659012Y-77806774D01*
X146669585Y-77826999D01*
X146686429Y-77850182D01*
X146713543Y-77911082D01*
X146742110Y-77965724D01*
X146750376Y-77993808D01*
X146764627Y-78025817D01*
X146777184Y-78084893D01*
X146792752Y-78137788D01*
X146795990Y-78173370D01*
X146804599Y-78213872D01*
X146804599Y-78267971D01*
X146809008Y-78316420D01*
X146804599Y-78358369D01*
X146804599Y-78406128D01*
X146794669Y-78452844D01*
X146790260Y-78494795D01*
X146775874Y-78541268D01*
X146764627Y-78594183D01*
X146747785Y-78632011D01*
X146737220Y-78666141D01*
X146710994Y-78714645D01*
X146686429Y-78769819D01*
X146665837Y-78798161D01*
X146651913Y-78823913D01*
X146612606Y-78871426D01*
X146573423Y-78925357D01*
X146552129Y-78944531D01*
X146537579Y-78962118D01*
X146484686Y-79005257D01*
X146430549Y-79054002D01*
X146411273Y-79065131D01*
X146398585Y-79075479D01*
X146332351Y-79110697D01*
X146264050Y-79150130D01*
X146248977Y-79155027D01*
X146240214Y-79159687D01*
X146161447Y-79183468D01*
X146081203Y-79209541D01*
X146071823Y-79210527D01*
X146068507Y-79211528D01*
X145975945Y-79220604D01*
X145937924Y-79224600D01*
X145842076Y-79224600D01*
X145698797Y-79209541D01*
X145616465Y-79182789D01*
X145527954Y-79154712D01*
X145524922Y-79153045D01*
X145515950Y-79150130D01*
X145442861Y-79107932D01*
X145370777Y-79068304D01*
X145363176Y-79061926D01*
X145349451Y-79054002D01*
X145290857Y-79001243D01*
X145233378Y-78953013D01*
X145223114Y-78940247D01*
X145206577Y-78925357D01*
X145163758Y-78866423D01*
X145120988Y-78813226D01*
X145110415Y-78793001D01*
X145093571Y-78769818D01*
X145066457Y-78708918D01*
X145037890Y-78654276D01*
X145029624Y-78626192D01*
X145015373Y-78594183D01*
X145002816Y-78535107D01*
X144987248Y-78482212D01*
X144984010Y-78446630D01*
X144975401Y-78406128D01*
X144975401Y-78352029D01*
X144970992Y-78303580D01*
X144975401Y-78261631D01*
X144975401Y-78213872D01*
X144985331Y-78167156D01*
X144989740Y-78125205D01*
X145004126Y-78078732D01*
X145015373Y-78025817D01*
X145032215Y-77987989D01*
X145042780Y-77953859D01*
X145069006Y-77905355D01*
X145093571Y-77850181D01*
X145114163Y-77821839D01*
X145128087Y-77796087D01*
X145167394Y-77748574D01*
X145206577Y-77694643D01*
X145227871Y-77675469D01*
X145242421Y-77657882D01*
X145295314Y-77614743D01*
X145349451Y-77565998D01*
X145368727Y-77554869D01*
X145381415Y-77544521D01*
X145447649Y-77509303D01*
X145515950Y-77469870D01*
X145531023Y-77464973D01*
X145539786Y-77460313D01*
X145618553Y-77436532D01*
X145698797Y-77410459D01*
X145708177Y-77409473D01*
X145711493Y-77408472D01*
X145804055Y-77399396D01*
X145842076Y-77395400D01*
X145937924Y-77395400D01*
X146081203Y-77410459D01*
X146081203Y-77410459D01*
G37*
G36*
X153701203Y-77410459D02*
G01*
X153783535Y-77437211D01*
X153872046Y-77465288D01*
X153875078Y-77466955D01*
X153884050Y-77469870D01*
X153957139Y-77512068D01*
X154029223Y-77551696D01*
X154036824Y-77558074D01*
X154050549Y-77565998D01*
X154109143Y-77618757D01*
X154166622Y-77666987D01*
X154176886Y-77679753D01*
X154193423Y-77694643D01*
X154236242Y-77753577D01*
X154279012Y-77806774D01*
X154289585Y-77826999D01*
X154306429Y-77850182D01*
X154333543Y-77911082D01*
X154362110Y-77965724D01*
X154370376Y-77993808D01*
X154384627Y-78025817D01*
X154397184Y-78084893D01*
X154412752Y-78137788D01*
X154415990Y-78173370D01*
X154424599Y-78213872D01*
X154424599Y-78267971D01*
X154429008Y-78316420D01*
X154424599Y-78358369D01*
X154424599Y-78406128D01*
X154414669Y-78452844D01*
X154410260Y-78494795D01*
X154395874Y-78541268D01*
X154384627Y-78594183D01*
X154367785Y-78632011D01*
X154357220Y-78666141D01*
X154330994Y-78714645D01*
X154306429Y-78769819D01*
X154285837Y-78798161D01*
X154271913Y-78823913D01*
X154232606Y-78871426D01*
X154193423Y-78925357D01*
X154172129Y-78944531D01*
X154157579Y-78962118D01*
X154104686Y-79005257D01*
X154050549Y-79054002D01*
X154031273Y-79065131D01*
X154018585Y-79075479D01*
X153952351Y-79110697D01*
X153884050Y-79150130D01*
X153868977Y-79155027D01*
X153860214Y-79159687D01*
X153781447Y-79183468D01*
X153701203Y-79209541D01*
X153691823Y-79210527D01*
X153688507Y-79211528D01*
X153595945Y-79220604D01*
X153557924Y-79224600D01*
X153462076Y-79224600D01*
X153318797Y-79209541D01*
X153236465Y-79182789D01*
X153147954Y-79154712D01*
X153144922Y-79153045D01*
X153135950Y-79150130D01*
X153062861Y-79107932D01*
X152990777Y-79068304D01*
X152983176Y-79061926D01*
X152969451Y-79054002D01*
X152910857Y-79001243D01*
X152853378Y-78953013D01*
X152843114Y-78940247D01*
X152826577Y-78925357D01*
X152783758Y-78866423D01*
X152740988Y-78813226D01*
X152730415Y-78793001D01*
X152713571Y-78769818D01*
X152686457Y-78708918D01*
X152657890Y-78654276D01*
X152649624Y-78626192D01*
X152635373Y-78594183D01*
X152622816Y-78535107D01*
X152607248Y-78482212D01*
X152604010Y-78446630D01*
X152595401Y-78406128D01*
X152595401Y-78352029D01*
X152590992Y-78303580D01*
X152595401Y-78261631D01*
X152595401Y-78213872D01*
X152605331Y-78167156D01*
X152609740Y-78125205D01*
X152624126Y-78078732D01*
X152635373Y-78025817D01*
X152652215Y-77987989D01*
X152662780Y-77953859D01*
X152689006Y-77905355D01*
X152713571Y-77850181D01*
X152734163Y-77821839D01*
X152748087Y-77796087D01*
X152787394Y-77748574D01*
X152826577Y-77694643D01*
X152847871Y-77675469D01*
X152862421Y-77657882D01*
X152915314Y-77614743D01*
X152969451Y-77565998D01*
X152988727Y-77554869D01*
X153001415Y-77544521D01*
X153067649Y-77509303D01*
X153135950Y-77469870D01*
X153151023Y-77464973D01*
X153159786Y-77460313D01*
X153238553Y-77436532D01*
X153318797Y-77410459D01*
X153328177Y-77409473D01*
X153331493Y-77408472D01*
X153424055Y-77399396D01*
X153462076Y-77395400D01*
X153557924Y-77395400D01*
X153701203Y-77410459D01*
X153701203Y-77410459D01*
G37*
G36*
X151161203Y-77410459D02*
G01*
X151243535Y-77437211D01*
X151332046Y-77465288D01*
X151335078Y-77466955D01*
X151344050Y-77469870D01*
X151417139Y-77512068D01*
X151489223Y-77551696D01*
X151496824Y-77558074D01*
X151510549Y-77565998D01*
X151569143Y-77618757D01*
X151626622Y-77666987D01*
X151636886Y-77679753D01*
X151653423Y-77694643D01*
X151696242Y-77753577D01*
X151739012Y-77806774D01*
X151749585Y-77826999D01*
X151766429Y-77850182D01*
X151793543Y-77911082D01*
X151822110Y-77965724D01*
X151830376Y-77993808D01*
X151844627Y-78025817D01*
X151857184Y-78084893D01*
X151872752Y-78137788D01*
X151875990Y-78173370D01*
X151884599Y-78213872D01*
X151884599Y-78267971D01*
X151889008Y-78316420D01*
X151884599Y-78358369D01*
X151884599Y-78406128D01*
X151874669Y-78452844D01*
X151870260Y-78494795D01*
X151855874Y-78541268D01*
X151844627Y-78594183D01*
X151827785Y-78632011D01*
X151817220Y-78666141D01*
X151790994Y-78714645D01*
X151766429Y-78769819D01*
X151745837Y-78798161D01*
X151731913Y-78823913D01*
X151692606Y-78871426D01*
X151653423Y-78925357D01*
X151632129Y-78944531D01*
X151617579Y-78962118D01*
X151564686Y-79005257D01*
X151510549Y-79054002D01*
X151491273Y-79065131D01*
X151478585Y-79075479D01*
X151412351Y-79110697D01*
X151344050Y-79150130D01*
X151328977Y-79155027D01*
X151320214Y-79159687D01*
X151241447Y-79183468D01*
X151161203Y-79209541D01*
X151151823Y-79210527D01*
X151148507Y-79211528D01*
X151055945Y-79220604D01*
X151017924Y-79224600D01*
X150922076Y-79224600D01*
X150778797Y-79209541D01*
X150696465Y-79182789D01*
X150607954Y-79154712D01*
X150604922Y-79153045D01*
X150595950Y-79150130D01*
X150522861Y-79107932D01*
X150450777Y-79068304D01*
X150443176Y-79061926D01*
X150429451Y-79054002D01*
X150370857Y-79001243D01*
X150313378Y-78953013D01*
X150303114Y-78940247D01*
X150286577Y-78925357D01*
X150243758Y-78866423D01*
X150200988Y-78813226D01*
X150190415Y-78793001D01*
X150173571Y-78769818D01*
X150146457Y-78708918D01*
X150117890Y-78654276D01*
X150109624Y-78626192D01*
X150095373Y-78594183D01*
X150082816Y-78535107D01*
X150067248Y-78482212D01*
X150064010Y-78446630D01*
X150055401Y-78406128D01*
X150055401Y-78352029D01*
X150050992Y-78303580D01*
X150055401Y-78261631D01*
X150055401Y-78213872D01*
X150065331Y-78167156D01*
X150069740Y-78125205D01*
X150084126Y-78078732D01*
X150095373Y-78025817D01*
X150112215Y-77987989D01*
X150122780Y-77953859D01*
X150149006Y-77905355D01*
X150173571Y-77850181D01*
X150194163Y-77821839D01*
X150208087Y-77796087D01*
X150247394Y-77748574D01*
X150286577Y-77694643D01*
X150307871Y-77675469D01*
X150322421Y-77657882D01*
X150375314Y-77614743D01*
X150429451Y-77565998D01*
X150448727Y-77554869D01*
X150461415Y-77544521D01*
X150527649Y-77509303D01*
X150595950Y-77469870D01*
X150611023Y-77464973D01*
X150619786Y-77460313D01*
X150698553Y-77436532D01*
X150778797Y-77410459D01*
X150788177Y-77409473D01*
X150791493Y-77408472D01*
X150884055Y-77399396D01*
X150922076Y-77395400D01*
X151017924Y-77395400D01*
X151161203Y-77410459D01*
X151161203Y-77410459D01*
G37*
G36*
X153701203Y-74870459D02*
G01*
X153783535Y-74897211D01*
X153872046Y-74925288D01*
X153875078Y-74926955D01*
X153884050Y-74929870D01*
X153957139Y-74972068D01*
X154029223Y-75011696D01*
X154036824Y-75018074D01*
X154050549Y-75025998D01*
X154109143Y-75078757D01*
X154166622Y-75126987D01*
X154176886Y-75139753D01*
X154193423Y-75154643D01*
X154236242Y-75213577D01*
X154279012Y-75266774D01*
X154289585Y-75286999D01*
X154306429Y-75310182D01*
X154333543Y-75371082D01*
X154362110Y-75425724D01*
X154370376Y-75453808D01*
X154384627Y-75485817D01*
X154397184Y-75544893D01*
X154412752Y-75597788D01*
X154415990Y-75633370D01*
X154424599Y-75673872D01*
X154424599Y-75727971D01*
X154429008Y-75776420D01*
X154424599Y-75818369D01*
X154424599Y-75866128D01*
X154414669Y-75912844D01*
X154410260Y-75954795D01*
X154395874Y-76001268D01*
X154384627Y-76054183D01*
X154367785Y-76092011D01*
X154357220Y-76126141D01*
X154330994Y-76174645D01*
X154306429Y-76229819D01*
X154285837Y-76258161D01*
X154271913Y-76283913D01*
X154232606Y-76331426D01*
X154193423Y-76385357D01*
X154172129Y-76404531D01*
X154157579Y-76422118D01*
X154104686Y-76465257D01*
X154050549Y-76514002D01*
X154031273Y-76525131D01*
X154018585Y-76535479D01*
X153952351Y-76570697D01*
X153884050Y-76610130D01*
X153868977Y-76615027D01*
X153860214Y-76619687D01*
X153781447Y-76643468D01*
X153701203Y-76669541D01*
X153691823Y-76670527D01*
X153688507Y-76671528D01*
X153595945Y-76680604D01*
X153557924Y-76684600D01*
X153462076Y-76684600D01*
X153318797Y-76669541D01*
X153236465Y-76642789D01*
X153147954Y-76614712D01*
X153144922Y-76613045D01*
X153135950Y-76610130D01*
X153062861Y-76567932D01*
X152990777Y-76528304D01*
X152983176Y-76521926D01*
X152969451Y-76514002D01*
X152910857Y-76461243D01*
X152853378Y-76413013D01*
X152843114Y-76400247D01*
X152826577Y-76385357D01*
X152783758Y-76326423D01*
X152740988Y-76273226D01*
X152730415Y-76253001D01*
X152713571Y-76229818D01*
X152686457Y-76168918D01*
X152657890Y-76114276D01*
X152649624Y-76086192D01*
X152635373Y-76054183D01*
X152622816Y-75995107D01*
X152607248Y-75942212D01*
X152604010Y-75906630D01*
X152595401Y-75866128D01*
X152595401Y-75812029D01*
X152590992Y-75763580D01*
X152595401Y-75721631D01*
X152595401Y-75673872D01*
X152605331Y-75627156D01*
X152609740Y-75585205D01*
X152624126Y-75538732D01*
X152635373Y-75485817D01*
X152652215Y-75447989D01*
X152662780Y-75413859D01*
X152689006Y-75365355D01*
X152713571Y-75310181D01*
X152734163Y-75281839D01*
X152748087Y-75256087D01*
X152787394Y-75208574D01*
X152826577Y-75154643D01*
X152847871Y-75135469D01*
X152862421Y-75117882D01*
X152915314Y-75074743D01*
X152969451Y-75025998D01*
X152988727Y-75014869D01*
X153001415Y-75004521D01*
X153067649Y-74969303D01*
X153135950Y-74929870D01*
X153151023Y-74924973D01*
X153159786Y-74920313D01*
X153238553Y-74896532D01*
X153318797Y-74870459D01*
X153328177Y-74869473D01*
X153331493Y-74868472D01*
X153424055Y-74859396D01*
X153462076Y-74855400D01*
X153557924Y-74855400D01*
X153701203Y-74870459D01*
X153701203Y-74870459D01*
G37*
G36*
X143541203Y-74870459D02*
G01*
X143623535Y-74897211D01*
X143712046Y-74925288D01*
X143715078Y-74926955D01*
X143724050Y-74929870D01*
X143797139Y-74972068D01*
X143869223Y-75011696D01*
X143876824Y-75018074D01*
X143890549Y-75025998D01*
X143949143Y-75078757D01*
X144006622Y-75126987D01*
X144016886Y-75139753D01*
X144033423Y-75154643D01*
X144076242Y-75213577D01*
X144119012Y-75266774D01*
X144129585Y-75286999D01*
X144146429Y-75310182D01*
X144173543Y-75371082D01*
X144202110Y-75425724D01*
X144210376Y-75453808D01*
X144224627Y-75485817D01*
X144237184Y-75544893D01*
X144252752Y-75597788D01*
X144255990Y-75633370D01*
X144264599Y-75673872D01*
X144264599Y-75727971D01*
X144269008Y-75776420D01*
X144264599Y-75818369D01*
X144264599Y-75866128D01*
X144254669Y-75912844D01*
X144250260Y-75954795D01*
X144235874Y-76001268D01*
X144224627Y-76054183D01*
X144207785Y-76092011D01*
X144197220Y-76126141D01*
X144170994Y-76174645D01*
X144146429Y-76229819D01*
X144125837Y-76258161D01*
X144111913Y-76283913D01*
X144072606Y-76331426D01*
X144033423Y-76385357D01*
X144012129Y-76404531D01*
X143997579Y-76422118D01*
X143944686Y-76465257D01*
X143890549Y-76514002D01*
X143871273Y-76525131D01*
X143858585Y-76535479D01*
X143792351Y-76570697D01*
X143724050Y-76610130D01*
X143708977Y-76615027D01*
X143700214Y-76619687D01*
X143621447Y-76643468D01*
X143541203Y-76669541D01*
X143531823Y-76670527D01*
X143528507Y-76671528D01*
X143435945Y-76680604D01*
X143397924Y-76684600D01*
X143302076Y-76684600D01*
X143158797Y-76669541D01*
X143076465Y-76642789D01*
X142987954Y-76614712D01*
X142984922Y-76613045D01*
X142975950Y-76610130D01*
X142902861Y-76567932D01*
X142830777Y-76528304D01*
X142823176Y-76521926D01*
X142809451Y-76514002D01*
X142750857Y-76461243D01*
X142693378Y-76413013D01*
X142683114Y-76400247D01*
X142666577Y-76385357D01*
X142623758Y-76326423D01*
X142580988Y-76273226D01*
X142570415Y-76253001D01*
X142553571Y-76229818D01*
X142526457Y-76168918D01*
X142497890Y-76114276D01*
X142489624Y-76086192D01*
X142475373Y-76054183D01*
X142462816Y-75995107D01*
X142447248Y-75942212D01*
X142444010Y-75906630D01*
X142435401Y-75866128D01*
X142435401Y-75812029D01*
X142430992Y-75763580D01*
X142435401Y-75721631D01*
X142435401Y-75673872D01*
X142445331Y-75627156D01*
X142449740Y-75585205D01*
X142464126Y-75538732D01*
X142475373Y-75485817D01*
X142492215Y-75447989D01*
X142502780Y-75413859D01*
X142529006Y-75365355D01*
X142553571Y-75310181D01*
X142574163Y-75281839D01*
X142588087Y-75256087D01*
X142627394Y-75208574D01*
X142666577Y-75154643D01*
X142687871Y-75135469D01*
X142702421Y-75117882D01*
X142755314Y-75074743D01*
X142809451Y-75025998D01*
X142828727Y-75014869D01*
X142841415Y-75004521D01*
X142907649Y-74969303D01*
X142975950Y-74929870D01*
X142991023Y-74924973D01*
X142999786Y-74920313D01*
X143078553Y-74896532D01*
X143158797Y-74870459D01*
X143168177Y-74869473D01*
X143171493Y-74868472D01*
X143264055Y-74859396D01*
X143302076Y-74855400D01*
X143397924Y-74855400D01*
X143541203Y-74870459D01*
X143541203Y-74870459D01*
G37*
G36*
X146081203Y-74870459D02*
G01*
X146163535Y-74897211D01*
X146252046Y-74925288D01*
X146255078Y-74926955D01*
X146264050Y-74929870D01*
X146337139Y-74972068D01*
X146409223Y-75011696D01*
X146416824Y-75018074D01*
X146430549Y-75025998D01*
X146489143Y-75078757D01*
X146546622Y-75126987D01*
X146556886Y-75139753D01*
X146573423Y-75154643D01*
X146616242Y-75213577D01*
X146659012Y-75266774D01*
X146669585Y-75286999D01*
X146686429Y-75310182D01*
X146713543Y-75371082D01*
X146742110Y-75425724D01*
X146750376Y-75453808D01*
X146764627Y-75485817D01*
X146777184Y-75544893D01*
X146792752Y-75597788D01*
X146795990Y-75633370D01*
X146804599Y-75673872D01*
X146804599Y-75727971D01*
X146809008Y-75776420D01*
X146804599Y-75818369D01*
X146804599Y-75866128D01*
X146794669Y-75912844D01*
X146790260Y-75954795D01*
X146775874Y-76001268D01*
X146764627Y-76054183D01*
X146747785Y-76092011D01*
X146737220Y-76126141D01*
X146710994Y-76174645D01*
X146686429Y-76229819D01*
X146665837Y-76258161D01*
X146651913Y-76283913D01*
X146612606Y-76331426D01*
X146573423Y-76385357D01*
X146552129Y-76404531D01*
X146537579Y-76422118D01*
X146484686Y-76465257D01*
X146430549Y-76514002D01*
X146411273Y-76525131D01*
X146398585Y-76535479D01*
X146332351Y-76570697D01*
X146264050Y-76610130D01*
X146248977Y-76615027D01*
X146240214Y-76619687D01*
X146161447Y-76643468D01*
X146081203Y-76669541D01*
X146071823Y-76670527D01*
X146068507Y-76671528D01*
X145975945Y-76680604D01*
X145937924Y-76684600D01*
X145842076Y-76684600D01*
X145698797Y-76669541D01*
X145616465Y-76642789D01*
X145527954Y-76614712D01*
X145524922Y-76613045D01*
X145515950Y-76610130D01*
X145442861Y-76567932D01*
X145370777Y-76528304D01*
X145363176Y-76521926D01*
X145349451Y-76514002D01*
X145290857Y-76461243D01*
X145233378Y-76413013D01*
X145223114Y-76400247D01*
X145206577Y-76385357D01*
X145163758Y-76326423D01*
X145120988Y-76273226D01*
X145110415Y-76253001D01*
X145093571Y-76229818D01*
X145066457Y-76168918D01*
X145037890Y-76114276D01*
X145029624Y-76086192D01*
X145015373Y-76054183D01*
X145002816Y-75995107D01*
X144987248Y-75942212D01*
X144984010Y-75906630D01*
X144975401Y-75866128D01*
X144975401Y-75812029D01*
X144970992Y-75763580D01*
X144975401Y-75721631D01*
X144975401Y-75673872D01*
X144985331Y-75627156D01*
X144989740Y-75585205D01*
X145004126Y-75538732D01*
X145015373Y-75485817D01*
X145032215Y-75447989D01*
X145042780Y-75413859D01*
X145069006Y-75365355D01*
X145093571Y-75310181D01*
X145114163Y-75281839D01*
X145128087Y-75256087D01*
X145167394Y-75208574D01*
X145206577Y-75154643D01*
X145227871Y-75135469D01*
X145242421Y-75117882D01*
X145295314Y-75074743D01*
X145349451Y-75025998D01*
X145368727Y-75014869D01*
X145381415Y-75004521D01*
X145447649Y-74969303D01*
X145515950Y-74929870D01*
X145531023Y-74924973D01*
X145539786Y-74920313D01*
X145618553Y-74896532D01*
X145698797Y-74870459D01*
X145708177Y-74869473D01*
X145711493Y-74868472D01*
X145804055Y-74859396D01*
X145842076Y-74855400D01*
X145937924Y-74855400D01*
X146081203Y-74870459D01*
X146081203Y-74870459D01*
G37*
G36*
X141001203Y-74870459D02*
G01*
X141083535Y-74897211D01*
X141172046Y-74925288D01*
X141175078Y-74926955D01*
X141184050Y-74929870D01*
X141257139Y-74972068D01*
X141329223Y-75011696D01*
X141336824Y-75018074D01*
X141350549Y-75025998D01*
X141409143Y-75078757D01*
X141466622Y-75126987D01*
X141476886Y-75139753D01*
X141493423Y-75154643D01*
X141536242Y-75213577D01*
X141579012Y-75266774D01*
X141589585Y-75286999D01*
X141606429Y-75310182D01*
X141633543Y-75371082D01*
X141662110Y-75425724D01*
X141670376Y-75453808D01*
X141684627Y-75485817D01*
X141697184Y-75544893D01*
X141712752Y-75597788D01*
X141715990Y-75633370D01*
X141724599Y-75673872D01*
X141724599Y-75727971D01*
X141729008Y-75776420D01*
X141724599Y-75818369D01*
X141724599Y-75866128D01*
X141714669Y-75912844D01*
X141710260Y-75954795D01*
X141695874Y-76001268D01*
X141684627Y-76054183D01*
X141667785Y-76092011D01*
X141657220Y-76126141D01*
X141630994Y-76174645D01*
X141606429Y-76229819D01*
X141585837Y-76258161D01*
X141571913Y-76283913D01*
X141532606Y-76331426D01*
X141493423Y-76385357D01*
X141472129Y-76404531D01*
X141457579Y-76422118D01*
X141404686Y-76465257D01*
X141350549Y-76514002D01*
X141331273Y-76525131D01*
X141318585Y-76535479D01*
X141252351Y-76570697D01*
X141184050Y-76610130D01*
X141168977Y-76615027D01*
X141160214Y-76619687D01*
X141081447Y-76643468D01*
X141001203Y-76669541D01*
X140991823Y-76670527D01*
X140988507Y-76671528D01*
X140895945Y-76680604D01*
X140857924Y-76684600D01*
X140762076Y-76684600D01*
X140618797Y-76669541D01*
X140536465Y-76642789D01*
X140447954Y-76614712D01*
X140444922Y-76613045D01*
X140435950Y-76610130D01*
X140362861Y-76567932D01*
X140290777Y-76528304D01*
X140283176Y-76521926D01*
X140269451Y-76514002D01*
X140210857Y-76461243D01*
X140153378Y-76413013D01*
X140143114Y-76400247D01*
X140126577Y-76385357D01*
X140083758Y-76326423D01*
X140040988Y-76273226D01*
X140030415Y-76253001D01*
X140013571Y-76229818D01*
X139986457Y-76168918D01*
X139957890Y-76114276D01*
X139949624Y-76086192D01*
X139935373Y-76054183D01*
X139922816Y-75995107D01*
X139907248Y-75942212D01*
X139904010Y-75906630D01*
X139895401Y-75866128D01*
X139895401Y-75812029D01*
X139890992Y-75763580D01*
X139895401Y-75721631D01*
X139895401Y-75673872D01*
X139905331Y-75627156D01*
X139909740Y-75585205D01*
X139924126Y-75538732D01*
X139935373Y-75485817D01*
X139952215Y-75447989D01*
X139962780Y-75413859D01*
X139989006Y-75365355D01*
X140013571Y-75310181D01*
X140034163Y-75281839D01*
X140048087Y-75256087D01*
X140087394Y-75208574D01*
X140126577Y-75154643D01*
X140147871Y-75135469D01*
X140162421Y-75117882D01*
X140215314Y-75074743D01*
X140269451Y-75025998D01*
X140288727Y-75014869D01*
X140301415Y-75004521D01*
X140367649Y-74969303D01*
X140435950Y-74929870D01*
X140451023Y-74924973D01*
X140459786Y-74920313D01*
X140538553Y-74896532D01*
X140618797Y-74870459D01*
X140628177Y-74869473D01*
X140631493Y-74868472D01*
X140724055Y-74859396D01*
X140762076Y-74855400D01*
X140857924Y-74855400D01*
X141001203Y-74870459D01*
X141001203Y-74870459D01*
G37*
G36*
X138461203Y-74870459D02*
G01*
X138543535Y-74897211D01*
X138632046Y-74925288D01*
X138635078Y-74926955D01*
X138644050Y-74929870D01*
X138717139Y-74972068D01*
X138789223Y-75011696D01*
X138796824Y-75018074D01*
X138810549Y-75025998D01*
X138869143Y-75078757D01*
X138926622Y-75126987D01*
X138936886Y-75139753D01*
X138953423Y-75154643D01*
X138996242Y-75213577D01*
X139039012Y-75266774D01*
X139049585Y-75286999D01*
X139066429Y-75310182D01*
X139093543Y-75371082D01*
X139122110Y-75425724D01*
X139130376Y-75453808D01*
X139144627Y-75485817D01*
X139157184Y-75544893D01*
X139172752Y-75597788D01*
X139175990Y-75633370D01*
X139184599Y-75673872D01*
X139184599Y-75727971D01*
X139189008Y-75776420D01*
X139184599Y-75818369D01*
X139184599Y-75866128D01*
X139174669Y-75912844D01*
X139170260Y-75954795D01*
X139155874Y-76001268D01*
X139144627Y-76054183D01*
X139127785Y-76092011D01*
X139117220Y-76126141D01*
X139090994Y-76174645D01*
X139066429Y-76229819D01*
X139045837Y-76258161D01*
X139031913Y-76283913D01*
X138992606Y-76331426D01*
X138953423Y-76385357D01*
X138932129Y-76404531D01*
X138917579Y-76422118D01*
X138864686Y-76465257D01*
X138810549Y-76514002D01*
X138791273Y-76525131D01*
X138778585Y-76535479D01*
X138712351Y-76570697D01*
X138644050Y-76610130D01*
X138628977Y-76615027D01*
X138620214Y-76619687D01*
X138541447Y-76643468D01*
X138461203Y-76669541D01*
X138451823Y-76670527D01*
X138448507Y-76671528D01*
X138355945Y-76680604D01*
X138317924Y-76684600D01*
X138222076Y-76684600D01*
X138078797Y-76669541D01*
X137996465Y-76642789D01*
X137907954Y-76614712D01*
X137904922Y-76613045D01*
X137895950Y-76610130D01*
X137822861Y-76567932D01*
X137750777Y-76528304D01*
X137743176Y-76521926D01*
X137729451Y-76514002D01*
X137670857Y-76461243D01*
X137613378Y-76413013D01*
X137603114Y-76400247D01*
X137586577Y-76385357D01*
X137543758Y-76326423D01*
X137500988Y-76273226D01*
X137490415Y-76253001D01*
X137473571Y-76229818D01*
X137446457Y-76168918D01*
X137417890Y-76114276D01*
X137409624Y-76086192D01*
X137395373Y-76054183D01*
X137382816Y-75995107D01*
X137367248Y-75942212D01*
X137364010Y-75906630D01*
X137355401Y-75866128D01*
X137355401Y-75812029D01*
X137350992Y-75763580D01*
X137355401Y-75721631D01*
X137355401Y-75673872D01*
X137365331Y-75627156D01*
X137369740Y-75585205D01*
X137384126Y-75538732D01*
X137395373Y-75485817D01*
X137412215Y-75447989D01*
X137422780Y-75413859D01*
X137449006Y-75365355D01*
X137473571Y-75310181D01*
X137494163Y-75281839D01*
X137508087Y-75256087D01*
X137547394Y-75208574D01*
X137586577Y-75154643D01*
X137607871Y-75135469D01*
X137622421Y-75117882D01*
X137675314Y-75074743D01*
X137729451Y-75025998D01*
X137748727Y-75014869D01*
X137761415Y-75004521D01*
X137827649Y-74969303D01*
X137895950Y-74929870D01*
X137911023Y-74924973D01*
X137919786Y-74920313D01*
X137998553Y-74896532D01*
X138078797Y-74870459D01*
X138088177Y-74869473D01*
X138091493Y-74868472D01*
X138184055Y-74859396D01*
X138222076Y-74855400D01*
X138317924Y-74855400D01*
X138461203Y-74870459D01*
X138461203Y-74870459D01*
G37*
G36*
X148621203Y-74870459D02*
G01*
X148703535Y-74897211D01*
X148792046Y-74925288D01*
X148795078Y-74926955D01*
X148804050Y-74929870D01*
X148877139Y-74972068D01*
X148949223Y-75011696D01*
X148956824Y-75018074D01*
X148970549Y-75025998D01*
X149029143Y-75078757D01*
X149086622Y-75126987D01*
X149096886Y-75139753D01*
X149113423Y-75154643D01*
X149156242Y-75213577D01*
X149199012Y-75266774D01*
X149209585Y-75286999D01*
X149226429Y-75310182D01*
X149253543Y-75371082D01*
X149282110Y-75425724D01*
X149290376Y-75453808D01*
X149304627Y-75485817D01*
X149317184Y-75544893D01*
X149332752Y-75597788D01*
X149335990Y-75633370D01*
X149344599Y-75673872D01*
X149344599Y-75727971D01*
X149349008Y-75776420D01*
X149344599Y-75818369D01*
X149344599Y-75866128D01*
X149334669Y-75912844D01*
X149330260Y-75954795D01*
X149315874Y-76001268D01*
X149304627Y-76054183D01*
X149287785Y-76092011D01*
X149277220Y-76126141D01*
X149250994Y-76174645D01*
X149226429Y-76229819D01*
X149205837Y-76258161D01*
X149191913Y-76283913D01*
X149152606Y-76331426D01*
X149113423Y-76385357D01*
X149092129Y-76404531D01*
X149077579Y-76422118D01*
X149024686Y-76465257D01*
X148970549Y-76514002D01*
X148951273Y-76525131D01*
X148938585Y-76535479D01*
X148872351Y-76570697D01*
X148804050Y-76610130D01*
X148788977Y-76615027D01*
X148780214Y-76619687D01*
X148701447Y-76643468D01*
X148621203Y-76669541D01*
X148611823Y-76670527D01*
X148608507Y-76671528D01*
X148515945Y-76680604D01*
X148477924Y-76684600D01*
X148382076Y-76684600D01*
X148238797Y-76669541D01*
X148156465Y-76642789D01*
X148067954Y-76614712D01*
X148064922Y-76613045D01*
X148055950Y-76610130D01*
X147982861Y-76567932D01*
X147910777Y-76528304D01*
X147903176Y-76521926D01*
X147889451Y-76514002D01*
X147830857Y-76461243D01*
X147773378Y-76413013D01*
X147763114Y-76400247D01*
X147746577Y-76385357D01*
X147703758Y-76326423D01*
X147660988Y-76273226D01*
X147650415Y-76253001D01*
X147633571Y-76229818D01*
X147606457Y-76168918D01*
X147577890Y-76114276D01*
X147569624Y-76086192D01*
X147555373Y-76054183D01*
X147542816Y-75995107D01*
X147527248Y-75942212D01*
X147524010Y-75906630D01*
X147515401Y-75866128D01*
X147515401Y-75812029D01*
X147510992Y-75763580D01*
X147515401Y-75721631D01*
X147515401Y-75673872D01*
X147525331Y-75627156D01*
X147529740Y-75585205D01*
X147544126Y-75538732D01*
X147555373Y-75485817D01*
X147572215Y-75447989D01*
X147582780Y-75413859D01*
X147609006Y-75365355D01*
X147633571Y-75310181D01*
X147654163Y-75281839D01*
X147668087Y-75256087D01*
X147707394Y-75208574D01*
X147746577Y-75154643D01*
X147767871Y-75135469D01*
X147782421Y-75117882D01*
X147835314Y-75074743D01*
X147889451Y-75025998D01*
X147908727Y-75014869D01*
X147921415Y-75004521D01*
X147987649Y-74969303D01*
X148055950Y-74929870D01*
X148071023Y-74924973D01*
X148079786Y-74920313D01*
X148158553Y-74896532D01*
X148238797Y-74870459D01*
X148248177Y-74869473D01*
X148251493Y-74868472D01*
X148344055Y-74859396D01*
X148382076Y-74855400D01*
X148477924Y-74855400D01*
X148621203Y-74870459D01*
X148621203Y-74870459D01*
G37*
G36*
X151161203Y-74870459D02*
G01*
X151243535Y-74897211D01*
X151332046Y-74925288D01*
X151335078Y-74926955D01*
X151344050Y-74929870D01*
X151417139Y-74972068D01*
X151489223Y-75011696D01*
X151496824Y-75018074D01*
X151510549Y-75025998D01*
X151569143Y-75078757D01*
X151626622Y-75126987D01*
X151636886Y-75139753D01*
X151653423Y-75154643D01*
X151696242Y-75213577D01*
X151739012Y-75266774D01*
X151749585Y-75286999D01*
X151766429Y-75310182D01*
X151793543Y-75371082D01*
X151822110Y-75425724D01*
X151830376Y-75453808D01*
X151844627Y-75485817D01*
X151857184Y-75544893D01*
X151872752Y-75597788D01*
X151875990Y-75633370D01*
X151884599Y-75673872D01*
X151884599Y-75727971D01*
X151889008Y-75776420D01*
X151884599Y-75818369D01*
X151884599Y-75866128D01*
X151874669Y-75912844D01*
X151870260Y-75954795D01*
X151855874Y-76001268D01*
X151844627Y-76054183D01*
X151827785Y-76092011D01*
X151817220Y-76126141D01*
X151790994Y-76174645D01*
X151766429Y-76229819D01*
X151745837Y-76258161D01*
X151731913Y-76283913D01*
X151692606Y-76331426D01*
X151653423Y-76385357D01*
X151632129Y-76404531D01*
X151617579Y-76422118D01*
X151564686Y-76465257D01*
X151510549Y-76514002D01*
X151491273Y-76525131D01*
X151478585Y-76535479D01*
X151412351Y-76570697D01*
X151344050Y-76610130D01*
X151328977Y-76615027D01*
X151320214Y-76619687D01*
X151241447Y-76643468D01*
X151161203Y-76669541D01*
X151151823Y-76670527D01*
X151148507Y-76671528D01*
X151055945Y-76680604D01*
X151017924Y-76684600D01*
X150922076Y-76684600D01*
X150778797Y-76669541D01*
X150696465Y-76642789D01*
X150607954Y-76614712D01*
X150604922Y-76613045D01*
X150595950Y-76610130D01*
X150522861Y-76567932D01*
X150450777Y-76528304D01*
X150443176Y-76521926D01*
X150429451Y-76514002D01*
X150370857Y-76461243D01*
X150313378Y-76413013D01*
X150303114Y-76400247D01*
X150286577Y-76385357D01*
X150243758Y-76326423D01*
X150200988Y-76273226D01*
X150190415Y-76253001D01*
X150173571Y-76229818D01*
X150146457Y-76168918D01*
X150117890Y-76114276D01*
X150109624Y-76086192D01*
X150095373Y-76054183D01*
X150082816Y-75995107D01*
X150067248Y-75942212D01*
X150064010Y-75906630D01*
X150055401Y-75866128D01*
X150055401Y-75812029D01*
X150050992Y-75763580D01*
X150055401Y-75721631D01*
X150055401Y-75673872D01*
X150065331Y-75627156D01*
X150069740Y-75585205D01*
X150084126Y-75538732D01*
X150095373Y-75485817D01*
X150112215Y-75447989D01*
X150122780Y-75413859D01*
X150149006Y-75365355D01*
X150173571Y-75310181D01*
X150194163Y-75281839D01*
X150208087Y-75256087D01*
X150247394Y-75208574D01*
X150286577Y-75154643D01*
X150307871Y-75135469D01*
X150322421Y-75117882D01*
X150375314Y-75074743D01*
X150429451Y-75025998D01*
X150448727Y-75014869D01*
X150461415Y-75004521D01*
X150527649Y-74969303D01*
X150595950Y-74929870D01*
X150611023Y-74924973D01*
X150619786Y-74920313D01*
X150698553Y-74896532D01*
X150778797Y-74870459D01*
X150788177Y-74869473D01*
X150791493Y-74868472D01*
X150884055Y-74859396D01*
X150922076Y-74855400D01*
X151017924Y-74855400D01*
X151161203Y-74870459D01*
X151161203Y-74870459D01*
G37*
M02*
