G04 #@! TF.GenerationSoftware,KiCad,Pcbnew,5.99.0-unknown-c3175b4~86~ubuntu16.04.1*
G04 #@! TF.CreationDate,2019-12-02T17:51:55+01:00*
G04 #@! TF.ProjectId,OutAna,4f757441-6e61-42e6-9b69-6361645f7063,rev?*
G04 #@! TF.SameCoordinates,Original*
G04 #@! TF.FileFunction,Legend,Top*
G04 #@! TF.FilePolarity,Positive*
%FSLAX46Y46*%
G04 Gerber Fmt 4.6, Leading zero omitted, Abs format (unit mm)*
G04 Created by KiCad (PCBNEW 5.99.0-unknown-c3175b4~86~ubuntu16.04.1) date 2019-12-02 17:51:55*
%MOMM*%
%LPD*%
G04 APERTURE LIST*
%ADD10C,0.150000*%
%ADD11C,0.120000*%
%ADD12C,0.010000*%
G04 APERTURE END LIST*
D10*
X157820952Y-72885714D02*
X158582857Y-73171428D01*
X157820952Y-73457142D01*
X159630476Y-73457142D02*
X159582857Y-73504761D01*
X159440000Y-73552380D01*
X159344761Y-73552380D01*
X159201904Y-73504761D01*
X159106666Y-73409523D01*
X159059047Y-73314285D01*
X159011428Y-73123809D01*
X159011428Y-72980952D01*
X159059047Y-72790476D01*
X159106666Y-72695238D01*
X159201904Y-72600000D01*
X159344761Y-72552380D01*
X159440000Y-72552380D01*
X159582857Y-72600000D01*
X159630476Y-72647619D01*
X160487619Y-72885714D02*
X160487619Y-73552380D01*
X160059047Y-72885714D02*
X160059047Y-73409523D01*
X160106666Y-73504761D01*
X160201904Y-73552380D01*
X160344761Y-73552380D01*
X160440000Y-73504761D01*
X160487619Y-73457142D01*
X160963809Y-73552380D02*
X160963809Y-72885714D01*
X160963809Y-73076190D02*
X161011428Y-72980952D01*
X161059047Y-72933333D01*
X161154285Y-72885714D01*
X161249523Y-72885714D01*
X161582857Y-73552380D02*
X161582857Y-72885714D01*
X161582857Y-73076190D02*
X161630476Y-72980952D01*
X161678095Y-72933333D01*
X161773333Y-72885714D01*
X161868571Y-72885714D01*
X162582857Y-73504761D02*
X162487619Y-73552380D01*
X162297142Y-73552380D01*
X162201904Y-73504761D01*
X162154285Y-73409523D01*
X162154285Y-73028571D01*
X162201904Y-72933333D01*
X162297142Y-72885714D01*
X162487619Y-72885714D01*
X162582857Y-72933333D01*
X162630476Y-73028571D01*
X162630476Y-73123809D01*
X162154285Y-73219047D01*
X163059047Y-72885714D02*
X163059047Y-73552380D01*
X163059047Y-72980952D02*
X163106666Y-72933333D01*
X163201904Y-72885714D01*
X163344761Y-72885714D01*
X163440000Y-72933333D01*
X163487619Y-73028571D01*
X163487619Y-73552380D01*
X163820952Y-72885714D02*
X164201904Y-72885714D01*
X163963809Y-72552380D02*
X163963809Y-73409523D01*
X164011428Y-73504761D01*
X164106666Y-73552380D01*
X164201904Y-73552380D01*
X142870476Y-72815714D02*
X142870476Y-73482380D01*
X142632380Y-72434761D02*
X142394285Y-73149047D01*
X143013333Y-73149047D01*
X145086666Y-72562380D02*
X145705714Y-72562380D01*
X145372380Y-72943333D01*
X145515238Y-72943333D01*
X145610476Y-72990952D01*
X145658095Y-73038571D01*
X145705714Y-73133809D01*
X145705714Y-73371904D01*
X145658095Y-73467142D01*
X145610476Y-73514761D01*
X145515238Y-73562380D01*
X145229523Y-73562380D01*
X145134285Y-73514761D01*
X145086666Y-73467142D01*
X149794285Y-72607619D02*
X149841904Y-72560000D01*
X149937142Y-72512380D01*
X150175238Y-72512380D01*
X150270476Y-72560000D01*
X150318095Y-72607619D01*
X150365714Y-72702857D01*
X150365714Y-72798095D01*
X150318095Y-72940952D01*
X149746666Y-73512380D01*
X150365714Y-73512380D01*
X153075714Y-73552380D02*
X152504285Y-73552380D01*
X152790000Y-73552380D02*
X152790000Y-72552380D01*
X152694761Y-72695238D01*
X152599523Y-72790476D01*
X152504285Y-72838095D01*
X155401904Y-72552380D02*
X155592380Y-72552380D01*
X155687619Y-72600000D01*
X155782857Y-72695238D01*
X155830476Y-72885714D01*
X155830476Y-73219047D01*
X155782857Y-73409523D01*
X155687619Y-73504761D01*
X155592380Y-73552380D01*
X155401904Y-73552380D01*
X155306666Y-73504761D01*
X155211428Y-73409523D01*
X155163809Y-73219047D01*
X155163809Y-72885714D01*
X155211428Y-72695238D01*
X155306666Y-72600000D01*
X155401904Y-72552380D01*
X156259047Y-73552380D02*
X156259047Y-72552380D01*
X156830476Y-73552380D01*
X156830476Y-72552380D01*
X157306666Y-73171428D02*
X158068571Y-73171428D01*
X176378095Y-122952380D02*
X176044761Y-122476190D01*
X175806666Y-122952380D02*
X175806666Y-121952380D01*
X176187619Y-121952380D01*
X176282857Y-122000000D01*
X176330476Y-122047619D01*
X176378095Y-122142857D01*
X176378095Y-122285714D01*
X176330476Y-122380952D01*
X176282857Y-122428571D01*
X176187619Y-122476190D01*
X175806666Y-122476190D01*
X177235238Y-122952380D02*
X177235238Y-122428571D01*
X177187619Y-122333333D01*
X177092380Y-122285714D01*
X176901904Y-122285714D01*
X176806666Y-122333333D01*
X177235238Y-122904761D02*
X177140000Y-122952380D01*
X176901904Y-122952380D01*
X176806666Y-122904761D01*
X176759047Y-122809523D01*
X176759047Y-122714285D01*
X176806666Y-122619047D01*
X176901904Y-122571428D01*
X177140000Y-122571428D01*
X177235238Y-122523809D01*
X178140000Y-122952380D02*
X178140000Y-121952380D01*
X178140000Y-122904761D02*
X178044761Y-122952380D01*
X177854285Y-122952380D01*
X177759047Y-122904761D01*
X177711428Y-122857142D01*
X177663809Y-122761904D01*
X177663809Y-122476190D01*
X177711428Y-122380952D01*
X177759047Y-122333333D01*
X177854285Y-122285714D01*
X178044761Y-122285714D01*
X178140000Y-122333333D01*
X178616190Y-122952380D02*
X178616190Y-122285714D01*
X178616190Y-121952380D02*
X178568571Y-122000000D01*
X178616190Y-122047619D01*
X178663809Y-122000000D01*
X178616190Y-121952380D01*
X178616190Y-122047619D01*
X179235238Y-122952380D02*
X179140000Y-122904761D01*
X179092380Y-122857142D01*
X179044761Y-122761904D01*
X179044761Y-122476190D01*
X179092380Y-122380952D01*
X179140000Y-122333333D01*
X179235238Y-122285714D01*
X179378095Y-122285714D01*
X179473333Y-122333333D01*
X179520952Y-122380952D01*
X179568571Y-122476190D01*
X179568571Y-122761904D01*
X179520952Y-122857142D01*
X179473333Y-122904761D01*
X179378095Y-122952380D01*
X179235238Y-122952380D01*
X180378095Y-122904761D02*
X180282857Y-122952380D01*
X180092380Y-122952380D01*
X179997142Y-122904761D01*
X179949523Y-122809523D01*
X179949523Y-122428571D01*
X179997142Y-122333333D01*
X180092380Y-122285714D01*
X180282857Y-122285714D01*
X180378095Y-122333333D01*
X180425714Y-122428571D01*
X180425714Y-122523809D01*
X179949523Y-122619047D01*
X180997142Y-122952380D02*
X180901904Y-122904761D01*
X180854285Y-122809523D01*
X180854285Y-121952380D01*
X181235238Y-122285714D02*
X181616190Y-122285714D01*
X181378095Y-122952380D02*
X181378095Y-122095238D01*
X181425714Y-122000000D01*
X181520952Y-121952380D01*
X181616190Y-121952380D01*
X126066666Y-64457380D02*
X126257142Y-64457380D01*
X126352380Y-64505000D01*
X126447619Y-64600238D01*
X126495238Y-64790714D01*
X126495238Y-65124047D01*
X126447619Y-65314523D01*
X126352380Y-65409761D01*
X126257142Y-65457380D01*
X126066666Y-65457380D01*
X125971428Y-65409761D01*
X125876190Y-65314523D01*
X125828571Y-65124047D01*
X125828571Y-64790714D01*
X125876190Y-64600238D01*
X125971428Y-64505000D01*
X126066666Y-64457380D01*
X126923809Y-64790714D02*
X126923809Y-65790714D01*
X126923809Y-64838333D02*
X127019047Y-64790714D01*
X127209523Y-64790714D01*
X127304761Y-64838333D01*
X127352380Y-64885952D01*
X127400000Y-64981190D01*
X127400000Y-65266904D01*
X127352380Y-65362142D01*
X127304761Y-65409761D01*
X127209523Y-65457380D01*
X127019047Y-65457380D01*
X126923809Y-65409761D01*
X128209523Y-65409761D02*
X128114285Y-65457380D01*
X127923809Y-65457380D01*
X127828571Y-65409761D01*
X127780952Y-65314523D01*
X127780952Y-64933571D01*
X127828571Y-64838333D01*
X127923809Y-64790714D01*
X128114285Y-64790714D01*
X128209523Y-64838333D01*
X128257142Y-64933571D01*
X128257142Y-65028809D01*
X127780952Y-65124047D01*
X128685714Y-64790714D02*
X128685714Y-65457380D01*
X128685714Y-64885952D02*
X128733333Y-64838333D01*
X128828571Y-64790714D01*
X128971428Y-64790714D01*
X129066666Y-64838333D01*
X129114285Y-64933571D01*
X129114285Y-65457380D01*
X129590476Y-65457380D02*
X129590476Y-64457380D01*
X129971428Y-64457380D01*
X130066666Y-64505000D01*
X130114285Y-64552619D01*
X130161904Y-64647857D01*
X130161904Y-64790714D01*
X130114285Y-64885952D01*
X130066666Y-64933571D01*
X129971428Y-64981190D01*
X129590476Y-64981190D01*
X131066666Y-65457380D02*
X130590476Y-65457380D01*
X130590476Y-64457380D01*
X131971428Y-65362142D02*
X131923809Y-65409761D01*
X131780952Y-65457380D01*
X131685714Y-65457380D01*
X131542857Y-65409761D01*
X131447619Y-65314523D01*
X131400000Y-65219285D01*
X131352380Y-65028809D01*
X131352380Y-64885952D01*
X131400000Y-64695476D01*
X131447619Y-64600238D01*
X131542857Y-64505000D01*
X131685714Y-64457380D01*
X131780952Y-64457380D01*
X131923809Y-64505000D01*
X131971428Y-64552619D01*
X124519047Y-66067380D02*
X124709523Y-66067380D01*
X124804761Y-66115000D01*
X124900000Y-66210238D01*
X124947619Y-66400714D01*
X124947619Y-66734047D01*
X124900000Y-66924523D01*
X124804761Y-67019761D01*
X124709523Y-67067380D01*
X124519047Y-67067380D01*
X124423809Y-67019761D01*
X124328571Y-66924523D01*
X124280952Y-66734047D01*
X124280952Y-66400714D01*
X124328571Y-66210238D01*
X124423809Y-66115000D01*
X124519047Y-66067380D01*
X125804761Y-66400714D02*
X125804761Y-67067380D01*
X125376190Y-66400714D02*
X125376190Y-66924523D01*
X125423809Y-67019761D01*
X125519047Y-67067380D01*
X125661904Y-67067380D01*
X125757142Y-67019761D01*
X125804761Y-66972142D01*
X126138095Y-66400714D02*
X126519047Y-66400714D01*
X126280952Y-66067380D02*
X126280952Y-66924523D01*
X126328571Y-67019761D01*
X126423809Y-67067380D01*
X126519047Y-67067380D01*
X127566666Y-66781666D02*
X128042857Y-66781666D01*
X127471428Y-67067380D02*
X127804761Y-66067380D01*
X128138095Y-67067380D01*
X128471428Y-66400714D02*
X128471428Y-67067380D01*
X128471428Y-66495952D02*
X128519047Y-66448333D01*
X128614285Y-66400714D01*
X128757142Y-66400714D01*
X128852380Y-66448333D01*
X128900000Y-66543571D01*
X128900000Y-67067380D01*
X129804761Y-67067380D02*
X129804761Y-66543571D01*
X129757142Y-66448333D01*
X129661904Y-66400714D01*
X129471428Y-66400714D01*
X129376190Y-66448333D01*
X129804761Y-67019761D02*
X129709523Y-67067380D01*
X129471428Y-67067380D01*
X129376190Y-67019761D01*
X129328571Y-66924523D01*
X129328571Y-66829285D01*
X129376190Y-66734047D01*
X129471428Y-66686428D01*
X129709523Y-66686428D01*
X129804761Y-66638809D01*
X130423809Y-67067380D02*
X130328571Y-67019761D01*
X130280952Y-66924523D01*
X130280952Y-66067380D01*
X130947619Y-67067380D02*
X130852380Y-67019761D01*
X130804761Y-66972142D01*
X130757142Y-66876904D01*
X130757142Y-66591190D01*
X130804761Y-66495952D01*
X130852380Y-66448333D01*
X130947619Y-66400714D01*
X131090476Y-66400714D01*
X131185714Y-66448333D01*
X131233333Y-66495952D01*
X131280952Y-66591190D01*
X131280952Y-66876904D01*
X131233333Y-66972142D01*
X131185714Y-67019761D01*
X131090476Y-67067380D01*
X130947619Y-67067380D01*
X132138095Y-66400714D02*
X132138095Y-67210238D01*
X132090476Y-67305476D01*
X132042857Y-67353095D01*
X131947619Y-67400714D01*
X131804761Y-67400714D01*
X131709523Y-67353095D01*
X132138095Y-67019761D02*
X132042857Y-67067380D01*
X131852380Y-67067380D01*
X131757142Y-67019761D01*
X131709523Y-66972142D01*
X131661904Y-66876904D01*
X131661904Y-66591190D01*
X131709523Y-66495952D01*
X131757142Y-66448333D01*
X131852380Y-66400714D01*
X132042857Y-66400714D01*
X132138095Y-66448333D01*
X132614285Y-67067380D02*
X132614285Y-66400714D01*
X132614285Y-66067380D02*
X132566666Y-66115000D01*
X132614285Y-66162619D01*
X132661904Y-66115000D01*
X132614285Y-66067380D01*
X132614285Y-66162619D01*
X133519047Y-67019761D02*
X133423809Y-67067380D01*
X133233333Y-67067380D01*
X133138095Y-67019761D01*
X133090476Y-66972142D01*
X133042857Y-66876904D01*
X133042857Y-66591190D01*
X133090476Y-66495952D01*
X133138095Y-66448333D01*
X133233333Y-66400714D01*
X133423809Y-66400714D01*
X133519047Y-66448333D01*
X136790000Y-122103571D02*
X137361428Y-122103571D01*
X138432857Y-121639285D02*
X138575714Y-121639285D01*
X138647142Y-121675000D01*
X138718571Y-121746428D01*
X138754285Y-121889285D01*
X138754285Y-122139285D01*
X138718571Y-122282142D01*
X138647142Y-122353571D01*
X138575714Y-122389285D01*
X138432857Y-122389285D01*
X138361428Y-122353571D01*
X138290000Y-122282142D01*
X138254285Y-122139285D01*
X138254285Y-121889285D01*
X138290000Y-121746428D01*
X138361428Y-121675000D01*
X138432857Y-121639285D01*
X139075714Y-121639285D02*
X139075714Y-122246428D01*
X139111428Y-122317857D01*
X139147142Y-122353571D01*
X139218571Y-122389285D01*
X139361428Y-122389285D01*
X139432857Y-122353571D01*
X139468571Y-122317857D01*
X139504285Y-122246428D01*
X139504285Y-121639285D01*
X139754285Y-121639285D02*
X140182857Y-121639285D01*
X139968571Y-122389285D02*
X139968571Y-121639285D01*
X140754285Y-121889285D02*
X140754285Y-122389285D01*
X140575714Y-121603571D02*
X140397142Y-122139285D01*
X140861428Y-122139285D01*
X141718571Y-122103571D02*
X142290000Y-122103571D01*
X142004285Y-122389285D02*
X142004285Y-121817857D01*
X143990000Y-122063571D02*
X144561428Y-122063571D01*
X145632857Y-121599285D02*
X145775714Y-121599285D01*
X145847142Y-121635000D01*
X145918571Y-121706428D01*
X145954285Y-121849285D01*
X145954285Y-122099285D01*
X145918571Y-122242142D01*
X145847142Y-122313571D01*
X145775714Y-122349285D01*
X145632857Y-122349285D01*
X145561428Y-122313571D01*
X145490000Y-122242142D01*
X145454285Y-122099285D01*
X145454285Y-121849285D01*
X145490000Y-121706428D01*
X145561428Y-121635000D01*
X145632857Y-121599285D01*
X146275714Y-121599285D02*
X146275714Y-122206428D01*
X146311428Y-122277857D01*
X146347142Y-122313571D01*
X146418571Y-122349285D01*
X146561428Y-122349285D01*
X146632857Y-122313571D01*
X146668571Y-122277857D01*
X146704285Y-122206428D01*
X146704285Y-121599285D01*
X146954285Y-121599285D02*
X147382857Y-121599285D01*
X147168571Y-122349285D02*
X147168571Y-121599285D01*
X147561428Y-121599285D02*
X148025714Y-121599285D01*
X147775714Y-121885000D01*
X147882857Y-121885000D01*
X147954285Y-121920714D01*
X147990000Y-121956428D01*
X148025714Y-122027857D01*
X148025714Y-122206428D01*
X147990000Y-122277857D01*
X147954285Y-122313571D01*
X147882857Y-122349285D01*
X147668571Y-122349285D01*
X147597142Y-122313571D01*
X147561428Y-122277857D01*
X148918571Y-122063571D02*
X149490000Y-122063571D01*
X149204285Y-122349285D02*
X149204285Y-121777857D01*
X150870000Y-122023571D02*
X151441428Y-122023571D01*
X152512857Y-121559285D02*
X152655714Y-121559285D01*
X152727142Y-121595000D01*
X152798571Y-121666428D01*
X152834285Y-121809285D01*
X152834285Y-122059285D01*
X152798571Y-122202142D01*
X152727142Y-122273571D01*
X152655714Y-122309285D01*
X152512857Y-122309285D01*
X152441428Y-122273571D01*
X152370000Y-122202142D01*
X152334285Y-122059285D01*
X152334285Y-121809285D01*
X152370000Y-121666428D01*
X152441428Y-121595000D01*
X152512857Y-121559285D01*
X153155714Y-121559285D02*
X153155714Y-122166428D01*
X153191428Y-122237857D01*
X153227142Y-122273571D01*
X153298571Y-122309285D01*
X153441428Y-122309285D01*
X153512857Y-122273571D01*
X153548571Y-122237857D01*
X153584285Y-122166428D01*
X153584285Y-121559285D01*
X153834285Y-121559285D02*
X154262857Y-121559285D01*
X154048571Y-122309285D02*
X154048571Y-121559285D01*
X154477142Y-121630714D02*
X154512857Y-121595000D01*
X154584285Y-121559285D01*
X154762857Y-121559285D01*
X154834285Y-121595000D01*
X154870000Y-121630714D01*
X154905714Y-121702142D01*
X154905714Y-121773571D01*
X154870000Y-121880714D01*
X154441428Y-122309285D01*
X154905714Y-122309285D01*
X155798571Y-122023571D02*
X156370000Y-122023571D01*
X156084285Y-122309285D02*
X156084285Y-121737857D01*
X157870000Y-121983571D02*
X158441428Y-121983571D01*
X159512857Y-121519285D02*
X159655714Y-121519285D01*
X159727142Y-121555000D01*
X159798571Y-121626428D01*
X159834285Y-121769285D01*
X159834285Y-122019285D01*
X159798571Y-122162142D01*
X159727142Y-122233571D01*
X159655714Y-122269285D01*
X159512857Y-122269285D01*
X159441428Y-122233571D01*
X159370000Y-122162142D01*
X159334285Y-122019285D01*
X159334285Y-121769285D01*
X159370000Y-121626428D01*
X159441428Y-121555000D01*
X159512857Y-121519285D01*
X160155714Y-121519285D02*
X160155714Y-122126428D01*
X160191428Y-122197857D01*
X160227142Y-122233571D01*
X160298571Y-122269285D01*
X160441428Y-122269285D01*
X160512857Y-122233571D01*
X160548571Y-122197857D01*
X160584285Y-122126428D01*
X160584285Y-121519285D01*
X160834285Y-121519285D02*
X161262857Y-121519285D01*
X161048571Y-122269285D02*
X161048571Y-121519285D01*
X161905714Y-122269285D02*
X161477142Y-122269285D01*
X161691428Y-122269285D02*
X161691428Y-121519285D01*
X161620000Y-121626428D01*
X161548571Y-121697857D01*
X161477142Y-121733571D01*
X162798571Y-121983571D02*
X163370000Y-121983571D01*
X163084285Y-122269285D02*
X163084285Y-121697857D01*
D11*
X137345000Y-79185000D02*
X137645000Y-79185000D01*
X137345000Y-77765000D02*
X137645000Y-77765000D01*
X171459000Y-89050000D02*
X171459000Y-88750000D01*
X170039000Y-89050000D02*
X170039000Y-88750000D01*
X173901000Y-93420000D02*
X174201000Y-93420000D01*
X173901000Y-92000000D02*
X174201000Y-92000000D01*
D10*
X173745000Y-85815000D02*
X172345000Y-85815000D01*
X173745000Y-90915000D02*
X177895000Y-90915000D01*
X173745000Y-85765000D02*
X177895000Y-85765000D01*
X173745000Y-90915000D02*
X173745000Y-90770000D01*
X177895000Y-90915000D02*
X177895000Y-90770000D01*
X177895000Y-85765000D02*
X177895000Y-85910000D01*
X173745000Y-85765000D02*
X173745000Y-85815000D01*
D11*
X167770000Y-77640000D02*
X167470000Y-77640000D01*
X167770000Y-79060000D02*
X167470000Y-79060000D01*
X167770000Y-80390000D02*
X167470000Y-80390000D01*
X167770000Y-81810000D02*
X167470000Y-81810000D01*
D10*
X171495000Y-75905000D02*
X171495000Y-75955000D01*
X175645000Y-75905000D02*
X175645000Y-76050000D01*
X175645000Y-81055000D02*
X175645000Y-80910000D01*
X171495000Y-81055000D02*
X171495000Y-80910000D01*
X171495000Y-75905000D02*
X175645000Y-75905000D01*
X171495000Y-81055000D02*
X175645000Y-81055000D01*
X171495000Y-75955000D02*
X170095000Y-75955000D01*
D11*
X144800000Y-74005000D02*
X144800000Y-71735000D01*
X144800000Y-71735000D02*
X143280000Y-71735000D01*
X143280000Y-71735000D02*
X143280000Y-74005000D01*
X147460000Y-74000000D02*
X147460000Y-71730000D01*
X147460000Y-71730000D02*
X145940000Y-71730000D01*
X145940000Y-71730000D02*
X145940000Y-74000000D01*
X152140000Y-73975000D02*
X152140000Y-71705000D01*
X152140000Y-71705000D02*
X150620000Y-71705000D01*
X150620000Y-71705000D02*
X150620000Y-73975000D01*
X154790000Y-73965000D02*
X154790000Y-71695000D01*
X154790000Y-71695000D02*
X153270000Y-71695000D01*
X153270000Y-71695000D02*
X153270000Y-73965000D01*
X133100000Y-106790000D02*
X133100000Y-107720000D01*
X133100000Y-109950000D02*
X133100000Y-109020000D01*
X133100000Y-109950000D02*
X135260000Y-109950000D01*
X133100000Y-106790000D02*
X134560000Y-106790000D01*
X149330000Y-106790000D02*
X149330000Y-107720000D01*
X149330000Y-109950000D02*
X149330000Y-109020000D01*
X149330000Y-109950000D02*
X151490000Y-109950000D01*
X149330000Y-106790000D02*
X150790000Y-106790000D01*
X165730000Y-106780000D02*
X165730000Y-107710000D01*
X165730000Y-109940000D02*
X165730000Y-109010000D01*
X165730000Y-109940000D02*
X167890000Y-109940000D01*
X165730000Y-106780000D02*
X167190000Y-106780000D01*
X181950000Y-106880000D02*
X181950000Y-107810000D01*
X181950000Y-110040000D02*
X181950000Y-109110000D01*
X181950000Y-110040000D02*
X184110000Y-110040000D01*
X181950000Y-106880000D02*
X183410000Y-106880000D01*
X144065000Y-79270000D02*
X144365000Y-79270000D01*
X144065000Y-77850000D02*
X144365000Y-77850000D01*
X147505000Y-79280000D02*
X147805000Y-79280000D01*
X147505000Y-77860000D02*
X147805000Y-77860000D01*
X151240000Y-77860000D02*
X150940000Y-77860000D01*
X151240000Y-79280000D02*
X150940000Y-79280000D01*
X154695000Y-77850000D02*
X154395000Y-77850000D01*
X154695000Y-79270000D02*
X154395000Y-79270000D01*
X177790000Y-93530000D02*
X177790000Y-93830000D01*
X179210000Y-93530000D02*
X179210000Y-93830000D01*
X179365000Y-105690000D02*
X179065000Y-105690000D01*
X179365000Y-107110000D02*
X179065000Y-107110000D01*
D10*
X148335000Y-98120000D02*
X147110000Y-98120000D01*
X148335000Y-101245000D02*
X151685000Y-101245000D01*
X148335000Y-97895000D02*
X151685000Y-97895000D01*
X148335000Y-101245000D02*
X148335000Y-100945000D01*
X151685000Y-101245000D02*
X151685000Y-100945000D01*
X151685000Y-97895000D02*
X151685000Y-98195000D01*
X148335000Y-97895000D02*
X148335000Y-98120000D01*
X128450000Y-104430000D02*
X127525000Y-104430000D01*
X128450000Y-109730000D02*
X127525000Y-109730000D01*
X123150000Y-109730000D02*
X124075000Y-109730000D01*
X123150000Y-104430000D02*
X124075000Y-104430000D01*
X128450000Y-109730000D02*
X128450000Y-108805000D01*
X123150000Y-109730000D02*
X123150000Y-108805000D01*
X128450000Y-104430000D02*
X128450000Y-105355000D01*
X144580000Y-104410000D02*
X143655000Y-104410000D01*
X144580000Y-109710000D02*
X143655000Y-109710000D01*
X139280000Y-109710000D02*
X140205000Y-109710000D01*
X139280000Y-104410000D02*
X140205000Y-104410000D01*
X144580000Y-109710000D02*
X144580000Y-108785000D01*
X139280000Y-109710000D02*
X139280000Y-108785000D01*
X144580000Y-104410000D02*
X144580000Y-105335000D01*
X160990000Y-104420000D02*
X160065000Y-104420000D01*
X160990000Y-109720000D02*
X160065000Y-109720000D01*
X155690000Y-109720000D02*
X156615000Y-109720000D01*
X155690000Y-104420000D02*
X156615000Y-104420000D01*
X160990000Y-109720000D02*
X160990000Y-108795000D01*
X155690000Y-109720000D02*
X155690000Y-108795000D01*
X160990000Y-104420000D02*
X160990000Y-105345000D01*
X177260000Y-104540000D02*
X176335000Y-104540000D01*
X177260000Y-109840000D02*
X176335000Y-109840000D01*
X171960000Y-109840000D02*
X172885000Y-109840000D01*
X171960000Y-104540000D02*
X172885000Y-104540000D01*
X177260000Y-109840000D02*
X177260000Y-108915000D01*
X171960000Y-109840000D02*
X171960000Y-108915000D01*
X177260000Y-104540000D02*
X177260000Y-105465000D01*
D11*
X173345000Y-67140000D02*
X173045000Y-67140000D01*
X173345000Y-68560000D02*
X173045000Y-68560000D01*
X136150000Y-70375000D02*
X136150000Y-70675000D01*
X137570000Y-70375000D02*
X137570000Y-70675000D01*
X130170000Y-70425000D02*
X130170000Y-70725000D01*
X131590000Y-70425000D02*
X131590000Y-70725000D01*
X144975000Y-93240000D02*
X144675000Y-93240000D01*
X144975000Y-94660000D02*
X144675000Y-94660000D01*
X148694000Y-94690000D02*
X148994000Y-94690000D01*
X148694000Y-93270000D02*
X148994000Y-93270000D01*
X121075000Y-109870000D02*
X121375000Y-109870000D01*
X121075000Y-108450000D02*
X121375000Y-108450000D01*
X137205000Y-109790000D02*
X137505000Y-109790000D01*
X137205000Y-108370000D02*
X137505000Y-108370000D01*
X153595000Y-109820000D02*
X153895000Y-109820000D01*
X153595000Y-108400000D02*
X153895000Y-108400000D01*
X169805000Y-109990000D02*
X170105000Y-109990000D01*
X169805000Y-108570000D02*
X170105000Y-108570000D01*
X128485000Y-111970000D02*
X128785000Y-111970000D01*
X128485000Y-110550000D02*
X128785000Y-110550000D01*
X144670000Y-112000000D02*
X144970000Y-112000000D01*
X144670000Y-110580000D02*
X144970000Y-110580000D01*
X161195000Y-112000000D02*
X161495000Y-112000000D01*
X161195000Y-110580000D02*
X161495000Y-110580000D01*
X177475000Y-112030000D02*
X177775000Y-112030000D01*
X177475000Y-110610000D02*
X177775000Y-110610000D01*
X130205000Y-109040000D02*
X130505000Y-109040000D01*
X130205000Y-107620000D02*
X130505000Y-107620000D01*
X133675000Y-105700000D02*
X133975000Y-105700000D01*
X133675000Y-104280000D02*
X133975000Y-104280000D01*
X120580000Y-105685000D02*
X120580000Y-105985000D01*
X122000000Y-105685000D02*
X122000000Y-105985000D01*
X146425000Y-109120000D02*
X146725000Y-109120000D01*
X146425000Y-107700000D02*
X146725000Y-107700000D01*
X149925000Y-106250000D02*
X150225000Y-106250000D01*
X149925000Y-104830000D02*
X150225000Y-104830000D01*
X137140000Y-107190000D02*
X137440000Y-107190000D01*
X137140000Y-105770000D02*
X137440000Y-105770000D01*
X162855000Y-109070000D02*
X163155000Y-109070000D01*
X162855000Y-107650000D02*
X163155000Y-107650000D01*
X166345000Y-106220000D02*
X166645000Y-106220000D01*
X166345000Y-104800000D02*
X166645000Y-104800000D01*
X153565000Y-107280000D02*
X153865000Y-107280000D01*
X153565000Y-105860000D02*
X153865000Y-105860000D01*
X179085000Y-109170000D02*
X179385000Y-109170000D01*
X179085000Y-107750000D02*
X179385000Y-107750000D01*
X182575000Y-106340000D02*
X182875000Y-106340000D01*
X182575000Y-104920000D02*
X182875000Y-104920000D01*
X169795000Y-107350000D02*
X170095000Y-107350000D01*
X169795000Y-105930000D02*
X170095000Y-105930000D01*
X132975000Y-118320000D02*
X133275000Y-118320000D01*
X132975000Y-116900000D02*
X133275000Y-116900000D01*
X125035000Y-111960000D02*
X125335000Y-111960000D01*
X125035000Y-110540000D02*
X125335000Y-110540000D01*
X132980000Y-116170000D02*
X133280000Y-116170000D01*
X132980000Y-114750000D02*
X133280000Y-114750000D01*
X141230000Y-112000000D02*
X141530000Y-112000000D01*
X141230000Y-110580000D02*
X141530000Y-110580000D01*
X167455000Y-114790000D02*
X167155000Y-114790000D01*
X167455000Y-116210000D02*
X167155000Y-116210000D01*
X157725000Y-111990000D02*
X158025000Y-111990000D01*
X157725000Y-110570000D02*
X158025000Y-110570000D01*
X167415000Y-116870000D02*
X167115000Y-116870000D01*
X167415000Y-118290000D02*
X167115000Y-118290000D01*
X173885000Y-112040000D02*
X174185000Y-112040000D01*
X173885000Y-110620000D02*
X174185000Y-110620000D01*
D12*
G36*
X178939878Y-114077776D02*
G01*
X179045612Y-114078355D01*
X179122132Y-114079922D01*
X179174372Y-114082972D01*
X179207263Y-114087996D01*
X179225737Y-114095489D01*
X179234727Y-114105944D01*
X179239163Y-114119853D01*
X179239594Y-114121654D01*
X179246333Y-114154145D01*
X179258808Y-114218252D01*
X179275719Y-114307151D01*
X179295771Y-114414019D01*
X179317664Y-114532033D01*
X179318429Y-114536178D01*
X179340359Y-114651831D01*
X179360877Y-114754014D01*
X179378659Y-114836598D01*
X179392381Y-114893456D01*
X179400718Y-114918458D01*
X179401116Y-114918901D01*
X179425677Y-114931110D01*
X179476315Y-114951456D01*
X179542095Y-114975545D01*
X179542461Y-114975674D01*
X179625317Y-115006818D01*
X179723000Y-115046491D01*
X179815077Y-115086381D01*
X179819434Y-115088353D01*
X179969407Y-115156420D01*
X180301498Y-114929639D01*
X180403374Y-114860504D01*
X180495657Y-114798697D01*
X180573003Y-114747733D01*
X180630064Y-114711127D01*
X180661495Y-114692394D01*
X180664479Y-114691004D01*
X180687321Y-114697190D01*
X180729982Y-114727035D01*
X180794128Y-114781947D01*
X180881421Y-114863334D01*
X180970535Y-114949922D01*
X181056441Y-115035247D01*
X181133327Y-115113108D01*
X181196564Y-115178697D01*
X181241523Y-115227205D01*
X181263576Y-115253825D01*
X181264396Y-115255195D01*
X181266834Y-115273463D01*
X181257650Y-115303295D01*
X181234574Y-115348721D01*
X181195337Y-115413770D01*
X181137670Y-115502470D01*
X181060795Y-115616657D01*
X180992570Y-115717162D01*
X180931582Y-115807303D01*
X180881356Y-115881849D01*
X180845416Y-115935565D01*
X180827287Y-115963218D01*
X180826146Y-115965095D01*
X180828359Y-115991590D01*
X180845138Y-116043086D01*
X180873142Y-116109851D01*
X180883122Y-116131172D01*
X180926672Y-116226159D01*
X180973134Y-116333937D01*
X181010877Y-116427192D01*
X181038073Y-116496406D01*
X181059675Y-116549006D01*
X181072158Y-116576497D01*
X181073709Y-116578616D01*
X181096668Y-116582124D01*
X181150786Y-116591738D01*
X181228868Y-116606089D01*
X181323719Y-116623807D01*
X181428143Y-116643525D01*
X181534944Y-116663874D01*
X181636926Y-116683486D01*
X181726894Y-116700991D01*
X181797653Y-116715022D01*
X181842006Y-116724209D01*
X181852885Y-116726807D01*
X181864122Y-116733218D01*
X181872605Y-116747697D01*
X181878714Y-116775133D01*
X181882832Y-116820411D01*
X181885341Y-116888420D01*
X181886621Y-116984047D01*
X181887054Y-117112180D01*
X181887077Y-117164701D01*
X181887077Y-117591845D01*
X181784500Y-117612091D01*
X181727431Y-117623070D01*
X181642269Y-117639095D01*
X181539372Y-117658233D01*
X181429096Y-117678551D01*
X181398615Y-117684132D01*
X181296855Y-117703917D01*
X181208205Y-117723373D01*
X181140108Y-117740697D01*
X181100004Y-117754088D01*
X181093323Y-117758079D01*
X181076919Y-117786342D01*
X181053399Y-117841109D01*
X181027316Y-117911588D01*
X181022142Y-117926769D01*
X180987956Y-118020896D01*
X180945523Y-118127101D01*
X180903997Y-118222473D01*
X180903792Y-118222916D01*
X180834640Y-118372525D01*
X181289512Y-119041617D01*
X180997500Y-119334116D01*
X180909180Y-119421170D01*
X180828625Y-119497909D01*
X180760360Y-119560237D01*
X180708908Y-119604056D01*
X180678794Y-119625270D01*
X180674474Y-119626616D01*
X180649111Y-119616016D01*
X180597358Y-119586547D01*
X180524868Y-119541705D01*
X180437294Y-119484984D01*
X180342612Y-119421462D01*
X180246516Y-119356668D01*
X180160837Y-119300287D01*
X180091016Y-119255788D01*
X180042494Y-119226639D01*
X180020782Y-119216308D01*
X179994293Y-119225050D01*
X179944062Y-119248087D01*
X179880451Y-119280631D01*
X179873708Y-119284249D01*
X179788046Y-119327210D01*
X179729306Y-119348279D01*
X179692772Y-119348503D01*
X179673731Y-119328928D01*
X179673620Y-119328654D01*
X179664102Y-119305472D01*
X179641403Y-119250441D01*
X179607282Y-119167822D01*
X179563500Y-119061872D01*
X179511816Y-118936852D01*
X179453992Y-118797020D01*
X179397991Y-118661637D01*
X179336447Y-118512234D01*
X179279939Y-118373832D01*
X179230161Y-118250673D01*
X179188806Y-118147002D01*
X179157568Y-118067059D01*
X179138141Y-118015088D01*
X179132154Y-117995692D01*
X179147168Y-117973443D01*
X179186439Y-117937982D01*
X179238807Y-117898887D01*
X179387941Y-117775245D01*
X179504511Y-117633522D01*
X179587118Y-117476704D01*
X179634366Y-117307775D01*
X179644857Y-117129722D01*
X179637231Y-117047539D01*
X179595682Y-116877031D01*
X179524123Y-116726459D01*
X179426995Y-116597309D01*
X179308734Y-116491064D01*
X179173780Y-116409210D01*
X179026571Y-116353232D01*
X178871544Y-116324615D01*
X178713139Y-116324844D01*
X178555794Y-116355405D01*
X178403946Y-116417782D01*
X178262035Y-116513460D01*
X178202803Y-116567572D01*
X178089203Y-116706520D01*
X178010106Y-116858361D01*
X177964986Y-117018667D01*
X177953316Y-117183012D01*
X177974569Y-117346971D01*
X178028220Y-117506118D01*
X178113740Y-117656025D01*
X178230605Y-117792267D01*
X178361193Y-117898887D01*
X178415588Y-117939642D01*
X178454014Y-117974718D01*
X178467846Y-117995726D01*
X178460603Y-118018635D01*
X178440005Y-118073365D01*
X178407746Y-118155672D01*
X178365521Y-118261315D01*
X178315023Y-118386050D01*
X178257948Y-118525636D01*
X178201854Y-118661670D01*
X178139967Y-118811201D01*
X178082644Y-118949767D01*
X178031644Y-119073107D01*
X177988727Y-119176964D01*
X177955653Y-119257080D01*
X177934181Y-119309195D01*
X177926225Y-119328654D01*
X177907429Y-119348423D01*
X177871074Y-119348365D01*
X177812479Y-119327441D01*
X177726968Y-119284613D01*
X177726292Y-119284249D01*
X177661907Y-119251012D01*
X177609861Y-119226802D01*
X177580512Y-119216404D01*
X177579217Y-119216308D01*
X177557124Y-119226855D01*
X177508348Y-119256184D01*
X177438331Y-119300827D01*
X177352514Y-119357314D01*
X177257388Y-119421462D01*
X177160540Y-119486411D01*
X177073253Y-119542896D01*
X177001181Y-119587421D01*
X176949977Y-119616490D01*
X176925526Y-119626616D01*
X176903010Y-119613307D01*
X176857742Y-119576112D01*
X176794244Y-119519128D01*
X176717039Y-119446449D01*
X176630651Y-119362171D01*
X176602399Y-119334016D01*
X176310287Y-119041416D01*
X176532631Y-118715104D01*
X176600202Y-118614897D01*
X176659507Y-118524963D01*
X176707217Y-118450510D01*
X176740007Y-118396751D01*
X176754548Y-118368894D01*
X176754974Y-118366912D01*
X176747308Y-118340655D01*
X176726689Y-118287837D01*
X176696685Y-118217310D01*
X176675625Y-118170093D01*
X176636248Y-118079694D01*
X176599165Y-117988366D01*
X176570415Y-117911200D01*
X176562605Y-117887692D01*
X176540417Y-117824916D01*
X176518727Y-117776411D01*
X176506813Y-117758079D01*
X176480523Y-117746859D01*
X176423142Y-117730954D01*
X176342118Y-117712167D01*
X176244895Y-117692299D01*
X176201385Y-117684132D01*
X176090896Y-117663829D01*
X175984916Y-117644170D01*
X175893801Y-117627088D01*
X175827908Y-117614518D01*
X175815500Y-117612091D01*
X175712923Y-117591845D01*
X175712923Y-117164701D01*
X175713153Y-117024246D01*
X175714099Y-116917979D01*
X175716141Y-116841013D01*
X175719662Y-116788460D01*
X175725043Y-116755433D01*
X175732666Y-116737045D01*
X175742912Y-116728408D01*
X175747115Y-116726807D01*
X175772470Y-116721127D01*
X175828484Y-116709795D01*
X175907964Y-116694179D01*
X176003712Y-116675647D01*
X176108533Y-116655569D01*
X176215232Y-116635312D01*
X176316613Y-116616246D01*
X176405479Y-116599739D01*
X176474637Y-116587159D01*
X176516889Y-116579875D01*
X176526290Y-116578616D01*
X176534807Y-116561763D01*
X176553660Y-116516870D01*
X176579324Y-116452430D01*
X176589123Y-116427192D01*
X176628648Y-116329686D01*
X176675192Y-116221959D01*
X176716877Y-116131172D01*
X176747550Y-116061753D01*
X176767956Y-116004710D01*
X176774768Y-115969777D01*
X176773682Y-115965095D01*
X176759285Y-115942991D01*
X176726412Y-115893831D01*
X176678590Y-115822848D01*
X176619348Y-115735278D01*
X176552215Y-115636357D01*
X176538941Y-115616830D01*
X176461046Y-115501140D01*
X176403787Y-115413044D01*
X176364881Y-115348486D01*
X176342044Y-115303411D01*
X176332994Y-115273763D01*
X176335448Y-115255485D01*
X176335511Y-115255369D01*
X176354827Y-115231361D01*
X176397551Y-115184947D01*
X176459051Y-115120937D01*
X176534698Y-115044145D01*
X176619861Y-114959382D01*
X176629465Y-114949922D01*
X176736790Y-114845989D01*
X176819615Y-114769675D01*
X176879605Y-114719571D01*
X176918423Y-114694270D01*
X176935520Y-114691004D01*
X176960473Y-114705250D01*
X177012255Y-114738156D01*
X177085520Y-114786208D01*
X177174920Y-114845890D01*
X177275111Y-114913688D01*
X177298501Y-114929639D01*
X177630593Y-115156420D01*
X177780565Y-115088353D01*
X177871770Y-115048685D01*
X177969669Y-115008791D01*
X178053831Y-114976983D01*
X178057538Y-114975674D01*
X178123369Y-114951576D01*
X178174116Y-114931200D01*
X178198842Y-114918936D01*
X178198884Y-114918901D01*
X178206729Y-114896734D01*
X178220066Y-114842217D01*
X178237570Y-114761480D01*
X178257917Y-114660650D01*
X178279782Y-114545856D01*
X178281571Y-114536178D01*
X178303504Y-114417904D01*
X178323640Y-114310542D01*
X178340680Y-114220917D01*
X178353328Y-114155851D01*
X178360284Y-114122168D01*
X178360406Y-114121654D01*
X178364639Y-114107325D01*
X178372871Y-114096507D01*
X178390033Y-114088706D01*
X178421058Y-114083429D01*
X178470878Y-114080182D01*
X178544424Y-114078472D01*
X178646629Y-114077807D01*
X178782425Y-114077693D01*
X178800000Y-114077692D01*
X178939878Y-114077776D01*
X178939878Y-114077776D01*
G37*
X178939878Y-114077776D02*
X179045612Y-114078355D01*
X179122132Y-114079922D01*
X179174372Y-114082972D01*
X179207263Y-114087996D01*
X179225737Y-114095489D01*
X179234727Y-114105944D01*
X179239163Y-114119853D01*
X179239594Y-114121654D01*
X179246333Y-114154145D01*
X179258808Y-114218252D01*
X179275719Y-114307151D01*
X179295771Y-114414019D01*
X179317664Y-114532033D01*
X179318429Y-114536178D01*
X179340359Y-114651831D01*
X179360877Y-114754014D01*
X179378659Y-114836598D01*
X179392381Y-114893456D01*
X179400718Y-114918458D01*
X179401116Y-114918901D01*
X179425677Y-114931110D01*
X179476315Y-114951456D01*
X179542095Y-114975545D01*
X179542461Y-114975674D01*
X179625317Y-115006818D01*
X179723000Y-115046491D01*
X179815077Y-115086381D01*
X179819434Y-115088353D01*
X179969407Y-115156420D01*
X180301498Y-114929639D01*
X180403374Y-114860504D01*
X180495657Y-114798697D01*
X180573003Y-114747733D01*
X180630064Y-114711127D01*
X180661495Y-114692394D01*
X180664479Y-114691004D01*
X180687321Y-114697190D01*
X180729982Y-114727035D01*
X180794128Y-114781947D01*
X180881421Y-114863334D01*
X180970535Y-114949922D01*
X181056441Y-115035247D01*
X181133327Y-115113108D01*
X181196564Y-115178697D01*
X181241523Y-115227205D01*
X181263576Y-115253825D01*
X181264396Y-115255195D01*
X181266834Y-115273463D01*
X181257650Y-115303295D01*
X181234574Y-115348721D01*
X181195337Y-115413770D01*
X181137670Y-115502470D01*
X181060795Y-115616657D01*
X180992570Y-115717162D01*
X180931582Y-115807303D01*
X180881356Y-115881849D01*
X180845416Y-115935565D01*
X180827287Y-115963218D01*
X180826146Y-115965095D01*
X180828359Y-115991590D01*
X180845138Y-116043086D01*
X180873142Y-116109851D01*
X180883122Y-116131172D01*
X180926672Y-116226159D01*
X180973134Y-116333937D01*
X181010877Y-116427192D01*
X181038073Y-116496406D01*
X181059675Y-116549006D01*
X181072158Y-116576497D01*
X181073709Y-116578616D01*
X181096668Y-116582124D01*
X181150786Y-116591738D01*
X181228868Y-116606089D01*
X181323719Y-116623807D01*
X181428143Y-116643525D01*
X181534944Y-116663874D01*
X181636926Y-116683486D01*
X181726894Y-116700991D01*
X181797653Y-116715022D01*
X181842006Y-116724209D01*
X181852885Y-116726807D01*
X181864122Y-116733218D01*
X181872605Y-116747697D01*
X181878714Y-116775133D01*
X181882832Y-116820411D01*
X181885341Y-116888420D01*
X181886621Y-116984047D01*
X181887054Y-117112180D01*
X181887077Y-117164701D01*
X181887077Y-117591845D01*
X181784500Y-117612091D01*
X181727431Y-117623070D01*
X181642269Y-117639095D01*
X181539372Y-117658233D01*
X181429096Y-117678551D01*
X181398615Y-117684132D01*
X181296855Y-117703917D01*
X181208205Y-117723373D01*
X181140108Y-117740697D01*
X181100004Y-117754088D01*
X181093323Y-117758079D01*
X181076919Y-117786342D01*
X181053399Y-117841109D01*
X181027316Y-117911588D01*
X181022142Y-117926769D01*
X180987956Y-118020896D01*
X180945523Y-118127101D01*
X180903997Y-118222473D01*
X180903792Y-118222916D01*
X180834640Y-118372525D01*
X181289512Y-119041617D01*
X180997500Y-119334116D01*
X180909180Y-119421170D01*
X180828625Y-119497909D01*
X180760360Y-119560237D01*
X180708908Y-119604056D01*
X180678794Y-119625270D01*
X180674474Y-119626616D01*
X180649111Y-119616016D01*
X180597358Y-119586547D01*
X180524868Y-119541705D01*
X180437294Y-119484984D01*
X180342612Y-119421462D01*
X180246516Y-119356668D01*
X180160837Y-119300287D01*
X180091016Y-119255788D01*
X180042494Y-119226639D01*
X180020782Y-119216308D01*
X179994293Y-119225050D01*
X179944062Y-119248087D01*
X179880451Y-119280631D01*
X179873708Y-119284249D01*
X179788046Y-119327210D01*
X179729306Y-119348279D01*
X179692772Y-119348503D01*
X179673731Y-119328928D01*
X179673620Y-119328654D01*
X179664102Y-119305472D01*
X179641403Y-119250441D01*
X179607282Y-119167822D01*
X179563500Y-119061872D01*
X179511816Y-118936852D01*
X179453992Y-118797020D01*
X179397991Y-118661637D01*
X179336447Y-118512234D01*
X179279939Y-118373832D01*
X179230161Y-118250673D01*
X179188806Y-118147002D01*
X179157568Y-118067059D01*
X179138141Y-118015088D01*
X179132154Y-117995692D01*
X179147168Y-117973443D01*
X179186439Y-117937982D01*
X179238807Y-117898887D01*
X179387941Y-117775245D01*
X179504511Y-117633522D01*
X179587118Y-117476704D01*
X179634366Y-117307775D01*
X179644857Y-117129722D01*
X179637231Y-117047539D01*
X179595682Y-116877031D01*
X179524123Y-116726459D01*
X179426995Y-116597309D01*
X179308734Y-116491064D01*
X179173780Y-116409210D01*
X179026571Y-116353232D01*
X178871544Y-116324615D01*
X178713139Y-116324844D01*
X178555794Y-116355405D01*
X178403946Y-116417782D01*
X178262035Y-116513460D01*
X178202803Y-116567572D01*
X178089203Y-116706520D01*
X178010106Y-116858361D01*
X177964986Y-117018667D01*
X177953316Y-117183012D01*
X177974569Y-117346971D01*
X178028220Y-117506118D01*
X178113740Y-117656025D01*
X178230605Y-117792267D01*
X178361193Y-117898887D01*
X178415588Y-117939642D01*
X178454014Y-117974718D01*
X178467846Y-117995726D01*
X178460603Y-118018635D01*
X178440005Y-118073365D01*
X178407746Y-118155672D01*
X178365521Y-118261315D01*
X178315023Y-118386050D01*
X178257948Y-118525636D01*
X178201854Y-118661670D01*
X178139967Y-118811201D01*
X178082644Y-118949767D01*
X178031644Y-119073107D01*
X177988727Y-119176964D01*
X177955653Y-119257080D01*
X177934181Y-119309195D01*
X177926225Y-119328654D01*
X177907429Y-119348423D01*
X177871074Y-119348365D01*
X177812479Y-119327441D01*
X177726968Y-119284613D01*
X177726292Y-119284249D01*
X177661907Y-119251012D01*
X177609861Y-119226802D01*
X177580512Y-119216404D01*
X177579217Y-119216308D01*
X177557124Y-119226855D01*
X177508348Y-119256184D01*
X177438331Y-119300827D01*
X177352514Y-119357314D01*
X177257388Y-119421462D01*
X177160540Y-119486411D01*
X177073253Y-119542896D01*
X177001181Y-119587421D01*
X176949977Y-119616490D01*
X176925526Y-119626616D01*
X176903010Y-119613307D01*
X176857742Y-119576112D01*
X176794244Y-119519128D01*
X176717039Y-119446449D01*
X176630651Y-119362171D01*
X176602399Y-119334016D01*
X176310287Y-119041416D01*
X176532631Y-118715104D01*
X176600202Y-118614897D01*
X176659507Y-118524963D01*
X176707217Y-118450510D01*
X176740007Y-118396751D01*
X176754548Y-118368894D01*
X176754974Y-118366912D01*
X176747308Y-118340655D01*
X176726689Y-118287837D01*
X176696685Y-118217310D01*
X176675625Y-118170093D01*
X176636248Y-118079694D01*
X176599165Y-117988366D01*
X176570415Y-117911200D01*
X176562605Y-117887692D01*
X176540417Y-117824916D01*
X176518727Y-117776411D01*
X176506813Y-117758079D01*
X176480523Y-117746859D01*
X176423142Y-117730954D01*
X176342118Y-117712167D01*
X176244895Y-117692299D01*
X176201385Y-117684132D01*
X176090896Y-117663829D01*
X175984916Y-117644170D01*
X175893801Y-117627088D01*
X175827908Y-117614518D01*
X175815500Y-117612091D01*
X175712923Y-117591845D01*
X175712923Y-117164701D01*
X175713153Y-117024246D01*
X175714099Y-116917979D01*
X175716141Y-116841013D01*
X175719662Y-116788460D01*
X175725043Y-116755433D01*
X175732666Y-116737045D01*
X175742912Y-116728408D01*
X175747115Y-116726807D01*
X175772470Y-116721127D01*
X175828484Y-116709795D01*
X175907964Y-116694179D01*
X176003712Y-116675647D01*
X176108533Y-116655569D01*
X176215232Y-116635312D01*
X176316613Y-116616246D01*
X176405479Y-116599739D01*
X176474637Y-116587159D01*
X176516889Y-116579875D01*
X176526290Y-116578616D01*
X176534807Y-116561763D01*
X176553660Y-116516870D01*
X176579324Y-116452430D01*
X176589123Y-116427192D01*
X176628648Y-116329686D01*
X176675192Y-116221959D01*
X176716877Y-116131172D01*
X176747550Y-116061753D01*
X176767956Y-116004710D01*
X176774768Y-115969777D01*
X176773682Y-115965095D01*
X176759285Y-115942991D01*
X176726412Y-115893831D01*
X176678590Y-115822848D01*
X176619348Y-115735278D01*
X176552215Y-115636357D01*
X176538941Y-115616830D01*
X176461046Y-115501140D01*
X176403787Y-115413044D01*
X176364881Y-115348486D01*
X176342044Y-115303411D01*
X176332994Y-115273763D01*
X176335448Y-115255485D01*
X176335511Y-115255369D01*
X176354827Y-115231361D01*
X176397551Y-115184947D01*
X176459051Y-115120937D01*
X176534698Y-115044145D01*
X176619861Y-114959382D01*
X176629465Y-114949922D01*
X176736790Y-114845989D01*
X176819615Y-114769675D01*
X176879605Y-114719571D01*
X176918423Y-114694270D01*
X176935520Y-114691004D01*
X176960473Y-114705250D01*
X177012255Y-114738156D01*
X177085520Y-114786208D01*
X177174920Y-114845890D01*
X177275111Y-114913688D01*
X177298501Y-114929639D01*
X177630593Y-115156420D01*
X177780565Y-115088353D01*
X177871770Y-115048685D01*
X177969669Y-115008791D01*
X178053831Y-114976983D01*
X178057538Y-114975674D01*
X178123369Y-114951576D01*
X178174116Y-114931200D01*
X178198842Y-114918936D01*
X178198884Y-114918901D01*
X178206729Y-114896734D01*
X178220066Y-114842217D01*
X178237570Y-114761480D01*
X178257917Y-114660650D01*
X178279782Y-114545856D01*
X178281571Y-114536178D01*
X178303504Y-114417904D01*
X178323640Y-114310542D01*
X178340680Y-114220917D01*
X178353328Y-114155851D01*
X178360284Y-114122168D01*
X178360406Y-114121654D01*
X178364639Y-114107325D01*
X178372871Y-114096507D01*
X178390033Y-114088706D01*
X178421058Y-114083429D01*
X178470878Y-114080182D01*
X178544424Y-114078472D01*
X178646629Y-114077807D01*
X178782425Y-114077693D01*
X178800000Y-114077692D01*
X178939878Y-114077776D01*
G36*
X182661032Y-120610710D02*
G01*
X182679460Y-120545167D01*
X182709360Y-120496912D01*
X182753080Y-120458767D01*
X182772141Y-120446440D01*
X182858726Y-120414336D01*
X182953522Y-120412316D01*
X183045224Y-120437838D01*
X183122528Y-120488361D01*
X183159814Y-120533590D01*
X183189353Y-120615663D01*
X183191699Y-120680607D01*
X183186385Y-120767445D01*
X182986115Y-120855103D01*
X182888739Y-120899887D01*
X182825113Y-120935913D01*
X182792029Y-120967117D01*
X182786280Y-120997436D01*
X182804658Y-121030805D01*
X182824923Y-121052923D01*
X182883889Y-121088393D01*
X182948024Y-121090879D01*
X183006926Y-121063235D01*
X183050197Y-121008320D01*
X183057936Y-120988928D01*
X183095006Y-120928364D01*
X183137654Y-120902552D01*
X183196154Y-120880471D01*
X183196154Y-120964184D01*
X183190982Y-121021150D01*
X183170723Y-121069189D01*
X183128262Y-121124346D01*
X183121951Y-121131514D01*
X183074720Y-121180585D01*
X183034121Y-121206920D01*
X182983328Y-121219035D01*
X182941220Y-121223003D01*
X182865902Y-121223991D01*
X182812286Y-121211466D01*
X182778838Y-121192869D01*
X182726268Y-121151975D01*
X182689879Y-121107748D01*
X182666850Y-121052126D01*
X182654359Y-120977047D01*
X182649587Y-120874449D01*
X182649206Y-120822376D01*
X182650501Y-120759948D01*
X182768471Y-120759948D01*
X182769839Y-120793438D01*
X182773249Y-120798923D01*
X182795753Y-120791472D01*
X182844182Y-120771753D01*
X182908908Y-120743718D01*
X182922443Y-120737692D01*
X183004244Y-120696096D01*
X183049312Y-120659538D01*
X183059217Y-120625296D01*
X183035526Y-120590648D01*
X183015960Y-120575339D01*
X182945360Y-120544721D01*
X182879280Y-120549780D01*
X182823959Y-120587151D01*
X182785636Y-120653473D01*
X182773349Y-120706116D01*
X182768471Y-120759948D01*
X182650501Y-120759948D01*
X182651730Y-120700720D01*
X182661032Y-120610710D01*
X182661032Y-120610710D01*
G37*
X182661032Y-120610710D02*
X182679460Y-120545167D01*
X182709360Y-120496912D01*
X182753080Y-120458767D01*
X182772141Y-120446440D01*
X182858726Y-120414336D01*
X182953522Y-120412316D01*
X183045224Y-120437838D01*
X183122528Y-120488361D01*
X183159814Y-120533590D01*
X183189353Y-120615663D01*
X183191699Y-120680607D01*
X183186385Y-120767445D01*
X182986115Y-120855103D01*
X182888739Y-120899887D01*
X182825113Y-120935913D01*
X182792029Y-120967117D01*
X182786280Y-120997436D01*
X182804658Y-121030805D01*
X182824923Y-121052923D01*
X182883889Y-121088393D01*
X182948024Y-121090879D01*
X183006926Y-121063235D01*
X183050197Y-121008320D01*
X183057936Y-120988928D01*
X183095006Y-120928364D01*
X183137654Y-120902552D01*
X183196154Y-120880471D01*
X183196154Y-120964184D01*
X183190982Y-121021150D01*
X183170723Y-121069189D01*
X183128262Y-121124346D01*
X183121951Y-121131514D01*
X183074720Y-121180585D01*
X183034121Y-121206920D01*
X182983328Y-121219035D01*
X182941220Y-121223003D01*
X182865902Y-121223991D01*
X182812286Y-121211466D01*
X182778838Y-121192869D01*
X182726268Y-121151975D01*
X182689879Y-121107748D01*
X182666850Y-121052126D01*
X182654359Y-120977047D01*
X182649587Y-120874449D01*
X182649206Y-120822376D01*
X182650501Y-120759948D01*
X182768471Y-120759948D01*
X182769839Y-120793438D01*
X182773249Y-120798923D01*
X182795753Y-120791472D01*
X182844182Y-120771753D01*
X182908908Y-120743718D01*
X182922443Y-120737692D01*
X183004244Y-120696096D01*
X183049312Y-120659538D01*
X183059217Y-120625296D01*
X183035526Y-120590648D01*
X183015960Y-120575339D01*
X182945360Y-120544721D01*
X182879280Y-120549780D01*
X182823959Y-120587151D01*
X182785636Y-120653473D01*
X182773349Y-120706116D01*
X182768471Y-120759948D01*
X182650501Y-120759948D01*
X182651730Y-120700720D01*
X182661032Y-120610710D01*
G36*
X182370807Y-120426782D02*
G01*
X182394161Y-120436988D01*
X182449902Y-120481134D01*
X182497569Y-120544967D01*
X182527048Y-120613087D01*
X182531846Y-120646670D01*
X182515760Y-120693556D01*
X182480475Y-120718365D01*
X182442644Y-120733387D01*
X182425321Y-120736155D01*
X182416886Y-120716066D01*
X182400230Y-120672351D01*
X182392923Y-120652598D01*
X182351948Y-120584271D01*
X182292622Y-120550191D01*
X182216552Y-120551239D01*
X182210918Y-120552581D01*
X182170305Y-120571836D01*
X182140448Y-120609375D01*
X182120055Y-120669809D01*
X182107836Y-120757751D01*
X182102500Y-120877813D01*
X182102000Y-120941698D01*
X182101752Y-121042403D01*
X182100126Y-121111054D01*
X182095801Y-121154673D01*
X182087454Y-121180282D01*
X182073765Y-121194903D01*
X182053411Y-121205558D01*
X182052234Y-121206095D01*
X182013038Y-121222667D01*
X181993619Y-121228769D01*
X181990635Y-121210319D01*
X181988081Y-121159323D01*
X181986140Y-121082308D01*
X181984997Y-120985805D01*
X181984769Y-120915184D01*
X181985932Y-120778525D01*
X181990479Y-120674851D01*
X181999999Y-120598108D01*
X182016081Y-120542246D01*
X182040313Y-120501212D01*
X182074286Y-120468954D01*
X182107833Y-120446440D01*
X182188499Y-120416476D01*
X182282381Y-120409718D01*
X182370807Y-120426782D01*
X182370807Y-120426782D01*
G37*
X182370807Y-120426782D02*
X182394161Y-120436988D01*
X182449902Y-120481134D01*
X182497569Y-120544967D01*
X182527048Y-120613087D01*
X182531846Y-120646670D01*
X182515760Y-120693556D01*
X182480475Y-120718365D01*
X182442644Y-120733387D01*
X182425321Y-120736155D01*
X182416886Y-120716066D01*
X182400230Y-120672351D01*
X182392923Y-120652598D01*
X182351948Y-120584271D01*
X182292622Y-120550191D01*
X182216552Y-120551239D01*
X182210918Y-120552581D01*
X182170305Y-120571836D01*
X182140448Y-120609375D01*
X182120055Y-120669809D01*
X182107836Y-120757751D01*
X182102500Y-120877813D01*
X182102000Y-120941698D01*
X182101752Y-121042403D01*
X182100126Y-121111054D01*
X182095801Y-121154673D01*
X182087454Y-121180282D01*
X182073765Y-121194903D01*
X182053411Y-121205558D01*
X182052234Y-121206095D01*
X182013038Y-121222667D01*
X181993619Y-121228769D01*
X181990635Y-121210319D01*
X181988081Y-121159323D01*
X181986140Y-121082308D01*
X181984997Y-120985805D01*
X181984769Y-120915184D01*
X181985932Y-120778525D01*
X181990479Y-120674851D01*
X181999999Y-120598108D01*
X182016081Y-120542246D01*
X182040313Y-120501212D01*
X182074286Y-120468954D01*
X182107833Y-120446440D01*
X182188499Y-120416476D01*
X182282381Y-120409718D01*
X182370807Y-120426782D01*
G36*
X181687333Y-120423528D02*
G01*
X181743590Y-120449117D01*
X181787747Y-120480124D01*
X181820101Y-120514795D01*
X181842438Y-120559520D01*
X181856546Y-120620692D01*
X181864211Y-120704701D01*
X181867220Y-120817940D01*
X181867538Y-120892509D01*
X181867538Y-121183420D01*
X181817773Y-121206095D01*
X181778576Y-121222667D01*
X181759157Y-121228769D01*
X181755442Y-121210610D01*
X181752495Y-121161648D01*
X181750691Y-121090153D01*
X181750308Y-121033385D01*
X181748661Y-120951371D01*
X181744222Y-120886309D01*
X181737740Y-120846467D01*
X181732590Y-120838000D01*
X181697977Y-120846646D01*
X181643640Y-120868823D01*
X181580722Y-120898886D01*
X181520368Y-120931192D01*
X181473721Y-120960098D01*
X181451926Y-120979961D01*
X181451839Y-120980175D01*
X181453714Y-121016935D01*
X181470525Y-121052026D01*
X181500039Y-121080528D01*
X181543116Y-121090061D01*
X181579932Y-121088950D01*
X181632074Y-121088133D01*
X181659444Y-121100349D01*
X181675882Y-121132624D01*
X181677955Y-121138710D01*
X181685081Y-121184739D01*
X181666024Y-121212687D01*
X181616353Y-121226007D01*
X181562697Y-121228470D01*
X181466142Y-121210210D01*
X181416159Y-121184131D01*
X181354429Y-121122868D01*
X181321690Y-121047670D01*
X181318753Y-120968211D01*
X181346424Y-120894167D01*
X181388047Y-120847769D01*
X181429604Y-120821793D01*
X181494922Y-120788907D01*
X181571038Y-120755557D01*
X181583726Y-120750461D01*
X181667333Y-120713565D01*
X181715530Y-120681046D01*
X181731030Y-120648718D01*
X181716550Y-120612394D01*
X181691692Y-120584000D01*
X181632939Y-120549039D01*
X181568293Y-120546417D01*
X181509008Y-120573358D01*
X181466339Y-120627088D01*
X181460739Y-120640950D01*
X181428133Y-120691936D01*
X181380530Y-120729787D01*
X181320461Y-120760850D01*
X181320461Y-120672768D01*
X181323997Y-120618951D01*
X181339156Y-120576534D01*
X181372768Y-120531279D01*
X181405035Y-120496420D01*
X181455209Y-120447062D01*
X181494193Y-120420547D01*
X181536064Y-120409911D01*
X181583460Y-120408154D01*
X181687333Y-120423528D01*
X181687333Y-120423528D01*
G37*
X181687333Y-120423528D02*
X181743590Y-120449117D01*
X181787747Y-120480124D01*
X181820101Y-120514795D01*
X181842438Y-120559520D01*
X181856546Y-120620692D01*
X181864211Y-120704701D01*
X181867220Y-120817940D01*
X181867538Y-120892509D01*
X181867538Y-121183420D01*
X181817773Y-121206095D01*
X181778576Y-121222667D01*
X181759157Y-121228769D01*
X181755442Y-121210610D01*
X181752495Y-121161648D01*
X181750691Y-121090153D01*
X181750308Y-121033385D01*
X181748661Y-120951371D01*
X181744222Y-120886309D01*
X181737740Y-120846467D01*
X181732590Y-120838000D01*
X181697977Y-120846646D01*
X181643640Y-120868823D01*
X181580722Y-120898886D01*
X181520368Y-120931192D01*
X181473721Y-120960098D01*
X181451926Y-120979961D01*
X181451839Y-120980175D01*
X181453714Y-121016935D01*
X181470525Y-121052026D01*
X181500039Y-121080528D01*
X181543116Y-121090061D01*
X181579932Y-121088950D01*
X181632074Y-121088133D01*
X181659444Y-121100349D01*
X181675882Y-121132624D01*
X181677955Y-121138710D01*
X181685081Y-121184739D01*
X181666024Y-121212687D01*
X181616353Y-121226007D01*
X181562697Y-121228470D01*
X181466142Y-121210210D01*
X181416159Y-121184131D01*
X181354429Y-121122868D01*
X181321690Y-121047670D01*
X181318753Y-120968211D01*
X181346424Y-120894167D01*
X181388047Y-120847769D01*
X181429604Y-120821793D01*
X181494922Y-120788907D01*
X181571038Y-120755557D01*
X181583726Y-120750461D01*
X181667333Y-120713565D01*
X181715530Y-120681046D01*
X181731030Y-120648718D01*
X181716550Y-120612394D01*
X181691692Y-120584000D01*
X181632939Y-120549039D01*
X181568293Y-120546417D01*
X181509008Y-120573358D01*
X181466339Y-120627088D01*
X181460739Y-120640950D01*
X181428133Y-120691936D01*
X181380530Y-120729787D01*
X181320461Y-120760850D01*
X181320461Y-120672768D01*
X181323997Y-120618951D01*
X181339156Y-120576534D01*
X181372768Y-120531279D01*
X181405035Y-120496420D01*
X181455209Y-120447062D01*
X181494193Y-120420547D01*
X181536064Y-120409911D01*
X181583460Y-120408154D01*
X181687333Y-120423528D01*
G36*
X181195929Y-120426662D02*
G01*
X181198911Y-120478068D01*
X181201247Y-120556192D01*
X181202749Y-120654857D01*
X181203231Y-120758343D01*
X181203231Y-121108533D01*
X181141401Y-121170363D01*
X181098793Y-121208462D01*
X181061390Y-121223895D01*
X181010270Y-121222918D01*
X180989978Y-121220433D01*
X180926554Y-121213200D01*
X180874095Y-121209055D01*
X180861308Y-121208672D01*
X180818199Y-121211176D01*
X180756544Y-121217462D01*
X180732638Y-121220433D01*
X180673922Y-121225028D01*
X180634464Y-121215046D01*
X180595338Y-121184228D01*
X180581215Y-121170363D01*
X180519385Y-121108533D01*
X180519385Y-120453503D01*
X180569150Y-120430829D01*
X180612002Y-120414034D01*
X180637073Y-120408154D01*
X180643501Y-120426736D01*
X180649509Y-120478655D01*
X180654697Y-120558172D01*
X180658664Y-120659546D01*
X180660577Y-120745192D01*
X180665923Y-121082231D01*
X180712560Y-121088825D01*
X180754976Y-121084214D01*
X180775760Y-121069287D01*
X180781570Y-121041377D01*
X180786530Y-120981925D01*
X180790246Y-120898466D01*
X180792324Y-120798532D01*
X180792624Y-120747104D01*
X180792923Y-120451054D01*
X180854454Y-120429604D01*
X180898004Y-120415020D01*
X180921694Y-120408219D01*
X180922377Y-120408154D01*
X180924754Y-120426642D01*
X180927366Y-120477906D01*
X180929995Y-120555649D01*
X180932421Y-120653574D01*
X180934115Y-120745192D01*
X180939461Y-121082231D01*
X181056692Y-121082231D01*
X181062072Y-120774746D01*
X181067451Y-120467261D01*
X181124601Y-120437707D01*
X181166797Y-120417413D01*
X181191770Y-120408204D01*
X181192491Y-120408154D01*
X181195929Y-120426662D01*
X181195929Y-120426662D01*
G37*
X181195929Y-120426662D02*
X181198911Y-120478068D01*
X181201247Y-120556192D01*
X181202749Y-120654857D01*
X181203231Y-120758343D01*
X181203231Y-121108533D01*
X181141401Y-121170363D01*
X181098793Y-121208462D01*
X181061390Y-121223895D01*
X181010270Y-121222918D01*
X180989978Y-121220433D01*
X180926554Y-121213200D01*
X180874095Y-121209055D01*
X180861308Y-121208672D01*
X180818199Y-121211176D01*
X180756544Y-121217462D01*
X180732638Y-121220433D01*
X180673922Y-121225028D01*
X180634464Y-121215046D01*
X180595338Y-121184228D01*
X180581215Y-121170363D01*
X180519385Y-121108533D01*
X180519385Y-120453503D01*
X180569150Y-120430829D01*
X180612002Y-120414034D01*
X180637073Y-120408154D01*
X180643501Y-120426736D01*
X180649509Y-120478655D01*
X180654697Y-120558172D01*
X180658664Y-120659546D01*
X180660577Y-120745192D01*
X180665923Y-121082231D01*
X180712560Y-121088825D01*
X180754976Y-121084214D01*
X180775760Y-121069287D01*
X180781570Y-121041377D01*
X180786530Y-120981925D01*
X180790246Y-120898466D01*
X180792324Y-120798532D01*
X180792624Y-120747104D01*
X180792923Y-120451054D01*
X180854454Y-120429604D01*
X180898004Y-120415020D01*
X180921694Y-120408219D01*
X180922377Y-120408154D01*
X180924754Y-120426642D01*
X180927366Y-120477906D01*
X180929995Y-120555649D01*
X180932421Y-120653574D01*
X180934115Y-120745192D01*
X180939461Y-121082231D01*
X181056692Y-121082231D01*
X181062072Y-120774746D01*
X181067451Y-120467261D01*
X181124601Y-120437707D01*
X181166797Y-120417413D01*
X181191770Y-120408204D01*
X181192491Y-120408154D01*
X181195929Y-120426662D01*
G36*
X179856362Y-120603577D02*
G01*
X179886528Y-120534269D01*
X179933629Y-120480211D01*
X179970312Y-120452505D01*
X180036990Y-120422572D01*
X180114272Y-120408678D01*
X180186110Y-120412397D01*
X180226308Y-120427400D01*
X180242082Y-120431670D01*
X180252550Y-120415750D01*
X180259856Y-120373089D01*
X180265385Y-120308106D01*
X180271437Y-120235732D01*
X180279844Y-120192187D01*
X180295141Y-120167287D01*
X180321864Y-120150845D01*
X180338654Y-120143564D01*
X180402154Y-120116963D01*
X180402081Y-120570289D01*
X180401833Y-120716320D01*
X180400872Y-120828655D01*
X180398794Y-120912678D01*
X180395193Y-120973769D01*
X180389665Y-121017309D01*
X180381804Y-121048679D01*
X180371207Y-121073262D01*
X180363182Y-121087294D01*
X180296728Y-121163388D01*
X180212470Y-121211084D01*
X180119249Y-121228199D01*
X180025900Y-121212546D01*
X179970312Y-121184418D01*
X179911957Y-121135760D01*
X179872186Y-121076333D01*
X179848190Y-120998507D01*
X179837161Y-120894652D01*
X179835599Y-120818462D01*
X179835809Y-120812986D01*
X179972308Y-120812986D01*
X179973141Y-120900355D01*
X179976961Y-120958192D01*
X179985746Y-120996029D01*
X180001474Y-121023398D01*
X180020266Y-121044042D01*
X180083375Y-121083890D01*
X180151137Y-121087295D01*
X180215179Y-121054025D01*
X180220164Y-121049517D01*
X180241439Y-121026067D01*
X180254779Y-120998166D01*
X180262001Y-120956641D01*
X180264923Y-120892316D01*
X180265385Y-120821200D01*
X180264383Y-120731858D01*
X180260238Y-120672258D01*
X180251236Y-120633089D01*
X180235667Y-120605040D01*
X180222902Y-120590144D01*
X180163600Y-120552575D01*
X180095301Y-120548057D01*
X180030110Y-120576753D01*
X180017528Y-120587406D01*
X179996111Y-120611063D01*
X179982744Y-120639251D01*
X179975566Y-120681245D01*
X179972719Y-120746319D01*
X179972308Y-120812986D01*
X179835809Y-120812986D01*
X179840322Y-120695765D01*
X179856362Y-120603577D01*
X179856362Y-120603577D01*
G37*
X179856362Y-120603577D02*
X179886528Y-120534269D01*
X179933629Y-120480211D01*
X179970312Y-120452505D01*
X180036990Y-120422572D01*
X180114272Y-120408678D01*
X180186110Y-120412397D01*
X180226308Y-120427400D01*
X180242082Y-120431670D01*
X180252550Y-120415750D01*
X180259856Y-120373089D01*
X180265385Y-120308106D01*
X180271437Y-120235732D01*
X180279844Y-120192187D01*
X180295141Y-120167287D01*
X180321864Y-120150845D01*
X180338654Y-120143564D01*
X180402154Y-120116963D01*
X180402081Y-120570289D01*
X180401833Y-120716320D01*
X180400872Y-120828655D01*
X180398794Y-120912678D01*
X180395193Y-120973769D01*
X180389665Y-121017309D01*
X180381804Y-121048679D01*
X180371207Y-121073262D01*
X180363182Y-121087294D01*
X180296728Y-121163388D01*
X180212470Y-121211084D01*
X180119249Y-121228199D01*
X180025900Y-121212546D01*
X179970312Y-121184418D01*
X179911957Y-121135760D01*
X179872186Y-121076333D01*
X179848190Y-120998507D01*
X179837161Y-120894652D01*
X179835599Y-120818462D01*
X179835809Y-120812986D01*
X179972308Y-120812986D01*
X179973141Y-120900355D01*
X179976961Y-120958192D01*
X179985746Y-120996029D01*
X180001474Y-121023398D01*
X180020266Y-121044042D01*
X180083375Y-121083890D01*
X180151137Y-121087295D01*
X180215179Y-121054025D01*
X180220164Y-121049517D01*
X180241439Y-121026067D01*
X180254779Y-120998166D01*
X180262001Y-120956641D01*
X180264923Y-120892316D01*
X180265385Y-120821200D01*
X180264383Y-120731858D01*
X180260238Y-120672258D01*
X180251236Y-120633089D01*
X180235667Y-120605040D01*
X180222902Y-120590144D01*
X180163600Y-120552575D01*
X180095301Y-120548057D01*
X180030110Y-120576753D01*
X180017528Y-120587406D01*
X179996111Y-120611063D01*
X179982744Y-120639251D01*
X179975566Y-120681245D01*
X179972719Y-120746319D01*
X179972308Y-120812986D01*
X179835809Y-120812986D01*
X179840322Y-120695765D01*
X179856362Y-120603577D01*
G36*
X179513362Y-120414670D02*
G01*
X179602117Y-120447421D01*
X179674022Y-120505350D01*
X179702144Y-120546128D01*
X179732802Y-120620954D01*
X179732165Y-120675058D01*
X179699987Y-120711446D01*
X179688081Y-120717633D01*
X179636675Y-120736925D01*
X179610422Y-120731982D01*
X179601530Y-120699587D01*
X179601077Y-120681692D01*
X179584797Y-120615859D01*
X179542365Y-120569807D01*
X179483388Y-120547564D01*
X179417475Y-120553161D01*
X179363895Y-120582229D01*
X179345798Y-120598810D01*
X179332971Y-120618925D01*
X179324306Y-120649332D01*
X179318696Y-120696788D01*
X179315035Y-120768050D01*
X179312215Y-120869875D01*
X179311484Y-120902115D01*
X179308820Y-121012410D01*
X179305792Y-121090036D01*
X179301250Y-121141396D01*
X179294046Y-121172890D01*
X179283033Y-121190920D01*
X179267060Y-121201888D01*
X179256834Y-121206733D01*
X179213406Y-121223301D01*
X179187842Y-121228769D01*
X179179395Y-121210507D01*
X179174239Y-121155296D01*
X179172346Y-121062499D01*
X179173689Y-120931478D01*
X179174107Y-120911269D01*
X179177058Y-120791733D01*
X179180548Y-120704449D01*
X179185514Y-120642591D01*
X179192893Y-120599336D01*
X179203624Y-120567860D01*
X179218645Y-120541339D01*
X179226502Y-120529975D01*
X179271553Y-120479692D01*
X179321940Y-120440581D01*
X179328108Y-120437167D01*
X179418458Y-120410212D01*
X179513362Y-120414670D01*
X179513362Y-120414670D01*
G37*
X179513362Y-120414670D02*
X179602117Y-120447421D01*
X179674022Y-120505350D01*
X179702144Y-120546128D01*
X179732802Y-120620954D01*
X179732165Y-120675058D01*
X179699987Y-120711446D01*
X179688081Y-120717633D01*
X179636675Y-120736925D01*
X179610422Y-120731982D01*
X179601530Y-120699587D01*
X179601077Y-120681692D01*
X179584797Y-120615859D01*
X179542365Y-120569807D01*
X179483388Y-120547564D01*
X179417475Y-120553161D01*
X179363895Y-120582229D01*
X179345798Y-120598810D01*
X179332971Y-120618925D01*
X179324306Y-120649332D01*
X179318696Y-120696788D01*
X179315035Y-120768050D01*
X179312215Y-120869875D01*
X179311484Y-120902115D01*
X179308820Y-121012410D01*
X179305792Y-121090036D01*
X179301250Y-121141396D01*
X179294046Y-121172890D01*
X179283033Y-121190920D01*
X179267060Y-121201888D01*
X179256834Y-121206733D01*
X179213406Y-121223301D01*
X179187842Y-121228769D01*
X179179395Y-121210507D01*
X179174239Y-121155296D01*
X179172346Y-121062499D01*
X179173689Y-120931478D01*
X179174107Y-120911269D01*
X179177058Y-120791733D01*
X179180548Y-120704449D01*
X179185514Y-120642591D01*
X179192893Y-120599336D01*
X179203624Y-120567860D01*
X179218645Y-120541339D01*
X179226502Y-120529975D01*
X179271553Y-120479692D01*
X179321940Y-120440581D01*
X179328108Y-120437167D01*
X179418458Y-120410212D01*
X179513362Y-120414670D01*
G36*
X178853501Y-120416303D02*
G01*
X178930060Y-120444733D01*
X178930936Y-120445279D01*
X178978285Y-120480127D01*
X179013241Y-120520852D01*
X179037825Y-120573925D01*
X179054062Y-120645814D01*
X179063975Y-120742992D01*
X179069586Y-120871928D01*
X179070077Y-120890298D01*
X179077141Y-121167287D01*
X179017695Y-121198028D01*
X178974681Y-121218802D01*
X178948710Y-121228646D01*
X178947509Y-121228769D01*
X178943014Y-121210606D01*
X178939444Y-121161612D01*
X178937248Y-121090031D01*
X178936769Y-121032068D01*
X178936758Y-120938170D01*
X178932466Y-120879203D01*
X178917503Y-120851079D01*
X178885482Y-120849706D01*
X178830014Y-120870998D01*
X178746269Y-120910136D01*
X178684689Y-120942643D01*
X178653017Y-120970845D01*
X178643706Y-121001582D01*
X178643692Y-121003104D01*
X178659057Y-121056054D01*
X178704547Y-121084660D01*
X178774166Y-121088803D01*
X178824313Y-121088084D01*
X178850754Y-121102527D01*
X178867243Y-121137218D01*
X178876733Y-121181416D01*
X178863057Y-121206493D01*
X178857907Y-121210082D01*
X178809425Y-121224496D01*
X178741531Y-121226537D01*
X178671612Y-121216983D01*
X178622068Y-121199522D01*
X178553570Y-121141364D01*
X178514634Y-121060408D01*
X178506923Y-120997160D01*
X178512807Y-120940111D01*
X178534101Y-120893542D01*
X178576265Y-120852181D01*
X178644759Y-120810755D01*
X178745044Y-120763993D01*
X178751154Y-120761350D01*
X178841490Y-120719617D01*
X178897235Y-120685391D01*
X178921129Y-120654635D01*
X178915913Y-120623311D01*
X178884328Y-120587383D01*
X178874883Y-120579116D01*
X178811617Y-120547058D01*
X178746064Y-120548407D01*
X178688972Y-120579838D01*
X178651093Y-120638024D01*
X178647574Y-120649446D01*
X178613300Y-120704837D01*
X178569809Y-120731518D01*
X178506923Y-120757960D01*
X178506923Y-120689548D01*
X178526052Y-120590110D01*
X178582831Y-120498902D01*
X178612378Y-120468389D01*
X178679542Y-120429228D01*
X178764956Y-120411500D01*
X178853501Y-120416303D01*
X178853501Y-120416303D01*
G37*
X178853501Y-120416303D02*
X178930060Y-120444733D01*
X178930936Y-120445279D01*
X178978285Y-120480127D01*
X179013241Y-120520852D01*
X179037825Y-120573925D01*
X179054062Y-120645814D01*
X179063975Y-120742992D01*
X179069586Y-120871928D01*
X179070077Y-120890298D01*
X179077141Y-121167287D01*
X179017695Y-121198028D01*
X178974681Y-121218802D01*
X178948710Y-121228646D01*
X178947509Y-121228769D01*
X178943014Y-121210606D01*
X178939444Y-121161612D01*
X178937248Y-121090031D01*
X178936769Y-121032068D01*
X178936758Y-120938170D01*
X178932466Y-120879203D01*
X178917503Y-120851079D01*
X178885482Y-120849706D01*
X178830014Y-120870998D01*
X178746269Y-120910136D01*
X178684689Y-120942643D01*
X178653017Y-120970845D01*
X178643706Y-121001582D01*
X178643692Y-121003104D01*
X178659057Y-121056054D01*
X178704547Y-121084660D01*
X178774166Y-121088803D01*
X178824313Y-121088084D01*
X178850754Y-121102527D01*
X178867243Y-121137218D01*
X178876733Y-121181416D01*
X178863057Y-121206493D01*
X178857907Y-121210082D01*
X178809425Y-121224496D01*
X178741531Y-121226537D01*
X178671612Y-121216983D01*
X178622068Y-121199522D01*
X178553570Y-121141364D01*
X178514634Y-121060408D01*
X178506923Y-120997160D01*
X178512807Y-120940111D01*
X178534101Y-120893542D01*
X178576265Y-120852181D01*
X178644759Y-120810755D01*
X178745044Y-120763993D01*
X178751154Y-120761350D01*
X178841490Y-120719617D01*
X178897235Y-120685391D01*
X178921129Y-120654635D01*
X178915913Y-120623311D01*
X178884328Y-120587383D01*
X178874883Y-120579116D01*
X178811617Y-120547058D01*
X178746064Y-120548407D01*
X178688972Y-120579838D01*
X178651093Y-120638024D01*
X178647574Y-120649446D01*
X178613300Y-120704837D01*
X178569809Y-120731518D01*
X178506923Y-120757960D01*
X178506923Y-120689548D01*
X178526052Y-120590110D01*
X178582831Y-120498902D01*
X178612378Y-120468389D01*
X178679542Y-120429228D01*
X178764956Y-120411500D01*
X178853501Y-120416303D01*
G36*
X177959846Y-120282120D02*
G01*
X177965572Y-120361980D01*
X177972149Y-120409039D01*
X177981262Y-120429566D01*
X177994598Y-120429829D01*
X177998923Y-120427378D01*
X178056444Y-120409636D01*
X178131268Y-120410672D01*
X178207339Y-120428910D01*
X178254918Y-120452505D01*
X178303702Y-120490198D01*
X178339364Y-120532855D01*
X178363845Y-120587057D01*
X178379087Y-120659384D01*
X178387030Y-120756419D01*
X178389616Y-120884742D01*
X178389662Y-120909358D01*
X178389692Y-121185870D01*
X178328161Y-121207320D01*
X178284459Y-121221912D01*
X178260482Y-121228706D01*
X178259777Y-121228769D01*
X178257415Y-121210345D01*
X178255406Y-121159526D01*
X178253901Y-121082993D01*
X178253053Y-120987430D01*
X178252923Y-120929329D01*
X178252651Y-120814771D01*
X178251252Y-120732667D01*
X178247849Y-120676393D01*
X178241567Y-120639326D01*
X178231529Y-120614844D01*
X178216861Y-120596325D01*
X178207702Y-120587406D01*
X178144789Y-120551466D01*
X178076136Y-120548775D01*
X178013848Y-120579170D01*
X178002329Y-120590144D01*
X177985433Y-120610779D01*
X177973714Y-120635256D01*
X177966233Y-120670647D01*
X177962054Y-120724026D01*
X177960237Y-120802466D01*
X177959846Y-120910617D01*
X177959846Y-121185870D01*
X177898315Y-121207320D01*
X177854613Y-121221912D01*
X177830636Y-121228706D01*
X177829930Y-121228769D01*
X177828126Y-121210069D01*
X177826500Y-121157322D01*
X177825117Y-121075557D01*
X177824042Y-120969805D01*
X177823340Y-120845094D01*
X177823077Y-120706455D01*
X177823077Y-120171806D01*
X177950077Y-120118236D01*
X177959846Y-120282120D01*
X177959846Y-120282120D01*
G37*
X177959846Y-120282120D02*
X177965572Y-120361980D01*
X177972149Y-120409039D01*
X177981262Y-120429566D01*
X177994598Y-120429829D01*
X177998923Y-120427378D01*
X178056444Y-120409636D01*
X178131268Y-120410672D01*
X178207339Y-120428910D01*
X178254918Y-120452505D01*
X178303702Y-120490198D01*
X178339364Y-120532855D01*
X178363845Y-120587057D01*
X178379087Y-120659384D01*
X178387030Y-120756419D01*
X178389616Y-120884742D01*
X178389662Y-120909358D01*
X178389692Y-121185870D01*
X178328161Y-121207320D01*
X178284459Y-121221912D01*
X178260482Y-121228706D01*
X178259777Y-121228769D01*
X178257415Y-121210345D01*
X178255406Y-121159526D01*
X178253901Y-121082993D01*
X178253053Y-120987430D01*
X178252923Y-120929329D01*
X178252651Y-120814771D01*
X178251252Y-120732667D01*
X178247849Y-120676393D01*
X178241567Y-120639326D01*
X178231529Y-120614844D01*
X178216861Y-120596325D01*
X178207702Y-120587406D01*
X178144789Y-120551466D01*
X178076136Y-120548775D01*
X178013848Y-120579170D01*
X178002329Y-120590144D01*
X177985433Y-120610779D01*
X177973714Y-120635256D01*
X177966233Y-120670647D01*
X177962054Y-120724026D01*
X177960237Y-120802466D01*
X177959846Y-120910617D01*
X177959846Y-121185870D01*
X177898315Y-121207320D01*
X177854613Y-121221912D01*
X177830636Y-121228706D01*
X177829930Y-121228769D01*
X177828126Y-121210069D01*
X177826500Y-121157322D01*
X177825117Y-121075557D01*
X177824042Y-120969805D01*
X177823340Y-120845094D01*
X177823077Y-120706455D01*
X177823077Y-120171806D01*
X177950077Y-120118236D01*
X177959846Y-120282120D01*
G36*
X175934778Y-120531055D02*
G01*
X175980421Y-120465215D01*
X176062802Y-120398681D01*
X176153546Y-120365676D01*
X176246185Y-120363573D01*
X176334254Y-120389745D01*
X176411286Y-120441567D01*
X176470816Y-120516412D01*
X176506378Y-120611654D01*
X176513571Y-120681756D01*
X176512754Y-120711009D01*
X176505914Y-120733407D01*
X176487112Y-120753474D01*
X176450408Y-120775733D01*
X176389862Y-120804709D01*
X176299534Y-120844927D01*
X176299077Y-120845129D01*
X176215933Y-120883210D01*
X176147753Y-120917025D01*
X176101505Y-120942933D01*
X176084158Y-120957295D01*
X176084154Y-120957411D01*
X176099443Y-120988685D01*
X176135196Y-121023157D01*
X176176242Y-121047990D01*
X176197037Y-121052923D01*
X176253770Y-121035862D01*
X176302627Y-120993133D01*
X176326465Y-120946155D01*
X176349397Y-120911522D01*
X176394318Y-120872081D01*
X176447123Y-120838009D01*
X176493710Y-120819480D01*
X176503452Y-120818462D01*
X176514418Y-120835215D01*
X176515079Y-120878039D01*
X176507020Y-120935781D01*
X176491827Y-120997289D01*
X176471086Y-121051409D01*
X176470038Y-121053510D01*
X176407621Y-121140660D01*
X176326726Y-121199939D01*
X176234856Y-121229034D01*
X176139513Y-121225634D01*
X176048198Y-121187428D01*
X176044138Y-121184741D01*
X175972306Y-121119642D01*
X175925073Y-121034705D01*
X175898934Y-120923021D01*
X175895426Y-120891643D01*
X175889213Y-120743536D01*
X175896661Y-120674468D01*
X176084154Y-120674468D01*
X176086590Y-120717552D01*
X176099914Y-120730126D01*
X176133132Y-120720719D01*
X176185494Y-120698483D01*
X176244024Y-120670610D01*
X176245479Y-120669872D01*
X176295089Y-120643777D01*
X176315000Y-120626363D01*
X176310090Y-120608107D01*
X176289416Y-120584120D01*
X176236819Y-120549406D01*
X176180177Y-120546856D01*
X176129369Y-120572119D01*
X176094276Y-120620847D01*
X176084154Y-120674468D01*
X175896661Y-120674468D01*
X175901992Y-120625036D01*
X175934778Y-120531055D01*
X175934778Y-120531055D01*
G37*
X175934778Y-120531055D02*
X175980421Y-120465215D01*
X176062802Y-120398681D01*
X176153546Y-120365676D01*
X176246185Y-120363573D01*
X176334254Y-120389745D01*
X176411286Y-120441567D01*
X176470816Y-120516412D01*
X176506378Y-120611654D01*
X176513571Y-120681756D01*
X176512754Y-120711009D01*
X176505914Y-120733407D01*
X176487112Y-120753474D01*
X176450408Y-120775733D01*
X176389862Y-120804709D01*
X176299534Y-120844927D01*
X176299077Y-120845129D01*
X176215933Y-120883210D01*
X176147753Y-120917025D01*
X176101505Y-120942933D01*
X176084158Y-120957295D01*
X176084154Y-120957411D01*
X176099443Y-120988685D01*
X176135196Y-121023157D01*
X176176242Y-121047990D01*
X176197037Y-121052923D01*
X176253770Y-121035862D01*
X176302627Y-120993133D01*
X176326465Y-120946155D01*
X176349397Y-120911522D01*
X176394318Y-120872081D01*
X176447123Y-120838009D01*
X176493710Y-120819480D01*
X176503452Y-120818462D01*
X176514418Y-120835215D01*
X176515079Y-120878039D01*
X176507020Y-120935781D01*
X176491827Y-120997289D01*
X176471086Y-121051409D01*
X176470038Y-121053510D01*
X176407621Y-121140660D01*
X176326726Y-121199939D01*
X176234856Y-121229034D01*
X176139513Y-121225634D01*
X176048198Y-121187428D01*
X176044138Y-121184741D01*
X175972306Y-121119642D01*
X175925073Y-121034705D01*
X175898934Y-120923021D01*
X175895426Y-120891643D01*
X175889213Y-120743536D01*
X175896661Y-120674468D01*
X176084154Y-120674468D01*
X176086590Y-120717552D01*
X176099914Y-120730126D01*
X176133132Y-120720719D01*
X176185494Y-120698483D01*
X176244024Y-120670610D01*
X176245479Y-120669872D01*
X176295089Y-120643777D01*
X176315000Y-120626363D01*
X176310090Y-120608107D01*
X176289416Y-120584120D01*
X176236819Y-120549406D01*
X176180177Y-120546856D01*
X176129369Y-120572119D01*
X176094276Y-120620847D01*
X176084154Y-120674468D01*
X175896661Y-120674468D01*
X175901992Y-120625036D01*
X175934778Y-120531055D01*
G36*
X174407629Y-120627906D02*
G01*
X174414322Y-120579163D01*
X174425960Y-120543288D01*
X174443853Y-120511548D01*
X174447808Y-120505648D01*
X174514267Y-120426104D01*
X174586685Y-120379929D01*
X174674849Y-120361599D01*
X174704787Y-120360703D01*
X174816886Y-120377256D01*
X174908464Y-120425409D01*
X174976049Y-120502905D01*
X175000057Y-120552727D01*
X175018738Y-120627533D01*
X175028301Y-120722052D01*
X175029208Y-120825210D01*
X175021921Y-120925935D01*
X175006903Y-121013153D01*
X174984615Y-121075791D01*
X174977765Y-121086579D01*
X174896632Y-121167105D01*
X174800266Y-121215336D01*
X174695701Y-121229450D01*
X174589968Y-121207629D01*
X174560543Y-121194547D01*
X174503241Y-121154231D01*
X174452950Y-121100775D01*
X174448197Y-121093995D01*
X174428878Y-121061321D01*
X174416108Y-121026394D01*
X174408564Y-120980414D01*
X174404924Y-120914584D01*
X174403865Y-120820105D01*
X174403846Y-120798923D01*
X174403894Y-120792182D01*
X174599231Y-120792182D01*
X174600368Y-120881349D01*
X174604841Y-120940520D01*
X174614246Y-120978741D01*
X174630176Y-121005053D01*
X174638308Y-121013846D01*
X174685058Y-121047261D01*
X174730447Y-121045737D01*
X174776340Y-121016752D01*
X174803712Y-120985809D01*
X174819923Y-120940643D01*
X174829026Y-120869420D01*
X174829651Y-120861114D01*
X174831204Y-120732037D01*
X174814965Y-120636172D01*
X174781152Y-120574107D01*
X174729984Y-120546432D01*
X174711720Y-120544923D01*
X174663760Y-120552513D01*
X174630953Y-120578808D01*
X174610895Y-120629095D01*
X174601178Y-120708664D01*
X174599231Y-120792182D01*
X174403894Y-120792182D01*
X174404574Y-120698249D01*
X174407629Y-120627906D01*
X174407629Y-120627906D01*
G37*
X174407629Y-120627906D02*
X174414322Y-120579163D01*
X174425960Y-120543288D01*
X174443853Y-120511548D01*
X174447808Y-120505648D01*
X174514267Y-120426104D01*
X174586685Y-120379929D01*
X174674849Y-120361599D01*
X174704787Y-120360703D01*
X174816886Y-120377256D01*
X174908464Y-120425409D01*
X174976049Y-120502905D01*
X175000057Y-120552727D01*
X175018738Y-120627533D01*
X175028301Y-120722052D01*
X175029208Y-120825210D01*
X175021921Y-120925935D01*
X175006903Y-121013153D01*
X174984615Y-121075791D01*
X174977765Y-121086579D01*
X174896632Y-121167105D01*
X174800266Y-121215336D01*
X174695701Y-121229450D01*
X174589968Y-121207629D01*
X174560543Y-121194547D01*
X174503241Y-121154231D01*
X174452950Y-121100775D01*
X174448197Y-121093995D01*
X174428878Y-121061321D01*
X174416108Y-121026394D01*
X174408564Y-120980414D01*
X174404924Y-120914584D01*
X174403865Y-120820105D01*
X174403846Y-120798923D01*
X174403894Y-120792182D01*
X174599231Y-120792182D01*
X174600368Y-120881349D01*
X174604841Y-120940520D01*
X174614246Y-120978741D01*
X174630176Y-121005053D01*
X174638308Y-121013846D01*
X174685058Y-121047261D01*
X174730447Y-121045737D01*
X174776340Y-121016752D01*
X174803712Y-120985809D01*
X174819923Y-120940643D01*
X174829026Y-120869420D01*
X174829651Y-120861114D01*
X174831204Y-120732037D01*
X174814965Y-120636172D01*
X174781152Y-120574107D01*
X174729984Y-120546432D01*
X174711720Y-120544923D01*
X174663760Y-120552513D01*
X174630953Y-120578808D01*
X174610895Y-120629095D01*
X174601178Y-120708664D01*
X174599231Y-120792182D01*
X174403894Y-120792182D01*
X174404574Y-120698249D01*
X174407629Y-120627906D01*
G36*
X177071664Y-120385089D02*
G01*
X177134367Y-120421358D01*
X177177961Y-120457358D01*
X177209845Y-120495075D01*
X177231810Y-120541199D01*
X177245649Y-120602421D01*
X177253153Y-120685431D01*
X177256117Y-120796919D01*
X177256461Y-120877062D01*
X177256461Y-121172065D01*
X177090385Y-121246515D01*
X177080615Y-120923402D01*
X177076579Y-120802729D01*
X177072344Y-120715141D01*
X177067097Y-120654650D01*
X177060025Y-120615268D01*
X177050311Y-120591007D01*
X177037144Y-120575880D01*
X177032919Y-120572606D01*
X176968909Y-120547034D01*
X176904208Y-120557153D01*
X176865692Y-120584000D01*
X176850025Y-120603024D01*
X176839180Y-120627988D01*
X176832288Y-120665834D01*
X176828479Y-120723502D01*
X176826883Y-120807935D01*
X176826615Y-120895928D01*
X176826563Y-121006323D01*
X176824672Y-121084463D01*
X176818345Y-121137165D01*
X176804983Y-121171242D01*
X176781985Y-121193511D01*
X176746754Y-121210787D01*
X176699697Y-121228738D01*
X176648303Y-121248278D01*
X176654421Y-120901485D01*
X176656884Y-120776468D01*
X176659767Y-120684082D01*
X176663898Y-120617881D01*
X176670107Y-120571420D01*
X176679226Y-120538256D01*
X176692083Y-120511944D01*
X176707584Y-120488729D01*
X176782371Y-120414569D01*
X176873628Y-120371684D01*
X176972883Y-120361412D01*
X177071664Y-120385089D01*
X177071664Y-120385089D01*
G37*
X177071664Y-120385089D02*
X177134367Y-120421358D01*
X177177961Y-120457358D01*
X177209845Y-120495075D01*
X177231810Y-120541199D01*
X177245649Y-120602421D01*
X177253153Y-120685431D01*
X177256117Y-120796919D01*
X177256461Y-120877062D01*
X177256461Y-121172065D01*
X177090385Y-121246515D01*
X177080615Y-120923402D01*
X177076579Y-120802729D01*
X177072344Y-120715141D01*
X177067097Y-120654650D01*
X177060025Y-120615268D01*
X177050311Y-120591007D01*
X177037144Y-120575880D01*
X177032919Y-120572606D01*
X176968909Y-120547034D01*
X176904208Y-120557153D01*
X176865692Y-120584000D01*
X176850025Y-120603024D01*
X176839180Y-120627988D01*
X176832288Y-120665834D01*
X176828479Y-120723502D01*
X176826883Y-120807935D01*
X176826615Y-120895928D01*
X176826563Y-121006323D01*
X176824672Y-121084463D01*
X176818345Y-121137165D01*
X176804983Y-121171242D01*
X176781985Y-121193511D01*
X176746754Y-121210787D01*
X176699697Y-121228738D01*
X176648303Y-121248278D01*
X176654421Y-120901485D01*
X176656884Y-120776468D01*
X176659767Y-120684082D01*
X176663898Y-120617881D01*
X176670107Y-120571420D01*
X176679226Y-120538256D01*
X176692083Y-120511944D01*
X176707584Y-120488729D01*
X176782371Y-120414569D01*
X176873628Y-120371684D01*
X176972883Y-120361412D01*
X177071664Y-120385089D01*
G36*
X175156873Y-120684679D02*
G01*
X175160606Y-120620905D01*
X175165907Y-120575582D01*
X175173258Y-120543555D01*
X175183143Y-120519668D01*
X175196046Y-120498764D01*
X175201579Y-120490898D01*
X175274969Y-120416595D01*
X175367760Y-120374467D01*
X175475096Y-120362722D01*
X175568886Y-120374505D01*
X175643539Y-120411727D01*
X175709431Y-120480261D01*
X175727577Y-120505648D01*
X175747345Y-120538866D01*
X175760172Y-120574945D01*
X175767510Y-120623098D01*
X175770813Y-120692536D01*
X175771538Y-120784206D01*
X175768263Y-120909830D01*
X175756877Y-121004154D01*
X175735041Y-121074523D01*
X175700419Y-121128286D01*
X175650670Y-121172788D01*
X175647014Y-121175423D01*
X175597985Y-121202377D01*
X175538945Y-121215712D01*
X175463859Y-121219000D01*
X175341795Y-121219000D01*
X175341744Y-121337497D01*
X175340608Y-121403492D01*
X175333686Y-121442202D01*
X175315598Y-121465419D01*
X175280962Y-121484933D01*
X175272645Y-121488920D01*
X175233720Y-121507603D01*
X175203583Y-121519403D01*
X175181174Y-121520422D01*
X175165433Y-121506761D01*
X175155302Y-121474522D01*
X175149723Y-121419804D01*
X175147635Y-121338711D01*
X175147981Y-121227344D01*
X175149700Y-121081802D01*
X175150237Y-121038269D01*
X175152172Y-120888205D01*
X175153904Y-120790042D01*
X175341692Y-120790042D01*
X175342748Y-120873364D01*
X175347438Y-120927880D01*
X175358051Y-120963837D01*
X175376872Y-120991482D01*
X175389650Y-121004965D01*
X175441890Y-121044417D01*
X175488142Y-121047628D01*
X175535867Y-121015049D01*
X175537077Y-121013846D01*
X175556494Y-120988668D01*
X175568307Y-120954447D01*
X175574265Y-120901748D01*
X175576120Y-120821131D01*
X175576154Y-120803271D01*
X175571670Y-120692175D01*
X175557074Y-120615161D01*
X175530650Y-120568147D01*
X175490683Y-120547050D01*
X175467584Y-120544923D01*
X175412762Y-120554900D01*
X175375158Y-120587752D01*
X175352523Y-120647857D01*
X175342606Y-120739598D01*
X175341692Y-120790042D01*
X175153904Y-120790042D01*
X175154222Y-120772060D01*
X175156873Y-120684679D01*
X175156873Y-120684679D01*
G37*
X175156873Y-120684679D02*
X175160606Y-120620905D01*
X175165907Y-120575582D01*
X175173258Y-120543555D01*
X175183143Y-120519668D01*
X175196046Y-120498764D01*
X175201579Y-120490898D01*
X175274969Y-120416595D01*
X175367760Y-120374467D01*
X175475096Y-120362722D01*
X175568886Y-120374505D01*
X175643539Y-120411727D01*
X175709431Y-120480261D01*
X175727577Y-120505648D01*
X175747345Y-120538866D01*
X175760172Y-120574945D01*
X175767510Y-120623098D01*
X175770813Y-120692536D01*
X175771538Y-120784206D01*
X175768263Y-120909830D01*
X175756877Y-121004154D01*
X175735041Y-121074523D01*
X175700419Y-121128286D01*
X175650670Y-121172788D01*
X175647014Y-121175423D01*
X175597985Y-121202377D01*
X175538945Y-121215712D01*
X175463859Y-121219000D01*
X175341795Y-121219000D01*
X175341744Y-121337497D01*
X175340608Y-121403492D01*
X175333686Y-121442202D01*
X175315598Y-121465419D01*
X175280962Y-121484933D01*
X175272645Y-121488920D01*
X175233720Y-121507603D01*
X175203583Y-121519403D01*
X175181174Y-121520422D01*
X175165433Y-121506761D01*
X175155302Y-121474522D01*
X175149723Y-121419804D01*
X175147635Y-121338711D01*
X175147981Y-121227344D01*
X175149700Y-121081802D01*
X175150237Y-121038269D01*
X175152172Y-120888205D01*
X175153904Y-120790042D01*
X175341692Y-120790042D01*
X175342748Y-120873364D01*
X175347438Y-120927880D01*
X175358051Y-120963837D01*
X175376872Y-120991482D01*
X175389650Y-121004965D01*
X175441890Y-121044417D01*
X175488142Y-121047628D01*
X175535867Y-121015049D01*
X175537077Y-121013846D01*
X175556494Y-120988668D01*
X175568307Y-120954447D01*
X175574265Y-120901748D01*
X175576120Y-120821131D01*
X175576154Y-120803271D01*
X175571670Y-120692175D01*
X175557074Y-120615161D01*
X175530650Y-120568147D01*
X175490683Y-120547050D01*
X175467584Y-120544923D01*
X175412762Y-120554900D01*
X175375158Y-120587752D01*
X175352523Y-120647857D01*
X175342606Y-120739598D01*
X175341692Y-120790042D01*
X175153904Y-120790042D01*
X175154222Y-120772060D01*
X175156873Y-120684679D01*
D11*
X175820000Y-66870000D02*
X177220000Y-66870000D01*
X177920000Y-67570000D02*
X177920000Y-68170000D01*
X177220000Y-68870000D02*
X175820000Y-68870000D01*
X175120000Y-68170000D02*
X175120000Y-67570000D01*
X175120000Y-67570000D02*
G75*
G02X175820000Y-66870000I700000J0D01*
G01*
X175820000Y-68870000D02*
G75*
G02X175120000Y-68170000I0J700000D01*
G01*
X177920000Y-68170000D02*
G75*
G02X177220000Y-68870000I-700000J0D01*
G01*
X177220000Y-66870000D02*
G75*
G02X177920000Y-67570000I0J-700000D01*
G01*
X134890000Y-112870000D02*
X136890000Y-112870000D01*
X134890000Y-114120000D02*
X134890000Y-112870000D01*
X163840000Y-119870000D02*
X163090000Y-119870000D01*
X163840000Y-115570000D02*
X163840000Y-119870000D01*
X163090000Y-115570000D02*
X163840000Y-115570000D01*
X163090000Y-115220000D02*
X163090000Y-115570000D01*
X163590000Y-115220000D02*
X163090000Y-115220000D01*
X163840000Y-114220000D02*
X163590000Y-115220000D01*
X160840000Y-114220000D02*
X163840000Y-114220000D01*
X161090000Y-115220000D02*
X160840000Y-114220000D01*
X161590000Y-115220000D02*
X161090000Y-115220000D01*
X161590000Y-115570000D02*
X161590000Y-115220000D01*
X160840000Y-115570000D02*
X161590000Y-115570000D01*
X160840000Y-119870000D02*
X160840000Y-115570000D01*
X161590000Y-119870000D02*
X160840000Y-119870000D01*
X160340000Y-119870000D02*
X159590000Y-119870000D01*
X160340000Y-115570000D02*
X160340000Y-119870000D01*
X159590000Y-115570000D02*
X160340000Y-115570000D01*
X159590000Y-115220000D02*
X159590000Y-115570000D01*
X160090000Y-115220000D02*
X159590000Y-115220000D01*
X160340000Y-114220000D02*
X160090000Y-115220000D01*
X157340000Y-114220000D02*
X160340000Y-114220000D01*
X157590000Y-115220000D02*
X157340000Y-114220000D01*
X158090000Y-115220000D02*
X157590000Y-115220000D01*
X158090000Y-115570000D02*
X158090000Y-115220000D01*
X157340000Y-115570000D02*
X158090000Y-115570000D01*
X157340000Y-119870000D02*
X157340000Y-115570000D01*
X158090000Y-119870000D02*
X157340000Y-119870000D01*
X156840000Y-119870000D02*
X156090000Y-119870000D01*
X156840000Y-115570000D02*
X156840000Y-119870000D01*
X156090000Y-115570000D02*
X156840000Y-115570000D01*
X156090000Y-115220000D02*
X156090000Y-115570000D01*
X156590000Y-115220000D02*
X156090000Y-115220000D01*
X156840000Y-114220000D02*
X156590000Y-115220000D01*
X153840000Y-114220000D02*
X156840000Y-114220000D01*
X154090000Y-115220000D02*
X153840000Y-114220000D01*
X154590000Y-115220000D02*
X154090000Y-115220000D01*
X154590000Y-115570000D02*
X154590000Y-115220000D01*
X153840000Y-115570000D02*
X154590000Y-115570000D01*
X153840000Y-119870000D02*
X153840000Y-115570000D01*
X154590000Y-119870000D02*
X153840000Y-119870000D01*
X153340000Y-119870000D02*
X152590000Y-119870000D01*
X153340000Y-115570000D02*
X153340000Y-119870000D01*
X152590000Y-115570000D02*
X153340000Y-115570000D01*
X152590000Y-115220000D02*
X152590000Y-115570000D01*
X153090000Y-115220000D02*
X152590000Y-115220000D01*
X153340000Y-114220000D02*
X153090000Y-115220000D01*
X150340000Y-114220000D02*
X153340000Y-114220000D01*
X150590000Y-115220000D02*
X150340000Y-114220000D01*
X151090000Y-115220000D02*
X150590000Y-115220000D01*
X151090000Y-115570000D02*
X151090000Y-115220000D01*
X150340000Y-115570000D02*
X151090000Y-115570000D01*
X150340000Y-119870000D02*
X150340000Y-115570000D01*
X151090000Y-119870000D02*
X150340000Y-119870000D01*
X149840000Y-119870000D02*
X149090000Y-119870000D01*
X149840000Y-115570000D02*
X149840000Y-119870000D01*
X149090000Y-115570000D02*
X149840000Y-115570000D01*
X149090000Y-115220000D02*
X149090000Y-115570000D01*
X149590000Y-115220000D02*
X149090000Y-115220000D01*
X149840000Y-114220000D02*
X149590000Y-115220000D01*
X146840000Y-114220000D02*
X149840000Y-114220000D01*
X147090000Y-115220000D02*
X146840000Y-114220000D01*
X147590000Y-115220000D02*
X147090000Y-115220000D01*
X147590000Y-115570000D02*
X147590000Y-115220000D01*
X146840000Y-115570000D02*
X147590000Y-115570000D01*
X146840000Y-119870000D02*
X146840000Y-115570000D01*
X147590000Y-119870000D02*
X146840000Y-119870000D01*
X146340000Y-119870000D02*
X145590000Y-119870000D01*
X146340000Y-115570000D02*
X146340000Y-119870000D01*
X145590000Y-115570000D02*
X146340000Y-115570000D01*
X145590000Y-115220000D02*
X145590000Y-115570000D01*
X146090000Y-115220000D02*
X145590000Y-115220000D01*
X146340000Y-114220000D02*
X146090000Y-115220000D01*
X143340000Y-114220000D02*
X146340000Y-114220000D01*
X143590000Y-115220000D02*
X143340000Y-114220000D01*
X144090000Y-115220000D02*
X143590000Y-115220000D01*
X144090000Y-115570000D02*
X144090000Y-115220000D01*
X143340000Y-115570000D02*
X144090000Y-115570000D01*
X143340000Y-119870000D02*
X143340000Y-115570000D01*
X144090000Y-119870000D02*
X143340000Y-119870000D01*
X142840000Y-119870000D02*
X142090000Y-119870000D01*
X142840000Y-115570000D02*
X142840000Y-119870000D01*
X142090000Y-115570000D02*
X142840000Y-115570000D01*
X142090000Y-115220000D02*
X142090000Y-115570000D01*
X142590000Y-115220000D02*
X142090000Y-115220000D01*
X142840000Y-114220000D02*
X142590000Y-115220000D01*
X139840000Y-114220000D02*
X142840000Y-114220000D01*
X140090000Y-115220000D02*
X139840000Y-114220000D01*
X140590000Y-115220000D02*
X140090000Y-115220000D01*
X140590000Y-115570000D02*
X140590000Y-115220000D01*
X139840000Y-115570000D02*
X140590000Y-115570000D01*
X139840000Y-119870000D02*
X139840000Y-115570000D01*
X140590000Y-119870000D02*
X139840000Y-119870000D01*
X139340000Y-119870000D02*
X138590000Y-119870000D01*
X139340000Y-115570000D02*
X139340000Y-119870000D01*
X138590000Y-115570000D02*
X139340000Y-115570000D01*
X138590000Y-115220000D02*
X138590000Y-115570000D01*
X139090000Y-115220000D02*
X138590000Y-115220000D01*
X139340000Y-114220000D02*
X139090000Y-115220000D01*
X136340000Y-114220000D02*
X139340000Y-114220000D01*
X136590000Y-115220000D02*
X136340000Y-114220000D01*
X137090000Y-115220000D02*
X136590000Y-115220000D01*
X137090000Y-115570000D02*
X137090000Y-115220000D01*
X136340000Y-115570000D02*
X137090000Y-115570000D01*
X136340000Y-119870000D02*
X136340000Y-115570000D01*
X137090000Y-119870000D02*
X136340000Y-119870000D01*
X164870000Y-113290000D02*
X135310000Y-113290000D01*
X164870000Y-120700000D02*
X164870000Y-113290000D01*
X135310000Y-120700000D02*
X164870000Y-120700000D01*
X135310000Y-113290000D02*
X135310000Y-120700000D01*
X163089647Y-119869845D02*
G75*
G03X161590000Y-119870000I-749647J-1700155D01*
G01*
X159589647Y-119869845D02*
G75*
G03X158090000Y-119870000I-749647J-1700155D01*
G01*
X156089647Y-119869845D02*
G75*
G03X154590000Y-119870000I-749647J-1700155D01*
G01*
X152589647Y-119869845D02*
G75*
G03X151090000Y-119870000I-749647J-1700155D01*
G01*
X149089647Y-119869845D02*
G75*
G03X147590000Y-119870000I-749647J-1700155D01*
G01*
X145589647Y-119869845D02*
G75*
G03X144090000Y-119870000I-749647J-1700155D01*
G01*
X142089647Y-119869845D02*
G75*
G03X140590000Y-119870000I-749647J-1700155D01*
G01*
X138589647Y-119869845D02*
G75*
G03X137090000Y-119870000I-749647J-1700155D01*
G01*
X138480000Y-71965000D02*
X138480000Y-69425000D01*
X138480000Y-71965000D02*
X141020000Y-71965000D01*
X138730000Y-71715000D02*
X138730000Y-62365000D01*
X164670000Y-71715000D02*
X138730000Y-71715000D01*
X164670000Y-62365000D02*
X164670000Y-71715000D01*
X138730000Y-62365000D02*
X164670000Y-62365000D01*
X137445000Y-72650000D02*
X135175000Y-72650000D01*
X137445000Y-74170000D02*
X137445000Y-72650000D01*
X135175000Y-74170000D02*
X137445000Y-74170000D01*
X130275000Y-74170000D02*
X132545000Y-74170000D01*
X130275000Y-72650000D02*
X130275000Y-74170000D01*
X132545000Y-72650000D02*
X130275000Y-72650000D01*
X164765000Y-112010000D02*
X165065000Y-112010000D01*
X164765000Y-110590000D02*
X165065000Y-110590000D01*
X180935000Y-112020000D02*
X181235000Y-112020000D01*
X180935000Y-110600000D02*
X181235000Y-110600000D01*
X131920000Y-111970000D02*
X132220000Y-111970000D01*
X131920000Y-110550000D02*
X132220000Y-110550000D01*
X148115000Y-112000000D02*
X148415000Y-112000000D01*
X148115000Y-110580000D02*
X148415000Y-110580000D01*
X175450000Y-73460000D02*
X175450000Y-73760000D01*
X176870000Y-73460000D02*
X176870000Y-73760000D01*
X182660000Y-87530000D02*
X182660000Y-87230000D01*
X181240000Y-87530000D02*
X181240000Y-87230000D01*
X150218000Y-97230000D02*
X150518000Y-97230000D01*
X150218000Y-95810000D02*
X150518000Y-95810000D01*
X146455000Y-104960000D02*
X146755000Y-104960000D01*
X146455000Y-103540000D02*
X146755000Y-103540000D01*
X130205000Y-104890000D02*
X130505000Y-104890000D01*
X130205000Y-103470000D02*
X130505000Y-103470000D01*
X162840000Y-105010000D02*
X163140000Y-105010000D01*
X162840000Y-103590000D02*
X163140000Y-103590000D01*
X179045000Y-105040000D02*
X179345000Y-105040000D01*
X179045000Y-103620000D02*
X179345000Y-103620000D01*
X135550000Y-112120000D02*
X135550000Y-111820000D01*
X134130000Y-112120000D02*
X134130000Y-111820000D01*
X151730000Y-112135000D02*
X151730000Y-111835000D01*
X150310000Y-112135000D02*
X150310000Y-111835000D01*
X168370000Y-112145000D02*
X168370000Y-111845000D01*
X166950000Y-112145000D02*
X166950000Y-111845000D01*
X184610000Y-112165000D02*
X184610000Y-111865000D01*
X183190000Y-112165000D02*
X183190000Y-111865000D01*
X130515000Y-105550000D02*
X130215000Y-105550000D01*
X130515000Y-106970000D02*
X130215000Y-106970000D01*
X146745000Y-105660000D02*
X146445000Y-105660000D01*
X146745000Y-107080000D02*
X146445000Y-107080000D01*
X163140000Y-105650000D02*
X162840000Y-105650000D01*
X163140000Y-107070000D02*
X162840000Y-107070000D01*
X121370000Y-110550000D02*
X121070000Y-110550000D01*
X121370000Y-111970000D02*
X121070000Y-111970000D01*
X137765000Y-110580000D02*
X137465000Y-110580000D01*
X137765000Y-112000000D02*
X137465000Y-112000000D01*
X153915000Y-110570000D02*
X153615000Y-110570000D01*
X153915000Y-111990000D02*
X153615000Y-111990000D01*
X170580000Y-110610000D02*
X170280000Y-110610000D01*
X170580000Y-112030000D02*
X170280000Y-112030000D01*
X169530000Y-92580000D02*
X169530000Y-74540000D01*
X126090000Y-92580000D02*
X169530000Y-92580000D01*
X126090000Y-74540000D02*
X126090000Y-92580000D01*
X128760000Y-77210000D02*
X128760000Y-74540000D01*
X164320000Y-77210000D02*
X128760000Y-77210000D01*
X164320000Y-77210000D02*
X164320000Y-74540000D01*
X128760000Y-89910000D02*
X128760000Y-92580000D01*
X166860000Y-89910000D02*
X128760000Y-89910000D01*
X166860000Y-89910000D02*
X166860000Y-92580000D01*
X169530000Y-74540000D02*
X166860000Y-74540000D01*
X164320000Y-74540000D02*
X126090000Y-74540000D01*
X166860000Y-77210000D02*
X166860000Y-74540000D01*
X164320000Y-77210000D02*
X166860000Y-77210000D01*
D10*
X136852142Y-77077380D02*
X136518809Y-76601190D01*
X136280714Y-77077380D02*
X136280714Y-76077380D01*
X136661666Y-76077380D01*
X136756904Y-76125000D01*
X136804523Y-76172619D01*
X136852142Y-76267857D01*
X136852142Y-76410714D01*
X136804523Y-76505952D01*
X136756904Y-76553571D01*
X136661666Y-76601190D01*
X136280714Y-76601190D01*
X137709285Y-76410714D02*
X137709285Y-77077380D01*
X137471190Y-76029761D02*
X137233095Y-76744047D01*
X137852142Y-76744047D01*
X138423571Y-76077380D02*
X138518809Y-76077380D01*
X138614047Y-76125000D01*
X138661666Y-76172619D01*
X138709285Y-76267857D01*
X138756904Y-76458333D01*
X138756904Y-76696428D01*
X138709285Y-76886904D01*
X138661666Y-76982142D01*
X138614047Y-77029761D01*
X138518809Y-77077380D01*
X138423571Y-77077380D01*
X138328333Y-77029761D01*
X138280714Y-76982142D01*
X138233095Y-76886904D01*
X138185476Y-76696428D01*
X138185476Y-76458333D01*
X138233095Y-76267857D01*
X138280714Y-76172619D01*
X138328333Y-76125000D01*
X138423571Y-76077380D01*
X169256142Y-89542857D02*
X169303761Y-89590476D01*
X169351380Y-89733333D01*
X169351380Y-89828571D01*
X169303761Y-89971428D01*
X169208523Y-90066666D01*
X169113285Y-90114285D01*
X168922809Y-90161904D01*
X168779952Y-90161904D01*
X168589476Y-90114285D01*
X168494238Y-90066666D01*
X168399000Y-89971428D01*
X168351380Y-89828571D01*
X168351380Y-89733333D01*
X168399000Y-89590476D01*
X168446619Y-89542857D01*
X169351380Y-88590476D02*
X169351380Y-89161904D01*
X169351380Y-88876190D02*
X168351380Y-88876190D01*
X168494238Y-88971428D01*
X168589476Y-89066666D01*
X168637095Y-89161904D01*
X169351380Y-88114285D02*
X169351380Y-87923809D01*
X169303761Y-87828571D01*
X169256142Y-87780952D01*
X169113285Y-87685714D01*
X168922809Y-87638095D01*
X168541857Y-87638095D01*
X168446619Y-87685714D01*
X168399000Y-87733333D01*
X168351380Y-87828571D01*
X168351380Y-88019047D01*
X168399000Y-88114285D01*
X168446619Y-88161904D01*
X168541857Y-88209523D01*
X168779952Y-88209523D01*
X168875190Y-88161904D01*
X168922809Y-88114285D01*
X168970428Y-88019047D01*
X168970428Y-87828571D01*
X168922809Y-87733333D01*
X168875190Y-87685714D01*
X168779952Y-87638095D01*
X173408142Y-91217142D02*
X173360523Y-91264761D01*
X173217666Y-91312380D01*
X173122428Y-91312380D01*
X172979571Y-91264761D01*
X172884333Y-91169523D01*
X172836714Y-91074285D01*
X172789095Y-90883809D01*
X172789095Y-90740952D01*
X172836714Y-90550476D01*
X172884333Y-90455238D01*
X172979571Y-90360000D01*
X173122428Y-90312380D01*
X173217666Y-90312380D01*
X173360523Y-90360000D01*
X173408142Y-90407619D01*
X174360523Y-91312380D02*
X173789095Y-91312380D01*
X174074809Y-91312380D02*
X174074809Y-90312380D01*
X173979571Y-90455238D01*
X173884333Y-90550476D01*
X173789095Y-90598095D01*
X174931952Y-90740952D02*
X174836714Y-90693333D01*
X174789095Y-90645714D01*
X174741476Y-90550476D01*
X174741476Y-90502857D01*
X174789095Y-90407619D01*
X174836714Y-90360000D01*
X174931952Y-90312380D01*
X175122428Y-90312380D01*
X175217666Y-90360000D01*
X175265285Y-90407619D01*
X175312904Y-90502857D01*
X175312904Y-90550476D01*
X175265285Y-90645714D01*
X175217666Y-90693333D01*
X175122428Y-90740952D01*
X174931952Y-90740952D01*
X174836714Y-90788571D01*
X174789095Y-90836190D01*
X174741476Y-90931428D01*
X174741476Y-91121904D01*
X174789095Y-91217142D01*
X174836714Y-91264761D01*
X174931952Y-91312380D01*
X175122428Y-91312380D01*
X175217666Y-91264761D01*
X175265285Y-91217142D01*
X175312904Y-91121904D01*
X175312904Y-90931428D01*
X175265285Y-90836190D01*
X175217666Y-90788571D01*
X175122428Y-90740952D01*
X175058095Y-84292380D02*
X175058095Y-85101904D01*
X175105714Y-85197142D01*
X175153333Y-85244761D01*
X175248571Y-85292380D01*
X175439047Y-85292380D01*
X175534285Y-85244761D01*
X175581904Y-85197142D01*
X175629523Y-85101904D01*
X175629523Y-84292380D01*
X176534285Y-84292380D02*
X176343809Y-84292380D01*
X176248571Y-84340000D01*
X176200952Y-84387619D01*
X176105714Y-84530476D01*
X176058095Y-84720952D01*
X176058095Y-85101904D01*
X176105714Y-85197142D01*
X176153333Y-85244761D01*
X176248571Y-85292380D01*
X176439047Y-85292380D01*
X176534285Y-85244761D01*
X176581904Y-85197142D01*
X176629523Y-85101904D01*
X176629523Y-84863809D01*
X176581904Y-84768571D01*
X176534285Y-84720952D01*
X176439047Y-84673333D01*
X176248571Y-84673333D01*
X176153333Y-84720952D01*
X176105714Y-84768571D01*
X176058095Y-84863809D01*
X163597142Y-78952380D02*
X163263809Y-78476190D01*
X163025714Y-78952380D02*
X163025714Y-77952380D01*
X163406666Y-77952380D01*
X163501904Y-78000000D01*
X163549523Y-78047619D01*
X163597142Y-78142857D01*
X163597142Y-78285714D01*
X163549523Y-78380952D01*
X163501904Y-78428571D01*
X163406666Y-78476190D01*
X163025714Y-78476190D01*
X163930476Y-77952380D02*
X164549523Y-77952380D01*
X164216190Y-78333333D01*
X164359047Y-78333333D01*
X164454285Y-78380952D01*
X164501904Y-78428571D01*
X164549523Y-78523809D01*
X164549523Y-78761904D01*
X164501904Y-78857142D01*
X164454285Y-78904761D01*
X164359047Y-78952380D01*
X164073333Y-78952380D01*
X163978095Y-78904761D01*
X163930476Y-78857142D01*
X165025714Y-78952380D02*
X165216190Y-78952380D01*
X165311428Y-78904761D01*
X165359047Y-78857142D01*
X165454285Y-78714285D01*
X165501904Y-78523809D01*
X165501904Y-78142857D01*
X165454285Y-78047619D01*
X165406666Y-78000000D01*
X165311428Y-77952380D01*
X165120952Y-77952380D01*
X165025714Y-78000000D01*
X164978095Y-78047619D01*
X164930476Y-78142857D01*
X164930476Y-78380952D01*
X164978095Y-78476190D01*
X165025714Y-78523809D01*
X165120952Y-78571428D01*
X165311428Y-78571428D01*
X165406666Y-78523809D01*
X165454285Y-78476190D01*
X165501904Y-78380952D01*
X166977142Y-83402380D02*
X166643809Y-82926190D01*
X166405714Y-83402380D02*
X166405714Y-82402380D01*
X166786666Y-82402380D01*
X166881904Y-82450000D01*
X166929523Y-82497619D01*
X166977142Y-82592857D01*
X166977142Y-82735714D01*
X166929523Y-82830952D01*
X166881904Y-82878571D01*
X166786666Y-82926190D01*
X166405714Y-82926190D01*
X167310476Y-82402380D02*
X167929523Y-82402380D01*
X167596190Y-82783333D01*
X167739047Y-82783333D01*
X167834285Y-82830952D01*
X167881904Y-82878571D01*
X167929523Y-82973809D01*
X167929523Y-83211904D01*
X167881904Y-83307142D01*
X167834285Y-83354761D01*
X167739047Y-83402380D01*
X167453333Y-83402380D01*
X167358095Y-83354761D01*
X167310476Y-83307142D01*
X168500952Y-82830952D02*
X168405714Y-82783333D01*
X168358095Y-82735714D01*
X168310476Y-82640476D01*
X168310476Y-82592857D01*
X168358095Y-82497619D01*
X168405714Y-82450000D01*
X168500952Y-82402380D01*
X168691428Y-82402380D01*
X168786666Y-82450000D01*
X168834285Y-82497619D01*
X168881904Y-82592857D01*
X168881904Y-82640476D01*
X168834285Y-82735714D01*
X168786666Y-82783333D01*
X168691428Y-82830952D01*
X168500952Y-82830952D01*
X168405714Y-82878571D01*
X168358095Y-82926190D01*
X168310476Y-83021428D01*
X168310476Y-83211904D01*
X168358095Y-83307142D01*
X168405714Y-83354761D01*
X168500952Y-83402380D01*
X168691428Y-83402380D01*
X168786666Y-83354761D01*
X168834285Y-83307142D01*
X168881904Y-83211904D01*
X168881904Y-83021428D01*
X168834285Y-82926190D01*
X168786666Y-82878571D01*
X168691428Y-82830952D01*
X172863095Y-74377380D02*
X172863095Y-75186904D01*
X172910714Y-75282142D01*
X172958333Y-75329761D01*
X173053571Y-75377380D01*
X173244047Y-75377380D01*
X173339285Y-75329761D01*
X173386904Y-75282142D01*
X173434523Y-75186904D01*
X173434523Y-74377380D01*
X173815476Y-74377380D02*
X174482142Y-74377380D01*
X174053571Y-75377380D01*
X131541904Y-110112380D02*
X131541904Y-109112380D01*
X131780000Y-109112380D01*
X131922857Y-109160000D01*
X132018095Y-109255238D01*
X132065714Y-109350476D01*
X132113333Y-109540952D01*
X132113333Y-109683809D01*
X132065714Y-109874285D01*
X132018095Y-109969523D01*
X131922857Y-110064761D01*
X131780000Y-110112380D01*
X131541904Y-110112380D01*
X132970476Y-109112380D02*
X132780000Y-109112380D01*
X132684761Y-109160000D01*
X132637142Y-109207619D01*
X132541904Y-109350476D01*
X132494285Y-109540952D01*
X132494285Y-109921904D01*
X132541904Y-110017142D01*
X132589523Y-110064761D01*
X132684761Y-110112380D01*
X132875238Y-110112380D01*
X132970476Y-110064761D01*
X133018095Y-110017142D01*
X133065714Y-109921904D01*
X133065714Y-109683809D01*
X133018095Y-109588571D01*
X132970476Y-109540952D01*
X132875238Y-109493333D01*
X132684761Y-109493333D01*
X132589523Y-109540952D01*
X132541904Y-109588571D01*
X132494285Y-109683809D01*
X147661904Y-110182380D02*
X147661904Y-109182380D01*
X147900000Y-109182380D01*
X148042857Y-109230000D01*
X148138095Y-109325238D01*
X148185714Y-109420476D01*
X148233333Y-109610952D01*
X148233333Y-109753809D01*
X148185714Y-109944285D01*
X148138095Y-110039523D01*
X148042857Y-110134761D01*
X147900000Y-110182380D01*
X147661904Y-110182380D01*
X149138095Y-109182380D02*
X148661904Y-109182380D01*
X148614285Y-109658571D01*
X148661904Y-109610952D01*
X148757142Y-109563333D01*
X148995238Y-109563333D01*
X149090476Y-109610952D01*
X149138095Y-109658571D01*
X149185714Y-109753809D01*
X149185714Y-109991904D01*
X149138095Y-110087142D01*
X149090476Y-110134761D01*
X148995238Y-110182380D01*
X148757142Y-110182380D01*
X148661904Y-110134761D01*
X148614285Y-110087142D01*
X164141904Y-110132380D02*
X164141904Y-109132380D01*
X164380000Y-109132380D01*
X164522857Y-109180000D01*
X164618095Y-109275238D01*
X164665714Y-109370476D01*
X164713333Y-109560952D01*
X164713333Y-109703809D01*
X164665714Y-109894285D01*
X164618095Y-109989523D01*
X164522857Y-110084761D01*
X164380000Y-110132380D01*
X164141904Y-110132380D01*
X165570476Y-109465714D02*
X165570476Y-110132380D01*
X165332380Y-109084761D02*
X165094285Y-109799047D01*
X165713333Y-109799047D01*
X180421904Y-110182380D02*
X180421904Y-109182380D01*
X180660000Y-109182380D01*
X180802857Y-109230000D01*
X180898095Y-109325238D01*
X180945714Y-109420476D01*
X180993333Y-109610952D01*
X180993333Y-109753809D01*
X180945714Y-109944285D01*
X180898095Y-110039523D01*
X180802857Y-110134761D01*
X180660000Y-110182380D01*
X180421904Y-110182380D01*
X181326666Y-109182380D02*
X181945714Y-109182380D01*
X181612380Y-109563333D01*
X181755238Y-109563333D01*
X181850476Y-109610952D01*
X181898095Y-109658571D01*
X181945714Y-109753809D01*
X181945714Y-109991904D01*
X181898095Y-110087142D01*
X181850476Y-110134761D01*
X181755238Y-110182380D01*
X181469523Y-110182380D01*
X181374285Y-110134761D01*
X181326666Y-110087142D01*
X143437142Y-80742380D02*
X143103809Y-80266190D01*
X142865714Y-80742380D02*
X142865714Y-79742380D01*
X143246666Y-79742380D01*
X143341904Y-79790000D01*
X143389523Y-79837619D01*
X143437142Y-79932857D01*
X143437142Y-80075714D01*
X143389523Y-80170952D01*
X143341904Y-80218571D01*
X143246666Y-80266190D01*
X142865714Y-80266190D01*
X143770476Y-79742380D02*
X144389523Y-79742380D01*
X144056190Y-80123333D01*
X144199047Y-80123333D01*
X144294285Y-80170952D01*
X144341904Y-80218571D01*
X144389523Y-80313809D01*
X144389523Y-80551904D01*
X144341904Y-80647142D01*
X144294285Y-80694761D01*
X144199047Y-80742380D01*
X143913333Y-80742380D01*
X143818095Y-80694761D01*
X143770476Y-80647142D01*
X144722857Y-79742380D02*
X145389523Y-79742380D01*
X144960952Y-80742380D01*
X146977142Y-80692380D02*
X146643809Y-80216190D01*
X146405714Y-80692380D02*
X146405714Y-79692380D01*
X146786666Y-79692380D01*
X146881904Y-79740000D01*
X146929523Y-79787619D01*
X146977142Y-79882857D01*
X146977142Y-80025714D01*
X146929523Y-80120952D01*
X146881904Y-80168571D01*
X146786666Y-80216190D01*
X146405714Y-80216190D01*
X147310476Y-79692380D02*
X147929523Y-79692380D01*
X147596190Y-80073333D01*
X147739047Y-80073333D01*
X147834285Y-80120952D01*
X147881904Y-80168571D01*
X147929523Y-80263809D01*
X147929523Y-80501904D01*
X147881904Y-80597142D01*
X147834285Y-80644761D01*
X147739047Y-80692380D01*
X147453333Y-80692380D01*
X147358095Y-80644761D01*
X147310476Y-80597142D01*
X148786666Y-79692380D02*
X148596190Y-79692380D01*
X148500952Y-79740000D01*
X148453333Y-79787619D01*
X148358095Y-79930476D01*
X148310476Y-80120952D01*
X148310476Y-80501904D01*
X148358095Y-80597142D01*
X148405714Y-80644761D01*
X148500952Y-80692380D01*
X148691428Y-80692380D01*
X148786666Y-80644761D01*
X148834285Y-80597142D01*
X148881904Y-80501904D01*
X148881904Y-80263809D01*
X148834285Y-80168571D01*
X148786666Y-80120952D01*
X148691428Y-80073333D01*
X148500952Y-80073333D01*
X148405714Y-80120952D01*
X148358095Y-80168571D01*
X148310476Y-80263809D01*
X150447142Y-80872380D02*
X150113809Y-80396190D01*
X149875714Y-80872380D02*
X149875714Y-79872380D01*
X150256666Y-79872380D01*
X150351904Y-79920000D01*
X150399523Y-79967619D01*
X150447142Y-80062857D01*
X150447142Y-80205714D01*
X150399523Y-80300952D01*
X150351904Y-80348571D01*
X150256666Y-80396190D01*
X149875714Y-80396190D01*
X150780476Y-79872380D02*
X151399523Y-79872380D01*
X151066190Y-80253333D01*
X151209047Y-80253333D01*
X151304285Y-80300952D01*
X151351904Y-80348571D01*
X151399523Y-80443809D01*
X151399523Y-80681904D01*
X151351904Y-80777142D01*
X151304285Y-80824761D01*
X151209047Y-80872380D01*
X150923333Y-80872380D01*
X150828095Y-80824761D01*
X150780476Y-80777142D01*
X152304285Y-79872380D02*
X151828095Y-79872380D01*
X151780476Y-80348571D01*
X151828095Y-80300952D01*
X151923333Y-80253333D01*
X152161428Y-80253333D01*
X152256666Y-80300952D01*
X152304285Y-80348571D01*
X152351904Y-80443809D01*
X152351904Y-80681904D01*
X152304285Y-80777142D01*
X152256666Y-80824761D01*
X152161428Y-80872380D01*
X151923333Y-80872380D01*
X151828095Y-80824761D01*
X151780476Y-80777142D01*
X153902142Y-80862380D02*
X153568809Y-80386190D01*
X153330714Y-80862380D02*
X153330714Y-79862380D01*
X153711666Y-79862380D01*
X153806904Y-79910000D01*
X153854523Y-79957619D01*
X153902142Y-80052857D01*
X153902142Y-80195714D01*
X153854523Y-80290952D01*
X153806904Y-80338571D01*
X153711666Y-80386190D01*
X153330714Y-80386190D01*
X154235476Y-79862380D02*
X154854523Y-79862380D01*
X154521190Y-80243333D01*
X154664047Y-80243333D01*
X154759285Y-80290952D01*
X154806904Y-80338571D01*
X154854523Y-80433809D01*
X154854523Y-80671904D01*
X154806904Y-80767142D01*
X154759285Y-80814761D01*
X154664047Y-80862380D01*
X154378333Y-80862380D01*
X154283095Y-80814761D01*
X154235476Y-80767142D01*
X155711666Y-80195714D02*
X155711666Y-80862380D01*
X155473571Y-79814761D02*
X155235476Y-80529047D01*
X155854523Y-80529047D01*
X176753333Y-95567380D02*
X176277142Y-95567380D01*
X176277142Y-94567380D01*
X177610476Y-95567380D02*
X177039047Y-95567380D01*
X177324761Y-95567380D02*
X177324761Y-94567380D01*
X177229523Y-94710238D01*
X177134285Y-94805476D01*
X177039047Y-94853095D01*
X145638095Y-96502380D02*
X145638095Y-97311904D01*
X145685714Y-97407142D01*
X145733333Y-97454761D01*
X145828571Y-97502380D01*
X146019047Y-97502380D01*
X146114285Y-97454761D01*
X146161904Y-97407142D01*
X146209523Y-97311904D01*
X146209523Y-96502380D01*
X147161904Y-96502380D02*
X146685714Y-96502380D01*
X146638095Y-96978571D01*
X146685714Y-96930952D01*
X146780952Y-96883333D01*
X147019047Y-96883333D01*
X147114285Y-96930952D01*
X147161904Y-96978571D01*
X147209523Y-97073809D01*
X147209523Y-97311904D01*
X147161904Y-97407142D01*
X147114285Y-97454761D01*
X147019047Y-97502380D01*
X146780952Y-97502380D01*
X146685714Y-97454761D01*
X146638095Y-97407142D01*
X125038095Y-103007380D02*
X125038095Y-103816904D01*
X125085714Y-103912142D01*
X125133333Y-103959761D01*
X125228571Y-104007380D01*
X125419047Y-104007380D01*
X125514285Y-103959761D01*
X125561904Y-103912142D01*
X125609523Y-103816904D01*
X125609523Y-103007380D01*
X126514285Y-103340714D02*
X126514285Y-104007380D01*
X126276190Y-102959761D02*
X126038095Y-103674047D01*
X126657142Y-103674047D01*
X141168095Y-102987380D02*
X141168095Y-103796904D01*
X141215714Y-103892142D01*
X141263333Y-103939761D01*
X141358571Y-103987380D01*
X141549047Y-103987380D01*
X141644285Y-103939761D01*
X141691904Y-103892142D01*
X141739523Y-103796904D01*
X141739523Y-102987380D01*
X142120476Y-102987380D02*
X142739523Y-102987380D01*
X142406190Y-103368333D01*
X142549047Y-103368333D01*
X142644285Y-103415952D01*
X142691904Y-103463571D01*
X142739523Y-103558809D01*
X142739523Y-103796904D01*
X142691904Y-103892142D01*
X142644285Y-103939761D01*
X142549047Y-103987380D01*
X142263333Y-103987380D01*
X142168095Y-103939761D01*
X142120476Y-103892142D01*
X157578095Y-102997380D02*
X157578095Y-103806904D01*
X157625714Y-103902142D01*
X157673333Y-103949761D01*
X157768571Y-103997380D01*
X157959047Y-103997380D01*
X158054285Y-103949761D01*
X158101904Y-103902142D01*
X158149523Y-103806904D01*
X158149523Y-102997380D01*
X158578095Y-103092619D02*
X158625714Y-103045000D01*
X158720952Y-102997380D01*
X158959047Y-102997380D01*
X159054285Y-103045000D01*
X159101904Y-103092619D01*
X159149523Y-103187857D01*
X159149523Y-103283095D01*
X159101904Y-103425952D01*
X158530476Y-103997380D01*
X159149523Y-103997380D01*
X174078095Y-103412380D02*
X174078095Y-104221904D01*
X174125714Y-104317142D01*
X174173333Y-104364761D01*
X174268571Y-104412380D01*
X174459047Y-104412380D01*
X174554285Y-104364761D01*
X174601904Y-104317142D01*
X174649523Y-104221904D01*
X174649523Y-103412380D01*
X175649523Y-104412380D02*
X175078095Y-104412380D01*
X175363809Y-104412380D02*
X175363809Y-103412380D01*
X175268571Y-103555238D01*
X175173333Y-103650476D01*
X175078095Y-103698095D01*
X172482142Y-66577380D02*
X172148809Y-66101190D01*
X171910714Y-66577380D02*
X171910714Y-65577380D01*
X172291666Y-65577380D01*
X172386904Y-65625000D01*
X172434523Y-65672619D01*
X172482142Y-65767857D01*
X172482142Y-65910714D01*
X172434523Y-66005952D01*
X172386904Y-66053571D01*
X172291666Y-66101190D01*
X171910714Y-66101190D01*
X172815476Y-65577380D02*
X173434523Y-65577380D01*
X173101190Y-65958333D01*
X173244047Y-65958333D01*
X173339285Y-66005952D01*
X173386904Y-66053571D01*
X173434523Y-66148809D01*
X173434523Y-66386904D01*
X173386904Y-66482142D01*
X173339285Y-66529761D01*
X173244047Y-66577380D01*
X172958333Y-66577380D01*
X172863095Y-66529761D01*
X172815476Y-66482142D01*
X173767857Y-65577380D02*
X174386904Y-65577380D01*
X174053571Y-65958333D01*
X174196428Y-65958333D01*
X174291666Y-66005952D01*
X174339285Y-66053571D01*
X174386904Y-66148809D01*
X174386904Y-66386904D01*
X174339285Y-66482142D01*
X174291666Y-66529761D01*
X174196428Y-66577380D01*
X173910714Y-66577380D01*
X173815476Y-66529761D01*
X173767857Y-66482142D01*
X135612380Y-70782857D02*
X135136190Y-71116190D01*
X135612380Y-71354285D02*
X134612380Y-71354285D01*
X134612380Y-70973333D01*
X134660000Y-70878095D01*
X134707619Y-70830476D01*
X134802857Y-70782857D01*
X134945714Y-70782857D01*
X135040952Y-70830476D01*
X135088571Y-70878095D01*
X135136190Y-70973333D01*
X135136190Y-71354285D01*
X134612380Y-70449523D02*
X134612380Y-69830476D01*
X134993333Y-70163809D01*
X134993333Y-70020952D01*
X135040952Y-69925714D01*
X135088571Y-69878095D01*
X135183809Y-69830476D01*
X135421904Y-69830476D01*
X135517142Y-69878095D01*
X135564761Y-69925714D01*
X135612380Y-70020952D01*
X135612380Y-70306666D01*
X135564761Y-70401904D01*
X135517142Y-70449523D01*
X134707619Y-69449523D02*
X134660000Y-69401904D01*
X134612380Y-69306666D01*
X134612380Y-69068571D01*
X134660000Y-68973333D01*
X134707619Y-68925714D01*
X134802857Y-68878095D01*
X134898095Y-68878095D01*
X135040952Y-68925714D01*
X135612380Y-69497142D01*
X135612380Y-68878095D01*
X129542380Y-71262857D02*
X129066190Y-71596190D01*
X129542380Y-71834285D02*
X128542380Y-71834285D01*
X128542380Y-71453333D01*
X128590000Y-71358095D01*
X128637619Y-71310476D01*
X128732857Y-71262857D01*
X128875714Y-71262857D01*
X128970952Y-71310476D01*
X129018571Y-71358095D01*
X129066190Y-71453333D01*
X129066190Y-71834285D01*
X128542380Y-70929523D02*
X128542380Y-70310476D01*
X128923333Y-70643809D01*
X128923333Y-70500952D01*
X128970952Y-70405714D01*
X129018571Y-70358095D01*
X129113809Y-70310476D01*
X129351904Y-70310476D01*
X129447142Y-70358095D01*
X129494761Y-70405714D01*
X129542380Y-70500952D01*
X129542380Y-70786666D01*
X129494761Y-70881904D01*
X129447142Y-70929523D01*
X129542380Y-69358095D02*
X129542380Y-69929523D01*
X129542380Y-69643809D02*
X128542380Y-69643809D01*
X128685238Y-69739047D01*
X128780476Y-69834285D01*
X128828095Y-69929523D01*
X141287142Y-94492380D02*
X140953809Y-94016190D01*
X140715714Y-94492380D02*
X140715714Y-93492380D01*
X141096666Y-93492380D01*
X141191904Y-93540000D01*
X141239523Y-93587619D01*
X141287142Y-93682857D01*
X141287142Y-93825714D01*
X141239523Y-93920952D01*
X141191904Y-93968571D01*
X141096666Y-94016190D01*
X140715714Y-94016190D01*
X141620476Y-93492380D02*
X142239523Y-93492380D01*
X141906190Y-93873333D01*
X142049047Y-93873333D01*
X142144285Y-93920952D01*
X142191904Y-93968571D01*
X142239523Y-94063809D01*
X142239523Y-94301904D01*
X142191904Y-94397142D01*
X142144285Y-94444761D01*
X142049047Y-94492380D01*
X141763333Y-94492380D01*
X141668095Y-94444761D01*
X141620476Y-94397142D01*
X142858571Y-93492380D02*
X142953809Y-93492380D01*
X143049047Y-93540000D01*
X143096666Y-93587619D01*
X143144285Y-93682857D01*
X143191904Y-93873333D01*
X143191904Y-94111428D01*
X143144285Y-94301904D01*
X143096666Y-94397142D01*
X143049047Y-94444761D01*
X142953809Y-94492380D01*
X142858571Y-94492380D01*
X142763333Y-94444761D01*
X142715714Y-94397142D01*
X142668095Y-94301904D01*
X142620476Y-94111428D01*
X142620476Y-93873333D01*
X142668095Y-93682857D01*
X142715714Y-93587619D01*
X142763333Y-93540000D01*
X142858571Y-93492380D01*
X151187142Y-94432380D02*
X150853809Y-93956190D01*
X150615714Y-94432380D02*
X150615714Y-93432380D01*
X150996666Y-93432380D01*
X151091904Y-93480000D01*
X151139523Y-93527619D01*
X151187142Y-93622857D01*
X151187142Y-93765714D01*
X151139523Y-93860952D01*
X151091904Y-93908571D01*
X150996666Y-93956190D01*
X150615714Y-93956190D01*
X151568095Y-93527619D02*
X151615714Y-93480000D01*
X151710952Y-93432380D01*
X151949047Y-93432380D01*
X152044285Y-93480000D01*
X152091904Y-93527619D01*
X152139523Y-93622857D01*
X152139523Y-93718095D01*
X152091904Y-93860952D01*
X151520476Y-94432380D01*
X152139523Y-94432380D01*
X152615714Y-94432380D02*
X152806190Y-94432380D01*
X152901428Y-94384761D01*
X152949047Y-94337142D01*
X153044285Y-94194285D01*
X153091904Y-94003809D01*
X153091904Y-93622857D01*
X153044285Y-93527619D01*
X152996666Y-93480000D01*
X152901428Y-93432380D01*
X152710952Y-93432380D01*
X152615714Y-93480000D01*
X152568095Y-93527619D01*
X152520476Y-93622857D01*
X152520476Y-93860952D01*
X152568095Y-93956190D01*
X152615714Y-94003809D01*
X152710952Y-94051428D01*
X152901428Y-94051428D01*
X152996666Y-94003809D01*
X153044285Y-93956190D01*
X153091904Y-93860952D01*
X120487142Y-108252380D02*
X120153809Y-107776190D01*
X119915714Y-108252380D02*
X119915714Y-107252380D01*
X120296666Y-107252380D01*
X120391904Y-107300000D01*
X120439523Y-107347619D01*
X120487142Y-107442857D01*
X120487142Y-107585714D01*
X120439523Y-107680952D01*
X120391904Y-107728571D01*
X120296666Y-107776190D01*
X119915714Y-107776190D01*
X120868095Y-107347619D02*
X120915714Y-107300000D01*
X121010952Y-107252380D01*
X121249047Y-107252380D01*
X121344285Y-107300000D01*
X121391904Y-107347619D01*
X121439523Y-107442857D01*
X121439523Y-107538095D01*
X121391904Y-107680952D01*
X120820476Y-108252380D01*
X121439523Y-108252380D01*
X122010952Y-107680952D02*
X121915714Y-107633333D01*
X121868095Y-107585714D01*
X121820476Y-107490476D01*
X121820476Y-107442857D01*
X121868095Y-107347619D01*
X121915714Y-107300000D01*
X122010952Y-107252380D01*
X122201428Y-107252380D01*
X122296666Y-107300000D01*
X122344285Y-107347619D01*
X122391904Y-107442857D01*
X122391904Y-107490476D01*
X122344285Y-107585714D01*
X122296666Y-107633333D01*
X122201428Y-107680952D01*
X122010952Y-107680952D01*
X121915714Y-107728571D01*
X121868095Y-107776190D01*
X121820476Y-107871428D01*
X121820476Y-108061904D01*
X121868095Y-108157142D01*
X121915714Y-108204761D01*
X122010952Y-108252380D01*
X122201428Y-108252380D01*
X122296666Y-108204761D01*
X122344285Y-108157142D01*
X122391904Y-108061904D01*
X122391904Y-107871428D01*
X122344285Y-107776190D01*
X122296666Y-107728571D01*
X122201428Y-107680952D01*
X128177142Y-113362380D02*
X127843809Y-112886190D01*
X127605714Y-113362380D02*
X127605714Y-112362380D01*
X127986666Y-112362380D01*
X128081904Y-112410000D01*
X128129523Y-112457619D01*
X128177142Y-112552857D01*
X128177142Y-112695714D01*
X128129523Y-112790952D01*
X128081904Y-112838571D01*
X127986666Y-112886190D01*
X127605714Y-112886190D01*
X128558095Y-112457619D02*
X128605714Y-112410000D01*
X128700952Y-112362380D01*
X128939047Y-112362380D01*
X129034285Y-112410000D01*
X129081904Y-112457619D01*
X129129523Y-112552857D01*
X129129523Y-112648095D01*
X129081904Y-112790952D01*
X128510476Y-113362380D01*
X129129523Y-113362380D01*
X129986666Y-112695714D02*
X129986666Y-113362380D01*
X129748571Y-112314761D02*
X129510476Y-113029047D01*
X130129523Y-113029047D01*
X144097142Y-113282380D02*
X143763809Y-112806190D01*
X143525714Y-113282380D02*
X143525714Y-112282380D01*
X143906666Y-112282380D01*
X144001904Y-112330000D01*
X144049523Y-112377619D01*
X144097142Y-112472857D01*
X144097142Y-112615714D01*
X144049523Y-112710952D01*
X144001904Y-112758571D01*
X143906666Y-112806190D01*
X143525714Y-112806190D01*
X144478095Y-112377619D02*
X144525714Y-112330000D01*
X144620952Y-112282380D01*
X144859047Y-112282380D01*
X144954285Y-112330000D01*
X145001904Y-112377619D01*
X145049523Y-112472857D01*
X145049523Y-112568095D01*
X145001904Y-112710952D01*
X144430476Y-113282380D01*
X145049523Y-113282380D01*
X145382857Y-112282380D02*
X146001904Y-112282380D01*
X145668571Y-112663333D01*
X145811428Y-112663333D01*
X145906666Y-112710952D01*
X145954285Y-112758571D01*
X146001904Y-112853809D01*
X146001904Y-113091904D01*
X145954285Y-113187142D01*
X145906666Y-113234761D01*
X145811428Y-113282380D01*
X145525714Y-113282380D01*
X145430476Y-113234761D01*
X145382857Y-113187142D01*
X160687142Y-113202380D02*
X160353809Y-112726190D01*
X160115714Y-113202380D02*
X160115714Y-112202380D01*
X160496666Y-112202380D01*
X160591904Y-112250000D01*
X160639523Y-112297619D01*
X160687142Y-112392857D01*
X160687142Y-112535714D01*
X160639523Y-112630952D01*
X160591904Y-112678571D01*
X160496666Y-112726190D01*
X160115714Y-112726190D01*
X161068095Y-112297619D02*
X161115714Y-112250000D01*
X161210952Y-112202380D01*
X161449047Y-112202380D01*
X161544285Y-112250000D01*
X161591904Y-112297619D01*
X161639523Y-112392857D01*
X161639523Y-112488095D01*
X161591904Y-112630952D01*
X161020476Y-113202380D01*
X161639523Y-113202380D01*
X162020476Y-112297619D02*
X162068095Y-112250000D01*
X162163333Y-112202380D01*
X162401428Y-112202380D01*
X162496666Y-112250000D01*
X162544285Y-112297619D01*
X162591904Y-112392857D01*
X162591904Y-112488095D01*
X162544285Y-112630952D01*
X161972857Y-113202380D01*
X162591904Y-113202380D01*
X176897142Y-113452380D02*
X176563809Y-112976190D01*
X176325714Y-113452380D02*
X176325714Y-112452380D01*
X176706666Y-112452380D01*
X176801904Y-112500000D01*
X176849523Y-112547619D01*
X176897142Y-112642857D01*
X176897142Y-112785714D01*
X176849523Y-112880952D01*
X176801904Y-112928571D01*
X176706666Y-112976190D01*
X176325714Y-112976190D01*
X177278095Y-112547619D02*
X177325714Y-112500000D01*
X177420952Y-112452380D01*
X177659047Y-112452380D01*
X177754285Y-112500000D01*
X177801904Y-112547619D01*
X177849523Y-112642857D01*
X177849523Y-112738095D01*
X177801904Y-112880952D01*
X177230476Y-113452380D01*
X177849523Y-113452380D01*
X178801904Y-113452380D02*
X178230476Y-113452380D01*
X178516190Y-113452380D02*
X178516190Y-112452380D01*
X178420952Y-112595238D01*
X178325714Y-112690476D01*
X178230476Y-112738095D01*
X133182142Y-103592380D02*
X132848809Y-103116190D01*
X132610714Y-103592380D02*
X132610714Y-102592380D01*
X132991666Y-102592380D01*
X133086904Y-102640000D01*
X133134523Y-102687619D01*
X133182142Y-102782857D01*
X133182142Y-102925714D01*
X133134523Y-103020952D01*
X133086904Y-103068571D01*
X132991666Y-103116190D01*
X132610714Y-103116190D01*
X134134523Y-103592380D02*
X133563095Y-103592380D01*
X133848809Y-103592380D02*
X133848809Y-102592380D01*
X133753571Y-102735238D01*
X133658333Y-102830476D01*
X133563095Y-102878095D01*
X134610714Y-103592380D02*
X134801190Y-103592380D01*
X134896428Y-103544761D01*
X134944047Y-103497142D01*
X135039285Y-103354285D01*
X135086904Y-103163809D01*
X135086904Y-102782857D01*
X135039285Y-102687619D01*
X134991666Y-102640000D01*
X134896428Y-102592380D01*
X134705952Y-102592380D01*
X134610714Y-102640000D01*
X134563095Y-102687619D01*
X134515476Y-102782857D01*
X134515476Y-103020952D01*
X134563095Y-103116190D01*
X134610714Y-103163809D01*
X134705952Y-103211428D01*
X134896428Y-103211428D01*
X134991666Y-103163809D01*
X135039285Y-103116190D01*
X135086904Y-103020952D01*
X120382380Y-106172857D02*
X119906190Y-106506190D01*
X120382380Y-106744285D02*
X119382380Y-106744285D01*
X119382380Y-106363333D01*
X119430000Y-106268095D01*
X119477619Y-106220476D01*
X119572857Y-106172857D01*
X119715714Y-106172857D01*
X119810952Y-106220476D01*
X119858571Y-106268095D01*
X119906190Y-106363333D01*
X119906190Y-106744285D01*
X120382380Y-105220476D02*
X120382380Y-105791904D01*
X120382380Y-105506190D02*
X119382380Y-105506190D01*
X119525238Y-105601428D01*
X119620476Y-105696666D01*
X119668095Y-105791904D01*
X119810952Y-104649047D02*
X119763333Y-104744285D01*
X119715714Y-104791904D01*
X119620476Y-104839523D01*
X119572857Y-104839523D01*
X119477619Y-104791904D01*
X119430000Y-104744285D01*
X119382380Y-104649047D01*
X119382380Y-104458571D01*
X119430000Y-104363333D01*
X119477619Y-104315714D01*
X119572857Y-104268095D01*
X119620476Y-104268095D01*
X119715714Y-104315714D01*
X119763333Y-104363333D01*
X119810952Y-104458571D01*
X119810952Y-104649047D01*
X119858571Y-104744285D01*
X119906190Y-104791904D01*
X120001428Y-104839523D01*
X120191904Y-104839523D01*
X120287142Y-104791904D01*
X120334761Y-104744285D01*
X120382380Y-104649047D01*
X120382380Y-104458571D01*
X120334761Y-104363333D01*
X120287142Y-104315714D01*
X120191904Y-104268095D01*
X120001428Y-104268095D01*
X119906190Y-104315714D01*
X119858571Y-104363333D01*
X119810952Y-104458571D01*
X149432142Y-104142380D02*
X149098809Y-103666190D01*
X148860714Y-104142380D02*
X148860714Y-103142380D01*
X149241666Y-103142380D01*
X149336904Y-103190000D01*
X149384523Y-103237619D01*
X149432142Y-103332857D01*
X149432142Y-103475714D01*
X149384523Y-103570952D01*
X149336904Y-103618571D01*
X149241666Y-103666190D01*
X148860714Y-103666190D01*
X150384523Y-104142380D02*
X149813095Y-104142380D01*
X150098809Y-104142380D02*
X150098809Y-103142380D01*
X150003571Y-103285238D01*
X149908333Y-103380476D01*
X149813095Y-103428095D01*
X151241666Y-103142380D02*
X151051190Y-103142380D01*
X150955952Y-103190000D01*
X150908333Y-103237619D01*
X150813095Y-103380476D01*
X150765476Y-103570952D01*
X150765476Y-103951904D01*
X150813095Y-104047142D01*
X150860714Y-104094761D01*
X150955952Y-104142380D01*
X151146428Y-104142380D01*
X151241666Y-104094761D01*
X151289285Y-104047142D01*
X151336904Y-103951904D01*
X151336904Y-103713809D01*
X151289285Y-103618571D01*
X151241666Y-103570952D01*
X151146428Y-103523333D01*
X150955952Y-103523333D01*
X150860714Y-103570952D01*
X150813095Y-103618571D01*
X150765476Y-103713809D01*
X136647142Y-105082380D02*
X136313809Y-104606190D01*
X136075714Y-105082380D02*
X136075714Y-104082380D01*
X136456666Y-104082380D01*
X136551904Y-104130000D01*
X136599523Y-104177619D01*
X136647142Y-104272857D01*
X136647142Y-104415714D01*
X136599523Y-104510952D01*
X136551904Y-104558571D01*
X136456666Y-104606190D01*
X136075714Y-104606190D01*
X137599523Y-105082380D02*
X137028095Y-105082380D01*
X137313809Y-105082380D02*
X137313809Y-104082380D01*
X137218571Y-104225238D01*
X137123333Y-104320476D01*
X137028095Y-104368095D01*
X138504285Y-104082380D02*
X138028095Y-104082380D01*
X137980476Y-104558571D01*
X138028095Y-104510952D01*
X138123333Y-104463333D01*
X138361428Y-104463333D01*
X138456666Y-104510952D01*
X138504285Y-104558571D01*
X138551904Y-104653809D01*
X138551904Y-104891904D01*
X138504285Y-104987142D01*
X138456666Y-105034761D01*
X138361428Y-105082380D01*
X138123333Y-105082380D01*
X138028095Y-105034761D01*
X137980476Y-104987142D01*
X165852142Y-104112380D02*
X165518809Y-103636190D01*
X165280714Y-104112380D02*
X165280714Y-103112380D01*
X165661666Y-103112380D01*
X165756904Y-103160000D01*
X165804523Y-103207619D01*
X165852142Y-103302857D01*
X165852142Y-103445714D01*
X165804523Y-103540952D01*
X165756904Y-103588571D01*
X165661666Y-103636190D01*
X165280714Y-103636190D01*
X166804523Y-104112380D02*
X166233095Y-104112380D01*
X166518809Y-104112380D02*
X166518809Y-103112380D01*
X166423571Y-103255238D01*
X166328333Y-103350476D01*
X166233095Y-103398095D01*
X167137857Y-103112380D02*
X167756904Y-103112380D01*
X167423571Y-103493333D01*
X167566428Y-103493333D01*
X167661666Y-103540952D01*
X167709285Y-103588571D01*
X167756904Y-103683809D01*
X167756904Y-103921904D01*
X167709285Y-104017142D01*
X167661666Y-104064761D01*
X167566428Y-104112380D01*
X167280714Y-104112380D01*
X167185476Y-104064761D01*
X167137857Y-104017142D01*
X153072142Y-105172380D02*
X152738809Y-104696190D01*
X152500714Y-105172380D02*
X152500714Y-104172380D01*
X152881666Y-104172380D01*
X152976904Y-104220000D01*
X153024523Y-104267619D01*
X153072142Y-104362857D01*
X153072142Y-104505714D01*
X153024523Y-104600952D01*
X152976904Y-104648571D01*
X152881666Y-104696190D01*
X152500714Y-104696190D01*
X154024523Y-105172380D02*
X153453095Y-105172380D01*
X153738809Y-105172380D02*
X153738809Y-104172380D01*
X153643571Y-104315238D01*
X153548333Y-104410476D01*
X153453095Y-104458095D01*
X154405476Y-104267619D02*
X154453095Y-104220000D01*
X154548333Y-104172380D01*
X154786428Y-104172380D01*
X154881666Y-104220000D01*
X154929285Y-104267619D01*
X154976904Y-104362857D01*
X154976904Y-104458095D01*
X154929285Y-104600952D01*
X154357857Y-105172380D01*
X154976904Y-105172380D01*
X182117142Y-104662380D02*
X181783809Y-104186190D01*
X181545714Y-104662380D02*
X181545714Y-103662380D01*
X181926666Y-103662380D01*
X182021904Y-103710000D01*
X182069523Y-103757619D01*
X182117142Y-103852857D01*
X182117142Y-103995714D01*
X182069523Y-104090952D01*
X182021904Y-104138571D01*
X181926666Y-104186190D01*
X181545714Y-104186190D01*
X183069523Y-104662380D02*
X182498095Y-104662380D01*
X182783809Y-104662380D02*
X182783809Y-103662380D01*
X182688571Y-103805238D01*
X182593333Y-103900476D01*
X182498095Y-103948095D01*
X183688571Y-103662380D02*
X183783809Y-103662380D01*
X183879047Y-103710000D01*
X183926666Y-103757619D01*
X183974285Y-103852857D01*
X184021904Y-104043333D01*
X184021904Y-104281428D01*
X183974285Y-104471904D01*
X183926666Y-104567142D01*
X183879047Y-104614761D01*
X183783809Y-104662380D01*
X183688571Y-104662380D01*
X183593333Y-104614761D01*
X183545714Y-104567142D01*
X183498095Y-104471904D01*
X183450476Y-104281428D01*
X183450476Y-104043333D01*
X183498095Y-103852857D01*
X183545714Y-103757619D01*
X183593333Y-103710000D01*
X183688571Y-103662380D01*
X169778333Y-105242380D02*
X169445000Y-104766190D01*
X169206904Y-105242380D02*
X169206904Y-104242380D01*
X169587857Y-104242380D01*
X169683095Y-104290000D01*
X169730714Y-104337619D01*
X169778333Y-104432857D01*
X169778333Y-104575714D01*
X169730714Y-104670952D01*
X169683095Y-104718571D01*
X169587857Y-104766190D01*
X169206904Y-104766190D01*
X170254523Y-105242380D02*
X170445000Y-105242380D01*
X170540238Y-105194761D01*
X170587857Y-105147142D01*
X170683095Y-105004285D01*
X170730714Y-104813809D01*
X170730714Y-104432857D01*
X170683095Y-104337619D01*
X170635476Y-104290000D01*
X170540238Y-104242380D01*
X170349761Y-104242380D01*
X170254523Y-104290000D01*
X170206904Y-104337619D01*
X170159285Y-104432857D01*
X170159285Y-104670952D01*
X170206904Y-104766190D01*
X170254523Y-104813809D01*
X170349761Y-104861428D01*
X170540238Y-104861428D01*
X170635476Y-104813809D01*
X170683095Y-104766190D01*
X170730714Y-104670952D01*
X130538333Y-118042380D02*
X130205000Y-117566190D01*
X129966904Y-118042380D02*
X129966904Y-117042380D01*
X130347857Y-117042380D01*
X130443095Y-117090000D01*
X130490714Y-117137619D01*
X130538333Y-117232857D01*
X130538333Y-117375714D01*
X130490714Y-117470952D01*
X130443095Y-117518571D01*
X130347857Y-117566190D01*
X129966904Y-117566190D01*
X131109761Y-117470952D02*
X131014523Y-117423333D01*
X130966904Y-117375714D01*
X130919285Y-117280476D01*
X130919285Y-117232857D01*
X130966904Y-117137619D01*
X131014523Y-117090000D01*
X131109761Y-117042380D01*
X131300238Y-117042380D01*
X131395476Y-117090000D01*
X131443095Y-117137619D01*
X131490714Y-117232857D01*
X131490714Y-117280476D01*
X131443095Y-117375714D01*
X131395476Y-117423333D01*
X131300238Y-117470952D01*
X131109761Y-117470952D01*
X131014523Y-117518571D01*
X130966904Y-117566190D01*
X130919285Y-117661428D01*
X130919285Y-117851904D01*
X130966904Y-117947142D01*
X131014523Y-117994761D01*
X131109761Y-118042380D01*
X131300238Y-118042380D01*
X131395476Y-117994761D01*
X131443095Y-117947142D01*
X131490714Y-117851904D01*
X131490714Y-117661428D01*
X131443095Y-117566190D01*
X131395476Y-117518571D01*
X131300238Y-117470952D01*
X124993333Y-113532380D02*
X124660000Y-113056190D01*
X124421904Y-113532380D02*
X124421904Y-112532380D01*
X124802857Y-112532380D01*
X124898095Y-112580000D01*
X124945714Y-112627619D01*
X124993333Y-112722857D01*
X124993333Y-112865714D01*
X124945714Y-112960952D01*
X124898095Y-113008571D01*
X124802857Y-113056190D01*
X124421904Y-113056190D01*
X125326666Y-112532380D02*
X125993333Y-112532380D01*
X125564761Y-113532380D01*
X130388333Y-115912380D02*
X130055000Y-115436190D01*
X129816904Y-115912380D02*
X129816904Y-114912380D01*
X130197857Y-114912380D01*
X130293095Y-114960000D01*
X130340714Y-115007619D01*
X130388333Y-115102857D01*
X130388333Y-115245714D01*
X130340714Y-115340952D01*
X130293095Y-115388571D01*
X130197857Y-115436190D01*
X129816904Y-115436190D01*
X131245476Y-114912380D02*
X131055000Y-114912380D01*
X130959761Y-114960000D01*
X130912142Y-115007619D01*
X130816904Y-115150476D01*
X130769285Y-115340952D01*
X130769285Y-115721904D01*
X130816904Y-115817142D01*
X130864523Y-115864761D01*
X130959761Y-115912380D01*
X131150238Y-115912380D01*
X131245476Y-115864761D01*
X131293095Y-115817142D01*
X131340714Y-115721904D01*
X131340714Y-115483809D01*
X131293095Y-115388571D01*
X131245476Y-115340952D01*
X131150238Y-115293333D01*
X130959761Y-115293333D01*
X130864523Y-115340952D01*
X130816904Y-115388571D01*
X130769285Y-115483809D01*
X141253333Y-113122380D02*
X140920000Y-112646190D01*
X140681904Y-113122380D02*
X140681904Y-112122380D01*
X141062857Y-112122380D01*
X141158095Y-112170000D01*
X141205714Y-112217619D01*
X141253333Y-112312857D01*
X141253333Y-112455714D01*
X141205714Y-112550952D01*
X141158095Y-112598571D01*
X141062857Y-112646190D01*
X140681904Y-112646190D01*
X142158095Y-112122380D02*
X141681904Y-112122380D01*
X141634285Y-112598571D01*
X141681904Y-112550952D01*
X141777142Y-112503333D01*
X142015238Y-112503333D01*
X142110476Y-112550952D01*
X142158095Y-112598571D01*
X142205714Y-112693809D01*
X142205714Y-112931904D01*
X142158095Y-113027142D01*
X142110476Y-113074761D01*
X142015238Y-113122380D01*
X141777142Y-113122380D01*
X141681904Y-113074761D01*
X141634285Y-113027142D01*
X170123333Y-115862380D02*
X169790000Y-115386190D01*
X169551904Y-115862380D02*
X169551904Y-114862380D01*
X169932857Y-114862380D01*
X170028095Y-114910000D01*
X170075714Y-114957619D01*
X170123333Y-115052857D01*
X170123333Y-115195714D01*
X170075714Y-115290952D01*
X170028095Y-115338571D01*
X169932857Y-115386190D01*
X169551904Y-115386190D01*
X170980476Y-115195714D02*
X170980476Y-115862380D01*
X170742380Y-114814761D02*
X170504285Y-115529047D01*
X171123333Y-115529047D01*
X157673333Y-113202380D02*
X157340000Y-112726190D01*
X157101904Y-113202380D02*
X157101904Y-112202380D01*
X157482857Y-112202380D01*
X157578095Y-112250000D01*
X157625714Y-112297619D01*
X157673333Y-112392857D01*
X157673333Y-112535714D01*
X157625714Y-112630952D01*
X157578095Y-112678571D01*
X157482857Y-112726190D01*
X157101904Y-112726190D01*
X158006666Y-112202380D02*
X158625714Y-112202380D01*
X158292380Y-112583333D01*
X158435238Y-112583333D01*
X158530476Y-112630952D01*
X158578095Y-112678571D01*
X158625714Y-112773809D01*
X158625714Y-113011904D01*
X158578095Y-113107142D01*
X158530476Y-113154761D01*
X158435238Y-113202380D01*
X158149523Y-113202380D01*
X158054285Y-113154761D01*
X158006666Y-113107142D01*
X170233333Y-118092380D02*
X169900000Y-117616190D01*
X169661904Y-118092380D02*
X169661904Y-117092380D01*
X170042857Y-117092380D01*
X170138095Y-117140000D01*
X170185714Y-117187619D01*
X170233333Y-117282857D01*
X170233333Y-117425714D01*
X170185714Y-117520952D01*
X170138095Y-117568571D01*
X170042857Y-117616190D01*
X169661904Y-117616190D01*
X170614285Y-117187619D02*
X170661904Y-117140000D01*
X170757142Y-117092380D01*
X170995238Y-117092380D01*
X171090476Y-117140000D01*
X171138095Y-117187619D01*
X171185714Y-117282857D01*
X171185714Y-117378095D01*
X171138095Y-117520952D01*
X170566666Y-118092380D01*
X171185714Y-118092380D01*
X173833333Y-113282380D02*
X173500000Y-112806190D01*
X173261904Y-113282380D02*
X173261904Y-112282380D01*
X173642857Y-112282380D01*
X173738095Y-112330000D01*
X173785714Y-112377619D01*
X173833333Y-112472857D01*
X173833333Y-112615714D01*
X173785714Y-112710952D01*
X173738095Y-112758571D01*
X173642857Y-112806190D01*
X173261904Y-112806190D01*
X174785714Y-113282380D02*
X174214285Y-113282380D01*
X174500000Y-113282380D02*
X174500000Y-112282380D01*
X174404761Y-112425238D01*
X174309523Y-112520476D01*
X174214285Y-112568095D01*
X175686666Y-65522380D02*
X175686666Y-66236666D01*
X175639047Y-66379523D01*
X175543809Y-66474761D01*
X175400952Y-66522380D01*
X175305714Y-66522380D01*
X176162857Y-66522380D02*
X176162857Y-65522380D01*
X176543809Y-65522380D01*
X176639047Y-65570000D01*
X176686666Y-65617619D01*
X176734285Y-65712857D01*
X176734285Y-65855714D01*
X176686666Y-65950952D01*
X176639047Y-65998571D01*
X176543809Y-66046190D01*
X176162857Y-66046190D01*
X177686666Y-66522380D02*
X177115238Y-66522380D01*
X177400952Y-66522380D02*
X177400952Y-65522380D01*
X177305714Y-65665238D01*
X177210476Y-65760476D01*
X177115238Y-65808095D01*
X133746666Y-119542380D02*
X133746666Y-120256666D01*
X133699047Y-120399523D01*
X133603809Y-120494761D01*
X133460952Y-120542380D01*
X133365714Y-120542380D01*
X134175238Y-119637619D02*
X134222857Y-119590000D01*
X134318095Y-119542380D01*
X134556190Y-119542380D01*
X134651428Y-119590000D01*
X134699047Y-119637619D01*
X134746666Y-119732857D01*
X134746666Y-119828095D01*
X134699047Y-119970952D01*
X134127619Y-120542380D01*
X134746666Y-120542380D01*
X137142666Y-66492380D02*
X137142666Y-67206666D01*
X137095047Y-67349523D01*
X136999809Y-67444761D01*
X136856952Y-67492380D01*
X136761714Y-67492380D01*
X138142666Y-67492380D02*
X137571238Y-67492380D01*
X137856952Y-67492380D02*
X137856952Y-66492380D01*
X137761714Y-66635238D01*
X137666476Y-66730476D01*
X137571238Y-66778095D01*
X134331904Y-72552380D02*
X134331904Y-71552380D01*
X134570000Y-71552380D01*
X134712857Y-71600000D01*
X134808095Y-71695238D01*
X134855714Y-71790476D01*
X134903333Y-71980952D01*
X134903333Y-72123809D01*
X134855714Y-72314285D01*
X134808095Y-72409523D01*
X134712857Y-72504761D01*
X134570000Y-72552380D01*
X134331904Y-72552380D01*
X135284285Y-71647619D02*
X135331904Y-71600000D01*
X135427142Y-71552380D01*
X135665238Y-71552380D01*
X135760476Y-71600000D01*
X135808095Y-71647619D01*
X135855714Y-71742857D01*
X135855714Y-71838095D01*
X135808095Y-71980952D01*
X135236666Y-72552380D01*
X135855714Y-72552380D01*
X137640000Y-73872380D02*
X137640000Y-72872380D01*
X137878095Y-72872380D01*
X138020952Y-72920000D01*
X138116190Y-73015238D01*
X138163809Y-73110476D01*
X138211428Y-73300952D01*
X138211428Y-73443809D01*
X138163809Y-73634285D01*
X138116190Y-73729523D01*
X138020952Y-73824761D01*
X137878095Y-73872380D01*
X137640000Y-73872380D01*
X138592380Y-73586666D02*
X139068571Y-73586666D01*
X138497142Y-73872380D02*
X138830476Y-72872380D01*
X139163809Y-73872380D01*
X139354285Y-72872380D02*
X139925714Y-72872380D01*
X139640000Y-73872380D02*
X139640000Y-72872380D01*
X140211428Y-73586666D02*
X140687619Y-73586666D01*
X140116190Y-73872380D02*
X140449523Y-72872380D01*
X140782857Y-73872380D01*
X132011904Y-72502380D02*
X132011904Y-71502380D01*
X132250000Y-71502380D01*
X132392857Y-71550000D01*
X132488095Y-71645238D01*
X132535714Y-71740476D01*
X132583333Y-71930952D01*
X132583333Y-72073809D01*
X132535714Y-72264285D01*
X132488095Y-72359523D01*
X132392857Y-72454761D01*
X132250000Y-72502380D01*
X132011904Y-72502380D01*
X133535714Y-72502380D02*
X132964285Y-72502380D01*
X133250000Y-72502380D02*
X133250000Y-71502380D01*
X133154761Y-71645238D01*
X133059523Y-71740476D01*
X132964285Y-71788095D01*
X127971904Y-73902380D02*
X127638571Y-73426190D01*
X127400476Y-73902380D02*
X127400476Y-72902380D01*
X127781428Y-72902380D01*
X127876666Y-72950000D01*
X127924285Y-72997619D01*
X127971904Y-73092857D01*
X127971904Y-73235714D01*
X127924285Y-73330952D01*
X127876666Y-73378571D01*
X127781428Y-73426190D01*
X127400476Y-73426190D01*
X128400476Y-72902380D02*
X128400476Y-73711904D01*
X128448095Y-73807142D01*
X128495714Y-73854761D01*
X128590952Y-73902380D01*
X128781428Y-73902380D01*
X128876666Y-73854761D01*
X128924285Y-73807142D01*
X128971904Y-73711904D01*
X128971904Y-72902380D01*
X129448095Y-73902380D02*
X129448095Y-72902380D01*
X130019523Y-73902380D01*
X130019523Y-72902380D01*
X164247142Y-113097142D02*
X164199523Y-113144761D01*
X164056666Y-113192380D01*
X163961428Y-113192380D01*
X163818571Y-113144761D01*
X163723333Y-113049523D01*
X163675714Y-112954285D01*
X163628095Y-112763809D01*
X163628095Y-112620952D01*
X163675714Y-112430476D01*
X163723333Y-112335238D01*
X163818571Y-112240000D01*
X163961428Y-112192380D01*
X164056666Y-112192380D01*
X164199523Y-112240000D01*
X164247142Y-112287619D01*
X164628095Y-112287619D02*
X164675714Y-112240000D01*
X164770952Y-112192380D01*
X165009047Y-112192380D01*
X165104285Y-112240000D01*
X165151904Y-112287619D01*
X165199523Y-112382857D01*
X165199523Y-112478095D01*
X165151904Y-112620952D01*
X164580476Y-113192380D01*
X165199523Y-113192380D01*
X166104285Y-112192380D02*
X165628095Y-112192380D01*
X165580476Y-112668571D01*
X165628095Y-112620952D01*
X165723333Y-112573333D01*
X165961428Y-112573333D01*
X166056666Y-112620952D01*
X166104285Y-112668571D01*
X166151904Y-112763809D01*
X166151904Y-113001904D01*
X166104285Y-113097142D01*
X166056666Y-113144761D01*
X165961428Y-113192380D01*
X165723333Y-113192380D01*
X165628095Y-113144761D01*
X165580476Y-113097142D01*
X180257142Y-113357142D02*
X180209523Y-113404761D01*
X180066666Y-113452380D01*
X179971428Y-113452380D01*
X179828571Y-113404761D01*
X179733333Y-113309523D01*
X179685714Y-113214285D01*
X179638095Y-113023809D01*
X179638095Y-112880952D01*
X179685714Y-112690476D01*
X179733333Y-112595238D01*
X179828571Y-112500000D01*
X179971428Y-112452380D01*
X180066666Y-112452380D01*
X180209523Y-112500000D01*
X180257142Y-112547619D01*
X180638095Y-112547619D02*
X180685714Y-112500000D01*
X180780952Y-112452380D01*
X181019047Y-112452380D01*
X181114285Y-112500000D01*
X181161904Y-112547619D01*
X181209523Y-112642857D01*
X181209523Y-112738095D01*
X181161904Y-112880952D01*
X180590476Y-113452380D01*
X181209523Y-113452380D01*
X182066666Y-112785714D02*
X182066666Y-113452380D01*
X181828571Y-112404761D02*
X181590476Y-113119047D01*
X182209523Y-113119047D01*
X131537142Y-113267142D02*
X131489523Y-113314761D01*
X131346666Y-113362380D01*
X131251428Y-113362380D01*
X131108571Y-113314761D01*
X131013333Y-113219523D01*
X130965714Y-113124285D01*
X130918095Y-112933809D01*
X130918095Y-112790952D01*
X130965714Y-112600476D01*
X131013333Y-112505238D01*
X131108571Y-112410000D01*
X131251428Y-112362380D01*
X131346666Y-112362380D01*
X131489523Y-112410000D01*
X131537142Y-112457619D01*
X131918095Y-112457619D02*
X131965714Y-112410000D01*
X132060952Y-112362380D01*
X132299047Y-112362380D01*
X132394285Y-112410000D01*
X132441904Y-112457619D01*
X132489523Y-112552857D01*
X132489523Y-112648095D01*
X132441904Y-112790952D01*
X131870476Y-113362380D01*
X132489523Y-113362380D01*
X132822857Y-112362380D02*
X133441904Y-112362380D01*
X133108571Y-112743333D01*
X133251428Y-112743333D01*
X133346666Y-112790952D01*
X133394285Y-112838571D01*
X133441904Y-112933809D01*
X133441904Y-113171904D01*
X133394285Y-113267142D01*
X133346666Y-113314761D01*
X133251428Y-113362380D01*
X132965714Y-113362380D01*
X132870476Y-113314761D01*
X132822857Y-113267142D01*
X147597142Y-113197142D02*
X147549523Y-113244761D01*
X147406666Y-113292380D01*
X147311428Y-113292380D01*
X147168571Y-113244761D01*
X147073333Y-113149523D01*
X147025714Y-113054285D01*
X146978095Y-112863809D01*
X146978095Y-112720952D01*
X147025714Y-112530476D01*
X147073333Y-112435238D01*
X147168571Y-112340000D01*
X147311428Y-112292380D01*
X147406666Y-112292380D01*
X147549523Y-112340000D01*
X147597142Y-112387619D01*
X147978095Y-112387619D02*
X148025714Y-112340000D01*
X148120952Y-112292380D01*
X148359047Y-112292380D01*
X148454285Y-112340000D01*
X148501904Y-112387619D01*
X148549523Y-112482857D01*
X148549523Y-112578095D01*
X148501904Y-112720952D01*
X147930476Y-113292380D01*
X148549523Y-113292380D01*
X148930476Y-112387619D02*
X148978095Y-112340000D01*
X149073333Y-112292380D01*
X149311428Y-112292380D01*
X149406666Y-112340000D01*
X149454285Y-112387619D01*
X149501904Y-112482857D01*
X149501904Y-112578095D01*
X149454285Y-112720952D01*
X148882857Y-113292380D01*
X149501904Y-113292380D01*
X178067142Y-74807142D02*
X178019523Y-74854761D01*
X177876666Y-74902380D01*
X177781428Y-74902380D01*
X177638571Y-74854761D01*
X177543333Y-74759523D01*
X177495714Y-74664285D01*
X177448095Y-74473809D01*
X177448095Y-74330952D01*
X177495714Y-74140476D01*
X177543333Y-74045238D01*
X177638571Y-73950000D01*
X177781428Y-73902380D01*
X177876666Y-73902380D01*
X178019523Y-73950000D01*
X178067142Y-73997619D01*
X178448095Y-73997619D02*
X178495714Y-73950000D01*
X178590952Y-73902380D01*
X178829047Y-73902380D01*
X178924285Y-73950000D01*
X178971904Y-73997619D01*
X179019523Y-74092857D01*
X179019523Y-74188095D01*
X178971904Y-74330952D01*
X178400476Y-74902380D01*
X179019523Y-74902380D01*
X179971904Y-74902380D02*
X179400476Y-74902380D01*
X179686190Y-74902380D02*
X179686190Y-73902380D01*
X179590952Y-74045238D01*
X179495714Y-74140476D01*
X179400476Y-74188095D01*
X181527142Y-85227142D02*
X181479523Y-85274761D01*
X181336666Y-85322380D01*
X181241428Y-85322380D01*
X181098571Y-85274761D01*
X181003333Y-85179523D01*
X180955714Y-85084285D01*
X180908095Y-84893809D01*
X180908095Y-84750952D01*
X180955714Y-84560476D01*
X181003333Y-84465238D01*
X181098571Y-84370000D01*
X181241428Y-84322380D01*
X181336666Y-84322380D01*
X181479523Y-84370000D01*
X181527142Y-84417619D01*
X181908095Y-84417619D02*
X181955714Y-84370000D01*
X182050952Y-84322380D01*
X182289047Y-84322380D01*
X182384285Y-84370000D01*
X182431904Y-84417619D01*
X182479523Y-84512857D01*
X182479523Y-84608095D01*
X182431904Y-84750952D01*
X181860476Y-85322380D01*
X182479523Y-85322380D01*
X183098571Y-84322380D02*
X183193809Y-84322380D01*
X183289047Y-84370000D01*
X183336666Y-84417619D01*
X183384285Y-84512857D01*
X183431904Y-84703333D01*
X183431904Y-84941428D01*
X183384285Y-85131904D01*
X183336666Y-85227142D01*
X183289047Y-85274761D01*
X183193809Y-85322380D01*
X183098571Y-85322380D01*
X183003333Y-85274761D01*
X182955714Y-85227142D01*
X182908095Y-85131904D01*
X182860476Y-84941428D01*
X182860476Y-84703333D01*
X182908095Y-84512857D01*
X182955714Y-84417619D01*
X183003333Y-84370000D01*
X183098571Y-84322380D01*
X152917142Y-96717142D02*
X152869523Y-96764761D01*
X152726666Y-96812380D01*
X152631428Y-96812380D01*
X152488571Y-96764761D01*
X152393333Y-96669523D01*
X152345714Y-96574285D01*
X152298095Y-96383809D01*
X152298095Y-96240952D01*
X152345714Y-96050476D01*
X152393333Y-95955238D01*
X152488571Y-95860000D01*
X152631428Y-95812380D01*
X152726666Y-95812380D01*
X152869523Y-95860000D01*
X152917142Y-95907619D01*
X153869523Y-96812380D02*
X153298095Y-96812380D01*
X153583809Y-96812380D02*
X153583809Y-95812380D01*
X153488571Y-95955238D01*
X153393333Y-96050476D01*
X153298095Y-96098095D01*
X154202857Y-95812380D02*
X154869523Y-95812380D01*
X154440952Y-96812380D01*
X145962142Y-102757142D02*
X145914523Y-102804761D01*
X145771666Y-102852380D01*
X145676428Y-102852380D01*
X145533571Y-102804761D01*
X145438333Y-102709523D01*
X145390714Y-102614285D01*
X145343095Y-102423809D01*
X145343095Y-102280952D01*
X145390714Y-102090476D01*
X145438333Y-101995238D01*
X145533571Y-101900000D01*
X145676428Y-101852380D01*
X145771666Y-101852380D01*
X145914523Y-101900000D01*
X145962142Y-101947619D01*
X146914523Y-102852380D02*
X146343095Y-102852380D01*
X146628809Y-102852380D02*
X146628809Y-101852380D01*
X146533571Y-101995238D01*
X146438333Y-102090476D01*
X146343095Y-102138095D01*
X147771666Y-101852380D02*
X147581190Y-101852380D01*
X147485952Y-101900000D01*
X147438333Y-101947619D01*
X147343095Y-102090476D01*
X147295476Y-102280952D01*
X147295476Y-102661904D01*
X147343095Y-102757142D01*
X147390714Y-102804761D01*
X147485952Y-102852380D01*
X147676428Y-102852380D01*
X147771666Y-102804761D01*
X147819285Y-102757142D01*
X147866904Y-102661904D01*
X147866904Y-102423809D01*
X147819285Y-102328571D01*
X147771666Y-102280952D01*
X147676428Y-102233333D01*
X147485952Y-102233333D01*
X147390714Y-102280952D01*
X147343095Y-102328571D01*
X147295476Y-102423809D01*
X129712142Y-102687142D02*
X129664523Y-102734761D01*
X129521666Y-102782380D01*
X129426428Y-102782380D01*
X129283571Y-102734761D01*
X129188333Y-102639523D01*
X129140714Y-102544285D01*
X129093095Y-102353809D01*
X129093095Y-102210952D01*
X129140714Y-102020476D01*
X129188333Y-101925238D01*
X129283571Y-101830000D01*
X129426428Y-101782380D01*
X129521666Y-101782380D01*
X129664523Y-101830000D01*
X129712142Y-101877619D01*
X130664523Y-102782380D02*
X130093095Y-102782380D01*
X130378809Y-102782380D02*
X130378809Y-101782380D01*
X130283571Y-101925238D01*
X130188333Y-102020476D01*
X130093095Y-102068095D01*
X131569285Y-101782380D02*
X131093095Y-101782380D01*
X131045476Y-102258571D01*
X131093095Y-102210952D01*
X131188333Y-102163333D01*
X131426428Y-102163333D01*
X131521666Y-102210952D01*
X131569285Y-102258571D01*
X131616904Y-102353809D01*
X131616904Y-102591904D01*
X131569285Y-102687142D01*
X131521666Y-102734761D01*
X131426428Y-102782380D01*
X131188333Y-102782380D01*
X131093095Y-102734761D01*
X131045476Y-102687142D01*
X162347142Y-102807142D02*
X162299523Y-102854761D01*
X162156666Y-102902380D01*
X162061428Y-102902380D01*
X161918571Y-102854761D01*
X161823333Y-102759523D01*
X161775714Y-102664285D01*
X161728095Y-102473809D01*
X161728095Y-102330952D01*
X161775714Y-102140476D01*
X161823333Y-102045238D01*
X161918571Y-101950000D01*
X162061428Y-101902380D01*
X162156666Y-101902380D01*
X162299523Y-101950000D01*
X162347142Y-101997619D01*
X163299523Y-102902380D02*
X162728095Y-102902380D01*
X163013809Y-102902380D02*
X163013809Y-101902380D01*
X162918571Y-102045238D01*
X162823333Y-102140476D01*
X162728095Y-102188095D01*
X164156666Y-102235714D02*
X164156666Y-102902380D01*
X163918571Y-101854761D02*
X163680476Y-102569047D01*
X164299523Y-102569047D01*
X178477142Y-103167142D02*
X178429523Y-103214761D01*
X178286666Y-103262380D01*
X178191428Y-103262380D01*
X178048571Y-103214761D01*
X177953333Y-103119523D01*
X177905714Y-103024285D01*
X177858095Y-102833809D01*
X177858095Y-102690952D01*
X177905714Y-102500476D01*
X177953333Y-102405238D01*
X178048571Y-102310000D01*
X178191428Y-102262380D01*
X178286666Y-102262380D01*
X178429523Y-102310000D01*
X178477142Y-102357619D01*
X179429523Y-103262380D02*
X178858095Y-103262380D01*
X179143809Y-103262380D02*
X179143809Y-102262380D01*
X179048571Y-102405238D01*
X178953333Y-102500476D01*
X178858095Y-102548095D01*
X179762857Y-102262380D02*
X180381904Y-102262380D01*
X180048571Y-102643333D01*
X180191428Y-102643333D01*
X180286666Y-102690952D01*
X180334285Y-102738571D01*
X180381904Y-102833809D01*
X180381904Y-103071904D01*
X180334285Y-103167142D01*
X180286666Y-103214761D01*
X180191428Y-103262380D01*
X179905714Y-103262380D01*
X179810476Y-103214761D01*
X179762857Y-103167142D01*
X166927142Y-114537142D02*
X166879523Y-114584761D01*
X166736666Y-114632380D01*
X166641428Y-114632380D01*
X166498571Y-114584761D01*
X166403333Y-114489523D01*
X166355714Y-114394285D01*
X166308095Y-114203809D01*
X166308095Y-114060952D01*
X166355714Y-113870476D01*
X166403333Y-113775238D01*
X166498571Y-113680000D01*
X166641428Y-113632380D01*
X166736666Y-113632380D01*
X166879523Y-113680000D01*
X166927142Y-113727619D01*
X167879523Y-114632380D02*
X167308095Y-114632380D01*
X167593809Y-114632380D02*
X167593809Y-113632380D01*
X167498571Y-113775238D01*
X167403333Y-113870476D01*
X167308095Y-113918095D01*
X168498571Y-113632380D02*
X168593809Y-113632380D01*
X168689047Y-113680000D01*
X168736666Y-113727619D01*
X168784285Y-113822857D01*
X168831904Y-114013333D01*
X168831904Y-114251428D01*
X168784285Y-114441904D01*
X168736666Y-114537142D01*
X168689047Y-114584761D01*
X168593809Y-114632380D01*
X168498571Y-114632380D01*
X168403333Y-114584761D01*
X168355714Y-114537142D01*
X168308095Y-114441904D01*
X168260476Y-114251428D01*
X168260476Y-114013333D01*
X168308095Y-113822857D01*
X168355714Y-113727619D01*
X168403333Y-113680000D01*
X168498571Y-113632380D01*
X183683333Y-114817142D02*
X183635714Y-114864761D01*
X183492857Y-114912380D01*
X183397619Y-114912380D01*
X183254761Y-114864761D01*
X183159523Y-114769523D01*
X183111904Y-114674285D01*
X183064285Y-114483809D01*
X183064285Y-114340952D01*
X183111904Y-114150476D01*
X183159523Y-114055238D01*
X183254761Y-113960000D01*
X183397619Y-113912380D01*
X183492857Y-113912380D01*
X183635714Y-113960000D01*
X183683333Y-114007619D01*
X184159523Y-114912380D02*
X184350000Y-114912380D01*
X184445238Y-114864761D01*
X184492857Y-114817142D01*
X184588095Y-114674285D01*
X184635714Y-114483809D01*
X184635714Y-114102857D01*
X184588095Y-114007619D01*
X184540476Y-113960000D01*
X184445238Y-113912380D01*
X184254761Y-113912380D01*
X184159523Y-113960000D01*
X184111904Y-114007619D01*
X184064285Y-114102857D01*
X184064285Y-114340952D01*
X184111904Y-114436190D01*
X184159523Y-114483809D01*
X184254761Y-114531428D01*
X184445238Y-114531428D01*
X184540476Y-114483809D01*
X184588095Y-114436190D01*
X184635714Y-114340952D01*
X121053333Y-113467142D02*
X121005714Y-113514761D01*
X120862857Y-113562380D01*
X120767619Y-113562380D01*
X120624761Y-113514761D01*
X120529523Y-113419523D01*
X120481904Y-113324285D01*
X120434285Y-113133809D01*
X120434285Y-112990952D01*
X120481904Y-112800476D01*
X120529523Y-112705238D01*
X120624761Y-112610000D01*
X120767619Y-112562380D01*
X120862857Y-112562380D01*
X121005714Y-112610000D01*
X121053333Y-112657619D01*
X121910476Y-112895714D02*
X121910476Y-113562380D01*
X121672380Y-112514761D02*
X121434285Y-113229047D01*
X122053333Y-113229047D01*
X137553333Y-113017142D02*
X137505714Y-113064761D01*
X137362857Y-113112380D01*
X137267619Y-113112380D01*
X137124761Y-113064761D01*
X137029523Y-112969523D01*
X136981904Y-112874285D01*
X136934285Y-112683809D01*
X136934285Y-112540952D01*
X136981904Y-112350476D01*
X137029523Y-112255238D01*
X137124761Y-112160000D01*
X137267619Y-112112380D01*
X137362857Y-112112380D01*
X137505714Y-112160000D01*
X137553333Y-112207619D01*
X137886666Y-112112380D02*
X138505714Y-112112380D01*
X138172380Y-112493333D01*
X138315238Y-112493333D01*
X138410476Y-112540952D01*
X138458095Y-112588571D01*
X138505714Y-112683809D01*
X138505714Y-112921904D01*
X138458095Y-113017142D01*
X138410476Y-113064761D01*
X138315238Y-113112380D01*
X138029523Y-113112380D01*
X137934285Y-113064761D01*
X137886666Y-113017142D01*
X153653333Y-113077142D02*
X153605714Y-113124761D01*
X153462857Y-113172380D01*
X153367619Y-113172380D01*
X153224761Y-113124761D01*
X153129523Y-113029523D01*
X153081904Y-112934285D01*
X153034285Y-112743809D01*
X153034285Y-112600952D01*
X153081904Y-112410476D01*
X153129523Y-112315238D01*
X153224761Y-112220000D01*
X153367619Y-112172380D01*
X153462857Y-112172380D01*
X153605714Y-112220000D01*
X153653333Y-112267619D01*
X154034285Y-112267619D02*
X154081904Y-112220000D01*
X154177142Y-112172380D01*
X154415238Y-112172380D01*
X154510476Y-112220000D01*
X154558095Y-112267619D01*
X154605714Y-112362857D01*
X154605714Y-112458095D01*
X154558095Y-112600952D01*
X153986666Y-113172380D01*
X154605714Y-113172380D01*
X170363333Y-113337142D02*
X170315714Y-113384761D01*
X170172857Y-113432380D01*
X170077619Y-113432380D01*
X169934761Y-113384761D01*
X169839523Y-113289523D01*
X169791904Y-113194285D01*
X169744285Y-113003809D01*
X169744285Y-112860952D01*
X169791904Y-112670476D01*
X169839523Y-112575238D01*
X169934761Y-112480000D01*
X170077619Y-112432380D01*
X170172857Y-112432380D01*
X170315714Y-112480000D01*
X170363333Y-112527619D01*
X171315714Y-113432380D02*
X170744285Y-113432380D01*
X171030000Y-113432380D02*
X171030000Y-112432380D01*
X170934761Y-112575238D01*
X170839523Y-112670476D01*
X170744285Y-112718095D01*
X164893714Y-74080666D02*
X165369904Y-74080666D01*
X164798476Y-74366380D02*
X165131809Y-73366380D01*
X165465142Y-74366380D01*
X166322285Y-74366380D02*
X165750857Y-74366380D01*
X166036571Y-74366380D02*
X166036571Y-73366380D01*
X165941333Y-73509238D01*
X165846095Y-73604476D01*
X165750857Y-73652095D01*
M02*
