G04 #@! TF.GenerationSoftware,KiCad,Pcbnew,5.99.0-unknown-c3175b4~86~ubuntu16.04.1*
G04 #@! TF.CreationDate,2019-12-02T17:51:55+01:00*
G04 #@! TF.ProjectId,OutAna,4f757441-6e61-42e6-9b69-6361645f7063,rev?*
G04 #@! TF.SameCoordinates,Original*
G04 #@! TF.FileFunction,Paste,Bot*
G04 #@! TF.FilePolarity,Positive*
%FSLAX46Y46*%
G04 Gerber Fmt 4.6, Leading zero omitted, Abs format (unit mm)*
G04 Created by KiCad (PCBNEW 5.99.0-unknown-c3175b4~86~ubuntu16.04.1) date 2019-12-02 17:51:55*
%MOMM*%
%LPD*%
G04 APERTURE LIST*
%ADD10C,0.150000*%
G04 APERTURE END LIST*
D10*
X144482380Y-71955714D02*
X143482380Y-71955714D01*
X143482380Y-72193809D01*
X143530000Y-72336666D01*
X143625238Y-72431904D01*
X143720476Y-72479523D01*
X143910952Y-72527142D01*
X144053809Y-72527142D01*
X144244285Y-72479523D01*
X144339523Y-72431904D01*
X144434761Y-72336666D01*
X144482380Y-72193809D01*
X144482380Y-71955714D01*
X144482380Y-73479523D02*
X144482380Y-72908095D01*
X144482380Y-73193809D02*
X143482380Y-73193809D01*
X143625238Y-73098571D01*
X143720476Y-73003333D01*
X143768095Y-72908095D01*
X143482380Y-74098571D02*
X143482380Y-74193809D01*
X143530000Y-74289047D01*
X143577619Y-74336666D01*
X143672857Y-74384285D01*
X143863333Y-74431904D01*
X144101428Y-74431904D01*
X144291904Y-74384285D01*
X144387142Y-74336666D01*
X144434761Y-74289047D01*
X144482380Y-74193809D01*
X144482380Y-74098571D01*
X144434761Y-74003333D01*
X144387142Y-73955714D01*
X144291904Y-73908095D01*
X144101428Y-73860476D01*
X143863333Y-73860476D01*
X143672857Y-73908095D01*
X143577619Y-73955714D01*
X143530000Y-74003333D01*
X143482380Y-74098571D01*
X147262380Y-72541904D02*
X146262380Y-72541904D01*
X146262380Y-72780000D01*
X146310000Y-72922857D01*
X146405238Y-73018095D01*
X146500476Y-73065714D01*
X146690952Y-73113333D01*
X146833809Y-73113333D01*
X147024285Y-73065714D01*
X147119523Y-73018095D01*
X147214761Y-72922857D01*
X147262380Y-72780000D01*
X147262380Y-72541904D01*
X147262380Y-73589523D02*
X147262380Y-73780000D01*
X147214761Y-73875238D01*
X147167142Y-73922857D01*
X147024285Y-74018095D01*
X146833809Y-74065714D01*
X146452857Y-74065714D01*
X146357619Y-74018095D01*
X146310000Y-73970476D01*
X146262380Y-73875238D01*
X146262380Y-73684761D01*
X146310000Y-73589523D01*
X146357619Y-73541904D01*
X146452857Y-73494285D01*
X146690952Y-73494285D01*
X146786190Y-73541904D01*
X146833809Y-73589523D01*
X146881428Y-73684761D01*
X146881428Y-73875238D01*
X146833809Y-73970476D01*
X146786190Y-74018095D01*
X146690952Y-74065714D01*
X151892380Y-72361904D02*
X150892380Y-72361904D01*
X150892380Y-72600000D01*
X150940000Y-72742857D01*
X151035238Y-72838095D01*
X151130476Y-72885714D01*
X151320952Y-72933333D01*
X151463809Y-72933333D01*
X151654285Y-72885714D01*
X151749523Y-72838095D01*
X151844761Y-72742857D01*
X151892380Y-72600000D01*
X151892380Y-72361904D01*
X151320952Y-73504761D02*
X151273333Y-73409523D01*
X151225714Y-73361904D01*
X151130476Y-73314285D01*
X151082857Y-73314285D01*
X150987619Y-73361904D01*
X150940000Y-73409523D01*
X150892380Y-73504761D01*
X150892380Y-73695238D01*
X150940000Y-73790476D01*
X150987619Y-73838095D01*
X151082857Y-73885714D01*
X151130476Y-73885714D01*
X151225714Y-73838095D01*
X151273333Y-73790476D01*
X151320952Y-73695238D01*
X151320952Y-73504761D01*
X151368571Y-73409523D01*
X151416190Y-73361904D01*
X151511428Y-73314285D01*
X151701904Y-73314285D01*
X151797142Y-73361904D01*
X151844761Y-73409523D01*
X151892380Y-73504761D01*
X151892380Y-73695238D01*
X151844761Y-73790476D01*
X151797142Y-73838095D01*
X151701904Y-73885714D01*
X151511428Y-73885714D01*
X151416190Y-73838095D01*
X151368571Y-73790476D01*
X151320952Y-73695238D01*
X154502380Y-72401904D02*
X153502380Y-72401904D01*
X153502380Y-72640000D01*
X153550000Y-72782857D01*
X153645238Y-72878095D01*
X153740476Y-72925714D01*
X153930952Y-72973333D01*
X154073809Y-72973333D01*
X154264285Y-72925714D01*
X154359523Y-72878095D01*
X154454761Y-72782857D01*
X154502380Y-72640000D01*
X154502380Y-72401904D01*
X153502380Y-73306666D02*
X153502380Y-73973333D01*
X154502380Y-73544761D01*
X179306666Y-106757142D02*
X179354285Y-106804761D01*
X179497142Y-106852380D01*
X179592380Y-106852380D01*
X179735238Y-106804761D01*
X179830476Y-106709523D01*
X179878095Y-106614285D01*
X179925714Y-106423809D01*
X179925714Y-106280952D01*
X179878095Y-106090476D01*
X179830476Y-105995238D01*
X179735238Y-105900000D01*
X179592380Y-105852380D01*
X179497142Y-105852380D01*
X179354285Y-105900000D01*
X179306666Y-105947619D01*
X178401904Y-105852380D02*
X178878095Y-105852380D01*
X178925714Y-106328571D01*
X178878095Y-106280952D01*
X178782857Y-106233333D01*
X178544761Y-106233333D01*
X178449523Y-106280952D01*
X178401904Y-106328571D01*
X178354285Y-106423809D01*
X178354285Y-106661904D01*
X178401904Y-106757142D01*
X178449523Y-106804761D01*
X178544761Y-106852380D01*
X178782857Y-106852380D01*
X178878095Y-106804761D01*
X178925714Y-106757142D01*
X138012857Y-109692380D02*
X138346190Y-109216190D01*
X138584285Y-109692380D02*
X138584285Y-108692380D01*
X138203333Y-108692380D01*
X138108095Y-108740000D01*
X138060476Y-108787619D01*
X138012857Y-108882857D01*
X138012857Y-109025714D01*
X138060476Y-109120952D01*
X138108095Y-109168571D01*
X138203333Y-109216190D01*
X138584285Y-109216190D01*
X137631904Y-108787619D02*
X137584285Y-108740000D01*
X137489047Y-108692380D01*
X137250952Y-108692380D01*
X137155714Y-108740000D01*
X137108095Y-108787619D01*
X137060476Y-108882857D01*
X137060476Y-108978095D01*
X137108095Y-109120952D01*
X137679523Y-109692380D01*
X137060476Y-109692380D01*
X136727142Y-108692380D02*
X136060476Y-108692380D01*
X136489047Y-109692380D01*
X154312857Y-109592380D02*
X154646190Y-109116190D01*
X154884285Y-109592380D02*
X154884285Y-108592380D01*
X154503333Y-108592380D01*
X154408095Y-108640000D01*
X154360476Y-108687619D01*
X154312857Y-108782857D01*
X154312857Y-108925714D01*
X154360476Y-109020952D01*
X154408095Y-109068571D01*
X154503333Y-109116190D01*
X154884285Y-109116190D01*
X153931904Y-108687619D02*
X153884285Y-108640000D01*
X153789047Y-108592380D01*
X153550952Y-108592380D01*
X153455714Y-108640000D01*
X153408095Y-108687619D01*
X153360476Y-108782857D01*
X153360476Y-108878095D01*
X153408095Y-109020952D01*
X153979523Y-109592380D01*
X153360476Y-109592380D01*
X152503333Y-108592380D02*
X152693809Y-108592380D01*
X152789047Y-108640000D01*
X152836666Y-108687619D01*
X152931904Y-108830476D01*
X152979523Y-109020952D01*
X152979523Y-109401904D01*
X152931904Y-109497142D01*
X152884285Y-109544761D01*
X152789047Y-109592380D01*
X152598571Y-109592380D01*
X152503333Y-109544761D01*
X152455714Y-109497142D01*
X152408095Y-109401904D01*
X152408095Y-109163809D01*
X152455714Y-109068571D01*
X152503333Y-109020952D01*
X152598571Y-108973333D01*
X152789047Y-108973333D01*
X152884285Y-109020952D01*
X152931904Y-109068571D01*
X152979523Y-109163809D01*
X170642857Y-109702380D02*
X170976190Y-109226190D01*
X171214285Y-109702380D02*
X171214285Y-108702380D01*
X170833333Y-108702380D01*
X170738095Y-108750000D01*
X170690476Y-108797619D01*
X170642857Y-108892857D01*
X170642857Y-109035714D01*
X170690476Y-109130952D01*
X170738095Y-109178571D01*
X170833333Y-109226190D01*
X171214285Y-109226190D01*
X170261904Y-108797619D02*
X170214285Y-108750000D01*
X170119047Y-108702380D01*
X169880952Y-108702380D01*
X169785714Y-108750000D01*
X169738095Y-108797619D01*
X169690476Y-108892857D01*
X169690476Y-108988095D01*
X169738095Y-109130952D01*
X170309523Y-109702380D01*
X169690476Y-109702380D01*
X168785714Y-108702380D02*
X169261904Y-108702380D01*
X169309523Y-109178571D01*
X169261904Y-109130952D01*
X169166666Y-109083333D01*
X168928571Y-109083333D01*
X168833333Y-109130952D01*
X168785714Y-109178571D01*
X168738095Y-109273809D01*
X168738095Y-109511904D01*
X168785714Y-109607142D01*
X168833333Y-109654761D01*
X168928571Y-109702380D01*
X169166666Y-109702380D01*
X169261904Y-109654761D01*
X169309523Y-109607142D01*
X130932857Y-108822380D02*
X131266190Y-108346190D01*
X131504285Y-108822380D02*
X131504285Y-107822380D01*
X131123333Y-107822380D01*
X131028095Y-107870000D01*
X130980476Y-107917619D01*
X130932857Y-108012857D01*
X130932857Y-108155714D01*
X130980476Y-108250952D01*
X131028095Y-108298571D01*
X131123333Y-108346190D01*
X131504285Y-108346190D01*
X130551904Y-107917619D02*
X130504285Y-107870000D01*
X130409047Y-107822380D01*
X130170952Y-107822380D01*
X130075714Y-107870000D01*
X130028095Y-107917619D01*
X129980476Y-108012857D01*
X129980476Y-108108095D01*
X130028095Y-108250952D01*
X130599523Y-108822380D01*
X129980476Y-108822380D01*
X129361428Y-107822380D02*
X129266190Y-107822380D01*
X129170952Y-107870000D01*
X129123333Y-107917619D01*
X129075714Y-108012857D01*
X129028095Y-108203333D01*
X129028095Y-108441428D01*
X129075714Y-108631904D01*
X129123333Y-108727142D01*
X129170952Y-108774761D01*
X129266190Y-108822380D01*
X129361428Y-108822380D01*
X129456666Y-108774761D01*
X129504285Y-108727142D01*
X129551904Y-108631904D01*
X129599523Y-108441428D01*
X129599523Y-108203333D01*
X129551904Y-108012857D01*
X129504285Y-107917619D01*
X129456666Y-107870000D01*
X129361428Y-107822380D01*
X147192857Y-108882380D02*
X147526190Y-108406190D01*
X147764285Y-108882380D02*
X147764285Y-107882380D01*
X147383333Y-107882380D01*
X147288095Y-107930000D01*
X147240476Y-107977619D01*
X147192857Y-108072857D01*
X147192857Y-108215714D01*
X147240476Y-108310952D01*
X147288095Y-108358571D01*
X147383333Y-108406190D01*
X147764285Y-108406190D01*
X146240476Y-108882380D02*
X146811904Y-108882380D01*
X146526190Y-108882380D02*
X146526190Y-107882380D01*
X146621428Y-108025238D01*
X146716666Y-108120476D01*
X146811904Y-108168095D01*
X145907142Y-107882380D02*
X145240476Y-107882380D01*
X145669047Y-108882380D01*
X163622857Y-108852380D02*
X163956190Y-108376190D01*
X164194285Y-108852380D02*
X164194285Y-107852380D01*
X163813333Y-107852380D01*
X163718095Y-107900000D01*
X163670476Y-107947619D01*
X163622857Y-108042857D01*
X163622857Y-108185714D01*
X163670476Y-108280952D01*
X163718095Y-108328571D01*
X163813333Y-108376190D01*
X164194285Y-108376190D01*
X162670476Y-108852380D02*
X163241904Y-108852380D01*
X162956190Y-108852380D02*
X162956190Y-107852380D01*
X163051428Y-107995238D01*
X163146666Y-108090476D01*
X163241904Y-108138095D01*
X161813333Y-108185714D02*
X161813333Y-108852380D01*
X162051428Y-107804761D02*
X162289523Y-108519047D01*
X161670476Y-108519047D01*
X179872857Y-108932380D02*
X180206190Y-108456190D01*
X180444285Y-108932380D02*
X180444285Y-107932380D01*
X180063333Y-107932380D01*
X179968095Y-107980000D01*
X179920476Y-108027619D01*
X179872857Y-108122857D01*
X179872857Y-108265714D01*
X179920476Y-108360952D01*
X179968095Y-108408571D01*
X180063333Y-108456190D01*
X180444285Y-108456190D01*
X178920476Y-108932380D02*
X179491904Y-108932380D01*
X179206190Y-108932380D02*
X179206190Y-107932380D01*
X179301428Y-108075238D01*
X179396666Y-108170476D01*
X179491904Y-108218095D01*
X177968095Y-108932380D02*
X178539523Y-108932380D01*
X178253809Y-108932380D02*
X178253809Y-107932380D01*
X178349047Y-108075238D01*
X178444285Y-108170476D01*
X178539523Y-108218095D01*
X135127142Y-111327142D02*
X135174761Y-111279523D01*
X135222380Y-111136666D01*
X135222380Y-111041428D01*
X135174761Y-110898571D01*
X135079523Y-110803333D01*
X134984285Y-110755714D01*
X134793809Y-110708095D01*
X134650952Y-110708095D01*
X134460476Y-110755714D01*
X134365238Y-110803333D01*
X134270000Y-110898571D01*
X134222380Y-111041428D01*
X134222380Y-111136666D01*
X134270000Y-111279523D01*
X134317619Y-111327142D01*
X135222380Y-112279523D02*
X135222380Y-111708095D01*
X135222380Y-111993809D02*
X134222380Y-111993809D01*
X134365238Y-111898571D01*
X134460476Y-111803333D01*
X134508095Y-111708095D01*
X134317619Y-112660476D02*
X134270000Y-112708095D01*
X134222380Y-112803333D01*
X134222380Y-113041428D01*
X134270000Y-113136666D01*
X134317619Y-113184285D01*
X134412857Y-113231904D01*
X134508095Y-113231904D01*
X134650952Y-113184285D01*
X135222380Y-112612857D01*
X135222380Y-113231904D01*
X151417142Y-111307142D02*
X151464761Y-111259523D01*
X151512380Y-111116666D01*
X151512380Y-111021428D01*
X151464761Y-110878571D01*
X151369523Y-110783333D01*
X151274285Y-110735714D01*
X151083809Y-110688095D01*
X150940952Y-110688095D01*
X150750476Y-110735714D01*
X150655238Y-110783333D01*
X150560000Y-110878571D01*
X150512380Y-111021428D01*
X150512380Y-111116666D01*
X150560000Y-111259523D01*
X150607619Y-111307142D01*
X151512380Y-112259523D02*
X151512380Y-111688095D01*
X151512380Y-111973809D02*
X150512380Y-111973809D01*
X150655238Y-111878571D01*
X150750476Y-111783333D01*
X150798095Y-111688095D01*
X151512380Y-113211904D02*
X151512380Y-112640476D01*
X151512380Y-112926190D02*
X150512380Y-112926190D01*
X150655238Y-112830952D01*
X150750476Y-112735714D01*
X150798095Y-112640476D01*
X130466666Y-106607142D02*
X130514285Y-106654761D01*
X130657142Y-106702380D01*
X130752380Y-106702380D01*
X130895238Y-106654761D01*
X130990476Y-106559523D01*
X131038095Y-106464285D01*
X131085714Y-106273809D01*
X131085714Y-106130952D01*
X131038095Y-105940476D01*
X130990476Y-105845238D01*
X130895238Y-105750000D01*
X130752380Y-105702380D01*
X130657142Y-105702380D01*
X130514285Y-105750000D01*
X130466666Y-105797619D01*
X129895238Y-106130952D02*
X129990476Y-106083333D01*
X130038095Y-106035714D01*
X130085714Y-105940476D01*
X130085714Y-105892857D01*
X130038095Y-105797619D01*
X129990476Y-105750000D01*
X129895238Y-105702380D01*
X129704761Y-105702380D01*
X129609523Y-105750000D01*
X129561904Y-105797619D01*
X129514285Y-105892857D01*
X129514285Y-105940476D01*
X129561904Y-106035714D01*
X129609523Y-106083333D01*
X129704761Y-106130952D01*
X129895238Y-106130952D01*
X129990476Y-106178571D01*
X130038095Y-106226190D01*
X130085714Y-106321428D01*
X130085714Y-106511904D01*
X130038095Y-106607142D01*
X129990476Y-106654761D01*
X129895238Y-106702380D01*
X129704761Y-106702380D01*
X129609523Y-106654761D01*
X129561904Y-106607142D01*
X129514285Y-106511904D01*
X129514285Y-106321428D01*
X129561904Y-106226190D01*
X129609523Y-106178571D01*
X129704761Y-106130952D01*
X146796666Y-106777142D02*
X146844285Y-106824761D01*
X146987142Y-106872380D01*
X147082380Y-106872380D01*
X147225238Y-106824761D01*
X147320476Y-106729523D01*
X147368095Y-106634285D01*
X147415714Y-106443809D01*
X147415714Y-106300952D01*
X147368095Y-106110476D01*
X147320476Y-106015238D01*
X147225238Y-105920000D01*
X147082380Y-105872380D01*
X146987142Y-105872380D01*
X146844285Y-105920000D01*
X146796666Y-105967619D01*
X146463333Y-105872380D02*
X145796666Y-105872380D01*
X146225238Y-106872380D01*
X163086666Y-106757142D02*
X163134285Y-106804761D01*
X163277142Y-106852380D01*
X163372380Y-106852380D01*
X163515238Y-106804761D01*
X163610476Y-106709523D01*
X163658095Y-106614285D01*
X163705714Y-106423809D01*
X163705714Y-106280952D01*
X163658095Y-106090476D01*
X163610476Y-105995238D01*
X163515238Y-105900000D01*
X163372380Y-105852380D01*
X163277142Y-105852380D01*
X163134285Y-105900000D01*
X163086666Y-105947619D01*
X162229523Y-105852380D02*
X162420000Y-105852380D01*
X162515238Y-105900000D01*
X162562857Y-105947619D01*
X162658095Y-106090476D01*
X162705714Y-106280952D01*
X162705714Y-106661904D01*
X162658095Y-106757142D01*
X162610476Y-106804761D01*
X162515238Y-106852380D01*
X162324761Y-106852380D01*
X162229523Y-106804761D01*
X162181904Y-106757142D01*
X162134285Y-106661904D01*
X162134285Y-106423809D01*
X162181904Y-106328571D01*
X162229523Y-106280952D01*
X162324761Y-106233333D01*
X162515238Y-106233333D01*
X162610476Y-106280952D01*
X162658095Y-106328571D01*
X162705714Y-106423809D01*
M02*
