M48
; DRILL file {KiCad 5.99.0-unknown-c3175b4~86~ubuntu16.04.1} date lun 02 dic 2019 17:51:52 CET
; FORMAT={-:-/ absolute / metric / decimal}
; #@! TF.CreationDate,2019-12-02T17:51:52+01:00
; #@! TF.GenerationSoftware,Kicad,Pcbnew,5.99.0-unknown-c3175b4~86~ubuntu16.04.1
FMAT,2
METRIC
T1C0.400
T2C0.800
T3C1.016
T4C1.200
T5C3.200
%
G90
G05
T1
X121.29Y-102.93
X122.6Y-107.73
X123.24Y-112.78
X123.25Y-110.08
X124.52Y-103.77
X126.8Y-87.69
X128.07Y-104.87
X130.35Y-109.53
X131.13Y-112.93
X132.53Y-107.31
X133.65Y-109.51
X133.76Y-107.41
X136.41Y-102.91
X136.81Y-94.08
X137.39Y-107.59
X139.01Y-88.69
X139.38Y-109.95
X139.425Y-78.425
X140.19Y-89.32
X140.63Y-103.77
X141.3Y-112.87
X143.87Y-95.57
X143.89Y-96.69
X144.19Y-104.92
X145.27Y-87.69
X146.58Y-109.53
X147.81Y-88.69
X147.828Y-96.52
X148.45Y-106.37
X149.63Y-102.09
X149.88Y-107.24
X149.9Y-109.47
X150.35Y-88.67
X150.39Y-102.88
X151.52Y-70.74
X152.21Y-102.12
X152.89Y-87.67
X153.74Y-107.73
X155.79Y-110.02
X156.56Y-113.81
X156.72Y-88.68
X156.97Y-94.4
X157.04Y-103.78
X160.59Y-104.93
X161.78Y-87.67
X162.94Y-109.74
X164.18Y-115.26
X164.84Y-106.36
X165.18Y-115.2
X165.525Y-81.1
X166.23Y-109.46
X166.25Y-107.28
X167.15Y-72.9
X168.16Y-91.12
X168.98Y-103.02
X170.1Y-107.84
X171.81Y-102.25
X172.25Y-110.01
X172.28Y-113.99
X173.13Y-69.79
X173.3Y-103.78
X174.16Y-70.8
X174.22Y-101.09
X176.125Y-75.605
X176.97Y-104.82
X179.24Y-109.74
X180.1Y-86.44
X180.97Y-106.4
X182.45Y-107.32
X182.46Y-109.55
X183.35Y-103.06
T2
X130.03Y-75.94
X130.03Y-91.18
X132.57Y-75.94
X132.57Y-91.18
X135.11Y-75.94
X135.11Y-91.18
X137.65Y-75.94
X137.65Y-91.18
X140.19Y-75.94
X140.19Y-91.18
X142.73Y-75.94
X142.73Y-91.18
X145.27Y-75.94
X145.27Y-91.18
X147.81Y-75.94
X147.81Y-91.18
X150.35Y-75.94
X150.35Y-91.18
X152.89Y-75.94
X152.89Y-91.18
X155.43Y-75.94
X155.43Y-91.18
X157.97Y-75.94
X157.97Y-91.18
X160.51Y-75.94
X160.51Y-91.18
X163.05Y-75.94
X163.05Y-91.18
X165.59Y-75.94
X165.59Y-91.18
T3
X144.08Y-65.77
X144.08Y-68.31
X146.62Y-65.77
X146.62Y-68.31
X149.16Y-65.77
X149.16Y-68.31
X151.7Y-65.77
X151.7Y-68.31
X154.24Y-65.77
X154.24Y-68.31
X156.78Y-65.77
X156.78Y-68.31
X159.32Y-65.77
X159.32Y-68.31
T4
X137.84Y-117.62
X141.34Y-117.62
X144.84Y-117.62
X148.34Y-117.62
X151.84Y-117.62
X155.34Y-117.62
X158.84Y-117.62
X162.34Y-117.62
T5
X181.67Y-72.24
X123.8Y-72.11
X123.67Y-98.21
X181.67Y-98.15
T0
M30
